<svg xmlns="http://www.w3.org/2000/svg" fill="none" viewBox="0 0 55 54"><rect width="54.015" height="53.084" x=".458" y=".458" fill="url(#paint0_radial_5841_36231)" rx="3.207"/><rect width="54.015" height="53.084" x=".458" y=".458" stroke="url(#paint1_linear_5841_36231)" stroke-width=".916" rx="3.207"/><path fill="#fff" stroke="#004ca3" d="M17.95 19.81h18.97a3.56 3.56 0 0 1 3.56 3.56v3.32l-8.84 2.95h-8.4l-8.84-2.95v-3.32a3.56 3.56 0 0 1 3.55-3.56Z"/><path fill="#fff" d="M24.73 19.3v-1.35h5.42v1.36h2.7v-1.36a2.7 2.7 0 0 0-2.7-2.71h-5.42a2.7 2.7 0 0 0-2.71 2.71v1.36zm-1.58 10.84-9.26-3.09v8.51a4.07 4.07 0 0 0 4.06 4.07h18.97a4.07 4.07 0 0 0 4.07-4.07v-8.5l-9.27 3.09z"/><defs><radialGradient id="paint0_radial_5841_36231" cx="0" cy="0" r="1" gradientTransform="matrix(36.2498 0 0 36.8748 27.466 2.358)" gradientUnits="userSpaceOnUse"><stop stop-color="#74b5ff"/><stop offset="1" stop-color="#0071f2"/></radialGradient><linearGradient id="paint1_linear_5841_36231" x1="27.466" x2="27.466" y1="0" y2="54" gradientUnits="userSpaceOnUse"><stop stop-color="#0071f2"/><stop offset="1" stop-color="#7cb9ff"/></linearGradient></defs></svg>