<svg xmlns="http://www.w3.org/2000/svg" fill="none" viewBox="0 0 55 54"><rect width="54.015" height="53.084" x=".458" y=".458" fill="url(#paint0_radial_5841_36231)" rx="3.207"/><rect width="54.015" height="53.084" x=".458" y=".458" stroke="url(#paint1_linear_5841_36231)" stroke-width=".916" rx="3.207"/><path fill="#fff" stroke="#004ca3" d="M17.952 19.814H36.92a3.557 3.557 0 0 1 3.556 3.556v3.318l-8.838 2.949h-8.404l-8.838-2.949V23.37a3.556 3.556 0 0 1 3.556-3.556Z"/><path fill="#fff" d="M24.726 19.306V17.95h5.42v1.355h2.71V17.95a2.71 2.71 0 0 0-2.71-2.71h-5.42a2.71 2.71 0 0 0-2.71 2.71v1.355zm-1.575 10.838-9.263-3.089v8.508a4.07 4.07 0 0 0 4.064 4.065H36.92a4.07 4.07 0 0 0 4.065-4.065v-8.508l-9.263 3.09z"/><defs><radialGradient id="paint0_radial_5841_36231" cx="0" cy="0" r="1" gradientTransform="matrix(36.2498 0 0 36.8748 27.466 2.358)" gradientUnits="userSpaceOnUse"><stop stop-color="#74b5ff"/><stop offset="1" stop-color="#0071f2"/></radialGradient><linearGradient id="paint1_linear_5841_36231" x1="27.466" x2="27.466" y1="0" y2="54" gradientUnits="userSpaceOnUse"><stop stop-color="#0071f2"/><stop offset="1" stop-color="#7cb9ff"/></linearGradient></defs></svg>