<svg xmlns="http://www.w3.org/2000/svg" fill="none" viewBox="0 0 55 54"><rect width="54.015" height="53.084" x=".458" y=".458" fill="url(#paint0_radial_5841_36222)" rx="3.207"/><rect width="54.015" height="53.084" x=".458" y=".458" stroke="url(#paint1_linear_5841_36222)" stroke-width=".916" rx="3.207"/><path fill="#fff" fill-rule="evenodd" d="m27.755 32.93 7.922-7.9c1.14-1.136 1.71-1.705 2.01-2.427s.301-1.528.301-3.136v-.768c0-2.474 0-3.711-.77-4.48-.772-.768-2.011-.768-4.492-.768h-.772c-1.612 0-2.419 0-3.143.3-.726.3-1.297.868-2.439 2.005l-7.92 7.898c-1.333 1.328-2.16 2.153-2.48 2.948-.098.242-.15.5-.151.762 0 1.086.877 1.962 2.631 3.71l.236.235 2.76-2.803a1.015 1.015 0 0 1 1.661.317 1.02 1.02 0 0 1-.212 1.11l-2.77 2.81.185.186c1.755 1.748 2.633 2.623 3.722 2.623.24 0 .471-.042.703-.127.817-.3 1.651-1.133 3.018-2.496m3.722-9.276a2.636 2.636 0 0 1-4.293-.85 2.62 2.62 0 0 1 .571-2.86 2.637 2.637 0 0 1 4.293.851 2.61 2.61 0 0 1-.571 2.86" clip-rule="evenodd"/><path fill="#fff" d="m20.425 18.822-3.446 3.437c-.632.631-1.213 1.21-1.673 1.734a8 8 0 0 0-.838 1.11l-.033-.033-.129-.127a6.6 6.6 0 0 0-2.075-1.36l-.167-.068-.513-.204a1.036 1.036 0 0 1-.351-1.696c1.517-1.514 3.34-3.331 4.22-3.696a4.6 4.6 0 0 1 2.422-.31c.74.11 1.44.49 2.583 1.213m5.883 18.086c.278.282.461.481.63.694q.329.42.587.891c.193.352.343.728.642 1.48a.934.934 0 0 0 1.526.303l.114-.112c1.517-1.514 3.34-3.33 3.705-4.207a4.54 4.54 0 0 0 .31-2.414c-.11-.739-.49-1.436-1.215-2.577l-3.457 3.447c-.648.646-1.241 1.238-1.78 1.701a8 8 0 0 1-1.062.794"/><defs><radialGradient id="paint0_radial_5841_36222" cx="0" cy="0" r="1" gradientTransform="matrix(36.2498 0 0 36.8748 27.466 2.358)" gradientUnits="userSpaceOnUse"><stop stop-color="#74b5ff"/><stop offset="1" stop-color="#0071f2"/></radialGradient><linearGradient id="paint1_linear_5841_36222" x1="27.466" x2="27.466" y1="0" y2="54" gradientUnits="userSpaceOnUse"><stop stop-color="#0071f2"/><stop offset="1" stop-color="#7cb9ff"/></linearGradient></defs></svg>