<svg xmlns="http://www.w3.org/2000/svg" fill="none" viewBox="0 0 55 54"><rect width="54.015" height="53.084" x=".458" y=".458" fill="url(#paint0_radial_5841_36222)" rx="3.207"/><rect width="54.015" height="53.084" x=".458" y=".458" stroke="url(#paint1_linear_5841_36222)" stroke-width=".916" rx="3.207"/><path fill="#fff" fill-rule="evenodd" d="m27.76 32.93 7.92-7.9c1.14-1.14 1.7-1.7 2-2.43s.3-1.52.3-3.13v-.77c0-2.47 0-3.71-.76-4.48-.77-.77-2.01-.77-4.5-.77h-.77c-1.6 0-2.41 0-3.14.3-.72.3-1.3.87-2.44 2l-7.92 7.9c-1.33 1.33-2.16 2.16-2.48 2.95q-.15.36-.15.76c0 1.09.88 1.97 2.63 3.71l.24.24 2.76-2.8a1 1 0 0 1 1.66.31 1 1 0 0 1-.21 1.11l-2.77 2.81.18.19c1.76 1.75 2.64 2.62 3.72 2.62q.36 0 .7-.12c.82-.3 1.66-1.14 3.03-2.5m3.72-9.28a2.64 2.64 0 0 1-4.3-.85 2.6 2.6 0 0 1 .58-2.86 2.64 2.64 0 0 1 4.29.85 2.6 2.6 0 0 1-.57 2.86" clip-rule="evenodd"/><path fill="#fff" d="m20.43 18.82-3.45 3.44q-.96.94-1.67 1.73a8 8 0 0 0-.84 1.11l-.04-.03-.12-.13a7 7 0 0 0-2.08-1.36l-.17-.06-.5-.2a1.04 1.04 0 0 1-.36-1.7c1.52-1.52 3.34-3.34 4.22-3.7a4.6 4.6 0 0 1 2.42-.31c.74.1 1.44.49 2.59 1.21m5.88 18.09c.28.28.46.48.63.7q.33.41.59.88c.19.36.34.73.64 1.48a.93.93 0 0 0 1.52.3l.12-.1c1.51-1.52 3.34-3.34 3.7-4.21a4.5 4.5 0 0 0 .31-2.42c-.1-.74-.49-1.43-1.21-2.57l-3.46 3.44q-.97 1-1.78 1.7a8 8 0 0 1-1.06.8"/><defs><radialGradient id="paint0_radial_5841_36222" cx="0" cy="0" r="1" gradientTransform="matrix(36.2498 0 0 36.8748 27.466 2.358)" gradientUnits="userSpaceOnUse"><stop stop-color="#74b5ff"/><stop offset="1" stop-color="#0071f2"/></radialGradient><linearGradient id="paint1_linear_5841_36222" x1="27.466" x2="27.466" y1="0" y2="54" gradientUnits="userSpaceOnUse"><stop stop-color="#0071f2"/><stop offset="1" stop-color="#7cb9ff"/></linearGradient></defs></svg>