<svg xmlns="http://www.w3.org/2000/svg" fill="none" viewBox="0 0 55 54"><rect width="54.015" height="53.084" x=".458" y=".458" fill="url(#paint0_radial_5841_36240)" rx="3.207"/><rect width="54.015" height="53.084" x=".458" y=".458" stroke="url(#paint1_linear_5841_36240)" stroke-width=".916" rx="3.207"/><path fill="#fff" d="M16.63 17.21a2.9 2.9 0 0 1 2.88-2.88H30a2.9 2.9 0 0 1 2.87 2.88v7.28h2.54a2.9 2.9 0 0 1 2.88 2.88v13.21c0 .47-.38.85-.84.85h-3.22v-4.57a1.5 1.5 0 0 0-1.52-1.53h-10.5a1.5 1.5 0 0 0-1.53 1.53v4.57h-3.22a.85.85 0 0 1-.84-.85zm5.76 24.22h4.23v-4.4h-4.24zm5.92 0h4.23v-4.4h-4.23zM23.4 21.1a1.36 1.36 0 1 0-2.71 0 1.36 1.36 0 0 0 2.71 0m-1.35 6.1a1.36 1.36 0 1 0 0-2.72 1.36 1.36 0 0 0 0 2.71m1.35 3.39a1.36 1.36 0 1 0-2.71 0 1.36 1.36 0 0 0 2.71 0m4.06-8.13a1.35 1.35 0 1 0 0-2.7 1.35 1.35 0 0 0 0 2.7m1.36 3.39a1.36 1.36 0 1 0-2.71 0 1.36 1.36 0 0 0 2.7 0m-1.35 6.1a1.36 1.36 0 1 0 0-2.71 1.36 1.36 0 0 0 0 2.7m6.78-1.35a1.36 1.36 0 1 0-2.71 0 1.36 1.36 0 0 0 2.7 0"/><defs><radialGradient id="paint0_radial_5841_36240" cx="0" cy="0" r="1" gradientTransform="matrix(36.2498 0 0 36.8748 27.466 2.358)" gradientUnits="userSpaceOnUse"><stop stop-color="#74b5ff"/><stop offset="1" stop-color="#0071f2"/></radialGradient><linearGradient id="paint1_linear_5841_36240" x1="27.466" x2="27.466" y1="0" y2="54" gradientUnits="userSpaceOnUse"><stop stop-color="#0071f2"/><stop offset="1" stop-color="#7cb9ff"/></linearGradient></defs></svg>