<svg xmlns="http://www.w3.org/2000/svg" fill="none" viewBox="0 0 55 54"><rect width="54.015" height="53.084" x=".458" y=".458" fill="url(#paint0_radial_5841_36240)" rx="3.207"/><rect width="54.015" height="53.084" x=".458" y=".458" stroke="url(#paint1_linear_5841_36240)" stroke-width=".916" rx="3.207"/><path fill="#fff" d="M16.627 17.212a2.88 2.88 0 0 1 2.879-2.88h10.5a2.88 2.88 0 0 1 2.878 2.88v7.282h2.54a2.88 2.88 0 0 1 2.88 2.878v13.21c0 .467-.38.846-.847.846h-3.218v-4.572a1.524 1.524 0 0 0-1.524-1.524h-10.5a1.524 1.524 0 0 0-1.524 1.524v4.572h-3.218a.847.847 0 0 1-.846-.846zm5.758 24.216h4.233v-4.403h-4.233zm5.927 0h4.233v-4.403h-4.233zM23.4 21.107a1.355 1.355 0 1 0-2.71 0 1.355 1.355 0 0 0 2.71 0m-1.355 6.096a1.355 1.355 0 1 0 0-2.71 1.355 1.355 0 0 0 0 2.71M23.4 30.59a1.355 1.355 0 1 0-2.71 0 1.355 1.355 0 0 0 2.71 0m4.064-8.129a1.354 1.354 0 1 0 0-2.709 1.354 1.354 0 0 0 0 2.71m1.355 3.387a1.355 1.355 0 1 0-2.71 0 1.355 1.355 0 0 0 2.71 0m-1.355 6.097a1.355 1.355 0 1 0 0-2.71 1.355 1.355 0 0 0 0 2.71m6.774-1.355a1.355 1.355 0 1 0-2.71 0 1.355 1.355 0 0 0 2.71 0"/><defs><radialGradient id="paint0_radial_5841_36240" cx="0" cy="0" r="1" gradientTransform="matrix(36.2498 0 0 36.8748 27.466 2.358)" gradientUnits="userSpaceOnUse"><stop stop-color="#74b5ff"/><stop offset="1" stop-color="#0071f2"/></radialGradient><linearGradient id="paint1_linear_5841_36240" x1="27.466" x2="27.466" y1="0" y2="54" gradientUnits="userSpaceOnUse"><stop stop-color="#0071f2"/><stop offset="1" stop-color="#7cb9ff"/></linearGradient></defs></svg>