<svg xmlns="http://www.w3.org/2000/svg" fill="none" class="svg" viewBox="0 0 345 278"><g class="rec-one"><path stroke="#ebe6e6" d="M255.2 119v67.76h50.59" class="current-line"/><path stroke="#ebe6e6" d="M190.86 119.48v71.36h40.78v38.04" class="current-line"/><path stroke="#ebe6e6" d="M137.93 117.91v86.66h-36.47v36.86" class="current-line"/><path stroke="#ebe6e6" d="M100.68 118.3v50.2H47.35" class="current-line"/><rect width="341" height="130" x="2.656" y=".5" fill="#fff" rx="13.5"/><rect width="341" height="130" x="2.656" y=".5" stroke="#d5d9e0" rx="13.5"/><path fill="#6a717d" d="M20.34 20.63v1.05h-3.22v8.19H16v-8.19h-3.22v-1.05zm2.82 2.1q.99 0 1.75.43.77.44 1.2 1.26.44.82.43 1.95 0 1.13-.43 1.96-.43.81-1.2 1.25-.76.43-1.75.43-.98 0-1.75-.43a3 3 0 0 1-1.2-1.25q-.44-.83-.44-1.96t.43-1.95q.44-.82 1.2-1.26.78-.43 1.76-.43m0 .96q-.72 0-1.22.33a2 2 0 0 0-.79.92q-.26.59-.26 1.43 0 .82.26 1.43.28.6.79.92t1.22.32 1.21-.32a2 2 0 0 0 .77-.92q.28-.6.28-1.43 0-.84-.28-1.43a2 2 0 0 0-.77-.92q-.5-.33-1.21-.33m6.74-2.81v7.06q0 .51.3.77t.75.25q.4 0 .7-.14t.53-.38l.4.94q-.33.3-.77.46t-1.01.17q-.53 0-1-.18a1.7 1.7 0 0 1-.74-.6q-.26-.43-.28-1.1V21.2zm2.55 1.99v.96h-5.07v-.96zm5.47 2.48q0-.79-.42-1.2-.42-.44-1.19-.44-.73 0-1.23.32-.5.3-.74 1l-.91-.55q.28-.79 1.04-1.26.75-.5 1.87-.5.76 0 1.37.27.62.26.97.79.36.52.36 1.34v3.39q0 .5.54.5.26 0 .51-.07l-.05.89q-.28.14-.73.14-.4 0-.73-.16a1 1 0 0 1-.5-.46q-.18-.32-.18-.8v-.14l.28.04a2 2 0 0 1-.58.9q-.4.34-.9.5a3 3 0 0 1-1 .16q-.62 0-1.15-.21t-.85-.63q-.31-.44-.31-1.07 0-.78.52-1.28.53-.52 1.47-.7l2.77-.55v.92l-2.26.47q-.68.14-1.02.39a.8.8 0 0 0-.33.7q0 .43.33.71.35.27.98.27.4 0 .77-.1a2 2 0 0 0 .67-.32q.3-.23.47-.55t.16-.78zm4.63-5.7v8.44q0 .53.2.74.19.2.62.2.28 0 .47-.04l.49-.16-.19.98q-.22.1-.49.14-.26.06-.54.06-.86 0-1.28-.46-.4-.47-.4-1.42v-8.48zm10.4.98q.94 0 1.63.35.7.33 1.1.96t.38 1.5-.39 1.5a2.7 2.7 0 0 1-1.1.98q-.68.34-1.62.34h-2.14v3.6H49.7v-9.23zm-.16 4.58q1.09 0 1.6-.45.5-.46.5-1.32t-.5-1.31-1.6-.45H50.8v3.53zm9.05.14q0-.79-.42-1.2-.42-.44-1.2-.44-.72 0-1.23.32-.5.3-.74 1l-.9-.55q.27-.79 1.03-1.26.75-.5 1.87-.5.76 0 1.38.27.61.26.96.79.37.52.37 1.34v3.39q0 .5.53.5.26 0 .52-.07l-.06.89q-.28.14-.73.14-.4 0-.73-.16a1 1 0 0 1-.5-.46q-.18-.32-.18-.8v-.14l.28.04a2 2 0 0 1-.58.9q-.4.34-.9.5a3 3 0 0 1-1 .16q-.61 0-1.15-.21t-.85-.63q-.31-.44-.31-1.07 0-.78.52-1.28.53-.52 1.47-.7l2.77-.55v.92l-2.25.47q-.69.14-1.03.39a.8.8 0 0 0-.33.7q0 .43.33.71.35.27.98.27.41 0 .77-.1a2 2 0 0 0 .68-.32q.29-.23.46-.55t.17-.78zm8.9-2.48-3.29 8.17q-.27.69-.59 1.08-.3.4-.7.58a2 2 0 0 1-.88.18q-.48 0-.88-.14a3 3 0 0 1-.7-.35l.3-.98a2 2 0 0 0 .6.36q.32.13.63.13.36 0 .68-.23.32-.22.59-.9l.36-.92-.7-1.66-2.22-5.32h1.27l1.75 4.56.44 1.25.5-1.39 1.64-4.42zm1.19 7v-7h.9l.16 1.15q.3-.65.86-.97t1.38-.32q.18 0 .4.03t.37.1l-.2 1.03-.33-.08-.52-.03q-.43 0-.88.25-.44.25-.73.77-.3.5-.3 1.29v3.78zm8.11-7.14q1 0 1.75.43.77.44 1.2 1.26.44.81.44 1.95t-.44 1.96q-.43.81-1.2 1.24-.76.44-1.75.44-.98 0-1.75-.44a3 3 0 0 1-1.2-1.24q-.44-.83-.44-1.96 0-1.14.44-1.95.43-.82 1.2-1.26.77-.43 1.75-.43m0 .96q-.71 0-1.22.33a2 2 0 0 0-.78.92q-.27.59-.27 1.43 0 .82.27 1.43.28.6.78.92t1.22.32 1.22-.32a2 2 0 0 0 .77-.92q.28-.6.28-1.43 0-.84-.28-1.43a2 2 0 0 0-.77-.92q-.5-.33-1.22-.33m6.28-4.04v8.44q0 .53.2.74t.63.2q.28 0 .46-.04l.49-.16-.18.98q-.23.1-.5.14a3 3 0 0 1-.54.06q-.85 0-1.27-.46-.4-.47-.4-1.42v-8.48zm4 0v8.44q0 .53.2.74t.63.2q.28 0 .46-.04l.49-.16-.18.98q-.23.1-.5.14a3 3 0 0 1-.54.06q-.85 0-1.27-.46-.4-.47-.4-1.42v-8.48z"/><path fill="#5d636d" d="M318.66 21.87a3 3 0 0 0-2.77 1.85 3 3 0 0 0 .65 3.27 3 3 0 0 0 5.12-2.12 3 3 0 0 0-3-3m0 4.5a1.5 1.5 0 0 1-1.38-.93 1.5 1.5 0 0 1 1.1-2.04 1.5 1.5 0 1 1 .28 2.97m-7.5-4.5a3 3 0 0 0-2.77 1.85 3 3 0 0 0 .65 3.27 3 3 0 0 0 5.12-2.12 3 3 0 0 0-3-3m0 4.5a1.5 1.5 0 0 1-1.38-.93 1.5 1.5 0 0 1 1.1-2.05 1.5 1.5 0 1 1 .28 2.98m15-4.5a3 3 0 0 0-2.77 1.85 3 3 0 0 0 .65 3.27 3 3 0 0 0 5.12-2.13 3 3 0 0 0-3-3m0 4.5a1.5 1.5 0 0 1-1.38-.92 1.5 1.5 0 0 1 1.1-2.05 1.5 1.5 0 1 1 .28 2.97"/><path fill="#232323" d="M15.4 71.87V56.03h3.77l4.97 9.1 1.37 2.76h.05l-.1-2.5v-9.36h2.88v15.84h-3.77L19.7 63l-1.46-2.92h-.03l.07 2.59v9.19zm-2.66-6.89v-2.09H31v2.09zm26.97 6.89v-3.72H32v-2.16q.12-.24.33-.58l.53-.81 5.9-8.57h3.96v9.72h2.57v2.4h-2.57v3.72zm-4.9-6.12h4.93v-5.23l.02-1.08.05-1.13h-.05q-.26.53-.65 1.15-.36.6-.67 1.08l-3.31 4.75q-.07.12-.17.24zm18.45 6.36q-3.05 0-4.7-2.07-1.64-2.06-1.64-6.1t1.64-6.09q1.65-2.06 4.7-2.06t4.68 2.06q1.66 2.07 1.66 6.1t-1.66 6.1q-1.63 2.06-4.68 2.06m0-2.67q1.03 0 1.68-.57.67-.6 1-1.8.34-1.23.34-3.12t-.33-3.1q-.34-1.22-1.01-1.8-.65-.6-1.68-.6t-1.7.6q-.68.58-1.01 1.8-.31 1.2-.31 3.1t.3 3.12q.34 1.2 1.02 1.8.67.57 1.7.57m10.1-1.24q.78 0 1.28.38.5.36.77.98.26.6.26 1.35 0 .98-.4 1.9a5 5 0 0 1-1.09 1.63q-.7.72-1.58 1.12l-1.42-1.12a6 6 0 0 0 1.18-.65q.55-.39.93-.87t.56-.98l-.12-.07a1 1 0 0 1-.3.12 1 1 0 0 1-.47.07q-.39 0-.77-.2a2 2 0 0 1-.65-.6q-.26-.4-.26-1 0-.65.29-1.1t.76-.7 1.04-.26m10.19 3.9q-3.05 0-4.7-2.06-1.64-2.06-1.64-6.1t1.63-6.09q1.66-2.06 4.7-2.06 3.06 0 4.69 2.06 1.65 2.07 1.65 6.1t-1.65 6.1q-1.63 2.06-4.68 2.06m0-2.67q1.03 0 1.68-.57.67-.6 1-1.8.34-1.23.34-3.12t-.33-3.1q-.34-1.22-1.01-1.8-.65-.6-1.68-.6-1.04 0-1.7.6-.68.58-1.01 1.8-.32 1.2-.32 3.1t.32 3.12q.33 1.2 1 1.8.67.57 1.7.57m14.79 2.67q-3.05 0-4.7-2.07Q82 67.98 82 63.94t1.63-6.09q1.66-2.06 4.7-2.06t4.69 2.06 1.65 6.1-1.65 6.1q-1.64 2.06-4.68 2.06m0-2.67q1.03 0 1.68-.57.67-.6 1-1.8.34-1.23.34-3.12t-.34-3.1q-.33-1.22-1-1.8-.65-.6-1.68-.6t-1.7.6q-.68.58-1.02 1.8-.3 1.2-.3 3.1t.3 3.12q.34 1.2 1.01 1.8.67.57 1.7.57m14.78 2.67q-3.04 0-4.7-2.07-1.63-2.06-1.63-6.1t1.63-6.09q1.66-2.06 4.7-2.06t4.68 2.06q1.66 2.07 1.66 6.1t-1.66 6.1q-1.63 2.06-4.68 2.06m0-2.67q1.03 0 1.68-.57.68-.6 1.01-1.8.34-1.23.34-3.12t-.34-3.1-1-1.8q-.66-.6-1.69-.6t-1.7.6q-.67.58-1 1.8-.32 1.2-.32 3.1t.31 3.12q.34 1.2 1 1.8.68.57 1.71.57m10.11-1.24q.77 0 1.27.38.5.36.77.98.26.6.26 1.35 0 .98-.4 1.9a5 5 0 0 1-1.08 1.63q-.7.72-1.59 1.12l-1.41-1.12a6 6 0 0 0 1.17-.65q.55-.39.94-.87t.55-.98l-.12-.07a1 1 0 0 1-.29.12 1 1 0 0 1-.48.07q-.38 0-.77-.2a2 2 0 0 1-.64-.6q-.27-.4-.27-1 0-.65.29-1.1t.77-.7 1.03-.26m10.2 3.9q-3.06 0-4.71-2.06-1.63-2.06-1.63-6.1t1.63-6.09q1.65-2.06 4.7-2.06t4.68 2.06q1.66 2.07 1.66 6.1t-1.66 6.1q-1.63 2.06-4.68 2.06m0-2.67q1.03 0 1.68-.57.67-.6 1-1.8.35-1.23.35-3.12t-.34-3.1-1-1.8q-.66-.6-1.69-.6t-1.7.6q-.68.58-1.01 1.8-.31 1.2-.31 3.1t.3 3.12q.35 1.2 1.02 1.8.67.57 1.7.57m14.78 2.67q-3.05 0-4.7-2.07-1.64-2.06-1.64-6.1t1.63-6.09q1.66-2.06 4.7-2.06t4.69 2.06 1.65 6.1-1.65 6.1q-1.63 2.06-4.68 2.06m0-2.67q1.03 0 1.68-.57.67-.6 1-1.8.34-1.23.34-3.12t-.33-3.1-1.01-1.8q-.65-.6-1.68-.6t-1.7.6q-.68.58-1.01 1.8-.32 1.2-.32 3.1t.32 3.12q.33 1.2 1 1.8.68.57 1.7.57m14.79 2.67q-3.05 0-4.7-2.07-1.64-2.06-1.64-6.1t1.63-6.09q1.66-2.06 4.7-2.06t4.69 2.06 1.65 6.1-1.65 6.1q-1.64 2.06-4.68 2.06m0-2.67q1.03 0 1.68-.57.67-.6 1-1.8.34-1.23.34-3.12t-.33-3.1-1.01-1.8q-.65-.6-1.68-.6t-1.7.6q-.68.58-1.02 1.8-.3 1.2-.3 3.1t.3 3.12q.34 1.2 1.01 1.8.67.57 1.7.57"/><circle cx="277.389" cy="63.369" r="12.414" fill="#d3d3d3" stroke="#efefef" stroke-width=".926"/><circle cx="297.588" cy="63.369" r="12.414" fill="#d3d3d3" stroke="#fff" stroke-width=".926"/><circle cx="317.787" cy="63.369" r="12.414" fill="#d3d3d3" stroke="#fff" stroke-width=".926"/><g clip-path="url(#clip0_6028_34635)"><rect id="payroll-progress-track" width="318.332" height="12" x="12.332" y="83.869" fill="#f5f6f7" filter="url(#homeRectDropShadow)" rx="6"/><rect id="payroll-progress-bar" height="12" x="12.289" y="83.869" fill="#0f973d" filter="url(#homeRectDropShadow)" rx="6"/></g><path fill="#6a717d" d="M16.17 106.83q1.05 0 1.8.43.76.42 1.26 1.25l-.8.62q-.45-.76-1.01-1.08-.55-.32-1.34-.32-.64 0-1.06.18-.4.18-.6.48a1 1 0 0 0-.2.66q0 .42.27.74t1.06.5l1.71.38q1.14.25 1.59.77.45.5.45 1.26 0 .67-.38 1.2-.37.51-1.06.8t-1.6.29q-.87 0-1.53-.23a4 4 0 0 1-1.11-.63 4 4 0 0 1-.77-.9l.84-.68q.23.46.59.8t.86.55q.52.19 1.18.19.6 0 1.05-.14.46-.16.7-.45t.24-.72q0-.38-.25-.68-.26-.31-.95-.47l-1.86-.42q-.73-.17-1.19-.46a2 2 0 0 1-.65-.7 2 2 0 0 1-.19-.87q0-.63.35-1.16.36-.54 1.02-.87.67-.32 1.58-.32m7.23 8.16a3 3 0 0 1-1.52-.37 2.6 2.6 0 0 1-1.03-1.07q-.37-.7-.37-1.68t.37-1.67a2.6 2.6 0 0 1 1.02-1.08 3 3 0 0 1 1.47-.37q.84 0 1.43.36.6.36.91.98.32.61.32 1.38 0 .2-.02.37l-.03.3H21.1v-.85h4.43l-.5.1q0-.87-.48-1.33-.46-.47-1.23-.47-.59 0-1.02.27-.42.27-.66.78-.23.5-.23 1.23 0 .7.24 1.22t.67.8q.45.26 1.06.26.66 0 1.07-.25a2 2 0 0 0 .67-.69l.75.45a3 3 0 0 1-.58.7q-.35.3-.83.47a3 3 0 0 1-1.06.16m4.18-.12v-6h.84l.08 1.34-.15-.13a2 2 0 0 1 1.26-1.2q.43-.13.89-.13.65 0 1.17.25.53.24.84.74.33.5.33 1.29v3.84h-.96v-3.5q0-1-.43-1.39-.42-.4-1.05-.4-.43 0-.86.21a1.7 1.7 0 0 0-.72.66q-.28.46-.28 1.23v3.19zm9.53.12q-.74 0-1.37-.37a2.7 2.7 0 0 1-1-1.07q-.37-.7-.37-1.68 0-1 .4-1.7a2.7 2.7 0 0 1 1.04-1.05 3 3 0 0 1 1.4-.37q.74 0 1.28.38.55.39.73 1.02l-.12.09v-4.13h.96v8.76h-.84l-.08-1.45.13-.07a2 2 0 0 1-.4.9q-.32.36-.79.55a3 3 0 0 1-.97.19m.1-.84q.57 0 1-.29.42-.29.65-.81.24-.54.24-1.26 0-.69-.24-1.18a1.7 1.7 0 0 0-.65-.76 1.7 1.7 0 0 0-.96-.26q-.9 0-1.41.62t-.5 1.66.49 1.66 1.38.62m5.32-6.43a.7.7 0 0 1-.52-.2.7.7 0 0 1-.2-.52q0-.33.2-.52a.7.7 0 0 1 .52-.2q.33 0 .52.2.2.2.2.52a.7.7 0 0 1-.2.53q-.2.19-.52.19m.48 1.15v6h-.96v-6zm2 6v-6h.83l.09 1.34-.16-.13a2 2 0 0 1 1.26-1.2q.43-.13.89-.13.65 0 1.17.25.53.24.84.74.33.5.33 1.29v3.84h-.96v-3.5q0-1-.43-1.39-.42-.4-1.05-.4-.43 0-.86.21a1.7 1.7 0 0 0-.72.66q-.28.46-.28 1.23v3.19zm12.23-7.1.22.85h-.08q-.6 0-.92.24-.3.23-.3.74l-.6-.3q0-.47.22-.81a1.4 1.4 0 0 1 .59-.53q.37-.2.81-.2zm-1.82 6.33q.85 0 1.33.4.48.38.48 1.03 0 .59-.4 1.02-.38.43-1.04.66-.65.24-1.46.24-1.42 0-2.13-.48-.7-.48-.7-1.15 0-.48.32-.87.32-.37 1.08-.42l-.08.18a2 2 0 0 1-.7-.36q-.28-.26-.28-.75t.36-.84q.38-.36 1.1-.45l.63.33h-.12q-.59.06-.84.3-.24.22-.24.5 0 .34.24.5.25.16.7.16zm-1.1 2.55q.7 0 1.14-.15.45-.14.67-.37a.7.7 0 0 0 .21-.5.6.6 0 0 0-.26-.5q-.25-.2-.92-.2H53.3q-.39 0-.65.2a.7.7 0 0 0-.26.54q0 .45.5.71.52.27 1.42.27m-.09-7.9q.72 0 1.27.26.57.25.88.71t.31 1.06q0 .58-.31 1.05-.31.46-.88.72a3 3 0 0 1-1.27.25q-1.19 0-1.82-.56-.64-.58-.64-1.46 0-.6.31-1.06.33-.46.88-.7.55-.27 1.27-.27m0 .78q-.62 0-1.04.35-.42.33-.42.9 0 .55.42.9t1.04.34 1.05-.34.42-.9-.42-.9q-.42-.35-1.05-.35"/><path fill="#6a717d" d="M310.06 114.87v-2.08h-3.87v-.7l3.61-5.14h1.22v5.02h1.4v.82h-1.4v2.08zm-2.85-2.9h2.85v-3.6l.04-.64h-.02q-.14.3-.37.67t-.42.65zm9.28 3.02q-1.34 0-2.15-1.04t-.8-3.04.8-3.04 2.15-1.04 2.15 1.04.8 3.04-.8 3.04-2.15 1.04m0-.86q.64 0 1.07-.36.44-.38.66-1.1t.23-1.76-.23-1.76q-.22-.72-.66-1.08-.43-.38-1.07-.38t-1.08.38q-.43.36-.66 1.08-.21.72-.21 1.76t.21 1.76.66 1.1q.45.36 1.08.36m5.65.74 5.04-7.92h.92l-5.04 7.92zm.23-8.04q.6 0 1.01.28.43.26.66.75.24.5.24 1.15t-.24 1.16a2 2 0 0 1-.66.76q-.42.27-1 .27t-1.02-.27a2 2 0 0 1-.67-.76q-.23-.5-.23-1.16t.23-1.15.67-.75a2 2 0 0 1 1.01-.28m0 .76a1 1 0 0 0-.57.16q-.24.17-.36.5a2 2 0 0 0-.12.76q0 .45.12.77t.36.5.57.16a1 1 0 0 0 .58-.17q.24-.16.36-.49t.12-.77q0-.45-.12-.76-.12-.33-.36-.5a1 1 0 0 0-.58-.16m5.5 3.03q.59 0 1 .28.44.26.67.75.24.5.24 1.16t-.24 1.15a2 2 0 0 1-.66.77q-.42.26-1.01.26-.58 0-1-.26a2 2 0 0 1-.68-.77q-.23-.5-.23-1.15t.23-1.16q.24-.49.67-.75a2 2 0 0 1 1-.28m0 .76a1 1 0 0 0-.57.17q-.24.16-.36.49a2 2 0 0 0-.12.77q0 .44.12.76t.36.5.58.16a1 1 0 0 0 .57-.16q.24-.17.36-.5t.12-.76q0-.46-.12-.77-.12-.33-.36-.5a1 1 0 0 0-.57-.16"/><circle cx="101.46" cy="243.589" r="23.284" fill="#d3d3d3"/><circle cx="101.46" cy="243.589" r="22.784" stroke="#565d6a" stroke-opacity=".27"/><circle cx="101.461" cy="266.874" r="10.629" fill="#0f973d" stroke="#fff"/><path stroke="#fff" stroke-linecap="square" stroke-miterlimit="10" stroke-width="1.375" d="m105.21 263.62-5.25 6.5-2.25-2.43"/><circle cx="231.636" cy="243.589" r="23.284" fill="#d3d3d3"/><circle cx="231.636" cy="243.589" r="22.784" stroke="#565d6a" stroke-opacity=".27"/><circle cx="231.637" cy="266.874" r="10.629" fill="#0f973d" stroke="#fff"/><path stroke="#fff" stroke-linecap="square" stroke-miterlimit="10" stroke-width="1.375" d="m235.39 263.62-5.25 6.5-2.25-2.43"/><circle cx="317.788" cy="185.892" r="23.284" fill="#d3d3d3"/><circle cx="317.788" cy="185.892" r="22.784" stroke="#565d6a" stroke-opacity=".27"/><circle cx="317.79" cy="209.176" r="10.629" fill="#0f973d" stroke="#fff"/><path stroke="#fff" stroke-linecap="square" stroke-miterlimit="10" stroke-width="1.375" d="m321.54 205.93-5.25 6.5-2.25-2.44"/><circle cx="23.284" cy="168.616" r="23.284" fill="#d3d3d3"/><circle cx="23.284" cy="168.616" r="22.784" stroke="#565d6a" stroke-opacity=".27"/><circle cx="23.286" cy="191.901" r="10.629" fill="#0f973d" stroke="#fff"/><path stroke="#fff" stroke-linecap="square" stroke-miterlimit="10" stroke-width="1.375" d="m27.04 188.65-5.25 6.5-2.25-2.44"/></g></svg>