<svg xmlns="http://www.w3.org/2000/svg" fill="none" class="svg" viewBox="0 0 342 313"><g class="rec-one"><rect width="340.988" height="54" x=".5" y=".5" fill="#fff" rx="13.5"/><rect width="340.988" height="54" x=".5" y=".5" stroke="#d5d9e0" rx="13.5"/><circle cx="27.371" cy="27.5" r="17.371" fill="#d3d3d3"/><path fill="#232323" d="M55.31 24V13.44h4.16q1.9 0 2.78.77t.88 2.13q0 .83-.48 1.48-.48.64-1.4.82v.02q1.02.16 1.58.84.58.67.58 1.57 0 1.36-1 2.15t-2.88.78zm1.68-1.42h2.62q1.01 0 1.5-.42.52-.42.52-1.17t-.51-1.17q-.5-.41-1.5-.41h-2.63zm0-4.6h2.35q2.02 0 2.02-1.55t-2.02-1.55H57zm12.98.88q0-.8-.45-1.23-.43-.45-1.2-.45-.72 0-1.23.34t-.75 1.09L64.9 18a3 3 0 0 1 1.18-1.57q.9-.59 2.3-.59.96 0 1.7.32.74.3 1.15.93.43.62.43 1.6v3.57q0 .59.6.59.28 0 .56-.08l-.1 1.18q-.37.18-.93.18a2 2 0 0 1-.93-.18 1.6 1.6 0 0 1-.64-.56q-.22-.38-.22-.94v-.11l.35-.02a2 2 0 0 1-.59 1.04q-.45.4-1.04.6a4 4 0 0 1-1.2.2q-.75 0-1.36-.24-.6-.24-.94-.72-.34-.5-.34-1.22 0-.9.58-1.47.59-.57 1.66-.78l3.1-.61-.01 1.2-2.26.46q-.67.13-1 .37t-.34.7a.9.9 0 0 0 .33.73q.36.25.93.25.4 0 .77-.1.38-.09.69-.3.3-.22.46-.56a2 2 0 0 0 .18-.83zm8.47 5.3q-.7 0-1.3-.27a3 3 0 0 1-.98-.75 3 3 0 0 1-.59-1.1l.21-.28-.13 2.24h-1.5V12.4h1.71v5.62l-.2-.28a3 3 0 0 1 1.05-1.36q.74-.54 1.78-.54.96 0 1.76.5.81.5 1.28 1.42t.46 2.26q0 1.3-.48 2.22-.47.93-1.28 1.42-.8.5-1.8.5m-.36-1.38q1.04 0 1.62-.73.59-.75.59-2.05t-.58-2.03-1.61-.74q-.68 0-1.17.35-.5.34-.79.96-.27.63-.27 1.5 0 .84.27 1.46.28.61.77.95.51.33 1.17.33m10.4-3.92q0-.8-.45-1.23-.43-.45-1.2-.45-.72 0-1.23.34t-.75 1.09L83.4 18a3 3 0 0 1 1.18-1.57q.9-.59 2.3-.59.97 0 1.7.32.74.3 1.15.93.44.62.44 1.6v3.57q0 .59.59.59.28 0 .56-.08l-.1 1.18q-.37.18-.93.18a2 2 0 0 1-.92-.18 1.6 1.6 0 0 1-.64-.56q-.23-.38-.23-.94v-.11l.35-.02a2 2 0 0 1-.59 1.04q-.45.4-1.04.6a4 4 0 0 1-1.2.2q-.75 0-1.36-.24-.6-.24-.94-.72-.34-.5-.34-1.22 0-.9.58-1.47.59-.57 1.66-.78l3.1-.61-.01 1.2-2.26.46q-.67.13-1 .37t-.34.7a.9.9 0 0 0 .33.73q.36.25.93.25.4 0 .77-.1.38-.09.69-.3.3-.22.46-.56a2 2 0 0 0 .18-.83zm6.2-5.21v7.95q0 .6.3.86.33.28.86.28.43 0 .75-.13a2 2 0 0 0 .59-.39l.38 1.25q-.36.32-.9.51a4 4 0 0 1-1.2.18 4 4 0 0 1-1.26-.22 2 2 0 0 1-.9-.72q-.31-.52-.33-1.33v-7.76zM97.42 16v1.34h-6V16zm4.23 8.16a4 4 0 0 1-1.46-.29 2.3 2.3 0 0 1-1.06-.93q-.4-.64-.4-1.66V16h1.72v4.85q0 1.09.46 1.5t1.3.4q.4 0 .76-.13a2 2 0 0 0 .7-.43q.3-.3.46-.77.17-.46.17-1.08V16h1.71v8h-1.5l-.08-1.3q-.41.76-1.12 1.1-.7.36-1.66.36m6.72-.16v-8h1.52l.11 2.08-.22-.22q.22-.7.64-1.14.43-.46 1-.67a4 4 0 0 1 1.25-.21q.85 0 1.52.34a2.5 2.5 0 0 1 1.1.97q.4.66.4 1.67V24h-1.72v-4.66q0-1.18-.5-1.63-.48-.46-1.21-.46-.53 0-1.03.25-.5.24-.83.79-.32.54-.32 1.45V24zm12.66.16a3.4 3.4 0 0 1-1.81-.5q-.8-.5-1.27-1.42t-.46-2.22q0-1.35.5-2.28t1.33-1.4a3.5 3.5 0 0 1 1.82-.5q1.02 0 1.73.56a2.7 2.7 0 0 1 .94 1.46l-.2.17V12.4h1.72V24h-1.52l-.13-2.18.23.02q-.11.72-.53 1.25a3 3 0 0 1-1.04.8 3 3 0 0 1-1.31.27m.36-1.38q.7 0 1.19-.35.5-.35.77-.99t.27-1.54q0-.83-.27-1.42-.27-.6-.77-.93a2 2 0 0 0-1.12-.32q-1.07 0-1.67.74-.59.73-.59 2.03t.58 2.05q.57.73 1.61.73m9.8 1.38q-1.2 0-2.12-.5a3.5 3.5 0 0 1-1.42-1.42q-.5-.94-.5-2.24t.5-2.22a3.5 3.5 0 0 1 1.4-1.44q.9-.5 2.04-.5 1.17 0 1.98.48t1.25 1.31.43 1.89l-.01.54-.05.45h-6.43V19.2h5.68l-.85.26q0-1.1-.54-1.67-.55-.59-1.5-.59-.68 0-1.2.32-.5.32-.78.96-.27.62-.27 1.54 0 .9.29 1.52t.82.94 1.24.32q.8 0 1.3-.3a2 2 0 0 0 .78-.85l1.36.64q-.28.57-.78 1-.48.42-1.15.65-.67.22-1.47.22m21.33-10.72V24h-1.58v-6.11l.12-2.91h-.01L147.83 24h-1.42l-3.22-9.02h-.01l.12 2.9V24h-1.58V13.44h2.54l2.13 6.11.74 2.51h.03l.75-2.5 2.11-6.12zm7.12 5.42q0-.8-.44-1.23-.44-.45-1.2-.45-.72 0-1.24.34t-.75 1.09l-1.44-.61a3 3 0 0 1 1.19-1.57q.9-.59 2.3-.59.96 0 1.7.32.73.3 1.15.93.43.62.43 1.6v3.57q0 .59.6.59.28 0 .55-.08l-.1 1.18q-.36.18-.92.18a2 2 0 0 1-.93-.18 1.6 1.6 0 0 1-.64-.56q-.23-.38-.23-.94v-.11l.36-.02a2 2 0 0 1-.6 1.04q-.44.4-1.04.6a4 4 0 0 1-1.2.2q-.75 0-1.35-.24t-.95-.72q-.33-.5-.33-1.22 0-.9.57-1.47.6-.57 1.67-.78l3.1-.61-.02 1.2-2.25.46q-.67.13-1.01.37t-.34.7a.9.9 0 0 0 .34.73q.35.25.93.25.4 0 .76-.1.39-.09.7-.3.3-.22.46-.56t.17-.83zm4.18 5.14v-8h1.46l.16 1.44q.32-.78.94-1.18.64-.42 1.57-.42.24 0 .48.05.24.03.4.11l-.24 1.5a2 2 0 0 0-.4-.1 3 3 0 0 0-.57-.04q-.5 0-.98.27-.48.26-.8.79-.3.52-.3 1.34V24zm13.33-8-3.5 8.94q-.35.93-.77 1.48-.4.54-.93.78t-1.23.24q-.57 0-1.07-.16a3 3 0 0 1-.85-.4l.42-1.33q.3.26.64.39.35.12.75.12.43 0 .77-.24.35-.22.62-.9l.35-.87-.84-1.99L169 16h1.92l1.77 5.02.47 1.5.53-1.64 1.68-4.88zm5.58 2.86q0-.8-.45-1.23-.43-.45-1.2-.45-.72 0-1.23.34t-.75 1.09l-1.44-.61a3 3 0 0 1 1.18-1.57q.9-.59 2.3-.59.97 0 1.7.32.74.3 1.15.93.44.62.44 1.6v3.57q0 .59.59.59.28 0 .56-.08l-.1 1.18q-.37.18-.93.18-.5 0-.92-.18a1.6 1.6 0 0 1-.64-.56q-.23-.38-.23-.94v-.11l.35-.02a2 2 0 0 1-.59 1.04q-.45.4-1.04.6a4 4 0 0 1-1.2.2q-.75 0-1.36-.24a2 2 0 0 1-.94-.72q-.34-.5-.34-1.22 0-.9.58-1.47.59-.57 1.66-.78l3.1-.61-.01 1.2-2.26.46q-.67.13-1 .37t-.34.7a.9.9 0 0 0 .34.73q.35.25.92.25.4 0 .77-.1.39-.09.69-.3.3-.22.46-.56.18-.35.18-.83zm4.18 5.14v-8h1.52l.08 1.34q.42-.76 1.1-1.13a3 3 0 0 1 1.5-.37q.86 0 1.58.4.73.38 1.1 1.17.26-.53.7-.88a3 3 0 0 1 1-.51q.54-.18 1.07-.18.77 0 1.44.32t1.09.98.41 1.68V24h-1.7v-4.91q0-.98-.47-1.41t-1.19-.43q-.56 0-1.04.27-.46.27-.75.82-.29.52-.29 1.3V24h-1.7v-4.91q0-.98-.47-1.41t-1.19-.43q-.48 0-.96.25-.48.26-.8.8-.32.55-.32 1.44V24z"/><path fill="#6a717d" d="M62.32 33.76v5.8q0 1.77-.93 2.68-.94.9-2.7.9-1.73 0-2.68-.9-.94-.9-.94-2.68v-5.8h1.12v5.52q0 1.44.6 2.12.62.69 1.9.69t1.9-.69.61-2.12v-5.52zm3.69 0V43h-1.12v-9.24zm6.75-.98-4.29 11.2h-1.05l4.29-11.2zm8.68.98v5.8q0 1.77-.93 2.68-.94.9-2.7.9-1.73 0-2.68-.9-.94-.9-.94-2.68v-5.8h1.12v5.52q0 1.44.6 2.12.62.69 1.9.69t1.9-.69.61-2.12v-5.52zM90.46 43h-1.29l-2.5-3.8-2.52 3.8h-1.3l3.23-4.7-2.96-4.54h1.32l2.34 3.6 2.36-3.6h1.22l-3 4.48zm9.01-9.24q2.17 0 3.4 1.2 1.25 1.2 1.25 3.42t-1.25 3.43Q101.64 43 99.47 43H96.5v-9.24zm.11 8.19q1.59 0 2.47-.94.9-.95.9-2.63t-.9-2.62q-.88-.95-2.47-.95h-1.97v7.14zm9.44 1.19q-1 0-1.78-.43a3 3 0 0 1-1.2-1.25q-.44-.83-.44-1.96t.43-1.95 1.2-1.26q.75-.43 1.72-.43.98 0 1.66.42.7.42 1.07 1.15a3.5 3.5 0 0 1 .36 1.6l-.01.44-.05.35h-5.65v-1h5.16l-.57.12q0-1-.56-1.55-.55-.55-1.44-.55-.69 0-1.2.32-.48.31-.76.91-.27.59-.27 1.43 0 .83.28 1.43t.79.92 1.23.31q.77 0 1.24-.3.5-.29.79-.8l.88.53a3 3 0 0 1-.69.82 3 3 0 0 1-.96.55 4 4 0 0 1-1.23.18m7.39 0a4 4 0 0 1-1.89-.43 3 3 0 0 1-1.32-1.24l.96-.68q.3.64.9 1 .6.37 1.43.37.75 0 1.17-.28.42-.3.42-.76a.8.8 0 0 0-.2-.53q-.18-.25-.71-.36l-1.68-.35q-1.03-.21-1.47-.7-.44-.5-.44-1.22 0-.58.32-1.05.34-.48.94-.76.62-.29 1.44-.29 1.04 0 1.75.4.72.41 1.07 1.15l-.94.62q-.24-.62-.77-.9a2 2 0 0 0-1.1-.29 2 2 0 0 0-.87.14 1.3 1.3 0 0 0-.55.4 1 1 0 0 0-.18.54q0 .3.2.57.22.26.8.37l1.74.36q.98.2 1.37.64t.4 1.1-.35 1.16q-.35.49-.98.75t-1.46.27m5.14-8.48a1 1 0 0 1-.61-.23 1 1 0 0 1-.23-.61q0-.38.23-.6a.8.8 0 0 1 .61-.24q.38 0 .6.23.24.23.24.6a.8.8 0 0 1-.23.62q-.23.23-.6.23m.55 1.34v7H121v-7zm8.22-1.29.25 1h-.1q-.69 0-1.06.28-.37.26-.37.86l-.68-.35q0-.54.25-.95t.68-.61q.44-.23.96-.23zm-2.13 7.4q1 0 1.55.46.56.44.56 1.2 0 .69-.46 1.19-.45.5-1.22.77-.75.28-1.7.28-1.66 0-2.48-.56t-.82-1.34q0-.56.37-1.01.38-.44 1.26-.5l-.1.22a2 2 0 0 1-.81-.42q-.32-.31-.32-.88t.42-.98q.43-.42 1.27-.52l.74.38h-.14q-.68.07-.98.35-.28.26-.28.58 0 .4.28.6.3.17.81.17zm-1.29 2.96q.81 0 1.33-.17.53-.16.78-.43t.26-.57a.7.7 0 0 0-.31-.6q-.3-.23-1.08-.23h-2.16a1.3 1.3 0 0 0-.75.22.8.8 0 0 0-.31.65q0 .52.59.82.6.31 1.65.31m-.1-9.21q.84 0 1.49.3t1.02.83q.36.54.36 1.24 0 .68-.36 1.23a2.5 2.5 0 0 1-1.02.84q-.65.3-1.49.3-1.38 0-2.13-.67-.74-.67-.74-1.7 0-.7.37-1.24.37-.53 1.02-.82.64-.31 1.48-.31m0 .91q-.73 0-1.22.4t-.49 1.06.5 1.05q.48.4 1.21.4t1.22-.4.49-1.05-.49-1.05-1.22-.41m4.8 6.23v-7h.97l.1 1.57-.18-.16a2.3 2.3 0 0 1 1.47-1.4 4 4 0 0 1 1.04-.15q.75 0 1.37.3.61.27.98.86.38.59.38 1.5V43h-1.12v-4.09q0-1.16-.5-1.6-.5-.47-1.23-.47-.5 0-1 .24a2 2 0 0 0-.84.77q-.33.53-.33 1.43V43zm11.3.14q-.99 0-1.77-.43a3 3 0 0 1-1.2-1.25q-.44-.82-.44-1.96 0-1.13.44-1.95.43-.82 1.19-1.26.75-.43 1.72-.43.98 0 1.66.42.7.42 1.07 1.15.36.71.36 1.6l-.01.44-.04.35h-5.66v-1h5.17l-.58.12q0-1-.56-1.55-.54-.55-1.44-.55-.69 0-1.2.32-.48.31-.76.91-.27.59-.27 1.43 0 .83.28 1.43t.79.92 1.23.31q.77 0 1.24-.3.5-.29.79-.8l.88.53a3 3 0 0 1-.69.82 3 3 0 0 1-.96.55 4 4 0 0 1-1.23.18m4.87-.14v-7h.91l.15 1.15q.3-.65.86-.97t1.38-.32q.19 0 .4.03t.37.11l-.2 1.02-.33-.08-.52-.03q-.43 0-.88.25-.43.25-.73.77-.29.5-.29 1.29V43z"/><path fill="#5d636d" d="M315.74 18a3 3 0 0 0-2.77 1.85 3 3 0 0 0 3.92 3.92 3 3 0 0 0 1.85-2.77 3 3 0 0 0-3-3m0 4.5a1.5 1.5 0 0 1-1.06-2.56 1.5 1.5 0 0 1 2.3.23 1.5 1.5 0 0 1-1.24 2.33m-7.5-4.5a3 3 0 0 0-2.77 1.85 3 3 0 0 0 3.92 3.92 3 3 0 0 0 1.85-2.77 3 3 0 0 0-3-3m0 4.5a1.5 1.5 0 0 1-1.06-2.56 1.5 1.5 0 0 1 2.3.23 1.5 1.5 0 0 1-1.24 2.33m15-4.5a3 3 0 0 0-2.77 1.85 3 3 0 0 0 3.92 3.92 3 3 0 0 0 1.85-2.77 3 3 0 0 0-3-3m0 4.5a1.5 1.5 0 0 1-1.06-2.56 1.5 1.5 0 0 1 2.3.23 1.5 1.5 0 0 1-1.24 2.33"/></g><g class="rec-one" clip-path="url(#clip0_6028_34994)"><rect width="341.988" height="237" y="76" fill="#fff" rx="14"/><circle cx="27" cy="103.5" r="17.371" fill="#d3d3d3"/><path fill="#232323" d="m63.6 89.44-4.7 5.09-.2.01-2.74 2.95-.16-1.87 5.7-6.18zm-6.95 0V100h-1.71V89.44zm2.6 3.78 4.44 6.78h-2.01l-3.8-5.82zm6.66-2.56q-.56 0-.86-.28t-.29-.8.3-.78.85-.27.84.27q.3.27.3.78t-.3.8-.84.28m.85 1.34v8h-1.7v-8zm2.36 8v-8h1.52l.11 2.08-.22-.22q.22-.7.64-1.14.43-.46 1-.67.6-.21 1.26-.21.84 0 1.52.34a2.5 2.5 0 0 1 1.08.97q.4.66.4 1.67V100h-1.7v-4.66q0-1.18-.5-1.63-.48-.46-1.22-.46-.53 0-1.02.25-.5.24-.84.79-.32.54-.32 1.45V100zm16.63-9.68.27 1.34h-.1l-.1-.01q-.76 0-1.16.33-.4.32-.4.95l-.83-.39q0-.64.27-1.13.27-.51.77-.8a2.3 2.3 0 0 1 1.15-.29zm-2.53 8.43q1.22 0 1.89.55.67.52.67 1.47 0 .83-.53 1.42-.53.61-1.44.93t-2.06.32q-1.97 0-2.91-.6t-.95-1.53q0-.64.45-1.12.46-.48 1.55-.54l-.1.25q-.67-.14-1.08-.5-.4-.4-.4-1.08t.53-1.17 1.48-.56l.9.43h-.2q-.73.07-1.03.34t-.3.6q0 .4.28.6.3.2.85.2zm-1.47 3.41q.88 0 1.44-.18.57-.16.85-.43.28-.26.28-.57a.7.7 0 0 0-.3-.6q-.29-.22-1.06-.22H80.4q-.45 0-.75.22a.8.8 0 0 0-.3.64q0 .53.63.84t1.78.3m-.07-10.32q1.06 0 1.83.34.78.33 1.2.94.43.6.43 1.42t-.43 1.43q-.42.6-1.2.94-.77.34-1.83.34-1.66 0-2.56-.74-.88-.75-.88-1.97 0-.81.44-1.42t1.2-.94q.78-.34 1.8-.34m0 1.2q-.73 0-1.23.42-.48.4-.48 1.08t.48 1.1q.5.42 1.23.42.76 0 1.24-.41.5-.42.5-1.1 0-.7-.5-1.1-.48-.41-1.24-.41m8.39 7.12q-1.2 0-2.2-.46a4 4 0 0 1-1.56-1.32l1.18-1.02q.35.66 1.01 1.06.67.38 1.6.38.74 0 1.17-.26.43-.25.43-.72a.8.8 0 0 0-.2-.52q-.2-.24-.76-.37l-1.68-.35q-1.28-.26-1.82-.82-.55-.58-.55-1.46 0-.65.39-1.21.38-.56 1.12-.9.75-.35 1.79-.35 1.2 0 2.05.43.85.42 1.3 1.2l-1.2 1a2 2 0 0 0-.89-.95 2.6 2.6 0 0 0-1.23-.32q-.51 0-.88.13t-.56.35a.8.8 0 0 0-.2.53q0 .32.25.56t.86.37l1.83.38q1.15.22 1.61.77.48.53.48 1.3t-.4 1.35-1.15.9-1.8.32m6.78-11.76v9.36q0 .6.2.82.22.22.7.22l.48-.03q.2-.05.5-.16l-.18 1.28q-.28.13-.63.19-.35.08-.7.08-1.07 0-1.59-.54-.5-.56-.5-1.72v-9.5zm6.52 11.76q-1.2 0-2.11-.5a3.5 3.5 0 0 1-1.42-1.42q-.5-.94-.5-2.24t.5-2.22q.5-.95 1.4-1.44.9-.5 2.04-.5 1.16 0 1.98.48t1.25 1.31.43 1.89q0 .29-.02.54l-.04.45h-6.44V95.2h5.68l-.84.26q0-1.1-.55-1.67-.54-.59-1.49-.59-.68 0-1.2.32t-.78.96q-.27.62-.27 1.54 0 .9.28 1.52.3.62.82.94t1.25.32q.8 0 1.3-.3.49-.3.78-.85l1.36.64a3 3 0 0 1-.78 1q-.48.42-1.16.65a5 5 0 0 1-1.47.22M115.44 92l-3.5 8.94q-.36.93-.78 1.48-.4.54-.92.78t-1.24.24q-.57 0-1.07-.16a3 3 0 0 1-.85-.4l.42-1.33q.3.26.64.39.35.12.75.12.43 0 .77-.24.35-.22.62-.9l.36-.87-.85-1.99-2.5-6.06h1.92l1.78 5.02.46 1.5.53-1.64 1.68-4.88zm9.47-2.72q1.42 0 2.46.54 1.04.53 1.76 1.57l-1.15 1.1q-.6-.92-1.37-1.32-.76-.42-1.8-.42-.76 0-1.26.21t-.74.56q-.22.34-.22.77 0 .5.33.86.36.37 1.3.58l2.15.48q1.53.33 2.17 1.02t.64 1.75q0 .97-.53 1.7t-1.47 1.1q-.93.38-2.2.38-1.11 0-2-.29a5 5 0 0 1-1.58-.78 5 5 0 0 1-1.1-1.14l1.19-1.18q.33.56.84 1 .52.44 1.19.68.68.24 1.52.24.73 0 1.26-.18.54-.17.82-.51.28-.35.28-.83 0-.47-.32-.82-.3-.35-1.15-.54l-2.32-.53q-.96-.2-1.58-.6t-.93-.92a2.6 2.6 0 0 1-.3-1.25q0-.9.48-1.61.5-.74 1.42-1.17.93-.45 2.2-.45m9.59 2.56q1.16 0 2.06.5t1.4 1.44q.5.92.5 2.22t-.5 2.24a3.5 3.5 0 0 1-1.4 1.42q-.9.5-2.06.5t-2.07-.5a3.5 3.5 0 0 1-1.4-1.42q-.52-.95-.52-2.24t.52-2.22q.5-.95 1.4-1.44.9-.5 2.07-.5m0 1.34q-.72 0-1.24.34-.5.32-.76.94-.28.63-.28 1.54 0 .9.28 1.54.27.62.76.96.52.32 1.24.32t1.21-.32q.5-.34.77-.96.27-.64.27-1.54 0-.91-.27-1.54-.27-.62-.77-.94-.5-.34-1.21-.34m7.46-4.78v9.36q0 .6.21.82t.69.22l.48-.03q.2-.05.51-.16l-.2 1.28a3 3 0 0 1-.62.19 3 3 0 0 1-.7.08q-1.07 0-1.58-.54-.5-.56-.5-1.72v-9.5zm6.48 3.44q1.16 0 2.06.5t1.4 1.44q.5.92.5 2.22t-.5 2.24a3.5 3.5 0 0 1-1.4 1.42q-.9.5-2.07.5-1.16 0-2.06-.5a3.6 3.6 0 0 1-1.4-1.42q-.52-.95-.52-2.24t.51-2.22q.52-.95 1.41-1.44.9-.5 2.07-.5m0 1.34q-.72 0-1.24.34-.5.32-.76.94t-.28 1.54q0 .9.27 1.54.28.62.77.96.51.32 1.23.32t1.22-.32q.5-.34.77-.96.27-.64.27-1.54 0-.91-.27-1.54-.27-.62-.77-.94-.5-.34-1.21-.34m5.8 6.82v-8h1.52l.08 1.34q.41-.76 1.1-1.13a3 3 0 0 1 1.49-.37q.86 0 1.58.4.74.38 1.1 1.17.26-.53.71-.88a3 3 0 0 1 1-.51q.54-.18 1.07-.18.76 0 1.44.32t1.08.98.42 1.68V100h-1.71v-4.91q0-.98-.47-1.41t-1.18-.43q-.56 0-1.04.27-.47.27-.75.82-.3.52-.3 1.3V100h-1.7v-4.91q0-.98-.47-1.41t-1.18-.43q-.48 0-.96.25-.48.26-.8.8-.32.55-.32 1.44V100zm18.34-8.16q1.16 0 2.06.5t1.4 1.44q.5.92.5 2.22t-.5 2.24a3.5 3.5 0 0 1-1.4 1.42q-.9.5-2.06.5t-2.07-.5a3.6 3.6 0 0 1-1.4-1.42q-.52-.94-.52-2.24t.51-2.22q.52-.95 1.41-1.44.9-.5 2.07-.5m0 1.34q-.72 0-1.24.34-.5.32-.76.94-.28.63-.28 1.54 0 .9.28 1.54.27.62.76.96.52.32 1.24.32t1.21-.32q.5-.34.77-.96.27-.64.27-1.54 0-.91-.27-1.54-.27-.62-.77-.94-.5-.34-1.21-.34m5.8 6.82v-8h1.52l.11 2.08-.22-.22q.22-.7.64-1.14.43-.46 1-.67a4 4 0 0 1 1.25-.21q.85 0 1.52.34a2.5 2.5 0 0 1 1.09.97q.4.66.4 1.67V100h-1.71v-4.66q0-1.18-.5-1.63-.48-.46-1.21-.46-.53 0-1.03.25-.5.24-.83.79-.32.54-.32 1.45V100z"/><path fill="#6a717d" d="M61.35 110.81H56v2.98h4.18v1.05H56V119h-1.12v-9.24h6.47zm1.01 8.19v-7h.91l.16 1.15q.3-.65.85-.97.58-.32 1.39-.32.18 0 .39.03t.38.11l-.2 1.02-.33-.08-.52-.03q-.44 0-.88.25t-.73.77q-.3.5-.3 1.29V119zm8.12-7.14q1 0 1.75.43.77.44 1.2 1.26.44.82.44 1.95t-.44 1.96a3 3 0 0 1-1.2 1.25q-.76.43-1.75.43-.98 0-1.75-.43a3 3 0 0 1-1.2-1.25q-.44-.83-.44-1.96t.43-1.95 1.2-1.26 1.76-.43m0 .97q-.72 0-1.22.32a2 2 0 0 0-.78.92q-.27.59-.27 1.43 0 .83.27 1.43.28.6.78.92t1.22.32 1.22-.32.77-.92q.28-.6.28-1.43 0-.84-.28-1.43a2 2 0 0 0-.77-.92q-.5-.32-1.22-.32m5.21 6.17v-7h.98l.1 1.57-.18-.16q.22-.56.6-.9t.87-.5a4 4 0 0 1 1.04-.15q.75 0 1.37.3.62.27.98.86.38.59.38 1.5V119H80.7v-4.09q0-1.16-.5-1.6-.5-.47-1.23-.47-.5 0-1 .24a2 2 0 0 0-.84.77q-.33.53-.33 1.43V119zm9.95-8.99v7.06q0 .52.3.77t.75.25q.4 0 .7-.14t.53-.38l.4.94q-.33.3-.78.46-.43.17-1 .17-.54 0-1-.18a1.7 1.7 0 0 1-.74-.6q-.27-.42-.28-1.1v-6.94zm2.55 1.99v.97h-5.07V112zm5.8 2.76v1.16h-4.62v-1.16zm2.48 4.24v-9.24h6.49v1.05H97.6v2.98h4.17v1.05H97.6v3.11h5.57V119zm8.44 0v-7h.98l.1 1.57-.18-.16q.22-.56.6-.9t.87-.5a4 4 0 0 1 1.03-.15q.76 0 1.38.3.61.27.98.86t.37 1.5V119h-1.12v-4.09q0-1.16-.5-1.6-.49-.47-1.22-.47-.5 0-1 .24a2 2 0 0 0-.85.77q-.32.53-.32 1.43V119zm11.12.14q-.87 0-1.6-.43a3 3 0 0 1-1.16-1.25q-.43-.83-.43-1.96 0-1.16.46-1.97a3 3 0 0 1 1.22-1.24 3 3 0 0 1 1.62-.43q.87 0 1.5.45.64.45.85 1.19l-.14.1v-4.82h1.12V119h-.98l-.1-1.7.16-.08a2 2 0 0 1-.48 1.05q-.36.42-.9.65a3 3 0 0 1-1.14.22m.11-.98q.67 0 1.16-.34.5-.33.77-.95.28-.63.28-1.47 0-.8-.28-1.37a2 2 0 0 0-.75-.88q-.48-.31-1.12-.31-1.07 0-1.65.73t-.6 1.93.58 1.93 1.61.73m13.34-8.4q2.17 0 3.4 1.2 1.25 1.2 1.25 3.42t-1.25 3.43q-1.23 1.19-3.4 1.19h-2.98v-9.24zm.11 8.19q1.58 0 2.47-.94.9-.95.9-2.63t-.9-2.62q-.89-.95-2.47-.95h-1.97v7.14zm9.43 1.19q-.99 0-1.77-.43a3 3 0 0 1-1.2-1.25q-.44-.83-.44-1.96t.43-1.95a3 3 0 0 1 1.2-1.26q.75-.43 1.71-.43.98 0 1.67.42.7.42 1.06 1.15a3.5 3.5 0 0 1 .37 1.6q0 .25-.02.44l-.04.35h-5.65v-1h5.16l-.57.12q0-1-.56-1.55-.55-.55-1.44-.55-.69 0-1.2.32-.48.31-.76.91-.27.59-.27 1.43 0 .83.28 1.43t.78.92q.52.31 1.24.31.77 0 1.24-.3.5-.29.79-.8l.88.53a3 3 0 0 1-.69.82 3 3 0 0 1-.96.55 4 4 0 0 1-1.24.18m9.32-7.14h1.18l-2.91 7h-1.12l-2.92-7h1.28l2.21 5.87zm5.29 7.14q-1 0-1.78-.43a3 3 0 0 1-1.2-1.25q-.44-.83-.44-1.96t.43-1.95a3 3 0 0 1 1.2-1.26q.75-.43 1.72-.43.98 0 1.66.42.7.42 1.07 1.15a3.5 3.5 0 0 1 .36 1.6l-.01.44-.05.35h-5.65v-1h5.16l-.57.12q0-1-.56-1.55-.55-.55-1.44-.55-.69 0-1.2.32-.48.31-.76.91-.27.59-.27 1.43 0 .83.28 1.43t.79.92 1.23.31q.77 0 1.24-.3.5-.29.79-.8l.88.53a3 3 0 0 1-.69.82 3 3 0 0 1-.96.55 4 4 0 0 1-1.23.18m5.93-10.36v8.44q0 .53.2.74t.63.2q.28 0 .46-.04t.5-.16l-.19.98a2 2 0 0 1-.49.14 3 3 0 0 1-.55.06q-.85 0-1.27-.46-.4-.46-.4-1.42v-8.48zm5.84 3.08q1 0 1.75.43a3 3 0 0 1 1.2 1.26q.44.82.44 1.95t-.44 1.96q-.43.81-1.2 1.25-.76.43-1.75.43-.98 0-1.75-.43a3 3 0 0 1-1.2-1.25q-.44-.83-.44-1.96t.43-1.95 1.2-1.26q.78-.43 1.76-.43m0 .97q-.72 0-1.22.32a2 2 0 0 0-.78.92q-.27.59-.27 1.43 0 .83.27 1.43.28.6.78.92t1.22.32 1.22-.32.77-.92.28-1.43q0-.84-.28-1.43a2 2 0 0 0-.77-.92q-.5-.32-1.22-.32m5.21 9.11V112h.98l.1 1.7-.15-.19q.18-.49.54-.85.37-.38.89-.59t1.12-.21q.85 0 1.56.43.73.44 1.17 1.25t.43 1.96q0 1.13-.45 1.96a3 3 0 0 1-1.16 1.25 3 3 0 0 1-1.6.43q-.86 0-1.52-.42a2.5 2.5 0 0 1-.93-1.1l.14-.2v4.52zm3.32-3.78q1.04 0 1.61-.73.6-.73.6-1.93t-.58-1.93-1.59-.73q-.67 0-1.17.34a2 2 0 0 0-.79.92q-.28.59-.28 1.4t.27 1.4.77.94q.5.32 1.16.32m8.1.98q-.99 0-1.77-.43a3 3 0 0 1-1.2-1.25q-.44-.83-.44-1.96t.44-1.95 1.19-1.26 1.72-.43 1.66.42 1.07 1.15a3.5 3.5 0 0 1 .36 1.6l-.01.44-.04.35h-5.66v-1h5.17l-.58.12q0-1-.56-1.55-.54-.55-1.44-.55-.69 0-1.19.32-.49.31-.77.91-.27.59-.27 1.43 0 .83.28 1.43t.79.92q.52.31 1.23.31.77 0 1.25-.3.49-.29.78-.8l.88.53a3 3 0 0 1-.68.82q-.4.35-.97.55a4 4 0 0 1-1.23.18m4.87-.14v-7h.91l.16 1.15a2 2 0 0 1 .85-.97q.57-.32 1.39-.32.18 0 .39.03t.38.11l-.2 1.02-.34-.08-.51-.03q-.44 0-.89.25-.43.25-.72.77-.3.5-.3 1.29V119z"/><path fill="#5d636d" d="M316.37 94.33a3 3 0 0 0-2.77 1.85 3 3 0 0 0 2.19 4.1 3 3 0 0 0 3.58-2.95 3 3 0 0 0-3-3m0 4.5a1.5 1.5 0 0 1-1.39-.92 1.5 1.5 0 0 1 1.1-2.05 1.5 1.5 0 1 1 .3 2.97m-7.5-4.5a3 3 0 0 0-2.78 1.85 3 3 0 0 0 2.19 4.1 3 3 0 0 0 3.58-2.95 3 3 0 0 0-3-3m0 4.5a1.5 1.5 0 0 1-1.39-.92 1.5 1.5 0 0 1 1.1-2.05 1.5 1.5 0 1 1 .3 2.97m15-4.5a3 3 0 0 0-2.78 1.85 3 3 0 0 0 2.19 4.1 3 3 0 0 0 3.58-2.95 3 3 0 0 0-3-3m0 4.5a1.5 1.5 0 0 1-1.39-.92 1.5 1.5 0 0 1 1.1-2.05 1.5 1.5 0 1 1 .3 2.97"/><path fill="#6a717d" d="M10.51 165v-9.24H17v1.05h-5.36v2.98h4.17v1.05h-4.17v3.11h5.57V165zm8.44 0v-7h.98l.07 1.1q.38-.65.98-.95.62-.29 1.26-.29.74 0 1.4.34.66.33 1 1.03.23-.47.64-.77a3 3 0 0 1 .88-.45q.49-.15.92-.15.68 0 1.28.28.61.28 1 .87.4.59.4 1.51V165h-1.12v-4.37q0-.95-.48-1.37-.47-.42-1.17-.42-.55 0-1.03.27a2 2 0 0 0-.77.78q-.28.52-.28 1.27V165H23.8v-4.37q0-.95-.47-1.37-.48-.42-1.18-.42-.46 0-.95.25-.48.24-.8.77t-.32 1.4V165zm17.15-4.52q0-.79-.42-1.2-.42-.44-1.19-.44-.73 0-1.23.32-.5.31-.74 1.01l-.91-.56q.28-.78 1.03-1.26.76-.49 1.88-.49.76 0 1.37.27.62.25.97.78.36.52.36 1.34v3.4q0 .5.53.5.27 0 .52-.07l-.05.88q-.28.14-.73.14-.4 0-.73-.16a1 1 0 0 1-.5-.46q-.18-.32-.19-.8v-.14l.28.05a2 2 0 0 1-.57.9q-.4.33-.91.5a3 3 0 0 1-1 .15q-.61 0-1.14-.21t-.86-.63q-.3-.43-.3-1.06 0-.79.51-1.3.54-.51 1.47-.7l2.78-.54v.93l-2.26.46q-.68.14-1.02.39a.8.8 0 0 0-.34.7 1 1 0 0 0 .34.71q.35.27.98.27.4 0 .77-.1a2 2 0 0 0 .67-.32q.3-.22.46-.55t.17-.78zm4.12-3.82a1 1 0 0 1-.61-.23 1 1 0 0 1-.23-.61q0-.38.23-.6a.8.8 0 0 1 .61-.24q.38 0 .6.23.24.23.24.6t-.23.62q-.23.23-.6.23m.55 1.34v7h-1.12v-7zm3.39-3.22v8.44q0 .53.2.74.19.2.62.2.28 0 .46-.04t.5-.16l-.19.98q-.22.1-.49.14-.26.06-.54.06-.86 0-1.28-.46-.4-.46-.4-1.42v-8.48zM58.1 165h-1.19l-.98-2.56h-4.18l-.98 2.56H49.6l3.6-9.24h1.33zm-5.95-3.61h3.38l-1.7-4.55zm9.95 3.75q-.87 0-1.6-.43a3 3 0 0 1-1.16-1.25q-.43-.83-.43-1.96 0-1.16.46-1.97a3 3 0 0 1 1.22-1.24 3 3 0 0 1 1.62-.43q.87 0 1.5.45.64.45.85 1.19l-.14.1v-4.82h1.12V165h-.98l-.1-1.7.16-.08a2 2 0 0 1-.48 1.05q-.36.42-.9.65a3 3 0 0 1-1.14.22m.11-.98q.67 0 1.16-.34.5-.33.77-.95.28-.63.28-1.47 0-.8-.28-1.37a2 2 0 0 0-.75-.88 2 2 0 0 0-1.12-.31q-1.07 0-1.66.73t-.58 1.93.57 1.93 1.61.73m8.39.98q-.87 0-1.6-.43a3 3 0 0 1-1.16-1.25q-.44-.83-.44-1.96 0-1.16.47-1.97a3 3 0 0 1 1.21-1.24 3 3 0 0 1 1.63-.43q.87 0 1.5.45.64.45.85 1.19l-.14.1v-4.82h1.12V165h-.98l-.1-1.7.16-.08a2 2 0 0 1-.48 1.05q-.36.42-.91.65a3 3 0 0 1-1.13.22m.1-.98q.68 0 1.17-.34.5-.33.77-.95.28-.63.28-1.47 0-.8-.28-1.37a2 2 0 0 0-.76-.88 2 2 0 0 0-1.12-.31q-1.06 0-1.65.73t-.59 1.93.58 1.93 1.6.73m5.66.84v-7h.91l.16 1.15q.3-.65.85-.97.57-.32 1.39-.32.18 0 .39.03t.38.11l-.2 1.02-.33-.08-.52-.03q-.44 0-.88.25t-.73.77q-.3.5-.3 1.29V165zm8.15.14q-1 0-1.78-.43a3 3 0 0 1-1.2-1.25q-.44-.83-.44-1.96t.43-1.95 1.2-1.26q.75-.43 1.72-.43.98 0 1.66.42.7.42 1.07 1.15.36.71.36 1.6l-.01.44q-.01.2-.05.35h-5.65v-1h5.16l-.57.12q0-1-.56-1.55-.55-.55-1.44-.55-.69 0-1.2.32-.48.31-.76.91-.27.59-.27 1.43 0 .83.28 1.43t.79.92 1.23.31q.77 0 1.24-.3.5-.29.79-.8l.88.53a3 3 0 0 1-.69.82 3 3 0 0 1-.96.55 4 4 0 0 1-1.23.18m7.39 0a4 4 0 0 1-1.89-.43 3 3 0 0 1-1.32-1.24l.96-.68q.3.64.9 1 .6.37 1.43.37.75 0 1.17-.28.42-.3.42-.76a1 1 0 0 0-.2-.53q-.18-.25-.71-.36l-1.68-.35q-1.03-.21-1.47-.7-.44-.5-.44-1.22 0-.58.32-1.05.34-.48.94-.76.62-.29 1.44-.29 1.04 0 1.75.4.72.41 1.07 1.15l-.94.62q-.24-.62-.77-.9a2 2 0 0 0-1.1-.29q-.51 0-.87.14a1.3 1.3 0 0 0-.55.4 1 1 0 0 0-.18.54q0 .3.2.57.22.25.8.37l1.74.36q.98.2 1.37.64t.4 1.1-.35 1.16q-.35.49-.98.75t-1.46.27m7.1 0a4 4 0 0 1-1.89-.43 3 3 0 0 1-1.31-1.24l.95-.68q.3.64.9 1 .6.37 1.44.37.74 0 1.16-.28.42-.3.42-.76a1 1 0 0 0-.2-.53q-.18-.25-.71-.36l-1.68-.35q-1.02-.21-1.47-.7-.44-.5-.44-1.22 0-.58.33-1.05t.93-.76 1.45-.29q1.03 0 1.75.4.71.41 1.06 1.15l-.94.62q-.24-.62-.77-.9a2 2 0 0 0-1.1-.29q-.5 0-.87.14a1.3 1.3 0 0 0-.55.4 1 1 0 0 0-.18.54q0 .3.21.57.21.25.78.37l1.75.36q.98.2 1.38.64t.39 1.1-.35 1.16-.98.75-1.46.27"/><path fill="#232323" d="m16.77 176-3.12 3.2-.32.22-2.2 2.28-.02-1.71L15 176zm-5.11-3.15V183h-1.5v-10.15zm2.17 5.5 3.1 4.65H15.2l-2.49-3.8zm4.97-3.53q-.49 0-.76-.23-.25-.26-.25-.7t.25-.69q.27-.24.76-.24.48 0 .73.24.26.24.26.69t-.26.7q-.25.23-.73.23m.74 1.18v7h-1.5v-7zm2.07 7v-7h1.33l.1 1.82-.2-.2q.2-.6.56-.99.38-.4.88-.59.52-.18 1.1-.18.73 0 1.32.3.6.27.95.85t.35 1.45V183h-1.5v-4.07q0-1.04-.43-1.43-.42-.4-1.06-.4-.46 0-.9.22-.43.2-.73.68-.28.48-.28 1.28V183zm14.54-8.47.24 1.18h-.08l-.09-.02q-.67 0-1.02.3-.35.28-.35.82l-.73-.33q0-.56.24-1a2 2 0 0 1 .67-.7 2 2 0 0 1 1.01-.25zm-2.2 7.38q1.06 0 1.64.47.6.47.6 1.3 0 .72-.47 1.24-.46.53-1.26.81-.78.28-1.8.28-1.73 0-2.55-.53t-.83-1.33q0-.56.4-.98t1.35-.48l-.08.23q-.6-.13-.96-.45-.35-.34-.35-.94t.47-1.02 1.3-.5l.78.39h-.17q-.64.05-.9.29-.27.24-.27.53 0 .35.25.52.26.17.74.17zm-1.3 2.98q.77 0 1.26-.15.5-.14.75-.38t.25-.5a.6.6 0 0 0-.27-.52q-.25-.2-.92-.2h-2.26q-.39 0-.65.2a.7.7 0 0 0-.27.56q0 .46.56.72t1.55.27m-.05-9.03q.92 0 1.6.3.68.29 1.04.82.38.53.38 1.25t-.38 1.24q-.36.53-1.05.83-.67.3-1.6.3-1.45 0-2.23-.65-.77-.66-.77-1.72 0-.72.38-1.25t1.05-.83 1.58-.29m0 1.05q-.65 0-1.08.36-.42.35-.42.96t.42.96q.44.37 1.08.37t1.08-.37.43-.96-.43-.96-1.08-.36m7.33 6.23q-1.05 0-1.91-.4a3.3 3.3 0 0 1-1.38-1.15l1.04-.9q.3.58.88.92.6.34 1.4.34.65 0 1.02-.22.38-.23.38-.63a.7.7 0 0 0-.18-.47q-.17-.2-.66-.32l-1.47-.3q-1.12-.23-1.6-.72-.47-.5-.47-1.27 0-.58.34-1.07t.98-.78q.66-.31 1.56-.31 1.05 0 1.8.38.74.36 1.13 1.05l-1.04.87a1.7 1.7 0 0 0-.78-.83 2 2 0 0 0-1.08-.28q-.45 0-.77.11a1 1 0 0 0-.49.31.7.7 0 0 0-.17.46q0 .28.21.5t.76.31l1.6.34q1 .2 1.41.67.42.46.42 1.14t-.35 1.19q-.35.5-1 .78-.67.28-1.58.28m7.5-7.28q1.02 0 1.8.43a3 3 0 0 1 1.22 1.26q.45.82.45 1.95t-.45 1.96q-.43.81-1.22 1.25-.78.43-1.8.43t-1.8-.43a3 3 0 0 1-1.24-1.25q-.45-.83-.45-1.96t.45-1.95 1.23-1.26q.79-.43 1.8-.43m0 1.18q-.62 0-1.07.29-.43.28-.67.83t-.24 1.34.24 1.34a2 2 0 0 0 .67.84q.45.28 1.08.28t1.06-.28a2 2 0 0 0 .67-.84q.24-.56.24-1.34 0-.8-.24-1.34-.23-.55-.67-.83-.43-.3-1.06-.3m6.53-4.18v8.19q0 .52.18.71.19.2.6.2.26 0 .42-.03.19-.04.45-.14l-.17 1.12q-.23.11-.54.17-.3.07-.62.07-.93 0-1.38-.48-.44-.49-.44-1.5v-8.31zm5.66 3.01q1.03 0 1.81.43.78.44 1.22 1.26.45.82.45 1.95t-.45 1.96q-.44.81-1.22 1.25t-1.8.43-1.81-.43a3 3 0 0 1-1.23-1.25q-.45-.83-.45-1.96t.45-1.95 1.23-1.26 1.8-.43m0 1.18q-.63 0-1.07.29t-.68.83-.23 1.34q0 .78.23 1.34a2 2 0 0 0 .68.84q.44.28 1.07.28t1.07-.28a2 2 0 0 0 .67-.84q.24-.56.24-1.34 0-.8-.24-1.34-.24-.55-.67-.83-.44-.3-1.07-.3M64.7 183v-7h1.33l.1 1.82-.2-.2q.2-.6.56-.99.38-.4.88-.59.52-.18 1.1-.18.74 0 1.33.3.6.27.95.85.35.57.35 1.45V183h-1.5v-4.07q0-1.04-.43-1.43-.42-.4-1.07-.4-.46 0-.9.22-.43.2-.72.68t-.28 1.28V183zm13.93 2.69q-1.31 0-2.4-.4a5 5 0 0 1-1.85-1.18 5 5 0 0 1-1.2-1.84q-.43-1.08-.43-2.42 0-1.36.45-2.48a5.7 5.7 0 0 1 3.25-3.19q1.13-.45 2.48-.45 1.28 0 2.3.42a5 5 0 0 1 1.74 1.16q.73.75 1.1 1.73t.37 2.1q0 .96-.25 1.7-.24.75-.66 1.25a3 3 0 0 1-.95.77 2.4 2.4 0 0 1-1.05.25q-.81 0-1.22-.42t-.35-1.08q-.3.63-.92 1a2.4 2.4 0 0 1-1.28.36q-.68 0-1.21-.33a2.3 2.3 0 0 1-.84-.96q-.3-.61-.3-1.44 0-.75.23-1.43t.65-1.2 1-.81a3 3 0 0 1 1.27-.3q.5 0 .91.19.42.16.7.5.3.34.4.83l.33-1.39h1.32l-1.03 4.4-.05.28q-.02.12-.02.25 0 .38.2.52.2.12.46.12.46 0 .86-.32.4-.34.65-1 .26-.7.26-1.72 0-.99-.33-1.82a4 4 0 0 0-.92-1.44 4 4 0 0 0-1.46-.94q-.84-.33-1.89-.33-1.14 0-2.1.36a5 5 0 0 0-1.63 1.05 5 5 0 0 0-1.08 1.65q-.38.97-.38 2.16 0 1.18.38 2.1.38.91 1.05 1.54.67.64 1.55.98a5 5 0 0 0 1.92.34q1.12 0 1.8-.3.66-.28 1.14-.61l.49.74a6 6 0 0 1-.85.52 5 5 0 0 1-1.1.37q-.63.16-1.5.16m-.36-3.77q.53 0 .97-.36.43-.38.68-1 .27-.63.27-1.35 0-.5-.18-.86a1.3 1.3 0 0 0-.5-.56 1.4 1.4 0 0 0-.76-.2 2 2 0 0 0-.84.2 2 2 0 0 0-.63.59 3 3 0 0 0-.42.84 4 4 0 0 0-.14 1q0 .54.18.93.18.38.52.58t.85.2m14-7.4.23 1.18h-.08l-.09-.02q-.67 0-1.02.3-.35.28-.35.82l-.73-.33q0-.56.24-1 .24-.45.67-.7a2 2 0 0 1 1-.25zm-2.22 7.38q1.06 0 1.65.47t.59 1.3q0 .72-.46 1.24-.47.53-1.26.81t-1.8.28q-1.73 0-2.56-.53-.82-.53-.82-1.33 0-.56.39-.98.4-.42 1.36-.48l-.09.23q-.58-.13-.95-.45-.35-.34-.35-.94t.46-1.02 1.3-.5l.79.39h-.17q-.64.05-.9.29-.27.24-.27.53 0 .35.25.52.26.17.74.17zm-1.29 2.98q.77 0 1.26-.15.5-.14.74-.38.26-.23.26-.5a.6.6 0 0 0-.27-.52q-.25-.2-.92-.2h-2.26q-.39 0-.66.2a.7.7 0 0 0-.26.56q0 .46.56.72t1.55.27m-.05-9.03q.92 0 1.6.3.68.29 1.04.82.38.53.38 1.25t-.38 1.24q-.36.53-1.05.83-.67.3-1.6.3-1.45 0-2.23-.65-.77-.66-.77-1.72 0-.72.37-1.25t1.05-.83q.69-.29 1.59-.29m0 1.05q-.65 0-1.08.36-.42.35-.42.96t.42.96q.43.37 1.08.37t1.07-.37.44-.96-.44-.96q-.42-.36-1.07-.36m4.67 6.09v-7h1.33l.07 1.18q.36-.68.97-1t1.3-.32q.75 0 1.38.35.65.34.97 1.02a2 2 0 0 1 .62-.77q.39-.3.87-.45.47-.15.93-.15.68 0 1.26.28t.96.85.36 1.47V183h-1.5v-4.3q0-.85-.4-1.23t-1.04-.38q-.49 0-.91.24-.4.24-.66.71-.25.47-.25 1.15V183h-1.5v-4.3q0-.85-.4-1.23t-1.04-.38q-.42 0-.84.23a2 2 0 0 0-.7.7q-.28.47-.28 1.26V183zm17.06-4.5q0-.7-.4-1.07-.37-.4-1.04-.4-.63 0-1.08.3t-.66.95l-1.26-.53a2.5 2.5 0 0 1 1.03-1.37q.79-.52 2.02-.52.84 0 1.49.28.64.27 1 .81.38.55.38 1.4v3.12q0 .52.52.52.25 0 .49-.07l-.09 1.04q-.32.15-.8.15-.46 0-.82-.15a1.4 1.4 0 0 1-.56-.5q-.2-.33-.2-.82v-.1l.31-.01a2 2 0 0 1-.51.91 3 3 0 0 1-.91.53 3 3 0 0 1-1.05.17q-.66 0-1.2-.21a2 2 0 0 1-.82-.63q-.3-.43-.3-1.06 0-.79.5-1.3.53-.5 1.47-.68l2.71-.53-.01 1.05-1.98.4q-.58.12-.88.33t-.3.61.3.63.81.23q.35 0 .68-.09t.6-.26a1.3 1.3 0 0 0 .4-.5q.16-.3.16-.72zm4.41-3.68q-.49 0-.75-.23-.26-.26-.26-.7t.26-.69.75-.24.73.24q.26.24.26.69t-.26.7q-.25.23-.73.23m.74 1.18v7h-1.5v-7zm3.52-3.15v8.19q0 .52.19.71t.6.2q.25 0 .42-.03l.45-.14-.17 1.12a2 2 0 0 1-.55.17q-.3.07-.62.07-.93 0-1.38-.48-.44-.49-.44-1.5v-8.31zm3.47 8.26q.47 0 .75.28.3.27.3.73t-.3.74-.75.28q-.5 0-.79-.28-.28-.28-.28-.74t.28-.73q.3-.28.79-.28m5.55-5.25q.84 0 1.43.25.6.24 1 .69t.62 1.02l-1.41.56q-.18-.64-.59-.98-.39-.35-1.03-.35-.63 0-1.08.3a2 2 0 0 0-.69.82q-.22.55-.22 1.34t.24 1.33.68.83 1.07.28q.47 0 .82-.15.35-.17.58-.47t.32-.74l1.36.46q-.2.63-.62 1.11-.4.46-1.02.73-.62.25-1.42.25-1.03 0-1.83-.43a3 3 0 0 1-1.25-1.25q-.43-.83-.43-1.96t.43-1.95q.45-.82 1.24-1.26.8-.43 1.8-.43m7.6 0q1.02 0 1.8.43a3 3 0 0 1 1.22 1.26q.45.82.45 1.95t-.45 1.96q-.43.81-1.22 1.25-.78.43-1.8.43t-1.8-.43a3 3 0 0 1-1.24-1.25q-.45-.83-.45-1.96t.45-1.95a3 3 0 0 1 1.23-1.26q.79-.43 1.8-.43m0 1.18q-.62 0-1.07.29-.43.28-.67.83t-.24 1.34.24 1.34.67.84q.45.28 1.08.28t1.06-.28.67-.84.24-1.34q0-.8-.24-1.34-.23-.55-.67-.83-.43-.3-1.06-.3m5.07 5.97v-7h1.33l.07 1.18q.37-.68.97-1a3 3 0 0 1 1.3-.32q.76 0 1.39.35.64.34.96 1.02.23-.46.62-.77.4-.3.87-.45.48-.15.94-.15.67 0 1.26.28t.95.85.36 1.47V183h-1.5v-4.3q0-.85-.4-1.23t-1.04-.38q-.49 0-.9.24t-.67.71-.25 1.15V183h-1.5v-4.3q0-.85-.4-1.23t-1.04-.38q-.42 0-.84.23t-.7.7-.28 1.26V183z"/><path fill="#6a717d" d="M227.77 155.76q.94 0 1.63.35.7.34 1.09.97t.4 1.5-.4 1.5-1.1.97-1.62.34h-2.14V165h-1.12v-9.24zm-.16 4.58q1.09 0 1.6-.45.5-.46.5-1.32t-.5-1.31-1.6-.45h-1.98v3.53zm4.96 4.66v-10.22h1.12v4.27q.36-.63.96-.91t1.32-.28q.76 0 1.37.3.62.27.98.86.38.59.38 1.5V165h-1.12v-4.09q0-1.16-.5-1.6-.5-.47-1.22-.47-.5 0-1.01.24t-.84.78q-.32.53-.32 1.43V165zm11.28-7.14q1 0 1.75.43.77.44 1.2 1.26.44.82.44 1.95t-.43 1.96a3 3 0 0 1-1.2 1.25q-.76.43-1.76.43-.98 0-1.75-.43a3 3 0 0 1-1.2-1.25q-.44-.83-.44-1.96t.44-1.95a3 3 0 0 1 1.2-1.26q.77-.43 1.75-.43m0 .97q-.71 0-1.21.32a2 2 0 0 0-.79.92q-.26.59-.26 1.43 0 .83.26 1.43.28.6.79.92.5.32 1.21.32t1.22-.32.77-.92.28-1.43q0-.84-.28-1.43a2 2 0 0 0-.77-.92q-.5-.32-1.22-.32m5.22 6.17v-7h.98l.1 1.57-.18-.16q.22-.56.6-.9t.87-.5a4 4 0 0 1 1.03-.15q.76 0 1.37.3.62.27.98.86.38.59.38 1.5V165h-1.12v-4.09q0-1.16-.5-1.6-.5-.47-1.22-.47-.5 0-1 .24a2 2 0 0 0-.85.77q-.32.53-.32 1.43V165zm11.31.14q-.99 0-1.77-.43a3 3 0 0 1-1.2-1.25q-.44-.83-.44-1.96t.43-1.95 1.2-1.26q.75-.43 1.71-.43.98 0 1.67.42.7.42 1.06 1.15a3.5 3.5 0 0 1 .37 1.6q0 .25-.02.44l-.04.35h-5.66v-1h5.17l-.57.12q0-1-.56-1.55-.55-.55-1.45-.55-.68 0-1.19.32-.49.31-.77.91-.26.59-.26 1.43 0 .83.28 1.43t.78.92q.52.31 1.23.31.77 0 1.25-.3.5-.29.78-.8l.89.53a3 3 0 0 1-.69.82q-.4.35-.97.55a4 4 0 0 1-1.23.18m16.83-9.38V165h-1.39l-3.86-6.19-.98-1.73h-.01l.05 1.4V165h-1.06v-9.24h1.38l3.85 6.16 1 1.78h.01l-.05-1.42v-6.52zm4.96 9.38q-.67 0-1.27-.25a2 2 0 0 1-.97-.81q-.36-.58-.36-1.49V158h1.12v4.3q0 1.06.46 1.47.46.39 1.3.39.4 0 .77-.13.38-.14.68-.42.3-.29.47-.74.18-.45.18-1.06V158h1.12v7h-.98l-.07-1.06a2.2 2.2 0 0 1-.99.92q-.62.28-1.46.28M288 165v-7h.98l.07 1.1q.38-.65.98-.95a3 3 0 0 1 1.26-.29q.74 0 1.4.34.66.33 1 1.03.23-.47.64-.77.4-.3.88-.45a3 3 0 0 1 .92-.15q.68 0 1.28.28.62.28 1 .87.4.59.4 1.51V165h-1.12v-4.37q0-.95-.48-1.37-.47-.42-1.17-.42-.55 0-1.03.27a2 2 0 0 0-.77.78q-.28.52-.28 1.27V165h-1.12v-4.37q0-.95-.47-1.37t-1.18-.42q-.46 0-.95.25-.48.24-.8.77t-.32 1.4V165zm16.5.14a3 3 0 0 1-1.1-.21 2.6 2.6 0 0 1-1.41-1.44l.15-.2-.1 1.71h-.98v-10.22h1.12v4.8l-.14-.2q.28-.67.94-1.09a3 3 0 0 1 1.53-.43 3 3 0 0 1 1.6.43 3 3 0 0 1 1.16 1.25q.43.81.43 1.96 0 1.13-.45 1.96a3 3 0 0 1-1.16 1.25 3 3 0 0 1-1.6.43m-.1-.98q1.03 0 1.6-.73.6-.73.6-1.93t-.58-1.93-1.61-.73q-.66 0-1.17.34a2.3 2.3 0 0 0-.77.93q-.28.6-.28 1.42 0 .8.27 1.4.28.59.77.9a2 2 0 0 0 1.16.33m8.1.98q-.99 0-1.77-.43a3 3 0 0 1-1.2-1.25q-.44-.83-.44-1.96t.44-1.95a3 3 0 0 1 1.19-1.26q.75-.43 1.72-.43.98 0 1.66.42.7.42 1.07 1.15.36.71.36 1.6l-.01.44q-.01.2-.04.35h-5.66v-1h5.17l-.58.12q0-1-.56-1.55-.54-.55-1.44-.55-.69 0-1.19.32-.49.31-.77.91-.27.59-.27 1.43 0 .83.28 1.43t.79.92 1.23.31q.77 0 1.25-.3.49-.29.78-.8l.88.53a3 3 0 0 1-.68.82 3 3 0 0 1-.97.55 4 4 0 0 1-1.23.18m4.87-.14v-7h.91l.16 1.15q.29-.65.85-.97t1.39-.32q.18 0 .39.03t.38.11l-.2 1.02-.34-.08-.51-.03q-.44 0-.89.25-.43.25-.72.77-.3.5-.3 1.29V165z"/><path fill="#232323" d="M227.4 183.14q-1.67 0-2.62-1.2-.94-1.22-.94-3.56t.94-3.54q.95-1.22 2.62-1.22t2.61 1.22q.96 1.2.96 3.54t-.96 3.56q-.93 1.2-2.61 1.2m0-1.27q.67 0 1.12-.38.46-.4.68-1.16.24-.79.24-1.95t-.24-1.93q-.22-.79-.68-1.16-.45-.4-1.12-.4t-1.14.4q-.45.37-.67 1.16-.22.77-.22 1.93t.22 1.95q.22.77.67 1.16t1.14.38m8.45-8.24q.94 0 1.63.31.7.3 1.07.84t.38 1.32q0 .71-.35 1.26-.34.53-1 .81v.01q.8.3 1.27.89.47.57.47 1.42 0 .83-.43 1.42-.42.59-1.2.9-.78.33-1.84.33t-1.85-.32q-.77-.32-1.2-.91t-.44-1.42q0-.84.47-1.42t1.28-.89v-.01a2 2 0 0 1-.99-.8q-.36-.54-.36-1.27 0-.77.37-1.32t1.08-.84 1.64-.3m0 1.25q-.74 0-1.19.37-.43.36-.43 1t.44.99 1.18.35 1.16-.35q.45-.37.45-1t-.43-1-1.18-.36m0 6.99q.62 0 1.05-.18t.67-.53.24-.82q0-.49-.25-.82a1.5 1.5 0 0 0-.67-.53q-.44-.19-1.04-.19-.59 0-1.04.19a1.6 1.6 0 0 0-.7.53q-.23.33-.23.82 0 .47.23.82t.7.53 1.04.18m6.9 1.12v-6.92l.02-.64a5 5 0 0 1-1.1.8 5 5 0 0 1-1.24.46l-.28-1.3q.3-.04.69-.2t.8-.39.78-.5a3 3 0 0 0 .54-.55h1.26V183zm7.1-9.38q.75 0 1.32.21t1 .63q.43.43.71 1.13l-1.31.63q-.2-.6-.63-.95-.42-.35-1.18-.35a2 2 0 0 0-.97.27q-.42.26-.71.75a4 4 0 0 0-.45 1.14 6 6 0 0 0-.15 1.4v.25l.05.03q.16-.56.55-.9.4-.35.91-.52t1-.16q.92 0 1.6.36a2.5 2.5 0 0 1 1.07 1q.39.67.39 1.58 0 .92-.4 1.6a3 3 0 0 1-1.14 1.06q-.71.36-1.72.36-1.18 0-2-.59t-1.26-1.65-.44-2.5q0-1.57.5-2.64.5-1.06 1.35-1.6a3.5 3.5 0 0 1 1.92-.54m-.1 4.8a2 2 0 0 0-.94.23q-.4.2-.64.58t-.23.89q0 .49.24.88.25.39.66.63.4.22.91.22.85 0 1.33-.46t.48-1.27q0-.52-.21-.9a1.4 1.4 0 0 0-.62-.59q-.4-.2-.98-.2m7.87 4.71q-1.3 0-2.27-.57a3 3 0 0 1-1.3-1.64l1.46-.69q.12.5.39.87.27.36.7.56.44.18 1.08.18.54 0 .92-.2t.58-.54.2-.8-.18-.77a1 1 0 0 0-.54-.45q-.37-.14-.94-.14l-.35.02-.36.03v-1.26l.23.02h.24q.91 0 1.3-.36.4-.36.4-1.13 0-.66-.41-1.01t-1.13-.35q-.77 0-1.2.36-.43.35-.65 1.02l-1.37-.57q.2-.64.65-1.12t1.14-.73a4 4 0 0 1 1.5-.26q1 0 1.65.32.67.32 1 .88t.33 1.25q0 .53-.16.93-.15.4-.42.69a2 2 0 0 1-.56.43 2 2 0 0 1-.6.21v.03q.4.02.74.17.35.14.62.4a2 2 0 0 1 .43.62q.16.37.16.8 0 .84-.42 1.47t-1.16.98-1.7.35m8.16-9.5q.94 0 1.63.3.7.3 1.08.84t.37 1.32q0 .71-.35 1.26-.33.53-.99.81v.01q.8.3 1.26.89.48.57.48 1.42 0 .83-.44 1.42-.42.59-1.2.9-.77.33-1.84.33t-1.84-.32-1.2-.91-.44-1.42q0-.84.46-1.42t1.29-.89v-.01a2.2 2.2 0 0 1-1-.8q-.36-.54-.36-1.27 0-.77.38-1.32t1.08-.84 1.63-.3m0 1.25q-.74 0-1.19.37-.43.36-.43 1 0 .62.45.99.44.35 1.17.35t1.17-.35q.44-.37.44-1t-.43-1-1.18-.36m0 6.99q.62 0 1.05-.18t.68-.53q.23-.35.23-.82 0-.49-.25-.82a1.5 1.5 0 0 0-.67-.53q-.44-.19-1.04-.19-.59 0-1.03.19a1.6 1.6 0 0 0-.7.53q-.24.33-.24.82 0 .47.24.82t.68.53a3 3 0 0 0 1.05.18m8.2-8.26q1.18 0 2 .59t1.23 1.65.42 2.5q0 1.6-.44 2.67-.43 1.05-1.24 1.58t-1.96.53q-1.18 0-2.02-.52t-1.26-1.55l1.42-.66q.2.66.64 1.05.46.4 1.25.4.64 0 1.07-.26.44-.25.7-.73a4 4 0 0 0 .37-1.15q.11-.67.11-1.5v-.16h-.06a2 2 0 0 1-.56.9q-.39.36-.9.53a3 3 0 0 1-1 .15q-.9 0-1.6-.35a3 3 0 0 1-1.07-1q-.4-.65-.4-1.53 0-.97.4-1.67a3 3 0 0 1 1.13-1.08q.74-.39 1.76-.39m.02 1.32q-.88 0-1.36.47-.46.48-.46 1.33 0 .76.49 1.2.5.41 1.33.41.53 0 .94-.2.4-.23.63-.61t.23-.88q0-.53-.23-.91a1.5 1.5 0 0 0-.63-.6 2 2 0 0 0-.94-.21m8.6 8.2q-1.67 0-2.62-1.2-.94-1.22-.94-3.56t.94-3.54q.95-1.22 2.62-1.22t2.62 1.22q.95 1.2.95 3.54t-.95 3.56q-.94 1.2-2.62 1.2m0-1.27q.67 0 1.12-.38.46-.4.68-1.16.24-.79.24-1.95t-.24-1.93q-.22-.79-.68-1.16-.45-.4-1.12-.4t-1.14.4q-.44.37-.67 1.16-.22.77-.22 1.93t.22 1.95q.23.77.67 1.16.47.38 1.14.38m8.45-8.24q.94 0 1.63.31.7.3 1.07.84t.38 1.32q0 .71-.35 1.26-.33.53-1 .81v.01q.8.3 1.27.89.47.57.47 1.42 0 .83-.43 1.42-.42.59-1.2.9-.77.33-1.84.33-1.06 0-1.85-.32-.77-.32-1.2-.91t-.43-1.42q0-.84.46-1.42t1.29-.89v-.01a2.2 2.2 0 0 1-1-.8q-.36-.54-.36-1.27 0-.77.38-1.32t1.07-.84 1.64-.3m0 1.25q-.74 0-1.19.37-.43.36-.43 1t.45.99 1.17.35 1.16-.35q.45-.37.45-1t-.43-1-1.18-.36m0 6.99q.62 0 1.05-.18t.67-.53.24-.82q0-.49-.25-.82a1.5 1.5 0 0 0-.67-.53q-.44-.19-1.04-.19-.59 0-1.03.19a1.6 1.6 0 0 0-.7.53q-.24.33-.24.82 0 .47.24.82t.68.53 1.05.18m8.45 1.26q-1.67 0-2.62-1.2-.94-1.22-.94-3.56t.94-3.54q.95-1.22 2.62-1.22t2.61 1.22q.96 1.2.96 3.54t-.96 3.56q-.93 1.2-2.61 1.2m0-1.27q.67 0 1.12-.38.46-.4.68-1.16.24-.79.24-1.95t-.24-1.93q-.22-.79-.68-1.16-.45-.4-1.12-.4t-1.14.4q-.45.37-.67 1.16-.22.77-.22 1.93t.22 1.95q.22.77.67 1.16t1.14.38m8.5 1.27q-1.66 0-2.61-1.2-.94-1.22-.94-3.56t.94-3.54q.95-1.22 2.62-1.22t2.62 1.22q.95 1.2.95 3.54t-.95 3.56q-.94 1.2-2.62 1.2m0-1.27q.67 0 1.12-.38.46-.4.68-1.16.24-.79.24-1.95t-.24-1.93q-.22-.79-.68-1.16-.45-.4-1.12-.4t-1.14.4q-.44.37-.67 1.16-.22.77-.22 1.93t.22 1.95q.22.77.67 1.16.47.38 1.14.38"/><path fill="#6a717d" d="M17 212.73v1.05h-3.2v8.19h-1.12v-8.2H9.45v-1.04zm2.85 9.38q-1 0-1.78-.44a3 3 0 0 1-1.2-1.24q-.43-.83-.43-1.96t.43-1.95 1.19-1.26 1.72-.43 1.67.42 1.06 1.15q.37.71.37 1.6 0 .24-.02.44-.01.2-.04.35h-5.66v-1h5.17l-.57.12q0-1-.56-1.56-.55-.54-1.45-.54-.68 0-1.19.32-.49.3-.77.91-.26.59-.26 1.43 0 .82.28 1.43.28.6.78.92.52.3 1.23.3.77 0 1.25-.29.49-.29.78-.8l.89.52a3 3 0 0 1-.69.83 3 3 0 0 1-.97.55 4 4 0 0 1-1.23.18m8.96-4.66q0-.79-.42-1.2-.42-.44-1.19-.44-.72 0-1.23.32-.5.3-.74 1l-.91-.55q.28-.79 1.04-1.26.75-.5 1.87-.5.76 0 1.37.27.62.26.97.79.36.52.36 1.34v3.4q0 .5.54.5.26 0 .51-.08l-.05.89q-.28.14-.73.14-.4 0-.73-.16a1 1 0 0 1-.5-.46q-.18-.32-.18-.8v-.14l.28.04a2 2 0 0 1-.58.9q-.4.34-.9.5a3 3 0 0 1-1 .16q-.62 0-1.15-.21t-.85-.63q-.31-.44-.31-1.07 0-.78.52-1.28.53-.52 1.47-.7l2.77-.55v.92l-2.26.47q-.68.14-1.02.39a.8.8 0 0 0-.33.7 1 1 0 0 0 .33.71q.35.27.98.27.4 0 .77-.1a2 2 0 0 0 .67-.32q.3-.23.47-.55t.16-.78zm3.57 4.52v-7h.98l.07 1.1q.37-.65.98-.95t1.26-.3q.74 0 1.4.34a2.3 2.3 0 0 1 1 1.04q.23-.48.63-.77t.89-.45.92-.15q.67 0 1.27.28.62.28 1.01.87t.4 1.5v4.49h-1.13v-4.37q0-.95-.47-1.37t-1.18-.42q-.54 0-1.02.26a2 2 0 0 0-.77.79q-.28.52-.28 1.27v3.84h-1.12v-4.37q0-.95-.48-1.37t-1.17-.42q-.46 0-.95.25-.48.24-.8.77t-.32 1.4v3.74z"/><path fill="#232323" d="M13.93 230.73q1 0 1.7.35.73.35 1.14 1t.4 1.55-.4 1.55-1.13 1-1.71.35h-2.06v3.44h-1.5v-9.24zm-.24 4.5q1 0 1.46-.4.47-.42.47-1.2 0-.8-.47-1.2-.47-.43-1.46-.43h-1.82v3.24zm4.97 4.74v-7h1.27l.14 1.26q.28-.69.83-1.04.56-.36 1.37-.36.21 0 .42.04.21.03.35.1l-.2 1.32-.36-.09a2 2 0 0 0-.5-.04q-.44 0-.86.24-.42.22-.7.68-.26.47-.26 1.18v3.7zm8.38-7.14q1.02 0 1.8.43a3 3 0 0 1 1.22 1.26q.45.82.45 1.95t-.45 1.96a3 3 0 0 1-1.22 1.25q-.78.43-1.8.43-1.03 0-1.8-.43a3 3 0 0 1-1.24-1.25q-.45-.83-.45-1.96t.45-1.95 1.23-1.26 1.8-.43m0 1.18q-.62 0-1.07.29-.44.28-.67.83t-.24 1.34.24 1.34a2 2 0 0 0 .67.84q.44.28 1.08.28.63 0 1.06-.28a2 2 0 0 0 .67-.84q.24-.56.24-1.34 0-.8-.24-1.34-.24-.55-.67-.83-.44-.3-1.06-.3m7.76 6.1a3 3 0 0 1-1.58-.42q-.7-.44-1.1-1.25t-.41-1.95q0-1.17.43-1.98t1.16-1.24a3 3 0 0 1 1.6-.43q.9 0 1.51.49.62.49.83 1.27l-.17.16v-4.93h1.5v10.15h-1.33l-.12-1.9h.2q-.1.64-.46 1.1a2.5 2.5 0 0 1-.91.7 3 3 0 0 1-1.15.24m.32-1.2q.6 0 1.04-.31a2 2 0 0 0 .67-.87q.24-.56.24-1.34 0-.73-.24-1.25a2 2 0 0 0-.67-.81 1.7 1.7 0 0 0-.98-.28q-.94 0-1.46.64t-.52 1.78.5 1.8q.51.64 1.42.64m7.98 1.2a3 3 0 0 1-1.27-.25 2 2 0 0 1-.93-.81q-.35-.56-.35-1.46v-4.62h1.5v4.24q0 .95.4 1.32.41.35 1.14.35.35 0 .67-.11.34-.13.6-.38.27-.27.41-.67.15-.41.15-.96v-3.8h1.5v7h-1.31l-.07-1.12q-.37.65-.98.96-.62.3-1.46.3m8.9-7.27q.85 0 1.43.25.6.24 1.01.69.4.44.62 1.02l-1.42.56q-.18-.64-.58-.98-.4-.35-1.04-.35-.63 0-1.08.3a2 2 0 0 0-.68.82q-.23.55-.23 1.34t.24 1.33.69.83 1.06.28q.48 0 .83-.15.35-.17.57-.47.24-.3.32-.74l1.36.46a3 3 0 0 1-.62 1.1 3 3 0 0 1-1.02.74q-.61.25-1.41.25-1.04 0-1.84-.43a3 3 0 0 1-1.24-1.25q-.44-.83-.44-1.96t.44-1.95q.45-.82 1.23-1.26.8-.43 1.8-.43m6.6-1.92v6.96q0 .52.27.76.28.23.75.23.37 0 .65-.1.28-.13.52-.34l.34 1.09a3 3 0 0 1-.8.45 3 3 0 0 1-1.04.15 3 3 0 0 1-1.1-.2 1.6 1.6 0 0 1-.79-.63q-.28-.44-.29-1.16v-6.79zm2.42 2.06v1.18h-5.25v-1.18zm8.94-2.24q2.17 0 3.38 1.2t1.21 3.42-1.21 3.43q-1.2 1.19-3.38 1.19H66.7v-9.24zm0 7.97q1.47 0 2.24-.87.79-.88.79-2.48t-.79-2.46q-.77-.89-2.24-.89H68.2v6.7zm9.4 1.4q-1.04 0-1.84-.42a3 3 0 0 1-1.25-1.25q-.43-.83-.43-1.96t.43-1.95q.45-.82 1.23-1.26.79-.43 1.78-.43 1.02 0 1.74.42.71.42 1.1 1.15.37.73.37 1.65 0 .25-.02.48-.01.22-.04.39H76.8v-1.15h4.97l-.74.22q0-.95-.47-1.45-.48-.52-1.3-.52-.6 0-1.06.28-.44.28-.68.84t-.24 1.34.25 1.33.72.83 1.09.28q.7 0 1.13-.27a2 2 0 0 0 .69-.74l1.19.56q-.25.5-.69.88-.42.37-1 .56a4 4 0 0 1-1.3.2m7.4 0q-1.05 0-1.92-.4a3.3 3.3 0 0 1-1.37-1.15l1.04-.9q.3.57.88.92.59.34 1.4.34.64 0 1.02-.22.38-.23.38-.63a.7.7 0 0 0-.18-.47q-.17-.2-.66-.32l-1.47-.3q-1.12-.23-1.6-.72-.47-.5-.47-1.27 0-.58.33-1.07.34-.49.98-.78.66-.31 1.57-.31 1.05 0 1.8.38a2.6 2.6 0 0 1 1.13 1.05l-1.04.87a1.7 1.7 0 0 0-.78-.83 2 2 0 0 0-1.08-.28q-.45 0-.77.11a1 1 0 0 0-.5.3.7.7 0 0 0-.16.47q0 .28.21.5t.76.31l1.6.34q1 .2 1.4.67.43.46.43 1.14t-.35 1.19q-.35.5-1.01.78t-1.57.28m5.23-8.32q-.5 0-.76-.23-.25-.26-.25-.7 0-.45.25-.7.27-.23.76-.23.47 0 .72.24.27.24.27.69t-.27.7q-.25.23-.72.23m.74 1.18v7h-1.5v-7zm8.22-1.47.24 1.18h-.08l-.09-.02q-.67 0-1.02.3-.35.28-.35.82l-.73-.33q0-.56.24-1 .24-.45.67-.7a2 2 0 0 1 1.01-.25zm-2.21 7.38q1.06 0 1.65.47t.59 1.3q0 .72-.46 1.24-.46.53-1.26.8-.79.29-1.8.29-1.73 0-2.56-.53-.82-.53-.82-1.33 0-.56.39-.98.4-.42 1.36-.48l-.09.23q-.58-.13-.95-.45-.35-.34-.35-.94t.46-1.02 1.3-.5l.79.39h-.17q-.64.05-.9.29-.27.24-.27.53 0 .35.25.52.26.17.74.17zm-1.29 2.98q.77 0 1.26-.15.5-.15.74-.38.26-.23.26-.5a.6.6 0 0 0-.27-.52q-.25-.2-.92-.2h-2.26q-.39 0-.66.2a.7.7 0 0 0-.26.56q0 .46.56.72t1.55.27m-.05-9.03q.92 0 1.6.3.68.29 1.04.82.38.53.38 1.25 0 .7-.38 1.24-.36.53-1.05.83-.67.3-1.6.3-1.45 0-2.23-.65-.77-.66-.77-1.72 0-.72.37-1.25t1.05-.83q.69-.3 1.59-.3m0 1.06q-.65 0-1.08.36-.42.35-.42.96t.42.96q.43.36 1.08.37.65 0 1.07-.37.44-.36.44-.96t-.44-.96q-.42-.36-1.07-.36m4.67 6.09v-7h1.33l.1 1.82-.2-.2q.2-.6.56-1 .38-.4.89-.58a3 3 0 0 1 1.09-.18q.74 0 1.33.3.6.27.95.85.35.57.35 1.45v4.54h-1.5v-4.07q0-1.04-.43-1.43-.42-.4-1.07-.4-.46 0-.9.22-.43.2-.72.68t-.28 1.28v3.72z"/><path fill="#6a717d" d="M225.48 208q1.22 0 2.1.5.88.49 1.47 1.45l-.94.73q-.52-.9-1.17-1.26-.65-.37-1.57-.37-.74 0-1.23.2-.48.22-.7.57a1.4 1.4 0 0 0-.23.77q0 .49.31.86.3.37 1.23.58l2 .45q1.33.29 1.85.9.53.58.53 1.46 0 .79-.44 1.4t-1.24.94-1.87.34q-1.01 0-1.78-.27a4 4 0 0 1-1.3-.74 4 4 0 0 1-.9-1.04l.98-.8q.27.54.69.94t1 .63 1.38.23q.71 0 1.23-.17.53-.18.81-.52a1.3 1.3 0 0 0 .28-.84q0-.45-.3-.8-.29-.36-1.1-.54l-2.17-.5q-.85-.2-1.38-.53-.52-.35-.76-.8a2.4 2.4 0 0 1-.22-1.03q0-.74.4-1.36.42-.63 1.2-1 .78-.39 1.84-.39m7.16.4v7.05q0 .52.3.77t.75.26q.4 0 .7-.14t.54-.38l.39.94q-.33.29-.77.46t-1.01.17q-.53 0-1-.19a1.7 1.7 0 0 1-.74-.6q-.26-.42-.28-1.1v-6.93zm2.55 1.99v.96h-5.07v-.96zm5.47 2.47q0-.78-.42-1.2-.42-.44-1.19-.44-.72 0-1.23.33-.5.3-.74 1l-.91-.55q.28-.79 1.04-1.26.75-.5 1.87-.5.76 0 1.37.27.62.25.97.79.36.51.36 1.34v3.39q0 .5.54.5.26 0 .51-.07l-.05.88q-.28.14-.73.14-.4 0-.73-.15a1 1 0 0 1-.5-.46q-.18-.33-.18-.8v-.14l.28.04a2 2 0 0 1-.58.9 3 3 0 0 1-.9.5 3 3 0 0 1-1 .15q-.62 0-1.15-.2a2 2 0 0 1-.85-.64q-.31-.43-.31-1.06 0-.78.52-1.29.53-.52 1.47-.7l2.77-.54v.92l-2.26.46q-.68.14-1.02.4a.8.8 0 0 0-.33.7 1 1 0 0 0 .33.7q.35.27.98.27.4 0 .77-.1a2 2 0 0 0 .67-.32q.3-.22.47-.54.16-.34.16-.79zm4.94-4.46v7.05q0 .52.3.77t.75.26q.41 0 .7-.14t.54-.38l.39.94q-.32.29-.77.46a3 3 0 0 1-1.01.17q-.53 0-1-.19a1.7 1.7 0 0 1-.74-.6q-.26-.42-.28-1.1v-6.93zm2.55 1.99v.96h-5.07v-.96zm3.92 7.14q-.67 0-1.27-.26a2 2 0 0 1-.97-.8q-.36-.58-.36-1.5v-4.59h1.12v4.3q0 1.07.46 1.47t1.3.4q.4 0 .77-.13.38-.14.67-.42.31-.3.48-.74.18-.45.18-1.07v-3.8h1.12v7h-.98l-.07-1.07q-.36.63-1 .92-.6.28-1.45.28m8.35 0a4 4 0 0 1-1.9-.43 3 3 0 0 1-1.3-1.23l.94-.69q.31.65.9 1.01.6.37 1.44.37.74 0 1.16-.28.42-.3.42-.76a1 1 0 0 0-.2-.53q-.17-.26-.7-.37l-1.69-.35q-1.02-.2-1.47-.7-.43-.49-.43-1.22 0-.57.32-1.05.34-.47.94-.75.62-.3 1.44-.3 1.04 0 1.75.41t1.07 1.15l-.94.61q-.24-.61-.77-.9a2 2 0 0 0-1.1-.28q-.51 0-.88.14a1.3 1.3 0 0 0-.54.39 1 1 0 0 0-.18.54q0 .31.2.58.22.25.79.36l1.75.37q.98.2 1.37.64t.4 1.1-.36 1.15q-.35.5-.98.76t-1.45.27"/><g style="mix-blend-mode:multiply"><rect width="66.744" height="25.186" x="221" y="222.375" fill="#ecfdf3" filter="url(#homeRectDropShadow)" rx="12.593"/><path fill="#027a48" d="M243.5 238.97h-1.42l-.8-2.18h-3.48l-.8 2.18h-1.38l3.13-8.3h1.61zm-5.32-3.27h2.73l-1.36-3.87zm9.18-3.15q.76 0 1.28.23.54.21.9.62.37.4.56.92l-1.27.5q-.16-.58-.53-.88-.35-.32-.93-.32-.56 0-.97.27a1.6 1.6 0 0 0-.61.74q-.2.5-.2 1.2 0 .71.21 1.2.21.5.62.74.4.26.95.26.43 0 .75-.14.31-.15.51-.42a1.5 1.5 0 0 0 .29-.66l1.22.41a3 3 0 0 1-.55 1 2.5 2.5 0 0 1-.92.65 3 3 0 0 1-1.27.22q-.93 0-1.65-.39a3 3 0 0 1-1.12-1.12q-.39-.74-.39-1.76t.4-1.74a3 3 0 0 1 1.1-1.14 3.3 3.3 0 0 1 1.62-.39m6.18-1.72v6.25q0 .47.24.68.25.22.67.22.34 0 .59-.1.25-.12.46-.3l.3.97a2 2 0 0 1-.71.4 3 3 0 0 1-.93.15q-.54 0-1-.18a1.4 1.4 0 0 1-.7-.57q-.25-.4-.26-1.04v-6.1zm2.17 1.85v1.06h-4.72v-1.06zm2-1.06q-.43 0-.67-.2-.23-.24-.23-.64t.23-.61.68-.22q.42 0 .65.22.24.21.24.61t-.24.63q-.23.21-.65.21m.66 1.06v6.29h-1.34v-6.29zm6.24 0h1.41l-2.5 6.29h-1.47l-2.52-6.29h1.48l1.78 5.12zm5.29 6.41q-.94 0-1.66-.39a3 3 0 0 1-1.12-1.12q-.39-.74-.39-1.76t.39-1.74a3 3 0 0 1 1.1-1.14q.71-.39 1.6-.39.92 0 1.56.38t.99 1.03q.33.66.33 1.49v.43l-.05.35h-5.05v-1.03h4.46l-.66.2q0-.86-.43-1.31-.43-.47-1.17-.47-.54 0-.94.26-.4.25-.62.75t-.21 1.2.22 1.2.64.74.99.26q.62 0 1.01-.24.4-.24.62-.67l1.07.5a3 3 0 0 1-.62.8 3 3 0 0 1-.9.5 4 4 0 0 1-1.16.17"/></g><line x1="11.629" x2="327.242" y1="139.877" y2="139.877" stroke="#f5f6f7"/><g filter="url(#filter0_dddd_6028_34994)"><g filter="url(#filter1_d_6028_34994)"><rect width="206" height="34.731" x="67.992" y="258.631" fill="#0266f3" rx="5.91"/><rect width="205.261" height="33.992" x="68.362" y="259" stroke="#0266f3" stroke-width=".739" rx="5.541"/><path fill="#fff" d="m143.75 272.7-2.84 7.8h-1.9l-2.85-7.8h1.72l1.65 4.96.45 1.54.43-1.53 1.66-4.98zm1.83 1.04q-.51 0-.76-.22t-.25-.65.25-.65.76-.22.75.22q.25.21.25.65 0 .43-.25.65-.24.22-.75.22m.8.85v5.9h-1.62v-5.9zm4.46 6.02q-.93 0-1.63-.36a2.6 2.6 0 0 1-1.06-1.05q-.38-.69-.38-1.66t.38-1.65a2.6 2.6 0 0 1 1.05-1.06q.68-.36 1.56-.36.9 0 1.52.36.63.36.96.99.33.61.33 1.4l-.01.45-.04.38h-4.71v-1.12h4l-.78.28q0-.74-.34-1.15-.33-.4-.94-.4-.45 0-.78.21-.32.22-.49.64t-.16 1.06q0 .62.17 1.04.2.4.52.6.35.2.82.2.52 0 .84-.2t.5-.56l1.28.5a2 2 0 0 1-.58.8q-.37.32-.9.5-.53.16-1.13.16m11.57-6.02h1.72l-1.89 5.9h-1.87l-1.28-4.01-1.25 4.02h-1.86l-1.9-5.91h1.73l1.18 4.52 1.32-4.52h1.6l1.33 4.52zm9.53-1.9q.9 0 1.53.31.64.3.98.87.36.55.36 1.34t-.36 1.36-.98.87-1.53.29h-1.65v2.77h-1.63v-7.8zm-.25 3.75q.73 0 1.1-.3.36-.32.36-.93t-.36-.92-1.1-.3h-1.4v2.45zm4.45 4.06v-5.91h1.4l.11 1.15q.24-.61.69-.94.46-.33 1.14-.33.2 0 .37.03a1 1 0 0 1 .27.1l-.19 1.36-.3-.07-.43-.03q-.35 0-.69.18t-.54.52-.21.88v3.06zm7.56-6.03q.9 0 1.58.36a2.6 2.6 0 0 1 1.06 1.06q.39.68.39 1.65t-.39 1.66a2.6 2.6 0 0 1-1.06 1.05q-.68.36-1.58.36-.88 0-1.57-.36a2.7 2.7 0 0 1-1.07-1.05q-.38-.7-.38-1.66 0-.97.38-1.65.39-.69 1.07-1.06.69-.36 1.57-.36m0 1.2q-.44 0-.76.22-.31.2-.48.61t-.16 1.04.16 1.04.48.63q.32.2.76.2t.75-.2.48-.63q.17-.41.17-1.04t-.17-1.04-.48-.61a1.3 1.3 0 0 0-.75-.22m6.96-3.8q.42 0 .75.1.34.09.5.22l-.22 1.07a1 1 0 0 0-.3-.13 1 1 0 0 0-.38-.04q-.46 0-.74.2t-.27.7v.82l.07.32v5.37h-1.62v-6.62q0-.5.17-.88a2 2 0 0 1 .46-.62q.3-.25.7-.37.41-.13.88-.13m1.2 2.7v1.21h-4.43v-1.2zm1.8-.84q-.51 0-.76-.22t-.25-.65.25-.65.75-.22.76.22q.25.21.25.65 0 .43-.25.65t-.76.22m.8.85v5.9h-1.61v-5.9zm3.32-2.6v6.69q0 .41.15.58t.47.16q.2 0 .33-.02l.33-.1-.14 1.07a2 2 0 0 1-.51.17 3 3 0 0 1-.6.07q-.85 0-1.26-.4-.39-.43-.39-1.36V272zm4.93 8.62q-.94 0-1.64-.36a2.6 2.6 0 0 1-1.06-1.05q-.38-.69-.38-1.66t.38-1.65a2.6 2.6 0 0 1 1.05-1.06q.69-.36 1.56-.36.9 0 1.53.36.62.36.95.99.34.61.34 1.4 0 .24-.02.45l-.03.38h-4.72v-1.12h4l-.77.28q0-.74-.34-1.15-.33-.4-.95-.4-.45 0-.78.21a1.3 1.3 0 0 0-.48.64q-.17.42-.17 1.06 0 .62.18 1.04.19.4.52.6.34.2.81.2.52 0 .84-.2a1.4 1.4 0 0 0 .5-.56l1.29.5a2 2 0 0 1-.58.8q-.38.32-.91.5a4 4 0 0 1-1.12.16"/></g></g><rect width="340.988" height="236" x=".5" y="76.5" stroke="#d5d9e0" rx="13.5"/></g></svg>