<svg xmlns="http://www.w3.org/2000/svg" fill="none" class="svg" viewBox="0 0 342 313"><g class="rec-one"><rect width="341" height="175" x=".5" y=".5" fill="#fff" rx="13.5"/><rect width="341" height="175" x=".5" y=".5" stroke="#d5d9e0" rx="13.5"/><rect width="36.852" height="36.852" x="16" y="24.074" fill="#d3d3d3" rx="18.426"/><path fill="#232323" d="M67.55 26.44q1.73 0 2.99.74t1.94 2.1.68 3.28-.68 3.28-1.94 2.1-3 .74q-1.7 0-2.96-.74t-1.95-2.1-.68-3.28.68-3.28 1.95-2.1 2.97-.74m0 1.67q-1.12 0-1.93.53-.79.52-1.22 1.5t-.43 2.42q0 1.4.43 2.41.43 1 1.22 1.51.81.53 1.93.53 1.13 0 1.92-.53.81-.52 1.25-1.5.43-1.02.43-2.42 0-1.42-.43-2.41t-1.25-1.51q-.79-.53-1.92-.53m10.08-2.66v10.53q0 .67.23.92t.78.25q.32 0 .54-.04.23-.05.57-.18l-.21 1.44a3 3 0 0 1-.7.22q-.4.09-.8.09-1.2 0-1.78-.61-.56-.63-.56-1.93V25.45zm4.7 2.54q-.62 0-.97-.3-.32-.33-.32-.9t.32-.89q.35-.3.98-.3.6 0 .93.3.35.3.35.88t-.35.9q-.32.3-.93.3m.95 1.52v9h-1.93v-9zm8.94 0h2.01l-3.58 9h-2.1l-3.6-9h2.1l2.56 7.33zm4.63-1.51q-.63 0-.98-.3-.32-.33-.32-.9t.32-.89q.35-.3.98-.3.6 0 .93.3t.34.88-.34.9q-.32.3-.93.3m.95 1.52v9h-1.93v-9zm8.22 3.22q0-.9-.5-1.38-.5-.5-1.36-.5-.8 0-1.38.37t-.85 1.22l-1.62-.68q.34-1.1 1.33-1.76 1.01-.67 2.6-.67 1.07 0 1.9.36.83.34 1.3 1.04t.48 1.8v4.02q0 .66.67.66.32 0 .63-.09l-.1 1.34q-.42.2-1.05.2-.58 0-1.05-.2-.45-.22-.72-.63-.25-.44-.25-1.07v-.12l.4-.02q-.16.7-.67 1.17-.5.45-1.17.68a4 4 0 0 1-1.35.22q-.84 0-1.53-.27a2.4 2.4 0 0 1-1.06-.81q-.38-.56-.38-1.37 0-1 .65-1.65.67-.65 1.87-.89l3.5-.68-.02 1.35-2.54.52q-.76.15-1.14.42t-.37.79a1 1 0 0 0 .37.8q.4.3 1.05.3.45 0 .86-.11a2 2 0 0 0 .78-.34q.34-.26.52-.63a2 2 0 0 0 .2-.94zm15.67-6.1q1.91 0 3.03.95 1.13.96 1.13 2.58 0 1.67-1.13 2.59-1.12.9-3.03.9l-.18.1h-2.75v4.76h-1.9V26.62zm-.14 5.53q1.17 0 1.73-.47.57-.49.57-1.48 0-.97-.57-1.46-.56-.48-1.73-.48h-2.79v3.89zm1.13.4 3.87 5.95h-2.21l-3.31-5.2zm5.92 5.95V25.45h1.93v5.49q.45-.85 1.2-1.22a4 4 0 0 1 1.72-.4q.95 0 1.7.38.78.36 1.23 1.1t.45 1.87v5.83h-1.93v-5.22q0-1.33-.55-1.85-.54-.53-1.37-.53-.58 0-1.15.3-.56.26-.94.9-.36.6-.36 1.65v4.75zm18.77-9-3.94 10.06q-.4 1.05-.87 1.66-.45.61-1.04.88t-1.39.27q-.64 0-1.2-.18a3 3 0 0 1-.96-.45l.47-1.5q.34.3.72.44.4.14.85.14.48 0 .86-.27.4-.25.7-1.02l.4-.98-.95-2.23-2.81-6.82h2.16l2 5.65.52 1.7.6-1.86 1.88-5.49zm5.55 9.18q-1.35 0-2.38-.56a4 4 0 0 1-1.6-1.6q-.56-1.06-.56-2.52t.56-2.5a4 4 0 0 1 1.59-1.62q1-.56 2.28-.56 1.32 0 2.23.54t1.4 1.48.5 2.12q0 .32-.02.61t-.06.5h-7.23V33.1h6.39l-.96.29q0-1.23-.6-1.87-.62-.67-1.68-.67-.78 0-1.35.36t-.89 1.08q-.3.7-.3 1.73 0 1 .32 1.7t.92 1.07 1.4.36q.9 0 1.46-.34a2.4 2.4 0 0 0 .88-.96l1.53.72q-.32.65-.88 1.14-.54.47-1.3.72a5 5 0 0 1-1.65.25"/><path fill="#6a717d" d="M65.86 51.26q1.42 0 2.27.73.86.72.86 1.97t-.87 1.95q-.86.68-2.27.68l-.1.07h-2.27v3.84h-1.12v-9.24zm-.01 4.35q1 0 1.47-.4.49-.42.49-1.25 0-.82-.49-1.23-.48-.42-1.47-.42h-2.37v3.3zm.64.23 3.06 4.66h-1.33l-2.66-4.05zm7.67 4.8q-1 0-1.78-.43a3 3 0 0 1-1.2-1.25q-.44-.83-.44-1.96t.44-1.95 1.19-1.26 1.72-.43q.98 0 1.66.42.7.42 1.07 1.15.36.71.36 1.6l-.01.44-.04.35h-5.66v-1h5.17l-.58.12q0-1-.56-1.55-.54-.55-1.44-.55-.69 0-1.19.32-.49.31-.77.91-.27.59-.27 1.43 0 .83.28 1.43t.79.92 1.23.31q.77 0 1.25-.3.49-.29.78-.8l.88.53a3 3 0 0 1-.68.82 3 3 0 0 1-.97.55 4 4 0 0 1-1.23.18m5.15-.14v-7h.98l.07 1.1q.38-.65.98-.95.62-.29 1.26-.29.74 0 1.4.34.66.33 1.01 1.03.23-.47.63-.77t.88-.45q.5-.15.93-.15.67 0 1.27.28.62.28 1 .87.4.59.4 1.51v4.48H89v-4.37q0-.95-.48-1.37-.47-.42-1.17-.42-.55 0-1.02.27a2 2 0 0 0-.77.78q-.28.52-.28 1.27v3.84h-1.12v-4.37q0-.95-.48-1.37t-1.18-.42q-.46 0-.95.25-.48.24-.8.77t-.32 1.4v3.74zm16.24-7.14q1 0 1.75.43.77.44 1.2 1.26.44.82.44 1.95t-.43 1.96a3 3 0 0 1-1.2 1.25q-.76.43-1.76.43-.98 0-1.75-.43a3 3 0 0 1-1.2-1.25q-.43-.82-.43-1.96 0-1.13.43-1.95t1.2-1.26 1.75-.43m0 .97q-.71 0-1.22.32a2 2 0 0 0-.78.92q-.27.59-.27 1.43 0 .83.27 1.43.28.6.78.92.51.32 1.22.32.72 0 1.22-.32t.77-.92.28-1.43q0-.84-.28-1.43a2 2 0 0 0-.77-.92q-.5-.32-1.22-.32m7.03-2.82v7.06q0 .52.3.77t.75.25q.4 0 .7-.14t.53-.38l.4.94q-.33.3-.78.46a3 3 0 0 1-1 .17q-.54 0-1-.18a1.7 1.7 0 0 1-.74-.6q-.27-.42-.28-1.1v-6.94zm2.55 1.99v.97h-5.07v-.97zm4.59 7.14q-1 0-1.78-.43a3 3 0 0 1-1.2-1.25q-.44-.82-.44-1.96 0-1.13.44-1.95.43-.82 1.19-1.26.75-.43 1.72-.43.98 0 1.66.42.7.42 1.07 1.15a3.5 3.5 0 0 1 .36 1.6l-.01.44-.05.35h-5.65v-1h5.16l-.57.12q0-1-.56-1.55-.55-.55-1.44-.55-.69 0-1.2.32-.48.31-.76.91-.27.59-.27 1.43 0 .83.28 1.43t.79.92 1.23.31q.77 0 1.24-.3.5-.29.79-.8l.88.53a3 3 0 0 1-.68.82q-.41.35-.97.55a4 4 0 0 1-1.23.18"/><path fill="#6a717d" d="M24.96 109.13a4 4 0 0 1-.84 1.36 4 4 0 0 1-1.29.86 4 4 0 0 1-1.6.29q-1.31 0-2.28-.57-.95-.6-1.48-1.66-.52-1.06-.52-2.53t.52-2.53q.53-1.07 1.48-1.64.97-.59 2.26-.59.9 0 1.6.25.7.24 1.18.73a3.4 3.4 0 0 1 .8 1.18l-1.1.51q-.31-.8-.9-1.2-.57-.42-1.5-.42t-1.65.45q-.72.43-1.12 1.26-.4.82-.4 2 0 1.16.39 2 .37.83 1.07 1.28.7.43 1.66.43.92 0 1.6-.46.7-.48 1-1.42zm3-7.85v8.44q0 .53.2.74t.63.2q.28 0 .46-.04l.5-.16-.19.98q-.22.1-.49.14-.27.06-.55.06-.85 0-1.27-.46-.4-.46-.4-1.42v-8.48zm6.12 3.08q1 0 1.75.43.77.44 1.2 1.26.44.82.44 1.95t-.44 1.96a3 3 0 0 1-1.2 1.25q-.76.43-1.75.43-.98 0-1.75-.43a3 3 0 0 1-1.2-1.25q-.44-.83-.44-1.96t.43-1.95q.44-.82 1.2-1.26t1.76-.43m0 .97q-.72 0-1.22.32a2 2 0 0 0-.78.92q-.27.59-.27 1.43 0 .83.27 1.43.28.6.78.92t1.22.32 1.22-.32.77-.92.28-1.43q0-.84-.28-1.43a2 2 0 0 0-.77-.92q-.5-.32-1.22-.32m8.4-.97q.72 0 1.27.22.56.23.96.65t.66 1l-1.06.5q-.23-.68-.69-1.03-.45-.36-1.18-.36-.7 0-1.2.32a2 2 0 0 0-.77.91q-.27.59-.27 1.43 0 .83.27 1.43t.77.92 1.2.31q.55 0 .94-.17.4-.17.66-.49.27-.32.36-.78l1.04.36a3 3 0 0 1-.66 1.1 3 3 0 0 1-1 .72 3 3 0 0 1-1.3.24q-.99 0-1.76-.43a3 3 0 0 1-1.2-1.25q-.44-.83-.44-1.96t.44-1.95 1.2-1.26 1.75-.43m11.08.14-3.02 3.02-.27.27-2.3 2.3v-1.4l4.18-4.19zm-5.02-3.22v10.22H47.4v-10.22zm2.1 5.67 3.09 4.55h-1.36l-2.67-3.92zm9.74-3.8a1 1 0 0 1-.62-.22 1 1 0 0 1-.22-.61q0-.38.22-.6a.8.8 0 0 1 .62-.24q.38 0 .6.23.24.23.24.6t-.24.62q-.22.23-.6.23m.56 1.34v7H59.8v-7zm2.6 7v-7h.98l.1 1.57-.19-.16q.23-.56.6-.9.38-.34.87-.5a4 4 0 0 1 1.04-.15q.75 0 1.37.3.62.27.98.86.38.59.38 1.5v4.48h-1.12v-4.09q0-1.16-.5-1.6-.5-.47-1.22-.47-.5 0-1.01.24a2 2 0 0 0-.84.77q-.32.53-.32 1.43v3.72zm9.43-7.14q.4 0 .66.25.25.25.25.66t-.25.66-.66.25-.65-.25-.26-.66.26-.66.65-.25m0 5.46q.4 0 .66.25.25.25.25.66t-.25.66-.66.25-.65-.25-.26-.66.26-.66.65-.25"/><path fill="#232323" d="M92.02 112.16q-1.9 0-2.99-1.38-1.07-1.39-1.07-4.06t1.07-4.05q1.09-1.39 3-1.39t2.99 1.4q1.08 1.37 1.08 4.04t-1.08 4.06q-1.08 1.38-3 1.38m0-1.46q.77 0 1.28-.43.53-.45.79-1.33.27-.9.27-2.22t-.27-2.2q-.26-.9-.79-1.34-.5-.44-1.28-.44t-1.3.44q-.5.44-.76 1.33-.25.88-.26 2.21 0 1.33.26 2.22.26.88.77 1.33.53.43 1.3.43m9.98-9.4q1.07 0 1.85.35.8.33 1.24.96t.43 1.5q0 .82-.4 1.44-.39.61-1.14.93v.02q.91.33 1.44 1 .54.66.54 1.64 0 .94-.5 1.61-.47.67-1.37 1.04-.88.37-2.1.37t-2.1-.37-1.38-1.04-.5-1.61q0-.96.53-1.64t1.47-1v-.02a2.5 2.5 0 0 1-1.13-.91q-.42-.63-.42-1.46 0-.88.43-1.5.43-.63 1.24-.96.8-.35 1.87-.35m0 1.44q-.85 0-1.36.41-.5.42-.5 1.14t.51 1.13 1.35.4 1.33-.4.5-1.13-.49-1.14-1.34-.41m0 7.98q.7 0 1.2-.2t.77-.62.27-.92q0-.56-.3-.95a1.7 1.7 0 0 0-.76-.6q-.5-.21-1.18-.21a3 3 0 0 0-1.19.2 2 2 0 0 0-.8.61q-.27.39-.27.95 0 .52.27.92t.79.61 1.2.21m7.33-6.88q.54 0 .86.32.34.3.34.83t-.34.85q-.32.32-.86.32-.56 0-.9-.32-.32-.32-.32-.85t.32-.83q.34-.32.9-.32m0 6q.54 0 .86.32.34.3.34.83t-.34.85q-.32.32-.86.32-.56 0-.9-.32-.32-.32-.32-.85t.32-.83q.34-.32.9-.32m8.24 2.16v-2.64h-5.16v-1.17q.03-.08.1-.19l.18-.26 4.4-6.3h2.1v6.6h1.78v1.32h-1.79V112zm-3.56-3.97h3.56v-3.73l.01-.78.05-.82h-.03a8 8 0 0 1-.47.85q-.27.45-.5.79l-2.5 3.55-.07.06zm12.24 4.13q-1.4 0-2.32-.6-.9-.62-1.42-1.77l1.6-.83q.24.77.72 1.26.5.48 1.46.48.67 0 1.13-.24.48-.25.74-.7.25-.46.25-1.1 0-.68-.24-1.12a1.6 1.6 0 0 0-.68-.68q-.45-.24-1.12-.24a4 4 0 0 0-.87.1 2 2 0 0 0-.72.3q-.32.2-.56.52l-1.4-.28.63-5.82h6.15v1.47h-4.79l-.38 2.98-.03.17h.03q.37-.4.94-.62.6-.22 1.4-.22 1.02 0 1.76.43.73.41 1.15 1.17.41.75.41 1.74 0 .86-.28 1.54a3 3 0 0 1-.82 1.13 4 4 0 0 1-1.23.7q-.69.23-1.5.23m19.7-.16h-1.8l-1-2.77h-4.44l-1 2.77h-1.77l3.99-10.56h2.04zm-6.76-4.16h3.47l-1.73-4.93zm19.44-6.4V112h-1.59v-6.11l.13-2.91h-.01l-3.22 9.02h-1.42l-3.22-9.02h-.01l.12 2.9V112h-1.58v-10.56h2.54l2.13 6.11.74 2.51h.03l.75-2.5 2.11-6.12z"/><path fill="#6a717d" d="M189.96 107.63a4 4 0 0 1-.84 1.36 4 4 0 0 1-1.29.86 4 4 0 0 1-1.6.29q-1.31 0-2.28-.57-.95-.6-1.48-1.66-.52-1.06-.52-2.53t.52-2.53 1.48-1.64q.97-.59 2.26-.59.9 0 1.6.25.7.24 1.18.73a3.4 3.4 0 0 1 .8 1.18l-1.1.51q-.31-.8-.9-1.2-.57-.42-1.5-.42t-1.65.45q-.71.43-1.12 1.26-.4.82-.4 2 0 1.16.39 2 .37.83 1.07 1.28.7.43 1.66.43.92 0 1.6-.46.7-.48 1-1.42zm3-7.85v8.44q0 .53.2.74t.63.2q.28 0 .46-.04l.5-.16-.19.98a2 2 0 0 1-.49.14q-.27.06-.55.06-.85 0-1.27-.46-.4-.46-.4-1.42v-8.48zm6.12 3.08q1 0 1.75.43.77.44 1.2 1.26.44.82.44 1.95t-.44 1.96a3 3 0 0 1-1.2 1.25q-.76.43-1.75.43-.98 0-1.75-.43a3 3 0 0 1-1.2-1.25q-.44-.83-.44-1.96t.43-1.95a3 3 0 0 1 1.2-1.26q.78-.43 1.76-.43m0 .97q-.72 0-1.22.32a2 2 0 0 0-.79.92q-.26.59-.26 1.43 0 .83.27 1.43.28.6.78.92t1.22.32 1.21-.32.77-.92.28-1.43q0-.84-.28-1.43a2 2 0 0 0-.77-.92q-.5-.32-1.21-.32m8.4-.97q.72 0 1.27.22.56.23.96.65t.66 1l-1.07.5q-.22-.68-.68-1.03-.45-.36-1.18-.36-.7 0-1.2.32-.5.31-.77.91-.27.59-.27 1.43 0 .83.27 1.43t.77.92 1.2.31q.55 0 .94-.17.4-.17.66-.49.27-.32.36-.78l1.04.36a3 3 0 0 1-.66 1.1q-.4.47-1 .72a3 3 0 0 1-1.3.24q-.99 0-1.76-.43a3 3 0 0 1-1.2-1.25q-.44-.83-.44-1.96t.44-1.95 1.2-1.26q.77-.43 1.75-.43m11.08.14-3.02 3.02-.27.27-2.3 2.3v-1.4l4.18-4.19zm-5.02-3.22V110h-1.12V99.78zm2.1 5.67 3.1 4.55h-1.37l-2.67-3.92zm9.74-3.8a1 1 0 0 1-.62-.22 1 1 0 0 1-.22-.61q0-.38.22-.6a.8.8 0 0 1 .62-.24q.38 0 .6.23.24.23.24.6a.8.8 0 0 1-.24.62q-.22.23-.6.23m.56 1.34v7h-1.12v-7zm2.6 7v-7h.98l.1 1.57-.19-.16a2.3 2.3 0 0 1 1.47-1.4 4 4 0 0 1 1.04-.15q.75 0 1.37.3.62.27.98.86.38.59.38 1.5V110h-1.12v-4.09q0-1.16-.5-1.6-.5-.47-1.22-.47-.5 0-1.01.24a2 2 0 0 0-.84.77q-.32.53-.32 1.43V110zm9.43-7.14q.41 0 .66.25t.25.66-.25.66-.66.25-.65-.25-.26-.66.26-.66.65-.25m0 5.46q.41 0 .66.25t.25.66-.25.66-.66.25-.65-.25-.26-.66.26-.66.65-.25"/><path fill="#232323" d="M257.02 110.66q-1.9 0-2.99-1.38-1.07-1.39-1.07-4.06t1.07-4.05q1.09-1.39 3-1.39t2.99 1.4q1.08 1.37 1.08 4.04t-1.08 4.06q-1.08 1.38-3 1.38m0-1.46q.77 0 1.28-.43.53-.45.79-1.33.27-.9.27-2.22t-.27-2.2q-.26-.9-.79-1.34-.5-.44-1.28-.44t-1.3.44q-.5.44-.76 1.33-.26.88-.26 2.21t.26 2.22q.26.88.77 1.33.53.43 1.3.43m9.58 1.46q-1.41 0-2.32-.6-.9-.62-1.43-1.77l1.6-.83q.24.77.72 1.26.5.48 1.46.48.67 0 1.14-.24.48-.25.73-.7.26-.46.26-1.1 0-.68-.24-1.12a1.6 1.6 0 0 0-.69-.68q-.45-.24-1.12-.24-.46 0-.86.1a2 2 0 0 0-.72.3q-.32.2-.56.52l-1.41-.28.64-5.82h6.14v1.47h-4.78l-.39 2.98-.03.17h.03q.37-.4.95-.62.59-.22 1.39-.22 1.02 0 1.76.43.74.41 1.15 1.17t.42 1.74q0 .86-.29 1.54a3 3 0 0 1-.82 1.13 4 4 0 0 1-1.23.7q-.69.23-1.5.23m7.1-8.32q.55 0 .87.32.33.3.33.83t-.33.85-.87.32q-.56 0-.9-.32-.31-.32-.31-.85t.32-.83q.33-.32.9-.32m0 6q.54 0 .86.32.33.3.33.83t-.33.85-.87.32q-.56 0-.9-.32-.31-.32-.31-.85t.32-.83q.33-.32.9-.32m7.4 2.32q-1.9 0-3-1.38-1.07-1.39-1.07-4.06t1.08-4.05q1.08-1.39 2.99-1.39t2.99 1.4q1.09 1.37 1.09 4.04t-1.09 4.06q-1.07 1.38-3 1.38m0-1.46q.77 0 1.29-.43.53-.45.78-1.33.27-.9.27-2.22t-.27-2.2q-.25-.9-.78-1.34-.51-.44-1.28-.44t-1.3.44q-.51.44-.77 1.33-.25.88-.25 2.21t.25 2.22q.26.88.77 1.33.53.43 1.3.43m9.76-9.42q1.36 0 2.29.67.94.67 1.4 1.89.48 1.22.48 2.86 0 1.83-.5 3.04-.49 1.2-1.42 1.81t-2.24.61q-1.34 0-2.3-.6t-1.44-1.77l1.62-.75q.22.75.73 1.2.53.45 1.43.45.73 0 1.23-.29t.78-.83q.3-.55.43-1.31a11 11 0 0 0 .13-1.73v-.18h-.06a2 2 0 0 1-.64 1.04q-.45.4-1.03.6a4 4 0 0 1-1.15.17q-1.02 0-1.82-.4a3 3 0 0 1-1.23-1.15q-.45-.74-.45-1.75 0-1.1.45-1.9a3 3 0 0 1 1.3-1.23q.84-.45 2-.45m.02 1.5q-1 0-1.55.55-.53.54-.53 1.52 0 .86.56 1.36.58.48 1.52.48.61 0 1.08-.24.46-.26.72-.69.27-.43.27-1 0-.62-.27-1.05a1.7 1.7 0 0 0-.72-.69q-.47-.24-1.08-.24m15.96-1.34q1.14 0 1.95.4.83.4 1.3 1.14.46.73.46 1.77 0 1.03-.46 1.78-.47.73-1.3 1.13-.81.4-1.95.4h-2.35v3.94h-1.71V99.94zm-.27 5.15q1.14 0 1.66-.46.55-.48.55-1.38 0-.91-.55-1.37-.52-.48-1.66-.48h-2.08v3.7zm17.04-5.15v10.56h-1.59v-6.11l.13-2.91h-.01l-3.22 9.02h-1.42l-3.22-9.02h-.02l.13 2.9v6.12h-1.58V99.94h2.54l2.13 6.11.74 2.51h.03l.75-2.5 2.11-6.12z"/><path fill="#6a717d" d="M189.76 139.45v9.24h-1.12v-9.24zm-6.13 0v9.24h-1.12v-9.24zm5.53 4.03v1.05h-6.06v-1.05zm6.21-1.93q1 0 1.75.43.77.44 1.2 1.26.44.81.44 1.95 0 1.13-.43 1.96a3 3 0 0 1-1.2 1.24q-.76.44-1.76.44-.98 0-1.75-.44a3 3 0 0 1-1.2-1.24q-.44-.83-.44-1.96 0-1.14.44-1.95.43-.82 1.2-1.26.77-.43 1.75-.43m0 .96q-.71 0-1.22.33a2 2 0 0 0-.78.92q-.27.59-.27 1.43 0 .82.27 1.43.28.6.78.92t1.22.32 1.22-.32.77-.92.28-1.43-.28-1.43a2 2 0 0 0-.77-.92q-.5-.33-1.22-.33m8.03 6.32q-.67 0-1.27-.25a2 2 0 0 1-.97-.82q-.36-.57-.36-1.48v-4.6h1.12v4.3q0 1.07.46 1.48.46.39 1.3.39.4 0 .77-.13.38-.14.67-.42.31-.3.48-.74.18-.45.18-1.06v-3.81h1.12v7h-.98l-.07-1.07q-.36.63-1 .93-.6.28-1.45.28m6.1-.14v-7h.92l.15 1.15a2 2 0 0 1 .86-.97q.57-.32 1.38-.32.19 0 .4.03t.37.1l-.2 1.03-.33-.08-.52-.03q-.43 0-.88.25-.43.25-.73.77-.3.5-.3 1.29v3.78zm7.94.14a4 4 0 0 1-1.89-.44 3 3 0 0 1-1.31-1.23l.95-.68q.3.64.9 1 .6.37 1.44.37.74 0 1.16-.28.42-.3.42-.76a1 1 0 0 0-.2-.53q-.18-.25-.71-.36l-1.68-.35q-1.02-.21-1.47-.7-.44-.5-.44-1.22 0-.58.33-1.05t.94-.76q.61-.3 1.44-.3 1.03 0 1.75.41t1.06 1.15l-.94.62q-.23-.62-.77-.9a2 2 0 0 0-1.1-.3q-.5 0-.87.15a1.3 1.3 0 0 0-.55.39 1 1 0 0 0-.18.55q0 .3.21.57.21.25.79.36l1.75.37q.98.2 1.37.64.39.45.39 1.1t-.35 1.16q-.35.49-.98.75-.63.27-1.46.27m5.64-7.28q.4 0 .65.25.26.25.26.66 0 .4-.26.66t-.65.25-.66-.25-.25-.66.25-.66.66-.25m0 5.46q.4 0 .65.25t.26.66-.26.66-.65.25-.66-.25-.25-.66.25-.66.66-.25"/><path fill="#232323" d="M258.02 149.35q-1.9 0-2.99-1.38-1.07-1.4-1.07-4.06 0-2.67 1.07-4.05 1.09-1.4 3-1.4t2.99 1.4q1.08 1.38 1.08 4.05t-1.08 4.06-3 1.38m0-1.46q.77 0 1.28-.43.53-.45.79-1.33.27-.9.27-2.22t-.27-2.21-.79-1.33q-.5-.45-1.28-.45t-1.3.45q-.5.43-.76 1.33-.26.88-.26 2.2t.26 2.23q.26.88.77 1.33.53.43 1.3.43m9.98-9.4q1.07 0 1.85.35.8.33 1.23.96.44.62.44 1.5 0 .82-.4 1.44-.39.6-1.14.93v.01q.91.34 1.44 1.01.55.66.55 1.63 0 .95-.5 1.62-.48.67-1.38 1.04-.88.37-2.1.37t-2.1-.37-1.38-1.04-.5-1.62.53-1.63 1.47-1v-.02a2.5 2.5 0 0 1-1.13-.91q-.42-.63-.42-1.46 0-.88.43-1.5t1.24-.96q.8-.36 1.87-.36m0 1.44q-.85 0-1.36.42-.5.42-.5 1.14t.51 1.13 1.35.4q.83 0 1.33-.4t.5-1.13-.49-1.14-1.34-.42m0 7.99q.7 0 1.2-.21t.77-.6.27-.94-.3-.94a1.7 1.7 0 0 0-.76-.6q-.5-.22-1.18-.22t-1.19.21a2 2 0 0 0-.8.6q-.27.4-.27.95 0 .53.27.93.28.4.79.6.5.22 1.2.22m7.33-6.88q.54 0 .86.32.34.3.34.83t-.34.85q-.32.32-.86.32-.56 0-.9-.32-.32-.32-.32-.85t.32-.83q.34-.32.9-.32m0 6q.54 0 .86.32.34.3.34.83t-.34.85q-.32.32-.86.32-.56 0-.9-.32-.32-.32-.32-.85t.32-.83q.34-.32.9-.32m7.4 2.32q-1.9 0-2.99-1.38-1.07-1.4-1.07-4.06 0-2.67 1.07-4.05 1.09-1.4 3-1.4t2.98 1.4q1.1 1.38 1.1 4.05t-1.1 4.06q-1.07 1.38-2.99 1.38m0-1.46q.77 0 1.28-.43.53-.45.79-1.33.27-.9.27-2.22t-.27-2.21-.79-1.33q-.5-.45-1.28-.45t-1.3.45q-.5.43-.76 1.33-.26.88-.26 2.2t.26 2.23q.25.88.77 1.33.53.43 1.3.43m8.26 1.3v-7.9l.04-.74a6 6 0 0 1-1.25.9 5 5 0 0 1-1.43.54l-.32-1.5q.34-.04.79-.21.45-.18.93-.45t.88-.58.62-.62h1.44v10.56zm4.52 0v-11.6h1.71v4.88q.4-.75 1.07-1.1a3 3 0 0 1 1.52-.34q.85 0 1.52.33.7.32 1.1.98t.4 1.66v5.19h-1.72v-4.64q0-1.19-.5-1.65-.48-.46-1.21-.46a2 2 0 0 0-1.03.25q-.5.24-.83.8-.32.55-.32 1.47v4.23zm9.9 0v-8h1.46l.16 1.44q.32-.79.95-1.19.64-.41 1.57-.41.24 0 .48.05.24.03.4.1l-.24 1.51a2 2 0 0 0-.4-.1 3 3 0 0 0-.58-.04q-.5 0-.98.27-.48.26-.8.78-.3.53-.3 1.35v4.24zm9.4.16q-1.2 0-2.2-.47a4 4 0 0 1-1.57-1.3l1.19-1.03q.35.65 1 1.05.68.39 1.6.39.74 0 1.17-.26.43-.25.43-.72a.8.8 0 0 0-.2-.53q-.2-.24-.76-.36l-1.68-.36q-1.28-.25-1.82-.81-.54-.58-.54-1.46 0-.65.38-1.21t1.12-.9 1.8-.35q1.2 0 2.04.43.85.42 1.3 1.2l-1.19 1a2 2 0 0 0-.9-.95 2.6 2.6 0 0 0-1.23-.32q-.5 0-.88.13-.37.12-.56.35a.8.8 0 0 0-.19.53q0 .32.24.56t.86.36l1.83.39q1.15.22 1.61.76.48.53.48 1.3t-.4 1.36-1.15.9-1.79.32"/><path fill="#6a717d" d="M20.48 139.3q1.22 0 2.1.51.88.5 1.47 1.46l-.94.72q-.51-.9-1.17-1.26-.65-.37-1.57-.37-.74 0-1.23.2-.48.22-.7.57-.23.33-.23.77 0 .49.31.87.3.36 1.23.57l2 .45q1.33.3 1.85.9.53.58.53 1.46 0 .79-.44 1.4t-1.24.94q-.8.34-1.87.34-1.01 0-1.78-.27a4 4 0 0 1-1.3-.74 4 4 0 0 1-.9-1.04l.98-.8q.27.54.69.94t1 .63 1.38.23q.71 0 1.23-.17.53-.18.81-.52t.28-.84q0-.45-.3-.8-.29-.36-1.1-.54l-2.17-.5q-.85-.19-1.38-.53t-.76-.8a2.4 2.4 0 0 1-.22-1.03q0-.74.4-1.36.42-.63 1.2-1 .78-.38 1.84-.38m7.44.39v7.05q0 .52.3.77.3.26.75.26.4 0 .7-.14t.54-.38l.39.94q-.33.3-.77.46a3 3 0 0 1-1.01.17q-.53 0-1-.19a1.7 1.7 0 0 1-.74-.6q-.26-.42-.28-1.09v-6.94zm2.55 1.99v.96H25.4v-.96zm5.75 2.47q0-.78-.42-1.2-.42-.43-1.19-.43-.72 0-1.23.32-.5.3-.74 1l-.91-.55q.28-.79 1.04-1.26.75-.5 1.87-.5.76 0 1.37.27.62.25.97.79.36.52.36 1.34v3.39q0 .5.54.5.26 0 .51-.07l-.05.88q-.28.15-.73.15-.4 0-.73-.16a1 1 0 0 1-.5-.46q-.18-.32-.18-.8v-.14l.28.04a2 2 0 0 1-.58.9q-.4.33-.9.5a3 3 0 0 1-1 .16q-.62 0-1.15-.21t-.85-.63q-.31-.44-.31-1.07 0-.78.52-1.29.53-.51 1.47-.7l2.77-.54v.92l-2.26.46q-.68.14-1.02.4a.8.8 0 0 0-.33.7q0 .43.33.71.35.27.98.27.4 0 .77-.1.38-.11.67-.32.3-.23.47-.55.16-.34.16-.78zm5.22-4.46v7.05q0 .52.3.77.3.26.75.26.4 0 .7-.14t.54-.38l.39.94q-.32.3-.77.46a3 3 0 0 1-1.01.17q-.53 0-1-.19a1.7 1.7 0 0 1-.74-.6q-.26-.42-.28-1.09v-6.94zm2.55 1.99v.96h-5.07v-.96zm4.2 7.14q-.67 0-1.27-.26a2 2 0 0 1-.97-.8q-.36-.58-.36-1.5v-4.58h1.12v4.3q0 1.06.46 1.46t1.3.4q.4 0 .77-.13.38-.14.67-.42.31-.3.48-.74.18-.45.18-1.07v-3.8h1.12v7h-.98l-.07-1.07q-.36.63-1 .93-.6.28-1.45.28m8.63 0a4 4 0 0 1-1.9-.44 3 3 0 0 1-1.3-1.23l.94-.69q.31.65.9 1.01.6.37 1.44.37.74 0 1.16-.28.42-.3.42-.76a1 1 0 0 0-.2-.53q-.18-.25-.7-.37l-1.69-.35q-1.02-.2-1.47-.7-.43-.48-.43-1.21 0-.58.32-1.05.34-.48.94-.76.61-.3 1.44-.3 1.04 0 1.75.41t1.07 1.15l-.94.62q-.24-.62-.77-.9a2 2 0 0 0-1.1-.3q-.51 0-.88.15a1.3 1.3 0 0 0-.54.39 1 1 0 0 0-.19.54q0 .31.21.58.22.25.79.36l1.75.37q.98.2 1.37.64.4.45.4 1.1t-.36 1.15-.98.76q-.63.27-1.45.27m5.63-7.28q.4 0 .66.25.25.25.25.66 0 .4-.25.65t-.66.26-.66-.26-.25-.65.25-.66.66-.25m0 5.46q.4 0 .66.25t.25.66-.25.66-.66.25-.66-.26-.25-.65.25-.66.66-.25"/><g style="mix-blend-mode:multiply"><rect width="88.18" height="26.545" x="76" y="130.414" fill="#ecfdf3" filter="url(#homeRectDropShadow)" rx="13.273"/><path fill="#027a48" d="M96.02 139.47q.94 0 1.61.33.69.33 1.07.94t.38 1.47q0 .84-.38 1.46a2.5 2.5 0 0 1-1.07.94q-.67.33-1.6.33h-1.95v3.25h-1.41v-8.72zm-.22 4.26q.94 0 1.37-.39.45-.4.45-1.13 0-.76-.45-1.14-.43-.4-1.37-.4h-1.72v3.06zm7.3 4.59q-.65 0-1.2-.24a2 2 0 0 1-.87-.76q-.33-.53-.33-1.38v-4.35h1.4v4q0 .9.4 1.24.37.33 1.06.33.33 0 .63-.1.32-.13.57-.36.25-.25.38-.64.15-.38.15-.9v-3.57h1.41v6.6h-1.24l-.06-1.07a2 2 0 0 1-.93.9q-.58.3-1.37.3m5.81-.13v-6.6h1.25l.1 1.71-.19-.18q.19-.57.53-.94a2 2 0 0 1 .83-.55 3 3 0 0 1 1.03-.18q.7 0 1.26.28.56.27.9.8.32.55.32 1.38v4.28h-1.4v-3.84q0-.98-.42-1.35-.4-.38-1-.38-.44 0-.85.2a1.7 1.7 0 0 0-.68.65q-.27.45-.27 1.2v3.52zm11.03-6.74q.79 0 1.34.24.57.23.95.65.39.42.59.96l-1.34.53q-.17-.6-.55-.92-.37-.33-.98-.33-.6 0-1.02.27a1.7 1.7 0 0 0-.64.78q-.21.52-.21 1.27 0 .74.22 1.25.22.52.65.78t1 .27q.45 0 .78-.15.33-.16.54-.43.23-.3.3-.7l1.28.43a3 3 0 0 1-.58 1.04q-.38.44-.96.7a4 4 0 0 1-1.33.23q-.98 0-1.73-.41a3 3 0 0 1-1.18-1.17q-.4-.78-.4-1.85t.4-1.84a3 3 0 0 1 1.16-1.19q.76-.4 1.7-.4m6.5-1.82v6.57q0 .48.25.71.26.22.7.22.35 0 .62-.1a2 2 0 0 0 .49-.32l.31 1.03a2 2 0 0 1-.75.42 3 3 0 0 1-.98.15q-.56 0-1.04-.19a1.5 1.5 0 0 1-.74-.59q-.26-.42-.28-1.1v-6.4zm2.27 1.95v1.1h-4.95v-1.1zm3.75 6.73a3 3 0 0 1-1.2-.24 2 2 0 0 1-.88-.76q-.33-.53-.33-1.38v-4.35h1.42v4q0 .9.38 1.24t1.07.33q.33 0 .63-.1.32-.13.57-.36.25-.25.38-.64a3 3 0 0 0 .15-.9v-3.57h1.41v6.6h-1.24l-.07-1.07a2 2 0 0 1-.92.9q-.58.3-1.37.3m9.62-4.37q0-.66-.37-1.02-.35-.37-.99-.37-.59 0-1.01.28t-.62.9l-1.2-.5q.26-.8.98-1.3.74-.49 1.9-.49.8 0 1.4.27.61.25.96.76.35.52.35 1.32v2.95q0 .49.5.49.23 0 .45-.07l-.08.98q-.3.14-.76.14-.42 0-.77-.14a1.3 1.3 0 0 1-.53-.46q-.18-.32-.18-.78v-.1h.3a1.7 1.7 0 0 1-.5.85q-.37.33-.86.5a3 3 0 0 1-.99.16q-.62 0-1.12-.2a2 2 0 0 1-.78-.6q-.28-.4-.28-1 0-.74.48-1.21.49-.48 1.37-.65l2.56-.5v1l-1.87.37q-.56.1-.83.3t-.28.59.28.6q.29.2.76.2.33 0 .64-.08t.57-.25q.25-.18.38-.46.14-.29.14-.69zm5.1-5.33v7.72q0 .49.16.67t.57.19q.24 0 .4-.03.17-.04.42-.13l-.16 1.05q-.22.11-.51.16a3 3 0 0 1-.59.07q-.88 0-1.3-.45-.41-.46-.41-1.41v-7.85z"/></g><line x1="12.148" x2="330.801" y1="82.086" y2="82.086" stroke="#d5d9e0"/></g><g class="rec-one" clip-path="url(#clip0_6028_34687)"><rect width="342" height="101" y="195" fill="#fff" filter="url(#homeRectDropShadow)" rx="14"/><path fill="#5d636d" d="M24.95 223.06h-1.57l-.87-2.4h-3.84l-.87 2.4h-1.52l3.45-9.14h1.77zm-5.86-3.6h3l-1.5-4.27zm8.85-5.36v6.88q0 .51.26.75.28.23.73.23.38 0 .66-.1.27-.13.5-.34l.34 1.08a2 2 0 0 1-.79.44 3 3 0 0 1-1.02.16 3 3 0 0 1-1.1-.2 1.6 1.6 0 0 1-.77-.62q-.28-.44-.3-1.15v-6.72zm2.38 2.03v1.17h-5.2v-1.17zm2.7-2.03v6.88q0 .51.27.75t.73.23q.38 0 .65-.1.28-.13.51-.34l.34 1.08a2 2 0 0 1-.8.44 3 3 0 0 1-1.02.16 3 3 0 0 1-1.1-.2 1.6 1.6 0 0 1-.77-.62q-.27-.44-.29-1.15v-6.72zm2.39 2.03v1.17h-5.2v-1.17zm4.5 7.07q-1.03 0-1.82-.43a3 3 0 0 1-1.23-1.24q-.43-.81-.43-1.93t.43-1.93a3 3 0 0 1 1.22-1.25q.77-.43 1.76-.43 1 0 1.71.42.7.42 1.08 1.14t.38 1.63q0 .25-.02.47-.01.22-.04.39h-5.57v-1.14h4.92l-.73.22q0-.94-.48-1.44-.47-.5-1.28-.5-.6 0-1.04.27-.45.28-.68.83t-.24 1.33.25 1.32.7.81q.47.28 1.09.28.7 0 1.12-.26.43-.27.68-.74l1.18.56a3 3 0 0 1-.68.87q-.42.36-1 .55a4 4 0 0 1-1.27.2m4.96-.14v-6.93h1.31l.1 1.8-.2-.19q.2-.6.56-.98.38-.4.87-.59.52-.18 1.08-.18.74 0 1.32.3.6.27.94.84.35.57.35 1.44v4.49h-1.48v-4.03q0-1.03-.43-1.42-.42-.4-1.06-.4-.45 0-.88.22a2 2 0 0 0-.72.68q-.28.47-.28 1.26v3.69zm11.23.14a3 3 0 0 1-1.56-.43q-.7-.43-1.1-1.24t-.4-1.92q0-1.16.43-1.97.43-.8 1.15-1.22a3 3 0 0 1 1.58-.43q.89 0 1.5.49.6.48.81 1.26l-.16.15v-4.87h1.48v10.04h-1.32l-.1-1.89.19.02a2.3 2.3 0 0 1-.46 1.08q-.36.44-.9.7-.53.23-1.14.23m.32-1.2q.6 0 1.03-.3a2 2 0 0 0 .66-.86q.24-.55.24-1.33 0-.72-.24-1.23a2 2 0 0 0-.66-.8 1.7 1.7 0 0 0-.97-.28q-.93 0-1.44.64-.52.63-.52 1.76t.5 1.77 1.4.64m9.71-3.4q0-.69-.39-1.06-.37-.4-1.04-.4-.62 0-1.06.3-.45.29-.65.94l-1.25-.53a2.5 2.5 0 0 1 1.02-1.35q.78-.52 2-.52.83 0 1.47.28.63.26 1 .8t.37 1.39v3.09q0 .51.51.51.25 0 .49-.07l-.09 1.03q-.32.15-.8.15-.44 0-.8-.15a1.3 1.3 0 0 1-.56-.49q-.2-.33-.2-.82v-.1h.31q-.12.53-.51.9-.39.34-.9.52a3 3 0 0 1-1.04.17q-.65 0-1.18-.21a2 2 0 0 1-.81-.62q-.3-.43-.3-1.06 0-.77.5-1.27.52-.5 1.44-.68l2.7-.53-.02 1.04-1.96.4q-.58.11-.87.32t-.29.61q0 .39.3.63.3.22.8.22.34 0 .66-.09.33-.08.6-.26.26-.2.4-.48.15-.3.15-.72zm3.9 4.45v-6.93h1.31l.1 1.8-.2-.19q.2-.6.56-.98.37-.4.87-.59.51-.18 1.08-.18a3 3 0 0 1 1.32.3q.6.27.94.84.35.57.35 1.44v4.49h-1.48v-4.03q0-1.03-.43-1.42-.42-.4-1.06-.4-.45 0-.88.22a2 2 0 0 0-.72.68q-.28.47-.28 1.26v3.69zm11.57-7.07q.83 0 1.4.25.6.24 1 .68t.61 1.01l-1.4.56q-.18-.64-.58-.97-.38-.35-1.02-.35-.62 0-1.07.3a2 2 0 0 0-.68.81q-.22.54-.22 1.33 0 .77.24 1.32.23.54.68.81.44.28 1.05.28.47 0 .82-.15.34-.17.56-.46.24-.3.32-.73l1.35.45q-.2.63-.61 1.1a3 3 0 0 1-1.01.72q-.61.25-1.4.25-1.03 0-1.82-.43a3 3 0 0 1-1.23-1.24q-.43-.81-.43-1.93t.43-1.93a3 3 0 0 1 1.22-1.25q.79-.43 1.78-.43m7.84 7.2q-1.04 0-1.83-.42a3 3 0 0 1-1.23-1.24q-.43-.81-.43-1.93t.43-1.93a3 3 0 0 1 1.22-1.25q.77-.43 1.75-.43 1.01 0 1.72.42.7.42 1.08 1.14t.38 1.63q0 .25-.02.47-.01.22-.04.39H86.9v-1.14h4.92l-.73.22q0-.94-.47-1.44-.48-.5-1.3-.5-.59 0-1.03.27t-.68.83q-.24.54-.24 1.33 0 .77.25 1.32.25.54.71.81t1.08.28q.7 0 1.12-.26.43-.27.68-.74l1.18.56a3 3 0 0 1-.68.87q-.42.36-1 .55a4 4 0 0 1-1.27.2m17.16-9.28v9.14h-1.5v-9.14zm-6 0v9.14h-1.5v-9.14zm5.26 3.87v1.28h-6v-1.28zm3.99-2.82q-.49 0-.75-.24-.25-.25-.25-.69t.25-.68q.26-.23.75-.23.47 0 .72.23.26.24.26.68t-.26.7q-.25.23-.72.23m.73 1.16v6.93h-1.48v-6.93zm4.95 7.07a4.4 4.4 0 0 1-1.9-.4 3.3 3.3 0 0 1-1.35-1.14l1.02-.89q.3.57.88.92.58.33 1.38.33.64 0 1.01-.22.38-.22.38-.63a.7.7 0 0 0-.18-.45q-.17-.21-.65-.32l-1.46-.3q-1.1-.23-1.58-.71-.47-.5-.47-1.26 0-.57.33-1.06.34-.48.97-.77.65-.3 1.55-.3 1.04 0 1.78.37.73.36 1.12 1.04l-1.03.86a1.7 1.7 0 0 0-.77-.82 2 2 0 0 0-1.07-.28q-.44 0-.76.11a1 1 0 0 0-.48.3.7.7 0 0 0-.17.46q0 .28.2.49t.75.32l1.58.33q1 .2 1.4.66.42.46.42 1.13t-.35 1.17-1 .78-1.55.28m6.73-9.1v6.88q0 .51.26.75.28.23.73.23.38 0 .65-.1.28-.13.52-.34l.33 1.08a2 2 0 0 1-.79.44 3 3 0 0 1-1.03.16q-.59 0-1.09-.2a1.6 1.6 0 0 1-.78-.62q-.27-.44-.29-1.15v-6.72zm2.38 2.03v1.17h-5.2v-1.17zm4.47-.14q1.01 0 1.79.43.77.43 1.2 1.25.44.8.44 1.93t-.44 1.93a3 3 0 0 1-1.2 1.24q-.78.43-1.79.43t-1.79-.43a3 3 0 0 1-1.22-1.24q-.44-.81-.44-1.93t.44-1.93a3 3 0 0 1 1.22-1.25q.78-.43 1.79-.43m0 1.17q-.62 0-1.07.29-.43.28-.66.82t-.24 1.33q0 .77.24 1.33.23.54.66.83.45.27 1.07.27t1.05-.27q.43-.3.67-.83.23-.56.23-1.33 0-.8-.23-1.33-.24-.54-.67-.82-.43-.3-1.05-.3m5.3 5.9v-6.92h1.26l.14 1.25q.27-.68.82-1.03.55-.36 1.35-.36.21 0 .42.05.2.02.34.1l-.2 1.3-.35-.09a2 2 0 0 0-.5-.04q-.43 0-.84.24a2 2 0 0 0-.7.67q-.26.46-.26 1.17v3.67zm11.81-6.92-3.03 7.75q-.3.8-.66 1.27a2 2 0 0 1-.8.68 3 3 0 0 1-1.07.2q-.5 0-.93-.13a3 3 0 0 1-.74-.35l.36-1.15q.27.22.56.33t.65.11.67-.2.54-.8l.3-.74-.73-1.72-2.17-5.25h1.67l1.53 4.35.4 1.3.46-1.42 1.46-4.23z"/><circle cx="33.859" cy="261.656" r="17.515" fill="#e7f5ec"/><path fill="#0f973d" d="M33.85 253.96c-4.23 0-7.69 3.46-7.69 7.7s3.46 7.7 7.7 7.7 7.69-3.47 7.69-7.7-3.46-7.7-7.7-7.7m0 13.85a6.16 6.16 0 0 1-6.15-6.15 6.16 6.16 0 0 1 6.15-6.16 6.16 6.16 0 0 1 6.16 6.16 6.16 6.16 0 0 1-6.16 6.15m3.54-9.55-5.07 5.07-2-1.99-1.08 1.09 3.08 3.07 6.15-6.15z"/><path fill="#232323" d="M73.97 246.2v1.41h-3.49v8.76h-1.65v-8.76h-3.49v-1.42zm1.5 10.17V245.2h1.65v4.7q.39-.72 1.03-1.04a3 3 0 0 1 1.47-.34 3 3 0 0 1 1.46.32 2.4 2.4 0 0 1 1.05.94q.39.63.39 1.6v5h-1.65v-4.47q0-1.14-.48-1.59-.46-.45-1.17-.45-.5 0-.99.25-.48.23-.8.77-.31.53-.31 1.42v4.07zm12.3.16q-.76 0-1.41-.28a2.3 2.3 0 0 1-1.02-.9q-.38-.61-.38-1.6v-5.09h1.65v4.67q0 1.05.44 1.45.45.39 1.25.39.39 0 .74-.12.37-.14.67-.42.29-.3.44-.74.17-.45.17-1.05v-4.18h1.65v7.71h-1.45l-.07-1.25q-.4.73-1.08 1.07-.68.33-1.6.33m6.78-.15v-7.71h1.4l.16 1.39q.3-.76.9-1.14.63-.4 1.52-.4.23 0 .46.04.23.03.39.11l-.23 1.45a2 2 0 0 0-.39-.1 3 3 0 0 0-.55-.04q-.48 0-.94.26a2 2 0 0 0-.78.76q-.29.5-.29 1.3v4.08zm9.05.15a5 5 0 0 1-2.12-.44 3.7 3.7 0 0 1-1.5-1.27l1.13-.98q.34.63.97 1.01.65.37 1.55.37.7 0 1.12-.24.42-.25.42-.7a.7.7 0 0 0-.2-.5q-.19-.24-.73-.36l-1.62-.34q-1.23-.25-1.75-.79-.53-.55-.53-1.4 0-.63.37-1.17t1.08-.86q.73-.34 1.73-.34 1.15 0 1.97.41t1.25 1.16l-1.14.95a2 2 0 0 0-.86-.9 2.5 2.5 0 0 0-1.2-.31q-.48 0-.84.12-.35.12-.54.34a1 1 0 0 0-.18.5.7.7 0 0 0 .23.55q.23.23.83.35l1.76.37q1.1.22 1.56.74.46.51.46 1.25t-.39 1.31q-.38.56-1.1.87t-1.73.3m8.17 0a3.3 3.3 0 0 1-1.74-.47q-.77-.48-1.22-1.38t-.44-2.14q0-1.3.47-2.19.48-.9 1.28-1.36a3.4 3.4 0 0 1 1.76-.47q.99 0 1.67.54t.9 1.4l-.18.17v-5.43h1.65v11.18h-1.46l-.13-2.1.22.02a2.5 2.5 0 0 1-.51 1.2 3 3 0 0 1-1 .77 3 3 0 0 1-1.27.26m.36-1.32q.66 0 1.14-.34t.74-.96.26-1.48q0-.8-.26-1.37a2 2 0 0 0-.74-.9 2 2 0 0 0-1.08-.3q-1.03 0-1.6.7-.57.72-.57 1.97t.55 1.97q.56.71 1.56.7m10.8-3.77q0-.77-.42-1.19-.42-.43-1.16-.43-.7 0-1.19.32-.5.33-.72 1.05l-1.4-.58a2.8 2.8 0 0 1 1.15-1.51q.86-.57 2.22-.57.93 0 1.64.3t1.1.9q.42.6.42 1.54v3.44q0 .57.57.57.28 0 .54-.08l-.09 1.14q-.35.17-.9.17-.49 0-.89-.17a1.5 1.5 0 0 1-.62-.54q-.21-.37-.21-.9v-.11l.34-.02a2 2 0 0 1-.57 1 3 3 0 0 1-1 .59q-.58.19-1.16.19a4 4 0 0 1-1.31-.24 2 2 0 0 1-.91-.69q-.33-.48-.33-1.17 0-.87.56-1.42.57-.56 1.6-.76l3-.58-.02 1.15-2.18.45q-.64.12-.97.36t-.32.67.32.7q.34.24.9.24.38 0 .74-.09.37-.09.66-.29.3-.22.45-.54.17-.34.17-.8zm10.65-2.76-3.38 8.62q-.34.9-.74 1.42-.38.52-.9.75-.5.24-1.18.24-.56 0-1.03-.16a3 3 0 0 1-.82-.38l.4-1.28q.3.24.62.37.34.12.72.12.42 0 .74-.23.34-.22.6-.88l.34-.83-.81-1.92-2.41-5.84h1.85l1.71 4.84.45 1.45.5-1.59 1.63-4.7zm1.1 5.63q.44 0 .72.21.3.2.45.58.15.35.15.81 0 .57-.22 1.1-.21.54-.63.97-.4.45-.97.72l-.77-.66q.42-.15.74-.4t.54-.56a2 2 0 0 0 .32-.63l-.06-.03-.18.08-.28.03a1 1 0 0 1-.45-.12 1 1 0 0 1-.37-.34q-.15-.23-.15-.6 0-.34.15-.6a1 1 0 0 1 .43-.4q.27-.16.59-.16m12.87-8.25q1.48 0 2.56.63a4 4 0 0 1 1.67 1.8q.58 1.18.58 2.81t-.58 2.8-1.67 1.81-2.56.63q-1.46 0-2.54-.63t-1.67-1.8-.59-2.8.59-2.82a4 4 0 0 1 1.67-1.8q1.07-.63 2.54-.63m0 1.43q-.96 0-1.65.45t-1.05 1.3q-.37.84-.37 2.06 0 1.2.37 2.07.37.85 1.05 1.3.7.44 1.65.44.97 0 1.65-.45.7-.44 1.06-1.3t.37-2.06-.37-2.06-1.06-1.3-1.65-.45m10.37 1.04q.92 0 1.57.27.66.27 1.1.76.46.5.69 1.12l-1.56.62q-.2-.7-.65-1.08-.43-.38-1.14-.38-.7 0-1.19.32-.49.31-.75.91-.25.6-.25 1.48 0 .86.26 1.47t.76.9 1.17.31q.53 0 .91-.17.39-.18.63-.5.27-.34.36-.82l1.5.5q-.22.7-.68 1.23a3 3 0 0 1-1.13.8q-.68.27-1.56.27-1.14 0-2.02-.47a3.4 3.4 0 0 1-1.37-1.38q-.48-.9-.48-2.15t.48-2.15a3.4 3.4 0 0 1 1.36-1.39q.88-.47 1.99-.47m7.58-2.12v7.67q0 .57.29.83.3.26.82.26.41 0 .72-.12.3-.14.57-.37l.37 1.2a3 3 0 0 1-.88.5q-.5.17-1.14.16-.66 0-1.22-.21a2 2 0 0 1-.86-.7q-.31-.49-.32-1.28v-7.47zm2.65 2.27v1.3h-5.79v-1.3zm4.98-.15q1.12 0 1.99.47a3.3 3.3 0 0 1 1.34 1.4q.49.89.49 2.14t-.5 2.15a3.3 3.3 0 0 1-1.33 1.38q-.87.47-2 .47t-1.98-.47a3.4 3.4 0 0 1-1.36-1.38q-.5-.9-.5-2.15t.5-2.15a3.4 3.4 0 0 1 1.36-1.39q.86-.47 1.99-.47m0 1.3q-.7 0-1.2.31-.47.31-.73.91t-.26 1.49q0 .86.26 1.48.26.6.74.92.5.31 1.19.31t1.17-.3q.48-.33.74-.93.26-.62.26-1.48 0-.88-.26-1.49-.26-.6-.74-.9-.48-.33-1.17-.33m10.03 6.72q-.68 0-1.25-.26a3 3 0 0 1-.94-.72 3 3 0 0 1-.57-1.07l.2-.26-.12 2.16h-1.45V245.2h1.65v5.41l-.19-.26q.3-.8 1-1.3.71-.53 1.72-.53.92 0 1.7.47.78.48 1.23 1.38t.44 2.17q0 1.25-.46 2.14-.45.9-1.23 1.38a3 3 0 0 1-1.73.47m-.36-1.32q1 0 1.56-.71.57-.73.57-1.97t-.55-1.96-1.56-.71q-.65 0-1.13.34-.47.32-.75.92-.26.6-.26 1.44 0 .81.26 1.41t.74.91q.5.33 1.12.33m9.29 1.32q-1.16 0-2.04-.47a3.4 3.4 0 0 1-1.37-1.38q-.48-.9-.48-2.15t.48-2.15a3.4 3.4 0 0 1 1.36-1.39q.86-.47 1.96-.47 1.12 0 1.9.46.8.46 1.21 1.26.42.8.42 1.82 0 .28-.02.53l-.05.43h-6.2v-1.27h5.48l-.82.25q0-1.05-.52-1.6-.53-.57-1.44-.57-.66 0-1.15.3-.5.31-.76.93-.26.6-.26 1.48 0 .86.28 1.47t.78.9 1.2.31q.78 0 1.26-.29.47-.3.75-.82l1.31.62q-.27.56-.75.97a3 3 0 0 1-1.11.62 5 5 0 0 1-1.42.21m5.52-.15v-7.71h1.4l.16 1.39q.3-.76.9-1.14.62-.4 1.52-.4.23 0 .46.04.23.03.39.11l-.23 1.45a2 2 0 0 0-.39-.1 3 3 0 0 0-.55-.04q-.48 0-.95.26a2 2 0 0 0-.77.76q-.29.5-.29 1.3v4.08zm12.68 0v-7.62l.03-.7a6 6 0 0 1-1.2.87 5 5 0 0 1-1.38.51l-.3-1.43q.32-.05.75-.22t.9-.43.84-.56a3 3 0 0 0 .6-.6h1.4v10.18zm8.72 0v-2.54h-4.97v-1.13q.03-.08.1-.18l.16-.25 4.24-6.08h2.02v6.36h1.73v1.28h-1.73v2.54zm-3.43-3.82h3.43v-3.6l.01-.75.05-.79h-.03q-.17.37-.45.82-.26.43-.5.75l-2.4 3.43-.06.06zm10.9-6.16v7.67q0 .57.3.83t.82.26q.41 0 .72-.12.31-.14.57-.37l.37 1.2a3 3 0 0 1-.88.5 4 4 0 0 1-1.14.16 3 3 0 0 1-1.22-.21 2 2 0 0 1-.86-.7q-.3-.49-.32-1.28v-7.47zm2.66 2.27v1.3h-5.78v-1.3zm1.7 7.71V245.2h1.64v4.7q.39-.72 1.04-1.04a3 3 0 0 1 1.46-.34 3 3 0 0 1 1.47.32q.66.3 1.04.94.39.63.39 1.6v5h-1.65v-4.47q0-1.14-.48-1.59-.46-.45-1.17-.45-.5 0-.99.25-.47.23-.8.77-.3.53-.3 1.42v4.07z"/><path fill="#0f973d" d="M69.08 269.82q.83 0 1.43.3.61.3.96.85.34.56.34 1.32t-.34 1.32a2.3 2.3 0 0 1-.96.86q-.6.3-1.43.3H67.2v3.17h-.99v-8.13zm-.15 4.02q.96 0 1.4-.4.45-.4.45-1.15 0-.76-.44-1.16-.45-.4-1.4-.4H67.2v3.11zm4.61 4.1v-6.15h.8l.14 1q.26-.56.75-.85.5-.28 1.22-.28.16 0 .34.03a1 1 0 0 1 .34.1l-.18.9-.3-.08-.45-.02q-.38 0-.77.22a2 2 0 0 0-.64.67q-.26.45-.26 1.14v3.32zm7.4.13a3 3 0 0 1-1.55-.39 2.7 2.7 0 0 1-1.06-1.1q-.38-.72-.38-1.72t.38-1.7a2.7 2.7 0 0 1 1.04-1.12q.67-.38 1.52-.38.86 0 1.46.37.62.37.94 1.01.32.63.32 1.42l-.01.38-.04.3h-4.98v-.87h4.55l-.5.1q0-.89-.5-1.37-.48-.48-1.27-.48-.6 0-1.04.29a2 2 0 0 0-.68.8q-.24.51-.24 1.25 0 .73.25 1.26t.7.81q.45.27 1.08.27.67 0 1.09-.26.43-.25.69-.7l.78.46a3 3 0 0 1-.6.72 3 3 0 0 1-.86.48q-.48.16-1.08.17m6.75 0a4 4 0 0 1-1.66-.39 2.7 2.7 0 0 1-1.16-1.08l.84-.6q.27.56.78.88.53.32 1.27.32.65 0 1.02-.24.37-.26.37-.67a.7.7 0 0 0-.17-.47q-.16-.22-.63-.32l-1.47-.3q-.9-.19-1.3-.62-.38-.43-.38-1.07 0-.5.28-.92a2 2 0 0 1 .83-.67q.54-.26 1.27-.26.9 0 1.54.36.62.36.93 1l-.82.55q-.21-.54-.68-.79a2 2 0 0 0-.97-.26q-.45 0-.77.13a1 1 0 0 0-.48.34 1 1 0 0 0-.16.48q0 .27.19.5.18.23.69.33l1.54.32q.86.17 1.2.56.35.4.35.96 0 .58-.31 1.03a2 2 0 0 1-.86.66q-.56.23-1.28.23m6.85 0a3 3 0 0 1-1.57-.38 2.7 2.7 0 0 1-1.06-1.1q-.38-.72-.38-1.72t.38-1.7a2.7 2.7 0 0 1 1.05-1.12 3 3 0 0 1 1.52-.38q.86 0 1.46.37.62.37.94 1.01.32.63.32 1.42 0 .2-.02.38l-.03.3h-4.98v-.87h4.55l-.5.1q0-.89-.5-1.37-.48-.48-1.27-.48-.6 0-1.05.29a2 2 0 0 0-.67.8q-.24.51-.24 1.25 0 .73.25 1.26t.69.81q.45.27 1.08.27.68 0 1.1-.26.43-.25.69-.7l.77.46a3 3 0 0 1-.6.72 3 3 0 0 1-.85.48q-.48.16-1.08.16m4.53-.12v-6.16h.86l.09 1.38-.16-.13a2 2 0 0 1 1.3-1.23 3 3 0 0 1 .9-.14q.67 0 1.2.26.55.25.87.76.33.52.33 1.32v3.94h-.98v-3.6q0-1.02-.45-1.41-.43-.4-1.07-.4-.44 0-.88.2a2 2 0 0 0-.74.68q-.29.47-.29 1.26v3.27zm9-7.9v6.2q0 .46.25.68.26.22.66.22.36 0 .62-.12a2 2 0 0 0 .47-.33l.34.82a2 2 0 0 1-.67.4 3 3 0 0 1-.89.15q-.47 0-.87-.16a1.5 1.5 0 0 1-.66-.53q-.23-.36-.24-.96v-6.1zm2.23 1.74v.85h-4.45v-.85z"/><circle cx="120.13" cy="273.942" r="2.321" fill="#919191"/><path fill="#878789" d="M133.03 269.7q1.02 0 1.73.53.7.53 1.05 1.48.36.94.36 2.17 0 1.36-.36 2.3-.35.92-1.05 1.4t-1.72.48-1.73-.46-1.08-1.37l.97-.52q.2.64.64 1.04.45.4 1.24.4.64 0 1.06-.26.43-.25.68-.72a4 4 0 0 0 .34-1.15q.11-.66.11-1.47v-.12h-.05q-.14.56-.51.9a2 2 0 0 1-.84.48 3 3 0 0 1-.91.15q-.8 0-1.42-.3a2.4 2.4 0 0 1-.96-.9q-.34-.56-.34-1.33 0-.84.33-1.44.33-.62.96-.95.63-.35 1.5-.35m.01.95q-.86 0-1.31.48-.46.47-.46 1.32 0 .72.48 1.16.48.41 1.3.41.52 0 .92-.2.4-.23.63-.6a2 2 0 0 0 .22-.87q0-.52-.22-.9a1.5 1.5 0 0 0-.63-.59q-.4-.21-.93-.21m5.76 1.02q.35 0 .58.22t.22.58-.22.58a.8.8 0 0 1-.58.22.8.8 0 0 1-.58-.22.8.8 0 0 1-.22-.58q0-.36.22-.58a.8.8 0 0 1 .58-.22m0 4.8q.35 0 .58.23.22.22.22.57a.8.8 0 0 1-.22.58.8.8 0 0 1-.58.22.8.8 0 0 1-.58-.22.8.8 0 0 1-.22-.58q0-.35.22-.57a.8.8 0 0 1 .58-.23m5.65 1.6q-1.38 0-2.2-1.07t-.83-3.11.82-3.12 2.2-1.07q1.4 0 2.21 1.07.83 1.07.83 3.12t-.83 3.11-2.2 1.07m0-.88q.65 0 1.1-.37.45-.38.67-1.12t.23-1.81-.23-1.81q-.22-.74-.68-1.11-.44-.38-1.1-.38t-1.1.38-.68 1.1q-.22.75-.22 1.82t.22 1.8.68 1.13 1.1.37m4.75.76v-.8a44 44 0 0 0 2.03-1.58q.82-.67 1.32-1.23.49-.55.7-1.04.2-.5.2-1.05 0-.73-.46-1.17-.46-.45-1.26-.45-.83 0-1.34.55-.5.54-.59 1.45l-.86-.52q.1-.7.45-1.25.36-.54.95-.85.6-.3 1.43-.3.63 0 1.12.18t.86.53q.36.33.54.8.2.46.2 1.03 0 .76-.37 1.5-.37.73-1.22 1.53t-2.3 1.77v.01h.37l.48-.02.37-.01h2.84v.92zm17.77 0h-1.04l-.86-2.25h-3.69l-.86 2.25h-1.03l3.16-8.13h1.17zm-5.23-3.18h2.97l-1.5-4zm14.74-4.95v8.13h-.94v-5.1l.12-2.15h-.02l-2.67 7.25h-.84l-2.67-7.25h-.01l.11 2.14v5.11h-.93v-8.13h1.5l1.8 4.94.61 2.03h.03l.62-2.01 1.78-4.95zm10.7 4.4v1.02h-4.07v-1.02zm8.83 3.86q-1.09 0-1.75-.5-.65-.49-1.01-1.36l.96-.5q.2.63.6 1.04.42.4 1.22.4.57 0 .96-.22.4-.2.63-.59.22-.4.22-.94 0-.57-.2-.96a1.3 1.3 0 0 0-.59-.59q-.38-.2-.93-.2-.4 0-.74.1a2 2 0 0 0-.6.24 2 2 0 0 0-.47.45l-.86-.16.48-4.47h4.56v.93h-3.73l-.32 2.56-.02.11h.02a2 2 0 0 1 .75-.5 3 3 0 0 1 1.11-.18q.78 0 1.34.34.58.32.9.9t.32 1.39q0 .62-.2 1.13a3 3 0 0 1-.6.86q-.38.34-.9.53a3 3 0 0 1-1.15.18m5.45-6.4a.8.8 0 0 1 .58.22q.22.22.22.58a.8.8 0 0 1-.22.58.8.8 0 0 1-.58.22.8.8 0 0 1-.58-.22.8.8 0 0 1-.22-.58q0-.36.22-.58a.8.8 0 0 1 .58-.22m0 4.8a.8.8 0 0 1 .58.23.8.8 0 0 1 .22.57.8.8 0 0 1-.22.58.8.8 0 0 1-.58.22.8.8 0 0 1-.58-.22.8.8 0 0 1-.22-.58.8.8 0 0 1 .22-.57.8.8 0 0 1 .58-.23m5.65 1.6q-1.38 0-2.2-1.07t-.83-3.11.83-3.12 2.2-1.07q1.4 0 2.2 1.07.83 1.07.83 3.12t-.83 3.11q-.8 1.07-2.2 1.07m0-.88q.65 0 1.1-.37.45-.38.67-1.12.24-.74.24-1.81t-.24-1.81-.67-1.11q-.45-.38-1.1-.38t-1.1.38-.68 1.1q-.22.75-.23 1.82 0 1.07.23 1.8.23.75.67 1.13.46.37 1.11.37m8.34.76v-2.13h-3.97v-.73l3.7-5.27h1.25v5.15h1.44v.85h-1.44v2.13zm-2.92-2.98h2.92v-3.69l.05-.65h-.03l-.38.68q-.23.39-.43.67zm14.33-5.15q.83 0 1.43.31.62.3.96.85.35.56.35 1.32t-.35 1.32-.96.86q-.6.3-1.43.3h-1.88v3.17h-.99v-8.13zm-.15 4.03q.96 0 1.4-.4.45-.4.45-1.15 0-.76-.44-1.16-.45-.4-1.4-.4h-1.74v3.11zm12.65-4.03v8.13h-.93v-5.1l.1-2.15-2.68 7.25h-.83l-2.67-7.25h-.02l.11 2.14v5.11h-.93v-8.13h1.5l1.79 4.94.61 2.03h.03l.63-2.02 1.77-4.95z"/><rect width="341" height="100" x=".5" y="195.5" stroke="#d5d9e0" rx="13.5"/></g></svg>