<svg xmlns="http://www.w3.org/2000/svg" fill="none" class="svg" viewBox="0 0 347 318"><g class="rec-one"><path stroke="#e1e6ec" d="M315.05 159.69v54.11a4 4 0 0 1-4 4h-17.1m34.85-63.28V282.9a4 4 0 0 1-4 4h-20.76"/><path stroke="#e1e6ec" d="M27.82 155.07v61.3a4 4 0 0 0 4 4h17.1m-34.85-63.28v128.36a4 4 0 0 0 4 4h20.76"/><rect width="345.568" height="160.423" x=".493" y=".493" fill="#fff" filter="url(#homeRectDropShadow)" rx="7.489"/><rect width="345.568" height="160.423" x=".493" y=".493" stroke="#f5f6f7" stroke-width=".987" rx="7.489"/><path fill="#101828" d="M23.6 21.06v4.8q0 1.6-.87 2.42-.86.8-2.51.8-1.66 0-2.52-.8-.86-.81-.86-2.43v-4.79h1.65v4.72q0 1 .42 1.47.43.48 1.3.48t1.3-.48.42-1.47v-4.72zm1.7 10.42v-8.5h1.46l.11 1.9-.2-.21a3 3 0 0 1 .4-.94q.3-.4.75-.63.45-.24 1.02-.24.73 0 1.3.37t.9 1.06.33 1.67-.33 1.69q-.34.7-.92 1.06a2.4 2.4 0 0 1-1.32.37q-.79 0-1.32-.44a2.3 2.3 0 0 1-.7-1.11l.15-.25v4.2zm3.02-3.65q.66 0 1.03-.47.38-.48.38-1.39t-.37-1.37q-.36-.48-1.01-.48-.42 0-.75.22a1.4 1.4 0 0 0-.49.64q-.18.4-.18 1 0 .57.17.99t.48.64.74.22m6.1-7.47v6.76q0 .42.14.59t.48.17q.2 0 .33-.03.14-.03.34-.1l-.14 1.08q-.2.12-.52.18-.3.08-.6.08-.87 0-1.28-.42-.4-.43-.4-1.37v-6.94zm4.93 2.5q.91 0 1.6.37t1.07 1.07.4 1.67q0 .97-.4 1.68a2.6 2.6 0 0 1-1.07 1.06q-.69.38-1.6.38-.9 0-1.59-.38a2.7 2.7 0 0 1-1.09-1.06q-.38-.7-.38-1.68t.38-1.67a2.7 2.7 0 0 1 1.09-1.07q.7-.37 1.6-.37m0 1.22q-.46 0-.79.22-.3.2-.47.62t-.17 1.05q0 .64.17 1.06.16.42.47.63.33.2.78.2t.76-.2q.32-.21.49-.63t.16-1.06-.16-1.05a1.3 1.3 0 0 0-.5-.62 1.3 1.3 0 0 0-.75-.22m7.82 1.07q0-.52-.3-.8-.29-.3-.77-.3-.44 0-.78.23-.33.23-.49.76l-1.4-.43a2.2 2.2 0 0 1 .89-1.27q.7-.48 1.85-.48.8 0 1.38.25.59.24.91.73.34.5.34 1.24v2.43q0 .45.43.45.2 0 .38-.06l-.1 1.02q-.3.15-.77.15-.42 0-.76-.14a1 1 0 0 1-.53-.43q-.19-.3-.19-.74v-.05l.29-.05q-.07.46-.4.78a2 2 0 0 1-.79.48 3 3 0 0 1-.94.17q-.61 0-1.06-.18a1.5 1.5 0 0 1-.68-.55q-.24-.36-.24-.9 0-.66.43-1.08.44-.43 1.24-.59l2.25-.45-.01 1.02-1.44.28q-.4.09-.62.23-.2.13-.2.44 0 .3.2.46a1 1 0 0 0 .55.15q.25 0 .49-.06t.43-.19a1 1 0 0 0 .3-.36 1 1 0 0 0 .1-.55zm5.7 3.94q-.74 0-1.33-.38-.57-.37-.91-1.06-.32-.7-.32-1.67 0-.99.34-1.68.35-.71.94-1.07.6-.37 1.34-.37.79 0 1.3.45.52.46.67 1.18l-.15.19v-4.32h1.64v8.6h-1.47l-.11-1.81.2.1a2 2 0 0 1-.38.97q-.3.41-.76.64a2 2 0 0 1-1 .23m.48-1.26q.43 0 .74-.22t.48-.66q.18-.43.18-1.03 0-.57-.17-.97a1.4 1.4 0 0 0-.48-.62 1.3 1.3 0 0 0-.73-.21q-.67 0-1.05.48-.37.46-.37 1.37t.37 1.4q.37.46 1.03.46m14.5-5.44H63.6v2.01h3.37v1.33H63.6v3.24h-1.65v-7.9h5.92zm2.08-.27q-.52 0-.77-.22-.25-.23-.25-.66t.25-.65.77-.23.77.23q.25.21.25.65 0 .43-.25.66-.26.22-.77.22m.81.86v5.99H69.1v-6zm3.36-2.62v6.76q0 .42.14.59t.48.17q.2 0 .34-.03l.33-.1-.14 1.08q-.2.12-.52.18-.3.08-.6.08-.87 0-1.28-.42-.4-.43-.4-1.37v-6.94zm4.98 8.73q-.94 0-1.65-.38a2.6 2.6 0 0 1-1.08-1.06q-.38-.7-.38-1.68t.38-1.67 1.07-1.07q.7-.37 1.58-.37.91 0 1.54.37.64.36.97 1 .34.62.34 1.42l-.01.45q-.01.21-.04.39h-4.78v-1.14h4.06l-.79.29q0-.76-.34-1.16-.34-.41-.96-.41a1.4 1.4 0 0 0-.8.21q-.32.22-.48.65-.17.42-.17 1.07 0 .63.18 1.05.2.4.53.61.34.2.82.2.53 0 .85-.2.33-.2.5-.56l1.31.5a2 2 0 0 1-.59.8 3 3 0 0 1-.92.52q-.52.17-1.14.17"/><path stroke="#292d32" stroke-linecap="round" stroke-linejoin="round" stroke-width="1.198" d="m321.16 19.35 6.78 6.78"/><path stroke="#292d32" stroke-linecap="round" stroke-linejoin="round" stroke-width="1.198" d="m321.16 26.13 6.78-6.77"/><path fill="#232323" d="M22.08 51.22h-3.93v2.05h3.08v.97h-3.08v3.03H17v-7.03h5.07zm1.85-.17q-.37 0-.58-.18-.19-.19-.19-.53t.2-.52.57-.18q.36 0 .55.18t.2.52-.2.53q-.19.18-.55.18m.56.9v5.32h-1.14v-5.33zm2.9-2.4v6.23q0 .39.13.54t.46.15q.19 0 .32-.02l.34-.1-.13.84q-.18.09-.42.13a2 2 0 0 1-.46.05q-.72 0-1.06-.36-.33-.37-.33-1.14v-6.32zm4.54 7.82q-.8 0-1.4-.33a2.3 2.3 0 0 1-.95-.94q-.33-.63-.33-1.5t.33-1.47q.34-.63.94-.96t1.35-.33q.77 0 1.32.32.54.32.83.87t.28 1.26v.36l-.04.3h-4.28v-.88h3.78l-.56.17q0-.72-.36-1.1-.36-.4-1-.4-.45 0-.8.22t-.51.64q-.18.41-.18 1.02 0 .6.19 1 .19.42.54.64.35.2.83.2.53 0 .86-.2t.52-.56l.9.43a2 2 0 0 1-.51.67 2 2 0 0 1-.77.42 3 3 0 0 1-.98.15m13.03-7.13v4.33q0 1.4-.73 2.1-.74.7-2.14.7-1.39 0-2.13-.7t-.74-2.1v-4.33h1.14v4.2q0 .99.43 1.46.43.48 1.3.48t1.3-.48.43-1.46v-4.2zm1.75 9.26v-7.55h1l.1 1.49-.16-.18q.13-.42.4-.74t.66-.5.88-.18q.65 0 1.18.33t.84.95q.31.6.31 1.48 0 .87-.32 1.5a2.3 2.3 0 0 1-.85.94q-.53.33-1.2.33t-1.15-.35a2 2 0 0 1-.68-.91l.13-.18v3.57zm2.6-3.05q.7 0 1.08-.5.4-.48.4-1.34t-.39-1.36-1.06-.5q-.45 0-.8.24-.32.22-.51.64-.18.4-.18.98 0 .56.18.98t.5.63.79.23m5.17-6.9v6.23q0 .39.14.54.13.15.45.15.2 0 .32-.02.14-.03.34-.1l-.12.84q-.19.09-.42.13a2 2 0 0 1-.47.05q-.71 0-1.05-.36-.33-.37-.33-1.14v-6.32zM59 51.84q.77 0 1.37.33t.92.96q.34.61.34 1.48 0 .86-.34 1.49-.33.61-.92.94t-1.38.33-1.37-.33a2.4 2.4 0 0 1-.93-.94q-.34-.63-.34-1.5t.34-1.47q.34-.63.93-.96t1.38-.33m0 .9q-.48 0-.82.22-.33.2-.51.62-.19.42-.19 1.03 0 .6.18 1.02.18.41.51.64.35.2.83.2.47 0 .8-.2.33-.23.51-.64.18-.43.18-1.02 0-.61-.18-1.03a1.4 1.4 0 0 0-.5-.62q-.34-.23-.82-.23m7.14 1.12q0-.53-.3-.82-.29-.3-.8-.3-.48 0-.82.23-.34.22-.5.72l-.95-.4q.2-.65.78-1.05.6-.4 1.54-.4.64 0 1.13.22.48.2.76.62.29.41.29 1.06v2.38q0 .39.4.39.19 0 .37-.05l-.07.79a1.4 1.4 0 0 1-.62.11q-.34 0-.61-.11a1 1 0 0 1-.43-.38q-.15-.25-.15-.63v-.07l.24-.01a1.3 1.3 0 0 1-.4.69q-.3.27-.69.4a3 3 0 0 1-.8.13q-.5 0-.9-.16a1.4 1.4 0 0 1-.63-.48q-.22-.33-.22-.8 0-.6.38-.98.4-.39 1.1-.52l2.07-.4v.79l-1.51.3q-.45.1-.67.25-.22.16-.22.47t.22.48.62.17q.26 0 .5-.06.26-.07.47-.2a1 1 0 0 0 .3-.38q.12-.23.12-.55zm5.03 3.52q-.66 0-1.2-.33a2.3 2.3 0 0 1-.85-.94q-.3-.62-.3-1.48 0-.9.32-1.51.33-.62.89-.94.55-.33 1.21-.33.68 0 1.15.37t.63.97l-.13.12v-3.75h1.14v7.72h-1.01l-.08-1.45h.14a2 2 0 0 1-.35.84 2 2 0 0 1-.69.53q-.4.18-.87.18m.24-.91q.46 0 .79-.24t.51-.66.18-1.02q0-.55-.18-.94-.18-.41-.51-.62a1.3 1.3 0 0 0-.75-.21q-.7 0-1.1.49-.4.48-.4 1.35 0 .86.39 1.36.38.49 1.07.49"/><rect width="311.966" height="33.259" x="16.297" y="64.26" fill="#e6f0fe" filter="url(#homeRectDropShadow)" rx="2.328"/><rect width="311.966" height="33.259" x="16.297" y="64.26" stroke="#0266f3" stroke-dasharray="3.33 3.33" stroke-width=".665" rx="2.328"/><path fill="#0266f3" d="M34.52 76.66a2.67 2.67 0 0 0-3.76 0l-3.02 3.01a1.7 1.7 0 0 0-.49 1.18 1.66 1.66 0 0 0 2.84 1.18l1.41-1.41a1.33 1.33 0 0 0 0-1.89l-2.35 2.36a.33.33 0 1 1-.47-.47l3.02-3.02a1.33 1.33 0 0 1 1.88 0 1.33 1.33 0 0 1 0 1.88l-3.02 3.02-1.68 1.68a1.33 1.33 0 0 1-1.88 0 1.33 1.33 0 0 1 0-1.88l.06-.06a2.4 2.4 0 0 1-.47-1.42l-.54.54a2.66 2.66 0 0 0 0 3.76 2.66 2.66 0 0 0 3.77 0l4.7-4.7a2.66 2.66 0 0 0 0-3.76"/><path fill="#0266f3" d="M43.1 84.39v-7.03h2.5q1.25 0 1.82.52.58.53.58 1.42 0 .53-.31.97-.3.43-.87.54v.01q.63.12.99.58.37.44.37 1.02 0 .9-.67 1.44t-1.92.53zm.85-.8h1.84q.76 0 1.12-.3.38-.32.38-.87 0-.57-.38-.86-.36-.31-1.11-.31h-1.85zm0-3.14h1.66q1.5 0 1.5-1.15 0-1.14-1.5-1.14h-1.66zm5.95 3.94v-5.32h.69l.11.87a1.6 1.6 0 0 1 .65-.73q.44-.25 1.06-.25l.3.02q.17.02.28.09l-.15.77-.25-.06-.4-.02q-.33 0-.67.19-.33.2-.55.59t-.22.98v2.87zm6.38-5.43q.75 0 1.33.33t.91.96q.33.61.33 1.48 0 .86-.33 1.49a2.3 2.3 0 0 1-.91.94q-.58.33-1.33.33t-1.33-.33a2.3 2.3 0 0 1-.92-.94q-.33-.63-.33-1.5t.33-1.47.92-.96 1.33-.33m0 .74q-.55 0-.93.24a1.6 1.6 0 0 0-.6.7q-.2.45-.2 1.09 0 .63.2 1.08.22.46.6.7.38.25.93.25.54 0 .92-.24.39-.25.59-.7.21-.46.21-1.1 0-.63-.21-1.08a1.6 1.6 0 0 0-.59-.7q-.38-.24-.92-.24m10.68-.63h.95l-1.85 5.32h-.85l-1.5-4.24-1.42 4.24h-.85l-1.85-5.32h.94l1.34 4.33 1.45-4.33h.85l1.45 4.33zM71 84.5q-.78 0-1.44-.34a2.4 2.4 0 0 1-1-.93l.72-.52q.24.49.69.76.45.28 1.1.28.56 0 .88-.21.31-.23.31-.58a.6.6 0 0 0-.15-.4q-.13-.2-.54-.28l-1.27-.27q-.78-.16-1.12-.53-.33-.37-.33-.92 0-.44.24-.8.26-.36.72-.58t1.1-.22q.78 0 1.32.3.54.32.81.88l-.71.47a1.2 1.2 0 0 0-.59-.68 2 2 0 0 0-.84-.22q-.38 0-.66.1a1 1 0 0 0-.41.3.7.7 0 0 0-.14.41.7.7 0 0 0 .16.44q.16.2.6.28l1.32.27q.75.15 1.05.5.3.33.3.82 0 .5-.27.89-.27.37-.75.57-.47.2-1.1.2m5.92 0q-.76 0-1.35-.33a2.3 2.3 0 0 1-.92-.94q-.33-.63-.33-1.5t.33-1.47.9-.96 1.32-.33 1.26.32.81.87.28 1.23l-.01.33-.03.26h-4.3v-.75h3.92l-.43.08q0-.76-.43-1.18-.41-.41-1.1-.41-.52 0-.9.24a1.6 1.6 0 0 0-.59.7q-.2.44-.2 1.08 0 .63.22 1.08.2.46.6.7.38.24.93.24.58 0 .94-.22.38-.23.6-.61l.67.4q-.2.35-.52.62-.3.27-.73.42a3 3 0 0 1-.94.13m9.5-7.92q.28 0 .53.06t.38.18l-.22.7a1 1 0 0 0-.28-.12q-.15-.05-.33-.05-.46 0-.71.23-.26.21-.26.69v6.13h-.85v-6.22q0-.35.1-.65t.33-.5.55-.34a2 2 0 0 1 .77-.11m.88 2.5v.73h-3.7v-.73zm1.57-1.02a.7.7 0 0 1-.47-.17.7.7 0 0 1-.17-.47q0-.29.17-.46t.47-.18q.28 0 .45.18.18.17.18.46 0 .28-.18.46a.6.6 0 0 1-.45.17m.42 1.03v5.32h-.85v-5.32zm2.79-2.45v6.42q0 .4.15.56.15.15.48.15l.35-.03q.14-.03.37-.12l-.14.74q-.17.08-.37.11a2 2 0 0 1-.41.04q-.65 0-.97-.35t-.31-1.07v-6.45zm4.67 7.87q-.76 0-1.35-.33a2.3 2.3 0 0 1-.92-.94q-.33-.63-.33-1.5t.33-1.47.9-.96 1.32-.33 1.26.32.81.87q.28.54.28 1.23l-.01.33-.03.26h-4.3v-.75h3.92l-.43.08q0-.76-.43-1.18-.41-.42-1.1-.42-.52 0-.9.25a1.6 1.6 0 0 0-.58.7q-.2.44-.2 1.08 0 .62.2 1.08.22.46.6.7a2 2 0 0 0 .94.24q.58 0 .95-.22.37-.23.6-.61l.66.4q-.2.35-.52.62-.3.27-.73.42a3 3 0 0 1-.94.13m5.83 0a3 3 0 0 1-1.43-.33 2.4 2.4 0 0 1-1-.93l.72-.52q.23.49.68.76.46.28 1.1.28.56 0 .88-.21.32-.23.32-.58a.6.6 0 0 0-.15-.4q-.14-.2-.54-.28l-1.28-.27q-.78-.16-1.12-.53-.33-.37-.33-.92 0-.44.25-.8t.71-.58a2.5 2.5 0 0 1 1.1-.22q.78 0 1.33.3.54.32.8.88l-.7.47a1.2 1.2 0 0 0-.6-.68 2 2 0 0 0-.83-.23q-.39 0-.66.11a1 1 0 0 0-.42.3.7.7 0 0 0 .02.85q.16.2.6.28l1.33.27q.74.15 1.04.5t.3.82-.27.89q-.26.37-.74.57a3 3 0 0 1-1.1.2m9.52-5.53q.76 0 1.33.33.59.33.92.96.33.61.33 1.48 0 .86-.33 1.49-.33.61-.92.94-.57.33-1.33.33-.75 0-1.33-.33a2.3 2.3 0 0 1-.92-.94q-.33-.63-.33-1.5t.33-1.47.92-.96 1.33-.33m0 .73q-.54 0-.93.25a1.6 1.6 0 0 0-.6.7q-.2.45-.2 1.09 0 .62.2 1.08.22.46.6.7.39.25.93.25t.93-.25a1.6 1.6 0 0 0 .58-.7q.21-.46.21-1.08 0-.64-.21-1.09a1.6 1.6 0 0 0-.58-.7q-.39-.25-.93-.25m4.18 4.7v-5.32h.69l.12.87a1.6 1.6 0 0 1 .65-.74q.43-.24 1.05-.24l.3.02q.17.02.29.09l-.15.77-.26-.06-.4-.02q-.32 0-.66.19-.33.2-.56.58-.22.39-.22.98v2.88zm9.8.1a2.3 2.3 0 0 1-2.1-1.27q-.33-.63-.33-1.5 0-.88.35-1.5.35-.61.93-.93.57-.33 1.23-.33t1.14.34q.49.34.65.9l-.1.08v-3.66h.84v7.77h-.74l-.08-1.29.12-.06a1.6 1.6 0 0 1-.36.8 2 2 0 0 1-.7.48q-.4.17-.85.17m.08-.74q.51 0 .88-.26.39-.25.59-.72a3 3 0 0 0 .21-1.12q0-.6-.21-1.04a1.5 1.5 0 0 0-.58-.67 1.5 1.5 0 0 0-.85-.24q-.8 0-1.25.56-.45.55-.45 1.47t.44 1.47 1.22.55m4.51.64v-5.32h.7l.11.87q.23-.5.65-.74.44-.24 1.05-.24l.3.02a1 1 0 0 1 .29.09l-.15.77-.25-.06-.4-.02q-.33 0-.67.19-.33.2-.55.58-.23.39-.23.98v2.88zm7.3-3.44q0-.6-.31-.92-.32-.33-.9-.33-.56 0-.94.25-.38.23-.57.77l-.69-.43q.22-.6.79-.96.58-.37 1.43-.37.57 0 1.04.2t.73.6q.28.4.28 1.02v2.57q0 .39.4.39.2 0 .4-.06l-.04.67a1 1 0 0 1-.56.11q-.3 0-.55-.12a1 1 0 0 1-.38-.35 1 1 0 0 1-.14-.6v-.1l.21.02q-.13.42-.44.68a2 2 0 0 1-.69.39 3 3 0 0 1-.75.11q-.47 0-.88-.16a1.5 1.5 0 0 1-.64-.47q-.24-.33-.24-.81 0-.6.4-.98.4-.4 1.11-.53l2.1-.42v.7l-1.7.35q-.53.1-.78.3a.6.6 0 0 0-.26.53q0 .33.26.55.26.2.74.2.31 0 .59-.08.29-.08.51-.24.22-.17.35-.42t.13-.6zm7.41-2.86.2.75h-.08q-.52 0-.81.22-.28.2-.28.66l-.52-.27q0-.42.2-.72.18-.31.51-.47.33-.17.73-.17zm-1.62 5.62q.76 0 1.18.35.43.34.43.91 0 .52-.35.9-.34.4-.93.6a4 4 0 0 1-1.3.2q-1.25 0-1.88-.42-.62-.43-.62-1.02 0-.43.28-.77.29-.33.96-.37l-.08.16a1.5 1.5 0 0 1-.61-.32q-.25-.23-.25-.67t.32-.75q.33-.32.97-.39l.56.29h-.1q-.53.05-.75.26a.6.6 0 0 0-.21.45q0 .3.21.45.23.14.62.14zm-.98 2.25q.62 0 1.01-.13.4-.12.6-.33a.6.6 0 0 0 .2-.43.5.5 0 0 0-.24-.46q-.23-.17-.82-.17h-1.64a1 1 0 0 0-.57.17.6.6 0 0 0-.24.5q0 .38.45.62.46.23 1.25.23m-.07-7q.64 0 1.13.23.5.23.77.63.28.4.28.94 0 .52-.28.93-.27.41-.77.64a3 3 0 0 1-1.13.23q-1.05 0-1.62-.5-.56-.51-.56-1.3 0-.53.28-.94t.77-.63a3 3 0 0 1 1.13-.23m0 .7q-.55 0-.93.3a1 1 0 0 0-.37.8q0 .49.37.8.38.3.93.3t.93-.3a1 1 0 0 0 .37-.8q0-.5-.38-.8-.37-.3-.92-.3m10.59 1.29q0-.6-.32-.92t-.9-.33q-.56 0-.94.25-.38.23-.57.77l-.69-.43a2 2 0 0 1 .8-.96q.57-.37 1.42-.37.57 0 1.04.2t.73.6q.28.4.28 1.02v2.57q0 .39.4.39.2 0 .4-.06l-.04.67a1 1 0 0 1-.56.11q-.3 0-.55-.12a1 1 0 0 1-.38-.35 1 1 0 0 1-.14-.6v-.1l.21.02q-.13.42-.44.68a2 2 0 0 1-.69.39 3 3 0 0 1-.75.11 2 2 0 0 1-.88-.16 1.5 1.5 0 0 1-.65-.47q-.23-.33-.23-.81 0-.6.4-.98.4-.4 1.11-.54l2.11-.41v.7l-1.71.35q-.52.1-.78.3a.6.6 0 0 0-.26.53q0 .33.26.55.27.2.74.2.31 0 .59-.08a2 2 0 0 0 .51-.24q.22-.17.35-.42t.13-.6zm2.92 3.44v-5.32h.75l.07 1.19-.14-.12a1.8 1.8 0 0 1 1.12-1.06q.38-.12.79-.12.57 0 1.04.22t.74.66q.3.45.3 1.14v3.4h-.86v-3.1q0-.88-.38-1.22a1.3 1.3 0 0 0-.93-.36q-.38 0-.76.18-.39.19-.64.6t-.25 1.08v2.83zm8.66.1q-.66 0-1.2-.33a2.4 2.4 0 0 1-.9-.94q-.32-.63-.32-1.5 0-.88.35-1.5.35-.61.92-.93a2.4 2.4 0 0 1 1.24-.33q.66 0 1.14.34.49.34.65.9l-.1.08v-3.66h.84v7.77h-.74l-.08-1.29.12-.06q-.07.46-.36.8a2 2 0 0 1-.7.48 2 2 0 0 1-.86.17m.09-.74q.51 0 .88-.26a1.6 1.6 0 0 0 .59-.72q.21-.48.21-1.12 0-.6-.21-1.04a1.5 1.5 0 0 0-.58-.67 1.5 1.5 0 0 0-.85-.24q-.8 0-1.25.56-.45.55-.45 1.47t.44 1.47 1.22.55m10.22.74q-.66 0-1.22-.33a2.4 2.4 0 0 1-.88-.94q-.33-.63-.33-1.5 0-.88.35-1.5.35-.61.92-.93a2.4 2.4 0 0 1 1.24-.33q.66 0 1.14.34.49.34.65.9l-.1.08v-3.66h.84v7.77h-.74L177 83.1l.12-.06q-.07.46-.36.8a2 2 0 0 1-.7.48 2 2 0 0 1-.85.17m.08-.74q.51 0 .88-.26.39-.25.59-.72a3 3 0 0 0 .21-1.12q0-.6-.21-1.04a1.5 1.5 0 0 0-.58-.67 1.5 1.5 0 0 0-.85-.24q-.8 0-1.25.56-.45.55-.45 1.47t.44 1.47 1.22.55m4.51.64v-5.32h.7l.11.87q.22-.5.65-.74t1.05-.24l.3.02q.17.02.29.09l-.15.77-.26-.06-.39-.02q-.33 0-.67.19-.33.2-.55.58-.23.39-.23.98v2.88zm6.38-5.43q.76 0 1.33.33.59.33.92.96.33.61.33 1.48 0 .86-.33 1.49a2.3 2.3 0 0 1-.92.94q-.57.33-1.33.33-.74 0-1.33-.33a2.3 2.3 0 0 1-.91-.94q-.33-.63-.33-1.5t.33-1.47.91-.96 1.33-.33m0 .73q-.54 0-.92.25a1.6 1.6 0 0 0-.6.7q-.2.45-.2 1.09 0 .62.2 1.08t.6.7q.38.25.92.25t.93-.25.58-.7q.22-.46.22-1.08 0-.64-.22-1.09a1.6 1.6 0 0 0-.58-.7q-.38-.25-.93-.25m4.18 6.93v-7.55h.75l.07 1.3-.12-.16q.14-.37.42-.64.28-.3.67-.45a2 2 0 0 1 .85-.16q.65 0 1.2.33t.88.95q.33.61.33 1.49 0 .86-.34 1.49-.33.61-.89.94t-1.21.33-1.16-.32a2 2 0 0 1-.7-.83l.1-.16v3.44zm2.52-2.87q.8 0 1.23-.55.45-.56.45-1.47 0-.92-.44-1.47-.43-.56-1.2-.56-.52 0-.9.26a1.6 1.6 0 0 0-.6.7q-.2.45-.2 1.07 0 .6.2 1.06t.58.71.88.25m7.78.64v-7.77h.85v3.24q.28-.48.74-.69a2 2 0 0 1 1-.21q.57 0 1.04.22t.75.66q.28.45.28 1.14v3.4h-.85v-3.1q0-.88-.38-1.22a1.3 1.3 0 0 0-.93-.36q-.38 0-.76.18-.39.19-.64.6t-.25 1.09v2.82zm8.81.1q-.75 0-1.35-.33a2.3 2.3 0 0 1-.91-.94q-.33-.63-.33-1.5t.33-1.47.9-.96 1.31-.33q.75 0 1.27.32.53.32.8.87.28.54.28 1.23v.33l-.04.26h-4.3v-.75h3.93l-.44.08q0-.76-.42-1.18t-1.1-.42q-.52 0-.9.25a1.6 1.6 0 0 0-.59.7q-.2.44-.2 1.08 0 .62.21 1.08t.6.7q.4.24.93.24.59 0 .95-.22.37-.23.6-.61l.67.4q-.2.35-.52.62a2 2 0 0 1-.74.42 3 3 0 0 1-.94.13m3.92-.1v-5.32h.7l.11.87q.22-.5.65-.74t1.05-.24l.3.02a1 1 0 0 1 .29.09l-.15.77-.26-.06-.39-.02q-.33 0-.67.19-.33.2-.55.58-.23.39-.23.98v2.88zm6.4.1q-.75 0-1.35-.33a2.3 2.3 0 0 1-.91-.94q-.33-.63-.33-1.5t.33-1.47.9-.96 1.31-.33q.75 0 1.27.32.53.32.8.87.28.54.28 1.23v.33l-.04.26h-4.3v-.75h3.93l-.44.08q0-.76-.42-1.18t-1.1-.42q-.52 0-.9.25a1.6 1.6 0 0 0-.59.7q-.2.44-.2 1.08 0 .62.21 1.08t.6.7q.4.24.93.24.59 0 .95-.22a2 2 0 0 0 .6-.61l.67.4q-.2.35-.52.62-.31.27-.74.42a3 3 0 0 1-.94.13"/><g filter="url(#filter0_d_6028_34744)"><rect width="152.99" height="28.303" x="15.965" y="117.143" fill="#fff" rx="5.321"/><rect width="152.324" height="27.638" x="16.297" y="117.475" stroke="#d0d5dd" stroke-width=".665" rx="4.989"/><path fill="#344054" d="M81.39 132.86a3 3 0 0 1-.64 1.14q-.43.46-1.03.68a4 4 0 0 1-1.31.22q-1.04 0-1.81-.43a3 3 0 0 1-1.17-1.25q-.4-.8-.4-1.94t.4-1.93a3 3 0 0 1 1.17-1.25q.77-.44 1.79-.44.72 0 1.3.2.6.2 1 .6t.6 1.02l-1.33.57q-.18-.64-.55-.9-.37-.28-.96-.28-.57 0-1 .27-.44.28-.67.82t-.23 1.32.21 1.32q.22.54.65.82.42.28 1.04.28.58 0 1-.31.42-.3.59-.94zm4.14-1.46q0-.46-.27-.71-.26-.26-.68-.26-.4 0-.7.2t-.43.67l-1.25-.38a2 2 0 0 1 .8-1.13q.61-.42 1.64-.42.7 0 1.23.22.52.21.8.65.3.44.3 1.1v2.16q0 .4.39.4.18 0 .34-.05l-.09.9q-.27.14-.7.14a2 2 0 0 1-.66-.13 1 1 0 0 1-.47-.38 1.2 1.2 0 0 1-.17-.66v-.04l.26-.04q-.07.4-.36.69a2 2 0 0 1-.7.42q-.4.15-.84.15-.54 0-.94-.16a1.4 1.4 0 0 1-.6-.49q-.22-.32-.22-.78 0-.6.39-.97.38-.39 1.1-.52l2-.41-.01.9-1.28.26q-.36.08-.56.2-.18.12-.18.4 0 .26.2.4a1 1 0 0 0 .47.14q.23 0 .44-.05t.38-.17a1 1 0 0 0 .27-.32q.1-.2.1-.5zm3.07 3.4v-5.33h1.31l.09 1.6-.18-.17q.13-.52.4-.86.28-.34.67-.5.4-.17.89-.17.55 0 .98.21t.68.65.25 1.07v3.5h-1.46v-3.08q0-.68-.26-.94-.27-.26-.7-.26a1 1 0 0 0-.58.15 1 1 0 0 0-.46.45q-.17.32-.17.86v2.82zm9-5.43q.72 0 1.21.21.5.2.8.56t.44.8l-1.37.48q-.1-.48-.36-.72-.25-.25-.69-.25-.4 0-.7.2-.28.18-.43.56-.15.37-.15.94t.15.93.45.56.7.18q.3 0 .53-.11a1 1 0 0 0 .37-.33q.15-.21.2-.51l1.32.42q-.12.48-.44.85a2 2 0 0 1-.82.56q-.5.2-1.16.2-.82 0-1.45-.33a2.3 2.3 0 0 1-.96-.95q-.34-.61-.34-1.49t.34-1.49.95-.94 1.42-.33m6.06 5.53q-.84 0-1.47-.33a2.3 2.3 0 0 1-.96-.95q-.34-.61-.34-1.49 0-.87.34-1.49a2.3 2.3 0 0 1 .95-.94q.62-.33 1.4-.33.81 0 1.38.33.56.32.86.88.3.55.3 1.27l-.01.4-.03.34h-4.25v-1h3.6l-.7.25q0-.67-.3-1.04-.3-.36-.86-.36-.4 0-.7.2a1.2 1.2 0 0 0-.43.57q-.15.37-.15.95 0 .56.16.93.17.36.46.55.31.18.74.18.47 0 .75-.18.3-.19.45-.5l1.16.44a2 2 0 0 1-.52.72 2 2 0 0 1-.82.45q-.47.15-1.01.15m5.13-7.76v6.02q0 .37.13.52t.42.15q.18 0 .3-.03l.3-.08-.13.96a1 1 0 0 1-.46.16 2 2 0 0 1-.53.06q-.77 0-1.14-.37-.35-.39-.35-1.21v-6.18z"/></g><g filter="url(#filter1_d_6028_34744)"><rect width="152.99" height="28.303" x="176.938" y="117.143" fill="#0266f3" rx="5.321"/><rect width="152.324" height="27.638" x="177.27" y="117.475" stroke="#0266f3" stroke-width=".665" rx="4.989"/><path fill="#fff" d="M230.21 127.77v4.26q0 1.43-.76 2.16-.77.71-2.24.71t-2.23-.71q-.77-.73-.77-2.16v-4.26h1.47v4.2q0 .88.37 1.3.38.43 1.16.43t1.15-.43.37-1.3v-4.2zm1.51 9.26v-7.56h1.31l.1 1.7-.18-.2q.1-.46.35-.83.27-.36.67-.56t.9-.21q.65 0 1.16.33.52.33.8.94.3.61.3 1.48 0 .88-.3 1.5a2 2 0 0 1-.82.95q-.5.33-1.17.33-.7 0-1.17-.4a2 2 0 0 1-.63-.98l.14-.23v3.74zm2.7-3.25q.58 0 .91-.41.34-.43.34-1.24t-.33-1.22q-.32-.42-.9-.42-.38 0-.66.2-.28.19-.44.56-.16.36-.16.88 0 .51.15.89.15.37.43.57t.66.2m5.41-6.65v6.02q0 .37.13.52t.43.15q.18 0 .3-.03l.3-.08-.13.96a1 1 0 0 1-.46.16 2 2 0 0 1-.53.06q-.78 0-1.14-.37-.35-.39-.35-1.21v-6.18zm4.4 2.23q.8 0 1.4.33.63.33.97.94.35.62.35 1.5 0 .86-.35 1.48a2.3 2.3 0 0 1-.96.95q-.6.33-1.42.33-.8 0-1.41-.33a2.4 2.4 0 0 1-.97-.95q-.34-.62-.34-1.49t.34-1.49.97-.94q.61-.33 1.41-.33m0 1.08q-.4 0-.69.2a1 1 0 0 0-.42.55q-.15.37-.15.93t.15.94.42.57q.29.18.7.18.39 0 .66-.18.29-.2.44-.57t.15-.94-.15-.93a1 1 0 0 0-.44-.56 1 1 0 0 0-.67-.19m6.95.95q0-.46-.27-.71-.25-.26-.68-.26-.4 0-.69.2-.3.2-.44.67l-1.24-.38a2 2 0 0 1 .79-1.13q.61-.42 1.65-.42.7 0 1.22.22.52.21.8.65.3.44.3 1.1v2.16q0 .4.39.4.18 0 .34-.05l-.08.9q-.28.14-.7.14-.37 0-.67-.13a1 1 0 0 1-.47-.38 1.2 1.2 0 0 1-.17-.66v-.04l.26-.04q-.06.4-.35.69a2 2 0 0 1-.7.42 2 2 0 0 1-.84.15 3 3 0 0 1-.94-.16 1.4 1.4 0 0 1-.6-.49q-.22-.32-.22-.78 0-.6.38-.97.39-.39 1.1-.52l2-.41-.01.9-1.28.26q-.36.08-.55.2-.18.12-.18.4 0 .26.19.4a1 1 0 0 0 .48.14q.22 0 .43-.05.22-.06.39-.17a1 1 0 0 0 .26-.32q.1-.2.1-.5zm5.07 3.5q-.66 0-1.18-.33a2.3 2.3 0 0 1-.81-.95q-.29-.61-.29-1.48 0-.88.3-1.5.32-.62.84-.94.53-.33 1.2-.33.7 0 1.15.4.46.4.6 1.04l-.14.17v-3.84h1.46v7.65h-1.31l-.1-1.61.18.08q-.07.5-.34.87a2 2 0 0 1-.67.57 2 2 0 0 1-.9.2m.43-1.12q.39 0 .66-.19.28-.2.43-.58.16-.39.16-.92 0-.5-.15-.86a1.2 1.2 0 0 0-.43-.55 1 1 0 0 0-.64-.2q-.6 0-.94.43-.33.41-.33 1.22t.33 1.24q.33.41.91.41m12.9-4.83h-3.8v1.79h3v1.18h-3v2.88h-1.46v-7.03h5.26zm1.84-.24q-.45 0-.68-.2-.22-.2-.22-.58 0-.4.22-.59.23-.2.68-.2t.68.2.23.59-.23.59-.68.19m.73.76v5.32h-1.46v-5.32zm2.98-2.33v6.02q0 .37.13.52t.42.15q.18 0 .3-.03l.3-.08-.13.96a1 1 0 0 1-.46.16 2 2 0 0 1-.53.06q-.78 0-1.14-.37-.35-.39-.35-1.21v-6.18zm4.43 7.76q-.84 0-1.47-.33a2.3 2.3 0 0 1-.96-.95q-.34-.61-.34-1.49t.34-1.49.95-.94 1.4-.33q.82 0 1.38.33.56.32.86.88.3.55.3 1.27l-.01.4-.03.34h-4.25v-1h3.6l-.7.25q0-.67-.3-1.04-.3-.36-.85-.36-.41 0-.7.2a1.2 1.2 0 0 0-.44.57q-.15.37-.15.95 0 .56.16.93.17.36.47.54t.73.19q.47 0 .76-.19.28-.18.44-.5l1.16.45a2 2 0 0 1-.52.71q-.34.3-.82.46-.47.15-1.01.15"/></g><rect width="258.395" height="60.753" x="43.37" y="185.554" fill="#fff" filter="url(#homeRectDropShadow)" rx="7.73"/><rect width="258.395" height="60.753" x="43.37" y="185.554" stroke="#f5f6f7" stroke-width=".736" rx="7.73"/><path fill="#fcd296" d="M55.74 200.84h12.14l7.6 6.03v19.62c0 1.2-.49 2.36-1.34 3.2a4.6 4.6 0 0 1-3.22 1.33H55.73a4.6 4.6 0 0 1-3.22-1.33 4.5 4.5 0 0 1-1.33-3.2v-21.13c0-1.2.48-2.35 1.33-3.2a4.6 4.6 0 0 1 3.22-1.32"/><path fill="#1e1e1e" fill-opacity=".9" d="M97.27 208.77a4 4 0 0 1-.8 1.35 3.5 3.5 0 0 1-1.24.82 4 4 0 0 1-1.58.28q-1.26 0-2.18-.54a3.6 3.6 0 0 1-1.43-1.55q-.5-1-.5-2.41t.5-2.42a3.6 3.6 0 0 1 1.43-1.55q.92-.54 2.17-.54.86 0 1.55.24t1.2.72q.48.47.75 1.19l-1.34.6q-.27-.79-.77-1.15-.5-.37-1.31-.37t-1.42.39-.95 1.11q-.33.73-.33 1.78 0 1.03.31 1.77.32.73.92 1.12t1.43.38q.8 0 1.39-.41.6-.42.85-1.26zm4.49-4.44q.96 0 1.7.41.75.41 1.16 1.2.42.77.42 1.84t-.42 1.85a3 3 0 0 1-1.15 1.18q-.75.41-1.71.41t-1.71-.4a3 3 0 0 1-1.17-1.19q-.42-.78-.42-1.85t.42-1.84a3 3 0 0 1 1.17-1.2q.74-.4 1.7-.4m0 1.1q-.59 0-1.01.28a1.7 1.7 0 0 0-.64.78q-.22.52-.22 1.28 0 .74.22 1.27.23.52.64.8.42.26 1.02.26t1-.27a2 2 0 0 0 .64-.8q.22-.52.22-1.26 0-.76-.22-1.28a1.7 1.7 0 0 0-.64-.78q-.4-.28-1-.28m5.07 5.65v-6.63h1.25l.07 1.12q.35-.64.92-.94a2.6 2.6 0 0 1 1.23-.3q.71 0 1.31.32t.91.97a2 2 0 0 1 .59-.73 2 2 0 0 1 .82-.42q.45-.15.89-.15.63 0 1.19.27.56.26.9.8.35.55.35 1.4v4.29h-1.42v-4.07q0-.8-.39-1.16-.38-.36-.98-.36-.46 0-.86.22-.38.23-.62.68-.24.44-.24 1.09v3.6h-1.42v-4.07q0-.8-.38-1.16-.39-.36-.98-.36-.4 0-.8.21a1.7 1.7 0 0 0-.66.66q-.27.45-.27 1.2v3.52zm12.57 2.78v-9.4h1.26l.1 1.85-.18-.23a3 3 0 0 1 .5-.91q.32-.4.82-.62a3 3 0 0 1 1.1-.23q.8 0 1.47.41t1.04 1.18q.39.76.39 1.84 0 1.09-.4 1.87-.39.77-1.06 1.18-.66.41-1.48.41-.85 0-1.45-.43-.6-.45-.85-1.14l.16-.23v4.45zm3.25-3.8q.86 0 1.34-.61.49-.6.49-1.68t-.48-1.69q-.47-.62-1.32-.62a1.7 1.7 0 0 0-.98.3q-.41.27-.65.79-.23.5-.23 1.22 0 .7.23 1.22.22.51.63.8.41.27.97.27m8.88-3.23q0-.67-.37-1.02-.36-.37-1-.38-.6 0-1.02.28t-.62.9l-1.2-.5q.26-.8.99-1.3.74-.49 1.9-.49.8 0 1.41.27.61.25.96.76.35.52.35 1.33v2.95q0 .5.5.5.23 0 .46-.07l-.08.98q-.3.15-.77.15-.42 0-.77-.15a1.3 1.3 0 0 1-.53-.46q-.19-.32-.19-.79v-.09l.3-.01a1.7 1.7 0 0 1-.5.86 3 3 0 0 1-.86.5 3 3 0 0 1-.99.16q-.62 0-1.13-.2a2 2 0 0 1-.78-.6q-.28-.4-.28-1 0-.74.48-1.22.5-.48 1.38-.65l2.57-.5-.01 1-1.87.38q-.56.1-.84.3t-.27.58.27.6q.3.21.77.21.33 0 .64-.08.32-.08.57-.25.25-.18.38-.46.15-.3.15-.7zm3.73 4.25v-6.63h1.26l.09 1.73-.19-.19q.19-.57.53-.94.36-.38.84-.56a3 3 0 0 1 1.03-.17q.7 0 1.26.28.57.26.9.8.33.55.33 1.39v4.29h-1.42v-3.86q0-.98-.4-1.35t-1.01-.38q-.44 0-.85.21a1.7 1.7 0 0 0-.7.65q-.26.45-.26 1.2v3.53zm13.81-6.63-2.9 7.41q-.3.77-.64 1.22-.33.45-.77.65a2.4 2.4 0 0 1-1.02.2q-.47 0-.88-.13a3 3 0 0 1-.7-.34l.34-1.1q.25.22.53.32t.62.1q.36 0 .64-.19t.51-.76l.3-.71-.7-1.64-2.07-5.03h1.59l1.47 4.16.38 1.25.44-1.36 1.39-4.05zm12.2 6.63h-1.5l-.83-2.3h-3.67l-.83 2.3h-1.46l3.3-8.75h1.7zm-5.6-3.45h2.87l-1.43-4.08zm9.42 3.58a4 4 0 0 1-1.81-.38 3 3 0 0 1-1.3-1.09l.98-.85q.29.55.83.88.56.32 1.33.32.6 0 .96-.22.36-.2.36-.6a.6.6 0 0 0-.17-.43q-.16-.2-.62-.3l-1.4-.3q-1.05-.2-1.5-.67t-.45-1.2q0-.55.31-1.01.32-.47.93-.75t1.49-.29q.99 0 1.7.36a2.4 2.4 0 0 1 1.07 1l-.99.82a1.6 1.6 0 0 0-.74-.79 2 2 0 0 0-1.02-.26q-.42 0-.73.1a1 1 0 0 0-.46.3.7.7 0 0 0-.16.43q0 .27.2.47t.72.3l1.5.32q.96.19 1.34.64.4.43.4 1.07t-.33 1.13q-.33.47-.95.74-.63.26-1.49.26m7.02 0a4 4 0 0 1-1.82-.38 3 3 0 0 1-1.3-1.09l.98-.85q.3.55.84.88.55.32 1.32.32.61 0 .97-.22.36-.2.36-.6a.6.6 0 0 0-.17-.43q-.16-.2-.63-.3l-1.39-.3q-1.06-.2-1.51-.67t-.45-1.2q0-.55.32-1.01.32-.47.93-.75t1.48-.29q1 0 1.7.36.7.34 1.07 1l-.98.82a1.6 1.6 0 0 0-.74-.79 2 2 0 0 0-1.02-.26q-.43 0-.73.1a1 1 0 0 0-.47.3.7.7 0 0 0-.16.43q0 .27.2.47t.72.3l1.5.32q.96.19 1.35.64.4.43.4 1.07t-.34 1.13q-.33.47-.95.74-.62.26-1.48.26m7.4 0q-1 0-1.76-.4a3 3 0 0 1-1.17-1.19q-.42-.78-.42-1.85t.42-1.84a3 3 0 0 1 1.16-1.2q.74-.4 1.68-.4.97 0 1.65.39.67.4 1.03 1.09t.36 1.56l-.01.45-.04.37h-5.33v-1.08h4.7l-.7.2q0-.9-.45-1.37-.45-.5-1.23-.5-.57 0-1 .27-.42.27-.65.8-.22.52-.22 1.27 0 .74.24 1.26t.67.78 1.04.27q.66 0 1.07-.26.41-.25.65-.7l1.13.53a3 3 0 0 1-.65.84 3 3 0 0 1-.96.53 4 4 0 0 1-1.22.18m6.53-8.7v6.58q0 .5.25.72.27.22.7.22.36 0 .63-.1.26-.12.49-.32l.31 1.03a2 2 0 0 1-.75.43 3 3 0 0 1-.98.14q-.57 0-1.05-.18a1.5 1.5 0 0 1-.74-.6q-.27-.42-.28-1.1v-6.43zm2.28 1.94v1.12h-4.97v-1.12zm3.92 6.76a4 4 0 0 1-1.82-.38 3 3 0 0 1-1.3-1.09l.98-.85q.3.55.84.88.56.32 1.32.32.61 0 .97-.22.36-.2.36-.6a.6.6 0 0 0-.17-.43q-.16-.2-.63-.3l-1.39-.3q-1.06-.2-1.5-.67-.46-.48-.46-1.2 0-.55.32-1.01.32-.47.93-.75t1.48-.29q1 0 1.7.36.7.34 1.07 1l-.98.82a1.6 1.6 0 0 0-.74-.79 2 2 0 0 0-1.02-.26q-.43 0-.73.1a1 1 0 0 0-.46.3.7.7 0 0 0-.16.43q0 .27.2.47t.71.3l1.51.32q.96.19 1.34.64.4.43.4 1.07t-.33 1.13q-.33.47-.96.74-.62.26-1.48.26"/><path fill="#1e1e1e" fill-opacity=".44" d="M90.82 230.77v-5.09l.02-.47a4 4 0 0 1-.8.58 4 4 0 0 1-.93.34l-.2-.96q.21-.03.5-.14t.6-.29.57-.37.4-.4h.93v6.8zm5.29.1q-1.23 0-1.93-.88-.7-.9-.7-2.62t.7-2.6q.7-.9 1.93-.9t1.92.9q.7.88.7 2.6t-.7 2.62q-.69.88-1.92.88m0-.93q.5 0 .82-.28.34-.29.5-.86.18-.57.18-1.43 0-.85-.17-1.42-.17-.58-.5-.86-.34-.29-.83-.29-.5 0-.84.3-.33.27-.5.85-.16.57-.16 1.42 0 .86.17 1.43.16.57.5.86.33.28.83.28m12.51-5.02h-3.81v1.98h2.99v.94h-3v2.93h-1.1v-6.8h4.92zm1.79-.17q-.36 0-.56-.17-.18-.19-.18-.52t.18-.5.56-.18q.35 0 .53.18.2.17.2.5t-.2.52q-.18.17-.53.17m.54.87v5.15h-1.1v-5.15zm2.8-2.32v6.03q0 .38.14.52t.44.15q.18 0 .3-.02.14-.03.34-.1l-.13.82a2 2 0 0 1-.4.12 2 2 0 0 1-.45.06q-.7 0-1.02-.36t-.32-1.1v-6.12zm4.4 7.58q-.77 0-1.35-.32a2.3 2.3 0 0 1-.92-.92q-.32-.61-.32-1.44 0-.84.32-1.44a2.3 2.3 0 0 1 .9-.92q.58-.32 1.32-.32t1.27.3.8.85q.29.54.29 1.22l-.01.35-.04.29h-4.14v-.85h3.66l-.55.16q0-.7-.35-1.07t-.96-.38q-.44 0-.77.2a1.3 1.3 0 0 0-.5.63q-.18.4-.18.99 0 .57.19.97.18.4.52.61t.8.2q.52 0 .84-.19a1.4 1.4 0 0 0 .5-.54l.88.4a2 2 0 0 1-.5.66 2 2 0 0 1-.74.41 3 3 0 0 1-.95.15m5.65 0q-.78 0-1.42-.3a2.5 2.5 0 0 1-1-.85l.76-.66q.22.42.65.68.43.25 1.03.25.47 0 .75-.17a.5.5 0 0 0 .28-.46.5.5 0 0 0-.14-.34q-.12-.15-.48-.24l-1.08-.22q-.83-.17-1.18-.53-.35-.37-.35-.94 0-.42.25-.78t.72-.58 1.16-.22q.77 0 1.31.27a2 2 0 0 1 .84.78l-.76.64a1.3 1.3 0 0 0-.58-.61 2 2 0 0 0-.8-.2q-.32 0-.56.07a1 1 0 0 0-.36.23.5.5 0 0 0-.13.34.5.5 0 0 0 .16.36q.15.16.56.24l1.17.25q.74.14 1.04.49t.31.84-.26.87q-.25.37-.74.58-.48.2-1.15.2"/><line x1="131.509" x2="131.509" y1="221.891" y2="232.651" stroke="#9c9c9c" stroke-width=".736"/><path fill="#1e1e1e" fill-opacity=".44" d="M142.2 228.97a3 3 0 0 1-.61 1.05 3 3 0 0 1-.97.64q-.56.21-1.23.21-.98 0-1.7-.42a3 3 0 0 1-1.11-1.2q-.4-.79-.4-1.88t.4-1.87a3 3 0 0 1 1.11-1.21q.72-.42 1.7-.42.66 0 1.2.18.54.19.93.56.38.37.58.93l-1.04.46q-.2-.6-.6-.89-.39-.28-1.02-.28t-1.1.3a2 2 0 0 0-.74.86q-.26.57-.26 1.38t.25 1.38.71.87 1.11.3q.63 0 1.08-.32.47-.33.66-.98zm1.26 1.8v-5.15h.94l.1.93q.2-.5.6-.77.42-.27 1.02-.27.15 0 .3.04l.26.07-.15.97-.26-.07-.37-.03q-.32 0-.63.18a1.3 1.3 0 0 0-.51.5q-.2.34-.2.87v2.73zm6.4.1q-.77 0-1.36-.32a2.3 2.3 0 0 1-.91-.91q-.32-.61-.32-1.44t.32-1.44a2.3 2.3 0 0 1 .9-.92q.58-.32 1.31-.32.75 0 1.28.3.52.31.8.85t.28 1.22v.35q0 .17-.04.29h-4.14v-.85h3.66l-.55.16q0-.7-.35-1.07t-.96-.38q-.44 0-.77.2t-.5.63q-.18.4-.18.98t.18.98.53.61q.34.2.8.2.52 0 .84-.19a1.4 1.4 0 0 0 .5-.54l.88.4a2 2 0 0 1-.5.66 2 2 0 0 1-.75.41 3 3 0 0 1-.95.15m6.67-3.42q0-.51-.29-.79-.27-.29-.77-.29-.46 0-.8.22-.32.21-.48.7l-.92-.4q.2-.62.76-1t1.48-.38q.62 0 1.1.2.47.2.74.6.28.4.27 1.03v2.3q0 .38.39.38.18 0 .36-.05l-.06.76a1.4 1.4 0 0 1-.6.11q-.33 0-.6-.1a1 1 0 0 1-.41-.37 1 1 0 0 1-.15-.6v-.08l.23-.01a1.3 1.3 0 0 1-.38.67 2 2 0 0 1-.67.4 3 3 0 0 1-.77.12q-.49 0-.88-.16a1.4 1.4 0 0 1-.6-.46q-.22-.32-.22-.79 0-.57.37-.94.38-.38 1.07-.51l2-.4-.01.78-1.46.3q-.43.08-.65.24a.5.5 0 0 0-.21.45q0 .29.21.46.23.17.6.17.26 0 .5-.06t.44-.2a1 1 0 0 0 .3-.36q.11-.23.11-.53zm4.2-3.36v5.13q0 .38.2.55t.55.18q.28 0 .48-.08.2-.1.38-.25l.25.8a2 2 0 0 1-.59.33 2 2 0 0 1-.76.12q-.44 0-.81-.15a1.2 1.2 0 0 1-.58-.46q-.2-.33-.22-.86v-5zm1.78 1.52v.86h-3.87v-.86zm3.36 5.25q-.78 0-1.36-.32a2.3 2.3 0 0 1-.92-.91q-.32-.61-.32-1.44t.32-1.44a2.3 2.3 0 0 1 .9-.92q.58-.32 1.31-.32.76 0 1.28.3.53.31.8.85.28.54.28 1.22v.35l-.04.29h-4.14v-.85h3.66l-.55.16q0-.7-.35-1.07t-.96-.38q-.44 0-.77.2t-.5.63q-.18.4-.18.98t.19.98.52.61q.34.2.8.2.52 0 .84-.19a1.4 1.4 0 0 0 .5-.54l.88.4a2 2 0 0 1-.5.66 2 2 0 0 1-.75.41 3 3 0 0 1-.94.15m5.67 0q-.64 0-1.17-.32a2 2 0 0 1-.81-.92q-.3-.6-.3-1.43 0-.87.32-1.47t.85-.9 1.18-.32q.66 0 1.11.36t.61.93l-.12.12v-3.63h1.1v7.47h-.98l-.08-1.4.14.01a2 2 0 0 1-.34.8q-.27.33-.67.52a2 2 0 0 1-.84.18m.23-.9q.45 0 .77-.22t.5-.64q.17-.4.17-.99 0-.53-.18-.91a1.3 1.3 0 0 0-.5-.6 1.3 1.3 0 0 0-.72-.2q-.69 0-1.07.47t-.38 1.3.37 1.32 1.04.48m9.84-4.48q.75 0 1.33.32.57.32.9.93.32.6.32 1.43 0 .84-.33 1.45a2.2 2.2 0 0 1-.9.91q-.57.32-1.32.32t-1.33-.32a2.3 2.3 0 0 1-.9-.91q-.34-.61-.34-1.45t.33-1.43a2.3 2.3 0 0 1 .9-.93q.58-.32 1.34-.32m0 .87q-.47 0-.8.22a1.3 1.3 0 0 0-.5.6q-.17.4-.17 1 0 .57.18.98.17.4.5.62.32.2.79.2t.78-.2q.32-.21.5-.62.17-.4.17-.99 0-.58-.18-.99a1.3 1.3 0 0 0-.49-.6q-.32-.22-.78-.22m3.94 4.4v-5.16h.98l.07 1.34-.14-.15q.14-.44.41-.73.28-.3.65-.43.38-.14.8-.14.55 0 .98.22.44.2.7.63t.26 1.07v3.34h-1.1v-3q0-.76-.32-1.05a1 1 0 0 0-.79-.3q-.34 0-.66.17a1.3 1.3 0 0 0-.53.5q-.2.35-.2.94v2.74zm10.8 0v-5.1l.03-.47a3.6 3.6 0 0 1-1.72.92l-.2-.96q.2-.03.5-.14t.6-.29.56-.37.4-.4h.93v6.8zm2.78 0v-.81q.98-.7 1.64-1.24a9 9 0 0 0 1.07-.99q.4-.45.58-.85.19-.42.19-.84 0-.55-.34-.89t-.95-.34q-.64 0-1.02.44-.37.42-.42 1.16l-.96-.44q.07-.65.38-1.12.3-.48.84-.74a3 3 0 0 1 1.23-.25q.58 0 1.01.16.45.17.74.46.3.3.46.68.16.4.16.84 0 .65-.32 1.26-.32.6-1 1.22-.7.63-1.82 1.35v.02q.12-.02.34-.02h.43l.35-.02h2.15v.95zm9.68-7.48-3.07 8.2h-1.03l3.07-8.2zm3.32 7.57q-1.23 0-1.93-.88-.7-.9-.7-2.62t.7-2.6q.7-.9 1.93-.9t1.92.9q.7.88.7 2.6t-.7 2.62q-.69.88-1.92.88m0-.93q.5 0 .82-.28.34-.29.5-.86.18-.57.18-1.43t-.17-1.42q-.17-.58-.5-.86-.34-.29-.83-.29-.5 0-.84.3-.33.27-.5.85-.16.56-.16 1.42t.17 1.43.5.86.83.28m6.17.93q-.9 0-1.5-.39-.57-.39-.91-1.13l1.03-.54q.15.5.46.82.32.3.94.3.43 0 .73-.15.31-.16.48-.45t.16-.71q0-.44-.15-.72a1 1 0 0 0-.45-.44q-.28-.15-.72-.15-.3 0-.55.06a2 2 0 0 0-.47.2 1 1 0 0 0-.36.33l-.9-.18.4-3.75h3.96v.95h-3.08l-.25 1.91-.02.12h.02q.24-.26.61-.4.38-.15.9-.15.66 0 1.13.28.48.27.75.75t.26 1.13q0 .55-.18.98a2 2 0 0 1-.53.74q-.34.3-.8.45a3 3 0 0 1-.96.14m7.39-7.57-3.07 8.2h-1.03l3.07-8.2zm.93 7.47v-.8q.98-.7 1.64-1.24a9 9 0 0 0 1.07-.99q.4-.45.58-.85.18-.42.18-.84 0-.55-.34-.89t-.94-.34q-.64 0-1.02.44-.37.42-.43 1.16l-.96-.44q.08-.65.39-1.12.3-.48.83-.74a3 3 0 0 1 1.24-.25q.58 0 1 .16.45.17.75.46t.45.68q.17.4.17.84 0 .65-.32 1.26-.32.6-1.01 1.22-.7.63-1.82 1.35v.02q.13-.02.34-.02h.44l.35-.02h2.14v.95zm8.57.1q-1.23 0-1.93-.88-.7-.9-.7-2.62t.7-2.6q.7-.9 1.93-.9t1.92.9q.7.88.7 2.6t-.7 2.62q-.69.88-1.92.88m0-.93q.49 0 .82-.28.34-.29.5-.86.18-.57.18-1.43 0-.85-.18-1.42-.16-.58-.5-.86t-.82-.29q-.5 0-.84.3-.33.27-.5.85-.16.57-.16 1.42 0 .86.17 1.43.16.57.5.86.33.28.83.28m3.95.83v-.8q.98-.7 1.64-1.24a9 9 0 0 0 1.07-.99q.4-.45.58-.85.19-.42.19-.84 0-.54-.34-.88t-.95-.34q-.64 0-1.02.43-.37.42-.43 1.16l-.95-.44q.07-.65.38-1.12a2 2 0 0 1 .83-.74 3 3 0 0 1 1.24-.25q.58 0 1 .16.45.17.75.46t.45.68q.17.4.17.84 0 .65-.32 1.26-.32.6-1.01 1.22t-1.81 1.35v.02q.12-.02.34-.02h.43l.35-.02h2.14v.95zm8.29.1q-.9 0-1.5-.39-.57-.39-.91-1.13l1.03-.54q.15.5.46.82.32.3.94.3.43 0 .73-.15.3-.16.47-.45t.17-.71-.16-.72a1 1 0 0 0-.44-.44q-.29-.15-.72-.15-.3 0-.56.06a2 2 0 0 0-.46.2 1 1 0 0 0-.36.33l-.9-.18.4-3.75h3.96v.95h-3.08l-.25 1.91-.02.12h.02q.24-.26.61-.4.38-.15.9-.15.66 0 1.13.28.48.27.74.75.27.49.27 1.13 0 .55-.18.99a2 2 0 0 1-.53.73q-.34.3-.8.45a3 3 0 0 1-.96.15"/><path stroke="#292d32" stroke-width="1.104" d="M285.37 220.22a1.23 1.23 0 0 0 1.22 1.23 1.23 1.23 0 0 0 1.23-1.23 1.23 1.23 0 0 0-1.23-1.22 1.23 1.23 0 0 0-1.22 1.22Z"/><path stroke="#292d32" stroke-width="1.104" d="M285.37 211.63a1.23 1.23 0 0 0 1.22 1.23 1.23 1.23 0 0 0 1.23-1.23 1.23 1.23 0 0 0-2.45 0Z"/><path stroke="#292d32" stroke-width="1.104" d="M285.37 215.93a1.23 1.23 0 0 0 1.22 1.23 1.23 1.23 0 0 0 1.23-1.23 1.23 1.23 0 0 0-1.23-1.23 1.23 1.23 0 0 0-1.22 1.23Z"/><rect width="258.395" height="60.753" x="43.37" y="256.284" fill="#fff" filter="url(#homeRectDropShadow)" rx="7.73"/><rect width="258.395" height="60.753" x="43.37" y="256.284" stroke="#f5f6f7" stroke-width=".736" rx="7.73"/><path fill="#e00017" d="M58.76 296.19q.46-.27 1-.51-.46.67-.98 1.3a4 4 0 0 1-1.37 1.23l-.07.03-.06-.1q-.2-.32.09-.77a4 4 0 0 1 1.4-1.18m5.28-3.55-.77.17q.57-1.12 1.08-2.26.51.95 1.1 1.85-.7.1-1.41.24m5.44 2.02a8 8 0 0 1-.94-.88q.75.02 1.32.12c.68.12 1 .31 1.11.45a.2.2 0 0 1 .06.14 1 1 0 0 1-.13.43 1 1 0 0 1-.2.26.2.2 0 0 1-.15.04c-.2-.01-.56-.15-1.07-.56m-4.8-10.22a14 14 0 0 1-.42 1.79l-.2-.75a5 5 0 0 1-.1-1.77c.09-.38.24-.53.43-.6q.15-.07.3-.1.06.1.08.43.01.4-.08 1z"/><path fill="#e00017" fill-rule="evenodd" d="M55.49 269.43h11.4c.57 0 1.11.23 1.52.63l7.98 7.99c.4.4.63.95.63 1.52v20.01a4.3 4.3 0 0 1-4.3 4.3H55.49a4.3 4.3 0 0 1-4.31-4.3v-25.84a4.3 4.3 0 0 1 4.3-4.3m11.85 3.22v4.3a2.15 2.15 0 0 0 2.16 2.16h4.3zm-11.49 26.2c.2.4.5.75.94.91.45.16.9.09 1.25-.06a6 6 0 0 0 2-1.7c.72-.86 1.47-2 2.2-3.25a25 25 0 0 1 4.3-.87c.64.82 1.31 1.53 1.96 2.04.6.48 1.3.87 2 .9a2 2 0 0 0 1.1-.3q.5-.34.77-.9.3-.58.3-1.2a2 2 0 0 0-.43-1.12 3.5 3.5 0 0 0-2.07-1 12 12 0 0 0-2.88-.11 24 24 0 0 1-2.1-3.63 21 21 0 0 0 1.11-3.87q.13-.7.1-1.32a3 3 0 0 0-.27-1.16 1.5 1.5 0 0 0-1.02-.78c-.44-.1-.89 0-1.3.16a2.3 2.3 0 0 0-1.4 1.78 6 6 0 0 0 .1 2.44q.3 1.33.92 2.8a43 43 0 0 1-2.28 4.79 17 17 0 0 0-3.2 1.39c-.8.47-1.5 1.03-1.93 1.7a2.3 2.3 0 0 0-.17 2.37" clip-rule="evenodd"/><path fill="#1e1e1e" fill-opacity=".9" d="M100.52 273.08v8.74H99.2v-5.06l.1-2.41h-.01l-2.67 7.47h-1.18l-2.66-7.47h-.01l.1 2.4v5.07h-1.3v-8.74h2.1l1.76 5.06.61 2.08h.03l.62-2.08 1.75-5.06zm6.16 4.49q0-.67-.37-1.02-.36-.37-1-.38-.59 0-1.01.28t-.63.9l-1.19-.5a2.4 2.4 0 0 1 .98-1.3q.74-.49 1.9-.49.8 0 1.41.27.61.25.96.77.36.51.36 1.32v2.96q0 .49.49.49.24 0 .46-.07l-.08.98q-.3.15-.77.15a2 2 0 0 1-.77-.15 1.3 1.3 0 0 1-.53-.46q-.18-.32-.18-.78v-.1l.29-.01a1.7 1.7 0 0 1-.5.86 3 3 0 0 1-.85.5 3 3 0 0 1-1 .16q-.62 0-1.12-.2a2 2 0 0 1-.78-.6q-.28-.4-.28-1 0-.74.47-1.22.5-.47 1.38-.65l2.57-.5-.01 1-1.87.38q-.55.1-.83.3t-.28.59.28.6q.29.2.76.2.34 0 .64-.08a2 2 0 0 0 .57-.25q.25-.18.38-.46.15-.3.15-.7zm5.4-4.32v6.58q0 .5.26.72t.7.22q.36 0 .62-.1.27-.12.5-.32l.31 1.03a2 2 0 0 1-.76.43 3 3 0 0 1-.98.14q-.57 0-1.04-.18a1.5 1.5 0 0 1-.74-.6q-.27-.42-.28-1.1v-6.43zm2.28 1.95v1.1h-4.96v-1.1zm4.27-.14q.8 0 1.35.24.57.23.95.65.39.42.59.97l-1.34.53q-.17-.61-.56-.93-.37-.33-.98-.33-.6 0-1.02.28a1.7 1.7 0 0 0-.65.78q-.21.51-.21 1.27 0 .74.22 1.26.23.52.65.78.43.27 1.01.27.45 0 .78-.15.33-.16.55-.44t.3-.7l1.29.44a3 3 0 0 1-.59 1.04 3 3 0 0 1-.96.7 4 4 0 0 1-1.34.23q-.98 0-1.74-.4a3 3 0 0 1-1.18-1.19q-.4-.78-.4-1.85 0-1.08.4-1.84a3 3 0 0 1 1.17-1.2q.75-.4 1.7-.4m4.59 6.75v-9.6h1.41v4.03q.33-.62.9-.9a3 3 0 0 1 1.25-.29q.7 0 1.26.28.57.26.9.8.33.55.33 1.39v4.29h-1.42v-3.84q0-.98-.4-1.37-.4-.38-1.01-.38-.43 0-.85.21-.41.2-.69.66-.27.45-.27 1.22v3.5zm16.07-8.74q.94 0 1.62.33.7.33 1.07.94t.39 1.47q0 .84-.39 1.47-.38.6-1.07.94-.67.33-1.62.33h-1.94v3.26h-1.42v-8.74zm-.22 4.26q.94 0 1.38-.38.45-.4.45-1.14 0-.76-.45-1.14-.44-.4-1.38-.4h-1.72v3.06zm8.8.23q0-.67-.37-1.02-.36-.37-1-.38-.6 0-1.02.28t-.62.9l-1.2-.5a2.4 2.4 0 0 1 .99-1.3q.74-.49 1.9-.49.8 0 1.41.27.61.25.95.77.36.51.36 1.32v2.96q0 .49.5.49.23 0 .46-.07l-.08.98q-.3.15-.77.15-.43 0-.77-.15a1.3 1.3 0 0 1-.53-.46q-.19-.32-.19-.78v-.1l.3-.01q-.12.52-.5.86a3 3 0 0 1-.86.5 3 3 0 0 1-.99.16q-.62 0-1.13-.2a2 2 0 0 1-.78-.6q-.28-.4-.28-1 0-.74.48-1.22.5-.47 1.38-.65l2.57-.5-.01 1-1.87.38q-.56.1-.84.3t-.28.59a.7.7 0 0 0 .28.6q.3.2.77.2.33 0 .64-.08a2 2 0 0 0 .57-.25 1 1 0 0 0 .38-.46q.15-.3.15-.7zm9.14-2.37-2.9 7.4q-.3.77-.64 1.22a2 2 0 0 1-.77.65 3 3 0 0 1-1.02.2q-.47 0-.88-.13a3 3 0 0 1-.7-.33l.34-1.1q.25.2.53.31t.62.11q.36 0 .64-.2.29-.19.51-.75l.3-.72-.7-1.64-2.07-5.03h1.59l1.47 4.17.38 1.24.44-1.36 1.4-4.05zm1.21 6.62v-6.62h1.2l.14 1.19q.26-.65.78-.98.53-.35 1.3-.35.2 0 .4.04.2.03.33.1l-.2 1.24-.33-.08a2 2 0 0 0-.48-.04q-.4 0-.8.23a2 2 0 0 0-.67.65q-.25.43-.25 1.1v3.52zm8.2-6.76q.96 0 1.7.41.75.41 1.16 1.2.42.76.42 1.84 0 1.07-.42 1.85a3 3 0 0 1-1.16 1.18q-.74.41-1.7.41t-1.72-.4a3 3 0 0 1-1.16-1.19q-.43-.78-.43-1.85 0-1.08.43-1.84a3 3 0 0 1 1.16-1.2q.75-.4 1.71-.4m0 1.1q-.6 0-1.02.28-.4.27-.63.79-.23.51-.23 1.27 0 .74.23 1.27.22.52.63.8.43.26 1.02.26t1.01-.26.64-.8.22-1.27q0-.76-.22-1.27t-.64-.79q-.4-.27-1-.27m6.44-3.97v7.76q0 .49.17.67t.57.19q.24 0 .4-.03l.43-.13-.16 1.06q-.23.1-.52.16a3 3 0 0 1-.58.06q-.89 0-1.31-.45-.42-.46-.42-1.42v-7.87zm4.13 0v7.76q0 .49.17.67t.57.19q.24 0 .4-.03l.42-.13-.15 1.06q-.23.1-.52.16a3 3 0 0 1-.58.06q-.9 0-1.32-.45-.4-.46-.4-1.42v-7.87zm10.44.87q1.4 0 2.22.7.84.7.84 1.9 0 1.22-.84 1.9-.82.66-2.22.66l-.14.08h-2.03v3.5h-1.4v-8.74zm-.11 4.06q.86 0 1.27-.34.42-.36.42-1.09 0-.71-.42-1.07-.41-.36-1.27-.36h-2.06v2.86zm.83.3 2.85 4.38h-1.63l-2.44-3.83zm7.15 4.51q-1 0-1.75-.4a3 3 0 0 1-1.18-1.19q-.41-.78-.41-1.85 0-1.08.41-1.84a3 3 0 0 1 1.17-1.2q.74-.4 1.68-.4.97 0 1.64.39.68.4 1.04 1.09t.35 1.56v.45l-.05.37h-5.33v-1.08h4.7l-.7.2q0-.9-.44-1.37-.45-.5-1.24-.5-.57 0-1 .27-.41.27-.64.8-.22.52-.22 1.27 0 .74.23 1.26t.68.78 1.03.27q.67 0 1.08-.25.4-.26.65-.7l1.12.52a3 3 0 0 1-.65.84q-.4.34-.95.53a4 4 0 0 1-1.22.18m4.74 2.65v-9.4h1.26l.1 1.85-.18-.22q.16-.52.5-.92t.82-.62a3 3 0 0 1 1.1-.23q.8 0 1.47.41t1.04 1.18q.39.76.39 1.84t-.4 1.87q-.38.77-1.06 1.18a3 3 0 0 1-1.48.41q-.85 0-1.45-.43a2.5 2.5 0 0 1-.85-1.14l.16-.23v4.45zm3.25-3.8q.86 0 1.34-.61t.49-1.68q0-1.08-.48-1.68-.47-.63-1.32-.63a1.7 1.7 0 0 0-.98.3 2 2 0 0 0-.65.79q-.23.5-.23 1.22 0 .7.23 1.22.22.51.63.8.41.27.97.27m7.94-5.74q.97 0 1.7.41.75.41 1.16 1.2.42.76.42 1.84 0 1.07-.42 1.85a3 3 0 0 1-1.15 1.18q-.74.41-1.71.41t-1.71-.4a3 3 0 0 1-1.17-1.19q-.42-.78-.42-1.85 0-1.08.42-1.84a3 3 0 0 1 1.17-1.2q.74-.4 1.7-.4m0 1.1q-.59 0-1.01.28-.41.27-.64.79-.22.51-.22 1.27 0 .74.22 1.27.23.52.64.8.42.26 1.02.26t1-.26q.42-.28.64-.8.23-.53.23-1.27 0-.76-.23-1.27t-.63-.79-1.01-.27m5.07 5.64v-6.62h1.2l.14 1.19q.26-.65.78-.98.53-.35 1.3-.35.2 0 .4.04.2.03.33.1l-.2 1.24-.33-.08a2 2 0 0 0-.48-.04q-.41 0-.81.23a2 2 0 0 0-.66.65q-.25.43-.25 1.1v3.52zm7.1-8.57v6.58q0 .5.25.72.26.22.7.22.36 0 .62-.1.27-.12.5-.32l.31 1.03a2 2 0 0 1-.75.43 3 3 0 0 1-.98.14q-.57 0-1.05-.18a1.5 1.5 0 0 1-.74-.6q-.27-.42-.28-1.1v-6.43zm2.28 1.95v1.1h-4.97v-1.1z"/><path fill="#1e1e1e" fill-opacity=".44" d="M96.92 299.7a3 3 0 0 1-.62 1.05 3 3 0 0 1-.97.64q-.55.22-1.22.22-.98 0-1.7-.43a3 3 0 0 1-1.12-1.2q-.39-.79-.39-1.88 0-1.1.4-1.87a3 3 0 0 1 1.1-1.21q.73-.42 1.7-.42.67 0 1.2.18.55.19.93.56t.59.93l-1.04.46q-.2-.6-.6-.89t-1.02-.28-1.1.3a2 2 0 0 0-.75.86q-.25.57-.25 1.38t.24 1.38.71.87 1.12.3q.63 0 1.08-.32.47-.33.66-.98zm1.25 1.8v-5.15h.94l.1.93q.21-.5.61-.77.42-.26 1.01-.26.16 0 .31.03l.26.07-.15.97-.26-.06-.37-.04a1.3 1.3 0 0 0-.63.18q-.31.17-.52.5-.2.34-.2.87v2.73zm6.4.1q-.76 0-1.35-.31a2.3 2.3 0 0 1-.92-.92q-.32-.6-.32-1.45 0-.83.32-1.43a2.3 2.3 0 0 1 .9-.93 3 3 0 0 1 1.32-.31q.75 0 1.27.3.53.31.8.85.29.54.29 1.22l-.01.35-.03.28h-4.15v-.84h3.66l-.54.16q0-.7-.36-1.07-.35-.38-.95-.38-.45 0-.78.2a1.3 1.3 0 0 0-.5.63q-.18.4-.18.99 0 .57.19.98.18.4.52.6t.8.2q.52 0 .84-.19.32-.2.5-.54l.88.4a2 2 0 0 1-1.24 1.07 3 3 0 0 1-.95.15m6.67-3.42q0-.51-.3-.79-.27-.29-.76-.29-.47 0-.8.22-.33.21-.48.7l-.93-.4a2 2 0 0 1 .76-1q.58-.38 1.49-.38.62 0 1.09.2t.74.6q.28.4.28 1.03v2.3q0 .38.38.38.19 0 .36-.05l-.06.76a1.4 1.4 0 0 1-.6.11q-.33 0-.6-.1a1 1 0 0 1-.4-.37 1 1 0 0 1-.15-.6v-.08l.23-.01a1.3 1.3 0 0 1-.39.67 2 2 0 0 1-.67.4 3 3 0 0 1-.77.12q-.48 0-.87-.16a1.4 1.4 0 0 1-.61-.46 1.4 1.4 0 0 1-.22-.79q0-.57.37-.94.38-.38 1.07-.51l2-.4v.78l-1.46.3q-.43.08-.65.24a.5.5 0 0 0-.22.45.6.6 0 0 0 .22.47q.23.16.6.16.26 0 .5-.06t.44-.2a1 1 0 0 0 .3-.36 1 1 0 0 0 .1-.53zm4.2-3.36v5.13q0 .38.2.55t.54.18q.28 0 .49-.08.2-.1.38-.25l.25.8a2 2 0 0 1-.6.33 2 2 0 0 1-.75.11q-.45 0-.82-.14a1.2 1.2 0 0 1-.58-.46q-.2-.33-.21-.86v-5zm1.77 1.52v.86h-3.86v-.86zm3.36 5.25q-.77 0-1.36-.31a2.3 2.3 0 0 1-.92-.92q-.32-.6-.32-1.45 0-.83.32-1.43a2.3 2.3 0 0 1 .91-.93 3 3 0 0 1 1.3-.31q.76 0 1.29.3.52.31.8.85t.28 1.22l-.01.35-.03.29h-4.14v-.85h3.65l-.54.17q0-.7-.35-1.08t-.96-.38q-.44 0-.77.2a1.3 1.3 0 0 0-.5.63q-.18.4-.18.99 0 .57.18.98.19.4.53.6t.8.2q.52 0 .84-.19.32-.2.5-.54l.88.4a2 2 0 0 1-1.25 1.07 3 3 0 0 1-.95.15m5.67 0q-.64 0-1.16-.32a2 2 0 0 1-.82-.92q-.3-.6-.3-1.43 0-.87.32-1.47t.86-.9a2.3 2.3 0 0 1 1.17-.32q.66 0 1.12.36.45.36.6.93l-.12.12v-3.63h1.1v7.47h-.98l-.08-1.4.15.01a2 2 0 0 1-.34.8q-.27.33-.67.52a2 2 0 0 1-.85.18m.24-.9q.44 0 .76-.22t.5-.64.17-.99q0-.53-.17-.91a1.4 1.4 0 0 0-.5-.6 1.3 1.3 0 0 0-.72-.2q-.7 0-1.07.47t-.38 1.3q0 .84.37 1.33.37.47 1.04.47m9.83-4.47q.76 0 1.33.32t.9.92.33 1.44-.33 1.44a2.2 2.2 0 0 1-.9.92q-.57.32-1.33.32-.75 0-1.33-.32a2.3 2.3 0 0 1-.9-.92q-.33-.6-.33-1.44t.33-1.44.9-.92 1.33-.32m0 .86q-.46 0-.8.22-.31.2-.49.6t-.17 1q0 .57.17.99.18.4.5.61.33.21.8.2.46 0 .78-.2t.49-.61.18-1-.18-.98a1.3 1.3 0 0 0-.5-.61 1.4 1.4 0 0 0-.78-.22m3.95 4.4v-5.16h.97l.08 1.34-.15-.15q.15-.44.42-.73.27-.3.64-.43.39-.13.8-.13.55 0 .99.21t.7.63.26 1.07v3.34h-1.1v-3q0-.76-.33-1.05a1 1 0 0 0-.78-.3q-.34 0-.66.17a1.3 1.3 0 0 0-.54.5q-.2.35-.2.94v2.74zm10.8 0v-5.1l.02-.47a4 4 0 0 1-.8.58 4 4 0 0 1-.92.34l-.2-.95q.21-.04.5-.15t.6-.29q.3-.17.57-.37.25-.2.4-.4h.93v6.8zm2.78 0v-.81a34 34 0 0 0 1.64-1.24 9 9 0 0 0 1.07-.99q.4-.45.58-.85.18-.42.18-.84 0-.54-.34-.88t-.94-.34q-.64 0-1.03.43-.37.42-.42 1.16l-.96-.44q.08-.65.39-1.12.3-.48.83-.74.54-.25 1.24-.25.57 0 1 .16.45.17.75.47.3.28.45.68.17.39.17.83 0 .65-.32 1.26-.32.6-1.01 1.22-.7.63-1.82 1.35v.03q.13-.03.34-.03h.44l.35-.02h2.14v.95zm9.68-7.48-3.07 8.2h-1.03l3.07-8.2zm3.31 7.58q-1.22 0-1.92-.9-.7-.89-.7-2.6 0-1.73.7-2.62t1.92-.9q1.24 0 1.93.9.7.89.7 2.61t-.7 2.62-1.93.89m0-.94q.5 0 .83-.28.34-.3.5-.86.18-.57.18-1.43 0-.85-.18-1.42-.16-.58-.5-.86t-.83-.28-.83.28-.5.86q-.16.57-.16 1.42t.16 1.43.5.86.83.28m6.18.94q-.91 0-1.5-.4-.58-.39-.92-1.13l1.03-.54q.16.5.47.82.32.3.94.3.43 0 .73-.15.3-.16.47-.45t.17-.71-.16-.72a1 1 0 0 0-.44-.44q-.29-.15-.72-.15-.3 0-.56.06a2 2 0 0 0-.46.2 1 1 0 0 0-.36.33l-.91-.18.41-3.75h3.96v.95h-3.08l-.25 1.92-.02.1h.02q.24-.25.6-.4.39-.14.9-.14.66 0 1.14.28.47.27.74.75.27.49.27 1.13 0 .55-.19.99a2 2 0 0 1-.52.73q-.34.3-.8.45a3 3 0 0 1-.97.15m7.4-7.58-3.08 8.2h-1.03l3.07-8.2zm.93 7.47v-.8a34 34 0 0 0 1.63-1.24 9 9 0 0 0 1.08-.99q.4-.45.57-.85.19-.42.19-.84 0-.54-.34-.88t-.95-.34q-.64 0-1.02.43-.37.42-.42 1.16l-.96-.44q.07-.65.38-1.12t.84-.74 1.23-.25q.58 0 1.01.16.45.17.74.47.3.28.46.68.16.39.16.83 0 .65-.32 1.26-.32.6-1 1.22-.7.63-1.82 1.35v.03q.12-.03.34-.03h.43l.35-.02h2.15v.95zm8.56.1q-1.23 0-1.93-.88-.69-.9-.69-2.62t.7-2.6 1.92-.9 1.93.9q.7.88.7 2.6t-.7 2.62-1.93.89m0-.94q.5 0 .82-.28.34-.3.51-.86t.17-1.43q0-.85-.17-1.42-.17-.58-.5-.86-.34-.28-.83-.28t-.83.28-.5.86q-.16.57-.16 1.42t.16 1.43.5.86.83.28m3.96.83v-.8a34 34 0 0 0 1.64-1.24 9 9 0 0 0 1.07-.99q.4-.45.57-.85.2-.42.2-.84 0-.54-.35-.88t-.95-.34q-.64 0-1.02.43-.37.42-.42 1.16l-.96-.44a2.5 2.5 0 0 1 .38-1.12 2 2 0 0 1 .84-.74q.53-.25 1.23-.25.58 0 1.01.16.45.17.75.47.3.28.45.68.16.39.16.83 0 .65-.32 1.26-.32.6-1 1.22-.7.63-1.82 1.35v.03q.12-.03.34-.03h.43l.35-.02h2.15v.95zm8.28.1q-.9 0-1.5-.39-.57-.39-.9-1.13l1.02-.54q.16.5.46.82.32.3.94.3.44 0 .73-.15.31-.16.48-.45t.16-.71-.15-.72a1 1 0 0 0-.44-.44q-.3-.15-.73-.15a2 2 0 0 0-.55.06 2 2 0 0 0-.47.2 1 1 0 0 0-.36.33l-.9-.18.4-3.75h3.97v.95h-3.09l-.24 1.92-.02.1h.02q.23-.25.6-.4.39-.14.9-.14.66 0 1.14.28.47.27.74.75.27.49.27 1.13a3 3 0 0 1-.19.99 2 2 0 0 1-.53.73q-.34.3-.79.45a3 3 0 0 1-.97.15"/><path stroke="#292d32" stroke-width="1.104" d="M285.37 290.96a1.23 1.23 0 0 0 1.22 1.22 1.23 1.23 0 0 0 1.23-1.23 1.23 1.23 0 0 0-1.23-1.22 1.23 1.23 0 0 0-1.22 1.22Z"/><path stroke="#292d32" stroke-width="1.104" d="M285.37 282.37a1.23 1.23 0 0 0 1.22 1.22 1.23 1.23 0 0 0 1.23-1.22 1.23 1.23 0 0 0-1.23-1.23 1.23 1.23 0 0 0-1.22 1.23Z"/><path stroke="#292d32" stroke-width="1.104" d="M285.37 286.66a1.23 1.23 0 0 0 1.22 1.23 1.23 1.23 0 0 0 1.23-1.23 1.23 1.23 0 0 0-1.23-1.23 1.23 1.23 0 0 0-1.22 1.23Z"/></g><defs><filter id="filter0_d_6028_34744" width="155.649" height="30.963" x="14.634" y="116.477" color-interpolation-filters="sRGB" filterUnits="userSpaceOnUse"><feFlood flood-opacity="0" result="BackgroundImageFix"/><feColorMatrix in="SourceAlpha" result="hardAlpha" values="0 0 0 0 0 0 0 0 0 0 0 0 0 0 0 0 0 0 127 0"/><feOffset dy=".665"/><feGaussianBlur stdDeviation=".665"/><feColorMatrix values="0 0 0 0 0.0627451 0 0 0 0 0.0941176 0 0 0 0 0.156863 0 0 0 0.05 0"/><feBlend in2="BackgroundImageFix" result="effect1_dropShadow_6028_34744"/><feBlend in="SourceGraphic" in2="effect1_dropShadow_6028_34744" result="shape"/></filter><filter id="filter1_d_6028_34744" width="155.649" height="30.963" x="175.607" y="116.477" color-interpolation-filters="sRGB" filterUnits="userSpaceOnUse"><feFlood flood-opacity="0" result="BackgroundImageFix"/><feColorMatrix in="SourceAlpha" result="hardAlpha" values="0 0 0 0 0 0 0 0 0 0 0 0 0 0 0 0 0 0 127 0"/><feOffset dy=".665"/><feGaussianBlur stdDeviation=".665"/><feColorMatrix values="0 0 0 0 0.0627451 0 0 0 0 0.0941176 0 0 0 0 0.156863 0 0 0 0.05 0"/><feBlend in2="BackgroundImageFix" result="effect1_dropShadow_6028_34744"/><feBlend in="SourceGraphic" in2="effect1_dropShadow_6028_34744" result="shape"/></filter><filter id="homeRectDropShadow" width="130%" height="130%" x="-10%" y="-10%" color-interpolation-filters="sRGB"><feDropShadow dx="0" dy="2" flood-color="#101828" flood-opacity=".12" stdDeviation="2"/></filter></defs></svg>