<svg xmlns="http://www.w3.org/2000/svg" fill="none" class="svg" viewBox="0 0 347 318"><g class="rec-one"><path stroke="#e1e6ec" d="M315.048 159.687V213.8a4 4 0 0 1-4 4h-17.091m34.84-63.279V282.89a4 4 0 0 1-4 4h-20.756"/><path stroke="#e1e6ec" d="M27.823 155.074v61.29a4 4 0 0 0 4 4h17.091m-34.84-63.279v128.369a4 4 0 0 0 4 4H38.83"/><rect width="345.568" height="160.423" x=".493" y=".493" fill="#fff" filter="url(#homeRectDropShadow)" rx="7.489"/><rect width="345.568" height="160.423" x=".493" y=".493" stroke="#f5f6f7" stroke-width=".987" rx="7.489"/><path fill="#101828" d="M23.592 21.063v4.789q0 1.616-.862 2.43-.862.803-2.515.803-1.652 0-2.514-.803-.862-.814-.862-2.43v-4.79h1.652v4.718q0 .993.42 1.473.43.479 1.304.479t1.293-.48q.42-.479.42-1.472v-4.717zm1.7 10.416v-8.5h1.473l.108 1.903-.204-.216a2.45 2.45 0 0 1 .395-.933q.3-.407.755-.635.454-.24 1.017-.24.73 0 1.305.372.576.37.898 1.065.336.683.336 1.665 0 .981-.336 1.688-.334.695-.922 1.065a2.37 2.37 0 0 1-1.317.372q-.789 0-1.317-.443a2.25 2.25 0 0 1-.706-1.114l.156-.251v4.202zm3.03-3.652q.658 0 1.03-.467.382-.479.382-1.388 0-.91-.37-1.377-.36-.48-1.019-.48-.418 0-.742.228a1.43 1.43 0 0 0-.49.635q-.18.406-.18.994 0 .574.167.993.168.42.48.647.322.215.742.215m6.093-7.47v6.764q0 .42.144.587t.479.167q.203 0 .335-.024.132-.035.335-.095l-.143 1.077q-.204.12-.515.18-.3.072-.599.072-.874 0-1.281-.42-.395-.43-.395-1.364v-6.945zm4.937 2.502q.91 0 1.593.37.694.372 1.077 1.066.396.694.395 1.677 0 .97-.395 1.676a2.6 2.6 0 0 1-1.077 1.065q-.682.372-1.593.372-.898 0-1.592-.372a2.7 2.7 0 0 1-1.09-1.065q-.383-.707-.383-1.676 0-.982.383-1.677a2.7 2.7 0 0 1 1.09-1.065q.695-.371 1.592-.371m0 1.22q-.455 0-.778.216-.312.204-.479.623-.168.419-.168 1.054 0 .634.168 1.053.168.42.479.635.323.204.778.203.444 0 .754-.203.324-.215.491-.635.168-.42.168-1.053 0-.636-.168-1.054a1.26 1.26 0 0 0-.49-.623 1.3 1.3 0 0 0-.755-.215m7.815 1.066q0-.514-.3-.802-.285-.287-.766-.287-.442 0-.778.227-.335.228-.49.755l-1.402-.431a2.17 2.17 0 0 1 .886-1.27q.695-.478 1.856-.478.79 0 1.377.251.587.24.91.73.335.492.335 1.234v2.43q0 .455.431.455.204 0 .383-.06l-.095 1.018q-.311.156-.779.156-.418 0-.754-.144a1.17 1.17 0 0 1-.527-.431q-.19-.3-.191-.742v-.048l.287-.048q-.072.455-.395.778a2.2 2.2 0 0 1-.79.479 2.7 2.7 0 0 1-.946.168q-.61 0-1.054-.18a1.5 1.5 0 0 1-.682-.55q-.24-.36-.24-.887 0-.67.431-1.09.432-.43 1.234-.586l2.25-.455-.011 1.018-1.437.287q-.407.084-.623.228-.204.13-.203.443 0 .299.215.454a.93.93 0 0 0 .539.156q.252 0 .49-.06.24-.06.432-.191a.9.9 0 0 0 .3-.36 1.3 1.3 0 0 0 .107-.55zm5.702 3.94q-.742 0-1.329-.372-.574-.37-.91-1.065-.323-.695-.323-1.665 0-.993.347-1.688.348-.706.934-1.065.6-.371 1.341-.371.79 0 1.305.454.516.456.67 1.174l-.155.192v-4.323h1.64v8.609h-1.472l-.108-1.82.204.096a2.2 2.2 0 0 1-.384.982q-.299.406-.754.634a2.2 2.2 0 0 1-1.006.228m.48-1.258q.43 0 .742-.215.31-.227.479-.659.18-.43.18-1.03 0-.573-.169-.97a1.36 1.36 0 0 0-.478-.622 1.25 1.25 0 0 0-.73-.215q-.672 0-1.054.479-.372.466-.372 1.377 0 .91.372 1.388.37.468 1.03.467m14.506-5.435h-4.262v2.011h3.364v1.33h-3.364v3.232H61.94v-7.902h5.915zm2.075-.276q-.515 0-.766-.215-.252-.228-.252-.659 0-.443.252-.658.252-.228.766-.228.515 0 .766.228.252.215.252.658 0 .43-.252.659-.251.215-.766.215m.814.862v5.987h-1.64v-5.987zm3.356-2.622v6.765q0 .42.143.587.144.167.48.167.202 0 .334-.024.132-.035.336-.095l-.144 1.077q-.204.12-.515.18-.3.072-.599.072-.874 0-1.28-.42-.396-.43-.396-1.364v-6.945zm4.984 8.729q-.945 0-1.652-.372a2.6 2.6 0 0 1-1.078-1.065q-.383-.695-.383-1.676 0-.982.383-1.677.384-.695 1.066-1.065.695-.371 1.58-.371.91 0 1.545.37.634.36.97.995.335.623.335 1.424 0 .24-.012.455t-.036.383h-4.777V25.35h4.059l-.79.287q0-.754-.348-1.161-.335-.408-.957-.407a1.43 1.43 0 0 0-.79.215q-.324.216-.492.647-.167.419-.167 1.066 0 .635.18 1.053.191.407.526.61.348.205.826.204.528 0 .85-.203.324-.203.503-.563l1.305.503a2.1 2.1 0 0 1-.586.802 2.7 2.7 0 0 1-.922.515q-.526.168-1.138.168"/><path stroke="#292d32" stroke-linecap="round" stroke-linejoin="round" stroke-width="1.198" d="m321.16 19.354 6.779 6.778"/><path stroke="#292d32" stroke-linecap="round" stroke-linejoin="round" stroke-width="1.198" d="m321.159 26.134 6.779-6.779"/><path fill="#232323" d="M22.084 51.223h-3.937v2.043h3.086v.979h-3.086v3.023h-1.14v-7.025h5.077zm1.845-.17q-.372 0-.575-.182-.19-.191-.191-.532 0-.34.191-.521.203-.181.575-.181.362 0 .554.18.202.182.202.522 0 .341-.202.532-.192.18-.554.181m.564.893v5.322h-1.139v-5.322zm2.889-2.394v6.226q0 .393.138.542t.458.15q.19 0 .32-.022.137-.032.34-.106l-.128.851q-.181.086-.415.128a2 2 0 0 1-.468.053q-.714 0-1.054-.362-.33-.372-.33-1.139v-6.321zm4.55 7.822q-.798 0-1.405-.33a2.34 2.34 0 0 1-.947-.947q-.33-.628-.33-1.49t.33-1.48q.34-.627.936-.957t1.352-.33q.777 0 1.32.32.542.318.83.872.287.553.287 1.256 0 .19-.01.362a3 3 0 0 1-.032.297h-4.279v-.872h3.778l-.564.17q0-.723-.362-1.107-.36-.394-.99-.394-.456 0-.797.213t-.522.639q-.18.415-.181 1.022 0 .596.192 1.01.19.416.542.629.352.212.83.212.533 0 .863-.202.33-.203.521-.564l.905.426a2.2 2.2 0 0 1-.522.67 2.2 2.2 0 0 1-.766.426 3.1 3.1 0 0 1-.98.149m13.03-7.13v4.331q0 1.394-.734 2.097-.735.702-2.14.702-1.383 0-2.128-.702-.735-.704-.735-2.097v-4.332h1.14v4.194q0 .99.425 1.468.426.48 1.298.48.885 0 1.31-.48.425-.479.425-1.468v-4.194zm1.746 9.259v-7.557h1.011l.085 1.49-.149-.18q.128-.416.394-.735.267-.32.66-.5.405-.18.883-.181.65 0 1.182.33t.84.947q.31.606.31 1.48 0 .872-.32 1.5a2.26 2.26 0 0 1-.852.947q-.532.33-1.192.33-.68 0-1.16-.351a2 2 0 0 1-.68-.916l.127-.18v3.576zm2.608-3.055q.691 0 1.075-.49.393-.489.393-1.351t-.383-1.352q-.383-.5-1.064-.5-.447 0-.788.234-.33.224-.521.639-.18.405-.181.979 0 .564.18.979.182.416.512.639t.777.223m5.171-6.896v6.226q0 .393.139.542.138.15.458.15.191 0 .319-.022.139-.032.34-.106l-.127.851q-.181.086-.415.128a2 2 0 0 1-.469.053q-.712 0-1.053-.362-.33-.372-.33-1.139v-6.321zm4.519 2.288q.776 0 1.373.33.596.33.925.957.34.618.341 1.48 0 .862-.34 1.49-.331.617-.926.947-.596.33-1.373.33t-1.373-.33a2.36 2.36 0 0 1-.937-.947q-.34-.628-.34-1.49t.34-1.48q.341-.627.937-.957t1.373-.33m0 .894q-.48 0-.82.223-.33.213-.51.628-.182.415-.182 1.022 0 .596.181 1.022.18.415.511.638.34.213.82.213.478 0 .809-.213.33-.224.51-.638.181-.426.181-1.022 0-.606-.18-1.022a1.4 1.4 0 0 0-.511-.628q-.33-.223-.81-.223m7.137 1.117q0-.532-.298-.82-.288-.297-.798-.297-.48 0-.82.223-.34.224-.5.724l-.958-.404q.203-.649.788-1.043.596-.394 1.532-.394.639 0 1.129.213.489.201.766.617.287.415.287 1.064v2.374q0 .393.394.393.192 0 .372-.053l-.063.788a1.4 1.4 0 0 1-.618.117q-.34 0-.617-.117a1.03 1.03 0 0 1-.426-.373q-.149-.256-.149-.628v-.074l.234-.01a1.33 1.33 0 0 1-.393.69q-.299.267-.692.405a2.6 2.6 0 0 1-.798.128q-.5 0-.905-.16a1.4 1.4 0 0 1-.628-.479q-.223-.33-.223-.808 0-.596.383-.98.393-.383 1.107-.521l2.064-.404-.01.798-1.501.308q-.448.086-.67.245-.224.16-.224.468 0 .3.224.48.234.17.617.17.266 0 .51-.064.256-.064.458-.202a1 1 0 0 0 .309-.373q.117-.234.117-.553zm5.027 3.523q-.66 0-1.203-.33a2.3 2.3 0 0 1-.84-.947q-.31-.618-.31-1.48 0-.894.33-1.51.33-.618.884-.937.555-.33 1.213-.33.682 0 1.15.372.468.373.628.969l-.128.117v-3.746h1.139v7.716H73.02l-.085-1.448.149.01a1.75 1.75 0 0 1-.352.83 1.9 1.9 0 0 1-.691.533q-.404.18-.873.181m.245-.915q.457 0 .787-.234.33-.236.511-.66.18-.426.181-1.022 0-.554-.18-.947-.182-.405-.512-.617a1.3 1.3 0 0 0-.745-.213q-.713 0-1.106.49-.394.489-.394 1.35 0 .864.383 1.363.383.49 1.075.49"/><rect width="311.966" height="33.259" x="16.297" y="64.26" fill="#e6f0fe" filter="url(#homeRectDropShadow)" rx="2.328"/><rect width="311.966" height="33.259" x="16.297" y="64.26" stroke="#0266f3" stroke-dasharray="3.33 3.33" stroke-width=".665" rx="2.328"/><path fill="#0266f3" d="M34.522 76.657a2.665 2.665 0 0 0-3.764 0l-3.016 3.016a1.65 1.65 0 0 0-.487 1.178 1.662 1.662 0 0 0 2.839 1.176l1.411-1.411a1.33 1.33 0 0 0 0-1.881l-2.352 2.351a.333.333 0 1 1-.47-.47l3.016-3.019a1.334 1.334 0 0 1 1.882 0 1.33 1.33 0 0 1 0 1.881l-3.018 3.018-1.686 1.686a1.33 1.33 0 0 1-1.88 0 1.33 1.33 0 0 1 0-1.88l.062-.065a2.37 2.37 0 0 1-.467-1.413l-.537.537a2.663 2.663 0 0 0 0 3.762c.519.518 1.2.778 1.882.778.68 0 1.363-.26 1.88-.778l4.705-4.704a2.66 2.66 0 0 0 0-3.762"/><path fill="#0266f3" d="M43.103 84.389v-7.024h2.5q1.245 0 1.82.52.575.523.575 1.416 0 .532-.308.969-.309.426-.873.543v.01q.628.117.99.575.372.447.372 1.022 0 .894-.67 1.436-.67.533-1.916.533zm.851-.798h1.841q.756 0 1.118-.31.372-.308.372-.861 0-.565-.372-.862-.362-.309-1.118-.309h-1.841zm0-3.14h1.66q1.49 0 1.49-1.15 0-1.138-1.49-1.138h-1.66zm5.942 3.938v-5.322h.692l.117.873a1.57 1.57 0 0 1 .65-.734q.435-.245 1.053-.245.138 0 .298.021.17.022.287.085l-.149.777a1.3 1.3 0 0 0-.255-.064 3 3 0 0 0-.394-.02q-.33 0-.67.19-.33.192-.554.586-.224.383-.224.98v2.873zm6.381-5.428q.756 0 1.33.33.586.33.916.958.33.616.33 1.479 0 .862-.33 1.49a2.3 2.3 0 0 1-.916.947q-.574.33-1.33.33-.745 0-1.33-.33a2.3 2.3 0 0 1-.915-.947q-.33-.628-.33-1.49t.33-1.48q.33-.627.915-.957.586-.33 1.33-.33m0 .734q-.543 0-.926.245a1.6 1.6 0 0 0-.596.702q-.202.447-.202 1.086 0 .628.202 1.086.212.458.596.702.383.245.926.245.542 0 .926-.245.383-.244.585-.703.213-.457.213-1.085 0-.639-.212-1.086a1.55 1.55 0 0 0-.586-.702q-.383-.245-.926-.245m10.685-.628h.948l-1.852 5.322h-.852l-1.5-4.236-1.416 4.236h-.851l-1.852-5.322h.947l1.341 4.332 1.447-4.332h.852l1.447 4.332zm4.025 5.428q-.776 0-1.436-.33a2.37 2.37 0 0 1-1-.936l.723-.522q.234.49.681.766.457.277 1.096.277.564 0 .884-.213.319-.223.319-.575a.62.62 0 0 0-.15-.404q-.137-.192-.542-.277l-1.277-.266q-.777-.16-1.117-.532-.33-.372-.33-.926 0-.436.244-.798.255-.362.713-.575.469-.223 1.097-.223.787 0 1.33.308.542.309.809.873l-.713.469a1.24 1.24 0 0 0-.586-.682 1.7 1.7 0 0 0-.84-.223q-.384 0-.66.106a.97.97 0 0 0-.415.298.67.67 0 0 0-.139.415.7.7 0 0 0 .16.437q.16.191.596.276l1.33.277q.746.15 1.043.49.298.34.298.83 0 .5-.266.883-.265.372-.745.575-.478.202-1.107.202m5.921 0q-.755 0-1.351-.33a2.3 2.3 0 0 1-.916-.947q-.33-.628-.33-1.49t.33-1.48q.33-.627.905-.957t1.31-.33q.744 0 1.266.32.532.318.808.872.277.543.277 1.224 0 .18-.01.33-.011.149-.032.266h-4.3v-.756h3.927l-.436.085q0-.765-.426-1.181-.415-.415-1.096-.415-.522 0-.905.245a1.57 1.57 0 0 0-.585.691q-.202.447-.202 1.086 0 .628.213 1.086.212.458.596.702.393.234.936.234.585 0 .947-.223.373-.225.596-.607l.67.394q-.202.361-.52.628-.309.265-.735.415a3 3 0 0 1-.937.138m9.509-7.929q.276 0 .521.064t.383.181l-.223.692a.8.8 0 0 0-.277-.117q-.15-.043-.33-.043-.458 0-.713.224-.255.213-.255.691v6.131h-.852v-6.216q0-.35.107-.649.105-.298.32-.51.223-.215.552-.33a2.3 2.3 0 0 1 .767-.118m.883 2.501v.735h-3.693v-.735zm1.565-1.021a.66.66 0 0 1-.469-.17.66.66 0 0 1-.17-.469q0-.287.17-.458.181-.18.469-.18.287 0 .457.18.18.171.181.458 0 .288-.18.468a.62.62 0 0 1-.458.17m.425 1.021v5.322h-.851v-5.322zm2.79-2.447v6.417q0 .405.15.564.149.15.479.15a1.6 1.6 0 0 0 .35-.033q.14-.031.373-.117l-.138.745q-.17.075-.373.106a2 2 0 0 1-.415.043q-.648 0-.968-.351-.309-.351-.309-1.075v-6.45zm4.67 7.875q-.756 0-1.352-.33a2.3 2.3 0 0 1-.916-.947q-.33-.628-.33-1.49t.33-1.48q.33-.627.905-.957t1.309-.33q.745 0 1.267.32.531.318.808.872.277.543.277 1.224 0 .18-.01.33-.011.149-.032.266h-4.3v-.756h3.927l-.436.085q0-.765-.426-1.181-.415-.415-1.096-.415-.522 0-.905.245a1.57 1.57 0 0 0-.585.691q-.202.447-.202 1.086 0 .628.212 1.086.213.458.596.702a1.8 1.8 0 0 0 .937.234q.585 0 .947-.223.373-.225.596-.607l.67.394q-.202.361-.52.628-.31.265-.735.415a3 3 0 0 1-.937.138m5.833 0a3.2 3.2 0 0 1-1.437-.33 2.36 2.36 0 0 1-1-.936l.724-.522q.234.49.681.766.457.277 1.096.277.564 0 .883-.213.32-.223.32-.575a.62.62 0 0 0-.149-.404q-.14-.192-.543-.277l-1.277-.266q-.777-.16-1.118-.532-.33-.372-.33-.926 0-.436.245-.798.255-.362.713-.575a2.5 2.5 0 0 1 1.096-.223q.788 0 1.331.308.542.309.808.873l-.713.469a1.24 1.24 0 0 0-.585-.682 1.7 1.7 0 0 0-.841-.223q-.382 0-.66.106a.97.97 0 0 0-.415.298.69.69 0 0 0 .022.851q.16.192.596.277l1.33.277q.745.15 1.043.49t.298.83q0 .5-.266.883-.266.372-.745.575a2.8 2.8 0 0 1-1.107.202m9.527-5.534q.756 0 1.33.33.586.33.916.958.33.616.33 1.479 0 .862-.33 1.49-.33.617-.916.947-.574.33-1.33.33-.745 0-1.33-.33a2.3 2.3 0 0 1-.916-.947q-.329-.628-.329-1.49t.329-1.48q.33-.627.916-.957.585-.33 1.33-.33m0 .734q-.543 0-.926.245a1.6 1.6 0 0 0-.596.702q-.202.447-.202 1.086 0 .628.202 1.086.213.458.596.702.383.245.926.245t.926-.245a1.55 1.55 0 0 0 .585-.703q.213-.457.213-1.085 0-.639-.213-1.086a1.55 1.55 0 0 0-.585-.702q-.383-.245-.926-.245m4.179 4.694v-5.322h.691l.117.873a1.57 1.57 0 0 1 .65-.734q.436-.245 1.053-.245.138 0 .298.021.171.022.288.085l-.149.777a1.4 1.4 0 0 0-.256-.064 3 3 0 0 0-.394-.02q-.33 0-.67.19-.33.192-.554.586-.223.383-.223.98v2.873zm9.797.106a2.33 2.33 0 0 1-2.097-1.277q-.329-.628-.329-1.49 0-.884.351-1.5.351-.618.926-.937.574-.33 1.234-.33t1.139.34q.49.34.649.905l-.106.075v-3.662h.851v7.77h-.745l-.074-1.288.117-.064a1.56 1.56 0 0 1-.362.798 1.8 1.8 0 0 1-.692.49q-.404.17-.862.17m.085-.745q.511 0 .884-.255.383-.256.585-.724a2.7 2.7 0 0 0 .213-1.118q0-.606-.213-1.043a1.5 1.5 0 0 0-.575-.67 1.53 1.53 0 0 0-.851-.234q-.809 0-1.256.553-.447.555-.447 1.469 0 .915.436 1.469.436.553 1.224.553m4.512.639v-5.322h.692l.117.873q.224-.49.649-.734.436-.245 1.054-.245.139 0 .298.021a.8.8 0 0 1 .287.085l-.149.777a1.3 1.3 0 0 0-.255-.064 3 3 0 0 0-.394-.02q-.33 0-.67.19-.33.192-.554.586-.223.383-.223.98v2.873zm7.307-3.438q0-.596-.319-.915-.32-.33-.905-.33-.553 0-.937.245-.382.234-.564.766l-.691-.426q.212-.595.787-.958.575-.372 1.426-.372.575 0 1.043.202.468.192.735.596.276.394.276 1.022v2.575q0 .384.405.384.203 0 .393-.054l-.042.67a1.24 1.24 0 0 1-.554.107q-.308 0-.553-.117a.87.87 0 0 1-.383-.351 1.2 1.2 0 0 1-.138-.607v-.106l.212.032q-.127.416-.436.68a2.1 2.1 0 0 1-.692.384 2.6 2.6 0 0 1-.755.117q-.469 0-.873-.16a1.5 1.5 0 0 1-.649-.478q-.234-.33-.234-.81 0-.596.393-.978.404-.394 1.118-.533l2.107-.415v.703l-1.713.351q-.522.105-.777.298a.63.63 0 0 0-.256.532q0 .33.256.543.265.202.745.202.308 0 .585-.074.288-.086.511-.245.224-.17.351-.415.128-.256.128-.596zm7.401-2.863.191.756h-.074q-.522 0-.809.213-.276.202-.277.66l-.521-.267q0-.414.191-.723.192-.309.522-.469.33-.17.724-.17zm-1.618 5.62q.756 0 1.182.35.425.342.425.916 0 .522-.351.905-.34.383-.926.585a3.7 3.7 0 0 1-1.298.213q-1.256 0-1.884-.426-.618-.425-.617-1.022 0-.425.276-.766.288-.33.958-.372l-.074.16a1.5 1.5 0 0 1-.618-.32q-.244-.234-.244-.67t.319-.745q.33-.32.968-.394l.564.287h-.106q-.522.053-.745.266a.6.6 0 0 0-.213.447q0 .299.213.447.224.138.617.138zm-.979 2.256q.618 0 1.011-.128.404-.127.596-.33a.63.63 0 0 0 .192-.436.54.54 0 0 0-.234-.458q-.224-.17-.82-.17H141.9a.95.95 0 0 0-.575.17.59.59 0 0 0-.234.49q0 .394.447.628.458.234 1.256.234m-.074-7.003q.638 0 1.128.234.5.223.777.628.276.405.276.937 0 .521-.276.936-.278.405-.777.639a2.7 2.7 0 0 1-1.128.223q-1.054 0-1.618-.5-.564-.51-.564-1.299 0-.531.277-.936.287-.405.776-.628a2.6 2.6 0 0 1 1.129-.234m0 .692q-.554 0-.926.308a.97.97 0 0 0-.373.799q0 .489.373.798.372.308.926.308.553 0 .925-.308a.99.99 0 0 0 .373-.799q0-.5-.373-.798-.372-.309-.925-.308m10.59 1.298q0-.596-.32-.915-.32-.33-.904-.33-.553 0-.937.245-.383.234-.564.766l-.692-.426a1.85 1.85 0 0 1 .788-.958q.574-.372 1.426-.372.575 0 1.043.202.468.192.734.596.277.394.277 1.022v2.575q0 .384.404.384.203 0 .394-.054l-.042.67a1.24 1.24 0 0 1-.554.107q-.309 0-.553-.117a.87.87 0 0 1-.383-.351 1.2 1.2 0 0 1-.139-.607v-.106l.213.032q-.127.416-.436.68a2.1 2.1 0 0 1-.692.384 2.6 2.6 0 0 1-.756.117 2.4 2.4 0 0 1-.872-.16 1.5 1.5 0 0 1-.65-.478q-.234-.33-.234-.81 0-.596.394-.978.405-.394 1.118-.533l2.107-.415v.703l-1.714.351q-.52.105-.777.298a.63.63 0 0 0-.255.532q0 .33.255.543.267.202.745.202.309 0 .586-.074a1.7 1.7 0 0 0 .511-.245q.223-.17.351-.415.128-.256.128-.596zm2.92 3.438v-5.322h.745l.075 1.192-.139-.117a1.77 1.77 0 0 1 1.118-1.064q.383-.117.787-.117.575 0 1.043.223.469.213.745.66.288.447.288 1.139v3.406h-.852V81.28q0-.883-.383-1.224a1.3 1.3 0 0 0-.926-.351q-.383 0-.766.18-.383.182-.639.586-.245.405-.245 1.086v2.83zm8.665.106q-.66 0-1.214-.33a2.4 2.4 0 0 1-.883-.947q-.33-.628-.33-1.49 0-.884.351-1.5.352-.618.926-.937a2.44 2.44 0 0 1 1.235-.33q.66 0 1.139.34.489.34.649.905l-.107.075v-3.662h.852v7.77h-.745l-.075-1.288.117-.064q-.074.468-.361.798a1.8 1.8 0 0 1-.692.49 2.2 2.2 0 0 1-.862.17m.085-.745q.51 0 .883-.255a1.6 1.6 0 0 0 .586-.724q.212-.48.212-1.118 0-.606-.212-1.043a1.53 1.53 0 0 0-.575-.67 1.53 1.53 0 0 0-.852-.234q-.808 0-1.255.553-.447.555-.447 1.469 0 .915.436 1.469.436.553 1.224.553m10.215.745q-.66 0-1.214-.33a2.4 2.4 0 0 1-.883-.947q-.33-.628-.33-1.49 0-.884.351-1.5.351-.618.926-.937a2.44 2.44 0 0 1 1.235-.33q.66 0 1.138.34.49.34.65.905l-.107.075v-3.662h.852v7.77h-.745l-.075-1.288.117-.064q-.074.468-.362.798a1.8 1.8 0 0 1-.691.49 2.2 2.2 0 0 1-.862.17m.085-.745q.51 0 .883-.255.383-.256.585-.724a2.7 2.7 0 0 0 .213-1.118q0-.606-.213-1.043a1.5 1.5 0 0 0-.574-.67 1.54 1.54 0 0 0-.852-.234q-.809 0-1.256.553-.447.555-.447 1.469 0 .915.437 1.469.437.553 1.224.553m4.512.639v-5.322h.691l.118.873q.223-.49.649-.734.436-.245 1.053-.245.14 0 .298.021.171.022.288.085l-.149.777a1.3 1.3 0 0 0-.256-.064 3 3 0 0 0-.393-.02q-.33 0-.671.19-.33.192-.553.586-.224.383-.224.98v2.873zm6.381-5.428q.756 0 1.33.33.586.33.915.958.33.616.33 1.479 0 .862-.33 1.49a2.3 2.3 0 0 1-.915.947q-.574.33-1.33.33-.745 0-1.331-.33a2.3 2.3 0 0 1-.915-.947q-.33-.628-.33-1.49t.33-1.48q.33-.627.915-.957.586-.33 1.331-.33m0 .734q-.543 0-.926.245a1.6 1.6 0 0 0-.596.702q-.202.447-.202 1.086 0 .628.202 1.086.213.458.596.702.383.245.926.245t.926-.245q.382-.244.585-.703.213-.457.213-1.085 0-.639-.213-1.086a1.56 1.56 0 0 0-.585-.702q-.383-.245-.926-.245m4.178 6.929v-7.557h.745l.075 1.299-.117-.15q.138-.372.415-.648.276-.288.67-.447a2.3 2.3 0 0 1 .852-.16q.649 0 1.192.33.553.33.883.947.33.618.33 1.49 0 .862-.341 1.49-.33.617-.883.947t-1.213.33-1.16-.32a1.9 1.9 0 0 1-.703-.83l.107-.159v3.438zm2.523-2.874q.787 0 1.224-.553.447-.555.447-1.469 0-.915-.437-1.469-.426-.553-1.202-.553-.512 0-.894.255a1.6 1.6 0 0 0-.596.703q-.213.447-.213 1.064 0 .607.202 1.064.213.458.585.713.384.245.884.245m7.777.639v-7.77h.851v3.246q.278-.479.735-.691a2.34 2.34 0 0 1 1-.213q.575 0 1.043.223.469.213.745.66.288.447.288 1.139v3.406h-.852V81.28q0-.883-.383-1.224a1.3 1.3 0 0 0-.926-.351q-.383 0-.766.18-.383.181-.639.597-.245.404-.245 1.085v2.82zm8.814.106q-.756 0-1.352-.33a2.3 2.3 0 0 1-.915-.947q-.33-.628-.33-1.49t.33-1.48q.33-.627.904-.957t1.31-.33q.744 0 1.266.32.532.318.809.872.276.543.277 1.224 0 .18-.011.33a3 3 0 0 1-.032.266h-4.3v-.756h3.928l-.437.085q0-.765-.426-1.181-.415-.415-1.096-.415-.521 0-.904.245a1.57 1.57 0 0 0-.586.691q-.202.447-.202 1.086 0 .628.213 1.086t.596.702q.394.234.936.234.586 0 .948-.223.372-.225.596-.607l.67.394q-.202.361-.521.628a2.3 2.3 0 0 1-.735.415 3 3 0 0 1-.936.138m3.918-.106v-5.322h.692l.117.873q.223-.49.649-.734.436-.245 1.054-.245.138 0 .298.021a.8.8 0 0 1 .287.085l-.149.777a1.3 1.3 0 0 0-.256-.064 3 3 0 0 0-.393-.02q-.33 0-.671.19-.33.192-.553.586-.224.383-.224.98v2.873zm6.402.106q-.755 0-1.351-.33a2.3 2.3 0 0 1-.916-.947q-.33-.628-.33-1.49t.33-1.48q.33-.627.905-.957t1.309-.33q.745 0 1.267.32.531.318.808.872.277.543.277 1.224 0 .18-.01.33-.012.149-.032.266h-4.3v-.756h3.927l-.436.085q0-.765-.426-1.181-.415-.415-1.096-.415-.522 0-.905.245a1.6 1.6 0 0 0-.585.691q-.202.447-.202 1.086 0 .628.212 1.086.213.458.596.702.394.234.937.234.585 0 .947-.223a1.7 1.7 0 0 0 .596-.607l.671.394q-.202.361-.522.628-.308.265-.734.415a3 3 0 0 1-.937.138"/><g filter="url(#filter0_d_6028_34744)"><rect width="152.99" height="28.303" x="15.965" y="117.143" fill="#fff" rx="5.321"/><rect width="152.324" height="27.638" x="16.297" y="117.475" stroke="#d0d5dd" stroke-width=".665" rx="4.989"/><path fill="#344054" d="M81.39 132.858a2.76 2.76 0 0 1-.64 1.139q-.435.458-1.031.681a3.7 3.7 0 0 1-1.31.223q-1.042 0-1.809-.436a2.97 2.97 0 0 1-1.17-1.245q-.405-.809-.405-1.937t.404-1.937a2.97 2.97 0 0 1 1.171-1.245q.767-.437 1.788-.437.724 0 1.31.202.585.192.989.596.415.405.607 1.022l-1.33.564q-.182-.638-.554-.904-.373-.277-.958-.277-.575 0-1.011.277-.426.276-.66.819-.234.532-.234 1.32 0 .777.213 1.32.223.542.649.819.425.276 1.043.277.575 0 .99-.309.425-.309.596-.936zm4.135-1.458q0-.458-.266-.713-.255-.256-.68-.256-.394 0-.693.203-.297.202-.436.67l-1.245-.383a1.93 1.93 0 0 1 .787-1.128q.618-.426 1.65-.426.702 0 1.224.224.522.213.809.649.297.436.298 1.096v2.161q0 .404.383.404.18 0 .34-.053l-.085.904q-.276.14-.692.139a1.7 1.7 0 0 1-.67-.128 1.04 1.04 0 0 1-.468-.383 1.2 1.2 0 0 1-.17-.66v-.043l.255-.042q-.065.404-.351.692a1.9 1.9 0 0 1-.703.425q-.405.15-.84.149-.543 0-.937-.159a1.35 1.35 0 0 1-.607-.49q-.213-.32-.213-.787 0-.597.384-.969.382-.383 1.096-.521l2-.405-.01.905-1.277.255q-.362.075-.554.202-.18.118-.18.394 0 .266.191.405a.83.83 0 0 0 .479.138q.223 0 .436-.053.213-.054.383-.17a.8.8 0 0 0 .267-.32q.095-.203.095-.489zm3.078 3.395v-5.321h1.31l.085 1.596-.181-.17q.128-.522.404-.862.277-.34.67-.501.405-.17.884-.17.553 0 .98.213.435.213.68.649.256.426.256 1.075v3.491h-1.458v-3.076q0-.681-.267-.936-.265-.267-.691-.266a1.25 1.25 0 0 0-.586.149 1.1 1.1 0 0 0-.457.457q-.17.32-.17.852v2.82zm9.006-5.428q.713 0 1.202.213.501.202.798.564.31.351.437.788l-1.362.489q-.107-.478-.362-.724-.255-.244-.692-.244-.404 0-.692.191-.287.182-.436.564-.15.373-.15.937t.15.936q.159.373.447.554.298.18.692.181.318 0 .542-.107a.95.95 0 0 0 .362-.33q.15-.212.203-.51l1.319.425q-.117.48-.436.841a2.15 2.15 0 0 1-.82.564q-.5.202-1.16.202-.82 0-1.447-.33a2.3 2.3 0 0 1-.969-.947q-.34-.617-.34-1.49t.34-1.49.958-.947 1.416-.33m6.06 5.534q-.84 0-1.468-.33a2.3 2.3 0 0 1-.958-.947q-.34-.617-.341-1.49 0-.873.341-1.49a2.34 2.34 0 0 1 .947-.947q.617-.33 1.405-.33.809 0 1.373.33.564.32.862.883.297.554.298 1.267 0 .213-.011.404a4 4 0 0 1-.032.341h-4.246v-1.011h3.608l-.703.255q0-.67-.308-1.032-.298-.362-.852-.362-.405 0-.702.192a1.2 1.2 0 0 0-.437.574q-.149.373-.149.948 0 .564.16.936.17.362.468.543.309.18.735.181.468 0 .755-.181.288-.181.447-.5l1.16.447a1.84 1.84 0 0 1-.521.713 2.4 2.4 0 0 1-.82.457q-.468.15-1.011.149m5.131-7.758v6.013q0 .372.128.521t.426.149q.18 0 .298-.021.117-.032.298-.085l-.128.958a1.4 1.4 0 0 1-.458.159 2.3 2.3 0 0 1-.532.064q-.776 0-1.139-.372-.351-.384-.351-1.213v-6.173z"/></g><g filter="url(#filter1_d_6028_34744)"><rect width="152.99" height="28.303" x="176.938" y="117.143" fill="#0266f3" rx="5.321"/><rect width="152.324" height="27.638" x="177.27" y="117.475" stroke="#0266f3" stroke-width=".665" rx="4.989"/><path fill="#fff" d="M230.213 127.771v4.257q0 1.437-.766 2.16-.767.714-2.235.713-1.469 0-2.235-.713-.766-.723-.766-2.16v-4.257h1.468v4.193q0 .883.373 1.309.383.426 1.16.426t1.149-.426.373-1.309v-4.193zm1.512 9.259v-7.556h1.309l.095 1.692-.18-.192q.095-.468.351-.83.266-.362.67-.564.405-.213.905-.213.649 0 1.16.33.512.33.798.947.298.607.298 1.48 0 .872-.298 1.5a2.24 2.24 0 0 1-.819.947q-.511.33-1.171.33-.702 0-1.171-.393a2 2 0 0 1-.628-.99l.139-.224v3.736zm2.692-3.246q.585 0 .916-.415.34-.426.34-1.235t-.33-1.224q-.32-.425-.904-.425-.374 0-.66.202-.277.192-.437.564-.159.362-.159.883 0 .511.149.884.149.372.425.574.288.192.66.192m5.417-6.641v6.013q0 .372.128.521t.425.149q.181 0 .298-.021.117-.032.298-.085l-.127.958a1.4 1.4 0 0 1-.458.159 2.3 2.3 0 0 1-.532.064q-.777 0-1.139-.372-.351-.384-.351-1.213v-6.173zm4.388 2.224q.81 0 1.416.33.617.33.958.947.351.617.351 1.49 0 .863-.351 1.49a2.33 2.33 0 0 1-.958.947q-.607.33-1.416.33-.798 0-1.415-.33a2.4 2.4 0 0 1-.969-.947q-.34-.627-.34-1.49 0-.873.34-1.49.351-.617.969-.947.617-.33 1.415-.33m0 1.086q-.404 0-.691.191a1.14 1.14 0 0 0-.426.554q-.15.372-.149.936 0 .564.149.937.149.372.426.564.287.18.691.181.394 0 .671-.181.287-.192.436-.564.149-.373.149-.937t-.149-.936a1.12 1.12 0 0 0-.436-.554 1.16 1.16 0 0 0-.671-.191m6.947.947q0-.458-.266-.713-.256-.256-.681-.256-.394 0-.692.203-.298.202-.436.67l-1.246-.383a1.93 1.93 0 0 1 .788-1.128q.617-.426 1.65-.426.702 0 1.223.224.522.213.809.649.298.436.298 1.096v2.161q0 .404.383.404.182 0 .341-.053l-.085.904q-.277.14-.692.139-.373 0-.67-.128a1.04 1.04 0 0 1-.469-.383 1.2 1.2 0 0 1-.17-.66v-.043l.255-.042q-.063.404-.351.692a1.9 1.9 0 0 1-.702.425 2.4 2.4 0 0 1-.841.149 2.5 2.5 0 0 1-.937-.159 1.36 1.36 0 0 1-.606-.49q-.213-.32-.213-.787 0-.597.383-.969.384-.383 1.096-.521l2.001-.405-.01.905-1.278.255q-.361.075-.553.202-.181.118-.181.394 0 .266.192.405a.83.83 0 0 0 .479.138q.223 0 .436-.053.213-.054.383-.17a.8.8 0 0 0 .266-.32q.096-.203.096-.489zm5.069 3.501q-.66 0-1.182-.33a2.27 2.27 0 0 1-.809-.947q-.287-.617-.287-1.479 0-.883.309-1.501.308-.627.83-.947.532-.33 1.192-.33.702 0 1.16.405.458.404.596 1.043l-.138.17v-3.842h1.458v7.652h-1.309l-.096-1.618.181.085q-.075.501-.341.873a1.85 1.85 0 0 1-.67.564 2 2 0 0 1-.894.202m.425-1.117q.384 0 .66-.192.278-.202.426-.585.16-.383.16-.915 0-.511-.149-.862a1.2 1.2 0 0 0-.426-.554 1.1 1.1 0 0 0-.649-.191q-.597 0-.937.425-.33.415-.33 1.224t.33 1.235q.33.415.915.415m12.895-4.832h-3.789v1.788h2.991v1.181h-2.991v2.874h-1.468v-7.024h5.257zm1.845-.245q-.457 0-.681-.191-.224-.202-.224-.586 0-.393.224-.585.223-.202.681-.202.457 0 .681.202.223.192.223.585 0 .384-.223.586-.224.19-.681.191m.723.767v5.321h-1.458v-5.321zm2.983-2.331v6.013q0 .372.128.521t.425.149q.181 0 .298-.021.117-.032.298-.085l-.127.958a1.4 1.4 0 0 1-.458.159 2.3 2.3 0 0 1-.532.064q-.777 0-1.139-.372-.351-.384-.351-1.213v-6.173zm4.431 7.758q-.841 0-1.469-.33a2.33 2.33 0 0 1-.958-.947q-.34-.617-.34-1.49t.34-1.49.947-.947q.618-.33 1.405-.33.81 0 1.373.33.565.32.862.883.298.554.298 1.267 0 .213-.01.404a4 4 0 0 1-.032.341h-4.247v-1.011h3.608l-.702.255q0-.67-.309-1.032-.298-.362-.851-.362-.405 0-.703.192a1.2 1.2 0 0 0-.436.574q-.149.373-.149.948 0 .564.16.936.17.362.468.543.309.18.734.181.468 0 .756-.181.286-.181.447-.5l1.16.447a1.86 1.86 0 0 1-.522.713q-.34.298-.819.457-.468.15-1.011.149"/></g><rect width="258.395" height="60.753" x="43.37" y="185.554" fill="#fff" filter="url(#homeRectDropShadow)" rx="7.73"/><rect width="258.395" height="60.753" x="43.37" y="185.554" stroke="#f5f6f7" stroke-width=".736" rx="7.73"/><path fill="#fcd296" d="M55.735 200.838h12.147l7.591 6.036v19.619c0 1.201-.48 2.353-1.334 3.202a4.57 4.57 0 0 1-3.22 1.326H55.734a4.57 4.57 0 0 1-3.221-1.326 4.5 4.5 0 0 1-1.334-3.202v-21.128c0-1.2.48-2.352 1.334-3.201a4.57 4.57 0 0 1 3.22-1.326"/><path fill="#1e1e1e" fill-opacity=".9" d="M97.27 208.771a3.6 3.6 0 0 1-.795 1.352 3.5 3.5 0 0 1-1.246.821 4.3 4.3 0 0 1-1.577.278q-1.26 0-2.186-.543a3.63 3.63 0 0 1-1.431-1.55q-.504-1.008-.504-2.412t.503-2.412a3.63 3.63 0 0 1 1.432-1.55q.927-.543 2.173-.543.86 0 1.55.238.702.239 1.193.716.49.477.755 1.192l-1.338.597q-.265-.782-.769-1.14-.503-.37-1.312-.371-.808 0-1.418.384t-.954 1.113q-.33.729-.33 1.776 0 1.034.317 1.776.318.729.914 1.113t1.431.384q.81 0 1.392-.411.596-.423.848-1.259zm4.486-4.439q.968 0 1.71.411.741.41 1.153 1.192.423.77.424 1.842 0 1.074-.424 1.855a2.86 2.86 0 0 1-1.153 1.18q-.743.41-1.71.41t-1.709-.41a2.94 2.94 0 0 1-1.166-1.18q-.424-.781-.424-1.855 0-1.072.424-1.842a2.9 2.9 0 0 1 1.166-1.192q.742-.411 1.709-.411m0 1.113q-.595 0-1.02.278a1.7 1.7 0 0 0-.636.782q-.225.517-.225 1.272 0 .743.225 1.272.225.518.636.795.425.265 1.02.265.597 0 1.007-.265a1.8 1.8 0 0 0 .636-.795q.226-.53.226-1.272 0-.755-.226-1.272a1.7 1.7 0 0 0-.636-.782q-.41-.278-1.007-.278m5.07 5.645v-6.626h1.259l.066 1.113q.345-.636.915-.94a2.6 2.6 0 0 1 1.232-.305q.715 0 1.312.331.61.319.914.967a2.06 2.06 0 0 1 .583-.728 2.4 2.4 0 0 1 .822-.424q.45-.147.888-.146.636 0 1.192.265.557.265.901.808.345.543.345 1.392v4.293h-1.418v-4.068q0-.809-.384-1.166-.384-.358-.981-.358-.463 0-.861.225-.384.226-.623.676-.239.437-.239 1.087v3.604h-1.417v-4.068q0-.809-.385-1.166-.384-.358-.98-.358-.397 0-.795.212a1.7 1.7 0 0 0-.663.662q-.265.451-.265 1.193v3.525zm12.578 2.783v-9.409h1.259l.106 1.855-.185-.225a2.6 2.6 0 0 1 .49-.914q.331-.398.822-.623a2.7 2.7 0 0 1 1.099-.225q.809 0 1.471.411.663.41 1.047 1.179.384.754.384 1.842 0 1.086-.397 1.868-.385.77-1.06 1.18-.663.41-1.484.41-.849 0-1.445-.437-.596-.45-.848-1.14l.159-.225v4.453zm3.247-3.803q.861 0 1.338-.61.49-.609.491-1.683 0-1.073-.477-1.683-.477-.623-1.326-.623a1.7 1.7 0 0 0-.98.292q-.41.278-.649.795-.226.504-.226 1.219 0 .702.226 1.219.225.518.636.795.41.279.967.279m8.878-3.234q0-.662-.371-1.02-.358-.37-.994-.371-.597 0-1.02.278-.425.279-.623.901l-1.193-.503q.252-.808.981-1.299.743-.49 1.908-.49.795 0 1.405.265.609.252.954.768.357.518.357 1.325v2.955q0 .49.491.491.238 0 .464-.066l-.08.98q-.304.146-.769.146-.423 0-.768-.146a1.3 1.3 0 0 1-.53-.464q-.186-.317-.186-.782v-.092l.292-.014a1.66 1.66 0 0 1-.49.862 2.6 2.6 0 0 1-.862.503 3.2 3.2 0 0 1-.994.159q-.622 0-1.126-.198a1.8 1.8 0 0 1-.782-.597q-.278-.41-.278-1.007 0-.742.477-1.219.49-.477 1.378-.649l2.571-.504-.013.994-1.869.384q-.556.107-.835.305-.278.2-.278.583 0 .371.278.597.292.212.769.212.332 0 .636-.08.318-.08.57-.252.252-.185.384-.464.146-.291.146-.689zm3.728 4.254v-6.626h1.258l.093 1.723-.185-.186q.185-.569.53-.94.357-.385.834-.557a3.1 3.1 0 0 1 1.034-.172q.702 0 1.259.278.57.265.901.808.331.544.331 1.379v4.293h-1.418v-3.856q0-.98-.41-1.352-.398-.384-1.007-.384-.438 0-.849.212a1.67 1.67 0 0 0-.689.649q-.264.451-.265 1.206v3.525zm13.814-6.626-2.902 7.408q-.291.768-.636 1.219-.331.45-.769.649a2.4 2.4 0 0 1-1.02.199q-.477 0-.888-.133a2.5 2.5 0 0 1-.702-.331l.344-1.1q.252.213.53.318.292.106.623.106.358 0 .636-.199.292-.185.517-.755l.292-.715-.703-1.644-2.067-5.022h1.59l1.471 4.161.384 1.246.438-1.365 1.391-4.042zm12.202 6.626h-1.497l-.835-2.293h-3.67l-.835 2.293h-1.458l3.3-8.746h1.696zm-5.605-3.445h2.876l-1.431-4.082zm9.424 3.577a4.2 4.2 0 0 1-1.816-.384 3.13 3.13 0 0 1-1.298-1.087l.98-.848q.291.544.835.875.557.318 1.325.318.61 0 .967-.212.358-.212.358-.596a.62.62 0 0 0-.172-.438q-.16-.198-.623-.304l-1.391-.292q-1.06-.211-1.511-.676-.45-.477-.45-1.206 0-.542.318-1.007.318-.463.927-.742.623-.291 1.484-.291.994 0 1.696.358a2.44 2.44 0 0 1 1.074.993l-.981.822a1.64 1.64 0 0 0-.742-.782 2.1 2.1 0 0 0-1.02-.265q-.424 0-.729.106a1.05 1.05 0 0 0-.464.292.65.65 0 0 0-.159.437q0 .265.199.464.198.198.716.305l1.51.318q.954.185 1.338.636.398.437.398 1.073t-.331 1.126q-.331.478-.954.742-.624.265-1.484.265m7.013 0a4.2 4.2 0 0 1-1.815-.384 3.13 3.13 0 0 1-1.299-1.087l.981-.848q.29.544.835.875.556.318 1.325.318.61 0 .967-.212.358-.212.358-.596a.63.63 0 0 0-.172-.438q-.16-.198-.623-.304l-1.392-.292q-1.06-.211-1.51-.676-.451-.477-.451-1.206 0-.542.318-1.007.318-.463.928-.742.623-.291 1.484-.291.994 0 1.696.358.702.344 1.074.993l-.981.822a1.64 1.64 0 0 0-.742-.782 2.1 2.1 0 0 0-1.02-.265q-.424 0-.729.106a1.05 1.05 0 0 0-.464.292.65.65 0 0 0-.159.437q0 .265.199.464.198.198.715.305l1.511.318q.954.185 1.338.636.398.437.398 1.073t-.332 1.126q-.33.478-.954.742-.622.265-1.484.265m7.399 0q-.994 0-1.75-.41a2.9 2.9 0 0 1-1.179-1.18q-.411-.781-.411-1.855 0-1.072.411-1.842a2.9 2.9 0 0 1 1.166-1.192q.743-.411 1.683-.411.968 0 1.643.397.676.398 1.034 1.087t.358 1.564q0 .238-.014.45a4 4 0 0 1-.039.371h-5.327v-1.086h4.704l-.703.212q0-.902-.45-1.379-.45-.49-1.232-.49-.57 0-.994.265-.424.266-.65.795-.225.517-.225 1.272 0 .743.239 1.259.238.517.676.782.437.265 1.033.265.663 0 1.073-.252.411-.252.65-.702l1.126.53a2.7 2.7 0 0 1-.649.835 2.8 2.8 0 0 1-.954.53 3.8 3.8 0 0 1-1.219.185m6.525-8.706v6.586q0 .49.251.716.265.225.703.225.358 0 .622-.106.266-.12.491-.318l.318 1.034a2.3 2.3 0 0 1-.756.424 3.1 3.1 0 0 1-.98.145q-.57 0-1.047-.185a1.5 1.5 0 0 1-.742-.596q-.266-.425-.278-1.1v-6.427zm2.279 1.948v1.113h-4.969v-1.113zm3.92 6.758a4.2 4.2 0 0 1-1.816-.384 3.14 3.14 0 0 1-1.298-1.087l.98-.848q.292.544.835.875.557.318 1.325.318.61 0 .968-.212.357-.212.357-.596a.62.62 0 0 0-.172-.438q-.16-.198-.623-.304l-1.391-.292q-1.06-.211-1.511-.676-.45-.477-.45-1.206 0-.542.318-1.007.318-.463.927-.742.624-.291 1.484-.291.994 0 1.697.358.702.344 1.073.993l-.981.822a1.64 1.64 0 0 0-.742-.782 2.1 2.1 0 0 0-1.02-.265q-.424 0-.729.106a1.05 1.05 0 0 0-.464.292.65.65 0 0 0-.159.437q0 .265.199.464.199.198.716.305l1.51.318q.954.185 1.339.636.397.437.397 1.073t-.331 1.126q-.331.478-.954.742-.623.265-1.484.265"/><path fill="#1e1e1e" fill-opacity=".44" d="M90.815 230.771v-5.091l.02-.474a3.7 3.7 0 0 1-.803.588 3.5 3.5 0 0 1-.918.34l-.206-.959q.217-.03.505-.144.29-.114.598-.289.309-.175.567-.371.258-.206.402-.402h.927v6.802zm5.29.104q-1.226 0-1.927-.887-.69-.897-.69-2.618t.69-2.607q.702-.897 1.928-.897 1.237 0 1.927.897.7.887.7 2.607t-.7 2.618q-.69.887-1.927.887m0-.938q.495 0 .825-.279.34-.288.505-.855.175-.577.175-1.433 0-.855-.175-1.422-.165-.577-.505-.855-.33-.29-.824-.289-.495 0-.835.289-.33.278-.495.855-.165.567-.165 1.422 0 .856.165 1.433.165.567.495.855.34.279.835.279m12.514-5.02h-3.814v1.979h2.989v.948h-2.989v2.927h-1.102v-6.802h4.916zm1.786-.164q-.36 0-.556-.176-.186-.185-.186-.515t.186-.505q.195-.175.556-.175.35 0 .536.175.196.175.196.505t-.196.515q-.186.176-.536.176m.546.865v5.153h-1.102v-5.153zm2.798-2.319v6.03q0 .381.134.525t.443.145q.186 0 .309-.021.134-.031.33-.103l-.124.824a1.6 1.6 0 0 1-.402.124 2 2 0 0 1-.453.052q-.691 0-1.021-.351-.32-.36-.319-1.103v-6.122zm4.406 7.576q-.773 0-1.361-.32a2.27 2.27 0 0 1-.917-.917q-.32-.609-.319-1.443 0-.835.319-1.433a2.27 2.27 0 0 1 .907-.927q.577-.32 1.309-.32.753 0 1.278.309.525.31.804.846.278.535.278 1.216 0 .185-.01.35a3 3 0 0 1-.031.289h-4.143v-.845h3.659l-.547.164q0-.7-.35-1.071-.35-.382-.959-.382-.443 0-.773.206a1.3 1.3 0 0 0-.505.619q-.175.402-.175.989 0 .577.186.979.185.402.525.608.34.207.804.207.516 0 .835-.196a1.4 1.4 0 0 0 .505-.547l.876.413a2.1 2.1 0 0 1-.505.649 2.2 2.2 0 0 1-.742.412 3 3 0 0 1-.948.145m5.649 0q-.773 0-1.412-.299a2.45 2.45 0 0 1-1.01-.845l.763-.66q.226.423.649.68.433.248 1.031.248.474 0 .752-.165a.51.51 0 0 0 .278-.464.48.48 0 0 0-.134-.34q-.123-.154-.484-.237l-1.082-.227q-.825-.165-1.175-.526-.351-.37-.351-.938 0-.422.248-.783.247-.36.721-.577.484-.227 1.155-.227.773 0 1.319.279a1.9 1.9 0 0 1 .835.772l-.763.639a1.3 1.3 0 0 0-.577-.608 1.65 1.65 0 0 0-.794-.206q-.33 0-.567.083a.8.8 0 0 0-.36.226.5.5 0 0 0-.124.341.5.5 0 0 0 .155.36q.154.154.556.237l1.175.248q.743.144 1.041.494.309.34.309.835t-.258.876q-.257.372-.742.577-.484.207-1.154.207"/><line x1="131.509" x2="131.509" y1="221.891" y2="232.651" stroke="#9c9c9c" stroke-width=".736"/><path fill="#1e1e1e" fill-opacity=".44" d="M142.206 228.968a2.8 2.8 0 0 1-.618 1.051 2.7 2.7 0 0 1-.969.639q-.557.216-1.226.217-.98 0-1.701-.423a2.83 2.83 0 0 1-1.113-1.206q-.392-.783-.392-1.876t.392-1.875a2.8 2.8 0 0 1 1.113-1.206q.721-.423 1.69-.423.67 0 1.206.186.546.185.928.556.381.372.587.928l-1.041.464q-.205-.608-.598-.887-.392-.288-1.02-.288-.629 0-1.103.299a2 2 0 0 0-.742.865q-.257.567-.257 1.381 0 .805.247 1.381.247.567.711.866t1.113.299q.629 0 1.082-.319.464-.33.66-.98zm1.253 1.803v-5.153h.938l.103.928q.207-.505.608-.763.413-.268 1.01-.268.155 0 .31.031a.8.8 0 0 1 .257.072l-.154.969a1.4 1.4 0 0 0-.258-.062 2 2 0 0 0-.371-.031q-.32 0-.629.176a1.33 1.33 0 0 0-.515.505q-.196.34-.196.865v2.731zm6.404.104q-.772 0-1.36-.32a2.27 2.27 0 0 1-.917-.917q-.32-.609-.32-1.443t.32-1.433a2.27 2.27 0 0 1 .907-.927q.577-.32 1.309-.32.751 0 1.278.309.525.31.803.846.279.535.279 1.216 0 .185-.011.35t-.03.289h-4.144v-.845h3.659l-.546.164q0-.7-.351-1.071-.35-.382-.958-.382-.443 0-.773.206-.33.207-.505.619-.175.402-.175.989 0 .577.185.979.186.402.526.608.34.207.804.207.515 0 .835-.196a1.4 1.4 0 0 0 .505-.547l.876.413a2.1 2.1 0 0 1-.505.649 2.2 2.2 0 0 1-.742.412 3 3 0 0 1-.949.145m6.67-3.412q0-.515-.289-.793-.278-.29-.773-.289-.463 0-.793.216-.33.217-.485.701l-.927-.391q.196-.63.762-1.01.577-.382 1.485-.382.618 0 1.092.206.475.196.742.598.279.402.278 1.031v2.298q0 .381.382.381.185 0 .36-.051l-.061.763a1.4 1.4 0 0 1-.598.113q-.33 0-.598-.113a1 1 0 0 1-.412-.361 1.2 1.2 0 0 1-.144-.608v-.072l.226-.011a1.3 1.3 0 0 1-.381.67 2 2 0 0 1-.67.392 2.5 2.5 0 0 1-.773.124q-.484 0-.876-.155a1.4 1.4 0 0 1-.608-.464q-.216-.32-.216-.783 0-.577.371-.948.381-.372 1.071-.505l2-.392-.01.773-1.454.299q-.433.082-.649.237a.52.52 0 0 0-.216.453q0 .289.216.464.226.165.598.165.257 0 .495-.062.246-.061.443-.196a.96.96 0 0 0 .299-.36q.113-.227.113-.536zm4.203-3.36v5.123q0 .38.196.556.206.175.546.175.278 0 .484-.082.207-.093.381-.248l.248.804a1.8 1.8 0 0 1-.588.33 2.4 2.4 0 0 1-.762.114q-.444 0-.815-.145a1.18 1.18 0 0 1-.577-.464q-.206-.33-.216-.855v-4.999zm1.772 1.515v.866h-3.865v-.866zm3.358 5.257q-.772 0-1.36-.32a2.27 2.27 0 0 1-.917-.917q-.32-.609-.32-1.443t.32-1.433a2.27 2.27 0 0 1 .907-.927q.577-.32 1.309-.32.752 0 1.278.309.525.31.804.846.278.535.278 1.216 0 .185-.01.35a3 3 0 0 1-.031.289h-4.144v-.845h3.659l-.546.164q0-.7-.35-1.071-.351-.382-.959-.382-.443 0-.773.206-.33.207-.505.619-.175.402-.175.989 0 .577.185.979.186.402.526.608.34.207.804.207.515 0 .835-.196a1.4 1.4 0 0 0 .505-.547l.876.413a2.1 2.1 0 0 1-.505.649 2.2 2.2 0 0 1-.742.412 3 3 0 0 1-.949.145m5.67 0q-.639 0-1.164-.32a2.2 2.2 0 0 1-.815-.917q-.298-.598-.298-1.433 0-.866.319-1.463.32-.598.855-.907.536-.32 1.175-.32.66 0 1.114.361.453.36.608.938l-.124.113v-3.628h1.103v7.472h-.979l-.083-1.401.144.01a1.7 1.7 0 0 1-.34.804q-.267.33-.67.515a2 2 0 0 1-.845.176m.237-.887q.444 0 .763-.227.32-.226.495-.639.175-.411.175-.989 0-.536-.175-.917a1.34 1.34 0 0 0-.495-.598 1.27 1.27 0 0 0-.721-.206q-.691 0-1.072.474t-.382 1.309q0 .834.371 1.319.372.474 1.041.474m9.834-4.473q.753 0 1.33.32.576.32.896.927.33.598.33 1.433 0 .834-.33 1.443a2.23 2.23 0 0 1-.896.917q-.577.32-1.33.32-.752 0-1.329-.32a2.3 2.3 0 0 1-.907-.917q-.33-.609-.33-1.443t.33-1.433a2.27 2.27 0 0 1 .907-.927q.577-.32 1.329-.32m0 .866q-.464 0-.793.216a1.34 1.34 0 0 0-.495.608q-.175.402-.175.99 0 .577.175.989.176.402.495.619.329.206.793.206t.783-.206q.32-.217.495-.619.175-.412.175-.989 0-.588-.175-.99a1.34 1.34 0 0 0-.495-.608q-.32-.216-.783-.216m3.943 4.39v-5.153h.98l.072 1.34-.145-.144q.145-.444.413-.732.278-.298.649-.433.381-.134.804-.134.546 0 .979.217.443.206.701.628t.257 1.072v3.339h-1.102v-2.999q0-.763-.32-1.051a1.08 1.08 0 0 0-.783-.299q-.34 0-.66.165a1.3 1.3 0 0 0-.536.505q-.206.35-.206.938v2.741zm10.809 0v-5.091l.02-.474a3.55 3.55 0 0 1-1.721.928l-.206-.959q.216-.03.505-.144t.598-.289.567-.371q.258-.206.402-.402h.927v6.802zm2.776 0v-.803q.98-.702 1.639-1.237a8.7 8.7 0 0 0 1.071-.99q.402-.453.578-.855.185-.412.185-.835 0-.546-.34-.886t-.948-.34q-.639 0-1.021.433-.37.422-.422 1.164l-.959-.443q.072-.65.382-1.123.309-.474.835-.732a2.8 2.8 0 0 1 1.236-.258q.578 0 1.01.165.444.165.742.464.3.288.454.68.165.391.165.835 0 .65-.32 1.257-.319.599-1.01 1.227-.69.629-1.814 1.35v.021q.124-.021.34-.021.217-.01.433-.01.217-.01.351-.011h2.143v.948zm9.677-7.472-3.072 8.194h-1.03l3.071-8.194zm3.315 7.576q-1.227 0-1.927-.887-.691-.897-.691-2.618t.691-2.607q.7-.897 1.927-.897 1.237 0 1.927.897.702.887.701 2.607 0 1.721-.701 2.618-.69.887-1.927.887m0-.938q.495 0 .825-.279.34-.288.505-.855.175-.577.175-1.433 0-.855-.175-1.422-.166-.577-.505-.855-.33-.29-.825-.289-.495 0-.835.289-.33.278-.494.855-.165.567-.165 1.422 0 .856.165 1.433.164.567.494.855.34.279.835.279m6.173.938q-.906 0-1.494-.392-.578-.392-.917-1.134l1.03-.536q.155.495.464.814.32.31.938.31.432 0 .732-.155.309-.165.474-.453.165-.3.165-.712 0-.432-.155-.721a1 1 0 0 0-.443-.433q-.288-.154-.722-.154-.298 0-.556.061a1.5 1.5 0 0 0-.464.196 1.3 1.3 0 0 0-.361.33l-.907-.175.413-3.752h3.957v.948h-3.081l-.248 1.917-.02.114h.02q.237-.258.608-.402.382-.144.897-.144.66 0 1.134.278.474.267.742.752t.268 1.124q0 .556-.186.989a2 2 0 0 1-.525.732q-.34.298-.794.453a3.1 3.1 0 0 1-.969.145m7.39-7.576-3.071 8.194h-1.031l3.072-8.194zm.932 7.472v-.803q.98-.702 1.639-1.237a8.7 8.7 0 0 0 1.071-.99q.402-.453.578-.855.185-.412.185-.835 0-.546-.34-.886t-.948-.34q-.639 0-1.021.433-.37.422-.422 1.164l-.959-.443q.072-.65.382-1.123.309-.474.835-.732a2.8 2.8 0 0 1 1.236-.258q.578 0 1.01.165.444.165.742.464.3.288.454.68.165.391.165.835 0 .65-.32 1.257-.319.599-1.01 1.227-.69.629-1.814 1.35v.021q.124-.021.34-.021.217-.01.433-.01.217-.01.351-.011h2.143v.948zm8.564.104q-1.227 0-1.928-.887-.69-.897-.69-2.618t.69-2.607q.7-.897 1.928-.897 1.236 0 1.927.897.7.887.701 2.607 0 1.721-.701 2.618-.691.887-1.927.887m0-.938q.494 0 .824-.279.34-.288.505-.855.175-.577.175-1.433 0-.855-.175-1.422-.165-.577-.505-.855-.33-.29-.824-.289-.496 0-.835.289-.33.278-.495.855-.165.567-.165 1.422 0 .856.165 1.433.165.567.495.855.34.279.835.279m3.956.834v-.803q.98-.702 1.639-1.237a8.6 8.6 0 0 0 1.072-.99q.402-.453.577-.855.186-.412.186-.835 0-.546-.34-.886t-.949-.34q-.639 0-1.02.433-.37.422-.422 1.164l-.959-.443q.072-.65.381-1.123a2.06 2.06 0 0 1 .835-.732 2.8 2.8 0 0 1 1.237-.258q.577 0 1.01.165.443.165.742.464.299.288.453.68.165.391.165.835 0 .65-.319 1.257-.32.599-1.01 1.227t-1.814 1.35v.021q.123-.021.34-.021.216-.01.433-.01a8 8 0 0 1 .35-.011h2.144v.948zm8.286.104q-.907 0-1.495-.392-.576-.392-.917-1.134l1.031-.536q.154.495.464.814.32.31.937.31.434 0 .732-.155.309-.165.474-.453.165-.3.165-.712 0-.432-.154-.721a1 1 0 0 0-.444-.433q-.288-.154-.721-.154-.299 0-.557.061a1.5 1.5 0 0 0-.463.196 1.3 1.3 0 0 0-.361.33l-.907-.175.412-3.752h3.958v.948H246.5l-.247 1.917-.021.114h.021q.237-.258.608-.402.381-.144.897-.144.659 0 1.133.278.475.267.742.752.268.485.268 1.124 0 .556-.185.989a2 2 0 0 1-.526.732q-.34.298-.793.453a3.1 3.1 0 0 1-.969.145"/><path stroke="#292d32" stroke-width="1.104" d="M285.367 220.224a1.23 1.23 0 0 0 1.227 1.227 1.23 1.23 0 0 0 1.227-1.227 1.23 1.23 0 0 0-1.227-1.227 1.23 1.23 0 0 0-1.227 1.227Z"/><path stroke="#292d32" stroke-width="1.104" d="M285.367 211.634a1.23 1.23 0 0 0 1.227 1.227 1.23 1.23 0 0 0 1.227-1.227c0-.674-.552-1.227-1.227-1.227s-1.227.553-1.227 1.227Z"/><path stroke="#292d32" stroke-width="1.104" d="M285.367 215.929a1.23 1.23 0 0 0 1.227 1.227 1.23 1.23 0 0 0 1.227-1.227 1.23 1.23 0 0 0-1.227-1.227 1.23 1.23 0 0 0-1.227 1.227Z"/><rect width="258.395" height="60.753" x="43.37" y="256.284" fill="#fff" filter="url(#homeRectDropShadow)" rx="7.73"/><rect width="258.395" height="60.753" x="43.37" y="256.284" stroke="#f5f6f7" stroke-width=".736" rx="7.73"/><path fill="#e00017" d="M58.763 296.189q.452-.267.989-.512-.453.675-.97 1.305c-.602.725-1.072 1.111-1.367 1.231l-.075.026a1 1 0 0 1-.056-.094c-.121-.237-.117-.466.086-.776.228-.355.687-.762 1.393-1.18m5.287-3.547q-.383.08-.767.168.57-1.116 1.077-2.261.51.947 1.099 1.848-.704.102-1.409.245m5.438 2.022a8 8 0 0 1-.937-.883c.491.011.935.048 1.318.117.683.122 1.004.316 1.116.45a.2.2 0 0 1 .055.138.94.94 0 0 1-.129.43.66.66 0 0 1-.202.267.23.23 0 0 1-.149.033c-.194-.007-.555-.143-1.072-.552m-4.792-10.221a14 14 0 0 1-.43 1.786 10 10 0 0 1-.192-.746c-.164-.76-.188-1.356-.1-1.77.083-.381.238-.534.423-.609q.15-.066.312-.086c.028.064.06.198.069.426q.017.395-.082 1.001z"/><path fill="#e00017" fill-rule="evenodd" d="M55.487 269.432h11.399c.57 0 1.118.227 1.522.631l7.983 7.983c.404.404.631.952.631 1.523v20.013a4.307 4.307 0 0 1-4.307 4.307H55.487a4.306 4.306 0 0 1-4.307-4.307v-25.843a4.31 4.31 0 0 1 4.307-4.307m11.844 3.23v4.307a2.154 2.154 0 0 0 2.154 2.154h4.307zm-11.489 26.205c.194.388.495.739.943.903.446.161.888.086 1.25-.065.684-.28 1.367-.939 1.994-1.693.717-.863 1.47-1.996 2.198-3.252a25 25 0 0 1 4.301-.874c.646.825 1.314 1.535 1.96 2.046.603.474 1.299.868 2.011.898a1.85 1.85 0 0 0 1.099-.297c.333-.218.581-.532.762-.896.194-.39.312-.797.297-1.213a1.82 1.82 0 0 0-.43-1.115c-.487-.582-1.284-.862-2.068-1.002a12.4 12.4 0 0 0-2.875-.107 23.7 23.7 0 0 1-2.11-3.631c.538-1.422.94-2.766 1.12-3.864.077-.469.118-.917.103-1.322a2.7 2.7 0 0 0-.274-1.159 1.51 1.51 0 0 0-1.027-.786c-.435-.093-.883 0-1.294.166-.812.323-1.24 1.012-1.402 1.772-.157.733-.086 1.585.099 2.447.19.874.512 1.826.926 2.789a43 43 0 0 1-2.287 4.796c-1.11.349-2.18.815-3.192 1.389-.797.474-1.505 1.034-1.932 1.695-.452.702-.592 1.537-.172 2.375" clip-rule="evenodd"/><path fill="#1e1e1e" fill-opacity=".9" d="M100.516 273.075v8.745h-1.311v-5.062l.106-2.411h-.014l-2.663 7.473h-1.18l-2.663-7.473h-.013l.106 2.411v5.062h-1.312v-8.745h2.107l1.762 5.062.61 2.08h.026l.623-2.08 1.75-5.062zm6.165 4.492q0-.663-.371-1.021-.358-.37-.994-.371-.595 0-1.02.279-.424.278-.623.901l-1.193-.504a2.38 2.38 0 0 1 .981-1.298q.742-.49 1.908-.491.795 0 1.405.265.609.252.954.769.357.516.358 1.325v2.955q0 .49.49.49.239 0 .464-.066l-.08.981q-.305.145-.768.145a2 2 0 0 1-.769-.145 1.3 1.3 0 0 1-.53-.464q-.185-.318-.185-.782v-.093l.291-.013a1.65 1.65 0 0 1-.49.861 2.6 2.6 0 0 1-.862.504 3.2 3.2 0 0 1-.993.159q-.623 0-1.127-.199a1.77 1.77 0 0 1-.782-.596q-.278-.411-.278-1.007 0-.742.477-1.219.49-.477 1.378-.65l2.571-.503-.013.994-1.869.384q-.556.106-.834.305-.279.198-.279.583 0 .37.279.596.291.212.768.212.332 0 .636-.08a1.8 1.8 0 0 0 .57-.251q.252-.186.384-.464.146-.291.146-.689zm5.404-4.32v6.586q0 .49.251.715.265.225.703.225.358 0 .622-.106.266-.118.491-.318l.318 1.034a2.3 2.3 0 0 1-.756.424 3.1 3.1 0 0 1-.98.146q-.57 0-1.047-.186a1.5 1.5 0 0 1-.742-.596q-.265-.424-.278-1.1v-6.427zm2.279 1.948v1.113h-4.969v-1.113zm4.264-.133q.795 0 1.352.239.57.225.954.649.385.424.583.967l-1.338.53q-.173-.609-.557-.927-.37-.331-.98-.331-.597 0-1.021.278a1.7 1.7 0 0 0-.649.782q-.212.516-.212 1.272 0 .742.225 1.259.226.517.649.781.424.265 1.008.265.45 0 .781-.145.331-.159.544-.438.225-.291.304-.702l1.286.437a2.8 2.8 0 0 1-.583 1.047 2.7 2.7 0 0 1-.968.689 3.5 3.5 0 0 1-1.338.239q-.98 0-1.736-.411a2.9 2.9 0 0 1-1.179-1.179q-.411-.783-.411-1.855 0-1.074.411-1.842a2.9 2.9 0 0 1 1.166-1.193q.755-.411 1.709-.411m4.579 6.758v-9.607h1.418v4.042q.33-.623.888-.901a2.7 2.7 0 0 1 1.258-.292q.703 0 1.259.279.57.264.901.808.332.543.332 1.378v4.293h-1.418v-3.842q0-.981-.411-1.365-.398-.385-1.007-.385-.425 0-.848.212-.411.2-.689.663-.265.45-.265 1.219v3.498zm16.078-8.745q.94 0 1.616.331.69.331 1.074.941t.384 1.471q0 .847-.384 1.47-.384.61-1.074.941-.675.332-1.616.332h-1.948v3.259h-1.418v-8.745zm-.225 4.266q.94 0 1.378-.384.45-.398.45-1.139 0-.756-.45-1.14-.438-.398-1.378-.398h-1.723v3.061zm8.798.226q0-.663-.371-1.021-.358-.37-.994-.371-.597 0-1.021.279-.424.278-.622.901l-1.193-.504a2.38 2.38 0 0 1 .981-1.298q.741-.49 1.908-.491.795 0 1.404.265.61.252.954.769.358.516.358 1.325v2.955q0 .49.491.49.238 0 .463-.066l-.079.981q-.305.145-.769.145-.424 0-.768-.145a1.3 1.3 0 0 1-.53-.464q-.186-.318-.186-.782v-.093l.292-.013q-.12.517-.491.861a2.5 2.5 0 0 1-.861.504 3.2 3.2 0 0 1-.994.159q-.622 0-1.126-.199a1.76 1.76 0 0 1-.782-.596q-.278-.411-.278-1.007 0-.742.477-1.219.49-.477 1.378-.65l2.571-.503-.014.994-1.868.384q-.556.106-.835.305-.278.198-.278.583a.73.73 0 0 0 .278.596q.292.212.769.212.332 0 .636-.08a1.8 1.8 0 0 0 .57-.251 1.2 1.2 0 0 0 .384-.464q.146-.291.146-.689zm9.143-2.372-2.902 7.407q-.291.769-.636 1.219a2 2 0 0 1-.768.65 2.5 2.5 0 0 1-1.021.198q-.477 0-.887-.132a2.5 2.5 0 0 1-.703-.331l.345-1.1q.251.212.53.318.291.106.623.106.357 0 .636-.199.29-.186.517-.755l.291-.716-.702-1.643-2.067-5.022h1.59l1.471 4.161.384 1.245.437-1.365 1.392-4.041zm1.21 6.625v-6.625h1.206l.132 1.192q.265-.648.782-.98.53-.345 1.299-.345.198 0 .397.04.2.027.331.093l-.198 1.245a1.7 1.7 0 0 0-.332-.079 2.2 2.2 0 0 0-.477-.04q-.41 0-.808.225a1.73 1.73 0 0 0-.663.65q-.25.437-.251 1.113v3.511zm8.194-6.758q.968 0 1.709.411.742.41 1.153 1.193.424.768.424 1.842 0 1.072-.424 1.855a2.86 2.86 0 0 1-1.153 1.179q-.741.411-1.709.411t-1.71-.411a2.95 2.95 0 0 1-1.166-1.179q-.424-.783-.424-1.855 0-1.074.424-1.842a2.9 2.9 0 0 1 1.166-1.193q.743-.411 1.71-.411m0 1.113q-.597 0-1.02.279-.41.264-.637.781-.225.517-.225 1.273 0 .741.225 1.272.226.516.637.795.423.264 1.02.265.596 0 1.007-.265.411-.279.636-.795.225-.531.225-1.272 0-.756-.225-1.273t-.636-.781q-.411-.279-1.007-.279m6.448-3.962v7.752q0 .49.172.676.173.185.57.185.239 0 .398-.026a4 4 0 0 0 .424-.133l-.159 1.061q-.226.105-.517.159a2.6 2.6 0 0 1-.583.066q-.888 0-1.312-.451-.411-.464-.411-1.418v-7.871zm4.128 0v7.752q0 .49.172.676.173.185.57.185.239 0 .398-.026a4 4 0 0 0 .424-.133l-.159 1.061q-.226.105-.517.159a2.6 2.6 0 0 1-.583.066q-.888 0-1.312-.451-.411-.464-.411-1.418v-7.871zm10.434.862q1.406 0 2.226.702.835.702.835 1.895 0 1.231-.835 1.908-.82.663-2.226.663l-.132.079h-2.028v3.498h-1.404v-8.745zm-.106 4.068q.861 0 1.272-.345.424-.358.424-1.086 0-.715-.424-1.074-.411-.358-1.272-.358h-2.054v2.863zm.835.291 2.849 4.386h-1.63l-2.438-3.829zm7.145 4.519q-.995 0-1.749-.411a2.9 2.9 0 0 1-1.18-1.179q-.41-.783-.41-1.855 0-1.074.41-1.842a2.9 2.9 0 0 1 1.167-1.193q.741-.411 1.682-.411.968 0 1.644.398.675.397 1.033 1.086t.358 1.564q0 .238-.013.451a4 4 0 0 1-.04.371h-5.327v-1.087h4.704l-.702.212q0-.901-.451-1.378-.45-.49-1.232-.49-.57 0-.994.265-.424.264-.649.795-.225.516-.225 1.272 0 .742.238 1.259t.676.781 1.033.265q.663 0 1.074-.251.41-.252.649-.703l1.126.53a2.7 2.7 0 0 1-.649.835q-.397.345-.954.53a3.8 3.8 0 0 1-1.219.186m4.745 2.65v-9.408h1.259l.106 1.855-.185-.225q.159-.517.49-.915.332-.397.822-.622a2.65 2.65 0 0 1 1.099-.226q.809 0 1.471.411.663.411 1.047 1.179.384.756.384 1.842t-.397 1.869q-.385.768-1.06 1.179a2.76 2.76 0 0 1-1.484.411q-.849 0-1.445-.437a2.47 2.47 0 0 1-.848-1.14l.159-.225v4.452zm3.247-3.803q.861 0 1.338-.61.49-.61.491-1.682 0-1.074-.477-1.683-.477-.623-1.326-.623a1.7 1.7 0 0 0-.98.291 1.9 1.9 0 0 0-.649.795q-.226.504-.226 1.22 0 .702.226 1.219.225.516.636.795.41.278.967.278m7.937-5.738q.967 0 1.709.411.742.41 1.153 1.193.424.768.424 1.842 0 1.072-.424 1.855a2.86 2.86 0 0 1-1.153 1.179q-.742.411-1.709.411t-1.71-.411a2.95 2.95 0 0 1-1.166-1.179q-.423-.783-.424-1.855 0-1.074.424-1.842a2.9 2.9 0 0 1 1.166-1.193q.742-.411 1.71-.411m0 1.113q-.597 0-1.021.279-.41.264-.636.781-.225.517-.225 1.273 0 .741.225 1.272.227.516.636.795.424.264 1.021.265.596 0 1.007-.265.411-.279.636-.795.225-.531.225-1.272 0-.756-.225-1.273t-.636-.781q-.411-.279-1.007-.279m5.07 5.645v-6.625h1.206l.132 1.192q.265-.648.782-.98.53-.345 1.298-.345.199 0 .398.04.2.027.331.093l-.198 1.245a1.7 1.7 0 0 0-.332-.079 2.2 2.2 0 0 0-.477-.04q-.41 0-.808.225a1.73 1.73 0 0 0-.663.65q-.252.437-.251 1.113v3.511zm7.098-8.573v6.586q0 .49.251.715.265.225.703.225.357 0 .622-.106.266-.118.491-.318l.318 1.034a2.3 2.3 0 0 1-.756.424 3.1 3.1 0 0 1-.98.146q-.57 0-1.047-.186a1.5 1.5 0 0 1-.742-.596q-.265-.424-.278-1.1v-6.427zm2.279 1.948v1.113h-4.969v-1.113z"/><path fill="#1e1e1e" fill-opacity=".44" d="M96.921 299.698a2.8 2.8 0 0 1-.618 1.052 2.7 2.7 0 0 1-.97.639q-.555.216-1.226.216-.979 0-1.7-.423a2.8 2.8 0 0 1-1.113-1.205q-.392-.784-.392-1.876 0-1.093.392-1.876a2.83 2.83 0 0 1 1.113-1.206q.72-.422 1.69-.422.67 0 1.206.185.546.186.928.557.381.37.587.927l-1.041.464q-.206-.608-.598-.886-.39-.29-1.02-.289-.63 0-1.103.299a2 2 0 0 0-.742.866q-.258.567-.258 1.381 0 .804.248 1.381.248.566.71.866.465.299 1.114.299.63 0 1.082-.32.465-.33.66-.979zm1.253 1.804v-5.153h.938l.103.927q.207-.505.608-.762.413-.268 1.01-.268.155 0 .309.031a.8.8 0 0 1 .258.072l-.154.969a1.2 1.2 0 0 0-.258-.062 1.7 1.7 0 0 0-.371-.031 1.26 1.26 0 0 0-.629.175q-.31.165-.515.505-.195.34-.196.866v2.731zm6.404.103q-.773 0-1.36-.319a2.26 2.26 0 0 1-.917-.918q-.32-.607-.32-1.443 0-.834.32-1.432a2.26 2.26 0 0 1 .907-.928 2.65 2.65 0 0 1 1.308-.319q.753 0 1.278.309.526.31.804.845.279.536.279 1.216 0 .186-.011.351t-.031.288h-4.143v-.845h3.659l-.546.165q0-.701-.351-1.072-.35-.381-.958-.381-.444 0-.773.206a1.3 1.3 0 0 0-.505.618q-.175.402-.175.99 0 .577.185.979.186.401.526.608t.804.206q.515 0 .834-.196.32-.195.505-.546l.877.412a2.1 2.1 0 0 1-1.248 1.062 3 3 0 0 1-.948.144m6.67-3.411q0-.516-.289-.794-.278-.288-.773-.289-.463 0-.793.217-.33.216-.485.701l-.927-.392a1.85 1.85 0 0 1 .762-1.01q.578-.381 1.484-.381.62 0 1.093.206.474.196.742.598.278.402.278 1.03v2.299q0 .381.382.381.185 0 .36-.052l-.062.763a1.4 1.4 0 0 1-.597.113q-.33 0-.598-.113a1 1 0 0 1-.412-.361 1.2 1.2 0 0 1-.145-.608v-.072l.227-.01a1.3 1.3 0 0 1-.381.67 2 2 0 0 1-.67.391 2.5 2.5 0 0 1-.773.124q-.484 0-.876-.155a1.4 1.4 0 0 1-.608-.463 1.37 1.37 0 0 1-.217-.784q0-.576.371-.948.382-.371 1.072-.505l2-.391-.011.772-1.453.299q-.433.083-.649.237a.52.52 0 0 0-.217.454.57.57 0 0 0 .217.464q.226.165.598.165.257 0 .494-.062.248-.062.444-.196a.95.95 0 0 0 .298-.361 1.2 1.2 0 0 0 .114-.536zm4.203-3.36v5.122q0 .381.195.557.207.175.547.175.278 0 .484-.083.206-.093.381-.247l.248.804a1.8 1.8 0 0 1-.588.33 2.4 2.4 0 0 1-.762.113q-.444 0-.815-.144a1.18 1.18 0 0 1-.577-.464q-.206-.33-.216-.855v-4.999zm1.772 1.515v.866h-3.865v-.866zm3.358 5.256q-.772 0-1.36-.319a2.26 2.26 0 0 1-.917-.918q-.32-.607-.32-1.443 0-.834.32-1.432a2.26 2.26 0 0 1 .907-.928 2.65 2.65 0 0 1 1.308-.319q.753 0 1.278.309.526.31.804.845.279.536.279 1.216 0 .186-.011.351t-.031.288h-4.143v-.845h3.659l-.546.165q0-.701-.351-1.072-.35-.381-.958-.381-.444 0-.773.206a1.3 1.3 0 0 0-.505.618q-.175.402-.175.99 0 .577.185.979.186.401.526.608t.804.206q.515 0 .835-.196.32-.195.505-.546l.876.412a2.1 2.1 0 0 1-1.247 1.062 3 3 0 0 1-.949.144m5.67 0q-.639 0-1.164-.319a2.2 2.2 0 0 1-.815-.918q-.299-.597-.299-1.432 0-.865.32-1.464.32-.598.855-.907a2.25 2.25 0 0 1 1.175-.319q.66 0 1.113.36.454.362.608.938l-.123.114v-3.628h1.103v7.472h-.98l-.082-1.402.144.011a1.7 1.7 0 0 1-.34.803q-.268.33-.67.516a2 2 0 0 1-.845.175m.237-.886q.444 0 .763-.227.32-.226.495-.639t.175-.989q0-.537-.175-.918a1.35 1.35 0 0 0-.495-.598 1.27 1.27 0 0 0-.722-.206q-.69 0-1.071.474-.382.475-.382 1.309 0 .836.371 1.32.372.474 1.041.474m9.834-4.473q.753 0 1.329.319.577.32.897.928.33.598.33 1.432 0 .836-.33 1.443a2.2 2.2 0 0 1-.897.918q-.576.32-1.329.319-.753 0-1.33-.319a2.3 2.3 0 0 1-.907-.918q-.329-.607-.329-1.443 0-.834.329-1.432.33-.609.907-.928t1.33-.319m0 .865q-.464 0-.794.217-.32.206-.494.608-.176.402-.176.989 0 .577.176.99.174.402.494.618.33.207.794.206.464 0 .783-.206.32-.216.495-.618.175-.412.175-.99 0-.587-.175-.989a1.33 1.33 0 0 0-.495-.608 1.37 1.37 0 0 0-.783-.217m3.943 4.391v-5.153h.979l.073 1.34-.145-.145q.144-.443.413-.731.277-.3.649-.433.381-.135.804-.134.546 0 .979.216.443.207.701.629t.257 1.072v3.339h-1.102v-2.999q0-.763-.32-1.051a1.08 1.08 0 0 0-.783-.299q-.34 0-.66.165a1.3 1.3 0 0 0-.536.505q-.206.35-.206.937v2.742zm10.809 0v-5.091l.02-.474a3.7 3.7 0 0 1-.804.587 3.5 3.5 0 0 1-.917.34l-.206-.958q.216-.031.505-.145.288-.113.598-.288.309-.176.567-.371.257-.207.402-.402h.927v6.802zm2.776 0v-.804a34 34 0 0 0 1.638-1.237 9 9 0 0 0 1.072-.989q.403-.454.577-.856.186-.412.186-.834 0-.547-.34-.887t-.948-.34q-.64 0-1.021.433-.37.423-.422 1.165l-.959-.444q.072-.649.382-1.123.309-.474.834-.732.537-.257 1.237-.257.578 0 1.01.165.444.165.742.463.299.289.454.681.165.392.165.834 0 .65-.32 1.258-.32.597-1.01 1.226-.69.628-1.814 1.35v.021q.124-.021.34-.021.217-.01.433-.01.216-.01.351-.01h2.143v.948zm9.676-7.472-3.071 8.193h-1.03l3.071-8.193zm3.316 7.575q-1.227 0-1.927-.886-.691-.897-.691-2.618 0-1.722.691-2.608.7-.896 1.927-.896 1.237 0 1.927.896.7.886.701 2.608 0 1.72-.701 2.618-.69.886-1.927.886m0-.938q.495 0 .824-.278.34-.29.505-.856.176-.577.176-1.432 0-.856-.176-1.422-.165-.577-.505-.856-.329-.288-.824-.288t-.835.288q-.33.279-.495.856-.165.566-.165 1.422t.165 1.432q.165.567.495.856.34.278.835.278m6.173.938q-.907 0-1.494-.392-.577-.392-.918-1.133l1.031-.536q.155.495.464.814.32.309.938.309.432 0 .732-.154.309-.166.474-.454.165-.298.165-.711 0-.433-.155-.722a1 1 0 0 0-.443-.432q-.289-.155-.722-.155-.298 0-.556.062a1.5 1.5 0 0 0-.464.196 1.3 1.3 0 0 0-.361.329l-.907-.175.413-3.751h3.957v.948h-3.081l-.248 1.917-.02.113h.02q.237-.257.608-.402.382-.144.897-.144.66 0 1.134.278.474.268.742.753.267.484.268 1.123 0 .557-.186.989a2 2 0 0 1-.525.732q-.34.3-.794.454a3.1 3.1 0 0 1-.969.144m7.39-7.575-3.071 8.193h-1.031l3.071-8.193zm.932 7.472v-.804a34 34 0 0 0 1.638-1.237 9 9 0 0 0 1.072-.989q.402-.454.577-.856.186-.412.186-.834 0-.547-.34-.887t-.948-.34q-.639 0-1.021.433-.37.423-.422 1.165l-.959-.444q.072-.649.382-1.123.309-.474.834-.732.537-.257 1.237-.257.578 0 1.01.165.444.165.742.463.299.289.454.681.165.392.165.834 0 .65-.32 1.258-.32.597-1.01 1.226-.69.628-1.814 1.35v.021q.124-.021.34-.021.217-.01.433-.01.216-.01.351-.01h2.143v.948zm8.563.103q-1.226 0-1.927-.886-.69-.897-.69-2.618 0-1.722.69-2.608.701-.896 1.927-.896 1.237 0 1.928.896.7.886.7 2.608 0 1.72-.7 2.618-.691.886-1.928.886m0-.938q.495 0 .825-.278.34-.29.505-.856.175-.577.175-1.432 0-.856-.175-1.422-.165-.577-.505-.856-.33-.288-.825-.288t-.834.288q-.33.279-.495.856-.165.566-.165 1.422t.165 1.432q.165.567.495.856.34.278.834.278m3.957.835v-.804a34 34 0 0 0 1.639-1.237 9 9 0 0 0 1.072-.989q.402-.454.577-.856.186-.412.186-.834 0-.547-.341-.887-.339-.34-.948-.34-.639 0-1.02.433-.37.423-.423 1.165l-.958-.444a2.54 2.54 0 0 1 .381-1.123 2.06 2.06 0 0 1 .835-.732q.536-.257 1.237-.257.577 0 1.01.165.443.165.742.463.298.289.453.681.165.392.165.834 0 .65-.319 1.258-.32.597-1.01 1.226-.691.628-1.814 1.35v.021q.123-.021.34-.021.216-.01.433-.01.216-.01.35-.01h2.144v.948zm8.286.103q-.907 0-1.495-.392-.576-.392-.917-1.133l1.031-.536q.154.495.463.814.32.309.938.309.433 0 .732-.154.309-.166.474-.454.165-.298.165-.711 0-.433-.155-.722a1 1 0 0 0-.443-.432q-.289-.155-.721-.155a2.4 2.4 0 0 0-.557.062 1.5 1.5 0 0 0-.463.196 1.3 1.3 0 0 0-.361.329l-.907-.175.412-3.751h3.958v.948h-3.082l-.247 1.917-.021.113h.021q.237-.257.608-.402.381-.144.897-.144.659 0 1.133.278.475.268.742.753.268.484.268 1.123a2.5 2.5 0 0 1-.185.989 2 2 0 0 1-.526.732q-.34.3-.793.454a3.1 3.1 0 0 1-.969.144"/><path stroke="#292d32" stroke-width="1.104" d="M285.367 290.955a1.23 1.23 0 0 0 1.227 1.227 1.23 1.23 0 0 0 1.227-1.227 1.23 1.23 0 0 0-1.227-1.227 1.23 1.23 0 0 0-1.227 1.227Z"/><path stroke="#292d32" stroke-width="1.104" d="M285.367 282.365a1.23 1.23 0 0 0 1.227 1.227 1.23 1.23 0 0 0 1.227-1.227 1.23 1.23 0 0 0-1.227-1.227 1.23 1.23 0 0 0-1.227 1.227Z"/><path stroke="#292d32" stroke-width="1.104" d="M285.367 286.66a1.23 1.23 0 0 0 1.227 1.227 1.23 1.23 0 0 0 1.227-1.227 1.23 1.23 0 0 0-1.227-1.227 1.23 1.23 0 0 0-1.227 1.227Z"/></g><defs><filter id="filter0_d_6028_34744" width="155.649" height="30.963" x="14.634" y="116.477" color-interpolation-filters="sRGB" filterUnits="userSpaceOnUse"><feFlood flood-opacity="0" result="BackgroundImageFix"/><feColorMatrix in="SourceAlpha" result="hardAlpha" values="0 0 0 0 0 0 0 0 0 0 0 0 0 0 0 0 0 0 127 0"/><feOffset dy=".665"/><feGaussianBlur stdDeviation=".665"/><feColorMatrix values="0 0 0 0 0.0627451 0 0 0 0 0.0941176 0 0 0 0 0.156863 0 0 0 0.05 0"/><feBlend in2="BackgroundImageFix" result="effect1_dropShadow_6028_34744"/><feBlend in="SourceGraphic" in2="effect1_dropShadow_6028_34744" result="shape"/></filter><filter id="filter1_d_6028_34744" width="155.649" height="30.963" x="175.607" y="116.477" color-interpolation-filters="sRGB" filterUnits="userSpaceOnUse"><feFlood flood-opacity="0" result="BackgroundImageFix"/><feColorMatrix in="SourceAlpha" result="hardAlpha" values="0 0 0 0 0 0 0 0 0 0 0 0 0 0 0 0 0 0 127 0"/><feOffset dy=".665"/><feGaussianBlur stdDeviation=".665"/><feColorMatrix values="0 0 0 0 0.0627451 0 0 0 0 0.0941176 0 0 0 0 0.156863 0 0 0 0.05 0"/><feBlend in2="BackgroundImageFix" result="effect1_dropShadow_6028_34744"/><feBlend in="SourceGraphic" in2="effect1_dropShadow_6028_34744" result="shape"/></filter><filter id="homeRectDropShadow" width="130%" height="130%" x="-10%" y="-10%" color-interpolation-filters="sRGB"><feDropShadow dx="0" dy="2" flood-color="#101828" flood-opacity=".12" stdDeviation="2"/></filter></defs></svg>