<svg xmlns="http://www.w3.org/2000/svg" fill="none" viewBox="0 0 428 356"><g filter="url(#filter0_dd_6028_34820)"><g clip-path="url(#clip0_6028_34820)"><rect width="401" height="329" x="13.305" fill="#fff" rx="12"/><path fill="#232323" d="M30.48 20.42q.87 0 1.51.33.64.32 1.08.96l-.7.68q-.38-.57-.85-.82t-1.1-.25q-.47 0-.78.13a1 1 0 0 0-.45.34 1 1 0 0 0-.14.47q0 .3.21.53.22.23.8.36l1.31.3q.95.2 1.34.62t.4 1.07q0 .6-.33 1.04t-.9.68-1.35.24a4 4 0 0 1-1.24-.18 3 3 0 0 1-.96-.48 3 3 0 0 1-.68-.7l.73-.72q.2.34.52.61.31.27.72.42.43.14.94.14.45 0 .77-.1.34-.11.5-.32a1 1 0 0 0 .18-.5.7.7 0 0 0-.2-.51q-.18-.22-.7-.33l-1.43-.33q-.59-.13-.97-.36a1.6 1.6 0 0 1-.57-.57 1.6 1.6 0 0 1-.19-.77q0-.55.3-1t.87-.71 1.36-.27m6.1 6.68q-.73 0-1.29-.3a2 2 0 0 1-.87-.88q-.3-.58-.3-1.38t.3-1.36q.31-.58.86-.89a2.5 2.5 0 0 1 1.25-.3q.72 0 1.22.3t.77.8q.26.5.26 1.16l-.01.33-.03.28h-3.95v-.8h3.49l-.52.15q0-.67-.34-1.02-.33-.37-.91-.37-.42 0-.74.2-.31.2-.48.59t-.17.94.18.94.5.58.77.2q.49 0 .8-.2.3-.18.48-.51l.83.39a2 2 0 0 1-.48.62q-.3.25-.7.4a3 3 0 0 1-.91.13m4.54-7.23v5.75q0 .37.13.5.12.14.42.14.18 0 .3-.02l.31-.1-.12.8-.38.1q-.22.06-.43.06-.66 0-.98-.34-.3-.34-.3-1.05v-5.84zm4.2 7.23q-.74 0-1.3-.3a2 2 0 0 1-.87-.88q-.3-.58-.3-1.38t.3-1.36q.32-.58.87-.89a2.5 2.5 0 0 1 1.24-.3q.72 0 1.22.3t.77.8q.26.5.26 1.16v.33l-.04.28h-3.95v-.8h3.5l-.53.15q0-.67-.33-1.02-.34-.37-.92-.37-.42 0-.73.2-.32.2-.49.59t-.16.94.17.94.5.58q.33.2.77.2.5 0 .8-.2.3-.18.48-.51l.84.39a2 2 0 0 1-.49.62q-.29.25-.7.4a3 3 0 0 1-.9.13m5.63-5.11q.6 0 1 .17.43.17.71.49.3.31.44.71l-1 .4q-.12-.45-.4-.7t-.74-.24-.75.2q-.32.2-.48.59t-.16.94.17.94q.16.38.48.58t.74.2q.34 0 .58-.11a1 1 0 0 0 .4-.33q.17-.22.23-.52l.96.32a2 2 0 0 1-.44.78q-.28.33-.71.51-.44.18-1 .18-.72 0-1.28-.3a2 2 0 0 1-.88-.88q-.3-.58-.3-1.38t.3-1.36q.32-.58.87-.89a2.6 2.6 0 0 1 1.26-.3m4.84-1.35v4.89q0 .36.18.52.2.17.52.17.27 0 .47-.08t.36-.23l.24.77q-.23.2-.56.3a2 2 0 0 1-.73.12q-.42 0-.78-.14a1 1 0 0 1-.55-.44q-.2-.32-.2-.82v-4.77zm1.69 1.45v.82h-3.7v-.82zm5.43 4h3.58V27h-4.63v-6.49h1.05zm6.73 1q-.73 0-1.3-.3a2 2 0 0 1-.87-.87q-.3-.58-.3-1.38t.3-1.36q.32-.58.87-.89a2.5 2.5 0 0 1 1.24-.3q.72 0 1.23.3.5.29.76.8.27.5.27 1.16l-.01.33-.03.28h-3.95v-.81h3.48l-.52.16q0-.67-.33-1.03t-.91-.36q-.43 0-.74.2t-.48.59q-.17.38-.17.94t.18.93q.17.39.5.58.32.2.77.2.49 0 .8-.19.3-.18.47-.52l.84.4a2 2 0 0 1-.48.62q-.3.25-.71.39a3 3 0 0 1-.9.14m6.35-3.26q0-.49-.27-.75-.27-.28-.74-.28-.44 0-.75.2-.32.21-.47.68l-.88-.38q.19-.6.73-.96.55-.36 1.41-.36.6 0 1.04.2.46.18.71.56.27.39.27.99v2.19q0 .36.36.36.18 0 .34-.05l-.05.73a1.3 1.3 0 0 1-.57.1q-.32 0-.57-.1a1 1 0 0 1-.4-.34 1 1 0 0 1-.14-.58v-.07l.22-.01q-.09.38-.36.64a2 2 0 0 1-.64.37 2 2 0 0 1-.74.12 2 2 0 0 1-.83-.15 1.3 1.3 0 0 1-.58-.44 1.3 1.3 0 0 1-.21-.75q0-.55.35-.9.37-.36 1.03-.49l1.9-.37v.74l-1.4.28q-.4.08-.61.23a.5.5 0 0 0-.2.43q0 .28.2.44t.57.16q.24 0 .47-.06.24-.06.42-.18a1 1 0 0 0 .29-.35q.1-.21.1-.5zm5.83-1.76h1.1L81 27h-1.15l-1.97-4.91h1.15l1.4 4zm4.13 5.02q-.73 0-1.3-.3a2 2 0 0 1-.87-.88q-.3-.58-.3-1.38t.3-1.36q.31-.58.86-.89a2.5 2.5 0 0 1 1.25-.3q.72 0 1.22.3.5.29.77.8.26.5.26 1.16v.33l-.04.28h-3.95v-.81h3.5l-.53.16q0-.67-.33-1.03-.34-.36-.92-.36-.42 0-.73.2-.32.2-.49.59t-.16.94.17.93q.18.39.5.58.33.2.77.2.5 0 .8-.19.3-.18.48-.52l.84.4a2 2 0 0 1-.49.62q-.3.25-.7.39a3 3 0 0 1-.9.14m11.44-6.59v.9h-2.22V27h-1.05v-5.58h-2.22v-.9zm4.69 1.57-2.15 5.5q-.22.57-.47.9a1.5 1.5 0 0 1-.57.48 2 2 0 0 1-.76.15q-.35 0-.66-.1a2 2 0 0 1-.52-.24l.26-.82q.18.16.39.24t.46.08q.27 0 .47-.15.22-.14.39-.56l.21-.53-.52-1.22-1.53-3.73h1.18l1.09 3.1.28.91.33-1 1.03-3zm.9 6.98v-6.98h.93l.08 1.38-.14-.17q.12-.38.37-.68.24-.29.6-.46.38-.16.82-.16.6 0 1.1.3.48.3.77.88.28.56.28 1.36t-.3 1.39q-.28.57-.78.87a2 2 0 0 1-1.1.3q-.63 0-1.07-.32a2 2 0 0 1-.63-.84l.12-.17v3.3zm2.4-2.82q.64 0 1-.45t.36-1.25-.35-1.25q-.36-.46-.98-.46a1.3 1.3 0 0 0-.73.22 1.4 1.4 0 0 0-.48.59q-.17.37-.17.9 0 .52.17.9.16.39.47.6t.72.2m5.91.86q-.74 0-1.3-.3a2 2 0 0 1-.87-.88q-.3-.58-.3-1.38t.3-1.37a2 2 0 0 1 .87-.88 2.5 2.5 0 0 1 1.24-.3q.72 0 1.22.29.5.3.77.8.26.52.26 1.17v.33l-.04.27h-3.95v-.8h3.5l-.53.16q0-.67-.33-1.03-.34-.36-.92-.36-.42 0-.73.2-.32.2-.49.59t-.16.94.17.93q.18.39.5.58.33.2.77.2.5 0 .8-.19.3-.18.48-.52l.84.4a2 2 0 0 1-.49.62 2 2 0 0 1-.7.39 3 3 0 0 1-.9.14"/><path fill="#ee312a" d="m116.98 22.04.8.8.72 1-.65.48-.73-1-.52-1 .19-.15zm-.38 0 .19.13.19.14-.52 1-.72 1-.65-.46.73-1zm-1.92-.97 1.18.39 1 .5-.07.21-.07.23-1.1-.2-1.18-.37zm2.52-1.24v1.23l-.17 1.11h-.48l-.15-1.1-.01-1.25zm1.71 1.24.24.76-1.17.37-1.11.2-.08-.23-.07-.21 1.01-.5z"/><rect width="373.495" height="33.787" x="27.612" y="33.764" fill="#fff" rx="3.379"/><rect width="373.495" height="33.787" x="27.612" y="33.764" stroke="#c3c9d3" stroke-width=".614" rx="3.379"/><path fill="#232323" d="M40.28 47.07q.85 0 1.47.36.62.34 1.03 1.02l-.65.51q-.37-.63-.83-.88-.45-.27-1.1-.27-.52 0-.87.15-.33.15-.49.4a1 1 0 0 0-.15.53q0 .35.21.61.22.26.87.4l1.4.32q.94.2 1.3.63.37.4.37 1.03 0 .55-.31.98-.3.42-.87.66-.56.24-1.31.24-.71 0-1.25-.19a3 3 0 0 1-.92-.52 3 3 0 0 1-.63-.73l.7-.56q.18.38.47.66.3.28.71.44.43.16.97.16.5 0 .86-.12.37-.13.57-.36a1 1 0 0 0 .2-.6 1 1 0 0 0-.2-.55q-.22-.26-.79-.39l-1.52-.34q-.6-.14-.97-.37a2 2 0 0 1-.53-.57 2 2 0 0 1-.16-.72q0-.52.28-.95.3-.45.84-.71.55-.27 1.3-.27m4.4.73a.6.6 0 0 1-.42-.16.6.6 0 0 1-.16-.43.6.6 0 0 1 .16-.42.6.6 0 0 1 .43-.17q.26 0 .42.17a.6.6 0 0 1 .17.42.6.6 0 0 1-.17.43.6.6 0 0 1-.42.16m.4.94v4.92h-.8v-4.92zm3.85-.1q.51 0 .9.16t.67.46.47.7l-.75.35q-.16-.48-.48-.72-.32-.26-.83-.26-.49 0-.84.23a1.4 1.4 0 0 0-.54.64q-.19.41-.19 1 0 .58.19 1 .18.43.54.65.35.22.84.22.39 0 .66-.12.29-.12.46-.34.19-.23.26-.55l.73.25a2 2 0 0 1-.47.78q-.28.32-.7.5a2 2 0 0 1-.92.17q-.69 0-1.23-.3a2 2 0 0 1-.84-.88q-.3-.58-.3-1.38t.3-1.36a2 2 0 0 1 .84-.89q.54-.3 1.23-.3m7.78.1-2.12 2.12-.19.18-1.61 1.62v-.99l2.93-2.94zm-3.53-2.27v7.18h-.78v-7.18zm1.48 3.98 2.17 3.2h-.95L54 50.9zm7.38 2.46h3.71v.74h-4.5v-6.49h.79zm6.85.84q-.7 0-1.25-.3a2 2 0 0 1-.85-.88q-.3-.58-.3-1.38t.3-1.36q.3-.58.84-.89a2.4 2.4 0 0 1 1.2-.3q.7 0 1.18.29.49.3.74.8.26.5.26 1.14l-.01.3-.03.25h-3.97v-.7h3.63l-.4.08q0-.71-.4-1.1-.38-.38-1.01-.38-.48 0-.84.23-.34.22-.54.64-.18.41-.18 1 0 .58.2 1 .19.43.54.65.37.22.87.22.54 0 .87-.2.35-.21.55-.57l.62.37a2 2 0 0 1-.48.58q-.28.24-.68.38a3 3 0 0 1-.86.13m6.49-3.28q0-.55-.3-.84-.3-.3-.83-.3-.52 0-.87.22t-.52.7l-.64-.39q.2-.55.73-.88.53-.34 1.32-.34.53 0 .96.18t.68.55.25.95v2.38q0 .35.38.35.18 0 .36-.05l-.04.62a1 1 0 0 1-.51.1q-.29 0-.51-.11a1 1 0 0 1-.36-.33 1 1 0 0 1-.12-.56v-.1l.2.04a1.3 1.3 0 0 1-.4.63q-.3.23-.65.35a2 2 0 0 1-.7.1q-.43 0-.8-.14a1.4 1.4 0 0 1-.6-.44 1.3 1.3 0 0 1-.22-.75q0-.55.37-.9.37-.37 1.03-.5l1.94-.38v.65l-1.58.32q-.48.1-.72.28a.6.6 0 0 0-.23.49q0 .3.23.5.25.19.7.19.28 0 .53-.07.27-.08.47-.23.21-.15.33-.38t.12-.55zm5.78-1.74H82l-2.04 4.92h-.8l-2.03-4.92h.89l1.55 4.12zm3.91 5.02q-.7 0-1.25-.3a2 2 0 0 1-.84-.88q-.3-.58-.3-1.38t.3-1.36q.3-.58.83-.89a2.4 2.4 0 0 1 1.21-.3q.69 0 1.17.29.5.3.75.8t.25 1.14v.3l-.04.25H83.2v-.7h3.63l-.4.08q0-.71-.4-1.1-.38-.38-1-.38-.49 0-.84.23-.35.22-.54.64-.19.41-.19 1 0 .58.2 1t.55.65.86.22q.54 0 .88-.2t.55-.57l.62.37a2 2 0 0 1-.49.58q-.28.24-.67.38a3 3 0 0 1-.87.13"/><path stroke="#292d32" stroke-linecap="round" stroke-linejoin="round" stroke-miterlimit="10" stroke-width=".921" d="m387.66 49.1-3.34 3.33a1 1 0 0 1-1.44 0l-3.33-3.33"/><rect width="374.11" height="36.858" x="27.305" y="78.301" fill="#fcf5e8" rx="3.686"/><path fill="#a06a10" d="M43.32 93.18 41 97.13v2.54h-.79v-2.54l-2.32-3.95h.94l1.26 2.22.52.92.52-.92 1.26-2.22zm2.34 1.47q.7 0 1.23.3.54.31.84.9.3.56.3 1.36t-.3 1.38-.84.87a2.4 2.4 0 0 1-1.23.3q-.69 0-1.23-.3a2 2 0 0 1-.84-.87q-.3-.58-.3-1.38t.3-1.37a2 2 0 0 1 .84-.88q.54-.3 1.23-.3m0 .67q-.5 0-.85.23-.36.22-.56.65-.18.4-.18 1 0 .58.18 1 .2.42.55.65t.86.23.86-.23.53-.65.2-1q0-.6-.2-1a1.4 1.4 0 0 0-.53-.65q-.36-.23-.86-.23m5.64 4.43q-.47 0-.9-.17a1.5 1.5 0 0 1-.67-.57q-.26-.4-.26-1.04v-3.23h.79v3.02q0 .75.32 1.03.33.28.91.28.28 0 .55-.1.26-.1.47-.29.21-.2.33-.52a2 2 0 0 0 .13-.74v-2.68h.79v4.92h-.7l-.04-.75a1.6 1.6 0 0 1-.7.65 3 3 0 0 1-1.02.2m7.64-.1v-7.18h.78v3q.26-.44.68-.64t.92-.2q.53 0 .97.21t.69.61.26 1.05v3.15h-.79V96.8q0-.82-.35-1.13a1.2 1.2 0 0 0-.85-.33q-.36 0-.71.17a1.4 1.4 0 0 0-.6.55q-.22.37-.22 1v2.6zm8.95-3.18q0-.55-.3-.84-.29-.3-.83-.3-.51 0-.86.22-.36.21-.52.7l-.64-.39q.2-.55.72-.88.53-.35 1.32-.35.53 0 .96.19.44.18.68.55.26.36.26.94v2.38q0 .36.37.36.19 0 .36-.05l-.04.62a1 1 0 0 1-.5.1q-.3 0-.52-.11a1 1 0 0 1-.35-.33 1 1 0 0 1-.13-.56v-.1l.2.03a1.3 1.3 0 0 1-.4.63 2 2 0 0 1-.65.36 2 2 0 0 1-.7.1q-.42 0-.8-.14a1.4 1.4 0 0 1-.6-.45 1.3 1.3 0 0 1-.21-.74q0-.55.36-.9.37-.37 1.03-.5l1.95-.38v.65l-1.58.32q-.48.1-.72.28a.6.6 0 0 0-.24.49q0 .3.24.5.24.19.69.19.28 0 .54-.07t.47-.23q.2-.15.32-.38t.12-.55zm5.79-1.74h.82l-2.04 4.92h-.79l-2.04-4.92h.9l1.55 4.12zm3.9 5.01q-.7 0-1.24-.3a2 2 0 0 1-.85-.87q-.3-.58-.3-1.38t.3-1.37a2 2 0 0 1 .84-.88 2.4 2.4 0 0 1 1.2-.3q.7 0 1.18.29.49.3.74.8.26.5.26 1.13l-.01.3-.03.26H75.7v-.7h3.62l-.4.08q0-.71-.4-1.1-.38-.38-1-.38-.49 0-.84.23-.34.21-.54.64-.19.4-.19 1 0 .58.2 1t.55.65.86.22q.54 0 .88-.21t.55-.56l.62.36a2 2 0 0 1-.48.58q-.29.25-.68.39a3 3 0 0 1-.87.12m9.84-3.27q0-.55-.3-.84-.29-.3-.83-.3-.5 0-.86.22-.36.21-.52.7l-.64-.39q.2-.55.73-.88.53-.35 1.31-.35.53 0 .97.19.43.18.67.55.26.36.26.94v2.38q0 .36.37.36.19 0 .37-.05l-.04.62a1 1 0 0 1-.51.1q-.29 0-.52-.11a1 1 0 0 1-.35-.33 1 1 0 0 1-.13-.56v-.1l.2.03a1.3 1.3 0 0 1-.4.63 2 2 0 0 1-.64.36 2 2 0 0 1-.7.1q-.43 0-.8-.14a1.4 1.4 0 0 1-.6-.45 1.3 1.3 0 0 1-.22-.74q0-.55.36-.9.38-.37 1.03-.5l1.95-.38v.65l-1.58.32q-.48.1-.72.28a.6.6 0 0 0-.24.49q0 .3.24.5.25.19.69.19.28 0 .54-.07t.47-.23a1 1 0 0 0 .32-.38q.12-.24.12-.55zm8.23 3.27q-.41 0-.77-.14a1.8 1.8 0 0 1-1-1.02l.12-.13-.07 1.2h-.69v-7.18h.79v3.37l-.1-.15q.2-.46.66-.75a2 2 0 0 1 1.07-.3 2.2 2.2 0 0 1 1.93 1.17q.3.57.3 1.38t-.3 1.37q-.31.57-.82.88-.51.3-1.12.3m-.08-.68q.73 0 1.13-.51.41-.52.41-1.36t-.4-1.36q-.4-.5-1.13-.5-.46 0-.82.23-.34.23-.54.66a2 2 0 0 0-.2.99q0 .56.2.98.19.41.53.64.36.23.82.23m6.7-2.59q0-.55-.3-.84-.29-.3-.83-.3-.5 0-.86.22-.36.21-.52.7l-.64-.39q.2-.55.72-.88.54-.35 1.32-.35.53 0 .97.19.43.18.67.55.26.36.26.94v2.38q0 .36.37.36.19 0 .37-.05l-.04.62a1 1 0 0 1-.52.1q-.28 0-.5-.11a1 1 0 0 1-.36-.33 1 1 0 0 1-.13-.56v-.1l.2.03a1.3 1.3 0 0 1-.4.63q-.29.24-.64.36a2 2 0 0 1-.7.1q-.43 0-.8-.14a1.4 1.4 0 0 1-.6-.45 1.3 1.3 0 0 1-.22-.74q0-.55.36-.9.38-.37 1.03-.5l1.95-.38v.65l-1.58.32q-.48.1-.72.28a.6.6 0 0 0-.24.49q0 .3.24.5.25.19.69.19.28 0 .54-.07t.47-.23a1 1 0 0 0 .32-.38q.12-.24.12-.55zm3.45-4v5.93q0 .37.13.52.14.14.45.14.2 0 .32-.03.13-.03.34-.11l-.12.69q-.16.07-.35.1t-.38.03q-.6 0-.9-.32-.28-.32-.28-1V92.5zm5.12 4q0-.55-.3-.84-.29-.3-.83-.3-.5 0-.86.22-.35.21-.52.7l-.64-.39q.2-.55.73-.88.53-.35 1.31-.35.53 0 .97.19.43.18.67.55.26.36.26.94v2.38q0 .36.37.36.19 0 .37-.05l-.04.62a1 1 0 0 1-.51.1q-.29 0-.52-.11a1 1 0 0 1-.35-.33 1 1 0 0 1-.13-.56v-.1l.2.03a1.3 1.3 0 0 1-.4.63q-.29.24-.64.36a2 2 0 0 1-.7.1q-.43 0-.8-.14a1.4 1.4 0 0 1-.6-.45 1.3 1.3 0 0 1-.22-.74q0-.55.36-.9.38-.37 1.04-.5l1.94-.38v.65l-1.58.32q-.48.1-.72.28a.6.6 0 0 0-.23.49q0 .3.23.5.25.19.69.19.28 0 .54-.07.27-.08.47-.23t.33-.38q.11-.24.11-.55zm2.7 3.18v-4.92h.69l.07 1.1-.13-.1a1.6 1.6 0 0 1 1.03-.99q.36-.1.73-.1.53 0 .96.2t.69.61.27 1.05v3.15h-.8V96.8q0-.82-.35-1.13a1.2 1.2 0 0 0-.85-.33q-.35 0-.7.17a1.4 1.4 0 0 0-.6.54q-.22.37-.22 1v2.62zm8.12-5.02q.51 0 .9.16t.67.45.46.7l-.74.35q-.16-.47-.48-.71-.32-.26-.83-.26-.5 0-.84.23a1.4 1.4 0 0 0-.54.64q-.2.4-.2 1 0 .58.2 1t.54.65.84.22q.38 0 .66-.12t.46-.35.26-.55l.72.26q-.16.45-.46.78-.28.32-.7.5a2 2 0 0 1-.92.16q-.69 0-1.23-.3a2 2 0 0 1-.84-.87q-.3-.59-.3-1.38t.3-1.37a2 2 0 0 1 .84-.88q.54-.3 1.23-.3m5.52 5.1q-.7 0-1.25-.3a2 2 0 0 1-.84-.88q-.3-.58-.3-1.37t.3-1.37.83-.88a2.4 2.4 0 0 1 1.21-.3q.69 0 1.17.29.5.3.75.8t.25 1.13v.3l-.04.25h-3.97v-.7h3.63l-.4.09q0-.71-.4-1.1-.38-.38-1-.38-.49 0-.84.23-.35.21-.54.64-.2.4-.2 1 0 .58.2 1t.56.65.86.22q.54 0 .88-.21t.55-.56l.62.36a2 2 0 0 1-.49.58q-.28.25-.67.39a3 3 0 0 1-.87.12m9-5.1q.7 0 1.23.3.54.3.85.88.3.57.3 1.37t-.3 1.37-.85.88a2.4 2.4 0 0 1-1.23.3q-.68 0-1.23-.3a2 2 0 0 1-.84-.88q-.3-.58-.3-1.37t.3-1.37a2 2 0 0 1 .84-.88q.55-.3 1.23-.3m0 .67q-.5 0-.85.23-.36.22-.55.64t-.19 1q0 .59.19 1.01.2.42.55.65.35.22.85.22t.86-.22.54-.65.2-1q0-.6-.2-1a1.4 1.4 0 0 0-.54-.65q-.36-.23-.86-.23m5.77-2.89q.26 0 .48.06.23.06.36.17l-.21.63-.26-.1a1 1 0 0 0-.3-.04q-.42 0-.66.2-.23.2-.23.64v5.66h-.8v-5.74q0-.32.1-.6t.3-.47a1.4 1.4 0 0 1 .51-.3q.3-.11.71-.11m.82 2.31v.68h-3.41v-.68zm5.08 4.91v-4.85l.02-.45a4 4 0 0 1-.76.56q-.43.22-.88.32l-.2-.91q.21-.03.49-.14.27-.1.57-.28t.54-.35q.24-.2.38-.38h.88v6.48zm5.05.1q-1.17 0-1.84-.84-.66-.86-.66-2.5t.66-2.49 1.84-.85 1.84.85.66 2.49-.66 2.5q-.66.84-1.84.84m0-.9q.47 0 .78-.26.33-.27.49-.81.16-.55.16-1.37t-.16-1.36q-.16-.55-.49-.81-.31-.28-.78-.28t-.8.28q-.31.26-.47.81-.16.54-.16 1.36t.16 1.37q.16.54.47.81.33.27.8.27m7.35.8v-4.92h.64l.1.8q.21-.45.6-.67.4-.23.98-.23l.27.02q.16.02.27.08l-.14.72-.24-.06-.36-.02q-.3 0-.62.17a1.4 1.4 0 0 0-.51.55q-.2.35-.2.9v2.65zm5.9.1q-.69 0-1.24-.31a2 2 0 0 1-.84-.88q-.3-.58-.3-1.37t.3-1.37.83-.88a2.4 2.4 0 0 1 1.21-.3q.69 0 1.17.29.5.3.75.8t.25 1.13v.3l-.04.25h-3.97v-.7h3.63l-.4.08q0-.7-.4-1.09-.38-.38-1-.38-.5 0-.84.22a1.5 1.5 0 0 0-.54.64q-.2.42-.2 1t.2 1q.2.43.56.66.36.21.86.21.54 0 .88-.2a2 2 0 0 0 .55-.56l.61.36a2 2 0 0 1-.48.58 2 2 0 0 1-.68.38 3 3 0 0 1-.86.13m3.62-.1v-4.91h.69l.05.77q.26-.45.68-.66.44-.2.89-.2.52 0 .98.23t.7.73q.17-.34.45-.55t.62-.31.65-.1q.47 0 .9.19.43.2.7.6.28.42.28 1.07v3.14h-.8V96.6q0-.67-.32-.97a1.2 1.2 0 0 0-.83-.3q-.38 0-.72.2a1.4 1.4 0 0 0-.54.55q-.2.36-.2.9v2.68h-.78V96.6q0-.67-.33-.97a1.2 1.2 0 0 0-.83-.3q-.32 0-.67.19-.33.16-.56.54-.22.37-.23.98v2.62zm12.24-3.17q0-.55-.3-.85t-.83-.3q-.51 0-.87.22-.35.22-.52.71l-.64-.39a1.7 1.7 0 0 1 .73-.89q.53-.34 1.32-.34.53 0 .96.19.43.17.68.55.25.36.25.94v2.38q0 .35.38.35.18 0 .36-.05l-.04.62a1 1 0 0 1-.51.1q-.29 0-.51-.1a1 1 0 0 1-.36-.33 1 1 0 0 1-.12-.56v-.1l.2.03a1.3 1.3 0 0 1-.41.63q-.28.24-.64.35a2 2 0 0 1-.7.11q-.43 0-.8-.15a1.4 1.4 0 0 1-.6-.44 1.3 1.3 0 0 1-.22-.74q0-.55.37-.9.37-.37 1.03-.5l1.94-.38v.64l-1.58.33q-.48.1-.72.27a.6.6 0 0 0-.23.5q0 .3.23.5.25.18.7.18.28 0 .53-.07.27-.07.47-.22a1 1 0 0 0 .33-.38q.12-.24.12-.55zm3.09-2.68a.6.6 0 0 1-.44-.16.6.6 0 0 1-.15-.43.6.6 0 0 1 .15-.43.6.6 0 0 1 .44-.16q.26 0 .42.16a.6.6 0 0 1 .17.43.6.6 0 0 1-.17.43.6.6 0 0 1-.42.16m.39.94v4.91h-.79v-4.91zm1.82 4.91v-4.91h.7l.06 1.1-.13-.1a1.6 1.6 0 0 1 1.04-1q.35-.1.72-.1.53 0 .97.2t.68.62q.27.41.27 1.05v3.14h-.79V96.8q0-.81-.35-1.13a1.2 1.2 0 0 0-.86-.32q-.35 0-.7.17a1.4 1.4 0 0 0-.6.54q-.22.37-.22 1v2.61zm6.48-5.85a.6.6 0 0 1-.43-.16.6.6 0 0 1-.16-.43.6.6 0 0 1 .16-.43.6.6 0 0 1 .43-.16q.27 0 .43.16a.6.6 0 0 1 .16.43.6.6 0 0 1-.16.43.6.6 0 0 1-.43.16m.4.94v4.91h-.8v-4.91zm1.82 4.91v-4.91h.69l.07 1.1-.13-.1a1.6 1.6 0 0 1 1.03-1q.36-.1.73-.1.53 0 .96.2t.69.62q.27.41.27 1.05v3.14h-.8V96.8q0-.81-.34-1.13a1.2 1.2 0 0 0-.86-.32q-.35 0-.7.17a1.4 1.4 0 0 0-.6.54q-.22.37-.22 1v2.61zm10.22-5.82.18.7h-.07q-.48 0-.74.2-.26.19-.26.61l-.48-.25q0-.38.17-.67t.49-.43q.3-.16.66-.16zm-1.49 5.2q.7 0 1.1.32.38.31.38.84 0 .49-.32.84-.31.35-.86.54a3 3 0 0 1-1.2.2q-1.15 0-1.73-.4-.57-.39-.57-.94 0-.4.25-.7.27-.31.89-.35l-.07.15a1.4 1.4 0 0 1-.57-.3q-.23-.22-.23-.62t.3-.69.89-.36l.52.27h-.1q-.48.05-.69.24a.6.6 0 0 0-.2.41q0 .28.2.42.21.12.58.12zm-.9 2.08q.57 0 .93-.12t.55-.3a.6.6 0 0 0 .18-.4.5.5 0 0 0-.22-.43q-.2-.16-.76-.16h-1.51a1 1 0 0 0-.53.16.5.5 0 0 0-.22.45q0 .37.42.58.42.22 1.16.22m-.07-6.47q.59 0 1.04.22.46.2.72.58t.25.86-.25.87-.72.59a3 3 0 0 1-1.04.2q-.98 0-1.5-.46a1.6 1.6 0 0 1-.52-1.2q0-.49.26-.86a2 2 0 0 1 .72-.58 2.4 2.4 0 0 1 1.04-.22m0 .64q-.51 0-.86.28a.9.9 0 0 0-.34.74q0 .45.34.74t.86.28q.5 0 .85-.28a1 1 0 0 0 .35-.74.9.9 0 0 0-.35-.74q-.34-.28-.85-.28m8.68 4.47q-.74 0-1.35-.28a2.3 2.3 0 0 1-.96-.81l.72-.63q.22.4.62.65.42.24.99.24.45 0 .71-.16a.5.5 0 0 0 .27-.44.5.5 0 0 0-.13-.33q-.12-.15-.46-.22l-1.03-.22q-.79-.16-1.12-.5-.34-.36-.34-.9 0-.4.24-.74.23-.35.69-.55.46-.22 1.1-.22.73 0 1.26.27.52.25.8.73l-.74.61a1.2 1.2 0 0 0-.55-.58 2 2 0 0 0-.75-.2q-.32 0-.54.08a1 1 0 0 0-.35.22.5.5 0 0 0-.12.32q0 .2.15.35t.53.22l1.12.24q.71.14 1 .47t.29.8-.25.83-.7.55-1.1.2m3.86-5.84q-.34 0-.53-.16-.18-.18-.18-.5t.18-.48.53-.16.51.16q.19.17.19.48 0 .32-.19.5-.17.16-.5.16m.51.83v4.91h-1.05v-4.91zm3.77-.1q.6 0 1 .18.43.16.71.48t.43.72l-.99.39q-.13-.45-.41-.69t-.73-.24a1.4 1.4 0 0 0-.76.2 1.3 1.3 0 0 0-.48.58q-.15.38-.15.95 0 .55.16.93.17.38.48.58.32.2.75.2.33 0 .58-.11t.4-.33q.17-.21.23-.52l.95.33a2 2 0 0 1-.43.77q-.28.33-.72.51a3 3 0 0 1-.99.18q-.73 0-1.29-.3a2 2 0 0 1-.87-.88q-.3-.58-.3-1.37t.3-1.37.86-.89a2.6 2.6 0 0 1 1.27-.3m8.04.1-2.2 2.24-.22.16-1.54 1.6-.01-1.2 2.72-2.8zm-3.6-2.21v7.12h-1.04v-7.12zm1.53 3.86 2.18 3.26h-1.21L225.8 97zm7.17-3.86v5.75q0 .36.13.5t.43.14q.17 0 .29-.02.13-.03.31-.1l-.11.78a2 2 0 0 1-.39.12q-.21.05-.43.05-.66 0-.97-.33-.3-.35-.3-1.06v-5.83zm4.2 7.22q-.73 0-1.3-.3a2 2 0 0 1-.87-.88q-.3-.58-.3-1.37t.3-1.37q.32-.58.87-.89a2.5 2.5 0 0 1 1.25-.3q.72 0 1.22.3t.76.8.27 1.16l-.01.33-.03.28h-3.95v-.8h3.49l-.52.15q0-.67-.34-1.02-.33-.36-.91-.36-.42 0-.74.2-.31.19-.48.58t-.17.95.18.93.5.58.77.2q.49 0 .8-.2.3-.18.47-.51l.84.4a2 2 0 0 1-.48.61 2 2 0 0 1-.71.4 3 3 0 0 1-.9.13m6.36-3.25q0-.5-.28-.76-.26-.27-.74-.27a1.4 1.4 0 0 0-.75.2q-.32.2-.46.67l-.89-.37q.19-.6.73-.97.55-.36 1.41-.36.6 0 1.05.2.45.18.7.57.27.38.27.98v2.2q0 .35.36.35.18 0 .35-.04l-.06.72q-.23.11-.57.11-.32 0-.57-.1a1 1 0 0 1-.4-.35 1 1 0 0 1-.13-.58v-.07h.21a1.2 1.2 0 0 1-.36.63 2 2 0 0 1-.64.37 2 2 0 0 1-.74.12q-.46 0-.83-.15a1.3 1.3 0 0 1-.58-.44 1.3 1.3 0 0 1-.2-.75q0-.55.35-.9.36-.35 1.02-.48l1.9-.38v.74l-1.4.29q-.4.08-.61.22a.5.5 0 0 0-.2.44q0 .27.2.44.22.15.57.15.25 0 .47-.05.24-.06.42-.19a1 1 0 0 0 .29-.34q.1-.22.1-.52zm5.82-1.76h1.1l-1.95 4.91h-1.15l-1.97-4.91h1.15l1.4 4zm4.13 5.01q-.73 0-1.3-.3a2 2 0 0 1-.87-.88q-.3-.58-.3-1.37t.3-1.37q.32-.58.87-.89a2.5 2.5 0 0 1 1.25-.3q.71 0 1.21.3.5.29.77.8t.27 1.16l-.01.33-.03.28h-3.95v-.8h3.48l-.52.15q0-.67-.33-1.02-.33-.36-.91-.36a1.4 1.4 0 0 0-.74.2q-.32.19-.48.58-.17.38-.17.95 0 .55.18.93t.5.58.76.2q.5 0 .8-.2t.48-.51l.84.4a2 2 0 0 1-.48.61q-.3.26-.71.4a3 3 0 0 1-.9.13m8.88 0a2.2 2.2 0 0 1-1.94-1.18q-.3-.58-.3-1.37 0-.82.32-1.39.33-.57.86-.87a2.3 2.3 0 0 1 1.14-.3q.6 0 1.05.31.45.32.6.84l-.1.07v-3.38h.79v7.17h-.7l-.06-1.19.1-.05a1.4 1.4 0 0 1-.33.73q-.25.3-.64.46a2 2 0 0 1-.8.15m.09-.69q.47 0 .81-.23.36-.24.54-.67.2-.44.2-1.03 0-.56-.2-.96a1.4 1.4 0 0 0-.53-.62 1.4 1.4 0 0 0-.78-.22q-.75 0-1.16.51t-.42 1.36.4 1.35 1.14.51m7.03-2.58q0-.55-.3-.85-.29-.3-.83-.3-.5 0-.86.23-.35.21-.52.7l-.64-.39q.2-.55.73-.88.53-.35 1.31-.35.53 0 .97.19.43.18.68.55.25.36.25.94v2.38q0 .36.37.36.19 0 .37-.05l-.04.62a1 1 0 0 1-.51.1q-.29 0-.51-.11a1 1 0 0 1-.36-.33 1 1 0 0 1-.13-.56v-.1l.2.03a1.3 1.3 0 0 1-.4.63q-.29.24-.64.35a2 2 0 0 1-.7.11q-.43 0-.8-.14a1.4 1.4 0 0 1-.6-.45 1.3 1.3 0 0 1-.22-.74q0-.55.36-.9.38-.37 1.04-.5l1.94-.38v.65l-1.58.32q-.48.1-.72.28a.6.6 0 0 0-.23.49q0 .3.23.5.25.18.69.18.28 0 .54-.06.27-.08.47-.23a1 1 0 0 0 .33-.38q.11-.24.11-.55zm6.45-1.74-2.3 5.74q-.2.48-.42.76t-.5.4a1.4 1.4 0 0 1-.61.13q-.33 0-.62-.1a2 2 0 0 1-.5-.25l.23-.68q.2.17.4.25.23.09.45.09a1 1 0 0 0 .48-.16q.23-.15.42-.64l.25-.64-.5-1.17-1.55-3.73h.89l1.23 3.2.3.88.36-.97 1.15-3.1zm2.68 5.01q-.72 0-1.33-.3a2 2 0 0 1-.92-.87l.66-.48q.22.45.63.71.43.25 1.01.25.53 0 .82-.2.3-.2.3-.52a.6.6 0 0 0-.14-.38q-.13-.17-.5-.25l-1.18-.25q-.72-.14-1.03-.49a1.2 1.2 0 0 1-.31-.85q0-.4.23-.74t.66-.53a2 2 0 0 1 1-.2q.73 0 1.24.28.5.28.74.8l-.66.44a1.2 1.2 0 0 0-.54-.63 1.6 1.6 0 0 0-.77-.21q-.36 0-.61.1a1 1 0 0 0-.39.27.6.6 0 0 0-.12.39q0 .21.14.4.15.18.55.26l1.23.25q.7.14.97.45.27.32.27.77a1.4 1.4 0 0 1-.24.82q-.25.34-.7.53a3 3 0 0 1-1.01.18"/><path fill="#232323" d="M30.48 135.77q.87 0 1.51.34.64.32 1.08.96l-.7.68q-.38-.57-.85-.82t-1.1-.25q-.47 0-.78.13a1 1 0 0 0-.45.34 1 1 0 0 0-.14.47q0 .3.21.53.22.23.8.36l1.31.3q.95.2 1.34.62t.4 1.07q0 .6-.33 1.04a2 2 0 0 1-.9.68q-.58.24-1.35.24-.7 0-1.24-.18a3 3 0 0 1-.96-.48 3 3 0 0 1-.68-.7l.73-.73q.2.35.52.62.31.27.72.42.43.14.94.14.45 0 .77-.1.34-.11.5-.32a1 1 0 0 0 .18-.51.7.7 0 0 0-.2-.5q-.18-.22-.7-.34l-1.43-.32a3 3 0 0 1-.97-.36 1.6 1.6 0 0 1-.57-.57 1.6 1.6 0 0 1-.19-.77q0-.55.3-1t.87-.71 1.36-.28m5.38.23v4.88q0 .37.19.54.2.16.52.16.26 0 .46-.08t.36-.23l.24.76a2 2 0 0 1-.56.32 2 2 0 0 1-.73.1 2 2 0 0 1-.77-.13 1 1 0 0 1-.55-.44q-.2-.32-.21-.82v-4.77zm1.7 1.44v.83h-3.7v-.83zm3.9 1.76q0-.49-.28-.75-.26-.28-.73-.28-.44 0-.76.2-.31.21-.46.68l-.89-.38q.2-.6.73-.96.55-.36 1.42-.36.59 0 1.04.2.45.18.7.56.27.39.27.99v2.19q0 .36.37.36.17 0 .34-.05l-.06.73q-.22.1-.57.1-.31 0-.57-.1a1 1 0 0 1-.4-.34 1 1 0 0 1-.13-.58v-.07l.22-.01q-.1.38-.37.64a2 2 0 0 1-.64.37 2 2 0 0 1-.73.12q-.47 0-.84-.15a1.3 1.3 0 0 1-.58-.44 1.3 1.3 0 0 1-.2-.75q0-.55.35-.9.36-.36 1.02-.49l1.9-.37v.74l-1.39.28q-.41.08-.62.23a.5.5 0 0 0-.2.43q0 .28.2.44.22.16.57.16.25 0 .47-.06.24-.06.43-.18a1 1 0 0 0 .28-.35q.11-.21.11-.5zm2.77 3.16v-4.92h.89l.1.89a1.5 1.5 0 0 1 .58-.73q.4-.25.96-.25.15 0 .3.03t.24.06l-.15.93-.24-.06-.36-.03q-.3 0-.6.17-.29.15-.49.48-.18.32-.18.82v2.6zm5.26-6.36v4.89q0 .36.19.53.2.16.52.16.26 0 .46-.08t.37-.23l.23.76a2 2 0 0 1-.56.32 2 2 0 0 1-.73.1 2 2 0 0 1-.77-.13 1 1 0 0 1-.55-.44q-.2-.32-.21-.82v-4.77zm1.7 1.45v.82h-3.7v-.83zm6.67-1.58q1.52 0 2.36.85.86.83.86 2.4t-.86 2.4-2.36.84h-2.3v-6.49zm0 5.6q1.03 0 1.57-.61.55-.62.55-1.74t-.55-1.73q-.54-.62-1.57-.62h-1.24v4.7zm7.45-2.27q0-.49-.27-.75-.27-.28-.74-.28-.44 0-.76.2-.31.21-.46.68l-.88-.38q.18-.6.72-.96.56-.36 1.42-.36.6 0 1.04.2.46.18.71.56.27.39.27.99v2.19q0 .36.36.36.18 0 .34-.05l-.06.73q-.22.1-.57.1-.31 0-.57-.1a1 1 0 0 1-.39-.34 1 1 0 0 1-.14-.58v-.07l.22-.01q-.09.38-.36.64a2 2 0 0 1-.64.37 2 2 0 0 1-.74.12q-.46 0-.84-.15a1.3 1.3 0 0 1-.58-.44 1.3 1.3 0 0 1-.2-.75q0-.55.35-.9.37-.36 1.02-.49l1.91-.37v.74l-1.4.28q-.4.08-.61.23a.5.5 0 0 0-.21.43q0 .28.2.44.22.16.58.16.24 0 .47-.06t.42-.18a1 1 0 0 0 .29-.35q.1-.21.1-.5zm4.01-3.2v4.89q0 .36.19.53.2.16.52.16.27 0 .46-.08.2-.08.36-.23l.24.76a2 2 0 0 1-.56.32 2 2 0 0 1-.73.1 2 2 0 0 1-.77-.13 1 1 0 0 1-.55-.44q-.2-.32-.21-.82v-4.77zm1.7 1.45v.82h-3.7v-.83zm3.2 5q-.74 0-1.3-.3a2 2 0 0 1-.88-.87q-.3-.58-.3-1.38t.3-1.36.87-.89a2.5 2.5 0 0 1 1.25-.3q.71 0 1.22.3.5.29.76.8.27.5.27 1.16l-.01.33-.03.28h-3.95v-.8h3.49l-.52.15q0-.67-.34-1.02-.33-.37-.91-.37-.43 0-.74.2-.32.2-.48.59-.17.38-.17.94t.18.94.5.58.77.2q.49 0 .8-.2.3-.18.47-.52l.84.4a2 2 0 0 1-.48.62q-.3.25-.71.39a3 3 0 0 1-.9.14"/><path fill="#ee312a" d="m79.85 137.4.8.8.72 1-.65.48-.72-1-.52-1 .18-.15zm-.37 0 .18.13.19.14-.52 1-.72 1-.65-.47.73-1zm-1.93-.97 1.18.39 1.01.5-.08.21-.06.23-1.12-.2-1.17-.37zm2.53-1.25-.01 1.24-.17 1.11h-.47l-.16-1.1-.01-1.25zm1.7 1.25.24.76-1.17.37-1.1.2-.09-.23-.07-.21 1.02-.5z"/><rect width="173.847" height="33.787" x="27.612" y="149.124" fill="#fff" rx="3.379"/><rect width="173.847" height="33.787" x="27.612" y="149.124" stroke="#c3c9d3" stroke-width=".614" rx="3.379"/><path fill="#232323" d="M37.86 169.02v-.64q.97-.72 1.62-1.26t1.05-.98.56-.84.17-.83q0-.58-.37-.94t-1-.36q-.67 0-1.08.44-.4.43-.47 1.16l-.69-.41q.1-.57.37-1 .28-.44.75-.68.48-.25 1.14-.25.5 0 .9.15t.69.42.43.64q.16.37.16.83 0 .6-.3 1.2-.3.58-.97 1.21-.68.64-1.84 1.42v.01l.3-.01.38-.01.3-.01h2.26v.74zm5.73 0v-.64q.98-.72 1.62-1.26.66-.54 1.05-.98.4-.45.56-.84.17-.4.17-.83 0-.58-.37-.94t-1-.36q-.67 0-1.08.44-.4.43-.47 1.16l-.69-.41q.1-.57.37-1 .28-.44.76-.68t1.14-.25q.5 0 .89.15.4.15.69.42t.43.64q.16.37.16.83 0 .6-.3 1.2-.3.58-.97 1.21-.68.64-1.84 1.42v.01l.3-.01.38-.01.3-.01h2.26v.74zm8.94-2.98v.81h-3.24v-.81zm3.94 3.08q-1.1 0-1.76-.86-.66-.85-.66-2.49t.66-2.48 1.76-.86 1.76.86.66 2.48-.66 2.5q-.65.85-1.76.85m0-.71q.52 0 .87-.3.37-.3.54-.9.19-.58.19-1.44t-.19-1.44q-.17-.6-.54-.89a1.3 1.3 0 0 0-.87-.3q-.52 0-.89.3-.35.3-.54.89-.17.59-.17 1.44 0 .86.17 1.45.19.59.54.9.37.29.89.29m5.97-5.98q.82 0 1.38.43t.85 1.18q.28.75.28 1.73 0 1.1-.28 1.84t-.85 1.12q-.55.39-1.37.39-.8 0-1.38-.38-.58-.37-.87-1.09l.78-.41q.16.5.51.82.36.32 1 .32.5 0 .84-.2t.54-.58.28-.91.08-1.18v-.09h-.04a1.5 1.5 0 0 1-.4.72q-.3.26-.68.38a2 2 0 0 1-.72.12q-.65 0-1.14-.25a2 2 0 0 1-.76-.7q-.28-.46-.28-1.08 0-.66.27-1.15.26-.49.76-.75.5-.28 1.2-.28m.02.76q-.7 0-1.06.38t-.36 1.05q0 .58.38.93.39.33 1.04.33.42 0 .73-.17.33-.17.5-.47.18-.3.18-.7t-.18-.71a1.2 1.2 0 0 0-.5-.47 2 2 0 0 0-.73-.17m7.26 2.85v.81h-3.24v-.81zm1.22 2.98v-.64q.97-.72 1.62-1.26t1.05-.98.56-.84.17-.83q0-.58-.38-.94-.36-.36-1-.36-.67 0-1.07.44-.4.43-.47 1.16l-.69-.41q.09-.57.36-1 .29-.44.76-.68t1.14-.25q.5 0 .9.15t.68.42.44.64.15.83q0 .6-.3 1.2-.29.58-.96 1.21-.68.64-1.84 1.42v.01l.3-.01.38-.01.29-.01h2.27v.74zm8.06.1q-1.1 0-1.76-.86-.66-.85-.66-2.49 0-1.63.66-2.48.65-.86 1.76-.86t1.76.86.65 2.48q0 1.64-.65 2.5-.65.85-1.76.85m0-.71q.52 0 .87-.3.36-.3.54-.9.19-.58.19-1.44t-.19-1.44q-.18-.6-.54-.89a1.3 1.3 0 0 0-.87-.3q-.52 0-.89.3-.35.3-.54.89-.18.59-.18 1.44t.18 1.45.54.9q.37.29.89.29m3.78.6v-.63q.98-.72 1.62-1.26.66-.54 1.05-.98.4-.45.56-.84.17-.4.17-.83 0-.58-.37-.94-.36-.36-1-.36-.67 0-1.08.44-.4.43-.47 1.16l-.69-.41q.1-.57.37-1 .28-.44.76-.68t1.14-.25q.5 0 .89.15.4.15.69.42t.43.64q.16.37.16.83 0 .6-.3 1.2-.3.58-.97 1.21-.68.64-1.84 1.42v.01l.3-.01.38-.01.3-.01h2.26v.74zm7.83.1q-.87 0-1.4-.39t-.8-1.09l.76-.4q.16.5.48.83.33.32.97.32.46 0 .77-.17.32-.17.5-.47a1.5 1.5 0 0 0 .18-.75q0-.46-.17-.76a1 1 0 0 0-.46-.48 2 2 0 0 0-.75-.15q-.31 0-.59.07a2 2 0 0 0-.48.2 1 1 0 0 0-.37.36l-.69-.13.38-3.57h3.65v.74h-2.98l-.25 2.04-.02.1h.02q.23-.26.6-.4t.88-.15q.62 0 1.07.26t.72.73.26 1.1q0 .5-.17.9a2 2 0 0 1-.47.7 2 2 0 0 1-.73.42q-.41.15-.91.15"/><path stroke="#393e46" stroke-linecap="round" stroke-linejoin="round" stroke-miterlimit="10" stroke-width=".921" d="M182.57 160.9v1.53"/><path stroke="#393e46" stroke-linecap="round" stroke-linejoin="round" stroke-miterlimit="10" stroke-width=".921" d="M186.66 160.9v1.53"/><path stroke="#393e46" stroke-linecap="round" stroke-linejoin="round" stroke-miterlimit="10" stroke-width=".921" d="M180.27 164.53h8.7"/><path stroke="#393e46" stroke-linecap="round" stroke-linejoin="round" stroke-miterlimit="10" stroke-width=".921" d="M189.22 164.22v4.35c0 1.54-.77 2.56-2.56 2.56h-4.1c-1.78 0-2.55-1.02-2.55-2.56v-4.35c0-1.53.77-2.56 2.56-2.56h4.1c1.78 0 2.55 1.03 2.55 2.56"/><path stroke="#393e46" stroke-linecap="round" stroke-linejoin="round" stroke-width="1.229" d="M186.5 166.89"/><path stroke="#393e46" stroke-linecap="round" stroke-linejoin="round" stroke-width="1.229" d="M186.5 168.42"/><path stroke="#393e46" stroke-linecap="round" stroke-linejoin="round" stroke-width="1.229" d="M184.61 166.89"/><path stroke="#393e46" stroke-linecap="round" stroke-linejoin="round" stroke-width="1.229" d="M184.61 168.42"/><path stroke="#393e46" stroke-linecap="round" stroke-linejoin="round" stroke-width="1.229" d="M182.72 166.89"/><path stroke="#393e46" stroke-linecap="round" stroke-linejoin="round" stroke-width="1.229" d="M182.72 168.42"/><path fill="#232323" d="M227.3 142.36v-6.49h4.7v.9h-3.64v1.87h2.85v.89h-2.85v1.92h3.78v.9zm6.1 0v-4.92h.94l.07 1.28-.14-.13q.14-.43.4-.7.26-.29.61-.42.36-.12.77-.12.52 0 .93.2t.67.6.25 1.02v3.19h-1.06v-2.86q0-.73-.3-1a1 1 0 0 0-.75-.29 1.4 1.4 0 0 0-.63.16 1.2 1.2 0 0 0-.5.48q-.2.33-.2.9v2.6zm7.98.1a2 2 0 0 1-1.11-.3 2 2 0 0 1-.78-.88q-.28-.57-.28-1.37 0-.82.3-1.4t.82-.86a2 2 0 0 1 1.12-.3q.63 0 1.06.34t.58.9l-.12.1v-3.46h1.05v7.13h-.93l-.08-1.34.14.01a1.6 1.6 0 0 1-.33.77 2 2 0 0 1-.64.5 2 2 0 0 1-.8.16m.22-.85q.43 0 .73-.21a1.4 1.4 0 0 0 .47-.61q.17-.4.17-.95 0-.5-.17-.87a1.3 1.3 0 0 0-.47-.57 1.2 1.2 0 0 0-.69-.2q-.66 0-1.02.45t-.36 1.25.35 1.26 1 .45m9.68-5.74q1.52 0 2.36.85.86.83.86 2.4t-.86 2.4q-.84.84-2.36.84h-2.3v-6.49zm0 5.6q1.03 0 1.57-.61.55-.62.55-1.74t-.55-1.73q-.54-.62-1.57-.62h-1.24v4.7zm7.45-2.27q0-.49-.27-.75-.27-.28-.74-.28-.44 0-.76.2-.31.21-.46.68l-.88-.38q.18-.6.73-.96t1.41-.36q.6 0 1.04.2.46.18.71.56.27.39.27.99v2.19q0 .36.36.36.18 0 .34-.05l-.06.73a1.3 1.3 0 0 1-.57.1q-.31 0-.57-.1a1 1 0 0 1-.39-.34 1 1 0 0 1-.14-.58v-.07l.22-.01q-.09.38-.36.64a2 2 0 0 1-.64.37 2 2 0 0 1-.74.12q-.46 0-.84-.15a1.3 1.3 0 0 1-.58-.44 1.3 1.3 0 0 1-.2-.75q0-.55.35-.9.37-.36 1.02-.49l1.91-.37v.74l-1.4.28q-.4.08-.61.23a.5.5 0 0 0-.21.43.5.5 0 0 0 .2.44q.22.16.58.16.24 0 .47-.06t.42-.18a1 1 0 0 0 .28-.35q.11-.21.11-.5zm4.01-3.2v4.88q0 .37.19.54.2.16.52.16.27 0 .46-.08.2-.08.36-.23l.24.76a2 2 0 0 1-.56.32 2 2 0 0 1-.73.1q-.42 0-.77-.13a1 1 0 0 1-.55-.44q-.2-.32-.21-.82v-4.77zm1.7 1.44v.83h-3.7v-.83zm3.2 5.02q-.74 0-1.3-.3a2 2 0 0 1-.88-.88q-.3-.58-.3-1.38t.3-1.36q.32-.58.87-.89a2.5 2.5 0 0 1 1.25-.3q.71 0 1.21.3.5.29.77.8.27.5.27 1.16l-.01.33-.03.28h-3.95v-.8h3.48l-.52.15q0-.67-.33-1.02-.33-.37-.91-.37-.43 0-.74.2-.32.2-.48.59-.17.38-.17.94t.18.94.5.58.76.2q.5 0 .8-.2t.48-.52l.84.4a2 2 0 0 1-.48.62 2 2 0 0 1-.71.39 3 3 0 0 1-.9.14"/><path fill="#ee312a" d="m273.28 137.4.8.8.72 1-.65.48-.72-1-.52-1 .18-.15zm-.37 0 .18.13.19.14-.52 1-.72 1-.65-.47.73-1zm-1.93-.97 1.18.39 1.01.5-.08.21-.07.23-1.1-.2-1.18-.37zm2.53-1.25-.01 1.24-.17 1.11h-.47l-.16-1.1-.01-1.25zm1.7 1.25.24.76-1.17.37-1.1.2-.09-.23-.07-.21 1.02-.5z"/><rect width="173.847" height="33.787" x="226.647" y="149.124" fill="#fff" rx="3.379"/><rect width="173.847" height="33.787" x="226.647" y="149.124" stroke="#c3c9d3" stroke-width=".614" rx="3.379"/><path fill="#232323" d="M236.9 169.02v-.64q.97-.72 1.62-1.26a10 10 0 0 0 1.05-.98q.4-.45.56-.84.17-.4.17-.83 0-.58-.38-.94-.36-.36-1-.36-.67 0-1.07.44-.4.43-.47 1.16l-.7-.41q.1-.57.37-1 .29-.44.76-.68t1.14-.25q.5 0 .9.15t.68.42.43.64.16.83q0 .6-.3 1.2-.29.58-.97 1.21-.67.64-1.83 1.42v.01l.3-.01.37-.01.3-.01h2.27v.74zm5.2-6.49h4.78v.74a9 9 0 0 0-1.34 1.78 7 7 0 0 0-.75 1.88 9 9 0 0 0-.23 2.09h-.8q0-1.1.26-2.14a8 8 0 0 1 .82-2.01 9 9 0 0 1 1.37-1.8l.13.2h-4.24zm8.74 3.5v.83h-3.25v-.82zm3.93 3.09q-1.1 0-1.76-.86t-.65-2.49.66-2.48 1.75-.86q1.11 0 1.76.86.66.85.66 2.48t-.66 2.5q-.64.85-1.76.85m0-.71q.53 0 .88-.3.36-.3.54-.9.19-.58.19-1.44t-.19-1.44q-.18-.6-.54-.88a1.3 1.3 0 0 0-.88-.31 1.3 1.3 0 0 0-.88.3q-.35.3-.54.89-.18.59-.18 1.44t.18 1.45.54.9q.36.29.88.29m5.98-5.98q.82 0 1.38.44.56.42.84 1.17.29.75.29 1.73 0 1.1-.29 1.84t-.84 1.12-1.37.39-1.39-.38-.86-1.09l.78-.41q.15.5.5.82.37.32 1 .32.51 0 .84-.2.35-.2.55-.58t.27-.91.09-1.18v-.09h-.04a1.5 1.5 0 0 1-.41.72q-.3.26-.67.38a2 2 0 0 1-.73.12q-.64 0-1.13-.25a2 2 0 0 1-.76-.7q-.28-.46-.28-1.08 0-.66.27-1.15.26-.49.76-.75.5-.28 1.2-.28m.01.76q-.69 0-1.05.38t-.36 1.05q0 .58.38.93.38.33 1.03.33.42 0 .74-.17a1.3 1.3 0 0 0 .5-.47q.18-.3.18-.7t-.18-.71a1.2 1.2 0 0 0-.5-.47 2 2 0 0 0-.74-.17m7.27 2.85v.81h-3.25v-.81zm1.21 2.98v-.64a36 36 0 0 0 1.62-1.26 10 10 0 0 0 1.06-.98q.39-.45.56-.84.16-.4.16-.83 0-.58-.37-.94-.36-.36-1-.36-.67 0-1.07.44-.4.43-.48 1.16l-.68-.41q.08-.57.36-1t.76-.68 1.14-.25q.5 0 .9.15t.68.42.43.64q.16.37.16.83 0 .6-.3 1.2-.3.58-.97 1.21-.68.64-1.84 1.42v.01l.3-.01.38-.01.3-.01h2.27v.74zm8.06.1q-1.1 0-1.76-.86-.66-.85-.66-2.49t.66-2.48 1.76-.86 1.76.86.66 2.48-.66 2.5q-.65.85-1.76.85m0-.71q.52 0 .88-.3t.54-.9q.18-.58.18-1.44t-.18-1.44q-.18-.6-.54-.89a1.3 1.3 0 0 0-.88-.3q-.52 0-.88.3t-.54.89-.18 1.44.18 1.45.54.9q.36.29.88.29m3.79.6v-.63a36 36 0 0 0 1.62-1.26 10 10 0 0 0 1.05-.98q.4-.45.56-.84.17-.4.17-.83 0-.58-.38-.94-.36-.36-1-.36-.67 0-1.07.44-.4.43-.47 1.16l-.69-.41q.09-.57.36-1 .29-.44.76-.68t1.14-.25q.5 0 .9.15t.68.42.44.64.15.83q0 .6-.3 1.2-.29.58-.97 1.21-.67.64-1.83 1.42v.01l.3-.01.37-.01.3-.01h2.27v.74zm7.82.1q-.86 0-1.4-.39-.52-.39-.8-1.09l.77-.4q.15.5.48.83t.97.32q.45 0 .77-.17t.5-.47a1.5 1.5 0 0 0 .18-.75q0-.46-.17-.76a1 1 0 0 0-.46-.48 2 2 0 0 0-.75-.15q-.32 0-.6.07a2 2 0 0 0-.47.2 1 1 0 0 0-.38.36l-.68-.13.38-3.57h3.65v.74h-2.98l-.26 2.04-.02.1h.02q.24-.26.6-.4a2 2 0 0 1 .89-.15q.62 0 1.07.26t.72.73q.25.47.25 1.1 0 .5-.17.9a2 2 0 0 1-.47.7 2 2 0 0 1-.72.42 3 3 0 0 1-.92.15"/><path stroke="#393e46" stroke-linecap="round" stroke-linejoin="round" stroke-miterlimit="10" stroke-width=".921" d="M381.6 160.9v1.53"/><path stroke="#393e46" stroke-linecap="round" stroke-linejoin="round" stroke-miterlimit="10" stroke-width=".921" d="M385.7 160.9v1.53"/><path stroke="#393e46" stroke-linecap="round" stroke-linejoin="round" stroke-miterlimit="10" stroke-width=".921" d="M379.3 164.53h8.7"/><path stroke="#393e46" stroke-linecap="round" stroke-linejoin="round" stroke-miterlimit="10" stroke-width=".921" d="M388.26 164.22v4.35c0 1.54-.77 2.56-2.56 2.56h-4.1c-1.79 0-2.56-1.02-2.56-2.56v-4.35c0-1.53.77-2.56 2.56-2.56h4.1c1.79 0 2.56 1.03 2.56 2.56"/><path stroke="#393e46" stroke-linecap="round" stroke-linejoin="round" stroke-width="1.229" d="M385.54 166.89"/><path stroke="#393e46" stroke-linecap="round" stroke-linejoin="round" stroke-width="1.229" d="M385.54 168.42"/><path stroke="#393e46" stroke-linecap="round" stroke-linejoin="round" stroke-width="1.229" d="M383.65 166.89"/><path stroke="#393e46" stroke-linecap="round" stroke-linejoin="round" stroke-width="1.229" d="M383.65 168.42"/><path stroke="#393e46" stroke-linecap="round" stroke-linejoin="round" stroke-width="1.229" d="M381.75 166.89"/><path stroke="#393e46" stroke-linecap="round" stroke-linejoin="round" stroke-width="1.229" d="M381.75 168.42"/><path fill="#232323" d="M33.65 210.42h-1.1l-.63-1.7H29.2l-.62 1.7H27.5l2.45-6.49h1.26zm-4.15-2.56h2.13l-1.06-3.03zm6.28-3.8v4.88q0 .37.18.53.2.17.52.17.27 0 .47-.08a2 2 0 0 0 .36-.23l.24.76a2 2 0 0 1-.56.32 2 2 0 0 1-.73.1 2 2 0 0 1-.78-.13 1 1 0 0 1-.55-.44q-.2-.32-.2-.82v-4.77zm1.69 1.44v.83h-3.69v-.83zm1.91-1.44v4.88q0 .37.2.53.19.17.51.17.27 0 .46-.08a2 2 0 0 0 .37-.23l.23.76a2 2 0 0 1-.56.32 2 2 0 0 1-.72.1 2 2 0 0 1-.78-.13 1 1 0 0 1-.55-.44q-.2-.32-.2-.82v-4.77zm1.7 1.44v.83h-3.69v-.83zm3.9 1.76q0-.49-.27-.75-.27-.28-.74-.28-.44 0-.76.2-.31.21-.46.68l-.88-.38q.18-.6.73-.96.55-.37 1.41-.37.6 0 1.04.2.46.19.71.57.27.38.27.98v2.2q0 .36.36.36.18 0 .34-.05l-.06.73q-.22.1-.57.1-.31 0-.57-.1a1 1 0 0 1-.39-.35 1 1 0 0 1-.14-.58v-.06l.22-.01q-.09.38-.36.64a2 2 0 0 1-.64.37 2 2 0 0 1-.74.12q-.46 0-.84-.15a1.3 1.3 0 0 1-.58-.44 1.3 1.3 0 0 1-.2-.75q0-.55.35-.9.37-.36 1.02-.49l1.91-.37v.74l-1.4.28q-.4.08-.61.23a.5.5 0 0 0-.21.43.5.5 0 0 0 .2.44q.22.16.58.16.24 0 .47-.06t.42-.18a1 1 0 0 0 .29-.35 1 1 0 0 0 .1-.51zm4.88-1.86q.6 0 1 .18.43.17.71.48t.43.72l-.99.4q-.12-.46-.41-.7t-.73-.24-.75.2-.49.59q-.15.38-.15.94t.16.93q.17.39.49.58.31.2.74.2.34 0 .58-.1.25-.13.4-.33a1 1 0 0 0 .23-.52l.96.32a2 2 0 0 1-.44.78q-.28.32-.71.5-.44.19-1 .19-.72 0-1.28-.3a2 2 0 0 1-.88-.88q-.3-.58-.3-1.38t.3-1.37.87-.88a2.6 2.6 0 0 1 1.26-.3m3.4 5v-7.12h1.05v3q.25-.46.66-.67a2 2 0 0 1 .93-.22q.52 0 .94.21t.66.6.25 1.02v3.19H56.7v-2.85q0-.73-.3-1.02a1 1 0 0 0-.75-.28q-.32 0-.63.16a1.2 1.2 0 0 0-.51.49q-.2.33-.2.9v2.6zm11.64-6.58q.87 0 1.51.34.64.32 1.08.96l-.7.68q-.38-.57-.85-.82t-1.1-.25q-.47 0-.78.12a1 1 0 0 0-.45.35 1 1 0 0 0-.14.47.8.8 0 0 0 .21.53q.22.23.8.35l1.31.3q.95.2 1.34.63t.4 1.07q0 .6-.33 1.04a2 2 0 0 1-.9.68q-.57.24-1.35.24-.7 0-1.24-.18a3 3 0 0 1-.96-.48 3 3 0 0 1-.68-.7l.73-.73q.2.35.52.62.31.27.72.41.43.15.94.15.45 0 .78-.1t.5-.32a1 1 0 0 0 .17-.51.7.7 0 0 0-.2-.5q-.18-.22-.7-.34l-1.43-.32q-.59-.13-.97-.37a1.6 1.6 0 0 1-.57-.57 2 2 0 0 1-.19-.76q0-.55.3-1t.87-.71q.57-.28 1.36-.28m5.66 6.69q-.48 0-.9-.18a1.4 1.4 0 0 1-.64-.57q-.25-.4-.25-1.02v-3.25h1.05v2.98q0 .67.29.93.28.24.8.24.24 0 .47-.08t.42-.26a1 1 0 0 0 .28-.47q.11-.29.11-.67v-2.67h1.05v4.92h-.92l-.05-.8q-.26.46-.69.68t-1.02.22m4.33 1.96v-6.98h.93l.08 1.38-.14-.17q.12-.38.36-.68.25-.29.61-.46.38-.17.82-.17.6 0 1.09.31.5.3.78.87.28.56.28 1.37 0 .8-.3 1.39-.28.57-.78.87a2 2 0 0 1-1.1.3q-.63 0-1.07-.32a2 2 0 0 1-.63-.84l.12-.17v3.3zm2.4-2.82q.64 0 1-.45t.36-1.25-.35-1.25q-.36-.46-.99-.46-.41 0-.72.22a1.4 1.4 0 0 0-.49.59q-.16.37-.16.9 0 .52.16.9.17.39.48.6t.71.2m3.76 2.82v-6.98h.93l.08 1.38-.14-.17q.12-.38.37-.68.24-.29.6-.46.38-.16.82-.16.6 0 1.1.3.48.3.77.88.28.56.28 1.36t-.3 1.39q-.28.57-.78.87a2 2 0 0 1-1.1.3q-.63 0-1.07-.32a2 2 0 0 1-.63-.84l.12-.17v3.3zm2.4-2.82q.64 0 1-.45t.36-1.25-.35-1.25q-.36-.46-.98-.46-.42 0-.73.22a1.4 1.4 0 0 0-.48.59q-.17.37-.17.9 0 .52.17.9.16.39.47.6t.72.2m5.88-4.25q.72 0 1.27.3a2 2 0 0 1 .86.89q.31.57.31 1.36t-.31 1.38q-.3.57-.86.87-.55.3-1.27.3-.71 0-1.26-.3a2 2 0 0 1-.87-.87q-.31-.58-.31-1.38t.31-1.36.87-.89q.55-.3 1.26-.3m0 .82q-.44 0-.75.2-.3.2-.48.59t-.16.94q0 .55.17.94.16.39.47.6a1.4 1.4 0 0 0 .75.2q.45 0 .75-.2t.47-.6.17-.94-.17-.94a1.3 1.3 0 0 0-.47-.58 1.3 1.3 0 0 0-.75-.2m3.76 4.18v-4.92h.9l.1.89a1.5 1.5 0 0 1 .58-.73q.39-.25.96-.25.15 0 .3.03t.24.06l-.15.93-.24-.06-.36-.03q-.3 0-.6.17-.3.15-.49.48-.18.32-.18.82v2.6zm5.27-6.36v4.88q0 .37.19.53.2.17.52.17.26 0 .46-.08t.36-.23l.24.76a2 2 0 0 1-.56.32 2 2 0 0 1-.73.1 2 2 0 0 1-.78-.13 1 1 0 0 1-.55-.44q-.2-.32-.2-.82v-4.77zm1.69 1.44v.83h-3.69v-.83zm1.57-.82q-.34 0-.53-.17-.18-.18-.18-.5 0-.3.18-.47.19-.17.53-.17.33 0 .51.17.19.17.19.48t-.19.5q-.18.16-.51.16m.52.82v4.92h-1.05v-4.92zm1.65 4.92v-4.92h.93l.07 1.28-.14-.14q.14-.42.4-.7a2 2 0 0 1 .61-.4 2 2 0 0 1 .77-.14q.52 0 .93.21.43.2.67.6t.25 1.02v3.19h-1.05v-2.86q0-.73-.3-1a1 1 0 0 0-.75-.29q-.33 0-.63.16a1.2 1.2 0 0 0-.52.48q-.2.33-.2.9v2.6zm10.4-5.95.17.83h-.05l-.06-.01q-.48 0-.72.2-.25.2-.25.58l-.5-.23q0-.4.16-.7a1.2 1.2 0 0 1 .47-.5q.32-.17.7-.17zm-1.55 5.18q.75 0 1.16.34.42.32.42.9 0 .51-.33.88-.32.37-.88.57-.55.2-1.27.2-1.21 0-1.79-.38t-.58-.94q0-.39.28-.68t.95-.34l-.06.16a1.4 1.4 0 0 1-.67-.32q-.24-.23-.24-.65t.32-.72q.33-.3.92-.35l.55.27h-.12q-.45.04-.64.2a.5.5 0 0 0-.19.38q0 .25.18.36.19.12.52.12zm-.9 2.1q.54 0 .88-.11.36-.1.53-.27a.5.5 0 0 0 .17-.35.4.4 0 0 0-.18-.37q-.18-.13-.65-.13h-1.59a1 1 0 0 0-.46.13.5.5 0 0 0-.18.4q0 .32.39.5.4.2 1.09.2m-.04-6.34q.65 0 1.12.2t.74.58.26.88-.26.87-.74.58-1.12.2q-1.02 0-1.57-.44-.54-.47-.54-1.21 0-.5.26-.88.27-.37.74-.58a3 3 0 0 1 1.11-.2m0 .73q-.45 0-.76.26-.3.24-.3.67t.3.68.76.25.76-.25a.8.8 0 0 0 .3-.68.8.8 0 0 0-.3-.67q-.3-.26-.76-.26m9.11-2.2q1.53 0 2.37.84.86.83.86 2.4t-.86 2.4q-.84.84-2.37.84h-2.29v-6.49zm0 5.58q1.04 0 1.58-.6.55-.63.55-1.75t-.55-1.73-1.58-.62h-1.23v4.7zm6.77-4.12q.72 0 1.27.31a2 2 0 0 1 .86.88q.31.57.31 1.37t-.31 1.38-.86.87-1.27.3-1.26-.3a2 2 0 0 1-.87-.87q-.31-.58-.31-1.38t.31-1.37.87-.88 1.26-.3m0 .82q-.44 0-.75.2a1.3 1.3 0 0 0-.47.59q-.17.38-.17.94t.17.94q.16.39.47.6t.75.2.75-.2q.3-.21.47-.6a2 2 0 0 0 .17-.94q0-.56-.17-.94a1.3 1.3 0 0 0-.47-.58 1.3 1.3 0 0 0-.75-.2m5.89-.84q.59 0 1 .18t.7.48.44.72l-1 .4q-.12-.46-.4-.7t-.73-.24-.76.2-.48.59-.16.94.17.93.48.58.75.2q.33 0 .58-.1a1 1 0 0 0 .4-.33q.17-.22.23-.52l.95.32a2 2 0 0 1-.43.78q-.29.32-.72.5a3 3 0 0 1-1 .19q-.72 0-1.28-.3a2 2 0 0 1-.88-.88q-.3-.58-.3-1.38t.3-1.37.87-.88a2.6 2.6 0 0 1 1.27-.3m5.14 5.1q-.48 0-.9-.17a1.4 1.4 0 0 1-.64-.57q-.25-.4-.25-1.02v-3.25h1.06v2.98q0 .67.28.93.29.24.8.24.24 0 .47-.08.24-.09.42-.26.19-.19.29-.47.1-.29.1-.67v-2.67h1.06v4.92h-.93l-.05-.8a1.6 1.6 0 0 1-.69.68q-.43.22-1.02.22m4.33-.1v-4.92h.93l.05.83q.26-.47.68-.7t.91-.23q.53 0 .98.25.45.24.68.72.15-.33.43-.54.27-.22.6-.32.34-.1.67-.1.47 0 .88.2a1.6 1.6 0 0 1 .67.6q.25.4.25 1.02v3.19h-1.05v-3.02q0-.6-.28-.86-.29-.27-.73-.27a1.3 1.3 0 0 0-.64.17q-.28.17-.46.5t-.18.8v2.68h-1.05v-3.02q0-.6-.28-.86-.29-.27-.73-.27a1.3 1.3 0 0 0-1.08.65q-.2.33-.2.88v2.62zm11.5.1q-.75 0-1.3-.3a2 2 0 0 1-.88-.88q-.3-.58-.3-1.38t.3-1.37.86-.88a2.5 2.5 0 0 1 1.25-.3q.72 0 1.22.29.5.3.77.8t.26 1.17v.33l-.04.27h-3.95v-.8h3.5l-.53.16q0-.67-.33-1.03-.34-.36-.92-.36-.42 0-.74.2a1.2 1.2 0 0 0-.48.59q-.16.38-.16.94t.17.93q.18.39.5.58.33.2.77.2.5 0 .8-.19.3-.18.48-.52l.83.4a2 2 0 0 1-.48.62 2 2 0 0 1-.7.39 3 3 0 0 1-.9.14m3.51-.1v-4.92h.94l.06 1.28-.13-.14q.13-.42.39-.7a2 2 0 0 1 .62-.4q.36-.14.77-.14.52 0 .93.21t.67.6q.24.4.24 1.02v3.19h-1.05v-2.86q0-.73-.3-1a1 1 0 0 0-.75-.29q-.32 0-.63.16a1.2 1.2 0 0 0-.51.48q-.2.33-.2.9v2.6zm7.46-6.36v4.88q0 .37.19.53.2.17.52.17.27 0 .46-.08.2-.09.37-.23l.23.76a2 2 0 0 1-.56.32 2 2 0 0 1-.73.1q-.42 0-.77-.13a1 1 0 0 1-.55-.44q-.2-.32-.2-.82v-4.77zm1.7 1.44v.83h-3.7v-.83z"/><path fill="#5d636d" d="m173.24 203.04.45.45a5 5 0 0 0-1.03 1.25 5 5 0 0 0-.55 1.37 7 7 0 0 0-.17 1.55q0 .81.17 1.54.16.73.55 1.38.38.65 1.03 1.24l-.45.46a6 6 0 0 1-1.58-2.07 6 6 0 0 1-.53-2.55q0-1.39.53-2.56a6 6 0 0 1 1.58-2.06m4.02.8q.93 0 1.6.4t1.03 1.15q.38.75.38 1.78t-.38 1.78a2.7 2.7 0 0 1-1.04 1.16q-.66.4-1.59.4t-1.6-.4a3 3 0 0 1-1.04-1.16q-.37-.74-.37-1.78t.37-1.77a2.7 2.7 0 0 1 1.04-1.15q.68-.42 1.6-.42m0 .74q-.67 0-1.16.31a2 2 0 0 0-.75.9q-.27.58-.27 1.4t.26 1.4q.27.58.76.9.5.3 1.16.3.68 0 1.16-.3.5-.32.76-.9t.26-1.4-.26-1.4a2 2 0 0 0-.76-.9q-.48-.31-1.16-.31m4.54 7.91v-6.98h.7l.06 1.2-.1-.13q.12-.35.38-.6.25-.27.61-.42a2 2 0 0 1 .8-.15q.6 0 1.1.31.5.3.8.88.31.57.31 1.37t-.31 1.38a2.2 2.2 0 0 1-1.94 1.18q-.6 0-1.07-.3a1.7 1.7 0 0 1-.65-.76l.1-.15v3.17zm2.33-2.65q.73 0 1.13-.51.42-.51.42-1.36 0-.84-.4-1.36-.4-.5-1.12-.5-.47 0-.82.23a1.5 1.5 0 0 0-.55.65q-.2.41-.2.98 0 .56.19.98.2.43.54.66t.81.23m4.9-5.72v4.95q0 .37.22.54a.8.8 0 0 0 .53.18q.28 0 .49-.1t.37-.27l.28.66a2 2 0 0 1-.54.33 2 2 0 0 1-.71.12q-.37 0-.7-.13a1 1 0 0 1-.52-.42q-.19-.3-.2-.77v-4.88zm1.8 1.4v.67h-3.56v-.68zm1.56-.95a.6.6 0 0 1-.43-.16.6.6 0 0 1-.16-.43q0-.27.16-.42a.6.6 0 0 1 .43-.17q.27 0 .42.17a.6.6 0 0 1 .17.42.6.6 0 0 1-.17.43.6.6 0 0 1-.42.16m.4.94v4.92h-.8v-4.92zm3.85-.1q.7 0 1.23.31.54.3.85.89.3.57.3 1.36t-.3 1.38-.85.87a2.4 2.4 0 0 1-1.23.3q-.69 0-1.23-.3a2 2 0 0 1-.84-.87q-.3-.58-.3-1.38t.3-1.36.84-.89a2.5 2.5 0 0 1 1.23-.3m0 .67q-.5 0-.85.23-.36.23-.55.65-.19.41-.19 1 0 .58.19 1 .2.43.55.65t.85.23.86-.23a1.4 1.4 0 0 0 .54-.65q.2-.42.2-1t-.2-1a1.4 1.4 0 0 0-.54-.65 1.6 1.6 0 0 0-.86-.23m3.86 4.34v-4.92h.69l.07 1.1-.13-.1a1.6 1.6 0 0 1 1.03-.99q.36-.1.73-.1a2 2 0 0 1 .96.2q.44.2.7.61t.26 1.05v3.15h-.79v-2.87q0-.82-.35-1.13a1.2 1.2 0 0 0-.86-.33q-.35 0-.7.17a1.4 1.4 0 0 0-.6.54q-.22.37-.22 1v2.62zm8.96-3.18q0-.55-.3-.84-.3-.3-.83-.3-.51 0-.87.22-.35.22-.52.7l-.64-.39q.2-.55.73-.88.53-.35 1.32-.35.53 0 .96.2.43.17.68.54t.25.95v2.38q0 .35.38.35.18 0 .36-.05l-.04.62a1 1 0 0 1-.51.1q-.28 0-.51-.11a1 1 0 0 1-.35-.33 1 1 0 0 1-.13-.56v-.1l.2.04a1.3 1.3 0 0 1-.4.62q-.3.24-.65.36a2 2 0 0 1-.7.1q-.43 0-.8-.14a1.4 1.4 0 0 1-.6-.44 1.3 1.3 0 0 1-.22-.75q0-.55.37-.9.37-.37 1.03-.5l1.94-.38v.65l-1.58.32q-.48.1-.72.28a.6.6 0 0 0-.23.49q0 .3.23.5.25.19.7.19.28 0 .53-.07.27-.08.48-.23t.32-.38a1 1 0 0 0 .12-.55zm3.44-4v5.93q0 .37.14.52.14.14.44.14.2 0 .33-.03l.34-.1-.13.68q-.16.07-.34.1l-.39.04q-.6 0-.89-.33-.28-.32-.28-1v-5.95zm1.89 9.04-.45-.46a6 6 0 0 0 1.03-1.25q.38-.64.55-1.37t.17-1.54q0-.83-.17-1.55a5 5 0 0 0-.55-1.37 5 5 0 0 0-1.03-1.25l.45-.45a6 6 0 0 1 1.57 2.06q.53 1.17.53 2.56t-.53 2.55a6 6 0 0 1-1.57 2.07"/><rect width="373.495" height="30.715" x="27.612" y="217.182" fill="#e6f0fe" rx="2.15"/><rect width="373.495" height="30.715" x="27.612" y="217.182" stroke="#0266f3" stroke-dasharray="3.07 3.07" stroke-width=".614" rx="2.15"/><path fill="#0266f3" d="M44.44 228.63a2.46 2.46 0 0 0-3.47 0l-2.79 2.79a1.5 1.5 0 0 0-.33 1.67 1.5 1.5 0 0 0 1.42.95 1.5 1.5 0 0 0 1.08-.45l1.3-1.3a1.23 1.23 0 0 0 0-1.74l-2.16 2.17a.3.3 0 0 1-.44 0 .3.3 0 0 1 0-.43l2.79-2.8a1.23 1.23 0 0 1 1.74 0 1.23 1.23 0 0 1 0 1.75l-2.8 2.78-1.55 1.56a1.23 1.23 0 0 1-1.74 0 1.23 1.23 0 0 1 0-1.74l.06-.06a2.2 2.2 0 0 1-.43-1.3l-.5.5a2.46 2.46 0 0 0 0 3.47 2.5 2.5 0 0 0 1.74.72c.63 0 1.26-.24 1.74-.72l4.34-4.35a2.46 2.46 0 0 0 0-3.47"/><path fill="#0266f3" d="M52.37 235.54v-6.49h2.3q1.16 0 1.69.48t.53 1.31q0 .5-.29.9-.28.39-.8.5.58.11.91.54.34.41.34.94 0 .83-.61 1.33-.62.49-1.77.49zm.78-.74h1.7q.7 0 1.04-.28t.34-.8-.34-.8-1.04-.28h-1.7zm0-2.9h1.54q1.37 0 1.37-1.06 0-1.05-1.37-1.05h-1.54zm5.49 3.64v-4.92h.64l.1.81a1.5 1.5 0 0 1 .6-.68q.41-.22.98-.22l.28.02.26.08-.14.71-.23-.06-.37-.02q-.3 0-.62.18a1.4 1.4 0 0 0-.5.54q-.21.36-.21.9v2.66zm5.9-5.01q.7 0 1.22.3.54.3.85.89.3.57.3 1.36t-.3 1.38q-.3.57-.85.87-.53.3-1.23.3a2.5 2.5 0 0 1-1.22-.3 2 2 0 0 1-.85-.87q-.3-.58-.3-1.38t.3-1.36.85-.89a2.5 2.5 0 0 1 1.22-.3m0 .67q-.5 0-.85.23-.36.23-.55.65-.19.41-.19 1 0 .58.19 1 .2.43.55.65t.85.23.86-.23q.35-.22.54-.65.2-.42.2-1t-.2-1a1.4 1.4 0 0 0-.54-.65q-.36-.23-.86-.23m9.87-.58h.88l-1.71 4.92h-.8l-1.38-3.91-1.3 3.9h-.79l-1.71-4.9h.88l1.23 4 1.34-4h.79l1.33 4zm3.72 5.02q-.72 0-1.33-.3a2 2 0 0 1-.92-.87l.67-.48q.21.45.63.7.42.26 1 .26.53 0 .82-.2.3-.2.3-.53a.6.6 0 0 0-.14-.37q-.13-.18-.5-.26l-1.18-.24q-.72-.15-1.03-.5a1.3 1.3 0 0 1-.3-.85q0-.4.22-.74.23-.33.66-.53a2 2 0 0 1 1.01-.2q.73 0 1.23.28t.75.8l-.66.44a1.2 1.2 0 0 0-.54-.63 1.6 1.6 0 0 0-.78-.2q-.35 0-.61.1a1 1 0 0 0-.38.27.6.6 0 0 0-.13.38q0 .22.15.4t.55.26l1.23.25q.68.14.96.46.27.31.27.76 0 .47-.24.82a1.6 1.6 0 0 1-.69.53 3 3 0 0 1-1.02.19m5.47 0q-.7 0-1.25-.3a2 2 0 0 1-.85-.88q-.3-.58-.3-1.38t.3-1.36.84-.89a2.4 2.4 0 0 1 1.2-.3q.7 0 1.18.3.49.29.74.8.26.5.26 1.13l-.01.3-.03.25H81.7v-.7h3.63l-.4.08q0-.7-.4-1.1-.38-.38-1.01-.38-.48 0-.84.23-.34.22-.54.64-.19.41-.19 1 0 .58.2 1t.55.65q.37.22.87.22.54 0 .87-.2.35-.21.55-.57l.62.37a2 2 0 0 1-.48.58 2 2 0 0 1-.68.38 3 3 0 0 1-.86.13m8.78-7.32q.25 0 .48.05t.35.17l-.2.64-.26-.1a1 1 0 0 0-.3-.05q-.43 0-.66.2t-.24.65v5.66h-.78v-5.74q0-.33.1-.6.1-.28.29-.47.2-.2.51-.3t.7-.12m.82 2.31v.68h-3.4v-.68zm1.45-.94a.6.6 0 0 1-.43-.16.6.6 0 0 1-.16-.43.6.6 0 0 1 .16-.42.6.6 0 0 1 .43-.17.6.6 0 0 1 .42.17.6.6 0 0 1 .17.42.6.6 0 0 1-.17.43.6.6 0 0 1-.42.16m.4.95v4.9h-.8v-4.9zm2.57-2.27v5.93q0 .37.14.52.13.14.44.14.2 0 .32-.03l.35-.1-.13.68q-.16.07-.34.1l-.39.04q-.6 0-.9-.33-.28-.32-.28-.99v-5.96zm4.31 7.28q-.7 0-1.25-.3a2 2 0 0 1-.84-.88q-.3-.58-.3-1.38t.3-1.36q.3-.58.83-.89a2.4 2.4 0 0 1 1.21-.3q.7 0 1.17.3.5.29.75.8.25.5.25 1.13v.3l-.04.25h-3.97v-.7h3.63l-.4.08q0-.7-.4-1.1-.38-.38-1-.38-.49 0-.84.23-.35.22-.54.64-.19.41-.19 1 0 .58.2 1t.55.65.86.22q.54 0 .88-.2t.55-.57l.62.37a2 2 0 0 1-.49.58 2 2 0 0 1-.67.38 3 3 0 0 1-.87.13m5.39 0q-.72 0-1.33-.3a2 2 0 0 1-.92-.87l.67-.48q.21.45.62.7.43.26 1.02.26.52 0 .81-.2t.3-.53a.6.6 0 0 0-.14-.37q-.13-.18-.5-.26l-1.18-.24q-.72-.15-1.03-.5a1.3 1.3 0 0 1-.3-.85q0-.4.22-.74.23-.33.66-.53a2 2 0 0 1 1.01-.2q.73 0 1.23.28t.75.8l-.66.44a1.2 1.2 0 0 0-.54-.63 1.6 1.6 0 0 0-.78-.2q-.35 0-.6.1a1 1 0 0 0-.4.27.6.6 0 0 0-.12.38q0 .22.15.4t.55.26l1.23.26q.68.13.96.45.27.31.27.76 0 .47-.24.82a1.6 1.6 0 0 1-.69.53 3 3 0 0 1-1.02.19m8.8-5.11q.7 0 1.23.3.54.3.84.89.3.57.3 1.36t-.3 1.38q-.3.57-.84.87t-1.23.3-1.23-.3a2 2 0 0 1-.85-.87q-.3-.58-.3-1.38t.3-1.36.85-.89 1.23-.3m0 .68q-.5 0-.86.22a1.5 1.5 0 0 0-.55.65q-.19.41-.19 1 0 .58.2 1 .19.43.54.65t.86.23.85-.23.54-.65.2-1-.2-1a1.4 1.4 0 0 0-.54-.65q-.35-.22-.85-.22m3.86 4.33v-4.91h.63l.11.8q.21-.45.6-.68.4-.22.98-.22l.27.02.27.08-.14.71-.24-.06-.36-.02q-.3 0-.62.18a1.4 1.4 0 0 0-.51.54q-.2.36-.2.9v2.66zm9.04.1q-.6 0-1.12-.3a2 2 0 0 1-.81-.88q-.3-.58-.3-1.38 0-.81.32-1.38t.85-.87a2.3 2.3 0 0 1 1.14-.3q.61 0 1.05.31.46.32.6.84l-.1.07v-3.39h.8v7.18h-.7l-.07-1.19.11-.06a1.4 1.4 0 0 1-.33.74q-.26.3-.64.45a2 2 0 0 1-.8.16m.08-.7q.47 0 .82-.23t.54-.66q.2-.45.2-1.04 0-.56-.2-.96a1.4 1.4 0 0 0-.53-.62 1.4 1.4 0 0 0-.79-.22q-.75 0-1.16.52t-.41 1.35.4 1.36 1.13.5m4.17.6v-4.91h.64l.1.8q.21-.45.6-.68.4-.22.98-.22l.27.02.27.08-.14.71-.23-.06-.37-.02q-.3 0-.62.18a1.4 1.4 0 0 0-.5.54q-.21.36-.21.9v2.66zm6.75-3.18q0-.55-.3-.84-.3-.3-.83-.3-.51 0-.87.22-.35.22-.52.7l-.64-.38q.2-.55.73-.89t1.32-.34q.53 0 .96.18t.68.55.25.95v2.38q0 .35.38.35.18 0 .36-.05l-.04.62a1 1 0 0 1-.5.1q-.3 0-.52-.11a1 1 0 0 1-.35-.32 1 1 0 0 1-.13-.56v-.1l.2.03a1.3 1.3 0 0 1-.4.63q-.3.23-.65.35a2 2 0 0 1-.7.1q-.43 0-.8-.14a1.4 1.4 0 0 1-.6-.44 1.3 1.3 0 0 1-.22-.75q0-.55.37-.9.37-.37 1.03-.5l1.94-.38v.65l-1.58.33q-.48.1-.72.27a.6.6 0 0 0-.23.5q0 .3.23.5.25.18.7.18.28 0 .53-.07a2 2 0 0 0 .47-.23 1 1 0 0 0 .33-.38q.12-.23.12-.55zm6.83-2.64.18.7h-.07q-.48 0-.75.2-.25.18-.25.6l-.48-.24q0-.38.17-.67t.48-.43q.3-.16.67-.16zm-1.5 5.19q.7 0 1.1.32t.4.85q0 .48-.33.84-.32.35-.86.54a3 3 0 0 1-1.2.2q-1.16 0-1.74-.4-.57-.4-.57-.94 0-.4.26-.71.27-.3.88-.35l-.06.15a1.4 1.4 0 0 1-.57-.3q-.23-.21-.23-.61t.3-.7.89-.35l.52.26h-.1q-.48.05-.69.25a.6.6 0 0 0-.2.4q0 .29.2.42t.57.13zm-.9 2.08q.57 0 .94-.11t.55-.3a.6.6 0 0 0 .18-.41.5.5 0 0 0-.22-.42q-.2-.16-.76-.16h-1.51a1 1 0 0 0-.53.16.5.5 0 0 0-.22.45q0 .36.41.58.43.21 1.16.21m-.06-6.46q.59 0 1.04.21t.71.58a1.5 1.5 0 0 1 .26.87q0 .48-.26.86-.25.38-.71.6a3 3 0 0 1-1.04.2q-.98 0-1.5-.46a1.6 1.6 0 0 1-.52-1.2q0-.5.26-.87t.71-.58a2.4 2.4 0 0 1 1.05-.21m0 .64q-.52 0-.86.28a.9.9 0 0 0-.34.74q0 .45.34.74t.86.28q.5 0 .85-.28a1 1 0 0 0 .34-.74.9.9 0 0 0-.34-.74q-.34-.28-.85-.28m9.78 1.2q0-.56-.3-.85-.3-.3-.83-.3-.52 0-.87.22t-.52.7l-.64-.38q.2-.55.73-.89t1.31-.34q.54 0 .97.18t.68.55.25.95v2.38q0 .35.38.35.18 0 .36-.05l-.04.62a1 1 0 0 1-.51.1q-.29 0-.51-.11a1 1 0 0 1-.36-.32 1 1 0 0 1-.12-.56v-.1l.2.03a1.3 1.3 0 0 1-.41.63q-.29.23-.64.35a2 2 0 0 1-.7.1q-.43 0-.8-.14a1.4 1.4 0 0 1-.6-.44 1.3 1.3 0 0 1-.22-.75q0-.55.36-.9.38-.37 1.04-.5l1.94-.38v.65l-1.58.33q-.48.1-.72.27a.6.6 0 0 0-.23.5q0 .3.23.5.25.18.7.18.28 0 .53-.07.27-.08.47-.23.21-.15.33-.38a1 1 0 0 0 .12-.55zm2.7 3.17v-4.91h.68l.07 1.1-.13-.11q.16-.4.42-.63a2 2 0 0 1 .61-.36q.36-.1.73-.1.53 0 .96.2.44.2.7.61.26.42.26 1.05v3.15h-.79v-2.87q0-.82-.35-1.13a1.2 1.2 0 0 0-.86-.33q-.35 0-.7.17a1.4 1.4 0 0 0-.6.54q-.22.38-.22 1v2.62zm8 .1a2.2 2.2 0 0 1-1.94-1.18q-.3-.58-.3-1.38 0-.81.32-1.38t.85-.87a2.3 2.3 0 0 1 1.14-.3q.61 0 1.05.31.46.32.6.84l-.1.07v-3.39h.8v7.18h-.7l-.06-1.19.1-.06a1.4 1.4 0 0 1-.33.74 2 2 0 0 1-.64.45 2 2 0 0 1-.8.16m.08-.7a1.4 1.4 0 0 0 .82-.23q.35-.23.54-.66.2-.45.2-1.04 0-.56-.2-.96a1.4 1.4 0 0 0-.53-.62 1.4 1.4 0 0 0-.79-.22q-.74 0-1.16.52t-.41 1.35.4 1.36 1.13.5m9.44.7a2.2 2.2 0 0 1-1.94-1.18q-.3-.58-.3-1.38 0-.81.32-1.38t.86-.87a2.3 2.3 0 0 1 1.14-.3q.6 0 1.05.31.45.32.6.84l-.1.07v-3.39h.78v7.18h-.68l-.07-1.19.1-.06a1.4 1.4 0 0 1-.33.74 2 2 0 0 1-.64.45 2 2 0 0 1-.8.16m.09-.7q.47 0 .81-.23t.54-.66q.2-.45.2-1.04 0-.56-.2-.96a1.4 1.4 0 0 0-.53-.62 1.4 1.4 0 0 0-.79-.22q-.74 0-1.16.52t-.4 1.35.4 1.36 1.13.5m4.16.6v-4.91h.64l.11.8q.2-.45.6-.68.4-.22.97-.22l.28.02.26.08-.14.71-.23-.06-.36-.02q-.3 0-.62.18a1.4 1.4 0 0 0-.52.54q-.2.36-.2.9v2.66zm5.9-5.01q.7 0 1.22.3.54.3.85.89.3.57.3 1.36t-.3 1.38a2 2 0 0 1-.85.87q-.53.3-1.22.3-.7 0-1.23-.3a2 2 0 0 1-.85-.87q-.3-.58-.3-1.38t.3-1.36.85-.89q.54-.3 1.23-.3m0 .68q-.5 0-.86.22t-.55.65q-.19.41-.19 1 0 .58.19 1 .2.43.55.65t.86.23.85-.23.54-.65.2-1-.2-1a1.4 1.4 0 0 0-.54-.65q-.35-.22-.85-.22m3.85 6.4v-6.98h.7l.06 1.2-.1-.14q.12-.35.38-.6.25-.27.62-.42.36-.14.78-.14.6 0 1.1.3t.82.88q.3.57.3 1.37t-.31 1.38-.82.87-1.12.3-1.07-.29a1.7 1.7 0 0 1-.65-.76l.1-.15v3.17zm2.33-2.66q.73 0 1.13-.51.42-.51.42-1.36 0-.84-.4-1.35t-1.12-.52q-.47 0-.82.24a1.5 1.5 0 0 0-.55.65q-.2.41-.2.98 0 .56.19.99.2.42.54.65t.81.23m7.19.59v-7.18h.78v3q.26-.44.68-.64t.92-.2a2 2 0 0 1 .97.21q.43.2.69.61.26.42.26 1.05v3.15h-.78v-2.87q0-.82-.36-1.13a1.2 1.2 0 0 0-.85-.33q-.36 0-.71.17a1.4 1.4 0 0 0-.6.55q-.22.38-.22 1v2.6zm8.14.1q-.7 0-1.25-.3a2 2 0 0 1-.85-.88q-.3-.58-.3-1.38t.3-1.36a2 2 0 0 1 .84-.89 2.4 2.4 0 0 1 1.2-.3q.7 0 1.18.3.49.29.74.8.26.5.26 1.13l-.01.3-.03.25h-3.97v-.7h3.63l-.4.08q0-.7-.4-1.1-.38-.38-1.01-.38-.48 0-.84.23a1.5 1.5 0 0 0-.54.64q-.19.41-.19 1 0 .58.2 1t.55.65.87.22q.54 0 .87-.2.34-.21.55-.57l.62.37a2 2 0 0 1-.48.58q-.29.24-.68.38a3 3 0 0 1-.86.13m3.61-.1v-4.91h.64l.11.8q.2-.45.6-.68.4-.22.97-.22l.28.02.26.08-.13.71-.24-.06-.36-.02q-.3 0-.62.18a1.4 1.4 0 0 0-.51.54q-.2.36-.2.9v2.66zm5.92.1q-.7 0-1.25-.3a2 2 0 0 1-.85-.88q-.3-.58-.3-1.38t.3-1.36.84-.89a2.4 2.4 0 0 1 1.2-.3q.7 0 1.18.3.49.29.74.8.26.5.26 1.13v.3l-.04.25h-3.97v-.7h3.63l-.4.08q0-.7-.4-1.1-.38-.38-1.01-.38-.48 0-.84.23a1.5 1.5 0 0 0-.54.64q-.18.41-.18 1 0 .58.2 1 .19.43.54.65.37.22.87.22.54 0 .87-.2.35-.21.55-.57l.62.37a2 2 0 0 1-.48.58 2 2 0 0 1-.68.38 3 3 0 0 1-.86.13"/><path fill="#232323" d="M30.07 257.06q1.33 0 2.09.74.76.73.76 2.1 0 1.36-.77 2.1-.75.73-2.08.73h-1.84v-5.67zm.07 5.03q.97 0 1.5-.58.56-.58.56-1.62t-.55-1.6q-.54-.59-1.52-.59h-1.2v4.39zm5.94-3.74q.61 0 1.08.26.47.27.74.78.26.5.26 1.2t-.26 1.2a2 2 0 0 1-.74.76q-.47.27-1.08.27-.6 0-1.07-.27a2 2 0 0 1-.74-.76q-.27-.51-.27-1.2t.27-1.2.74-.78a2 2 0 0 1 1.07-.26m0 .59a1.4 1.4 0 0 0-.74.2 1.3 1.3 0 0 0-.49.56q-.16.37-.16.88t.16.88q.18.37.49.57t.74.2.75-.2.47-.57.18-.88-.18-.87a1.3 1.3 0 0 0-.47-.57 1.4 1.4 0 0 0-.75-.2m5.16-.6q.45 0 .78.14.35.14.6.4.24.26.4.61l-.65.31q-.14-.41-.43-.63-.27-.22-.72-.22-.43 0-.74.2a1.2 1.2 0 0 0-.47.56q-.16.36-.16.87t.16.88.47.57.74.19q.34 0 .58-.1a1 1 0 0 0 .4-.3q.17-.2.23-.49l.63.22q-.14.4-.4.68-.25.29-.61.44a2 2 0 0 1-.81.15q-.6 0-1.08-.27a2 2 0 0 1-.74-.76q-.26-.51-.26-1.2t.26-1.2.74-.78a2 2 0 0 1 1.08-.26m4.05-1.14v4.34q0 .31.18.47a.7.7 0 0 0 .46.15q.25 0 .43-.08t.33-.23l.24.57a1.4 1.4 0 0 1-.47.29 2 2 0 0 1-.62.1q-.33 0-.61-.11a1 1 0 0 1-.46-.37q-.16-.26-.17-.67v-4.27zm1.56 1.22v.6h-3.11v-.6zm2.8-.08q.62 0 1.08.26.47.27.74.78.27.5.27 1.2 0 .69-.27 1.2a2 2 0 0 1-.74.76q-.47.27-1.08.27-.6 0-1.07-.27a2 2 0 0 1-.74-.76q-.27-.51-.27-1.2t.27-1.2.74-.78a2 2 0 0 1 1.07-.26m0 .59a1.4 1.4 0 0 0-.74.2 1.3 1.3 0 0 0-.49.57q-.16.36-.16.87t.16.88q.18.37.49.57.3.2.74.2t.75-.2.48-.57.17-.88-.17-.87a1.3 1.3 0 0 0-.48-.57 1.4 1.4 0 0 0-.75-.2m3.38 3.8v-4.3h.56l.1.7a1.3 1.3 0 0 1 .52-.6q.35-.2.85-.2l.24.02q.14.02.23.07l-.12.63-.2-.05-.32-.02q-.27 0-.54.16a1 1 0 0 0-.45.47q-.18.3-.18.79v2.32zm4-6.03a.5.5 0 0 1 .35.11 1 1 0 0 1 .22.3q.08.18.08.43 0 .28-.1.56a2 2 0 0 1-.3.5 2 2 0 0 1-.54.39l-.36-.33a1 1 0 0 0 .4-.22 1 1 0 0 0 .3-.31 1 1 0 0 0 .15-.35l-.04-.02-.08.04a.5.5 0 0 1-.37-.04l-.18-.17a1 1 0 0 1-.08-.31q0-.16.08-.28a1 1 0 0 1 .2-.22 1 1 0 0 1 .28-.08m3 6.1q-.62 0-1.15-.26t-.81-.75l.58-.43q.2.4.55.62.37.23.89.23.45 0 .71-.18a.6.6 0 0 0 .26-.46q0-.18-.12-.33t-.44-.22l-1.03-.21q-.63-.13-.9-.43a1 1 0 0 1-.27-.75q0-.36.2-.65a1.4 1.4 0 0 1 .57-.46q.38-.18.89-.18.64 0 1.08.25.43.25.65.7l-.58.38a1 1 0 0 0-.47-.55 1.4 1.4 0 0 0-.68-.18q-.31 0-.53.08a1 1 0 0 0-.34.25.6.6 0 0 0 .02.68q.13.16.48.23l1.08.22q.6.12.84.4.24.27.24.67t-.22.71a1.4 1.4 0 0 1-.6.47 2 2 0 0 1-.9.16m5.93-.09v-4.3h.56l.09.7a1.3 1.3 0 0 1 .52-.59q.36-.2.86-.2l.24.02q.13.02.23.07l-.12.63-.2-.05-.33-.02q-.26 0-.54.16a1 1 0 0 0-.45.47q-.18.3-.18.79v2.32zm5.17.09q-.61 0-1.1-.27a2 2 0 0 1-.73-.76q-.27-.51-.27-1.2t.27-1.2.73-.78 1.06-.26 1.02.25.65.71q.23.44.23.99l-.01.27-.03.21H69.5v-.61h3.17l-.35.07q0-.62-.34-.96t-.9-.33q-.41 0-.72.2-.3.19-.47.55t-.17.88.17.88.49.57q.32.19.75.19.48 0 .77-.18.3-.19.48-.5l.54.32q-.16.3-.42.51a2 2 0 0 1-.6.34 2 2 0 0 1-.75.1m3.17 1.73v-6.1h.6l.06 1.04-.1-.12q.12-.3.34-.52.22-.24.54-.36.32-.13.69-.13.52 0 .96.26.45.27.72.77t.26 1.2-.27 1.2a1.9 1.9 0 0 1-1.7 1.04q-.53 0-.93-.26a1.5 1.5 0 0 1-.57-.67l.08-.13v2.78zm2.03-2.32q.64 0 1-.45.35-.45.35-1.19t-.35-1.18-.97-.45a1.3 1.3 0 0 0-.72.2 1.3 1.3 0 0 0-.48.57 2 2 0 0 0-.18.86q0 .5.17.86.17.37.47.58t.71.2m5.14-3.87q.6 0 1.07.26.48.27.74.78.27.5.27 1.2t-.27 1.2a2 2 0 0 1-.74.76q-.46.27-1.07.27-.6 0-1.08-.27a2 2 0 0 1-.74-.76q-.26-.51-.26-1.2t.26-1.2.74-.78a2 2 0 0 1 1.08-.26m0 .59a1.4 1.4 0 0 0-.75.2 1.3 1.3 0 0 0-.48.57q-.17.36-.17.87t.17.88.48.57.75.2.75-.2.47-.57.17-.88-.17-.87a1.3 1.3 0 0 0-.47-.57 1.4 1.4 0 0 0-.75-.2m3.37 3.8v-4.3h.56l.1.7a1.3 1.3 0 0 1 .52-.6q.36-.2.85-.2l.24.02q.14.02.24.07l-.12.63-.21-.05-.32-.02q-.26 0-.54.16a1 1 0 0 0-.45.47q-.18.3-.18.79v2.32zm4.27-5.53v4.34q0 .31.18.47t.46.15q.25 0 .43-.08t.33-.23l.24.57a1.4 1.4 0 0 1-.47.28 2 2 0 0 1-.62.1q-.33 0-.61-.1a1 1 0 0 1-.46-.37q-.16-.26-.17-.67v-4.27zm1.57 1.22v.6h-3.12v-.6zm1.36 3.27q.25 0 .4.16a.6.6 0 0 1 .16.4.6.6 0 0 1-.15.4.6.6 0 0 1-.4.16.6.6 0 0 1-.41-.16.6.6 0 0 1-.16-.4q0-.25.16-.4a.6.6 0 0 1 .4-.16m1.94 2.84v-6.1h.6l.06 1.04-.1-.12q.12-.3.34-.52.23-.24.55-.36t.68-.13q.53 0 .97.26.44.27.71.77t.27 1.2-.28 1.2a1.9 1.9 0 0 1-1.7 1.04q-.52 0-.93-.26a1.5 1.5 0 0 1-.57-.67l.09-.13v2.78zm2.04-2.32q.64 0 .99-.45.36-.45.36-1.19t-.35-1.18-.97-.45a1.3 1.3 0 0 0-.73.2 1.3 1.3 0 0 0-.48.57 2 2 0 0 0-.17.86q0 .5.16.86.18.37.48.58t.7.2m3.36.51v-4.3h.6l.07.97-.12-.1a1.4 1.4 0 0 1 .9-.86q.32-.1.64-.1.47 0 .85.19.37.17.6.53t.23.92v2.75h-.69v-2.5q0-.72-.3-1a1 1 0 0 0-.76-.28q-.3 0-.61.15a1.2 1.2 0 0 0-.52.47q-.2.32-.2.88v2.28zm8.95-5.09.15.61h-.06q-.42 0-.65.17-.22.17-.22.54l-.43-.22q0-.33.16-.58a1 1 0 0 1 .42-.38q.27-.14.59-.14zm-1.3 4.54q.6 0 .95.29.34.27.34.74 0 .42-.28.73a2 2 0 0 1-.75.47q-.47.17-1.05.17-1.02 0-1.52-.34t-.5-.83q0-.34.22-.62.23-.26.78-.3l-.06.13a1 1 0 0 1-.5-.26q-.2-.19-.2-.54t.26-.6.78-.32l.46.23h-.1q-.41.05-.6.22a.5.5 0 0 0-.16.36q0 .24.17.36t.5.11zm-.8 1.83q.5 0 .82-.1t.48-.27a.5.5 0 0 0 .15-.36.4.4 0 0 0-.19-.37q-.18-.13-.66-.13h-1.32a1 1 0 0 0-.47.13.5.5 0 0 0-.19.4q0 .32.37.5.37.2 1.01.2m-.06-5.66q.52 0 .91.19.4.18.63.5.22.33.22.76 0 .42-.22.76a1.5 1.5 0 0 1-.63.51q-.4.18-.91.18-.85 0-1.3-.4a1.4 1.4 0 0 1-.46-1.05q0-.43.22-.76.23-.32.63-.5a2 2 0 0 1 .91-.2m0 .57q-.45 0-.75.25a.8.8 0 0 0-.3.64q0 .4.3.65.3.24.75.24t.75-.24a.8.8 0 0 0 .3-.65q0-.4-.3-.64a1 1 0 0 0-.75-.25"/><path stroke="#292d32" stroke-linecap="round" stroke-linejoin="round" stroke-width=".921" d="m392.51 256.34 5.21 5.21"/><path stroke="#292d32" stroke-linecap="round" stroke-linejoin="round" stroke-width=".921" d="m392.51 261.55 5.22-5.21"/><g filter="url(#filter1_d_6028_34820)"><rect width="182.448" height="26.286" x="28.227" y="285.191" fill="#fff" rx="4.914"/><rect width="181.833" height="25.672" x="28.534" y="285.499" stroke="#d0d5dd" stroke-width=".614" rx="4.607"/><path fill="#344054" d="M109.35 299.55q-.19.63-.6 1.05a2.5 2.5 0 0 1-.95.63q-.55.2-1.2.2-.97 0-1.68-.4a2.7 2.7 0 0 1-1.08-1.15q-.37-.75-.37-1.79t.37-1.79a2.7 2.7 0 0 1 1.08-1.15q.71-.4 1.66-.4.66 0 1.2.19.54.17.92.55.38.37.56.94l-1.23.52q-.17-.59-.51-.83-.34-.26-.88-.26a1.7 1.7 0 0 0-.94.26q-.4.25-.6.75-.22.5-.22 1.22t.2 1.22.6.76q.38.25.95.25.54 0 .92-.28.4-.29.55-.87zm3.82-1.35q0-.42-.25-.66-.24-.24-.63-.24-.36 0-.64.2-.27.18-.4.61l-1.15-.35q.17-.65.73-1.05.57-.39 1.52-.39.65 0 1.13.2t.75.6.27 1.02v2q0 .37.36.37a1 1 0 0 0 .31-.05l-.08.84q-.25.12-.64.12a2 2 0 0 1-.61-.12 1 1 0 0 1-.44-.35 1 1 0 0 1-.15-.6v-.05l.23-.04a1 1 0 0 1-.32.64 2 2 0 0 1-.65.4 2 2 0 0 1-.78.13q-.5 0-.86-.14a1.3 1.3 0 0 1-.56-.46q-.2-.3-.2-.72 0-.55.36-.9.35-.35 1-.48l1.86-.37-.01.83-1.18.24a2 2 0 0 0-.52.18q-.16.11-.16.37 0 .24.17.37a1 1 0 0 0 .45.13q.2 0 .4-.05t.35-.16a1 1 0 0 0 .25-.3q.09-.18.09-.44zm2.84 3.13v-4.91h1.2l.09 1.47-.17-.15q.12-.48.37-.8.26-.31.62-.46a2 2 0 0 1 .82-.16q.51 0 .9.2.4.2.63.6.24.4.24.99v3.22h-1.35v-2.84q0-.63-.24-.86a1 1 0 0 0-.64-.25q-.28 0-.54.14a1 1 0 0 0-.43.42q-.15.3-.15.79v2.6zm8.32-5q.66 0 1.1.19.47.18.74.52.29.32.4.73l-1.25.45q-.1-.44-.33-.67t-.64-.23q-.38 0-.64.18a1 1 0 0 0-.4.52q-.14.35-.14.87t.13.86q.15.35.42.51t.64.17q.3 0 .5-.1a1 1 0 0 0 .33-.3q.14-.2.19-.47l1.22.39a2 2 0 0 1-.4.78 2 2 0 0 1-.76.52 3 3 0 0 1-1.07.18q-.76 0-1.34-.3a2 2 0 0 1-.9-.88q-.31-.57-.31-1.37t.31-1.38.89-.87 1.3-.3m5.6 5.1q-.77 0-1.35-.3a2 2 0 0 1-.89-.88q-.31-.57-.31-1.37t.31-1.38.88-.87 1.3-.3 1.26.3.8.81.27 1.17v.38l-.04.3h-3.92v-.92h3.34l-.65.23q0-.62-.29-.95-.27-.34-.78-.34-.38 0-.65.18a1 1 0 0 0-.4.53q-.14.35-.14.88 0 .52.14.86.16.34.44.5.28.17.67.17.44 0 .7-.17.27-.16.41-.46l1.08.41a2 2 0 0 1-.49.66 2 2 0 0 1-.75.43 3 3 0 0 1-.94.13m4.74-7.16v5.55q0 .34.12.48t.4.14q.16 0 .27-.02l.27-.08-.11.89a1 1 0 0 1-.43.14 2 2 0 0 1-.49.06q-.72 0-1.05-.34-.32-.36-.32-1.12v-5.7z"/></g><g filter="url(#filter2_d_6028_34820)"><rect width="182.448" height="26.286" x="218.047" y="285.191" fill="#0266f3" rx="4.914"/><rect width="181.833" height="25.672" x="218.354" y="285.499" stroke="#0266f3" stroke-width=".614" rx="4.607"/><path fill="#fff" d="M273.48 294.75q.89 0 1.56.3.66.3 1.14.9l-.76.88q-.4-.5-.89-.74a2.4 2.4 0 0 0-1.1-.25 2 2 0 0 0-.68.1 1 1 0 0 0-.4.3 1 1 0 0 0-.12.39q0 .26.21.45.2.17.7.3l1.22.27q.96.21 1.37.65.43.42.43 1.1 0 .64-.34 1.1a2 2 0 0 1-.93.7q-.6.23-1.38.23-.68 0-1.25-.16a4 4 0 0 1-1-.45 3 3 0 0 1-.73-.66l.76-.91q.23.32.56.56t.76.4q.43.13.9.13.4 0 .68-.09a1 1 0 0 0 .42-.26.6.6 0 0 0 .15-.43.6.6 0 0 0-.18-.43q-.16-.18-.63-.28l-1.31-.3a4 4 0 0 1-.99-.35 2 2 0 0 1-.61-.57 1.6 1.6 0 0 1-.21-.84q0-.58.31-1.04.32-.46.9-.73.6-.27 1.44-.27m5.5 6.68q-.49 0-.88-.18a1.4 1.4 0 0 1-.63-.56q-.23-.39-.23-1v-3.27h1.35v2.94q0 .57.24.8.23.21.67.21.21 0 .4-.07a1 1 0 0 0 .6-.64q.09-.25.09-.6v-2.64h1.34v4.91h-1.2l-.05-.85q-.24.5-.67.73t-1.03.22m7.26 0q-.45 0-.83-.18a2 2 0 0 1-.6-.54 2 2 0 0 1-.33-.76l.14-.18-.08 1.56h-1.19v-7.06h1.35v3.53l-.13-.2q.16-.55.6-.92.44-.36 1.1-.36.59 0 1.06.3.47.31.74.88t.27 1.39q0 .8-.27 1.36a2 2 0 0 1-.75.88 2 2 0 0 1-1.08.3m-.4-1.03q.54 0 .84-.38.32-.4.32-1.14t-.3-1.13-.85-.4q-.36 0-.61.19a1 1 0 0 0-.4.53 2 2 0 0 0-.14.82q0 .48.13.82.15.34.4.51.27.18.6.18m3.68.93v-4.91h1.21l.05.88q.25-.49.67-.73.43-.25.95-.25.53 0 .95.25.44.24.65.72.16-.32.43-.54.26-.21.59-.32.32-.1.65-.1.49 0 .88.19.4.2.64.59.23.4.23 1v3.22h-1.34v-2.95q0-.55-.24-.77a.8.8 0 0 0-.6-.23q-.3 0-.56.15a1 1 0 0 0-.4.44q-.13.29-.13.72v2.64h-1.35v-2.95q0-.55-.24-.77a.8.8 0 0 0-.61-.23 1 1 0 0 0-.51.14 1 1 0 0 0-.41.43q-.16.3-.16.78v2.6zm9.97-5.62q-.42 0-.63-.17-.2-.2-.2-.55t.2-.54.63-.18.63.18.2.54-.2.54-.63.18m.67.71v4.91h-1.35v-4.91zm3.17-1.5v4.81q0 .35.17.52.19.16.5.16.25 0 .44-.07.18-.08.33-.2l.22.89a2 2 0 0 1-.6.3 3 3 0 0 1-.74.1q-.49 0-.87-.15a1.2 1.2 0 0 1-.6-.47q-.2-.32-.2-.86v-4.66zm1.57 1.5v1h-3.82v-1zm6.91-1.57q1.1 0 1.73.53t.63 1.42q0 .96-.63 1.47-.63.5-1.72.5l-.14.08h-1.4v2.48h-1.33v-6.48zm-.16 2.97q.57 0 .85-.23t.29-.72-.29-.7q-.28-.24-.85-.24h-1.36v1.89zm.8.28 2.1 3.23h-1.52l-1.74-2.84zm5.23 3.33q-.78 0-1.36-.3a2 2 0 0 1-.88-.88q-.32-.57-.32-1.37t.32-1.38a2 2 0 0 1 .87-.87q.57-.3 1.3-.3.75 0 1.27.3t.8.81.27 1.17l-.01.38-.03.3h-3.92v-.92h3.33l-.65.23q0-.62-.28-.95-.28-.34-.79-.34-.37 0-.65.18a1 1 0 0 0-.4.53q-.14.35-.14.88 0 .52.15.86.16.34.43.5.29.17.68.17.43 0 .7-.17.26-.16.41-.46l1.07.41a2 2 0 0 1-.48.66q-.32.28-.76.43a3 3 0 0 1-.93.13m6.81 1.97v-3.6l.16.18a2 2 0 0 1-.3.76 2 2 0 0 1-.6.52 2 2 0 0 1-.8.17q-.61 0-1.1-.3a2 2 0 0 1-.74-.88q-.27-.58-.27-1.38 0-.82.28-1.38a2 2 0 0 1 1.88-1.17q.45 0 .81.2.37.19.6.54.24.34.3.8l-.17.1.09-1.54h1.2v6.98zm-1.15-3q.36 0 .61-.18.26-.18.4-.53t.14-.83q0-.5-.15-.83a1 1 0 0 0-.39-.5 1 1 0 0 0-.6-.18q-.54 0-.85.4-.3.38-.3 1.13t.3 1.14.84.38m5.62 1.03q-.49 0-.88-.17a1.4 1.4 0 0 1-.63-.56q-.23-.4-.23-1.02v-3.26h1.35v2.94q0 .57.24.8.23.21.67.21.21 0 .4-.07a1 1 0 0 0 .35-.23q.16-.16.25-.4.09-.26.09-.6v-2.65h1.34v4.91h-1.2l-.05-.85q-.24.5-.67.73t-1.03.22m6.65 0q-.78 0-1.36-.3a2 2 0 0 1-.88-.88q-.32-.57-.32-1.37t.32-1.38a2 2 0 0 1 .87-.87q.57-.3 1.3-.3.75 0 1.27.3t.8.81.27 1.17l-.01.38-.03.3h-3.92v-.92h3.33l-.65.23q0-.62-.28-.95-.28-.34-.79-.34-.37 0-.65.18a1 1 0 0 0-.4.53q-.14.35-.14.88 0 .52.15.86.16.34.43.5.29.17.68.17.43 0 .7-.17a1 1 0 0 0 .41-.46l1.07.41a2 2 0 0 1-.48.66q-.32.28-.76.43a3 3 0 0 1-.93.13m5.38 0q-.75 0-1.37-.26a2.5 2.5 0 0 1-1-.75l.78-.79q.24.36.63.58.4.23.94.23.38 0 .6-.1.24-.13.24-.37a.4.4 0 0 0-.1-.27q-.11-.11-.44-.18l-.86-.18q-.86-.18-1.22-.53t-.36-.94q0-.4.24-.75.25-.36.73-.57.48-.23 1.2-.23.73 0 1.27.24.55.22.87.68l-.8.78a1.4 1.4 0 0 0-.58-.52 1.5 1.5 0 0 0-.72-.19q-.28 0-.48.06a1 1 0 0 0-.3.17.4.4 0 0 0-.09.26q0 .15.14.27.13.1.5.19l1 .2q.73.15 1.04.5t.32.84q0 .47-.26.85-.24.36-.73.58-.49.2-1.2.2m5-6.51v4.81q0 .35.18.52.19.16.5.16.25 0 .43-.07.19-.08.34-.2l.21.89a2 2 0 0 1-.59.3 3 3 0 0 1-.74.1q-.5 0-.88-.15a1.2 1.2 0 0 1-.59-.47q-.2-.32-.2-.86v-4.66zm1.57 1.5v1h-3.82v-1z"/></g></g><rect width="400.096" height="328.096" x="13.756" y=".452" stroke="#f5f6f7" stroke-width=".903" rx="11.548"/></g><defs><filter id="filter0_dd_6028_34820" width="427.607" height="355.607" x=".001" y="0" color-interpolation-filters="sRGB" filterUnits="userSpaceOnUse"><feFlood flood-opacity="0" result="BackgroundImageFix"/><feColorMatrix in="SourceAlpha" result="hardAlpha" values="0 0 0 0 0 0 0 0 0 0 0 0 0 0 0 0 0 0 127 0"/><feMorphology in="SourceAlpha" radius="2.661" result="effect1_dropShadow_6028_34820"/><feOffset dy="5.321"/><feGaussianBlur stdDeviation="2.661"/><feColorMatrix values="0 0 0 0 0.0627451 0 0 0 0 0.0941176 0 0 0 0 0.156863 0 0 0 0.03 0"/><feBlend in2="BackgroundImageFix" result="effect1_dropShadow_6028_34820"/><feColorMatrix in="SourceAlpha" result="hardAlpha" values="0 0 0 0 0 0 0 0 0 0 0 0 0 0 0 0 0 0 127 0"/><feMorphology in="SourceAlpha" radius="2.661" result="effect2_dropShadow_6028_34820"/><feOffset dy="13.303"/><feGaussianBlur stdDeviation="7.982"/><feColorMatrix values="0 0 0 0 0.0627451 0 0 0 0 0.0941176 0 0 0 0 0.156863 0 0 0 0.08 0"/><feBlend in2="effect1_dropShadow_6028_34820" result="effect2_dropShadow_6028_34820"/><feBlend in="SourceGraphic" in2="effect2_dropShadow_6028_34820" result="shape"/></filter><filter id="filter1_d_6028_34820" width="184.906" height="28.742" x="26.998" y="284.577" color-interpolation-filters="sRGB" filterUnits="userSpaceOnUse"><feFlood flood-opacity="0" result="BackgroundImageFix"/><feColorMatrix in="SourceAlpha" result="hardAlpha" values="0 0 0 0 0 0 0 0 0 0 0 0 0 0 0 0 0 0 127 0"/><feOffset dy=".614"/><feGaussianBlur stdDeviation=".614"/><feColorMatrix values="0 0 0 0 0.0627451 0 0 0 0 0.0941176 0 0 0 0 0.156863 0 0 0 0.05 0"/><feBlend in2="BackgroundImageFix" result="effect1_dropShadow_6028_34820"/><feBlend in="SourceGraphic" in2="effect1_dropShadow_6028_34820" result="shape"/></filter><filter id="filter2_d_6028_34820" width="184.906" height="28.742" x="216.818" y="284.577" color-interpolation-filters="sRGB" filterUnits="userSpaceOnUse"><feFlood flood-opacity="0" result="BackgroundImageFix"/><feColorMatrix in="SourceAlpha" result="hardAlpha" values="0 0 0 0 0 0 0 0 0 0 0 0 0 0 0 0 0 0 127 0"/><feOffset dy=".614"/><feGaussianBlur stdDeviation=".614"/><feColorMatrix values="0 0 0 0 0.0627451 0 0 0 0 0.0941176 0 0 0 0 0.156863 0 0 0 0.05 0"/><feBlend in2="BackgroundImageFix" result="effect1_dropShadow_6028_34820"/><feBlend in="SourceGraphic" in2="effect1_dropShadow_6028_34820" result="shape"/></filter><clipPath id="clip0_6028_34820"><rect width="401" height="329" x="13.305" fill="#fff" rx="12"/></clipPath></defs></svg>