<svg xmlns="http://www.w3.org/2000/svg" fill="none" viewBox="0 0 592 494"><g filter="url(#filter0_d_8061_109)"><rect width="585" height="484" x="3.047" fill="#fff" rx="13.739"/><rect width="583.966" height="482.966" x="3.564" y=".517" stroke="#f5f6f7" stroke-width="1.034" rx="13.222"/><path fill="#232323" d="M33.065 29.47q2.34 0 4.108.807a8.05 8.05 0 0 1 3.015 2.392l-2.001 2.314q-1.066-1.352-2.34-1.976-1.249-.65-2.913-.65-1.09 0-1.82.286-.702.285-1.04.754a1.83 1.83 0 0 0-.312 1.04q0 .702.546 1.196.547.468 1.873.78l3.198.728q2.547.571 3.64 1.716 1.117 1.118 1.117 2.912 0 1.69-.884 2.912-.883 1.195-2.47 1.846-1.585.624-3.64.624-1.794 0-3.302-.416a10.3 10.3 0 0 1-2.651-1.196 7.9 7.9 0 0 1-1.95-1.742l2.027-2.418a6.7 6.7 0 0 0 1.483 1.482q.883.65 2.002 1.04a7.8 7.8 0 0 0 2.391.364q1.067 0 1.794-.234.755-.261 1.118-.702.39-.468.39-1.118 0-.676-.468-1.144-.441-.495-1.663-.754l-3.485-.78q-1.508-.364-2.6-.936-1.065-.599-1.638-1.508-.545-.936-.546-2.21 0-1.535.832-2.756.832-1.222 2.392-1.924 1.587-.728 3.797-.728m15.614 17.68q-2.054 0-3.588-.805a5.7 5.7 0 0 1-2.34-2.314q-.832-1.509-.832-3.64 0-2.133.832-3.64a5.7 5.7 0 0 1 2.314-2.314q1.508-.806 3.432-.806 1.976 0 3.354.806a5.26 5.26 0 0 1 2.106 2.158q.728 1.351.728 3.094 0 .52-.026.988t-.078.832H44.207v-2.47h8.814l-1.716.624q0-1.638-.754-2.522-.728-.885-2.08-.884-.988 0-1.716.468-.702.468-1.066 1.404-.364.91-.364 2.314 0 1.377.39 2.288.416.883 1.144 1.326.754.441 1.794.442 1.144 0 1.846-.442a3 3 0 0 0 1.092-1.222l2.834 1.092a4.5 4.5 0 0 1-1.274 1.742q-.832.728-2.002 1.118a8.1 8.1 0 0 1-2.47.364m12.878-17.237v12.74q0 .936.468 1.378.494.416 1.326.416.65 0 1.144-.182.495-.209.884-.546l.572 2.366q-.624.494-1.56.78a6.7 6.7 0 0 1-1.976.286q-1.3 0-2.314-.39a3.27 3.27 0 0 1-1.56-1.248q-.546-.858-.546-2.288V30.9zm4.16 3.978v2.652H55.603V33.89zm13.841 13.26q-1.3 0-2.34-.468a3.7 3.7 0 0 1-1.664-1.482q-.597-1.04-.598-2.678V33.89h3.562v7.774q0 1.508.624 2.106.624.572 1.794.572.546 0 1.066-.182.52-.209.91-.624.416-.417.65-1.066.234-.677.234-1.586V33.89h3.562v13h-3.172l-.13-2.262q-.65 1.3-1.794 1.924-1.118.597-2.704.598m11.028 5.2V33.89h3.198l.234 4.134-.442-.468a5.3 5.3 0 0 1 .859-2.028q.65-.885 1.638-1.378.987-.52 2.21-.52 1.585 0 2.833.806 1.248.805 1.95 2.314.728 1.482.728 3.614t-.728 3.666q-.727 1.507-2.002 2.314-1.248.806-2.86.806-1.715 0-2.86-.962a4.9 4.9 0 0 1-1.533-2.418l.337-.546v9.126zm6.579-7.93q1.43 0 2.235-1.014.832-1.04.832-3.016t-.805-2.99q-.78-1.04-2.21-1.04-.91 0-1.612.494-.676.468-1.067 1.378-.39.883-.39 2.158 0 1.248.365 2.158.363.909 1.04 1.404a2.84 2.84 0 0 0 1.612.468m28.443-10.53-5.252 13.806q-.624 1.767-1.404 2.808-.754 1.04-1.768 1.508-.987.468-2.366.468-1.014 0-1.872-.26a5.6 5.6 0 0 1-1.456-.624l.754-2.574q.494.39 1.04.546.546.182 1.248.182.729 0 1.248-.312.547-.312.91-1.248l.442-1.118-1.43-3.38-3.978-9.802h3.952l2.47 7.8.676 2.6.806-2.756 2.366-7.644zm7.229-.26q1.977 0 3.458.806a5.67 5.67 0 0 1 2.34 2.314q.858 1.507.858 3.64 0 2.106-.858 3.64a5.67 5.67 0 0 1-2.34 2.314q-1.481.806-3.458.806-1.95 0-3.458-.806a5.85 5.85 0 0 1-2.366-2.314q-.832-1.534-.832-3.64 0-2.133.832-3.64a5.85 5.85 0 0 1 2.366-2.314q1.508-.806 3.458-.806m0 2.652q-.988 0-1.69.468-.675.441-1.04 1.352-.363.91-.364 2.288 0 1.377.364 2.288.365.91 1.04 1.378.702.441 1.69.442.963 0 1.638-.442.703-.468 1.066-1.378t.364-2.288q0-1.379-.364-2.288-.363-.91-1.066-1.352-.675-.468-1.638-.468m13.641 10.868q-1.3 0-2.34-.468a3.7 3.7 0 0 1-1.664-1.482q-.598-1.04-.598-2.678V33.89h3.562v7.774q0 1.508.624 2.106.624.572 1.794.572.546 0 1.066-.182.52-.209.91-.624.416-.417.65-1.066.234-.677.234-1.586V33.89h3.562v13h-3.172l-.13-2.262q-.651 1.3-1.794 1.924-1.119.597-2.704.598m11.028-.26v-13h3.094l.234 2.548q.52-1.353 1.508-2.08 1.014-.728 2.522-.728.442 0 .806.078t.598.208l-.416 2.99a2.8 2.8 0 0 0-.65-.156 7 7 0 0 0-.962-.052q-.78 0-1.508.39-.728.364-1.196 1.144-.468.754-.468 1.924v6.734zm23.296-13.26q1.741 0 2.938.52 1.221.493 1.95 1.378a5 5 0 0 1 1.066 1.924l-3.328 1.196q-.26-1.17-.884-1.768-.625-.598-1.69-.598-.988 0-1.69.468-.702.441-1.066 1.378-.364.91-.364 2.288t.364 2.288q.39.91 1.092 1.352.727.441 1.69.442.78 0 1.326-.26.545-.287.884-.806.363-.52.494-1.248l3.224 1.04a4.8 4.8 0 0 1-1.066 2.054q-.78.883-2.002 1.378-1.223.494-2.834.494-2.003 0-3.536-.806a5.63 5.63 0 0 1-2.366-2.314q-.832-1.509-.832-3.64 0-2.133.832-3.64a5.67 5.67 0 0 1 2.34-2.314q1.508-.806 3.458-.806m14.181 0q1.976 0 3.458.806a5.67 5.67 0 0 1 2.34 2.314q.858 1.507.858 3.64 0 2.106-.858 3.64a5.67 5.67 0 0 1-2.34 2.314q-1.482.806-3.458.806-1.95 0-3.458-.806a5.85 5.85 0 0 1-2.366-2.314q-.832-1.534-.832-3.64 0-2.133.832-3.64a5.85 5.85 0 0 1 2.366-2.314q1.508-.806 3.458-.806m0 2.652q-.988 0-1.69.468-.675.441-1.04 1.352-.363.91-.364 2.288 0 1.377.364 2.288.365.91 1.04 1.378.702.441 1.69.442.963 0 1.638-.442.703-.468 1.066-1.378t.364-2.288-.364-2.288q-.363-.91-1.066-1.352-.675-.468-1.638-.468M204.1 46.89v-13h3.198l.13 2.34q.65-1.3 1.768-1.95a5 5 0 0 1 2.522-.65q1.404 0 2.522.65 1.143.65 1.716 1.924a4.15 4.15 0 0 1 1.118-1.43 4.9 4.9 0 0 1 1.56-.858 5.5 5.5 0 0 1 1.742-.286q1.273 0 2.314.52 1.066.519 1.69 1.56t.624 2.652v8.528h-3.562v-7.826q0-1.431-.624-2.028-.625-.598-1.612-.598-.78 0-1.456.39-.65.39-1.04 1.17-.364.753-.364 1.898v6.994h-3.562v-7.826q0-1.431-.65-2.028-.624-.598-1.612-.598-.677 0-1.352.364-.651.364-1.092 1.144-.416.78-.416 2.054v6.89zm24.058 5.46V33.89h3.198l.234 4.134-.442-.468a5.3 5.3 0 0 1 .858-2.028 4.5 4.5 0 0 1 1.638-1.378q.988-.52 2.21-.52 1.586 0 2.834.806 1.248.805 1.95 2.314.728 1.482.728 3.614t-.728 3.666q-.728 1.507-2.002 2.314-1.248.806-2.86.806-1.716 0-2.86-.962a4.9 4.9 0 0 1-1.534-2.418l.338-.546v9.126zm6.578-7.93q1.43 0 2.236-1.014.832-1.04.832-3.016t-.806-2.99q-.78-1.04-2.21-1.04a2.73 2.73 0 0 0-1.612.494q-.676.468-1.066 1.378-.39.883-.39 2.158 0 1.248.364 2.158t1.04 1.404a2.84 2.84 0 0 0 1.612.468m16.537-5.824q0-1.119-.65-1.742-.624-.624-1.664-.624-.963 0-1.69.494-.729.494-1.066 1.638l-3.042-.936q.442-1.716 1.924-2.756 1.507-1.04 4.03-1.04 1.715 0 2.99.546 1.274.52 1.976 1.586.728 1.065.728 2.678v5.278q0 .987.936.988.442 0 .832-.13l-.208 2.21q-.676.338-1.69.338a4.1 4.1 0 0 1-1.638-.312 2.54 2.54 0 0 1-1.144-.936q-.416-.65-.416-1.612v-.104l.624-.104a3 3 0 0 1-.858 1.69q-.702.675-1.716 1.04a5.9 5.9 0 0 1-2.054.364q-1.326 0-2.288-.39-.963-.416-1.482-1.196-.52-.78-.52-1.924 0-1.457.936-2.366.935-.936 2.678-1.274l4.888-.988-.026 2.21-3.12.624q-.885.182-1.352.494-.442.285-.442.962 0 .65.468.988.494.338 1.17.338.546 0 1.066-.13.519-.13.936-.416.416-.286.65-.78t.234-1.196zm6.999 8.294v-13h3.198l.208 3.9-.442-.416q.313-1.275.988-2.106a4.05 4.05 0 0 1 1.638-1.222 5.5 5.5 0 0 1 2.158-.416q1.353 0 2.392.52a3.76 3.76 0 0 1 1.664 1.586q.624 1.04.624 2.626v8.528h-3.562v-7.514q0-1.665-.65-2.288-.65-.65-1.69-.65-.728 0-1.43.364-.675.338-1.118 1.118-.416.78-.416 2.08v6.89zm27.315-13-5.252 13.806q-.624 1.767-1.404 2.808-.753 1.04-1.768 1.508-.987.468-2.366.468-1.014 0-1.872-.26a5.6 5.6 0 0 1-1.456-.624l.754-2.574q.494.39 1.04.546.546.182 1.248.182.729 0 1.248-.312.546-.312.91-1.248l.442-1.118-1.43-3.38-3.978-9.802h3.952l2.47 7.8.676 2.6.806-2.756 2.366-7.644zm8.272 18.46V33.89h3.198l.234 4.134-.442-.468a5.3 5.3 0 0 1 .858-2.028 4.5 4.5 0 0 1 1.638-1.378q.987-.52 2.21-.52 1.586 0 2.834.806 1.248.805 1.95 2.314.728 1.482.728 3.614t-.728 3.666q-.729 1.507-2.002 2.314-1.248.806-2.86.806-1.716 0-2.86-.962a4.9 4.9 0 0 1-1.534-2.418l.338-.546v9.126zm6.578-7.93q1.43 0 2.236-1.014.832-1.04.832-3.016t-.806-2.99q-.78-1.04-2.21-1.04a2.73 2.73 0 0 0-1.612.494q-.676.468-1.066 1.378-.39.883-.39 2.158 0 1.248.364 2.158.363.909 1.04 1.404a2.84 2.84 0 0 0 1.612.468m9.202 2.47v-13h3.094l.234 2.548q.52-1.353 1.508-2.08 1.014-.728 2.522-.728.443 0 .806.078t.598.208l-.416 2.99a2.8 2.8 0 0 0-.65-.156 7 7 0 0 0-.962-.052q-.78 0-1.508.39-.728.364-1.196 1.144-.468.754-.468 1.924v6.734zm16.123-13.26q1.977 0 3.458.806a5.67 5.67 0 0 1 2.34 2.314q.858 1.507.858 3.64 0 2.106-.858 3.64a5.67 5.67 0 0 1-2.34 2.314q-1.481.806-3.458.806-1.95 0-3.458-.806a5.85 5.85 0 0 1-2.366-2.314q-.832-1.534-.832-3.64 0-2.133.832-3.64a5.85 5.85 0 0 1 2.366-2.314q1.509-.806 3.458-.806m0 2.652q-.988 0-1.69.468-.675.441-1.04 1.352-.363.91-.364 2.288 0 1.377.364 2.288.365.91 1.04 1.378.702.441 1.69.442.963 0 1.638-.442.703-.468 1.066-1.378t.364-2.288-.364-2.288-1.066-1.352q-.675-.468-1.638-.468m14.788-8.346q.91 0 1.638.208.754.181 1.118.468l-.494 2.366a2.5 2.5 0 0 0-.65-.286 3.2 3.2 0 0 0-.858-.104q-1.014 0-1.612.468-.598.442-.598 1.534v1.794l.156.702V46.89h-3.562V32.33q0-1.093.364-1.924a3.7 3.7 0 0 1 1.014-1.378 4.2 4.2 0 0 1 1.534-.806 6.5 6.5 0 0 1 1.95-.286m2.652 5.954v2.652h-9.776V33.89zm3.926-1.872q-1.118 0-1.664-.468-.546-.494-.546-1.43 0-.962.546-1.43.546-.495 1.664-.494 1.118 0 1.664.494.546.468.546 1.43 0 .936-.546 1.43-.546.468-1.664.468m1.768 1.872v13h-3.562v-13zm6.772-5.694v14.69q0 .91.312 1.274.311.364 1.04.364.441 0 .728-.052.285-.078.728-.208l-.312 2.34q-.443.26-1.118.39a5.6 5.6 0 0 1-1.3.156q-1.899 0-2.782-.91-.858-.936-.858-2.964v-15.08zm10.304 18.954q-2.054 0-3.588-.806a5.7 5.7 0 0 1-2.34-2.314q-.832-1.509-.832-3.64 0-2.133.832-3.64a5.7 5.7 0 0 1 2.314-2.314q1.509-.806 3.432-.806 1.977 0 3.354.806a5.26 5.26 0 0 1 2.106 2.158q.728 1.351.728 3.094 0 .52-.026.988a10 10 0 0 1-.078.832H361.5v-2.47h8.814l-1.716.624q0-1.638-.754-2.522-.727-.885-2.08-.884-.987 0-1.716.468-.702.468-1.066 1.404-.363.91-.364 2.314 0 1.377.39 2.288.417.883 1.144 1.326.755.441 1.794.442 1.144 0 1.846-.442a3 3 0 0 0 1.092-1.222l2.834 1.092a4.5 4.5 0 0 1-1.274 1.742q-.831.728-2.002 1.118a8.1 8.1 0 0 1-2.47.364"/><path fill="#232323" d="M34.883 85.09a4.3 4.3 0 0 1-.96 1.633 4.2 4.2 0 0 1-1.505.992 5.2 5.2 0 0 1-1.903.336q-1.521 0-2.64-.656-1.12-.657-1.729-1.872-.608-1.217-.608-2.912 0-1.697.608-2.912.609-1.216 1.729-1.872 1.119-.656 2.624-.656 1.04 0 1.872.288a3.8 3.8 0 0 1 1.44.864q.591.576.911 1.44l-1.616.72q-.32-.944-.928-1.376-.608-.448-1.583-.448-.977 0-1.712.464-.736.464-1.152 1.344-.4.88-.4 2.144 0 1.248.384 2.144.384.879 1.104 1.344.72.464 1.728.464.975 0 1.68-.496.719-.513 1.024-1.52zm5.417-5.36q1.168 0 2.064.497.895.495 1.392 1.44.512.927.512 2.224 0 1.296-.512 2.24a3.45 3.45 0 0 1-1.392 1.424q-.896.496-2.064.496t-2.064-.496a3.55 3.55 0 0 1-1.408-1.424q-.512-.945-.512-2.24 0-1.297.512-2.224.511-.945 1.408-1.44.896-.496 2.064-.496m0 1.345q-.72 0-1.232.336-.496.32-.768.944t-.272 1.536q0 .895.272 1.536.271.624.768.96.512.32 1.232.32t1.216-.32q.496-.336.768-.96.272-.64.272-1.536 0-.912-.272-1.536-.271-.624-.768-.944-.495-.336-1.216-.336m6.122 6.816v-8h1.52l.08 1.344q.416-.768 1.104-1.136.704-.368 1.488-.368.864 0 1.584.4.735.384 1.104 1.168.255-.529.704-.88a2.9 2.9 0 0 1 .992-.512 3.5 3.5 0 0 1 1.072-.176q.768 0 1.44.32t1.088.976.416 1.68v5.184h-1.712V82.98q0-.976-.464-1.408-.465-.432-1.184-.432-.56 0-1.04.272a2 2 0 0 0-.752.816q-.288.528-.288 1.312v4.352h-1.712V82.98q0-.976-.464-1.408-.465-.432-1.184-.432-.48 0-.96.256-.48.255-.8.8-.32.543-.32 1.44v4.256zm15.187 3.36V79.89h1.52l.128 2.24-.224-.272q.193-.624.592-1.104.4-.48.992-.752a3.2 3.2 0 0 1 1.328-.272q.976 0 1.776.496.8.495 1.264 1.424.465.912.464 2.224 0 1.311-.48 2.256-.465.927-1.28 1.424-.8.496-1.792.496-1.024 0-1.744-.528a2.97 2.97 0 0 1-1.024-1.376l.192-.272v5.376zm3.92-4.592q1.04 0 1.616-.736.592-.736.592-2.032t-.576-2.032q-.576-.752-1.6-.752a2.04 2.04 0 0 0-1.184.352q-.495.336-.784.96-.272.608-.272 1.472 0 .848.272 1.472.273.624.768.96t1.168.336m10.72-3.904q0-.8-.448-1.232-.432-.448-1.2-.448-.72 0-1.232.336-.512.335-.752 1.088l-1.44-.608a2.88 2.88 0 0 1 1.184-1.568q.895-.592 2.304-.592.96 0 1.696.32.735.303 1.152.928.432.624.432 1.6v3.568q0 .591.592.592.287 0 .56-.08L79 87.843q-.369.176-.928.176-.511 0-.928-.176a1.55 1.55 0 0 1-.64-.56q-.225-.384-.224-.944v-.112l.352-.016a2 2 0 0 1-.592 1.04q-.448.4-1.04.608a3.9 3.9 0 0 1-1.2.192q-.753 0-1.36-.24-.593-.24-.944-.72-.336-.496-.336-1.216 0-.897.576-1.472.593-.576 1.664-.784l3.104-.608-.016 1.2-2.256.464q-.672.128-1.008.368t-.336.704a.88.88 0 0 0 .336.72q.352.256.928.256.399 0 .768-.096.384-.096.688-.304.304-.225.464-.56a1.84 1.84 0 0 0 .176-.832zm4.5 5.136v-8h1.52l.113 2.08-.224-.224q.224-.689.64-1.136.432-.465 1.008-.672.592-.208 1.248-.208.848 0 1.52.336a2.47 2.47 0 0 1 1.088.976q.4.656.4 1.664v5.184H86.35v-4.656q0-1.185-.496-1.632-.48-.465-1.216-.464-.529 0-1.024.256-.496.24-.832.784-.32.543-.32 1.456v4.256zm16.681-8-3.504 8.944q-.351.927-.768 1.472-.4.543-.928.784-.528.24-1.232.24-.576 0-1.072-.16a3 3 0 0 1-.848-.4l.416-1.328q.304.255.64.384.353.128.752.128.432 0 .768-.24.352-.225.624-.912l.352-.864-.848-1.984-2.496-6.064h1.92l1.776 5.024.464 1.504.528-1.648 1.68-4.88zm15.169-2.56v10.56h-2.032l-4.08-6.656-1.024-1.872h-.016l.064 1.712v6.816h-1.568V77.33h2.016l4.064 6.64 1.04 1.904h.016l-.064-1.728V77.33zm7.431 5.424q0-.8-.448-1.232-.432-.448-1.2-.448-.72 0-1.232.336-.512.335-.752 1.088l-1.44-.608a2.88 2.88 0 0 1 1.184-1.568q.895-.592 2.304-.592.96 0 1.696.32.737.303 1.152.928.432.624.432 1.6v3.568q0 .591.592.592.288 0 .56-.08l-.096 1.184q-.368.176-.928.176-.512 0-.928-.176a1.55 1.55 0 0 1-.64-.56q-.224-.384-.224-.944v-.112l.352-.016a2 2 0 0 1-.592 1.04q-.448.4-1.04.608a3.9 3.9 0 0 1-1.2.192q-.752 0-1.36-.24-.592-.24-.944-.72-.336-.496-.336-1.216 0-.897.576-1.472.592-.576 1.664-.784l3.104-.608-.016 1.2-2.256.464q-.672.128-1.008.368t-.336.704a.88.88 0 0 0 .336.72q.352.256.928.256.4 0 .768-.096.384-.096.688-.304.304-.225.464-.56.176-.352.176-.832zm4.501 5.136v-8h1.52l.08 1.344q.415-.768 1.104-1.136a3.2 3.2 0 0 1 1.488-.368q.864 0 1.584.4.737.384 1.104 1.168.256-.529.704-.88.448-.353.992-.512.544-.176 1.072-.176.768 0 1.44.32t1.088.976.416 1.68v5.184h-1.712V82.98q0-.976-.464-1.408t-1.184-.432q-.56 0-1.04.272-.464.271-.752.816-.288.528-.288 1.312v4.352h-1.712V82.98q0-.976-.464-1.408t-1.184-.432q-.48 0-.96.256-.48.255-.8.8-.32.543-.32 1.44v4.256zm18.708.16q-1.2 0-2.112-.496a3.5 3.5 0 0 1-1.424-1.424q-.496-.945-.496-2.24 0-1.297.496-2.224.511-.945 1.408-1.44.895-.496 2.032-.496 1.167 0 1.984.48.816.48 1.248 1.312t.432 1.888q0 .288-.016.544a5 5 0 0 1-.048.448h-6.432V83.09h5.68l-.848.256q0-1.088-.544-1.664-.545-.592-1.488-.592-.689 0-1.2.32-.513.32-.784.96-.272.624-.272 1.536 0 .896.288 1.52.288.623.816.944t1.248.32q.8 0 1.296-.304.496-.305.784-.848l1.36.64a3.3 3.3 0 0 1-.784 1.008q-.48.415-1.152.64a4.6 4.6 0 0 1-1.472.224"/><path fill="#ee312a" d="m152.412 79.81 1.296 1.313 1.184 1.632-1.056.768-1.184-1.632-.848-1.632.304-.224zm-.608 0 .304.225.304.224-.848 1.632-1.168 1.632-1.056-.768 1.184-1.632zm-3.136-1.567 1.92.624 1.648.816-.128.352-.112.368-1.808-.32-1.904-.608zm4.112-2.032-.016 2.016-.272 1.808h-.768l-.256-1.808-.016-2.016zm2.784 2.032.384 1.232-1.904.608-1.808.32-.128-.368-.112-.352 1.648-.816z"/><rect width="542" height="55" x="25.063" y="98.391" fill="#f0f2f5" rx="5.5"/><rect width="542" height="55" x="25.063" y="98.391" stroke="#c3c9d3" rx="5.5"/><path fill="#232323" d="M49.715 120.831v1.2h-3.68v9.36h-1.28v-9.36h-3.68v-1.2zm3.57 10.72q-1.135 0-2.032-.496a3.5 3.5 0 0 1-1.376-1.424q-.496-.944-.496-2.24t.496-2.224q.495-.945 1.36-1.44.864-.496 1.968-.496 1.12 0 1.904.48.8.48 1.216 1.312.416.816.416 1.84 0 .271-.016.496-.015.223-.048.4h-6.464v-1.136h5.904l-.656.128q0-1.152-.64-1.776-.624-.624-1.648-.624-.784 0-1.36.368-.56.351-.88 1.04-.304.672-.304 1.632 0 .943.32 1.632.32.687.896 1.056.592.351 1.408.352.88 0 1.424-.336.56-.336.896-.912l1.008.592a3.4 3.4 0 0 1-.784.944q-.464.399-1.104.624a4.5 4.5 0 0 1-1.408.208m9.203-8.32q.832 0 1.456.256.64.255 1.103.736.465.48.752 1.136l-1.216.576q-.255-.769-.783-1.168-.513-.416-1.344-.416-.8 0-1.376.368-.576.351-.88 1.04-.305.672-.305 1.632 0 .943.304 1.632.305.687.88 1.056.577.351 1.377.352.623 0 1.072-.192.464-.192.752-.56.303-.369.415-.896l1.185.416q-.273.736-.752 1.264-.465.528-1.136.816-.657.272-1.505.272-1.12 0-2-.496a3.5 3.5 0 0 1-1.376-1.424q-.495-.944-.495-2.24t.495-2.224q.497-.945 1.377-1.44.88-.496 2-.496m5.64 8.16v-11.68h1.28v4.88q.417-.72 1.105-1.04t1.504-.32q.864 0 1.568.336.703.32 1.12.992.432.671.432 1.712v5.12h-1.28v-4.672q0-1.329-.576-1.84-.561-.528-1.392-.528-.576 0-1.152.272t-.96.896q-.368.608-.368 1.632v4.24zm18.992-10.72q1.392 0 2.4.576 1.008.56 1.68 1.664l-1.072.832q-.592-1.025-1.344-1.44-.735-.432-1.792-.432-.848 0-1.408.24-.545.24-.8.64-.256.384-.256.88 0 .56.352.992.352.416 1.408.656l2.288.512q1.52.336 2.112 1.024.608.672.608 1.68 0 .895-.512 1.6-.496.688-1.408 1.072t-2.144.384q-1.152 0-2.032-.304a5 5 0 0 1-1.488-.848 4.9 4.9 0 0 1-1.024-1.184l1.12-.912q.304.607.784 1.072.48.464 1.152.72.688.255 1.568.256.816 0 1.408-.192.608-.208.928-.592a1.5 1.5 0 0 0 .32-.96q0-.513-.336-.912-.336-.417-1.264-.624l-2.48-.56q-.976-.225-1.584-.608-.593-.4-.864-.928a2.7 2.7 0 0 1-.256-1.168q0-.849.464-1.552.48-.72 1.36-1.152.895-.432 2.112-.432m8.506.448v8.064q0 .591.336.88.336.288.864.288.465 0 .8-.16.336-.16.608-.432l.448 1.072q-.368.336-.88.528a3.2 3.2 0 0 1-1.152.192q-.608 0-1.136-.208a1.93 1.93 0 0 1-.848-.688q-.305-.48-.32-1.248v-7.936zm2.912 2.272v1.104h-5.792v-1.104zm4.799 8.16q-.768 0-1.456-.288a2.5 2.5 0 0 1-1.104-.928q-.416-.657-.416-1.696v-5.248h1.28v4.912q0 1.215.528 1.68.528.447 1.488.448.448 0 .88-.144.432-.16.768-.48.352-.336.544-.848.208-.513.208-1.216v-4.352h1.28v8h-1.12l-.08-1.216q-.416.72-1.136 1.056-.704.32-1.664.32m10.099 0a3.5 3.5 0 0 1-1.824-.496q-.832-.497-1.328-1.424-.496-.944-.496-2.24 0-1.329.528-2.256.528-.928 1.392-1.408a3.66 3.66 0 0 1 1.856-.496q.992 0 1.712.512.736.511.976 1.36l-.16.112v-5.504h1.28v11.68h-1.12l-.112-1.936.176-.096a2.35 2.35 0 0 1-.544 1.2q-.416.48-1.04.736-.607.255-1.296.256m.128-1.12q.768 0 1.328-.384.576-.384.88-1.088.32-.72.32-1.68 0-.912-.32-1.568a2.3 2.3 0 0 0-.864-1.008q-.544-.352-1.28-.352-1.216 0-1.888.832-.672.831-.672 2.208 0 1.376.656 2.208t1.84.832m7.423-8.576q-.431 0-.704-.256-.255-.272-.256-.704 0-.432.256-.688.272-.273.704-.272.433 0 .688.272.273.256.272.688 0 .431-.272.704-.255.255-.688.256m.64 1.536v8h-1.28v-8zm6.282-.16q1.136 0 2 .496.88.495 1.376 1.44.496.928.496 2.224t-.496 2.24a3.47 3.47 0 0 1-1.376 1.424q-.863.495-2 .496-1.12 0-2-.496a3.5 3.5 0 0 1-1.376-1.424q-.496-.944-.496-2.24t.496-2.224a3.45 3.45 0 0 1 1.376-1.44q.88-.496 2-.496m0 1.104q-.816 0-1.392.368-.575.368-.896 1.056-.303.672-.304 1.632 0 .943.304 1.632.32.687.896 1.056.576.368 1.392.368t1.392-.368q.577-.369.88-1.056.32-.688.32-1.632 0-.96-.32-1.632a2.33 2.33 0 0 0-.88-1.056q-.576-.368-1.392-.368m19.751 7.056h-1.36l-1.12-2.928h-4.784l-1.12 2.928h-1.344l4.112-10.56h1.52zm-6.8-4.128h3.856l-1.936-5.2zm11.878-4.032q.832 0 1.456.256.639.255 1.104.736.464.48.752 1.136l-1.216.576q-.256-.769-.784-1.168-.513-.416-1.344-.416-.8 0-1.376.368-.577.351-.88 1.04-.304.672-.304 1.632 0 .943.304 1.632.303.687.88 1.056.576.351 1.376.352.624 0 1.072-.192a1.8 1.8 0 0 0 .752-.56q.303-.369.416-.896l1.184.416q-.272.736-.752 1.264-.464.528-1.136.816-.657.272-1.504.272-1.12 0-2-.496a3.47 3.47 0 0 1-1.376-1.424q-.496-.944-.496-2.24t.496-2.224q.495-.945 1.376-1.44.88-.496 2-.496m10.313 2.992q0-.897-.48-1.376-.48-.496-1.36-.496-.832 0-1.408.368-.576.351-.848 1.152l-1.04-.64q.32-.897 1.184-1.44.863-.56 2.144-.56.863 0 1.568.304.703.287 1.104.896.416.591.416 1.536v3.872q0 .576.608.576.304 0 .592-.08l-.064 1.008q-.32.16-.832.16-.465 0-.832-.176a1.3 1.3 0 0 1-.576-.528q-.208-.369-.208-.912v-.16l.32.048a2.16 2.16 0 0 1-.656 1.024q-.464.384-1.04.576a3.9 3.9 0 0 1-1.136.176q-.705 0-1.312-.24-.609-.24-.976-.72-.352-.496-.352-1.216 0-.897.592-1.472.608-.593 1.68-.8l3.168-.624v1.056l-2.576.528q-.784.16-1.168.448t-.384.8q0 .495.384.816.4.303 1.12.304.463 0 .88-.112.432-.129.768-.368.336-.256.528-.624a2 2 0 0 0 .192-.896zm7.51 5.328a3.5 3.5 0 0 1-1.824-.496q-.832-.497-1.328-1.424-.496-.944-.496-2.24 0-1.329.528-2.256.528-.928 1.392-1.408a3.66 3.66 0 0 1 1.856-.496q.992 0 1.712.512.736.511.976 1.36l-.16.112v-5.504h1.28v11.68h-1.12l-.112-1.936.176-.096a2.35 2.35 0 0 1-.544 1.2q-.416.48-1.04.736-.607.255-1.296.256m.128-1.12q.768 0 1.328-.384.576-.384.88-1.088.32-.72.32-1.68 0-.912-.32-1.568a2.3 2.3 0 0 0-.864-1.008q-.544-.352-1.28-.352-1.216 0-1.888.832-.672.831-.672 2.208 0 1.376.656 2.208t1.84.832m10.127 1.12q-1.135 0-2.032-.496a3.5 3.5 0 0 1-1.376-1.424q-.496-.944-.496-2.24t.496-2.224q.496-.945 1.36-1.44.864-.496 1.968-.496 1.12 0 1.904.48.8.48 1.216 1.312.416.816.416 1.84 0 .271-.016.496-.015.223-.048.4h-6.464v-1.136h5.904l-.656.128q0-1.152-.64-1.776-.624-.624-1.648-.624-.784 0-1.36.368-.56.351-.88 1.04-.303.672-.304 1.632 0 .943.32 1.632.32.687.896 1.056.592.351 1.408.352.88 0 1.424-.336.56-.336.896-.912l1.008.592a3.3 3.3 0 0 1-.784.944 3.4 3.4 0 0 1-1.104.624 4.5 4.5 0 0 1-1.408.208m5.891-.16v-8h1.12l.08 1.248q.432-.736 1.12-1.072a3.3 3.3 0 0 1 1.44-.336q.847 0 1.6.384.752.384 1.152 1.184.255-.544.72-.88a3.1 3.1 0 0 1 1.008-.512 3.5 3.5 0 0 1 1.056-.176q.768 0 1.456.32a2.7 2.7 0 0 1 1.152.992q.448.672.448 1.728v5.12h-1.28v-4.992q0-1.089-.544-1.568-.545-.48-1.344-.48a2.35 2.35 0 0 0-1.168.304 2.3 2.3 0 0 0-.88.896q-.32.592-.32 1.456v4.384h-1.28v-4.992q0-1.089-.544-1.568-.545-.48-1.344-.48-.528 0-1.088.288-.545.271-.912.88-.368.607-.368 1.6v4.272zm21.607-8-3.76 9.344q-.304.783-.672 1.232-.352.464-.8.656a2.3 2.3 0 0 1-1.008.208q-.545 0-1.008-.16a2.8 2.8 0 0 1-.8-.4l.352-1.12q.32.288.672.416.368.144.72.144.416 0 .784-.256.368-.257.672-1.04l.416-1.04-.8-1.904-2.544-6.08h1.456l2 5.216.496 1.424.576-1.584 1.872-5.056z"/><path fill="#232323" d="M27.843 176.331v10.56H26.13v-10.56zm2.829 10.56v-8h1.52l.112 2.08-.224-.224q.224-.689.64-1.136.432-.465 1.008-.672.591-.208 1.248-.208.848 0 1.52.336.687.32 1.088.976.4.656.4 1.664v5.184h-1.712v-4.656q0-1.185-.496-1.632-.48-.464-1.216-.464-.529 0-1.024.256-.495.24-.832.784-.32.544-.32 1.456v4.256zm12.978.16a3.4 3.4 0 0 1-1.808-.496q-.8-.497-1.264-1.424-.465-.928-.464-2.224 0-1.344.496-2.272.495-.928 1.328-1.408a3.5 3.5 0 0 1 1.824-.496q1.024 0 1.728.56a2.7 2.7 0 0 1 .944 1.456l-.192.176v-5.632h1.712v11.6h-1.52l-.128-2.176.224.016q-.112.72-.528 1.248a2.9 2.9 0 0 1-1.04.8 3.2 3.2 0 0 1-1.312.272m.368-1.376q.688 0 1.184-.352.496-.353.768-.992.272-.64.272-1.536 0-.833-.272-1.424-.271-.609-.768-.928a1.97 1.97 0 0 0-1.12-.32q-1.073 0-1.664.736-.592.735-.592 2.032 0 1.296.576 2.048.576.736 1.616.736m9.44 1.376a3.7 3.7 0 0 1-1.457-.288 2.34 2.34 0 0 1-1.056-.928q-.4-.64-.4-1.664v-5.28h1.712v4.848q0 1.087.464 1.504.465.4 1.296.4.4 0 .768-.128.384-.144.688-.432.305-.304.464-.768.177-.464.176-1.088v-4.336h1.712v8h-1.504l-.08-1.296q-.415.751-1.12 1.104-.704.351-1.664.352m10.082 0q-1.2 0-2.192-.464a3.8 3.8 0 0 1-1.568-1.312l1.184-1.024q.352.656 1.008 1.056.672.384 1.6.384.736 0 1.168-.256.432-.257.432-.72a.75.75 0 0 0-.208-.528q-.192-.24-.752-.368l-1.68-.352q-1.28-.256-1.824-.816-.544-.577-.544-1.456 0-.657.384-1.216.385-.56 1.12-.896.752-.352 1.792-.352 1.2 0 2.048.432.847.415 1.296 1.2l-1.184.992a1.98 1.98 0 0 0-.896-.944 2.55 2.55 0 0 0-1.232-.32 2.7 2.7 0 0 0-.88.128q-.368.127-.56.352a.78.78 0 0 0-.192.528q0 .32.24.56t.864.368l1.824.384q1.151.224 1.616.768.48.528.48 1.296t-.4 1.36q-.4.575-1.152.896-.752.32-1.792.32m7.765-10.512v7.952q0 .591.304.864.32.272.848.272.431 0 .752-.128.32-.144.592-.384l.384 1.248a2.8 2.8 0 0 1-.912.512 3.7 3.7 0 0 1-1.184.176q-.688 0-1.264-.224a1.83 1.83 0 0 1-.896-.72q-.321-.512-.336-1.328v-7.76zm2.752 2.352v1.344h-6v-1.344zm1.693 8v-8h1.456l.16 1.44q.32-.785.944-1.184.64-.416 1.568-.416.24 0 .48.048.24.031.4.112l-.24 1.504a2 2 0 0 0-.4-.096 2.7 2.7 0 0 0-.576-.048q-.496 0-.976.272a2.1 2.1 0 0 0-.8.784q-.304.528-.304 1.344v4.24zm13.649-8-3.504 8.944q-.352.927-.768 1.472-.4.543-.928.784-.528.24-1.232.24-.577 0-1.072-.16a3 3 0 0 1-.848-.4l.416-1.328q.304.255.64.384.352.128.752.128.432 0 .768-.24.351-.225.624-.912l.352-.864-.848-1.984-2.496-6.064h1.92l1.776 5.024.464 1.504.528-1.648 1.68-4.88z"/><path fill="#ee312a" d="m94.443 178.811 1.296 1.312 1.184 1.632-1.056.768-1.184-1.632-.848-1.632.304-.224zm-.608 0 .304.224.304.224-.848 1.632-1.168 1.632-1.056-.768 1.184-1.632zm-3.136-1.568 1.92.624 1.648.816-.128.352-.112.368-1.808-.32-1.904-.608zm4.112-2.032-.016 2.016-.272 1.808h-.768l-.256-1.808-.016-2.016zm2.784 2.032.384 1.232-1.904.608-1.808.32-.128-.368-.112-.352 1.648-.816z"/><rect width="542" height="55" x="25.063" y="197.391" fill="#fff" rx="5.5"/><rect width="542" height="55" x="25.063" y="197.391" stroke="#2d80f5" rx="5.5"/><g clip-path="url(#clip0_8061_109)"><path fill="#98a2b3" d="M45.683 219.671q1.391 0 2.4.576 1.008.56 1.68 1.664l-1.072.832q-.592-1.024-1.345-1.44-.735-.432-1.791-.432-.849 0-1.408.24-.545.24-.8.64-.257.384-.257.88 0 .56.352.992.353.416 1.408.656l2.288.512q1.52.336 2.113 1.024.608.672.608 1.68 0 .895-.513 1.6-.496.687-1.407 1.072-.912.384-2.145.384-1.151 0-2.031-.304a5 5 0 0 1-1.488-.848 4.9 4.9 0 0 1-1.024-1.184l1.12-.912q.303.607.783 1.072.48.464 1.152.72.69.255 1.569.256.816 0 1.407-.192.608-.208.929-.592a1.5 1.5 0 0 0 .32-.96q0-.513-.337-.912-.336-.417-1.264-.624l-2.48-.56q-.975-.225-1.584-.608-.591-.4-.864-.928a2.7 2.7 0 0 1-.256-1.168q0-.849.465-1.552.48-.72 1.36-1.152.895-.432 2.111-.432m9.962 10.88q-1.137 0-2.033-.496a3.5 3.5 0 0 1-1.376-1.424q-.495-.944-.495-2.24t.495-2.224q.497-.945 1.36-1.44.865-.496 1.969-.496 1.119 0 1.904.48.8.48 1.215 1.312.416.816.416 1.84 0 .271-.016.496-.015.223-.048.4h-6.464v-1.136h5.904l-.655.128q0-1.152-.64-1.776-.624-.624-1.648-.624-.785 0-1.36.368-.56.351-.88 1.04-.304.672-.304 1.632 0 .944.32 1.632t.896 1.056q.592.351 1.407.352.88 0 1.424-.336.56-.336.896-.912l1.008.592a3.4 3.4 0 0 1-.783.944q-.465.399-1.104.624a4.5 4.5 0 0 1-1.408.208m7.106-11.84v9.648q0 .608.224.848.225.224.72.224.32 0 .528-.048t.56-.176l-.208 1.12q-.256.112-.56.16-.304.064-.624.064-.975 0-1.456-.528-.465-.528-.464-1.616v-9.696zm7.018 11.84q-1.135 0-2.032-.496a3.5 3.5 0 0 1-1.375-1.424q-.496-.944-.496-2.24t.496-2.224q.495-.945 1.36-1.44.864-.496 1.968-.496 1.118 0 1.904.48.8.48 1.216 1.312.415.816.415 1.84 0 .271-.015.496-.016.223-.048.4h-6.465v-1.136H72.6l-.656.128q0-1.152-.64-1.776-.624-.624-1.648-.624-.783 0-1.36.368-.56.351-.88 1.04-.303.672-.303 1.632 0 .944.32 1.632t.895 1.056q.593.351 1.409.352.879 0 1.424-.336.56-.336.895-.912l1.008.592a3.4 3.4 0 0 1-.784.944q-.464.399-1.104.624a4.5 4.5 0 0 1-1.408.208m9.203-8.32q.832 0 1.456.256.64.256 1.104.736t.752 1.136l-1.216.576q-.255-.768-.784-1.168-.513-.416-1.344-.416-.8 0-1.376.368-.576.351-.88 1.04-.304.672-.304 1.632 0 .944.304 1.632t.88 1.056q.576.351 1.376.352.624 0 1.072-.192.465-.192.752-.56.304-.369.416-.896l1.184.416q-.272.736-.752 1.264-.465.528-1.136.816-.656.272-1.504.272-1.12 0-2-.496a3.5 3.5 0 0 1-1.376-1.424q-.495-.944-.496-2.24 0-1.297.496-2.224.496-.945 1.376-1.44.88-.496 2-.496m7.529-2.112v8.064q0 .591.336.88.336.288.864.288.465 0 .8-.16.336-.16.608-.432l.448 1.072q-.368.336-.88.528a3.2 3.2 0 0 1-1.152.192q-.608 0-1.136-.208a1.93 1.93 0 0 1-.848-.688q-.305-.48-.32-1.248v-7.936zm2.912 2.272v1.104H83.62v-1.104zm7.996-1.536q-.431 0-.704-.256-.256-.272-.256-.704t.256-.688q.273-.272.704-.272.433 0 .688.272.272.256.272.688t-.272.704q-.255.255-.688.256m.64 1.536v8h-1.28v-8zm2.97 8v-8h1.12l.112 1.792-.208-.176q.256-.64.688-1.024.432-.4.992-.576a4 4 0 0 1 1.184-.176q.864 0 1.568.336.705.32 1.12.992.432.672.432 1.712v5.12h-1.28v-4.672q0-1.329-.576-1.84-.56-.528-1.392-.528-.576 0-1.152.272-.576.271-.96.88-.368.608-.368 1.632v4.256zm13.027.16a3.5 3.5 0 0 1-1.824-.496q-.833-.497-1.328-1.424-.496-.944-.496-2.24 0-1.329.528-2.256.528-.928 1.392-1.408a3.66 3.66 0 0 1 1.856-.496q.992 0 1.712.512.736.511.976 1.36l-.16.112v-5.504h1.28v11.68h-1.12l-.112-1.936.176-.096a2.35 2.35 0 0 1-.544 1.2q-.416.48-1.04.736-.609.256-1.296.256m.128-1.12q.767 0 1.328-.384.576-.384.88-1.088.32-.72.32-1.68 0-.912-.32-1.568a2.3 2.3 0 0 0-.864-1.008q-.545-.352-1.28-.352-1.216 0-1.888.832-.672.831-.672 2.208 0 1.376.656 2.208.655.831 1.84.832m9.679 1.12a3.7 3.7 0 0 1-1.456-.288 2.5 2.5 0 0 1-1.104-.928q-.416-.657-.416-1.696v-5.248h1.28v4.912q0 1.215.528 1.68.528.447 1.488.448.448 0 .88-.144.432-.16.768-.48.351-.336.544-.848.208-.513.208-1.216v-4.352h1.28v8h-1.12l-.08-1.216q-.417.72-1.136 1.056-.705.32-1.664.32m9.859 0a4.8 4.8 0 0 1-2.16-.496 3.56 3.56 0 0 1-1.504-1.408l1.088-.784q.352.735 1.024 1.152.688.416 1.648.416.848 0 1.328-.32.48-.336.48-.864a.93.93 0 0 0-.224-.608q-.209-.288-.816-.416l-1.92-.4q-1.168-.24-1.68-.8-.496-.561-.496-1.392 0-.657.368-1.2.384-.544 1.072-.864.703-.336 1.648-.336 1.184 0 2 .464.816.463 1.216 1.312l-1.072.704q-.273-.705-.88-1.024a2.6 2.6 0 0 0-1.264-.336q-.576 0-.992.16a1.44 1.44 0 0 0-.624.448 1 1 0 0 0-.208.624q0 .351.24.656.24.288.896.416l2 .416q1.12.223 1.568.736.448.512.448 1.248 0 .752-.4 1.328-.4.56-1.12.864t-1.664.304m7.445-10.432v8.064q0 .591.336.88.336.288.864.288.464 0 .8-.16t.608-.432l.448 1.072q-.367.336-.88.528-.495.192-1.152.192-.608 0-1.136-.208a1.93 1.93 0 0 1-.848-.688q-.303-.48-.32-1.248v-7.936zm2.912 2.272v1.104h-5.792v-1.104zm1.903 8v-8h1.04l.176 1.312q.337-.737.976-1.104.657-.368 1.584-.368.208 0 .448.032.256.032.432.128l-.224 1.168a2 2 0 0 0-.384-.096 4 4 0 0 0-.592-.032q-.495 0-1.008.288-.496.288-.832.88-.336.575-.336 1.472v4.32zm13.108-8-3.76 9.344q-.305.783-.672 1.232-.353.464-.8.656a2.3 2.3 0 0 1-1.008.208q-.544 0-1.008-.16a2.8 2.8 0 0 1-.8-.4l.352-1.12q.32.288.672.416.367.144.72.144.415 0 .784-.256.368-.257.672-1.04l.416-1.04-.8-1.904-2.544-6.08h1.456l2 5.216.496 1.424.576-1.584 1.872-5.056z"/></g><path fill="#6a717d" d="m531.907 222.165 6.512 6.129a1.666 1.666 0 0 0 2.284 0l6.513-6.129a.833.833 0 1 0-1.143-1.214l-6.512 6.129-6.512-6.129a.834.834 0 0 0-1.142 1.214"/><path fill="#232323" d="M34.883 283.091a4.3 4.3 0 0 1-.96 1.632 4.2 4.2 0 0 1-1.505.992 5.2 5.2 0 0 1-1.903.336q-1.521 0-2.64-.656a4.4 4.4 0 0 1-1.729-1.872q-.608-1.217-.608-2.912 0-1.697.608-2.912.609-1.216 1.729-1.872 1.119-.657 2.624-.656 1.04 0 1.872.288a3.8 3.8 0 0 1 1.44.864q.591.576.911 1.44l-1.616.72q-.32-.945-.928-1.376-.608-.448-1.583-.448-.977 0-1.712.464-.736.464-1.152 1.344-.4.88-.4 2.144 0 1.248.384 2.144.384.879 1.104 1.344.72.464 1.728.464.975 0 1.68-.496.719-.513 1.024-1.52zm5.417-5.36q1.168 0 2.064.496.895.495 1.392 1.44.512.927.512 2.224 0 1.296-.512 2.24a3.45 3.45 0 0 1-1.392 1.424q-.896.495-2.064.496-1.168 0-2.064-.496a3.55 3.55 0 0 1-1.408-1.424q-.512-.944-.512-2.24t.512-2.224q.511-.945 1.408-1.44.896-.496 2.064-.496m0 1.344q-.72 0-1.232.336-.496.32-.768.944t-.272 1.536q0 .895.272 1.536.271.624.768.96.512.32 1.232.32t1.216-.32q.496-.336.768-.96.272-.64.272-1.536 0-.912-.272-1.536-.271-.624-.768-.944-.495-.336-1.216-.336m6.122 6.816v-8h1.52l.08 1.344q.416-.768 1.104-1.136a3.16 3.16 0 0 1 1.488-.368q.864 0 1.584.4.735.384 1.104 1.168.255-.529.704-.88.448-.353.992-.512a3.5 3.5 0 0 1 1.072-.176q.768 0 1.44.32t1.088.976.416 1.68v5.184h-1.712v-4.912q0-.976-.464-1.408-.465-.432-1.184-.432-.56 0-1.04.272-.465.272-.752.816-.288.528-.288 1.312v4.352h-1.712v-4.912q0-.976-.464-1.408-.465-.432-1.184-.432-.48 0-.96.256-.48.255-.8.8-.32.543-.32 1.44v4.256zm15.187 3.36v-11.36h1.52l.128 2.24-.224-.272q.193-.624.592-1.104a2.8 2.8 0 0 1 .992-.752 3.2 3.2 0 0 1 1.328-.272 3.3 3.3 0 0 1 1.776.496q.8.495 1.264 1.424.465.912.464 2.224 0 1.311-.48 2.256-.465.927-1.28 1.424-.8.495-1.792.496-1.024 0-1.744-.528a3 3 0 0 1-1.024-1.376l.192-.272v5.376zm3.92-4.592q1.04 0 1.616-.736.592-.736.592-2.032t-.576-2.032q-.576-.752-1.6-.752-.671 0-1.184.352-.495.336-.784.96-.272.608-.272 1.472 0 .848.272 1.472.273.624.768.96t1.168.336m10.72-3.904q0-.8-.448-1.232-.432-.448-1.2-.448-.72 0-1.232.336-.512.335-.752 1.088l-1.44-.608a2.88 2.88 0 0 1 1.184-1.568q.895-.592 2.304-.592.96 0 1.696.32.735.304 1.152.928.432.624.432 1.6v3.568q0 .591.592.592.287 0 .56-.08L79 285.843q-.369.176-.928.176-.511 0-.928-.176a1.55 1.55 0 0 1-.64-.56q-.225-.384-.224-.944v-.112l.352-.016a2 2 0 0 1-.592 1.04 3.1 3.1 0 0 1-1.04.608 3.9 3.9 0 0 1-1.2.192q-.753 0-1.36-.24-.593-.24-.944-.72-.336-.496-.336-1.216 0-.897.576-1.472.593-.577 1.664-.784l3.104-.608-.016 1.2-2.256.464q-.672.128-1.008.368t-.336.704q0 .447.336.72.352.255.928.256.399 0 .768-.096a2.1 2.1 0 0 0 .688-.304q.304-.225.464-.56.176-.352.176-.832zm4.5 5.136v-8h1.52l.113 2.08-.224-.224q.224-.689.64-1.136.432-.465 1.008-.672.592-.208 1.248-.208.848 0 1.52.336.688.32 1.088.976t.4 1.664v5.184H86.35v-4.656q0-1.185-.496-1.632-.48-.464-1.216-.464-.529 0-1.024.256-.496.24-.832.784-.32.543-.32 1.456v4.256zm16.681-8-3.504 8.944q-.351.927-.768 1.472-.4.543-.928.784-.528.24-1.232.24-.576 0-1.072-.16a3 3 0 0 1-.848-.4l.416-1.328q.304.255.64.384.353.128.752.128.432 0 .768-.24.352-.225.624-.912l.352-.864-.848-1.984-2.496-6.064h1.92l1.776 5.024.464 1.504.528-1.648 1.68-4.88zm10.113-2.72q1.424 0 2.464.544 1.04.528 1.76 1.568l-1.152 1.104q-.608-.929-1.376-1.328-.752-.416-1.792-.416-.768 0-1.264.208-.496.207-.736.56-.224.336-.224.768 0 .495.336.864.352.368 1.296.576l2.144.48q1.536.336 2.176 1.024t.64 1.744q0 .975-.528 1.696-.528.72-1.472 1.104-.928.384-2.192.384-1.12 0-2.016-.288a5.4 5.4 0 0 1-1.568-.784 4.7 4.7 0 0 1-1.104-1.136l1.184-1.184q.336.56.848 1.008.512.432 1.184.672.688.24 1.52.24.736 0 1.264-.176.544-.177.816-.512.288-.352.288-.832 0-.465-.32-.816-.305-.352-1.152-.544l-2.32-.528q-.96-.208-1.584-.592t-.928-.928a2.6 2.6 0 0 1-.304-1.248q0-.897.48-1.616.496-.736 1.424-1.168.928-.448 2.208-.448m7.227 1.376q-.56 0-.864-.272-.288-.288-.288-.8 0-.513.288-.784.304-.273.864-.272.544 0 .832.272.304.271.304.784 0 .512-.304.8-.288.272-.832.272m.848 1.344v8h-1.712v-8zm2.167 8v-1.184l3.872-4.512.976-.992-1.392.032h-3.424v-1.344h6.704v1.184l-3.872 4.512-.96.992 1.52-.032h3.456v1.344zm12.391.16q-1.2 0-2.112-.496a3.5 3.5 0 0 1-1.424-1.424q-.496-.944-.496-2.24t.496-2.224q.512-.945 1.408-1.44.896-.496 2.032-.496 1.168 0 1.984.48t1.248 1.312.432 1.888q0 .288-.016.544t-.048.448h-6.432v-1.312h5.68l-.848.256q0-1.088-.544-1.664-.545-.592-1.488-.592-.689 0-1.2.32-.512.32-.784.96-.272.624-.272 1.536 0 .896.288 1.52t.816.944 1.248.32q.8 0 1.296-.304.496-.305.784-.848l1.36.64q-.288.576-.784 1.008-.48.415-1.152.64a4.6 4.6 0 0 1-1.472.224"/><path fill="#ee312a" d="m139.35 277.811 1.296 1.312 1.184 1.632-1.056.768-1.184-1.632-.848-1.632.304-.224zm-.608 0 .304.224.304.224-.848 1.632-1.168 1.632-1.056-.768 1.184-1.632zm-3.136-1.568 1.92.624 1.648.816-.128.352-.112.368-1.808-.32-1.904-.608zm4.112-2.032-.016 2.016-.272 1.808h-.769l-.255-1.808-.016-2.016zm2.784 2.032.383 1.232-1.903.608-1.808.32-.128-.368-.112-.352 1.648-.816z"/><rect width="542" height="55" x="25.063" y="296.391" fill="#fff" rx="5.5"/><rect width="542" height="55" x="25.063" y="296.391" stroke="#c3c9d3" rx="5.5"/><path fill="#98a2b3" d="M45.683 318.671q1.391 0 2.4.576 1.008.56 1.68 1.664l-1.072.832q-.592-1.024-1.345-1.44-.735-.432-1.791-.432-.849 0-1.408.24-.545.24-.8.64-.257.384-.257.88 0 .56.352.992.353.416 1.408.656l2.288.512q1.52.336 2.113 1.024.608.672.608 1.68 0 .895-.513 1.6-.496.688-1.407 1.072-.912.384-2.145.384-1.151 0-2.031-.304a5 5 0 0 1-1.488-.848 4.9 4.9 0 0 1-1.024-1.184l1.12-.912q.303.607.783 1.072.48.464 1.152.72.69.255 1.569.256.816 0 1.407-.192.608-.208.929-.592a1.5 1.5 0 0 0 .32-.96q0-.513-.337-.912-.336-.417-1.264-.624l-2.48-.56q-.975-.224-1.584-.608-.591-.4-.864-.928a2.7 2.7 0 0 1-.256-1.168q0-.849.465-1.552.48-.72 1.36-1.152.895-.432 2.111-.432m9.962 10.88q-1.137 0-2.033-.496a3.5 3.5 0 0 1-1.376-1.424q-.495-.944-.495-2.24t.495-2.224q.497-.945 1.36-1.44.865-.496 1.969-.496 1.119 0 1.904.48.8.48 1.215 1.312.416.816.416 1.84 0 .271-.016.496-.015.223-.048.4h-6.464v-1.136h5.904l-.655.128q0-1.152-.64-1.776-.624-.624-1.648-.624-.785 0-1.36.368-.56.351-.88 1.04-.304.672-.304 1.632 0 .944.32 1.632t.896 1.056q.592.351 1.407.352.88 0 1.424-.336.56-.336.896-.912l1.008.592a3.4 3.4 0 0 1-.783.944q-.465.399-1.104.624a4.5 4.5 0 0 1-1.408.208m7.106-11.84v9.648q0 .608.224.848.225.224.72.224.32 0 .528-.048t.56-.176l-.208 1.12q-.256.111-.56.16-.304.063-.624.064-.975 0-1.456-.528-.465-.528-.464-1.616v-9.696zm7.018 11.84q-1.135 0-2.032-.496a3.5 3.5 0 0 1-1.375-1.424q-.496-.944-.496-2.24t.496-2.224q.495-.945 1.36-1.44.864-.496 1.968-.496 1.118 0 1.904.48.8.48 1.216 1.312.415.816.415 1.84 0 .271-.015.496-.016.223-.048.4h-6.465v-1.136H72.6l-.656.128q0-1.152-.64-1.776-.624-.624-1.648-.624-.783 0-1.36.368-.56.351-.88 1.04-.303.672-.303 1.632 0 .944.32 1.632t.895 1.056q.593.351 1.409.352.879 0 1.424-.336.56-.336.895-.912l1.008.592a3.4 3.4 0 0 1-.784.944q-.464.399-1.104.624a4.5 4.5 0 0 1-1.408.208m9.203-8.32q.832 0 1.456.256.64.256 1.104.736t.752 1.136l-1.216.576q-.255-.768-.784-1.168-.513-.417-1.344-.416-.8 0-1.376.368-.576.351-.88 1.04-.304.672-.304 1.632 0 .944.304 1.632t.88 1.056q.576.351 1.376.352.624 0 1.072-.192.465-.192.752-.56.304-.368.416-.896l1.184.416q-.272.735-.752 1.264-.465.528-1.136.816-.656.272-1.504.272-1.12 0-2-.496a3.5 3.5 0 0 1-1.376-1.424q-.495-.944-.496-2.24 0-1.296.496-2.224.496-.945 1.376-1.44.88-.496 2-.496m7.529-2.112v8.064q0 .591.336.88.336.288.864.288.465 0 .8-.16.336-.16.608-.432l.448 1.072q-.368.336-.88.528a3.2 3.2 0 0 1-1.152.192q-.608 0-1.136-.208a1.93 1.93 0 0 1-.848-.688q-.305-.48-.32-1.248v-7.936zm2.912 2.272v1.104H83.62v-1.104zm10.236 8.16a4.8 4.8 0 0 1-2.16-.496 3.56 3.56 0 0 1-1.504-1.408l1.088-.784q.352.735 1.024 1.152.688.416 1.648.416.849 0 1.328-.32.48-.336.48-.864a.93.93 0 0 0-.224-.608q-.207-.288-.816-.416l-1.92-.4q-1.167-.24-1.68-.8-.495-.561-.496-1.392 0-.657.368-1.2.385-.545 1.072-.864.705-.336 1.648-.336 1.185 0 2 .464.817.463 1.216 1.312l-1.072.704q-.271-.705-.88-1.024a2.6 2.6 0 0 0-1.264-.336q-.575 0-.992.16a1.45 1.45 0 0 0-.624.448 1 1 0 0 0-.208.624q0 .351.24.656.24.287.896.416l2 .416q1.12.223 1.568.736.448.511.448 1.248 0 .752-.4 1.328-.4.56-1.12.864t-1.664.304m6.198-9.696q-.432 0-.704-.256-.256-.272-.256-.704 0-.433.256-.688.272-.272.704-.272t.688.272q.272.255.272.688a.96.96 0 0 1-.272.704q-.256.255-.688.256m.64 1.536v8h-1.28v-8zm2.394 8v-.976l4.192-4.912 1.008-1.04-1.424.032h-3.728v-1.104h6.576v.976l-4.192 4.912-.992 1.04 1.552-.032h3.76v1.104zm12.342.16q-1.137 0-2.032-.496a3.47 3.47 0 0 1-1.376-1.424q-.496-.944-.496-2.24t.496-2.224a3.47 3.47 0 0 1 1.36-1.44q.864-.496 1.968-.496 1.12 0 1.904.48.8.48 1.216 1.312.416.816.416 1.84 0 .271-.016.496a4 4 0 0 1-.048.4h-6.464v-1.136h5.904l-.656.128q0-1.152-.64-1.776-.624-.624-1.648-.624-.784 0-1.36.368-.56.351-.88 1.04-.304.672-.304 1.632 0 .944.32 1.632t.896 1.056q.592.351 1.408.352.88 0 1.424-.336.56-.336.896-.912l1.008.592a3.4 3.4 0 0 1-.784.944q-.465.399-1.104.624a4.5 4.5 0 0 1-1.408.208"/><path fill="#6a717d" d="m531.907 321.165 6.512 6.129a1.666 1.666 0 0 0 2.284 0l6.513-6.129a.833.833 0 1 0-1.143-1.214l-6.512 6.129-6.512-6.129a.834.834 0 0 0-1.142 1.214"/><path fill="#232323" d="M34.883 382.091a4.3 4.3 0 0 1-.96 1.632 4.2 4.2 0 0 1-1.505.992 5.2 5.2 0 0 1-1.903.336q-1.521 0-2.64-.656a4.4 4.4 0 0 1-1.729-1.872q-.608-1.217-.608-2.912 0-1.697.608-2.912.609-1.216 1.729-1.872 1.119-.657 2.624-.656 1.04 0 1.872.288a3.8 3.8 0 0 1 1.44.864q.591.576.911 1.44l-1.616.72q-.32-.945-.928-1.376-.608-.448-1.583-.448-.977 0-1.712.464-.736.464-1.152 1.344-.4.88-.4 2.144 0 1.248.384 2.144.384.879 1.104 1.344.72.464 1.728.464.975 0 1.68-.496.719-.512 1.024-1.52zm5.417-5.36q1.168 0 2.064.496.895.495 1.392 1.44.512.928.512 2.224 0 1.295-.512 2.24a3.45 3.45 0 0 1-1.392 1.424q-.896.495-2.064.496-1.168 0-2.064-.496a3.55 3.55 0 0 1-1.408-1.424q-.512-.945-.512-2.24t.512-2.224q.511-.945 1.408-1.44.896-.496 2.064-.496m0 1.344q-.72 0-1.232.336-.496.32-.768.944t-.272 1.536q0 .895.272 1.536.271.624.768.96.512.32 1.232.32t1.216-.32q.496-.336.768-.96.272-.64.272-1.536 0-.912-.272-1.536-.271-.624-.768-.944-.495-.336-1.216-.336m8.97 6.976a3.7 3.7 0 0 1-1.456-.288 2.34 2.34 0 0 1-1.056-.928q-.4-.64-.4-1.664v-5.28h1.712v4.848q0 1.087.464 1.504.464.4 1.296.4.399 0 .768-.128.384-.144.688-.432.303-.305.464-.768.176-.465.176-1.088v-4.336h1.712v8h-1.504l-.08-1.296q-.416.752-1.12 1.104-.704.351-1.664.352m7.042-.16v-8h1.52l.112 2.08-.224-.224q.225-.689.64-1.136.432-.465 1.008-.672.593-.208 1.248-.208.849 0 1.52.336.689.32 1.088.976t.4 1.664v5.184h-1.712v-4.656q0-1.185-.496-1.632-.48-.465-1.216-.464-.528 0-1.024.256-.495.24-.832.784-.32.543-.32 1.456v4.256zm12.149-10.352v7.952q0 .591.304.864.32.272.848.272.431 0 .752-.128a2.4 2.4 0 0 0 .592-.384l.384 1.248q-.368.32-.912.512a3.7 3.7 0 0 1-1.184.176q-.688 0-1.264-.224a1.83 1.83 0 0 1-.896-.72q-.32-.512-.336-1.328v-7.76zm2.752 2.352v1.344h-6v-1.344zm1.693 8v-8h1.456l.16 1.44q.32-.785.944-1.184.64-.416 1.568-.416.24 0 .48.048.24.031.4.112l-.24 1.504a2 2 0 0 0-.4-.096 2.7 2.7 0 0 0-.576-.048q-.496 0-.976.272a2.1 2.1 0 0 0-.8.784q-.304.528-.304 1.344v4.24zm13.65-8-3.505 8.944q-.351.927-.768 1.472-.4.543-.928.784-.528.24-1.232.24-.576 0-1.072-.16a3 3 0 0 1-.848-.4l.416-1.328q.304.255.64.384.353.128.752.128.432 0 .768-.24.352-.225.624-.912l.352-.864-.848-1.984-2.496-6.064h1.92l1.776 5.024.464 1.504.528-1.648 1.68-4.88z"/><path fill="#ee312a" d="m91.6 376.811 1.296 1.312 1.183 1.632-1.055.768-1.184-1.632-.849-1.632.305-.224zm-.608 0 .303.224.305.224-.849 1.632-1.168 1.632-1.055-.768 1.183-1.632zm-3.136-1.568 1.92.624 1.648.816-.129.352-.112.368-1.808-.32-1.903-.608zm4.112-2.032-.017 2.016-.271 1.808h-.768l-.257-1.808-.016-2.016zm2.783 2.032.384 1.232-1.904.608-1.807.32-.129-.368-.112-.352 1.648-.816z"/><rect width="542" height="55" x="25.063" y="395.391" fill="#fff" rx="5.5"/><rect width="542" height="55" x="25.063" y="395.391" stroke="#c3c9d3" rx="5.5"/><path fill="#98a2b3" d="M45.683 417.671q1.391 0 2.4.576 1.008.56 1.68 1.664l-1.072.832q-.592-1.024-1.345-1.44-.735-.432-1.791-.432-.849 0-1.408.24-.545.24-.8.64-.257.384-.257.88 0 .56.352.992.353.416 1.408.656l2.288.512q1.52.336 2.113 1.024.608.672.608 1.68 0 .895-.513 1.6-.496.688-1.407 1.072-.912.384-2.145.384-1.151 0-2.031-.304a5 5 0 0 1-1.488-.848 4.9 4.9 0 0 1-1.024-1.184l1.12-.912q.303.607.783 1.072.48.464 1.152.72.69.255 1.569.256.816 0 1.407-.192.608-.208.929-.592a1.5 1.5 0 0 0 .32-.96q0-.513-.337-.912-.336-.417-1.264-.624l-2.48-.56q-.975-.224-1.584-.608-.591-.4-.864-.928a2.7 2.7 0 0 1-.256-1.168q0-.849.465-1.552.48-.72 1.36-1.152.895-.432 2.111-.432m9.962 10.88q-1.137 0-2.033-.496a3.5 3.5 0 0 1-1.376-1.424q-.495-.945-.495-2.24t.495-2.224q.497-.945 1.36-1.44.865-.496 1.969-.496 1.119 0 1.904.48.8.48 1.215 1.312.416.816.416 1.84 0 .271-.016.496-.015.223-.048.4h-6.464v-1.136h5.904l-.655.128q0-1.152-.64-1.776-.624-.624-1.648-.624-.785 0-1.36.368-.56.351-.88 1.04-.304.672-.304 1.632 0 .944.32 1.632t.896 1.056q.592.351 1.407.352.88 0 1.424-.336.56-.336.896-.912l1.008.592a3.4 3.4 0 0 1-.783.944q-.465.399-1.104.624a4.5 4.5 0 0 1-1.408.208m7.106-11.84v9.648q0 .608.224.848.225.224.72.224.32 0 .528-.048t.56-.176l-.208 1.12q-.256.111-.56.16-.304.064-.624.064-.975 0-1.456-.528-.465-.528-.464-1.616v-9.696zm7.018 11.84q-1.135 0-2.032-.496a3.5 3.5 0 0 1-1.375-1.424q-.496-.945-.496-2.24t.496-2.224q.495-.945 1.36-1.44.864-.496 1.968-.496 1.118 0 1.904.48.8.48 1.216 1.312.415.816.415 1.84 0 .271-.015.496-.016.223-.048.4h-6.465v-1.136H72.6l-.656.128q0-1.152-.64-1.776-.624-.624-1.648-.624-.783 0-1.36.368-.56.351-.88 1.04-.303.672-.303 1.632 0 .944.32 1.632t.895 1.056q.593.351 1.409.352.879 0 1.424-.336.56-.336.895-.912l1.008.592a3.4 3.4 0 0 1-.784.944q-.464.399-1.104.624a4.5 4.5 0 0 1-1.408.208m9.203-8.32q.832 0 1.456.256.64.255 1.104.736.465.48.752 1.136l-1.216.576q-.255-.768-.784-1.168-.513-.417-1.344-.416-.8 0-1.376.368-.576.351-.88 1.04-.304.672-.304 1.632 0 .944.304 1.632t.88 1.056q.576.351 1.376.352.624 0 1.072-.192.465-.192.752-.56.304-.368.416-.896l1.184.416q-.272.736-.752 1.264-.465.528-1.136.816-.656.272-1.504.272-1.12 0-2-.496a3.5 3.5 0 0 1-1.376-1.424q-.495-.945-.496-2.24 0-1.296.496-2.224.496-.945 1.376-1.44.88-.496 2-.496m7.529-2.112v8.064q0 .591.336.88.336.288.864.288.465 0 .8-.16.336-.16.608-.432l.448 1.072q-.368.336-.88.528a3.2 3.2 0 0 1-1.152.192q-.608 0-1.136-.208a1.93 1.93 0 0 1-.848-.688q-.305-.48-.32-1.248v-7.936zm2.912 2.272v1.104H83.62v-1.104zm10.668-.16q.832 0 1.456.256.64.255 1.104.736.465.48.752 1.136l-1.216.576q-.255-.768-.784-1.168-.511-.417-1.344-.416-.8 0-1.376.368-.576.351-.88 1.04-.303.672-.304 1.632 0 .944.304 1.632t.88 1.056q.576.351 1.376.352.624 0 1.072-.192.465-.192.752-.56a2.04 2.04 0 0 0 .416-.896l1.184.416q-.272.736-.752 1.264a3.1 3.1 0 0 1-1.136.816q-.655.272-1.504.272-1.12 0-2-.496a3.5 3.5 0 0 1-1.376-1.424q-.495-.945-.496-2.24 0-1.296.496-2.224.496-.945 1.376-1.44.88-.496 2-.496m8.953 0q1.136 0 2 .496.88.495 1.376 1.44.496.928.496 2.224 0 1.295-.496 2.24a3.47 3.47 0 0 1-1.376 1.424q-.864.495-2 .496-1.12 0-2-.496a3.5 3.5 0 0 1-1.376-1.424q-.496-.945-.496-2.24t.496-2.224a3.45 3.45 0 0 1 1.376-1.44q.88-.496 2-.496m0 1.104q-.816 0-1.392.368-.575.368-.896 1.056-.303.672-.304 1.632 0 .944.304 1.632.32.687.896 1.056.576.368 1.392.368t1.392-.368q.577-.369.88-1.056.32-.688.32-1.632 0-.96-.32-1.632a2.33 2.33 0 0 0-.88-1.056q-.576-.368-1.392-.368m9.178 7.216q-.768 0-1.456-.288a2.5 2.5 0 0 1-1.104-.928q-.416-.657-.416-1.696v-5.248h1.28v4.912q0 1.215.528 1.68.528.447 1.488.448.448 0 .88-.144.432-.16.768-.48.352-.336.544-.848.208-.513.208-1.216v-4.352h1.28v8h-1.12l-.08-1.216q-.416.72-1.136 1.056-.704.32-1.664.32m6.979-.16v-8h1.12l.112 1.792-.208-.176q.256-.64.688-1.024.432-.4.992-.576a4 4 0 0 1 1.184-.176q.864 0 1.568.336.704.32 1.12.992.432.671.432 1.712v5.12h-1.28v-4.672q0-1.329-.576-1.84-.56-.528-1.392-.528-.576 0-1.152.272-.576.271-.96.88-.368.608-.368 1.632v4.256zm11.685-10.272v8.064q0 .591.336.88.336.288.864.288.464 0 .8-.16t.608-.432l.448 1.072q-.368.336-.88.528a3.2 3.2 0 0 1-1.152.192q-.608 0-1.136-.208a1.9 1.9 0 0 1-.848-.688q-.304-.48-.32-1.248v-7.936zm2.912 2.272v1.104h-5.792v-1.104zm1.903 8v-8h1.04l.176 1.312q.336-.736.976-1.104.655-.368 1.584-.368.208 0 .448.032.256.032.432.128l-.224 1.168a2 2 0 0 0-.384-.096 4 4 0 0 0-.592-.032q-.497 0-1.008.288-.496.288-.832.88-.336.576-.336 1.472v4.32zm13.107-8-3.76 9.344q-.303.783-.672 1.232-.351.464-.8.656a2.3 2.3 0 0 1-1.008.208q-.543 0-1.008-.16a2.8 2.8 0 0 1-.8-.4l.352-1.12q.321.287.672.416.369.144.72.144.417 0 .784-.256.369-.257.672-1.04l.416-1.04-.8-1.904-2.544-6.08h1.456l2 5.216.496 1.424.576-1.584 1.872-5.056z"/><path fill="#6a717d" d="m535.907 420.165 6.512 6.129a1.666 1.666 0 0 0 2.284 0l6.513-6.129a.833.833 0 1 0-1.143-1.214l-6.512 6.129-6.512-6.129a.834.834 0 0 0-1.142 1.214"/></g><defs><clipPath id="clip0_8061_109"><rect width="311" height="23" fill="#fff" transform="translate(40.563 213.391)"/></clipPath><filter id="filter0_d_8061_109" width="591.092" height="493.139" x=".001" y="0" color-interpolation-filters="sRGB" filterUnits="userSpaceOnUse"><feFlood flood-opacity="0" result="BackgroundImageFix"/><feColorMatrix in="SourceAlpha" result="hardAlpha" values="0 0 0 0 0 0 0 0 0 0 0 0 0 0 0 0 0 0 127 0"/><feMorphology in="SourceAlpha" radius="3.046" result="effect1_dropShadow_8061_109"/><feOffset dy="6.092"/><feGaussianBlur stdDeviation="3.046"/><feColorMatrix values="0 0 0 0 0.0627451 0 0 0 0 0.0941176 0 0 0 0 0.156863 0 0 0 0.03 0"/><feBlend in2="BackgroundImageFix" result="effect1_dropShadow_8061_109"/><feBlend in="SourceGraphic" in2="effect1_dropShadow_8061_109" result="shape"/></filter></defs></svg>