<svg xmlns="http://www.w3.org/2000/svg" fill="none" viewBox="0 0 428 356"><g filter="url(#filter0_dd_6028_34820)"><g clip-path="url(#clip0_6028_34820)"><rect width="401" height="329" x="13.305" fill="#fff" rx="12"/><path fill="#232323" d="M30.48 20.415q.874 0 1.513.334.639.324 1.081.963l-.707.678q-.374-.57-.846-.816-.462-.255-1.1-.255-.473 0-.777.128a1 1 0 0 0-.452.344.83.83 0 0 0-.138.471q0 .305.207.531.216.226.796.354l1.317.295q.943.207 1.337.629.393.423.393 1.071 0 .6-.325 1.042-.324.442-.904.678-.57.237-1.346.236a4 4 0 0 1-1.239-.177 3.3 3.3 0 0 1-.963-.481 2.9 2.9 0 0 1-.678-.698l.727-.727q.206.343.521.619.315.265.727.413.423.147.934.147.452 0 .776-.108.334-.108.502-.315a.78.78 0 0 0 .177-.51.72.72 0 0 0-.197-.502q-.186-.216-.708-.334l-1.425-.325q-.59-.127-.973-.363a1.6 1.6 0 0 1-.57-.57 1.6 1.6 0 0 1-.187-.767q0-.55.295-.993.305-.451.875-.717.57-.276 1.356-.275m6.109 6.683q-.737 0-1.297-.304a2.16 2.16 0 0 1-.875-.875q-.305-.58-.305-1.376t.305-1.366q.315-.58.865-.885a2.53 2.53 0 0 1 1.248-.305q.718 0 1.219.295t.767.806q.264.51.265 1.16 0 .177-.01.334a3 3 0 0 1-.03.275h-3.95v-.806h3.489l-.521.158q0-.669-.334-1.023-.334-.363-.915-.363-.422 0-.737.196-.315.197-.481.59-.168.384-.168.944 0 .55.177.933.177.384.502.58.325.197.766.197.492 0 .796-.187.305-.186.482-.52l.836.392a2 2 0 0 1-.482.62q-.295.254-.708.393a2.9 2.9 0 0 1-.904.137m4.542-7.224v5.75q0 .364.128.501.127.138.423.138.176 0 .294-.02.128-.03.315-.098l-.118.786a1.6 1.6 0 0 1-.383.118q-.217.05-.433.05-.658 0-.973-.335-.304-.344-.304-1.052v-5.838zm4.202 7.224q-.737 0-1.297-.304a2.16 2.16 0 0 1-.875-.875q-.305-.58-.305-1.376t.305-1.366q.315-.58.865-.885a2.53 2.53 0 0 1 1.248-.305q.718 0 1.219.295t.767.806q.265.51.265 1.16 0 .177-.01.334a3 3 0 0 1-.03.275h-3.95v-.806h3.489l-.521.158q0-.669-.334-1.023-.335-.363-.914-.363-.423 0-.738.196-.315.197-.481.59-.167.384-.167.944 0 .55.177.933.177.384.5.58.325.197.768.197.491 0 .796-.187.304-.186.481-.52l.836.392a2 2 0 0 1-.482.62q-.294.254-.708.393a2.9 2.9 0 0 1-.904.137m5.643-5.11q.59 0 1.003.176.423.167.707.482.286.315.433.717l-.993.393q-.128-.45-.413-.687-.275-.246-.727-.246-.442 0-.757.206-.315.197-.481.58-.158.384-.158.944 0 .55.167.933.168.384.482.58.315.197.747.197.334 0 .58-.108a1.1 1.1 0 0 0 .403-.325q.167-.216.226-.52l.953.324a2.1 2.1 0 0 1-.432.776q-.286.325-.718.511-.432.177-.992.177-.727 0-1.288-.304a2.16 2.16 0 0 1-.875-.875q-.304-.58-.304-1.376t.304-1.366q.315-.58.865-.885a2.6 2.6 0 0 1 1.268-.305m4.831-1.347v4.885q0 .363.187.53.197.168.521.168.265 0 .462-.08.196-.088.364-.235l.236.767q-.227.196-.56.314a2.3 2.3 0 0 1-.728.108q-.422 0-.777-.137a1.12 1.12 0 0 1-.55-.443q-.197-.315-.206-.815v-4.767zm1.69 1.445v.825h-3.685v-.825zm5.436 4.01h3.578V27h-4.63v-6.487h1.052zm6.732 1.002q-.737 0-1.297-.304a2.16 2.16 0 0 1-.875-.875q-.305-.58-.305-1.376t.305-1.366q.315-.58.865-.885a2.53 2.53 0 0 1 1.248-.305q.718 0 1.22.295.5.295.766.806.265.51.265 1.16 0 .177-.01.334a3 3 0 0 1-.03.275h-3.95v-.806h3.489l-.521.158q0-.669-.334-1.023-.335-.363-.914-.363-.423 0-.737.196-.314.197-.482.59-.167.384-.167.944 0 .55.177.933.177.384.501.58.324.197.767.197.491 0 .796-.187.304-.186.481-.52l.836.392a2 2 0 0 1-.482.62q-.294.254-.707.393a2.9 2.9 0 0 1-.905.137m6.36-3.253q0-.492-.274-.757-.266-.275-.738-.275-.442 0-.756.206-.315.206-.462.669l-.885-.374q.186-.6.727-.963.551-.363 1.416-.364.59 0 1.042.197.452.186.707.57.266.383.266.983v2.192q0 .363.363.363.177 0 .344-.049l-.059.728a1.3 1.3 0 0 1-.57.108q-.315 0-.57-.108a.95.95 0 0 1-.393-.344 1.13 1.13 0 0 1-.138-.58v-.07l.217-.009q-.089.383-.364.639a1.9 1.9 0 0 1-.639.373 2.4 2.4 0 0 1-.737.118 2.3 2.3 0 0 1-.836-.147 1.3 1.3 0 0 1-.58-.442 1.3 1.3 0 0 1-.206-.747q0-.55.354-.905.363-.354 1.022-.481l1.907-.374-.01.737-1.386.285q-.412.08-.619.226a.5.5 0 0 0-.206.433q0 .274.206.442.216.157.57.157.246 0 .472-.058.236-.06.423-.187a.9.9 0 0 0 .285-.344q.108-.216.108-.511zm5.827-1.76h1.1L80.998 27h-1.15l-1.966-4.914h1.15l1.395 4zm4.13 5.013q-.736 0-1.297-.304a2.16 2.16 0 0 1-.874-.875q-.305-.58-.305-1.376t.305-1.366q.314-.58.864-.885a2.53 2.53 0 0 1 1.249-.305q.717 0 1.218.295.502.295.767.806.265.51.265 1.16 0 .177-.01.334a3 3 0 0 1-.029.275h-3.951v-.806h3.49l-.522.158q0-.669-.334-1.023-.334-.363-.914-.363-.422 0-.737.196-.315.197-.482.59-.167.384-.167.944 0 .55.177.933.177.384.501.58.325.197.767.197.492 0 .796-.187.305-.186.482-.52l.835.392a2 2 0 0 1-.481.62q-.296.254-.708.393a2.9 2.9 0 0 1-.904.137m11.45-6.585v.904h-2.221V27h-1.052v-5.583h-2.221v-.904zm4.688 1.573-2.152 5.494q-.217.57-.472.904a1.46 1.46 0 0 1-.57.482 1.8 1.8 0 0 1-.757.147q-.353 0-.659-.098a1.8 1.8 0 0 1-.52-.246l.255-.816q.188.158.393.236.216.08.462.079.265 0 .472-.148.216-.137.383-.56l.216-.53-.52-1.22-1.534-3.724h1.18l1.09 3.086.286.924.324-1.013 1.032-2.997zm.897 6.978v-6.978h.934l.079 1.376-.138-.168q.118-.383.364-.678.246-.294.609-.462.374-.167.816-.167.6 0 1.091.305.492.305.776.875.285.56.285 1.366t-.294 1.386q-.285.57-.787.875a2.04 2.04 0 0 1-1.101.304q-.628 0-1.071-.324a1.83 1.83 0 0 1-.629-.845l.118-.167v3.302zm2.408-2.82q.639 0 .993-.453.363-.451.364-1.248 0-.796-.354-1.248-.354-.462-.983-.462a1.25 1.25 0 0 0-.727.216 1.4 1.4 0 0 0-.482.59q-.167.373-.167.904 0 .521.167.904.167.384.472.59t.717.206m5.917.854q-.738 0-1.298-.304a2.16 2.16 0 0 1-.874-.875q-.305-.58-.305-1.376t.305-1.366a2.16 2.16 0 0 1 .865-.885 2.53 2.53 0 0 1 1.248-.305q.717 0 1.219.295.5.295.766.806.266.51.266 1.16 0 .177-.01.334a3 3 0 0 1-.03.275h-3.951v-.806h3.489l-.521.158q0-.669-.334-1.023-.334-.363-.914-.363-.422 0-.737.196-.315.197-.482.59-.167.384-.167.944 0 .55.177.933.177.384.502.58.324.197.766.197.492 0 .796-.187.305-.186.482-.52l.835.392a2 2 0 0 1-.481.62 2.1 2.1 0 0 1-.708.393 2.9 2.9 0 0 1-.904.137"/><path fill="#ee312a" d="m116.977 22.036.796.806.728 1.003-.649.472-.728-1.003-.52-1.002.186-.138zm-.373 0 .186.138.187.138-.521 1.002-.717 1.003-.649-.472.727-1.003zm-1.927-.963 1.18.383 1.012.502-.079.216-.069.226-1.11-.197-1.17-.373zm2.526-1.248-.01 1.238-.167 1.111h-.472l-.157-1.11-.01-1.239zm1.71 1.248.236.757-1.169.373-1.111.197-.079-.226-.069-.216 1.013-.502z"/><rect width="373.495" height="33.787" x="27.612" y="33.764" fill="#fff" rx="3.379"/><rect width="373.495" height="33.787" x="27.612" y="33.764" stroke="#c3c9d3" stroke-width=".614" rx="3.379"/><path fill="#232323" d="M40.278 47.073q.855 0 1.474.354.62.344 1.032 1.022l-.658.511q-.364-.63-.826-.885-.452-.265-1.1-.265-.522 0-.866.148-.333.147-.491.393a.95.95 0 0 0-.157.54q0 .345.216.61.216.255.865.403l1.405.314q.934.206 1.298.63.373.411.373 1.031 0 .55-.314.983-.305.422-.865.659-.561.236-1.317.236-.708 0-1.248-.187a3 3 0 0 1-.914-.521 3 3 0 0 1-.63-.727l.688-.56q.187.373.482.658.296.285.708.442.423.157.963.157.502 0 .865-.118.373-.127.57-.363a.9.9 0 0 0 .197-.59.85.85 0 0 0-.207-.56q-.206-.255-.776-.384l-1.524-.344q-.6-.137-.973-.373a1.56 1.56 0 0 1-.53-.57 1.7 1.7 0 0 1-.158-.718q0-.52.285-.953.295-.442.836-.708.55-.265 1.297-.265m4.41.727a.6.6 0 0 1-.432-.157.6.6 0 0 1-.157-.432.57.57 0 0 1 .157-.423.6.6 0 0 1 .433-.167q.265 0 .422.167a.55.55 0 0 1 .167.423.6.6 0 0 1-.167.432.57.57 0 0 1-.422.157m.394.944v4.914h-.787v-4.914zm3.859-.099q.51 0 .894.158.393.157.678.452t.462.698l-.747.354q-.157-.472-.481-.718-.315-.255-.826-.255-.491 0-.845.226a1.37 1.37 0 0 0-.54.639q-.187.413-.187 1.002 0 .58.186 1.002.187.422.54.65.355.215.846.215.384 0 .659-.117.285-.12.462-.345.187-.225.255-.55l.728.256a2.4 2.4 0 0 1-.462.776q-.285.324-.698.501a2.4 2.4 0 0 1-.924.168q-.688 0-1.229-.305a2.13 2.13 0 0 1-.845-.875q-.305-.58-.305-1.376t.305-1.366a2.1 2.1 0 0 1 .845-.885q.54-.305 1.229-.305m7.78.099-2.123 2.123-.187.187-1.612 1.611v-.982l2.93-2.94zm-3.528-2.26v7.174h-.787v-7.175zm1.474 3.98 2.172 3.194h-.953l-1.878-2.752zm7.379 2.457h3.715v.737H61.26v-6.487h.787zm6.85.836q-.697 0-1.248-.305a2.13 2.13 0 0 1-.845-.875q-.305-.58-.305-1.376t.305-1.366q.305-.58.835-.885a2.4 2.4 0 0 1 1.21-.305q.687 0 1.169.295.492.296.747.806.255.501.255 1.13 0 .168-.01.305a2 2 0 0 1-.029.246h-3.97v-.698h3.626l-.403.079q0-.708-.393-1.091-.383-.384-1.012-.383-.482 0-.836.226-.345.216-.54.639-.187.413-.187 1.002 0 .58.197 1.002.195.422.55.65.363.215.865.215.54 0 .875-.206.343-.206.55-.56l.62.364a2 2 0 0 1-.482.58q-.285.245-.679.383a2.7 2.7 0 0 1-.864.128m6.489-3.273q0-.551-.295-.846-.295-.304-.835-.304-.512 0-.865.226-.354.216-.521.707l-.64-.393q.198-.55.728-.885.531-.343 1.317-.343.53 0 .964.186.432.178.678.55.255.365.255.944v2.379q0 .354.374.354.186 0 .364-.05l-.04.62a1.15 1.15 0 0 1-.511.098q-.285 0-.511-.108a.8.8 0 0 1-.354-.325 1.1 1.1 0 0 1-.128-.56v-.098l.197.03a1.33 1.33 0 0 1-.403.629q-.285.236-.639.353a2.4 2.4 0 0 1-.698.108q-.432 0-.806-.147a1.37 1.37 0 0 1-.6-.442 1.26 1.26 0 0 1-.216-.747q0-.551.364-.904.374-.364 1.032-.492l1.946-.383v.648l-1.582.325q-.481.098-.718.275a.58.58 0 0 0-.236.491q0 .305.236.502.246.187.688.187.285 0 .54-.07.266-.078.473-.225.206-.157.324-.384.118-.235.118-.55zm5.787-1.74H82l-2.044 4.914h-.787l-2.044-4.914h.894l1.553 4.118zm3.907 5.013q-.697 0-1.248-.305a2.13 2.13 0 0 1-.845-.875q-.305-.58-.305-1.376t.305-1.366q.305-.58.835-.885a2.4 2.4 0 0 1 1.21-.305q.687 0 1.169.295.492.296.747.806.255.501.255 1.13 0 .168-.01.305a2 2 0 0 1-.029.246h-3.97v-.698h3.626l-.403.079q0-.708-.393-1.091-.383-.384-1.012-.383-.482 0-.836.226-.345.216-.54.639-.187.413-.187 1.002 0 .58.197 1.002.195.422.55.65.363.215.865.215.54 0 .875-.206.343-.206.55-.56l.62.364a2 2 0 0 1-.482.58q-.285.245-.679.383a2.7 2.7 0 0 1-.865.128"/><path stroke="#292d32" stroke-linecap="round" stroke-linejoin="round" stroke-miterlimit="10" stroke-width=".921" d="m387.656 49.096-3.338 3.337a1.016 1.016 0 0 1-1.433 0l-3.338-3.337"/><rect width="374.11" height="36.858" x="27.305" y="78.301" fill="#fcf5e8" rx="3.686"/><path fill="#a06a10" d="m43.32 93.179-2.319 3.951v2.536h-.786V97.13l-2.32-3.951h.934l1.258 2.221.52.924.522-.924 1.258-2.221zm2.34 1.474q.698 0 1.229.305.54.304.845.885.304.57.304 1.366t-.304 1.376q-.305.57-.846.875a2.4 2.4 0 0 1-1.228.304q-.688 0-1.229-.304a2.13 2.13 0 0 1-.845-.875q-.305-.58-.305-1.376t.305-1.366a2.1 2.1 0 0 1 .845-.885q.54-.305 1.229-.305m0 .678q-.502 0-.855.227-.355.225-.55.648-.187.413-.187 1.003 0 .579.186 1.002.198.423.55.65.355.225.856.225.502 0 .855-.226.354-.226.54-.649.197-.422.197-1.002 0-.59-.196-1.003a1.43 1.43 0 0 0-.541-.648q-.353-.227-.855-.227m5.638 4.433q-.472 0-.895-.177a1.54 1.54 0 0 1-.678-.57q-.255-.403-.255-1.041v-3.224h.786v3.017q0 .747.324 1.032.325.276.914.275.276 0 .541-.088.265-.099.472-.295.216-.207.334-.521a2 2 0 0 0 .128-.747v-2.673h.786v4.914h-.688l-.05-.747a1.55 1.55 0 0 1-.697.649 2.45 2.45 0 0 1-1.022.196m7.637-.098v-7.175h.786v2.998q.256-.442.678-.64.423-.195.924-.196.531 0 .963.207.433.196.689.61.265.412.265 1.05v3.146h-.786v-2.87q0-.815-.354-1.13a1.2 1.2 0 0 0-.855-.325q-.354 0-.708.167a1.4 1.4 0 0 0-.59.55q-.225.375-.226 1.003v2.605zm8.955-3.175q0-.55-.294-.845-.296-.305-.836-.305-.51 0-.865.226-.354.217-.52.708l-.64-.393q.197-.55.728-.885.531-.344 1.317-.344.53 0 .963.187.432.177.678.55.256.364.256.944v2.379q0 .354.373.354.187 0 .364-.05l-.04.62a1.14 1.14 0 0 1-.51.098q-.285 0-.512-.108a.8.8 0 0 1-.353-.325 1.1 1.1 0 0 1-.128-.56v-.098l.196.03a1.33 1.33 0 0 1-.403.628 2 2 0 0 1-.639.354 2.4 2.4 0 0 1-.697.108q-.433 0-.806-.147a1.37 1.37 0 0 1-.6-.442 1.26 1.26 0 0 1-.216-.747q0-.55.364-.905.374-.363 1.032-.491l1.946-.383v.648l-1.583.325q-.48.098-.717.275a.58.58 0 0 0-.236.491q0 .305.236.501.245.187.688.187.285 0 .54-.069.266-.078.472-.226.207-.156.324-.383.118-.235.118-.55zm5.788-1.74h.825l-2.044 4.915h-.787l-2.044-4.914h.895l1.553 4.118zm3.907 5.013q-.697 0-1.248-.304a2.13 2.13 0 0 1-.846-.875q-.304-.58-.304-1.376t.304-1.366a2.14 2.14 0 0 1 .836-.885 2.4 2.4 0 0 1 1.209-.305q.687 0 1.17.295.49.295.746.806.256.501.256 1.13 0 .168-.01.305a2 2 0 0 1-.03.246h-3.97v-.698h3.627l-.403.079q0-.708-.394-1.091-.383-.384-1.012-.384-.482 0-.835.226-.345.217-.541.64-.186.412-.187 1.002 0 .579.197 1.002.195.423.55.65.364.215.865.215.54 0 .875-.206.345-.207.55-.56l.62.363a2 2 0 0 1-.482.58q-.285.246-.678.383a2.7 2.7 0 0 1-.865.128m9.838-3.273q0-.55-.295-.845-.295-.305-.835-.305-.511 0-.865.226-.354.217-.521.708l-.639-.393q.197-.55.728-.885.53-.344 1.317-.344.53 0 .963.187.432.177.678.55.255.364.256.944v2.379q0 .354.373.354.186 0 .364-.05l-.04.62a1.14 1.14 0 0 1-.51.098q-.285 0-.512-.108a.8.8 0 0 1-.354-.325 1.1 1.1 0 0 1-.127-.56v-.098l.196.03a1.3 1.3 0 0 1-.403.628 2 2 0 0 1-.639.354 2.4 2.4 0 0 1-.698.108q-.432 0-.805-.147a1.37 1.37 0 0 1-.6-.442 1.26 1.26 0 0 1-.216-.747q0-.55.363-.905.374-.363 1.032-.491l1.947-.383v.648l-1.583.325q-.481.098-.718.275a.58.58 0 0 0-.235.491q0 .305.236.501.245.187.688.187.285 0 .54-.069.265-.078.472-.226a1.14 1.14 0 0 0 .324-.383q.118-.235.118-.55zm8.225 3.273q-.412 0-.767-.147a1.8 1.8 0 0 1-.993-1.013l.109-.137-.07 1.199h-.687v-7.175h.786v3.371l-.098-.147q.195-.462.658-.757a1.93 1.93 0 0 1 1.072-.305 2.15 2.15 0 0 1 1.936 1.18q.305.57.305 1.376 0 .796-.315 1.376-.304.57-.816.875-.51.304-1.12.304m-.079-.688q.728 0 1.13-.51.413-.512.413-1.357 0-.846-.403-1.357-.402-.51-1.13-.51-.462 0-.816.235-.345.236-.54.659a2.3 2.3 0 0 0-.197.992q0 .561.187.983.196.414.54.64.354.225.816.225m6.703-2.585q0-.55-.295-.845-.294-.305-.835-.305-.511 0-.865.226-.354.217-.521.708l-.639-.393q.196-.55.727-.885.531-.344 1.317-.344.53 0 .964.187.432.177.678.55.255.364.255.944v2.379q0 .354.374.354.186 0 .364-.05l-.04.62a1.14 1.14 0 0 1-.511.098q-.285 0-.511-.108a.8.8 0 0 1-.354-.325 1.1 1.1 0 0 1-.128-.56v-.098l.197.03a1.33 1.33 0 0 1-.403.628q-.285.237-.639.354a2.4 2.4 0 0 1-.698.108q-.432 0-.806-.147a1.37 1.37 0 0 1-.6-.442 1.26 1.26 0 0 1-.215-.747q0-.55.363-.905.374-.363 1.032-.491l1.946-.383v.648l-1.582.325q-.481.098-.718.275a.58.58 0 0 0-.236.491q.001.305.236.501.246.187.688.187.285 0 .541-.069.265-.078.472-.226a1.15 1.15 0 0 0 .324-.383q.118-.235.118-.55zm3.444-4v5.927q0 .373.138.52.137.138.442.138.197 0 .324-.03.129-.029.344-.107l-.127.688q-.158.069-.344.098-.187.04-.384.04-.6 0-.894-.325-.285-.324-.285-.993v-5.956zm5.127 4q0-.55-.294-.845-.295-.305-.836-.305-.511 0-.865.226-.353.217-.521.708l-.639-.393q.197-.55.728-.885.531-.344 1.317-.344.531 0 .963.187.432.177.678.55.256.364.256.944v2.379q0 .354.373.354.187 0 .364-.05l-.039.62a1.15 1.15 0 0 1-.511.098q-.286 0-.512-.108a.8.8 0 0 1-.353-.325 1.1 1.1 0 0 1-.128-.56v-.098l.196.03a1.3 1.3 0 0 1-.403.628q-.285.237-.638.354a2.4 2.4 0 0 1-.698.108q-.433 0-.806-.147a1.4 1.4 0 0 1-.6-.442 1.26 1.26 0 0 1-.216-.747q0-.55.364-.905.374-.363 1.032-.491l1.946-.383v.648l-1.583.325q-.481.098-.717.275a.58.58 0 0 0-.236.491q0 .305.236.501.246.187.688.187.285 0 .54-.069.266-.078.472-.226.207-.156.325-.383.117-.235.117-.55zm2.698 3.175v-4.914h.688l.068 1.1-.127-.108a1.63 1.63 0 0 1 1.032-.983q.354-.108.727-.108.531 0 .963.207.433.196.688.61.266.412.266 1.05v3.146h-.787v-2.87q0-.815-.354-1.13a1.2 1.2 0 0 0-.855-.325q-.354 0-.707.167a1.4 1.4 0 0 0-.59.541q-.226.374-.226 1.002v2.615zm8.12-5.013q.51 0 .894.158.393.156.678.452.285.294.462.697l-.747.354q-.157-.471-.481-.717-.315-.256-.826-.256-.492 0-.845.226a1.4 1.4 0 0 0-.541.64q-.186.412-.187 1.002 0 .579.187 1.002t.541.65q.353.215.845.215.383 0 .658-.118.285-.117.462-.344.187-.226.256-.55l.727.256q-.166.451-.462.776-.284.324-.698.501a2.4 2.4 0 0 1-.923.167q-.689 0-1.229-.304a2.13 2.13 0 0 1-.845-.875q-.305-.58-.305-1.376t.305-1.366a2.1 2.1 0 0 1 .845-.885q.54-.305 1.229-.305m5.519 5.111q-.698 0-1.248-.304a2.13 2.13 0 0 1-.845-.875q-.305-.58-.305-1.376t.305-1.366q.304-.58.835-.885a2.4 2.4 0 0 1 1.209-.305q.689 0 1.17.295.49.295.747.806.255.501.255 1.13 0 .168-.01.305a2 2 0 0 1-.029.246h-3.971v-.698h3.627l-.403.079q0-.708-.393-1.091-.383-.384-1.013-.384-.481 0-.835.226-.344.217-.541.64-.186.412-.186 1.002 0 .579.196 1.002.197.423.551.65.363.215.864.215.541 0 .875-.206.345-.207.551-.56l.619.363a2 2 0 0 1-.482.58q-.285.246-.678.383a2.7 2.7 0 0 1-.865.128m9.003-5.11q.698-.001 1.229.304.54.304.845.885.305.57.305 1.366t-.305 1.376q-.305.57-.845.875a2.4 2.4 0 0 1-1.229.304q-.688 0-1.229-.304a2.13 2.13 0 0 1-.845-.875q-.305-.58-.305-1.376t.305-1.366a2.1 2.1 0 0 1 .845-.885q.541-.305 1.229-.305m0 .678q-.501 0-.855.226-.354.225-.55.648-.187.413-.187 1.003 0 .579.187 1.002.196.423.55.65.354.225.855.225t.855-.226.541-.649q.196-.422.196-1.002 0-.59-.196-1.003a1.44 1.44 0 0 0-.541-.648q-.354-.227-.855-.227m5.768-2.89q.255 0 .481.059.227.06.354.167l-.206.639a.7.7 0 0 0-.256-.108 1.1 1.1 0 0 0-.304-.04q-.423 0-.659.207-.236.196-.236.639v5.661h-.786v-5.74q0-.324.098-.6.099-.275.295-.471a1.4 1.4 0 0 1 .511-.305q.304-.108.708-.108m.816 2.31v.678h-3.411v-.678zm5.085 4.914v-4.855l.019-.453a3.5 3.5 0 0 1-.766.56q-.423.227-.875.325l-.197-.914q.207-.03.482-.138.274-.108.57-.275t.541-.354q.245-.195.383-.383h.884v6.487zm5.045.098q-1.17 0-1.838-.845-.658-.855-.658-2.496t.658-2.487q.669-.855 1.838-.855 1.18 0 1.838.855.669.845.669 2.486t-.669 2.497q-.659.845-1.838.845m0-.894q.472 0 .786-.266.325-.275.482-.815.167-.55.167-1.367 0-.815-.167-1.356-.157-.55-.482-.816-.314-.275-.786-.275-.471 0-.796.275-.315.266-.472.816-.157.54-.157 1.356t.157 1.367q.157.54.472.816.325.264.796.265m7.35.796V94.75h.639l.108.806q.206-.453.599-.679.403-.226.973-.226.128 0 .275.02.158.02.266.079l-.138.717a1.2 1.2 0 0 0-.236-.059 3 3 0 0 0-.363-.02q-.305 0-.62.177a1.4 1.4 0 0 0-.511.541q-.206.354-.206.904v2.654zm5.912.098q-.697 0-1.248-.304a2.13 2.13 0 0 1-.845-.875q-.305-.58-.305-1.376t.305-1.366q.305-.58.835-.885a2.4 2.4 0 0 1 1.209-.305q.688 0 1.17.295.492.295.747.806.255.501.256 1.13 0 .168-.01.305a2 2 0 0 1-.03.246h-3.971v-.698h3.627l-.403.079q0-.708-.393-1.091-.384-.384-1.012-.384-.482 0-.836.226a1.45 1.45 0 0 0-.54.64q-.187.412-.187 1.002 0 .579.196 1.002.197.423.551.65.363.215.865.215.54 0 .875-.206a1.56 1.56 0 0 0 .55-.56l.619.363a2 2 0 0 1-.481.58 2.1 2.1 0 0 1-.679.383 2.7 2.7 0 0 1-.865.128m3.619-.098V94.75h.688l.049.766q.265-.451.688-.658.432-.207.885-.207.52 0 .983.236.461.236.707.728.158-.334.443-.541.285-.216.619-.315.344-.108.648-.108.472 0 .895.197.432.196.708.61.275.412.275 1.06v3.146h-.787v-3.067q0-.667-.334-.963a1.2 1.2 0 0 0-.825-.295q-.384 0-.718.187a1.4 1.4 0 0 0-.54.55q-.197.364-.197.895v2.693h-.786v-3.067q0-.667-.334-.963a1.2 1.2 0 0 0-.826-.295q-.324 0-.668.177-.334.168-.561.54-.225.374-.226.984v2.624zm12.238-3.175q0-.55-.295-.845-.294-.305-.835-.305-.511 0-.865.226-.354.217-.521.708l-.639-.393a1.7 1.7 0 0 1 .727-.885q.531-.344 1.317-.344.53 0 .964.187.432.177.678.55.255.364.255.944v2.379q0 .354.374.354.187 0 .364-.05l-.04.62a1.14 1.14 0 0 1-.511.098q-.285 0-.511-.108a.8.8 0 0 1-.354-.325 1.1 1.1 0 0 1-.128-.56v-.098l.197.03a1.33 1.33 0 0 1-.403.628q-.285.237-.639.354a2.4 2.4 0 0 1-.698.108q-.432 0-.806-.147a1.37 1.37 0 0 1-.599-.442 1.26 1.26 0 0 1-.216-.747q0-.55.363-.905.373-.363 1.032-.491l1.946-.383v.648l-1.582.325q-.481.098-.718.275a.58.58 0 0 0-.236.491q0 .305.236.501.246.187.688.187.286 0 .541-.069.265-.078.472-.226a1.15 1.15 0 0 0 .324-.383q.118-.235.118-.55zm3.09-2.683a.6.6 0 0 1-.432-.157.6.6 0 0 1-.157-.433.57.57 0 0 1 .157-.422.58.58 0 0 1 .432-.167q.266 0 .423.167a.55.55 0 0 1 .167.422.6.6 0 0 1-.167.433.57.57 0 0 1-.423.157m.393.944v4.914h-.786V94.75zm1.825 4.914V94.75h.688l.069 1.1-.128-.108a1.64 1.64 0 0 1 1.032-.983q.354-.108.727-.108.53 0 .964.207.432.196.688.61.264.412.265 1.05v3.146h-.786v-2.87q0-.815-.354-1.13a1.2 1.2 0 0 0-.855-.325q-.354 0-.708.167a1.4 1.4 0 0 0-.59.541q-.226.374-.226 1.002v2.615zm6.479-5.858a.6.6 0 0 1-.433-.157.6.6 0 0 1-.157-.433.57.57 0 0 1 .157-.422.6.6 0 0 1 .433-.167q.264 0 .422.167a.55.55 0 0 1 .167.422.58.58 0 0 1-.167.433.57.57 0 0 1-.422.157m.393.944v4.914h-.787V94.75zm1.824 4.914V94.75h.688l.069 1.1-.128-.108a1.64 1.64 0 0 1 1.032-.983q.354-.108.728-.108.53 0 .963.207.432.196.688.61.265.412.265 1.05v3.146h-.786v-2.87q0-.815-.354-1.13a1.2 1.2 0 0 0-.855-.325q-.354 0-.708.167a1.4 1.4 0 0 0-.59.541q-.226.374-.226 1.002v2.615zm10.223-5.819.177.698h-.068q-.481 0-.747.197-.256.186-.256.61l-.482-.247q0-.383.177-.668t.482-.432q.305-.158.668-.158zm-1.493 5.19q.697 0 1.091.324.393.315.393.846 0 .481-.325.835-.314.354-.855.541a3.4 3.4 0 0 1-1.199.196q-1.16 0-1.74-.393-.57-.393-.57-.944 0-.393.256-.707.266-.305.884-.344l-.068.147a1.4 1.4 0 0 1-.57-.295q-.226-.216-.226-.619t.294-.688q.306-.294.895-.364l.521.266h-.099q-.481.05-.688.246a.56.56 0 0 0-.196.412q0 .276.196.413.207.128.571.128zm-.905 2.084q.57 0 .934-.118.373-.118.55-.305a.58.58 0 0 0 .177-.403.5.5 0 0 0-.216-.423q-.207-.156-.757-.157h-1.513a.88.88 0 0 0-.531.157.54.54 0 0 0-.216.453q0 .363.412.579.423.217 1.16.217m-.069-6.468q.59 0 1.042.216.462.207.718.58.255.375.255.865 0 .483-.255.865-.256.374-.718.59a2.5 2.5 0 0 1-1.042.206q-.972 0-1.494-.462a1.55 1.55 0 0 1-.52-1.199q0-.491.255-.865a1.75 1.75 0 0 1 .718-.58 2.4 2.4 0 0 1 1.041-.216m0 .64q-.51 0-.855.284a.9.9 0 0 0-.344.737q0 .453.344.738.345.285.855.285.511 0 .856-.285a.91.91 0 0 0 .344-.738.9.9 0 0 0-.344-.737q-.345-.285-.856-.285m8.68 4.471q-.738 0-1.347-.285a2.33 2.33 0 0 1-.963-.806l.727-.629q.216.403.62.649.412.236.982.236.453 0 .718-.157a.49.49 0 0 0 .265-.443.46.46 0 0 0-.127-.324q-.119-.148-.462-.226l-1.032-.216q-.787-.157-1.121-.502-.334-.354-.334-.894 0-.404.236-.747.235-.345.688-.55.462-.217 1.101-.217.736 0 1.258.266.52.255.796.737l-.727.61a1.2 1.2 0 0 0-.551-.58 1.6 1.6 0 0 0-.757-.197q-.314 0-.54.078a.8.8 0 0 0-.344.217.48.48 0 0 0-.118.324q0 .197.147.344.147.148.531.226l1.12.236q.708.138.993.472.295.324.295.796t-.246.835q-.245.355-.707.55-.462.198-1.101.197m3.865-5.838q-.344 0-.53-.167-.177-.177-.177-.492t.177-.481q.186-.167.53-.167.335 0 .512.167.186.167.186.481 0 .315-.186.492-.177.167-.512.167m.521.826v4.914h-1.051v-4.914zm3.769-.099q.59 0 1.002.177.423.167.708.482t.433.717l-.993.394q-.128-.453-.413-.689-.275-.245-.727-.245a1.35 1.35 0 0 0-.757.206 1.25 1.25 0 0 0-.482.58q-.157.383-.157.944 0 .55.167.933.167.385.482.58.314.197.747.197.333 0 .58-.108.245-.118.403-.325.166-.216.226-.52l.953.324a2.1 2.1 0 0 1-.432.776q-.286.325-.718.511a2.6 2.6 0 0 1-.993.177q-.727 0-1.287-.304a2.16 2.16 0 0 1-.875-.875q-.305-.58-.305-1.376t.305-1.366q.315-.58.865-.885a2.6 2.6 0 0 1 1.268-.305m8.035.099-2.192 2.24-.226.158-1.543 1.602-.01-1.2 2.723-2.8zm-3.587-2.212v7.126h-1.052V92.54zm1.523 3.863 2.182 3.263h-1.219l-1.749-2.664zm7.172-3.863v5.75q0 .364.128.501.128.138.423.138.177 0 .294-.02.128-.03.315-.098l-.118.786a1.6 1.6 0 0 1-.383.118q-.216.05-.433.05-.658 0-.973-.335-.305-.344-.305-1.052V92.54zm4.202 7.224q-.737 0-1.297-.304a2.16 2.16 0 0 1-.875-.875q-.305-.58-.305-1.376t.305-1.366q.315-.58.865-.885a2.53 2.53 0 0 1 1.248-.305q.718 0 1.219.295t.767.806.265 1.16q0 .177-.01.334a3 3 0 0 1-.029.275h-3.951v-.806h3.489l-.521.158q0-.669-.334-1.023-.335-.363-.914-.363-.423 0-.738.196-.314.197-.481.59-.167.383-.167.944 0 .55.177.933.177.385.501.58.324.197.767.197.491 0 .796-.187.304-.187.481-.52l.836.392a2 2 0 0 1-.482.62 2.1 2.1 0 0 1-.708.393 2.8 2.8 0 0 1-.904.137m6.361-3.253q0-.492-.276-.757-.264-.275-.737-.275a1.35 1.35 0 0 0-.757.206q-.314.206-.461.669l-.885-.374q.186-.6.727-.963.55-.364 1.416-.364.59 0 1.041.197.453.186.708.57.266.383.266.983v2.192q0 .363.363.363.177 0 .344-.049l-.059.727q-.225.11-.57.109-.315 0-.57-.109a.95.95 0 0 1-.393-.343 1.13 1.13 0 0 1-.138-.58v-.07l.217-.009a1.23 1.23 0 0 1-.364.639 1.9 1.9 0 0 1-.639.373 2.4 2.4 0 0 1-.737.118q-.462 0-.836-.147a1.3 1.3 0 0 1-.579-.442 1.3 1.3 0 0 1-.207-.747q0-.55.354-.905.363-.354 1.022-.481l1.907-.374-.01.737-1.386.285q-.412.079-.619.227a.5.5 0 0 0-.206.432q0 .274.206.442.216.157.57.157.246 0 .472-.058.236-.06.423-.187a.9.9 0 0 0 .285-.344q.108-.216.108-.511zm5.826-1.76h1.1l-1.956 4.915h-1.15l-1.965-4.914h1.15l1.395 4zm4.131 5.013q-.738 0-1.298-.304a2.17 2.17 0 0 1-.875-.875q-.304-.58-.304-1.376t.304-1.366q.315-.58.865-.885a2.54 2.54 0 0 1 1.249-.305q.717 0 1.218.295.502.295.767.806.265.51.265 1.16 0 .177-.009.334a3 3 0 0 1-.03.275h-3.951v-.806h3.489l-.521.158q0-.669-.334-1.023-.334-.363-.914-.363a1.36 1.36 0 0 0-.737.196q-.315.197-.482.59-.167.383-.167.944 0 .55.177.933.177.385.501.58.325.197.767.197.492 0 .796-.187t.482-.52l.835.392a2 2 0 0 1-.481.62q-.295.255-.708.393a2.9 2.9 0 0 1-.904.137m8.884 0a2.15 2.15 0 0 1-1.936-1.18q-.305-.579-.305-1.375 0-.816.325-1.386.324-.57.855-.865a2.25 2.25 0 0 1 1.14-.305q.61 0 1.052.315.452.315.599.835l-.098.07v-3.38h.786v7.175h-.688l-.069-1.19.108-.058a1.43 1.43 0 0 1-.334.737q-.255.295-.639.452a2 2 0 0 1-.796.157m.079-.688q.471 0 .816-.236.354-.236.54-.668.197-.442.197-1.032 0-.561-.197-.963a1.4 1.4 0 0 0-.53-.62 1.4 1.4 0 0 0-.787-.216q-.747 0-1.16.511t-.412 1.357q0 .845.403 1.356.402.51 1.13.511m7.037-2.585q0-.55-.295-.845-.295-.305-.835-.305-.511 0-.865.226-.354.217-.521.708l-.639-.393q.196-.55.727-.885.531-.344 1.317-.344.531 0 .963.187.433.177.679.55.255.364.255.944v2.379q0 .354.374.354.186 0 .363-.05l-.039.62a1.14 1.14 0 0 1-.511.098q-.285 0-.511-.108a.8.8 0 0 1-.354-.325 1.1 1.1 0 0 1-.128-.56v-.098l.197.03a1.33 1.33 0 0 1-.403.628q-.285.237-.639.354a2.4 2.4 0 0 1-.698.108q-.432 0-.806-.147a1.37 1.37 0 0 1-.599-.442 1.25 1.25 0 0 1-.217-.747q0-.55.364-.905.374-.363 1.032-.491l1.946-.383v.648l-1.582.325q-.482.098-.718.275a.58.58 0 0 0-.236.491q0 .305.236.501.246.187.688.187.285 0 .541-.069.265-.078.472-.226a1.15 1.15 0 0 0 .324-.383q.118-.235.118-.55zm6.449-1.74-2.31 5.741q-.187.481-.413.756-.216.286-.491.403a1.4 1.4 0 0 1-.62.128q-.333 0-.619-.098a1.7 1.7 0 0 1-.491-.246l.216-.688q.197.177.413.256.226.088.442.088a.83.83 0 0 0 .482-.157q.225-.157.413-.639l.255-.639-.491-1.17-1.563-3.734h.894l1.229 3.204.305.875.353-.974 1.15-3.105zm2.672 5.013q-.717 0-1.326-.304a2.2 2.2 0 0 1-.924-.865l.668-.482q.216.452.629.708.423.255 1.012.255.522 0 .816-.196.295-.207.295-.531a.57.57 0 0 0-.138-.374q-.127-.176-.501-.255l-1.179-.246q-.719-.147-1.032-.491a1.24 1.24 0 0 1-.305-.855q0-.404.226-.737.236-.335.659-.531a2.3 2.3 0 0 1 1.012-.207q.727 0 1.229.285.501.285.747.806l-.659.433a1.15 1.15 0 0 0-.541-.63 1.6 1.6 0 0 0-.776-.206q-.354 0-.609.099a.9.9 0 0 0-.384.275.6.6 0 0 0-.128.383q0 .216.148.403.147.177.55.256l1.229.255q.688.138.963.452.276.315.275.767a1.4 1.4 0 0 1-.245.816q-.246.345-.688.53a2.6 2.6 0 0 1-1.023.187"/><path fill="#232323" d="M30.48 135.774q.874 0 1.513.334.639.325 1.081.963l-.707.679q-.374-.57-.846-.816-.462-.256-1.1-.256-.473 0-.777.128a1 1 0 0 0-.452.344.83.83 0 0 0-.138.472q0 .304.207.531.216.225.796.353l1.317.295q.943.207 1.337.629.393.423.393 1.072 0 .599-.325 1.042a2.05 2.05 0 0 1-.904.678q-.57.236-1.346.236-.69 0-1.239-.177a3.3 3.3 0 0 1-.963-.482 2.9 2.9 0 0 1-.678-.698l.727-.727q.206.344.521.619.315.266.727.413.423.147.934.147.452 0 .776-.108.334-.108.502-.314a.78.78 0 0 0 .177-.511.73.73 0 0 0-.197-.502q-.186-.216-.708-.334l-1.425-.324a3.1 3.1 0 0 1-.973-.364 1.6 1.6 0 0 1-.57-.57 1.6 1.6 0 0 1-.187-.767q0-.55.295-.992.305-.453.875-.718.57-.275 1.356-.275m5.382.226v4.885q0 .363.186.531.197.167.521.167.266 0 .462-.079.197-.088.364-.236l.236.767a1.7 1.7 0 0 1-.56.315 2.3 2.3 0 0 1-.728.108 2.1 2.1 0 0 1-.776-.138 1.12 1.12 0 0 1-.55-.442q-.197-.315-.207-.816v-4.767zm1.69 1.445v.826h-3.686v-.826zm3.91 1.759q0-.491-.276-.756-.264-.276-.737-.276-.442 0-.756.207-.315.206-.462.668l-.885-.373q.187-.6.727-.964.55-.363 1.416-.363.59 0 1.042.196.451.188.707.57.266.383.266.983v2.192q0 .363.363.364.177 0 .344-.049l-.059.727q-.225.108-.57.108-.315 0-.57-.108a.95.95 0 0 1-.393-.344 1.14 1.14 0 0 1-.138-.58v-.069l.217-.01q-.089.384-.364.639a1.9 1.9 0 0 1-.639.374 2.4 2.4 0 0 1-.737.118q-.462 0-.835-.148a1.3 1.3 0 0 1-.58-.442 1.3 1.3 0 0 1-.207-.747q0-.55.354-.904.363-.354 1.022-.482l1.907-.373-.01.737-1.386.285q-.412.078-.619.226a.5.5 0 0 0-.206.432q0 .275.206.443.216.156.57.157.246 0 .472-.059.236-.059.423-.187a.9.9 0 0 0 .285-.344q.108-.216.108-.511zm2.765 3.155v-4.914h.894l.098.885a1.5 1.5 0 0 1 .58-.728q.393-.255.964-.255.147 0 .294.029.148.02.246.069l-.147.924a1.2 1.2 0 0 0-.246-.059 1.6 1.6 0 0 0-.354-.03q-.304 0-.6.168-.294.157-.49.481-.188.325-.188.826v2.604zM49.492 136v4.885q0 .363.186.531.197.167.521.167.266 0 .462-.079.196-.088.364-.236l.236.767a1.7 1.7 0 0 1-.56.315 2.3 2.3 0 0 1-.728.108 2.1 2.1 0 0 1-.776-.138 1.12 1.12 0 0 1-.55-.442q-.197-.315-.207-.816v-4.767zm1.69 1.445v.826h-3.686v-.826zm6.674-1.573q1.523 0 2.369.846.855.835.855 2.398t-.855 2.408q-.846.835-2.369.835h-2.29v-6.487zm0 5.593q1.032 0 1.573-.609.55-.62.55-1.74t-.55-1.73q-.54-.62-1.573-.619h-1.238v4.698zm7.458-2.261q0-.491-.275-.756-.266-.276-.737-.276-.443 0-.757.207-.315.206-.462.668l-.885-.373q.187-.6.727-.964.551-.363 1.416-.363.59 0 1.042.196.452.188.707.57.266.383.266.983v2.192q0 .363.363.364.177 0 .344-.049l-.059.727q-.225.108-.57.108-.315 0-.57-.108a.95.95 0 0 1-.393-.344 1.13 1.13 0 0 1-.137-.58v-.069l.216-.01q-.089.384-.364.639a1.9 1.9 0 0 1-.639.374 2.4 2.4 0 0 1-.737.118q-.462 0-.835-.148a1.3 1.3 0 0 1-.58-.442 1.3 1.3 0 0 1-.207-.747q0-.55.354-.904.364-.354 1.022-.482l1.907-.373-.01.737-1.385.285q-.413.078-.62.226a.5.5 0 0 0-.206.432q0 .275.206.443.216.156.57.157.246 0 .472-.059.236-.059.423-.187a.9.9 0 0 0 .285-.344q.108-.216.108-.511zM69.322 136v4.885q0 .363.187.531.195.167.52.167.267 0 .463-.079.196-.088.363-.236l.236.767a1.7 1.7 0 0 1-.56.315 2.3 2.3 0 0 1-.728.108 2.1 2.1 0 0 1-.776-.138 1.12 1.12 0 0 1-.55-.442q-.197-.315-.207-.816v-4.767zm1.69 1.445v.826h-3.685v-.826zm3.203 5.013q-.738 0-1.297-.305a2.16 2.16 0 0 1-.875-.875q-.305-.58-.305-1.376t.305-1.366q.315-.58.865-.885a2.54 2.54 0 0 1 1.248-.304q.718 0 1.219.295.502.294.766.806.266.51.266 1.159 0 .177-.01.334a3 3 0 0 1-.03.276h-3.95v-.806h3.489l-.521.157q0-.669-.335-1.022-.333-.364-.914-.364-.422 0-.737.197-.315.196-.481.589-.168.384-.168.944 0 .55.177.934.177.383.502.58.324.196.766.196.492 0 .797-.187.304-.187.481-.52l.835.393a2 2 0 0 1-.481.619q-.296.255-.708.393a2.8 2.8 0 0 1-.904.138"/><path fill="#ee312a" d="m79.85 137.396.796.806.728 1.002-.649.472-.727-1.002-.521-1.003.186-.138zm-.373 0 .186.137.187.138-.52 1.003-.718 1.002-.649-.472.727-1.002zm-1.927-.963 1.18.383 1.012.501-.079.216-.068.226-1.111-.196-1.17-.374zm2.526-1.249-.01 1.239-.167 1.11h-.471l-.158-1.11-.01-1.239zm1.71 1.249.236.756-1.17.374-1.11.196-.079-.226-.068-.216 1.012-.501z"/><rect width="173.847" height="33.787" x="27.612" y="149.124" fill="#fff" rx="3.379"/><rect width="173.847" height="33.787" x="27.612" y="149.124" stroke="#c3c9d3" stroke-width=".614" rx="3.379"/><path fill="#232323" d="M37.86 169.018v-.639q.974-.718 1.622-1.258.659-.541 1.052-.983.392-.443.56-.836.167-.403.167-.835 0-.58-.374-.934-.363-.363-1.002-.364-.669 0-1.072.443-.402.432-.471 1.16l-.688-.413q.088-.57.363-1.003.285-.432.757-.678.481-.246 1.14-.246.502 0 .895.148.403.147.688.422.285.265.432.639.157.373.157.826 0 .61-.294 1.199-.295.58-.973 1.219-.679.638-1.838 1.415v.01q.108-.01.294-.01.198-.01.384-.01.196-.01.295-.01h2.27v.738zm5.73 0v-.639q.975-.718 1.622-1.258.66-.541 1.052-.983.393-.443.56-.836.167-.403.167-.835 0-.58-.373-.934-.364-.363-1.003-.364-.668 0-1.071.443-.403.432-.472 1.16l-.688-.413q.088-.57.364-1.003.285-.432.757-.678.48-.246 1.14-.246.501 0 .894.148.403.147.688.422.285.265.433.639.156.373.157.826 0 .61-.295 1.199-.295.58-.973 1.219-.678.638-1.838 1.415v.01q.108-.01.295-.01.196-.01.383-.01.197-.01.295-.01h2.27v.738zm8.94-2.979v.816h-3.244v-.816zm3.939 3.077q-1.1 0-1.76-.855-.658-.855-.658-2.487t.658-2.487 1.76-.855q1.11 0 1.759.855.658.855.658 2.487t-.658 2.487q-.649.855-1.76.855m0-.708q.52 0 .874-.295.365-.304.54-.894.188-.59.188-1.445t-.187-1.445q-.177-.59-.54-.884a1.3 1.3 0 0 0-.875-.305q-.522 0-.885.305-.354.294-.54.884-.178.59-.177 1.445 0 .855.176 1.445.187.59.541.894.363.295.885.295m5.976-5.976q.816 0 1.376.433.561.422.846 1.179.285.747.284 1.73 0 1.09-.284 1.838-.285.737-.846 1.121-.55.383-1.366.383-.806 0-1.386-.374-.58-.373-.865-1.091l.777-.412q.157.51.51.825.364.315.993.315.511 0 .846-.197.345-.206.54-.58.197-.383.276-.914.088-.531.088-1.179v-.089h-.04a1.5 1.5 0 0 1-.412.718q-.296.265-.668.383a2.3 2.3 0 0 1-.728.118q-.64 0-1.13-.246a1.9 1.9 0 0 1-.767-.707q-.275-.453-.275-1.072 0-.668.265-1.15.266-.491.767-.757.501-.275 1.2-.275m.01.757q-.689 0-1.052.383-.363.374-.363 1.052 0 .58.383.924.383.334 1.032.334.423 0 .737-.167.324-.177.501-.472.177-.304.177-.698 0-.412-.177-.717a1.2 1.2 0 0 0-.5-.472 1.55 1.55 0 0 0-.738-.167m7.265 2.85v.816h-3.243v-.816zm1.216 2.979v-.639q.975-.718 1.622-1.258.66-.541 1.052-.983.393-.443.56-.836.167-.403.167-.835 0-.58-.373-.934-.364-.363-1.003-.364-.668 0-1.071.443-.403.432-.472 1.16l-.688-.413q.088-.57.364-1.003.285-.432.757-.678.48-.246 1.14-.246.501 0 .894.148.403.147.688.422.285.265.433.639.156.373.157.826 0 .61-.295 1.199-.295.58-.973 1.219-.678.638-1.838 1.415v.01q.108-.01.295-.01.196-.01.383-.01.197-.01.295-.01h2.27v.738zm8.06.098q-1.1 0-1.76-.855-.657-.855-.658-2.487 0-1.632.659-2.487.658-.855 1.76-.855 1.11 0 1.758.855.66.855.659 2.487 0 1.632-.659 2.487-.648.855-1.759.855m0-.708q.52 0 .875-.295.364-.304.54-.894.187-.59.187-1.445t-.186-1.445q-.177-.59-.541-.884a1.3 1.3 0 0 0-.875-.305q-.52 0-.884.305-.354.294-.541.884-.177.59-.177 1.445t.177 1.445q.187.59.54.894.364.295.885.295m3.785.61v-.639q.974-.718 1.622-1.258.659-.541 1.051-.983.395-.443.56-.836.168-.403.168-.835 0-.58-.374-.934-.363-.363-1.002-.364-.669 0-1.072.443-.403.432-.471 1.16l-.689-.413q.089-.57.364-1.003.285-.432.757-.678.481-.246 1.14-.246.502 0 .895.148.403.147.688.422.285.265.432.639.157.373.157.826 0 .61-.294 1.199-.295.58-.974 1.219-.677.638-1.838 1.415v.01q.108-.01.295-.01.197-.01.384-.01.196-.01.294-.01h2.27v.738zm7.824.098q-.865 0-1.396-.393-.52-.393-.806-1.091l.767-.403q.157.51.481.835.334.315.973.315.453 0 .767-.167.324-.168.501-.472a1.5 1.5 0 0 0 .177-.747q0-.462-.167-.767a1.04 1.04 0 0 0-.462-.472 1.6 1.6 0 0 0-.747-.157q-.314 0-.59.069a1.5 1.5 0 0 0-.481.197 1.3 1.3 0 0 0-.374.363l-.688-.128.384-3.567h3.646v.737h-2.978l-.255 2.044-.02.089h.02q.235-.246.6-.394.372-.147.884-.147.62 0 1.071.265.462.256.717.728.256.471.256 1.101 0 .5-.167.904a2 2 0 0 1-.472.688 2.1 2.1 0 0 1-.727.422q-.413.148-.914.148"/><path stroke="#393e46" stroke-linecap="round" stroke-linejoin="round" stroke-miterlimit="10" stroke-width=".921" d="M182.566 160.896v1.536"/><path stroke="#393e46" stroke-linecap="round" stroke-linejoin="round" stroke-miterlimit="10" stroke-width=".921" d="M186.664 160.896v1.536"/><path stroke="#393e46" stroke-linecap="round" stroke-linejoin="round" stroke-miterlimit="10" stroke-width=".921" d="M180.266 164.527h8.702"/><path stroke="#393e46" stroke-linecap="round" stroke-linejoin="round" stroke-miterlimit="10" stroke-width=".921" d="M189.222 164.224v4.351c0 1.536-.768 2.56-2.559 2.56h-4.096c-1.791 0-2.559-1.024-2.559-2.56v-4.351c0-1.536.768-2.56 2.559-2.56h4.096c1.791 0 2.559 1.024 2.559 2.56"/><path stroke="#393e46" stroke-linecap="round" stroke-linejoin="round" stroke-width="1.229" d="M186.507 166.887h.005"/><path stroke="#393e46" stroke-linecap="round" stroke-linejoin="round" stroke-width="1.229" d="M186.507 168.422h.005"/><path stroke="#393e46" stroke-linecap="round" stroke-linejoin="round" stroke-width="1.229" d="M184.613 166.887h.004"/><path stroke="#393e46" stroke-linecap="round" stroke-linejoin="round" stroke-width="1.229" d="M184.613 168.422h.004"/><path stroke="#393e46" stroke-linecap="round" stroke-linejoin="round" stroke-width="1.229" d="M182.718 166.887h.005"/><path stroke="#393e46" stroke-linecap="round" stroke-linejoin="round" stroke-width="1.229" d="M182.718 168.422h.005"/><path fill="#232323" d="M227.303 142.359v-6.487h4.698v.905h-3.646v1.867h2.85v.885h-2.85v1.926h3.784v.904zm6.101 0v-4.914h.934l.069 1.278-.138-.138q.138-.423.393-.698.266-.284.62-.413.363-.127.766-.127.521 0 .934.206.423.196.668.6.246.402.246 1.022v3.184h-1.052v-2.86q0-.728-.304-1.002a1.03 1.03 0 0 0-.747-.285 1.35 1.35 0 0 0-.629.157 1.24 1.24 0 0 0-.512.481q-.196.334-.196.895v2.614zm7.973.099a2.1 2.1 0 0 1-1.111-.305 2.1 2.1 0 0 1-.776-.875q-.285-.57-.285-1.366 0-.826.304-1.396t.816-.865a2.15 2.15 0 0 1 1.121-.304q.629 0 1.061.344.433.344.58.894l-.118.108v-3.46h1.052v7.126h-.934l-.079-1.336.138.009a1.6 1.6 0 0 1-.324.767 1.8 1.8 0 0 1-.639.492 2 2 0 0 1-.806.167m.226-.846q.423 0 .727-.216a1.4 1.4 0 0 0 .472-.609q.167-.393.167-.944 0-.511-.167-.875a1.3 1.3 0 0 0-.472-.57 1.2 1.2 0 0 0-.688-.196q-.659 0-1.022.452t-.364 1.248q0 .796.354 1.258.354.453.993.452m9.683-5.74q1.523 0 2.368.846.856.835.856 2.398t-.856 2.408q-.845.835-2.368.835h-2.29v-6.487zm0 5.593q1.032 0 1.572-.609.55-.62.551-1.74 0-1.12-.551-1.73-.54-.62-1.572-.619h-1.239v4.698zm7.458-2.261q0-.491-.276-.756-.265-.276-.737-.276-.442 0-.757.207-.314.206-.462.668l-.884-.373q.186-.6.727-.964.55-.363 1.416-.363.59 0 1.041.196.453.188.708.57.265.383.265.983v2.192q0 .363.364.364.177 0 .344-.049l-.059.727a1.3 1.3 0 0 1-.57.108q-.315 0-.57-.108a.95.95 0 0 1-.393-.344 1.13 1.13 0 0 1-.138-.58v-.069l.216-.01q-.089.384-.363.639a1.9 1.9 0 0 1-.639.374 2.4 2.4 0 0 1-.737.118q-.462 0-.836-.148a1.3 1.3 0 0 1-.58-.442 1.3 1.3 0 0 1-.206-.747q0-.55.354-.904.363-.354 1.022-.482l1.907-.373-.01.737-1.386.285q-.412.078-.619.226a.5.5 0 0 0-.206.432.54.54 0 0 0 .206.443q.216.156.57.157.246 0 .472-.059.236-.059.422-.187a.9.9 0 0 0 .285-.344q.11-.216.109-.511zm4.008-3.204v4.885q0 .363.186.531.197.167.521.167.266 0 .462-.079.196-.088.364-.236l.236.767a1.7 1.7 0 0 1-.56.315 2.3 2.3 0 0 1-.728.108q-.422 0-.776-.138a1.12 1.12 0 0 1-.551-.442q-.197-.315-.206-.816v-4.767zm1.69 1.445v.826h-3.686v-.826zm3.203 5.013q-.738 0-1.298-.305a2.17 2.17 0 0 1-.875-.875q-.304-.58-.304-1.376t.304-1.366q.315-.58.865-.885a2.54 2.54 0 0 1 1.249-.304q.717 0 1.218.295.502.294.767.806.265.51.265 1.159 0 .177-.009.334a3 3 0 0 1-.03.276h-3.951v-.806h3.489l-.521.157q0-.669-.334-1.022-.334-.364-.914-.364-.422 0-.737.197-.315.196-.482.589-.167.384-.167.944 0 .55.177.934.177.383.501.58.325.196.767.196.492 0 .796-.187t.482-.52l.835.393a2 2 0 0 1-.481.619 2.1 2.1 0 0 1-.708.393 2.8 2.8 0 0 1-.904.138"/><path fill="#ee312a" d="m273.28 137.396.796.806.727 1.002-.648.472-.728-1.002-.521-1.003.187-.138zm-.374 0 .187.137.187.138-.521 1.003-.718 1.002-.648-.472.727-1.002zm-1.926-.963 1.179.383 1.013.501-.079.216-.069.226-1.11-.196-1.17-.374zm2.526-1.249-.01 1.239-.167 1.11h-.472l-.157-1.11-.01-1.239zm1.71 1.249.236.756-1.17.374-1.11.196-.079-.226-.069-.216 1.013-.501z"/><rect width="173.847" height="33.787" x="226.647" y="149.124" fill="#fff" rx="3.379"/><rect width="173.847" height="33.787" x="226.647" y="149.124" stroke="#c3c9d3" stroke-width=".614" rx="3.379"/><path fill="#232323" d="M236.895 169.018v-.639q.974-.718 1.622-1.258a9.5 9.5 0 0 0 1.052-.983q.393-.443.56-.836.167-.403.167-.835 0-.58-.373-.934-.364-.363-1.003-.364-.669 0-1.071.443-.403.432-.472 1.16l-.688-.413q.088-.57.364-1.003.285-.432.756-.678.482-.246 1.141-.246.501 0 .894.148.403.147.688.422.285.265.432.639.158.373.158.826 0 .61-.295 1.199-.295.58-.973 1.219-.678.638-1.838 1.415v.01q.108-.01.295-.01.196-.01.383-.01.196-.01.295-.01h2.27v.738zm5.204-6.487h4.777v.737a9.3 9.3 0 0 0-1.336 1.779 7.3 7.3 0 0 0-.747 1.887 9 9 0 0 0-.236 2.084h-.806q0-1.092.265-2.133a8.3 8.3 0 0 1 .826-2.015 9 9 0 0 1 1.366-1.799l.128.197h-4.237zm8.736 3.508v.816h-3.243v-.816zm3.939 3.077q-1.1 0-1.759-.855t-.659-2.487.659-2.487 1.759-.855q1.111 0 1.76.855.658.855.658 2.487t-.658 2.487q-.649.855-1.76.855m0-.708q.522 0 .875-.295.364-.304.541-.894.186-.59.186-1.445t-.186-1.445q-.177-.59-.541-.884a1.3 1.3 0 0 0-.875-.305 1.33 1.33 0 0 0-.884.305q-.354.294-.541.884-.177.59-.177 1.445t.177 1.445q.187.59.541.894.363.295.884.295m5.977-5.976q.816 0 1.376.433.56.422.845 1.179.285.747.285 1.73 0 1.09-.285 1.838-.285.737-.845 1.121-.55.383-1.366.383-.807 0-1.386-.374-.58-.373-.865-1.091l.776-.412q.158.51.511.825.365.315.993.315.512 0 .845-.197.345-.206.541-.58.197-.383.275-.914.089-.531.089-1.179v-.089h-.04a1.5 1.5 0 0 1-.412.718q-.296.265-.669.383a2.3 2.3 0 0 1-.727.118q-.64 0-1.13-.246a1.9 1.9 0 0 1-.767-.707q-.275-.453-.275-1.072 0-.668.265-1.15.266-.491.767-.757.501-.275 1.199-.275m.01.757q-.689 0-1.052.383-.363.374-.364 1.052 0 .58.384.924.382.334 1.032.334.422 0 .737-.167a1.3 1.3 0 0 0 .501-.472q.177-.304.177-.698 0-.412-.177-.717a1.2 1.2 0 0 0-.501-.472 1.56 1.56 0 0 0-.737-.167m7.265 2.85v.816h-3.243v-.816zm1.216 2.979v-.639a36 36 0 0 0 1.622-1.258 9.5 9.5 0 0 0 1.052-.983q.392-.443.56-.836.167-.403.167-.835 0-.58-.374-.934-.363-.363-1.002-.364-.669 0-1.071.443-.403.432-.472 1.16l-.688-.413q.089-.57.363-1.003.285-.432.757-.678.482-.246 1.14-.246.502 0 .895.148.402.147.688.422.285.265.432.639.158.373.158.826 0 .61-.295 1.199-.295.58-.973 1.219-.679.638-1.838 1.415v.01q.108-.01.294-.01.197-.01.384-.01.196-.01.295-.01h2.27v.738zm8.06.098q-1.101 0-1.76-.855-.658-.855-.658-2.487t.658-2.487 1.76-.855q1.11 0 1.759.855.659.855.659 2.487t-.659 2.487q-.648.855-1.759.855m0-.708q.52 0 .875-.295.363-.304.54-.894.187-.59.187-1.445t-.187-1.445q-.177-.59-.54-.884a1.3 1.3 0 0 0-.875-.305q-.52 0-.885.305-.354.294-.54.884-.177.59-.177 1.445t.177 1.445q.186.59.54.894.365.295.885.295m3.785.61v-.639a36 36 0 0 0 1.621-1.258 9.5 9.5 0 0 0 1.052-.983q.393-.443.56-.836.168-.403.167-.835 0-.58-.373-.934-.364-.363-1.003-.364-.668 0-1.071.443-.403.432-.472 1.16l-.688-.413q.088-.57.364-1.003.285-.432.757-.678.482-.246 1.14-.246.501 0 .894.148.403.147.688.422.285.265.433.639.157.373.157.826 0 .61-.295 1.199-.295.58-.973 1.219-.678.638-1.838 1.415v.01q.108-.01.295-.01.197-.01.383-.01.197-.01.295-.01h2.271v.738zm7.823.098q-.864 0-1.395-.393-.521-.393-.806-1.091l.766-.403q.158.51.482.835.334.315.973.315.453 0 .767-.167.324-.168.501-.472a1.5 1.5 0 0 0 .177-.747q0-.462-.167-.767a1.05 1.05 0 0 0-.462-.472 1.6 1.6 0 0 0-.747-.157q-.315 0-.59.069a1.5 1.5 0 0 0-.481.197 1.3 1.3 0 0 0-.374.363l-.688-.128.383-3.567h3.647v.737h-2.978l-.256 2.044-.019.089h.019q.236-.246.6-.394a2.4 2.4 0 0 1 .884-.147q.62 0 1.072.265.462.256.717.728.256.471.256 1.101 0 .5-.167.904a2 2 0 0 1-.472.688 2.1 2.1 0 0 1-.727.422 2.7 2.7 0 0 1-.915.148"/><path stroke="#393e46" stroke-linecap="round" stroke-linejoin="round" stroke-miterlimit="10" stroke-width=".921" d="M381.602 160.896v1.536"/><path stroke="#393e46" stroke-linecap="round" stroke-linejoin="round" stroke-miterlimit="10" stroke-width=".921" d="M385.699 160.896v1.536"/><path stroke="#393e46" stroke-linecap="round" stroke-linejoin="round" stroke-miterlimit="10" stroke-width=".921" d="M379.301 164.527h8.702"/><path stroke="#393e46" stroke-linecap="round" stroke-linejoin="round" stroke-miterlimit="10" stroke-width=".921" d="M388.257 164.224v4.351c0 1.536-.767 2.56-2.559 2.56h-4.095c-1.792 0-2.56-1.024-2.56-2.56v-4.351c0-1.536.768-2.56 2.56-2.56h4.095c1.792 0 2.559 1.024 2.559 2.56"/><path stroke="#393e46" stroke-linecap="round" stroke-linejoin="round" stroke-width="1.229" d="M385.542 166.887h.005"/><path stroke="#393e46" stroke-linecap="round" stroke-linejoin="round" stroke-width="1.229" d="M385.542 168.422h.005"/><path stroke="#393e46" stroke-linecap="round" stroke-linejoin="round" stroke-width="1.229" d="M383.648 166.887h.004"/><path stroke="#393e46" stroke-linecap="round" stroke-linejoin="round" stroke-width="1.229" d="M383.648 168.422h.004"/><path stroke="#393e46" stroke-linecap="round" stroke-linejoin="round" stroke-width="1.229" d="M381.753 166.887h.005"/><path stroke="#393e46" stroke-linecap="round" stroke-linejoin="round" stroke-width="1.229" d="M381.753 168.422h.005"/><path fill="#232323" d="M33.654 210.418h-1.11l-.62-1.7h-2.722l-.62 1.7h-1.08l2.447-6.487h1.258zm-4.158-2.556h2.133l-1.061-3.027zm6.28-3.803v4.885q0 .363.186.53.197.168.521.167.265 0 .462-.078a1.5 1.5 0 0 0 .364-.236l.236.767a1.7 1.7 0 0 1-.56.314 2.3 2.3 0 0 1-.728.108 2.1 2.1 0 0 1-.777-.137 1.12 1.12 0 0 1-.55-.443q-.197-.314-.206-.815v-4.767zm1.69 1.445v.825H33.78v-.825zm1.918-1.445v4.885q0 .363.187.53.197.168.521.167.265 0 .462-.078a1.5 1.5 0 0 0 .364-.236l.236.767a1.7 1.7 0 0 1-.56.314 2.3 2.3 0 0 1-.728.108 2.1 2.1 0 0 1-.777-.137 1.12 1.12 0 0 1-.55-.443q-.197-.314-.206-.815v-4.767zm1.69 1.445v.825H37.39v-.825zm3.91 1.759q0-.492-.275-.757-.266-.275-.737-.275-.442 0-.757.206-.315.207-.462.669l-.884-.374q.186-.6.727-.963.55-.364 1.415-.364.59 0 1.042.197.453.186.708.57.265.383.265.983v2.192q0 .363.364.363.177 0 .344-.049l-.06.727q-.225.11-.57.109-.314 0-.57-.109a.95.95 0 0 1-.392-.344 1.13 1.13 0 0 1-.138-.579v-.069l.216-.01q-.089.382-.363.639a1.9 1.9 0 0 1-.64.373 2.4 2.4 0 0 1-.736.118q-.462 0-.836-.147a1.3 1.3 0 0 1-.58-.442 1.3 1.3 0 0 1-.206-.747q0-.55.354-.905.363-.354 1.022-.481l1.907-.374-.01.737-1.386.285q-.413.08-.62.226a.5.5 0 0 0-.206.433.54.54 0 0 0 .207.442q.216.157.57.157.245 0 .472-.059.236-.058.422-.186a.9.9 0 0 0 .285-.344 1.1 1.1 0 0 0 .108-.511zm4.879-1.858q.59 0 1.002.177.423.167.708.482t.432.717l-.992.393q-.128-.451-.413-.688-.276-.245-.727-.245-.442 0-.757.206-.315.196-.482.58-.157.383-.157.944 0 .55.167.933.167.384.482.58.314.197.747.197.333 0 .58-.108.245-.118.402-.325a1.2 1.2 0 0 0 .227-.521l.953.325a2.1 2.1 0 0 1-.432.776q-.285.325-.718.511-.433.177-.993.177-.727 0-1.287-.304a2.17 2.17 0 0 1-.875-.875q-.305-.58-.305-1.376t.305-1.366q.315-.58.865-.885a2.6 2.6 0 0 1 1.268-.305m3.396 5.013v-7.126h1.051v2.998q.246-.462.66-.668a2 2 0 0 1 .933-.217q.52 0 .934.207.422.197.668.599.246.404.246 1.022v3.185h-1.052v-2.85q0-.728-.305-1.013a1.03 1.03 0 0 0-.747-.285q-.315 0-.629.157a1.23 1.23 0 0 0-.51.492q-.198.334-.198.904v2.595zm11.64-6.585q.876 0 1.514.334.639.324 1.081.963l-.707.678q-.374-.57-.846-.816-.462-.255-1.1-.255-.473 0-.777.128a1 1 0 0 0-.452.344.83.83 0 0 0-.138.471.76.76 0 0 0 .207.531q.216.226.796.354l1.317.295q.944.207 1.337.629t.393 1.071q0 .6-.325 1.042a2.04 2.04 0 0 1-.904.678q-.57.237-1.346.236-.69 0-1.239-.177a3.3 3.3 0 0 1-.963-.481 2.9 2.9 0 0 1-.678-.698l.727-.727q.206.343.521.619.315.265.727.413.423.147.934.147.452 0 .777-.108.334-.108.5-.315a.78.78 0 0 0 .178-.511.72.72 0 0 0-.197-.501q-.186-.217-.708-.334l-1.425-.325q-.59-.127-.973-.363a1.6 1.6 0 0 1-.57-.57 1.6 1.6 0 0 1-.187-.767q0-.55.295-.993.305-.451.875-.717.57-.275 1.357-.275m5.659 6.683q-.482 0-.895-.177a1.43 1.43 0 0 1-.648-.57q-.246-.393-.246-1.022v-3.243h1.052v2.978q0 .667.285.924.285.245.796.245.246 0 .472-.078.236-.089.422-.266a1.2 1.2 0 0 0 .285-.471q.108-.285.108-.669v-2.663h1.052v4.914h-.924l-.049-.796q-.255.462-.688.678t-1.022.216m4.326 1.966v-6.978h.934l.079 1.376-.138-.167q.118-.384.364-.679.245-.294.609-.462.373-.167.816-.167.6 0 1.09.305.492.305.777.875.285.56.285 1.366 0 .805-.295 1.386-.285.57-.786.875a2.05 2.05 0 0 1-1.1.304q-.63 0-1.072-.324a1.83 1.83 0 0 1-.63-.845l.119-.167v3.302zm2.408-2.821q.639 0 .993-.452.364-.452.364-1.248 0-.797-.354-1.248-.354-.462-.983-.462-.413 0-.727.216a1.4 1.4 0 0 0-.482.59q-.167.373-.167.904 0 .52.167.904.167.383.472.59t.717.206m3.754 2.821v-6.978h.934l.079 1.376-.138-.167q.118-.384.364-.679.246-.294.61-.462.372-.167.815-.167.6 0 1.091.305.492.305.776.875.285.56.285 1.366 0 .805-.294 1.386-.285.57-.787.875a2.05 2.05 0 0 1-1.1.304q-.63 0-1.072-.324a1.83 1.83 0 0 1-.629-.845l.118-.167v3.302zm2.408-2.821q.639 0 .993-.452.364-.452.364-1.248 0-.797-.354-1.248-.354-.462-.983-.462-.412 0-.727.216a1.4 1.4 0 0 0-.482.59q-.167.373-.167.904 0 .52.167.904.168.383.472.59t.718.206m5.888-4.256q.717 0 1.267.305a2.1 2.1 0 0 1 .856.885q.314.57.314 1.366t-.314 1.376q-.306.57-.856.875-.551.304-1.267.304-.718 0-1.269-.304a2.2 2.2 0 0 1-.864-.875q-.315-.58-.315-1.376t.315-1.366q.315-.58.864-.885.551-.305 1.269-.305m0 .826q-.443 0-.757.206-.304.197-.472.58t-.167.944q0 .55.167.943.167.383.472.59a1.4 1.4 0 0 0 .757.197q.441 0 .746-.197.305-.207.472-.59.168-.393.167-.943 0-.56-.167-.944a1.27 1.27 0 0 0-.472-.58 1.3 1.3 0 0 0-.746-.206m3.76 4.187v-4.914h.894l.099.884a1.5 1.5 0 0 1 .58-.727q.393-.256.963-.256.147 0 .295.03.147.02.245.069l-.147.923a1.3 1.3 0 0 0-.246-.059 1.7 1.7 0 0 0-.353-.029q-.306 0-.6.167-.295.157-.491.482-.187.324-.187.825v2.605zm5.265-6.359v4.885q0 .363.187.53.195.168.52.167.265 0 .463-.078.196-.089.363-.236l.236.767a1.7 1.7 0 0 1-.56.314 2.3 2.3 0 0 1-.727.108 2.1 2.1 0 0 1-.777-.137 1.12 1.12 0 0 1-.55-.443q-.197-.314-.207-.815v-4.767zm1.69 1.445v.825h-3.685v-.825zm1.571-.826q-.344 0-.53-.167-.177-.177-.177-.492 0-.314.177-.481.186-.167.53-.167.334 0 .511.167.187.167.187.481 0 .315-.187.492-.177.167-.511.167m.521.826v4.914H101.1v-4.914zm1.646 4.914v-4.914h.933l.069 1.277-.137-.137q.136-.423.393-.698a1.56 1.56 0 0 1 .619-.413 2.3 2.3 0 0 1 .767-.128q.52 0 .933.207.423.197.669.599.246.404.246 1.022v3.185h-1.052v-2.86q0-.727-.305-1.003a1.03 1.03 0 0 0-.747-.285q-.324 0-.629.157a1.24 1.24 0 0 0-.511.482q-.197.334-.197.895v2.614zm10.41-5.946.167.825h-.059a.2.2 0 0 0-.059-.01q-.472 0-.718.207-.245.196-.245.58l-.511-.236q0-.393.167-.698a1.2 1.2 0 0 1 .472-.492q.314-.176.707-.176zm-1.553 5.179q.747 0 1.16.335.413.324.413.904 0 .51-.325.875-.324.373-.884.57-.55.196-1.268.196-1.21 0-1.789-.373-.58-.374-.58-.934 0-.393.275-.688.285-.295.954-.334l-.059.157a1.44 1.44 0 0 1-.669-.315q-.246-.235-.246-.658t.325-.718q.324-.294.914-.344l.55.266h-.118q-.451.04-.639.206a.5.5 0 0 0-.186.374q0 .246.177.363.186.118.521.118zm-.904 2.094q.54 0 .884-.108.354-.099.521-.266a.46.46 0 0 0 .177-.353.43.43 0 0 0-.187-.364q-.177-.138-.648-.138h-1.583a.76.76 0 0 0-.462.138.48.48 0 0 0-.187.393q0 .325.394.511.393.187 1.091.187m-.04-6.34q.649 0 1.121.207.482.206.737.58.265.373.265.874 0 .502-.265.875-.255.373-.737.58-.472.207-1.121.206-1.021 0-1.572-.452-.541-.462-.541-1.209 0-.5.266-.874.264-.374.737-.58a2.8 2.8 0 0 1 1.11-.207m0 .737q-.451 0-.756.256-.295.246-.295.668t.295.679q.305.255.756.255.463 0 .757-.255a.84.84 0 0 0 .305-.679.81.81 0 0 0-.305-.668q-.294-.256-.757-.256m9.114-2.211q1.524 0 2.369.845.855.836.855 2.398t-.855 2.409q-.845.835-2.369.835h-2.29v-6.487zm0 5.593q1.032 0 1.573-.61.55-.62.55-1.74t-.55-1.729q-.541-.62-1.573-.62h-1.238v4.699zm6.769-4.119q.718 0 1.268.305a2.1 2.1 0 0 1 .855.885q.315.57.315 1.366t-.315 1.376q-.305.57-.855.875-.55.304-1.268.304-.717 0-1.268-.304a2.2 2.2 0 0 1-.865-.875q-.314-.58-.314-1.376t.314-1.366q.315-.58.865-.885t1.268-.305m0 .826q-.442 0-.756.206a1.27 1.27 0 0 0-.472.58q-.167.383-.167.944 0 .55.167.943.166.383.472.59.314.197.756.197.443 0 .747-.197.305-.207.472-.59a2.4 2.4 0 0 0 .167-.943q0-.56-.167-.944a1.27 1.27 0 0 0-.472-.58 1.3 1.3 0 0 0-.747-.206m5.884-.826q.59 0 1.002.177.423.167.708.482t.433.717l-.993.393q-.128-.451-.413-.688-.275-.245-.727-.245-.442 0-.757.206-.315.196-.482.58-.157.383-.157.944 0 .55.167.933.167.384.482.58.313.197.747.197.334 0 .58-.108a1.1 1.1 0 0 0 .403-.325q.166-.216.226-.521l.953.325a2.1 2.1 0 0 1-.432.776q-.285.325-.718.511a2.6 2.6 0 0 1-.993.177q-.727 0-1.287-.304a2.17 2.17 0 0 1-.875-.875q-.305-.58-.305-1.376t.305-1.366q.315-.58.865-.885a2.6 2.6 0 0 1 1.268-.305m5.146 5.111q-.482 0-.895-.177a1.43 1.43 0 0 1-.649-.57q-.245-.393-.245-1.022v-3.243h1.051v2.978q0 .667.285.924.285.245.797.245.245 0 .471-.078.237-.089.423-.266.187-.186.285-.471.108-.285.108-.669v-2.663h1.052v4.914h-.924l-.049-.796a1.6 1.6 0 0 1-.688.678q-.433.216-1.022.216m4.326-.098v-4.914h.934l.049.825q.255-.471.678-.698.432-.225.914-.226.53 0 .973.246.452.236.678.717.157-.324.433-.54.274-.216.609-.315.334-.108.659-.108.471 0 .884.197a1.6 1.6 0 0 1 .669.599q.255.403.255 1.032v3.185h-1.052v-3.017q0-.6-.285-.865-.285-.266-.727-.266a1.3 1.3 0 0 0-.639.167q-.285.168-.462.502-.177.324-.177.806v2.673h-1.051v-3.017q0-.6-.285-.865-.285-.266-.728-.266a1.25 1.25 0 0 0-1.081.649q-.196.335-.196.885v2.614zm11.492.098q-.738 0-1.297-.304a2.16 2.16 0 0 1-.875-.875q-.305-.58-.305-1.376t.305-1.366q.314-.58.865-.885a2.54 2.54 0 0 1 1.248-.305q.718 0 1.219.295.5.295.766.806t.266 1.16q0 .177-.01.334a3 3 0 0 1-.03.275h-3.951v-.806h3.489l-.52.158q0-.669-.335-1.023-.333-.363-.914-.363-.422 0-.737.196a1.24 1.24 0 0 0-.481.59q-.168.383-.168.944 0 .55.177.933.177.384.502.58.324.197.766.197.492 0 .796-.187.306-.186.482-.521l.835.393a2 2 0 0 1-.481.62 2.1 2.1 0 0 1-.708.393 2.9 2.9 0 0 1-.904.137m3.52-.098v-4.914h.934l.068 1.277-.137-.137q.138-.423.393-.698a1.56 1.56 0 0 1 .619-.413q.364-.128.767-.128.52 0 .934.207.422.197.668.599.246.404.246 1.022v3.185h-1.052v-2.86q0-.727-.305-1.003a1.03 1.03 0 0 0-.747-.285q-.324 0-.629.157a1.24 1.24 0 0 0-.511.482q-.196.334-.196.895v2.614zm7.463-6.359v4.885q0 .363.186.53.197.168.521.167.266 0 .462-.078.197-.089.364-.236l.236.767a1.7 1.7 0 0 1-.56.314 2.3 2.3 0 0 1-.728.108q-.422 0-.776-.137a1.12 1.12 0 0 1-.551-.443q-.196-.314-.206-.815v-4.767zm1.69 1.445v.825h-3.686v-.825z"/><path fill="#5d636d" d="m173.236 203.037.452.452a5.3 5.3 0 0 0-1.032 1.248 4.8 4.8 0 0 0-.55 1.376 6.8 6.8 0 0 0-.168 1.543q0 .816.168 1.543.166.728.55 1.376.384.65 1.032 1.248l-.452.453a6.1 6.1 0 0 1-1.573-2.064 6.1 6.1 0 0 1-.531-2.556q0-1.386.531-2.555a5.9 5.9 0 0 1 1.573-2.064m4.025.796q.924 0 1.592.412.68.403 1.042 1.15.374.747.374 1.779t-.374 1.779a2.7 2.7 0 0 1-1.042 1.16q-.668.403-1.592.403t-1.602-.403a2.8 2.8 0 0 1-1.042-1.16q-.363-.747-.363-1.779t.363-1.779a2.74 2.74 0 0 1 1.042-1.15q.678-.412 1.602-.412m0 .737q-.668 0-1.16.314a1.97 1.97 0 0 0-.756.895q-.266.58-.266 1.395t.266 1.406q.266.58.756.894.492.305 1.16.305.678 0 1.16-.305.492-.314.757-.894.265-.59.265-1.406 0-.815-.265-1.395a1.97 1.97 0 0 0-.757-.895q-.482-.314-1.16-.314m4.543 7.912v-6.978h.688l.069 1.199-.109-.138q.128-.344.384-.599.256-.266.619-.413a2.1 2.1 0 0 1 .786-.148q.6 0 1.101.305.512.305.816.875.305.57.305 1.376 0 .796-.315 1.376a2.15 2.15 0 0 1-1.936 1.179q-.61 0-1.072-.295a1.73 1.73 0 0 1-.648-.766l.098-.148v3.175zm2.329-2.654q.728 0 1.13-.511.413-.512.413-1.356 0-.846-.403-1.357-.393-.51-1.11-.511-.472 0-.826.236a1.5 1.5 0 0 0-.55.649q-.197.413-.197.983 0 .56.187.983.197.422.54.658.354.226.816.226m4.906-5.72v4.954q0 .363.207.54a.8.8 0 0 0 .531.177q.284 0 .491-.098.207-.099.373-.266l.276.659a1.6 1.6 0 0 1-.541.324 2 2 0 0 1-.708.118q-.373 0-.697-.128a1.17 1.17 0 0 1-.521-.422q-.187-.295-.197-.767v-4.875zm1.789 1.396v.678h-3.558v-.678zm1.562-.944a.6.6 0 0 1-.432-.157.6.6 0 0 1-.157-.433q0-.266.157-.422a.58.58 0 0 1 .432-.167q.266 0 .423.167a.55.55 0 0 1 .167.422.6.6 0 0 1-.167.433.57.57 0 0 1-.423.157m.394.944v4.914h-.787v-4.914zm3.859-.099q.697 0 1.228.305.54.304.846.885.304.57.304 1.366t-.304 1.376q-.305.57-.846.875a2.4 2.4 0 0 1-1.228.304q-.689 0-1.229-.304a2.14 2.14 0 0 1-.845-.875q-.305-.58-.305-1.376t.305-1.366q.305-.58.845-.885a2.46 2.46 0 0 1 1.229-.305m0 .678q-.503 0-.855.227-.354.225-.551.648-.186.413-.187 1.003 0 .58.187 1.002.197.423.551.649.353.226.855.226.501 0 .855-.226a1.43 1.43 0 0 0 .54-.649q.197-.422.197-1.002 0-.59-.197-1.003a1.4 1.4 0 0 0-.54-.648 1.55 1.55 0 0 0-.855-.227m3.859 4.335v-4.914h.688l.068 1.1-.127-.108a1.62 1.62 0 0 1 1.032-.983q.354-.108.727-.108a2.2 2.2 0 0 1 .963.207q.433.197.688.609.266.413.266 1.052v3.145h-.787v-2.87q0-.816-.354-1.13a1.2 1.2 0 0 0-.855-.325q-.354 0-.707.167a1.4 1.4 0 0 0-.59.541q-.226.373-.226 1.003v2.614zm8.955-3.175q0-.55-.295-.845-.294-.305-.835-.305-.511 0-.865.226-.354.217-.521.708l-.639-.393q.196-.55.727-.885.531-.344 1.317-.344.53 0 .964.187.432.177.678.55.255.364.255.944v2.379q0 .353.374.353.187 0 .363-.049l-.039.619a1.14 1.14 0 0 1-.511.099q-.285 0-.511-.108a.8.8 0 0 1-.354-.325 1.1 1.1 0 0 1-.128-.56v-.098l.197.029a1.33 1.33 0 0 1-.403.629q-.285.237-.639.354a2.4 2.4 0 0 1-.698.108q-.432 0-.806-.147a1.37 1.37 0 0 1-.599-.442 1.26 1.26 0 0 1-.217-.747q0-.55.364-.905.373-.363 1.032-.491l1.946-.383v.648l-1.582.325q-.481.098-.718.275a.58.58 0 0 0-.236.491q0 .305.236.501.246.187.688.187.286 0 .541-.069.265-.078.472-.226.205-.156.324-.383a1.2 1.2 0 0 0 .118-.55zm3.444-4v5.927q0 .373.138.521.137.137.442.137.197 0 .324-.029.128-.03.344-.108l-.127.688q-.158.069-.344.098a2 2 0 0 1-.384.039q-.6 0-.894-.324-.285-.324-.285-.993v-5.956zm1.888 9.033-.452-.453a5.5 5.5 0 0 0 1.032-1.248q.383-.648.551-1.376.167-.727.167-1.543 0-.826-.167-1.543a4.8 4.8 0 0 0-.551-1.376 5.3 5.3 0 0 0-1.032-1.248l.452-.452a5.9 5.9 0 0 1 1.573 2.064q.531 1.169.531 2.555t-.531 2.556a6.1 6.1 0 0 1-1.573 2.064"/><rect width="373.495" height="30.715" x="27.612" y="217.182" fill="#e6f0fe" rx="2.15"/><rect width="373.495" height="30.715" x="27.612" y="217.182" stroke="#0266f3" stroke-dasharray="3.07 3.07" stroke-width=".614" rx="2.15"/><path fill="#0266f3" d="M44.444 228.63a2.46 2.46 0 0 0-3.476 0l-2.785 2.786a1.53 1.53 0 0 0-.334 1.675 1.53 1.53 0 0 0 1.42.947 1.53 1.53 0 0 0 1.085-.448l1.304-1.303a1.23 1.23 0 0 0 0-1.738l-2.172 2.172a.306.306 0 0 1-.435 0 .31.31 0 0 1 0-.435l2.786-2.787a1.23 1.23 0 0 1 1.738 0 1.23 1.23 0 0 1 0 1.737l-2.787 2.787-1.557 1.558a1.234 1.234 0 0 1-1.738 0 1.23 1.23 0 0 1 0-1.738l.059-.059a2.2 2.2 0 0 1-.431-1.305l-.496.496a2.46 2.46 0 0 0 0 3.474 2.45 2.45 0 0 0 1.737.719c.63 0 1.259-.24 1.737-.719l4.345-4.344a2.46 2.46 0 0 0 0-3.475"/><path fill="#0266f3" d="M52.366 235.539v-6.487h2.31q1.15 0 1.68.482.532.481.532 1.307 0 .492-.286.894-.285.393-.805.502v.009q.578.108.914.531.343.413.343.944 0 .825-.619 1.327-.619.49-1.769.491zm.787-.737h1.7q.698 0 1.032-.285.344-.286.344-.796 0-.522-.344-.796-.335-.285-1.032-.285h-1.7zm0-2.9h1.533q1.376 0 1.376-1.061 0-1.052-1.376-1.052h-1.533zm5.487 3.637v-4.914h.639l.108.806a1.45 1.45 0 0 1 .6-.679q.403-.226.973-.226.128 0 .275.02a.7.7 0 0 1 .265.079l-.137.717a1.3 1.3 0 0 0-.236-.059 3 3 0 0 0-.364-.019q-.305 0-.62.176a1.4 1.4 0 0 0-.51.541q-.207.354-.207.904v2.654zm5.893-5.013q.698 0 1.229.305.54.304.845.885.305.57.305 1.366t-.305 1.376q-.305.57-.845.875-.53.304-1.229.304a2.46 2.46 0 0 1-1.228-.304 2.13 2.13 0 0 1-.846-.875q-.304-.58-.304-1.376t.304-1.366q.305-.58.846-.885a2.46 2.46 0 0 1 1.228-.305m0 .679q-.501 0-.855.226-.355.226-.55.648-.187.414-.187 1.003 0 .58.187 1.002.196.423.55.649t.855.226q.502 0 .855-.226.354-.226.541-.649.197-.422.197-1.002 0-.59-.197-1.003a1.43 1.43 0 0 0-.54-.648q-.354-.226-.856-.226m9.868-.58h.875l-1.71 4.914h-.787l-1.385-3.912-1.308 3.912H69.3l-1.71-4.914h.875l1.238 4 1.337-4h.786l1.337 4zm3.718 5.012q-.718 0-1.327-.304a2.2 2.2 0 0 1-.924-.865l.668-.482q.216.452.63.708.42.255 1.011.255.522 0 .816-.196.295-.207.295-.531a.57.57 0 0 0-.138-.373q-.128-.178-.5-.256l-1.18-.246q-.718-.147-1.032-.491a1.25 1.25 0 0 1-.305-.855q0-.404.226-.737.236-.334.659-.531a2.3 2.3 0 0 1 1.012-.207q.727 0 1.229.285.501.285.747.806l-.659.433a1.15 1.15 0 0 0-.54-.629 1.6 1.6 0 0 0-.777-.207q-.354 0-.61.099a.9.9 0 0 0-.383.275.6.6 0 0 0-.128.383q0 .216.148.403.147.177.55.256l1.229.255q.689.138.963.452.275.315.275.767 0 .462-.245.816a1.6 1.6 0 0 1-.688.531 2.6 2.6 0 0 1-1.023.186m5.468 0q-.699 0-1.249-.304a2.13 2.13 0 0 1-.845-.875q-.304-.58-.304-1.376t.304-1.366q.305-.58.836-.885a2.4 2.4 0 0 1 1.209-.305q.687 0 1.17.295.49.295.746.806.256.501.256 1.131 0 .166-.01.304a2 2 0 0 1-.03.246H81.7v-.698h3.626l-.403.079q0-.708-.393-1.091-.383-.384-1.012-.384-.482 0-.836.226-.344.218-.54.639-.187.414-.187 1.003 0 .58.197 1.002.195.423.55.649.364.216.865.216.54 0 .875-.206.345-.207.55-.56l.62.363a2 2 0 0 1-.482.58 2.1 2.1 0 0 1-.678.384 2.7 2.7 0 0 1-.865.127m8.78-7.322q.256 0 .483.059.225.059.353.167l-.206.639a.7.7 0 0 0-.256-.108 1 1 0 0 0-.304-.04q-.423 0-.659.207-.236.196-.236.639v5.661h-.786v-5.74q0-.324.098-.6.099-.275.295-.471.207-.197.511-.305t.708-.108m.817 2.31v.678h-3.41v-.678zm1.445-.944a.6.6 0 0 1-.433-.157.6.6 0 0 1-.157-.433.57.57 0 0 1 .157-.422.58.58 0 0 1 .433-.167.55.55 0 0 1 .422.167.55.55 0 0 1 .167.422.6.6 0 0 1-.167.433.57.57 0 0 1-.422.157m.393.944v4.914h-.787v-4.914zm2.577-2.261v5.927q0 .373.137.521.138.137.442.137.198 0 .325-.029.128-.03.344-.108l-.128.688q-.158.068-.344.098a2 2 0 0 1-.383.039q-.6 0-.895-.324-.285-.324-.285-.993v-5.956zm4.311 7.273q-.697 0-1.248-.304a2.14 2.14 0 0 1-.845-.875q-.305-.58-.305-1.376t.305-1.366q.304-.58.835-.885a2.4 2.4 0 0 1 1.209-.305q.689 0 1.17.295.49.295.747.806.255.501.255 1.131 0 .166-.01.304a2 2 0 0 1-.029.246h-3.971v-.698h3.627l-.403.079q0-.708-.393-1.091-.383-.384-1.013-.384-.481 0-.835.226-.344.218-.541.639-.186.414-.186 1.003 0 .58.196 1.002.197.423.551.649.363.216.864.216.541 0 .875-.206.344-.207.551-.56l.619.363a2 2 0 0 1-.482.58 2.1 2.1 0 0 1-.678.384 2.7 2.7 0 0 1-.865.127m5.388 0q-.718 0-1.327-.304a2.2 2.2 0 0 1-.924-.865l.668-.482q.217.452.629.708.423.255 1.013.255.52 0 .816-.196.294-.207.294-.531a.57.57 0 0 0-.137-.373q-.127-.178-.501-.256l-1.18-.246q-.717-.147-1.032-.491a1.25 1.25 0 0 1-.305-.855q0-.404.226-.737.236-.334.659-.531a2.3 2.3 0 0 1 1.012-.207q.728 0 1.229.285t.747.806l-.659.433a1.15 1.15 0 0 0-.54-.629 1.6 1.6 0 0 0-.777-.207q-.354 0-.609.099a.9.9 0 0 0-.383.275.6.6 0 0 0-.128.383q0 .216.147.403.148.177.551.256l1.228.255q.688.138.964.452.275.315.275.767 0 .462-.246.816a1.6 1.6 0 0 1-.688.531 2.6 2.6 0 0 1-1.022.186m8.798-5.111q.698 0 1.229.305.54.304.845.885.305.57.305 1.366t-.305 1.376q-.305.57-.845.875-.531.304-1.229.304-.687 0-1.228-.304a2.13 2.13 0 0 1-.846-.875q-.304-.58-.304-1.376t.304-1.366q.305-.58.846-.885t1.228-.305m0 .679q-.501 0-.855.226a1.5 1.5 0 0 0-.55.648q-.187.414-.187 1.003 0 .58.187 1.002.196.423.55.649t.855.226.855-.226.541-.649q.196-.422.196-1.002 0-.59-.196-1.003a1.44 1.44 0 0 0-.541-.648q-.354-.226-.855-.226m3.859 4.334v-4.914h.639l.108.806q.207-.453.6-.679.403-.226.973-.226.128 0 .275.02a.7.7 0 0 1 .265.079l-.137.717a1.3 1.3 0 0 0-.236-.059 3 3 0 0 0-.364-.019q-.304 0-.619.176a1.4 1.4 0 0 0-.511.541q-.207.354-.207.904v2.654zm9.048.098q-.609 0-1.12-.304a2.2 2.2 0 0 1-.816-.875q-.305-.58-.305-1.376 0-.816.325-1.386.324-.57.855-.865a2.26 2.26 0 0 1 1.14-.305q.61 0 1.052.315.452.315.599.835l-.098.069v-3.381h.786v7.175h-.688l-.069-1.189.109-.059a1.44 1.44 0 0 1-.335.737q-.255.295-.638.452a2 2 0 0 1-.797.157m.079-.688q.472 0 .816-.236.354-.236.54-.668.197-.442.197-1.032 0-.56-.197-.963a1.4 1.4 0 0 0-.53-.619 1.4 1.4 0 0 0-.787-.217q-.747 0-1.159.511t-.413 1.357q0 .845.403 1.356.402.511 1.13.511m4.167.59v-4.914h.639l.108.806q.206-.453.6-.679.402-.226.973-.226.127 0 .275.02a.7.7 0 0 1 .265.079l-.137.717a1.3 1.3 0 0 0-.236-.059 3 3 0 0 0-.364-.019q-.305 0-.619.176a1.4 1.4 0 0 0-.511.541q-.207.354-.207.904v2.654zm6.748-3.175q0-.55-.295-.845-.295-.305-.836-.305-.51 0-.864.226-.354.217-.521.708l-.639-.393q.196-.55.727-.885.531-.344 1.317-.344.531 0 .963.187.433.177.679.551.255.363.255.943v2.379q0 .354.374.354.186 0 .363-.05l-.039.62a1.15 1.15 0 0 1-.511.098q-.285 0-.511-.108a.8.8 0 0 1-.354-.325 1.1 1.1 0 0 1-.128-.56v-.098l.197.029a1.3 1.3 0 0 1-.403.629q-.285.237-.639.354a2.4 2.4 0 0 1-.698.108q-.432 0-.806-.147a1.4 1.4 0 0 1-.6-.442 1.26 1.26 0 0 1-.216-.747q0-.55.364-.905.373-.363 1.032-.491l1.946-.383v.648l-1.582.325q-.482.098-.718.275a.58.58 0 0 0-.236.491q0 .305.236.502.246.186.688.186.285 0 .541-.068a1.6 1.6 0 0 0 .471-.227 1.1 1.1 0 0 0 .325-.383q.118-.236.118-.55zm6.835-2.644.177.698h-.069q-.481 0-.747.197-.255.186-.256.609l-.481-.246q0-.383.177-.668t.481-.432q.304-.158.669-.158zm-1.494 5.19q.698 0 1.091.324.393.315.393.846 0 .481-.324.835-.315.354-.855.541a3.4 3.4 0 0 1-1.2.196q-1.16 0-1.739-.393-.57-.393-.57-.943 0-.394.255-.708.266-.305.885-.344l-.069.147a1.4 1.4 0 0 1-.57-.295q-.226-.216-.226-.619t.295-.688q.304-.295.894-.363l.521.265h-.098q-.482.05-.688.246a.56.56 0 0 0-.197.412q0 .276.197.413.206.128.57.128zm-.904 2.084q.57 0 .933-.118.374-.118.551-.305a.58.58 0 0 0 .177-.403.5.5 0 0 0-.217-.423q-.206-.156-.756-.157h-1.514a.9.9 0 0 0-.531.157.54.54 0 0 0-.216.453q0 .363.413.579.423.217 1.16.217m-.069-6.468q.59 0 1.042.217.462.206.717.579a1.5 1.5 0 0 1 .256.865q0 .483-.256.865-.255.374-.717.59a2.5 2.5 0 0 1-1.042.207q-.974 0-1.494-.462a1.55 1.55 0 0 1-.521-1.2q0-.491.255-.865.265-.373.718-.579a2.4 2.4 0 0 1 1.042-.217m0 .639q-.512 0-.855.285a.9.9 0 0 0-.344.737q0 .453.344.738t.855.285q.51 0 .855-.285a.92.92 0 0 0 .344-.738.9.9 0 0 0-.344-.737q-.344-.285-.855-.285m9.78 1.199q0-.55-.295-.845-.295-.305-.835-.305-.511 0-.865.226-.354.217-.521.708l-.639-.393q.196-.55.727-.885.531-.344 1.317-.344.531 0 .963.187.433.177.679.551.255.363.255.943v2.379q0 .354.374.354.186 0 .363-.05l-.039.62a1.15 1.15 0 0 1-.511.098q-.285 0-.511-.108a.8.8 0 0 1-.354-.325 1.1 1.1 0 0 1-.128-.56v-.098l.197.029a1.3 1.3 0 0 1-.403.629q-.285.237-.639.354a2.4 2.4 0 0 1-.698.108q-.432 0-.806-.147a1.37 1.37 0 0 1-.599-.442 1.26 1.26 0 0 1-.217-.747q0-.55.364-.905.373-.363 1.032-.491l1.946-.383v.648l-1.582.325q-.482.098-.718.275a.58.58 0 0 0-.236.491q0 .305.236.502.246.186.688.186.285 0 .541-.068.265-.079.472-.227.206-.156.324-.383a1.2 1.2 0 0 0 .118-.55zm2.697 3.175v-4.914h.688l.069 1.1-.128-.108q.157-.393.423-.629a1.6 1.6 0 0 1 .609-.354q.354-.108.727-.108.53 0 .964.207.432.197.688.609.265.413.265 1.052v3.145h-.786v-2.87q0-.816-.354-1.13a1.2 1.2 0 0 0-.855-.325q-.354 0-.708.167a1.4 1.4 0 0 0-.59.541q-.226.373-.226 1.003v2.614zm8.002.098a2.15 2.15 0 0 1-1.936-1.179q-.305-.58-.305-1.376 0-.816.324-1.386.325-.57.856-.865a2.25 2.25 0 0 1 1.14-.305q.609 0 1.051.315.453.315.6.835l-.098.069v-3.381h.786v7.175h-.688l-.069-1.189.108-.059a1.44 1.44 0 0 1-.334.737 1.66 1.66 0 0 1-.639.452 2 2 0 0 1-.796.157m.079-.688a1.4 1.4 0 0 0 .815-.236q.355-.236.541-.668.197-.442.197-1.032 0-.56-.197-.963a1.4 1.4 0 0 0-.531-.619 1.4 1.4 0 0 0-.786-.217q-.747 0-1.16.511t-.413 1.357q0 .845.403 1.356t1.131.511m9.433.688a2.15 2.15 0 0 1-1.936-1.179q-.305-.58-.305-1.376 0-.816.324-1.386.325-.57.856-.865a2.25 2.25 0 0 1 1.14-.305q.61 0 1.051.315.453.315.6.835l-.098.069v-3.381h.786v7.175h-.688l-.069-1.189.108-.059a1.44 1.44 0 0 1-.334.737 1.66 1.66 0 0 1-.639.452 2 2 0 0 1-.796.157m.079-.688q.471 0 .816-.236.353-.236.54-.668.197-.442.197-1.032 0-.56-.197-.963a1.4 1.4 0 0 0-.531-.619 1.4 1.4 0 0 0-.786-.217q-.747 0-1.16.511t-.413 1.357q0 .845.403 1.356t1.131.511m4.167.59v-4.914h.639l.108.806q.206-.453.599-.679.403-.226.973-.226.127 0 .276.02a.7.7 0 0 1 .265.079l-.138.717a1.2 1.2 0 0 0-.236-.059 3 3 0 0 0-.363-.019q-.305 0-.619.176a1.4 1.4 0 0 0-.512.541q-.206.354-.206.904v2.654zm5.893-5.013q.698 0 1.228.305.541.304.846.885.304.57.304 1.366t-.304 1.376a2.13 2.13 0 0 1-.846.875q-.53.304-1.228.304-.688 0-1.229-.304a2.13 2.13 0 0 1-.845-.875q-.305-.58-.305-1.376t.305-1.366q.305-.58.845-.885.541-.305 1.229-.305m0 .679q-.501 0-.855.226t-.551.648q-.186.414-.186 1.003 0 .58.186 1.002.197.423.551.649t.855.226.855-.226.541-.649q.196-.422.196-1.002 0-.59-.196-1.003a1.44 1.44 0 0 0-.541-.648q-.354-.226-.855-.226m3.859 6.398v-6.978h.688l.069 1.199-.109-.138q.128-.344.384-.599.255-.266.619-.413.364-.148.786-.148.6 0 1.101.305.512.305.816.875.305.57.305 1.376 0 .796-.315 1.376-.304.57-.816.875-.51.304-1.12.304t-1.072-.295a1.73 1.73 0 0 1-.648-.766l.098-.148v3.175zm2.329-2.654q.728 0 1.13-.511.414-.51.413-1.356 0-.846-.403-1.357-.393-.51-1.11-.511-.472 0-.826.236a1.5 1.5 0 0 0-.55.649q-.197.413-.197.983 0 .56.187.983.197.422.54.658.354.226.816.226m7.183.59v-7.175h.786v2.998q.256-.442.678-.639t.924-.197a2.2 2.2 0 0 1 .963.207q.433.197.688.609.266.413.266 1.052v3.145h-.786v-2.87q0-.816-.354-1.13a1.2 1.2 0 0 0-.855-.325q-.354 0-.708.167a1.4 1.4 0 0 0-.59.551q-.226.373-.226 1.002v2.605zm8.139.098q-.697 0-1.248-.304a2.13 2.13 0 0 1-.845-.875q-.305-.58-.305-1.376t.305-1.366a2.14 2.14 0 0 1 .835-.885 2.4 2.4 0 0 1 1.209-.305q.689 0 1.17.295.492.295.747.806.255.501.255 1.131 0 .166-.009.304a2 2 0 0 1-.03.246h-3.971v-.698h3.627l-.403.079q0-.708-.393-1.091-.384-.384-1.012-.384-.482 0-.836.226a1.46 1.46 0 0 0-.54.639q-.187.414-.187 1.003 0 .58.196 1.002.197.423.551.649.363.216.865.216.54 0 .875-.206.343-.207.55-.56l.619.363a2 2 0 0 1-.481.58q-.286.246-.679.384a2.7 2.7 0 0 1-.865.127m3.619-.098v-4.914h.639l.108.806q.207-.453.599-.679.403-.226.974-.226.127 0 .275.02a.7.7 0 0 1 .265.079l-.137.717a1.3 1.3 0 0 0-.236-.059 3 3 0 0 0-.364-.019q-.305 0-.619.176a1.4 1.4 0 0 0-.511.541q-.207.354-.207.904v2.654zm5.913.098q-.698 0-1.249-.304a2.13 2.13 0 0 1-.845-.875q-.304-.58-.304-1.376t.304-1.366q.305-.58.836-.885a2.4 2.4 0 0 1 1.209-.305q.687 0 1.169.295.492.295.747.806.256.501.256 1.131 0 .166-.01.304a2 2 0 0 1-.03.246h-3.97v-.698h3.626l-.403.079q0-.708-.393-1.091-.383-.384-1.012-.384-.482 0-.836.226a1.46 1.46 0 0 0-.54.639q-.187.414-.187 1.003 0 .58.197 1.002.196.423.55.649.364.216.865.216.54 0 .875-.206.344-.207.55-.56l.619.363a2 2 0 0 1-.481.58 2.1 2.1 0 0 1-.678.384 2.7 2.7 0 0 1-.865.127"/><path fill="#232323" d="M30.065 257.056q1.334 0 2.09.74.765.731.766 2.098 0 1.368-.766 2.107-.756.731-2.09.731h-1.832v-5.676zm.07 5.031q.971 0 1.513-.576.55-.585.55-1.617t-.55-1.608q-.542-.585-1.514-.585h-1.212v4.386zm5.948-3.741q.61 0 1.075.267.473.267.74.774.266.498.266 1.195t-.266 1.204a1.87 1.87 0 0 1-.74.766q-.465.267-1.075.266-.602 0-1.075-.266a1.87 1.87 0 0 1-.74-.766q-.266-.507-.266-1.204t.266-1.195q.267-.507.74-.774a2.15 2.15 0 0 1 1.075-.267m0 .594a1.36 1.36 0 0 0-.748.198 1.3 1.3 0 0 0-.482.567q-.163.361-.163.877 0 .508.163.878.172.369.482.567t.748.198.748-.198.473-.567q.172-.37.172-.878 0-.516-.172-.877a1.25 1.25 0 0 0-.473-.567 1.36 1.36 0 0 0-.748-.198m5.157-.594q.447 0 .782.138.345.138.594.396.248.258.404.61l-.654.31q-.137-.413-.421-.628-.275-.224-.723-.224-.43 0-.74.198a1.2 1.2 0 0 0-.472.559q-.163.361-.163.877 0 .508.163.878.164.369.473.567.31.189.74.189.335 0 .576-.103a1 1 0 0 0 .404-.301q.163-.198.224-.481l.636.223q-.147.395-.404.68-.25.284-.61.438a2.1 2.1 0 0 1-.81.146q-.6 0-1.074-.266a1.87 1.87 0 0 1-.74-.766q-.267-.507-.267-1.204t.267-1.195q.267-.507.74-.774a2.15 2.15 0 0 1 1.075-.267m4.047-1.135v4.335q0 .317.18.473a.7.7 0 0 0 .465.154q.25 0 .43-.086t.327-.232l.24.576a1.4 1.4 0 0 1-.473.284 1.7 1.7 0 0 1-.619.103q-.327 0-.61-.111a1.04 1.04 0 0 1-.456-.37q-.164-.258-.172-.671V257.4zm1.565 1.221v.594h-3.113v-.594zm2.803-.086q.611 0 1.075.267.474.267.74.774.267.498.266 1.195 0 .697-.266 1.204a1.87 1.87 0 0 1-.74.766q-.465.267-1.075.266-.602 0-1.075-.266a1.87 1.87 0 0 1-.74-.766q-.266-.507-.266-1.204t.267-1.195q.266-.507.74-.774a2.15 2.15 0 0 1 1.074-.267m0 .594a1.36 1.36 0 0 0-.748.198 1.3 1.3 0 0 0-.482.567q-.163.361-.163.877 0 .508.163.878.173.369.482.567.31.198.748.198.44 0 .748-.198.31-.198.473-.567.172-.37.172-.878 0-.516-.172-.877a1.25 1.25 0 0 0-.473-.567 1.36 1.36 0 0 0-.748-.198m3.377 3.792v-4.3h.559l.094.706a1.27 1.27 0 0 1 .525-.594q.353-.198.851-.198.112 0 .241.018.139.017.232.068l-.12.628a1 1 0 0 0-.206-.051 2 2 0 0 0-.319-.018q-.266 0-.542.155a1.23 1.23 0 0 0-.447.473q-.18.31-.18.791v2.322zm4.005-6.02a.53.53 0 0 1 .344.112.65.65 0 0 1 .224.292q.077.181.077.43 0 .284-.103.56a1.5 1.5 0 0 1-.301.507 1.6 1.6 0 0 1-.533.387l-.361-.335a1.3 1.3 0 0 0 .404-.215 1.2 1.2 0 0 0 .292-.31 1 1 0 0 0 .146-.353l-.034-.017a.3.3 0 0 1-.086.043.5.5 0 0 1-.37-.043.6.6 0 0 1-.18-.172.56.56 0 0 1-.078-.31q0-.154.078-.283a.6.6 0 0 1 .197-.215.54.54 0 0 1 .284-.078m3.01 6.106q-.627 0-1.16-.266-.525-.267-.81-.757l.586-.421q.19.395.55.619.37.223.886.223.456 0 .714-.172a.55.55 0 0 0 .258-.464q0-.18-.12-.327-.112-.155-.44-.223l-1.031-.215q-.628-.13-.903-.43a1.1 1.1 0 0 1-.267-.749q0-.353.198-.645a1.4 1.4 0 0 1 .576-.464q.379-.18.886-.181.636 0 1.075.25.438.249.654.705l-.577.378a1 1 0 0 0-.473-.55 1.4 1.4 0 0 0-.68-.181q-.309 0-.532.086a.8.8 0 0 0-.336.241.56.56 0 0 0 .017.688q.13.155.482.224l1.075.223q.602.122.843.396.24.275.24.671 0 .404-.214.714a1.4 1.4 0 0 1-.602.464 2.3 2.3 0 0 1-.895.163m5.919-.086v-4.3h.559l.094.706a1.27 1.27 0 0 1 .525-.594q.353-.198.851-.198.112 0 .241.018.138.017.232.068l-.12.628a1 1 0 0 0-.207-.051 2 2 0 0 0-.318-.018q-.266 0-.541.155a1.23 1.23 0 0 0-.448.473q-.18.31-.18.791v2.322zm5.173.086q-.61 0-1.092-.266a1.87 1.87 0 0 1-.74-.766q-.266-.507-.266-1.204t.267-1.195q.265-.507.73-.774t1.058-.267q.603 0 1.024.258.43.258.653.706.225.438.224.989 0 .146-.009.266t-.025.215h-3.475v-.61h3.174l-.353.068q0-.619-.344-.954-.336-.336-.886-.336-.42 0-.73.198-.303.19-.474.559-.163.361-.163.877 0 .508.172.878.172.369.481.567.32.189.757.189.473 0 .766-.18.3-.181.481-.49l.542.318q-.164.292-.421.507a1.8 1.8 0 0 1-.594.336 2.4 2.4 0 0 1-.757.111m3.166 1.72v-6.106h.602l.06 1.05-.094-.121q.112-.301.335-.524.225-.233.542-.362.32-.129.688-.129.525 0 .964.267.447.267.713.765.267.5.267 1.204 0 .697-.275 1.204a1.88 1.88 0 0 1-1.694 1.032q-.534 0-.938-.258a1.5 1.5 0 0 1-.567-.67l.085-.129v2.777zm2.039-2.322q.636 0 .989-.447.36-.447.361-1.187 0-.74-.353-1.186-.344-.448-.971-.448a1.27 1.27 0 0 0-.723.207 1.3 1.3 0 0 0-.482.567 2 2 0 0 0-.172.86q0 .49.164.86.172.37.473.577.309.197.714.197m5.134-3.87q.61 0 1.075.267.473.267.74.774.266.498.266 1.195t-.267 1.204a1.87 1.87 0 0 1-.74.766q-.463.267-1.074.266-.603 0-1.075-.266a1.87 1.87 0 0 1-.74-.766q-.267-.507-.267-1.204t.267-1.195q.266-.507.74-.774a2.15 2.15 0 0 1 1.075-.267m0 .594a1.36 1.36 0 0 0-.748.198 1.3 1.3 0 0 0-.482.567q-.165.361-.164.877 0 .508.164.878.172.369.481.567.31.198.749.198.438 0 .748-.198t.473-.567q.172-.37.172-.878 0-.516-.172-.877a1.25 1.25 0 0 0-.473-.567 1.36 1.36 0 0 0-.748-.198m3.376 3.792v-4.3h.56l.094.706a1.27 1.27 0 0 1 .524-.594q.354-.198.852-.198.112 0 .24.018.138.017.233.068l-.12.628a1 1 0 0 0-.207-.051 2 2 0 0 0-.318-.018q-.267 0-.542.155a1.23 1.23 0 0 0-.447.473q-.18.31-.18.791v2.322zm4.265-5.521v4.335q0 .317.18.473.181.154.465.154.25 0 .43-.086t.327-.232l.241.576a1.4 1.4 0 0 1-.473.284 1.7 1.7 0 0 1-.62.103q-.325 0-.61-.111a1.04 1.04 0 0 1-.456-.37q-.163-.258-.172-.671V257.4zm1.566 1.221v.594H87.57v-.594zm1.367 3.268q.249 0 .404.155a.55.55 0 0 1 .154.404.55.55 0 0 1-.154.405.55.55 0 0 1-.404.154.55.55 0 0 1-.405-.154.55.55 0 0 1-.154-.405q0-.25.154-.404a.55.55 0 0 1 .404-.155m1.94 2.838v-6.106h.602l.06 1.05-.094-.121q.111-.301.335-.524.224-.233.542-.362t.688-.129q.524 0 .963.267.447.267.714.765.266.5.266 1.204 0 .697-.275 1.204a1.88 1.88 0 0 1-1.694 1.032q-.533 0-.937-.258a1.5 1.5 0 0 1-.568-.67l.086-.129v2.777zm2.038-2.322q.636 0 .99-.447.36-.447.36-1.187t-.352-1.186q-.344-.448-.972-.448a1.27 1.27 0 0 0-.722.207 1.3 1.3 0 0 0-.482.567 2 2 0 0 0-.172.86q0 .49.163.86.173.37.473.577.31.197.714.197m3.354.516v-4.3h.602l.06.964-.112-.095a1.43 1.43 0 0 1 .903-.86q.31-.095.637-.095.463 0 .843.181.377.172.602.533.231.362.232.92v2.752h-.688v-2.511q0-.713-.31-.989a1.05 1.05 0 0 0-.748-.284q-.31 0-.619.147a1.2 1.2 0 0 0-.516.473q-.198.326-.198.877v2.287zm8.945-5.091.155.611h-.06q-.422 0-.654.172-.223.163-.223.533l-.422-.215q0-.336.155-.585a1 1 0 0 1 .422-.378q.266-.138.584-.138zm-1.307 4.541q.61 0 .955.284.344.275.344.739 0 .422-.284.731a1.7 1.7 0 0 1-.748.473q-.465.172-1.05.172-1.014 0-1.522-.344-.498-.344-.499-.825 0-.344.224-.619.232-.267.774-.301l-.06.129a1.2 1.2 0 0 1-.499-.258q-.198-.19-.198-.542t.258-.602q.267-.258.783-.318l.456.232h-.086q-.422.042-.602.215a.5.5 0 0 0-.172.361q0 .241.172.361.18.112.498.112zm-.791 1.823q.498 0 .817-.103.327-.103.481-.267a.5.5 0 0 0 .155-.352.44.44 0 0 0-.189-.37q-.18-.138-.662-.138h-1.325a.77.77 0 0 0-.464.138.47.47 0 0 0-.189.396q0 .318.361.507.37.189 1.015.189m-.06-5.659q.516 0 .911.19.405.18.628.507.224.327.224.757 0 .421-.224.757a1.53 1.53 0 0 1-.628.516q-.395.18-.911.18-.852 0-1.308-.404a1.36 1.36 0 0 1-.455-1.049q0-.43.223-.757.232-.327.628-.507a2.1 2.1 0 0 1 .912-.19m0 .559q-.447 0-.749.25a.78.78 0 0 0-.301.645q0 .394.301.645.302.249.749.249t.748-.249a.8.8 0 0 0 .301-.645q0-.405-.301-.645a1.13 1.13 0 0 0-.748-.25"/><path stroke="#292d32" stroke-linecap="round" stroke-linejoin="round" stroke-width=".921" d="m392.512 256.338 5.212 5.212"/><path stroke="#292d32" stroke-linecap="round" stroke-linejoin="round" stroke-width=".921" d="m392.514 261.55 5.213-5.212"/><g filter="url(#filter1_d_6028_34820)"><rect width="182.448" height="26.286" x="28.227" y="285.191" fill="#fff" rx="4.914"/><rect width="181.833" height="25.672" x="28.534" y="285.499" stroke="#d0d5dd" stroke-width=".614" rx="4.607"/><path fill="#344054" d="M109.348 299.545q-.187.63-.59 1.052a2.5 2.5 0 0 1-.953.629q-.55.206-1.209.206-.963 0-1.671-.403a2.73 2.73 0 0 1-1.081-1.15q-.374-.747-.374-1.789t.374-1.788a2.73 2.73 0 0 1 1.081-1.15q.708-.403 1.651-.403.669 0 1.209.186.54.177.914.551.383.373.56.943l-1.228.521q-.168-.59-.511-.835-.345-.255-.885-.256a1.7 1.7 0 0 0-.934.256q-.393.255-.609.757-.216.491-.216 1.218 0 .718.196 1.219.207.502.6.757.393.256.963.256.531 0 .914-.285.393-.286.551-.865zm3.819-1.346q0-.423-.245-.659-.237-.236-.629-.236-.364 0-.639.187-.276.187-.403.619l-1.15-.354q.167-.648.727-1.042.57-.393 1.524-.393.648 0 1.13.207.481.197.747.599.275.403.275 1.013v1.995q0 .373.354.373a1 1 0 0 0 .315-.049l-.079.836q-.255.127-.639.127a1.55 1.55 0 0 1-.619-.118.96.96 0 0 1-.433-.353 1.1 1.1 0 0 1-.157-.61v-.039l.236-.039a1.13 1.13 0 0 1-.324.639 1.8 1.8 0 0 1-.649.393 2.3 2.3 0 0 1-.777.137q-.5 0-.865-.147a1.25 1.25 0 0 1-.56-.452q-.196-.295-.196-.728 0-.55.354-.894.353-.354 1.012-.482l1.848-.373-.01.835-1.18.236a1.5 1.5 0 0 0-.511.187q-.167.108-.167.364 0 .245.177.373a.77.77 0 0 0 .442.128q.207 0 .403-.049t.354-.158a.7.7 0 0 0 .246-.294q.088-.188.088-.453zm2.843 3.135v-4.914h1.209l.079 1.474-.167-.157q.118-.482.373-.797.256-.314.619-.461a2.1 2.1 0 0 1 .816-.158q.511 0 .904.197.404.197.629.599.237.394.236.993v3.224h-1.346v-2.841q0-.628-.246-.864a.86.86 0 0 0-.639-.246q-.275 0-.54.137a1 1 0 0 0-.423.423q-.157.295-.157.786v2.605zm8.317-5.013q.659 0 1.11.197.462.186.738.521.285.324.402.727l-1.258.452q-.098-.442-.334-.668t-.639-.226q-.373 0-.639.177a1.04 1.04 0 0 0-.403.521q-.137.343-.137.865 0 .52.137.865.148.343.413.511.276.167.639.167.296 0 .501-.099a.9.9 0 0 0 .335-.304q.137-.197.186-.472l1.219.393a1.8 1.8 0 0 1-.403.777 2 2 0 0 1-.757.521 2.9 2.9 0 0 1-1.071.186q-.757 0-1.337-.304a2.14 2.14 0 0 1-.894-.875q-.315-.57-.315-1.376t.315-1.376q.314-.57.884-.875t1.308-.305m5.597 5.111q-.777 0-1.357-.304a2.15 2.15 0 0 1-.884-.875q-.315-.57-.315-1.376t.315-1.376q.314-.57.875-.875.57-.305 1.297-.305.747 0 1.268.305.521.295.796.816.275.511.275 1.169 0 .197-.01.374a4 4 0 0 1-.029.314h-3.922v-.933h3.332l-.649.236q0-.62-.285-.954-.274-.334-.786-.334-.373 0-.649.177a1.1 1.1 0 0 0-.403.531q-.137.344-.137.874 0 .522.147.865.157.334.433.502.285.167.678.167.432 0 .698-.167.265-.168.413-.462l1.071.412a1.7 1.7 0 0 1-.482.659 2.2 2.2 0 0 1-.757.423 3 3 0 0 1-.933.137m4.738-7.165v5.553q0 .344.118.482.119.138.393.138.167 0 .276-.02l.275-.079-.118.885a1.3 1.3 0 0 1-.423.147 2 2 0 0 1-.491.059q-.718 0-1.052-.344-.324-.354-.324-1.12v-5.701z"/></g><g filter="url(#filter2_d_6028_34820)"><rect width="182.448" height="26.286" x="218.047" y="285.191" fill="#0266f3" rx="4.914"/><rect width="181.833" height="25.672" x="218.354" y="285.499" stroke="#0266f3" stroke-width=".614" rx="4.607"/><path fill="#fff" d="M273.484 294.749q.884 0 1.553.304.667.305 1.14.905l-.757.874q-.404-.51-.885-.747a2.36 2.36 0 0 0-1.101-.245 1.9 1.9 0 0 0-.688.108.87.87 0 0 0-.393.285.7.7 0 0 0-.118.393q0 .266.207.452.206.177.707.295l1.209.275q.963.216 1.376.649.423.423.423 1.101 0 .639-.334 1.101a2.13 2.13 0 0 1-.934.697q-.6.236-1.376.236-.678 0-1.248-.157a4 4 0 0 1-1.003-.452 3 3 0 0 1-.737-.659l.767-.914q.225.315.56.561.334.245.757.393.433.137.904.137.404 0 .678-.088a.9.9 0 0 0 .423-.266.64.64 0 0 0 .147-.422.6.6 0 0 0-.177-.433q-.167-.186-.629-.285l-1.317-.295a4.3 4.3 0 0 1-.983-.353 1.7 1.7 0 0 1-.619-.57 1.64 1.64 0 0 1-.206-.836q0-.58.314-1.042.315-.462.905-.727.599-.275 1.435-.275m5.5 6.683q-.491 0-.885-.177a1.4 1.4 0 0 1-.629-.56q-.226-.393-.226-1.012v-3.263h1.347v2.938q0 .57.236.797.236.216.678.216.207 0 .403-.069a1.07 1.07 0 0 0 .59-.639q.088-.255.088-.599v-2.644h1.347v4.914h-1.199l-.05-.855q-.245.492-.678.727-.423.226-1.022.226m7.255 0q-.452 0-.825-.186a1.8 1.8 0 0 1-.61-.531 2.1 2.1 0 0 1-.324-.767l.138-.177-.079 1.563h-1.189v-7.067h1.346v3.538l-.128-.206q.158-.55.6-.914.442-.363 1.111-.364.58 0 1.051.305.473.305.737.875.276.57.276 1.386 0 .796-.276 1.366a2 2 0 0 1-.747.875 1.95 1.95 0 0 1-1.081.304m-.403-1.032q.54 0 .846-.383.314-.393.314-1.14t-.305-1.131q-.304-.393-.845-.393-.354 0-.609.187a1.24 1.24 0 0 0-.403.531 2.2 2.2 0 0 0-.138.816q0 .482.138.825.147.334.403.511.266.177.599.177m3.676.934v-4.914h1.209l.049.884q.246-.49.668-.737.433-.246.954-.246.53 0 .953.246.433.246.649.727.157-.324.422-.54.266-.216.59-.325.324-.108.659-.108.481 0 .874.197.404.196.639.59.236.393.236 1.002v3.224h-1.346v-2.958q0-.541-.236-.767a.84.84 0 0 0-.61-.226q-.294 0-.55.147a1.04 1.04 0 0 0-.393.443q-.138.285-.138.717v2.644h-1.346v-2.958q0-.541-.246-.767a.84.84 0 0 0-.609-.226 1.1 1.1 0 0 0-.512.137 1.1 1.1 0 0 0-.412.433q-.158.294-.158.776v2.605zm9.969-5.622q-.422 0-.629-.177-.206-.187-.206-.541 0-.363.206-.54.207-.187.629-.187t.629.187q.207.177.207.54 0 .354-.207.541-.206.177-.629.177m.669.708v4.914h-1.347v-4.914zm3.167-1.504v4.816q0 .353.177.521.186.157.501.157.246 0 .432-.069.187-.078.335-.206l.216.894a1.8 1.8 0 0 1-.59.295 2.6 2.6 0 0 1-.747.108q-.49 0-.875-.147a1.23 1.23 0 0 1-.589-.472q-.207-.324-.207-.865v-4.659zm1.572 1.504v1.002h-3.823v-1.002zm6.914-1.573q1.1 0 1.729.531.63.531.629 1.425 0 .953-.629 1.464-.628.502-1.72.502l-.137.078h-1.396v2.487h-1.337v-6.487zm-.158 2.968q.57 0 .846-.226.285-.236.285-.717 0-.482-.285-.708-.276-.236-.846-.236h-1.366v1.887zm.796.285 2.104 3.234h-1.524l-1.739-2.841zm5.229 3.332q-.777 0-1.357-.304a2.15 2.15 0 0 1-.884-.875q-.315-.57-.315-1.376t.315-1.376a2.16 2.16 0 0 1 .874-.875q.57-.305 1.298-.305.747 0 1.268.305.52.295.796.816.275.511.275 1.169 0 .197-.01.374a4 4 0 0 1-.029.314h-3.922v-.933h3.332l-.649.236q0-.62-.285-.954-.274-.334-.786-.334-.373 0-.649.177a1.1 1.1 0 0 0-.403.531q-.137.344-.137.874 0 .522.147.865.157.334.433.502.285.167.678.167.432 0 .698-.167.265-.168.412-.462l1.072.412a1.7 1.7 0 0 1-.482.659q-.315.275-.757.423a3 3 0 0 1-.933.137m6.812 1.966v-3.597l.157.177a1.74 1.74 0 0 1-.304.766 1.7 1.7 0 0 1-.6.511 1.75 1.75 0 0 1-.796.177q-.61 0-1.091-.304a2.1 2.1 0 0 1-.747-.875q-.266-.58-.266-1.386 0-.816.276-1.376a2.05 2.05 0 0 1 1.877-1.17q.451 0 .816.197.363.187.599.54.236.345.305.797l-.177.098.089-1.533h1.208v6.978zm-1.15-2.998q.354 0 .609-.177.256-.186.394-.53.147-.354.147-.836 0-.492-.147-.826a1.06 1.06 0 0 0-.394-.501 1.02 1.02 0 0 0-.599-.177q-.541 0-.855.393-.305.384-.305 1.131t.305 1.14q.305.383.845.383m5.622 1.032q-.492 0-.885-.177a1.4 1.4 0 0 1-.629-.56q-.226-.393-.226-1.012v-3.263h1.346v2.938q0 .57.236.797.237.216.679.216.205 0 .403-.069a.95.95 0 0 0 .344-.236q.156-.157.245-.403.089-.255.089-.599v-2.644h1.346v4.914h-1.199l-.049-.855q-.246.492-.678.727-.423.226-1.022.226m6.645 0q-.776 0-1.356-.304a2.15 2.15 0 0 1-.884-.875q-.315-.57-.315-1.376t.315-1.376a2.16 2.16 0 0 1 .874-.875q.57-.305 1.298-.305.747 0 1.268.305.52.295.796.816.275.511.275 1.169 0 .197-.01.374a4 4 0 0 1-.029.314h-3.922v-.933h3.332l-.649.236q0-.62-.285-.954-.274-.334-.786-.334-.373 0-.649.177a1.1 1.1 0 0 0-.403.531q-.137.344-.137.874 0 .522.147.865.157.334.432.502.286.167.679.167.432 0 .698-.167a1.14 1.14 0 0 0 .412-.462l1.072.412a1.7 1.7 0 0 1-.482.659q-.315.275-.757.423a3.1 3.1 0 0 1-.934.137m5.378 0q-.748 0-1.366-.265a2.5 2.5 0 0 1-.993-.747l.776-.786q.237.353.629.579.394.227.934.227.384 0 .61-.109.235-.117.235-.363a.36.36 0 0 0-.108-.266q-.108-.117-.432-.186l-.865-.177q-.855-.177-1.219-.531-.354-.363-.354-.934 0-.402.236-.757.246-.353.728-.57.481-.226 1.199-.226.737 0 1.277.236.551.226.865.678l-.806.787a1.4 1.4 0 0 0-.57-.521 1.5 1.5 0 0 0-.727-.187q-.275 0-.472.059a.64.64 0 0 0-.295.167.35.35 0 0 0-.098.256q0 .156.138.275.136.108.501.187l1.002.206q.728.147 1.042.501.315.345.315.836 0 .471-.256.845-.245.363-.737.58-.481.206-1.189.206m4.995-6.516v4.816q0 .353.177.521.187.157.502.157.245 0 .432-.069.187-.078.334-.206l.216.894a1.8 1.8 0 0 1-.589.295 2.6 2.6 0 0 1-.747.108q-.492 0-.875-.147a1.24 1.24 0 0 1-.59-.472q-.206-.324-.206-.865v-4.659zm1.573 1.504v1.002h-3.823v-1.002z"/></g></g><rect width="400.096" height="328.096" x="13.756" y=".452" stroke="#f5f6f7" stroke-width=".903" rx="11.548"/></g><defs><filter id="filter0_dd_6028_34820" width="427.607" height="355.607" x=".001" y="0" color-interpolation-filters="sRGB" filterUnits="userSpaceOnUse"><feFlood flood-opacity="0" result="BackgroundImageFix"/><feColorMatrix in="SourceAlpha" result="hardAlpha" values="0 0 0 0 0 0 0 0 0 0 0 0 0 0 0 0 0 0 127 0"/><feMorphology in="SourceAlpha" radius="2.661" result="effect1_dropShadow_6028_34820"/><feOffset dy="5.321"/><feGaussianBlur stdDeviation="2.661"/><feColorMatrix values="0 0 0 0 0.0627451 0 0 0 0 0.0941176 0 0 0 0 0.156863 0 0 0 0.03 0"/><feBlend in2="BackgroundImageFix" result="effect1_dropShadow_6028_34820"/><feColorMatrix in="SourceAlpha" result="hardAlpha" values="0 0 0 0 0 0 0 0 0 0 0 0 0 0 0 0 0 0 127 0"/><feMorphology in="SourceAlpha" radius="2.661" result="effect2_dropShadow_6028_34820"/><feOffset dy="13.303"/><feGaussianBlur stdDeviation="7.982"/><feColorMatrix values="0 0 0 0 0.0627451 0 0 0 0 0.0941176 0 0 0 0 0.156863 0 0 0 0.08 0"/><feBlend in2="effect1_dropShadow_6028_34820" result="effect2_dropShadow_6028_34820"/><feBlend in="SourceGraphic" in2="effect2_dropShadow_6028_34820" result="shape"/></filter><filter id="filter1_d_6028_34820" width="184.906" height="28.742" x="26.998" y="284.577" color-interpolation-filters="sRGB" filterUnits="userSpaceOnUse"><feFlood flood-opacity="0" result="BackgroundImageFix"/><feColorMatrix in="SourceAlpha" result="hardAlpha" values="0 0 0 0 0 0 0 0 0 0 0 0 0 0 0 0 0 0 127 0"/><feOffset dy=".614"/><feGaussianBlur stdDeviation=".614"/><feColorMatrix values="0 0 0 0 0.0627451 0 0 0 0 0.0941176 0 0 0 0 0.156863 0 0 0 0.05 0"/><feBlend in2="BackgroundImageFix" result="effect1_dropShadow_6028_34820"/><feBlend in="SourceGraphic" in2="effect1_dropShadow_6028_34820" result="shape"/></filter><filter id="filter2_d_6028_34820" width="184.906" height="28.742" x="216.818" y="284.577" color-interpolation-filters="sRGB" filterUnits="userSpaceOnUse"><feFlood flood-opacity="0" result="BackgroundImageFix"/><feColorMatrix in="SourceAlpha" result="hardAlpha" values="0 0 0 0 0 0 0 0 0 0 0 0 0 0 0 0 0 0 127 0"/><feOffset dy=".614"/><feGaussianBlur stdDeviation=".614"/><feColorMatrix values="0 0 0 0 0.0627451 0 0 0 0 0.0941176 0 0 0 0 0.156863 0 0 0 0.05 0"/><feBlend in2="BackgroundImageFix" result="effect1_dropShadow_6028_34820"/><feBlend in="SourceGraphic" in2="effect1_dropShadow_6028_34820" result="shape"/></filter><clipPath id="clip0_6028_34820"><rect width="401" height="329" x="13.305" fill="#fff" rx="12"/></clipPath></defs></svg>