<svg xmlns="http://www.w3.org/2000/svg" fill="none" viewBox="0 0 592 494"><g filter="url(#filter0_d_8061_109)"><rect width="585" height="484" x="3.047" fill="#fff" rx="13.739"/><rect width="583.966" height="482.966" x="3.564" y=".517" stroke="#f5f6f7" stroke-width="1.034" rx="13.222"/><path fill="#232323" d="M33.07 29.47q2.33 0 4.1.8a8 8 0 0 1 3.02 2.4l-2 2.31q-1.07-1.35-2.34-1.97-1.25-.65-2.92-.65-1.09 0-1.82.28-.7.29-1.04.76a2 2 0 0 0-.3 1.04q0 .7.54 1.2.54.46 1.87.77l3.2.73q2.55.57 3.64 1.72 1.12 1.12 1.12 2.9 0 1.7-.89 2.92-.88 1.2-2.47 1.85-1.58.62-3.64.62-1.8 0-3.3-.41a10 10 0 0 1-2.65-1.2 8 8 0 0 1-1.95-1.74l2.03-2.42a7 7 0 0 0 1.48 1.48q.88.65 2 1.04a8 8 0 0 0 2.4.37q1.06 0 1.79-.24.75-.26 1.11-.7.4-.47.4-1.12 0-.67-.47-1.14-.45-.5-1.67-.76l-3.48-.78q-1.51-.36-2.6-.93-1.07-.6-1.64-1.51-.55-.94-.55-2.21 0-1.54.84-2.76.83-1.22 2.39-1.92 1.58-.73 3.8-.73m15.6 17.68q-2.04 0-3.58-.8a5.7 5.7 0 0 1-2.34-2.32q-.83-1.5-.83-3.64 0-2.13.83-3.64a5.7 5.7 0 0 1 2.32-2.31q1.5-.8 3.43-.8 1.97 0 3.35.8a5.3 5.3 0 0 1 2.1 2.16q.74 1.35.74 3.09 0 .52-.03.99t-.08.83H44.21v-2.47h8.81l-1.72.62q0-1.63-.75-2.52-.73-.88-2.08-.88-.99 0-1.71.47-.7.46-1.07 1.4-.36.91-.36 2.31 0 1.38.39 2.3.41.88 1.14 1.32.75.44 1.8.44 1.14 0 1.84-.44a3 3 0 0 0 1.1-1.22l2.82 1.09a4.5 4.5 0 0 1-1.27 1.74q-.83.73-2 1.12a8 8 0 0 1-2.47.36m12.88-17.23v12.74q0 .93.46 1.37.5.42 1.33.42.65 0 1.14-.18.5-.21.89-.55l.57 2.37q-.62.5-1.56.78a7 7 0 0 1-1.97.28q-1.3 0-2.32-.39a3.3 3.3 0 0 1-1.56-1.24q-.54-.86-.54-2.3V30.9zm4.16 3.97v2.66H55.6v-2.66zm13.84 13.26q-1.3 0-2.34-.46a3.7 3.7 0 0 1-1.67-1.49q-.6-1.04-.6-2.68V33.9h3.57v7.77q0 1.51.62 2.11.63.57 1.8.57.54 0 1.06-.18.52-.2.91-.62.42-.42.65-1.07.24-.68.24-1.59V33.9h3.56v13h-3.17l-.13-2.26q-.65 1.3-1.8 1.92-1.12.6-2.7.6m11.03 5.2V33.89h3.2l.23 4.13-.44-.46a5 5 0 0 1 .85-2.03q.65-.89 1.64-1.38.99-.52 2.21-.52 1.59 0 2.84.8 1.24.81 1.95 2.32.72 1.48.72 3.61t-.72 3.67q-.73 1.5-2 2.31-1.25.81-2.87.81-1.71 0-2.86-.96a5 5 0 0 1-1.53-2.42l.34-.55v9.13zm6.57-7.93q1.43 0 2.24-1.01.83-1.04.83-3.02t-.8-2.99q-.78-1.04-2.21-1.04-.91 0-1.62.5-.67.46-1.06 1.37-.4.89-.4 2.16 0 1.25.37 2.16.37.9 1.04 1.4a3 3 0 0 0 1.62.47m28.44-10.53-5.25 13.8q-.63 1.77-1.4 2.81t-1.78 1.51q-.98.47-2.36.47-1.02 0-1.87-.26a6 6 0 0 1-1.46-.62l.75-2.58q.5.4 1.04.55.55.18 1.25.18.73 0 1.25-.31.55-.31.91-1.25l.44-1.12-1.43-3.38-3.98-9.8h3.96l2.47 7.8.67 2.6.8-2.76L122 33.9zm7.23-.26q1.97 0 3.45.8a5.7 5.7 0 0 1 2.34 2.32q.86 1.5.86 3.64 0 2.1-.86 3.64a5.7 5.7 0 0 1-2.34 2.31q-1.48.81-3.45.81-1.95 0-3.46-.8a6 6 0 0 1-2.37-2.32q-.83-1.53-.83-3.64 0-2.13.83-3.64a6 6 0 0 1 2.37-2.31q1.5-.81 3.46-.81m0 2.65q-1 0-1.7.47-.67.44-1.03 1.35-.37.91-.37 2.29t.37 2.29 1.04 1.38q.7.44 1.69.44.96 0 1.63-.44.7-.47 1.07-1.38t.37-2.29-.37-2.29-1.06-1.35q-.68-.47-1.64-.47m13.64 10.87q-1.3 0-2.34-.47a3.7 3.7 0 0 1-1.67-1.48q-.6-1.04-.6-2.68V33.9h3.57v7.77q0 1.51.62 2.11.63.57 1.8.57.54 0 1.06-.18.52-.2.91-.62.42-.42.65-1.07.24-.68.24-1.59V33.9h3.56v13h-3.17l-.13-2.26q-.65 1.3-1.8 1.92-1.12.6-2.7.6m11.03-.26v-13h3.09l.23 2.55q.52-1.35 1.51-2.08 1.02-.73 2.52-.73.45 0 .81.08t.6.2l-.42 3a3 3 0 0 0-.65-.16 7 7 0 0 0-.96-.05q-.78 0-1.5.39-.74.36-1.2 1.14-.47.76-.47 1.93v6.73zm23.3-13.26q1.73 0 2.93.52 1.22.5 1.95 1.38a5 5 0 0 1 1.07 1.92l-3.33 1.2q-.26-1.17-.89-1.77-.62-.6-1.69-.6-.98 0-1.69.47-.7.44-1.06 1.38-.37.9-.37 2.29t.37 2.28q.39.91 1.09 1.36.73.44 1.69.44.78 0 1.33-.26.54-.29.88-.8.36-.53.5-1.26l3.22 1.04a5 5 0 0 1-1.07 2.06q-.78.88-2 1.38t-2.83.49q-2 0-3.54-.8a5.6 5.6 0 0 1-2.37-2.32q-.83-1.5-.83-3.64 0-2.13.83-3.64a5.7 5.7 0 0 1 2.34-2.31q1.51-.81 3.46-.81m14.18 0q1.98 0 3.46.8a5.7 5.7 0 0 1 2.34 2.32q.86 1.5.86 3.64 0 2.1-.86 3.64a5.7 5.7 0 0 1-2.34 2.31q-1.48.81-3.46.81-1.95 0-3.46-.8a6 6 0 0 1-2.36-2.32q-.83-1.53-.83-3.64 0-2.13.83-3.64a6 6 0 0 1 2.36-2.31q1.51-.81 3.46-.81m0 2.65q-.99 0-1.69.47-.67.44-1.04 1.35-.36.91-.36 2.29t.36 2.29 1.04 1.38q.7.44 1.7.44.96 0 1.63-.44.7-.47 1.07-1.38t.36-2.29-.36-2.29-1.07-1.35q-.67-.47-1.64-.47m9.12 10.61v-13h3.2l.13 2.34q.65-1.3 1.77-1.95a5 5 0 0 1 2.52-.65q1.4 0 2.52.65 1.14.65 1.72 1.92a4 4 0 0 1 1.11-1.43 5 5 0 0 1 1.56-.85 6 6 0 0 1 1.75-.29q1.27 0 2.31.52 1.07.52 1.69 1.56t.62 2.65v8.53h-3.56v-7.83q0-1.43-.62-2.02-.63-.6-1.61-.6-.78 0-1.46.39-.65.39-1.04 1.17-.36.75-.36 1.9v6.99h-3.57v-7.83q0-1.43-.65-2.02-.62-.6-1.6-.6-.69 0-1.36.36-.65.37-1.1 1.15-.4.78-.4 2.05v6.89zm24.06 5.46V33.89h3.2l.23 4.13-.44-.46a5 5 0 0 1 .86-2.03 4.5 4.5 0 0 1 1.63-1.38q1-.52 2.21-.52 1.59 0 2.84.8 1.25.81 1.95 2.32.73 1.48.73 3.61t-.73 3.67q-.73 1.5-2 2.31-1.25.81-2.86.81-1.72 0-2.86-.96a5 5 0 0 1-1.54-2.42l.34-.55v9.13zm6.58-7.93q1.43 0 2.23-1.01.83-1.04.83-3.02t-.8-2.99q-.78-1.04-2.21-1.04a2.7 2.7 0 0 0-1.61.5q-.68.46-1.07 1.37-.39.89-.39 2.16 0 1.25.36 2.16t1.04 1.4a3 3 0 0 0 1.62.47m16.53-5.82q0-1.12-.65-1.75-.62-.62-1.66-.62-.96 0-1.7.5-.72.49-1.06 1.63l-3.04-.93q.44-1.72 1.92-2.76 1.51-1.04 4.03-1.04 1.72 0 3 .55 1.27.52 1.97 1.58.73 1.07.73 2.68v5.28q0 .98.93.99.45 0 .84-.13l-.21 2.2q-.68.34-1.7.34a4 4 0 0 1-1.63-.3 2.5 2.5 0 0 1-1.14-.94q-.42-.65-.42-1.62v-.1l.62-.1a3 3 0 0 1-.85 1.69q-.7.67-1.72 1.04a6 6 0 0 1-2.05.36q-1.33 0-2.3-.39-.95-.42-1.47-1.2t-.52-1.92q0-1.46.93-2.37.94-.93 2.68-1.27l4.89-.99-.03 2.21-3.12.63q-.88.18-1.35.49-.44.28-.44.96 0 .65.47.99.5.34 1.17.34.54 0 1.06-.13t.94-.42.65-.78.23-1.2zm7 8.29v-13h3.2l.2 3.9-.43-.42q.3-1.27.98-2.1a4 4 0 0 1 1.64-1.22 6 6 0 0 1 2.16-.42q1.35 0 2.4.52a4 4 0 0 1 1.66 1.59q.62 1.04.62 2.62v8.53h-3.56v-7.51q0-1.67-.65-2.3-.65-.64-1.7-.64-.72 0-1.42.36-.68.34-1.12 1.12-.42.78-.42 2.08v6.89zm27.32-13-5.25 13.8q-.63 1.77-1.4 2.81t-1.78 1.51q-.98.47-2.36.47-1.02 0-1.87-.26a6 6 0 0 1-1.46-.62l.75-2.58q.5.4 1.04.55.55.18 1.25.18.73 0 1.25-.31.55-.31.9-1.25l.45-1.12-1.43-3.38-3.98-9.8h3.96l2.47 7.8.67 2.6.8-2.76 2.37-7.64zm8.27 18.46V33.89h3.2l.23 4.13-.44-.46a5 5 0 0 1 .86-2.03 4.5 4.5 0 0 1 1.63-1.38q1-.52 2.21-.52 1.6 0 2.84.8 1.25.81 1.95 2.32.73 1.48.73 3.61t-.73 3.67q-.73 1.5-2 2.31-1.25.81-2.86.81-1.72 0-2.86-.96a5 5 0 0 1-1.54-2.42l.34-.55v9.13zm6.58-7.93q1.43 0 2.23-1.01.83-1.04.83-3.02t-.8-2.99q-.78-1.04-2.21-1.04a2.7 2.7 0 0 0-1.61.5q-.68.46-1.07 1.37-.39.89-.39 2.16 0 1.25.36 2.16.37.9 1.04 1.4a3 3 0 0 0 1.62.47m9.2 2.47v-13h3.1l.23 2.55q.52-1.35 1.5-2.08 1.02-.73 2.53-.73.44 0 .8.08t.6.2l-.42 3a3 3 0 0 0-.65-.16 7 7 0 0 0-.96-.05q-.78 0-1.5.39-.73.36-1.2 1.14-.47.76-.47 1.93v6.73zm16.12-13.26q1.98 0 3.46.8a5.7 5.7 0 0 1 2.34 2.32q.86 1.5.86 3.64 0 2.1-.86 3.64a5.7 5.7 0 0 1-2.34 2.31q-1.48.81-3.46.81-1.95 0-3.46-.8a6 6 0 0 1-2.36-2.32q-.83-1.53-.83-3.64 0-2.13.83-3.64a6 6 0 0 1 2.36-2.31q1.51-.81 3.46-.81m0 2.65q-.99 0-1.69.47-.67.44-1.04 1.35-.36.91-.36 2.29t.36 2.29 1.04 1.38q.7.44 1.7.44.96 0 1.63-.44.7-.47 1.07-1.38t.36-2.29-.36-2.29-1.07-1.35q-.67-.47-1.64-.47m14.79-8.34q.91 0 1.64.2.75.19 1.12.47l-.5 2.37a3 3 0 0 0-.65-.29 3 3 0 0 0-.86-.1q-1.01 0-1.6.47-.6.44-.6 1.53v1.8l.15.7v11.8h-3.56V32.33q0-1.1.36-1.92a4 4 0 0 1 1.02-1.38 4 4 0 0 1 1.53-.8 7 7 0 0 1 1.95-.3m2.65 5.96v2.65h-9.77V33.9zm3.93-1.87q-1.12 0-1.67-.47-.54-.5-.54-1.43 0-.96.54-1.43.55-.5 1.67-.5t1.66.5q.55.47.55 1.43 0 .94-.55 1.43-.54.47-1.66.47m1.77 1.87v13h-3.57v-13zm6.77-5.7v14.7q0 .9.31 1.27.31.36 1.04.36.44 0 .73-.05l.73-.2-.32 2.33q-.44.26-1.11.4a6 6 0 0 1-1.3.15q-1.9 0-2.79-.91-.85-.94-.85-2.96V28.2zm10.3 18.96q-2.05 0-3.59-.8a5.7 5.7 0 0 1-2.34-2.32q-.83-1.5-.83-3.64 0-2.13.83-3.64a5.7 5.7 0 0 1 2.32-2.31q1.5-.81 3.43-.81 1.98 0 3.35.8a5.3 5.3 0 0 1 2.11 2.16q.73 1.35.73 3.1 0 .52-.03.99l-.08.83H361.5v-2.47h8.81l-1.71.62q0-1.64-.76-2.52-.72-.88-2.08-.88-.98 0-1.71.46-.7.47-1.07 1.4-.36.92-.36 2.32 0 1.38.39 2.29.42.88 1.14 1.33.76.44 1.8.44 1.14 0 1.84-.44a3 3 0 0 0 1.1-1.23l2.83 1.1a4.5 4.5 0 0 1-1.28 1.74q-.83.73-2 1.12a8 8 0 0 1-2.47.36"/><path fill="#232323" d="M34.88 85.09a4 4 0 0 1-.96 1.63 4 4 0 0 1-1.5 1 5 5 0 0 1-1.9.33q-1.53 0-2.64-.65-1.12-.66-1.73-1.88t-.61-2.9.6-2.92q.62-1.22 1.74-1.87 1.11-.66 2.62-.66 1.04 0 1.87.29a4 4 0 0 1 1.44.86q.6.58.91 1.44l-1.61.72q-.32-.94-.93-1.37-.61-.45-1.58-.45t-1.72.46-1.15 1.35q-.4.88-.4 2.14 0 1.25.39 2.14.38.88 1.1 1.35.72.46 1.73.46.97 0 1.68-.5.72-.5 1.02-1.51zm5.42-5.36q1.17 0 2.06.5t1.4 1.44q.5.92.5 2.22t-.5 2.24a3.5 3.5 0 0 1-1.4 1.43q-.9.5-2.06.5t-2.06-.5a3.6 3.6 0 0 1-1.41-1.43q-.51-.94-.51-2.24t.5-2.22q.52-.95 1.42-1.44.9-.5 2.06-.5m0 1.35q-.72 0-1.23.33-.5.32-.77.95t-.27 1.53.27 1.54q.27.62.77.96.51.32 1.23.32t1.22-.32q.5-.34.76-.96.28-.64.28-1.54 0-.91-.28-1.53-.27-.63-.76-.95-.5-.33-1.22-.33m6.12 6.81v-8h1.52l.08 1.35q.42-.77 1.1-1.14.71-.37 1.5-.37.86 0 1.58.4.73.39 1.1 1.17.26-.53.7-.88a3 3 0 0 1 1-.51 4 4 0 0 1 1.07-.18q.77 0 1.44.32t1.09.98.41 1.68v5.18h-1.7v-4.91q0-.98-.47-1.4-.47-.44-1.19-.44-.56 0-1.04.27a2 2 0 0 0-.75.82q-.29.53-.29 1.31v4.35h-1.7v-4.91q0-.98-.47-1.4-.47-.44-1.19-.44-.48 0-.96.26-.48.25-.8.8-.32.54-.32 1.44v4.25zm15.19 3.36V79.9h1.52l.13 2.24-.23-.27q.2-.63.6-1.1.4-.49.99-.76a3 3 0 0 1 1.33-.27q.97 0 1.77.5T69 81.65q.46.91.46 2.22t-.48 2.26q-.47.93-1.28 1.42-.8.5-1.8.5-1.02 0-1.74-.53a3 3 0 0 1-1.02-1.37l.2-.28v5.38zm3.92-4.59q1.04 0 1.61-.74.6-.73.6-2.03t-.58-2.03q-.57-.75-1.6-.75a2 2 0 0 0-1.18.35q-.5.34-.79.96-.27.6-.27 1.47 0 .85.27 1.47.28.63.77.96t1.17.34m10.72-3.9q0-.8-.45-1.24-.43-.44-1.2-.44-.72 0-1.23.33-.51.34-.75 1.09l-1.44-.6a3 3 0 0 1 1.18-1.58q.9-.59 2.3-.59.97 0 1.7.32.74.3 1.15.93.44.62.44 1.6v3.57q0 .59.59.59.28 0 .56-.08l-.1 1.18q-.37.18-.93.18-.5 0-.93-.18a1.6 1.6 0 0 1-.64-.56q-.22-.38-.22-.94v-.11l.35-.02a2 2 0 0 1-.59 1.04q-.45.4-1.04.6a4 4 0 0 1-1.2.2q-.75 0-1.36-.24-.6-.24-.94-.72-.34-.5-.34-1.21 0-.9.58-1.48.59-.57 1.66-.78l3.1-.6-.01 1.2-2.26.46q-.67.12-1 .36t-.34.7a.9.9 0 0 0 .33.73q.36.25.93.25.4 0 .77-.1.38-.09.69-.3.3-.22.46-.56a2 2 0 0 0 .18-.83zm4.5 5.13v-8h1.52l.11 2.08-.22-.22q.22-.7.64-1.14.43-.46 1-.67.6-.2 1.25-.2.85 0 1.52.33a2.5 2.5 0 0 1 1.1.97q.4.66.4 1.67v5.18h-1.72v-4.65q0-1.19-.5-1.64-.48-.46-1.21-.46-.53 0-1.03.26-.5.24-.83.78t-.32 1.46v4.25zm16.68-8-3.5 8.95q-.36.92-.77 1.47-.4.54-.93.78t-1.23.24q-.58 0-1.07-.16a3 3 0 0 1-.85-.4l.41-1.33q.3.26.64.39.36.13.76.13.43 0 .76-.24.36-.23.63-.92l.35-.86-.85-1.98-2.5-6.07h1.93l1.77 5.03.47 1.5.52-1.65 1.68-4.88zm15.17-2.56V87.9h-2.03l-4.08-6.65-1.03-1.88h-.01l.06 1.72v6.81h-1.57V77.33h2.02l4.06 6.64 1.04 1.9h.02l-.06-1.72v-6.82zm7.43 5.43q0-.8-.45-1.24-.43-.44-1.2-.44-.72 0-1.23.33-.51.34-.75 1.09l-1.44-.6a3 3 0 0 1 1.18-1.58q.9-.59 2.3-.59.97 0 1.7.32.74.3 1.15.93.44.62.44 1.6v3.57q0 .59.59.59.29 0 .56-.08l-.1 1.18q-.37.18-.93.18-.5 0-.92-.18a1.6 1.6 0 0 1-.64-.56q-.23-.38-.23-.94v-.11l.35-.02a2 2 0 0 1-.59 1.04q-.45.4-1.04.61a4 4 0 0 1-1.2.2q-.75 0-1.36-.25-.59-.24-.94-.72-.34-.5-.34-1.21 0-.9.58-1.48.59-.57 1.66-.78l3.1-.6-.01 1.2-2.26.46q-.67.12-1 .36t-.34.7a.9.9 0 0 0 .34.73q.35.25.92.25.4 0 .77-.1.39-.09.69-.3.3-.22.46-.56.18-.35.18-.83zm4.5 5.13v-8h1.52l.08 1.35q.42-.77 1.1-1.14a3 3 0 0 1 1.5-.37q.86 0 1.58.4.73.39 1.1 1.17.26-.53.7-.88.45-.35 1-.51.54-.18 1.07-.18.77 0 1.44.32t1.09.98.41 1.68v5.18h-1.7v-4.91q0-.98-.47-1.4t-1.19-.44q-.56 0-1.04.27-.46.27-.75.82-.29.53-.29 1.31v4.35h-1.7v-4.91q0-.98-.47-1.4t-1.19-.44q-.48 0-.96.26-.48.25-.8.8-.32.54-.32 1.44v4.25zm18.7.16q-1.2 0-2.1-.5a3.5 3.5 0 0 1-1.43-1.42q-.5-.94-.5-2.24t.5-2.22q.51-.95 1.41-1.44.9-.5 2.03-.5 1.17 0 1.99.48.81.48 1.25 1.31t.43 1.9q0 .28-.02.54l-.05.44h-6.43v-1.3H146l-.85.26q0-1.1-.54-1.67-.55-.59-1.49-.59-.69 0-1.2.32t-.78.96q-.27.62-.27 1.54 0 .9.28 1.52.3.62.82.94t1.25.32q.8 0 1.3-.3.49-.3.78-.85l1.36.64a3 3 0 0 1-.79 1q-.48.42-1.15.65a5 5 0 0 1-1.47.22"/><path fill="#ee312a" d="m152.41 79.81 1.3 1.31 1.18 1.64-1.05.76-1.19-1.63-.85-1.63.3-.23zm-.6 0 .3.23.3.22-.85 1.63-1.16 1.63-1.06-.76 1.18-1.64zm-3.14-1.57 1.92.63 1.65.81-.13.36-.11.36-1.81-.32-1.9-.6zm4.11-2.03-.02 2.02-.27 1.8h-.77l-.25-1.8-.02-2.02zm2.78 2.03.39 1.24-1.9.6-1.81.32-.13-.36-.11-.36 1.64-.81z"/><rect width="542" height="55" x="25.063" y="98.391" fill="#f0f2f5" rx="5.5"/><rect width="542" height="55" x="25.063" y="98.391" stroke="#c3c9d3" rx="5.5"/><path fill="#232323" d="M49.72 120.83v1.2h-3.68v9.36h-1.28v-9.36h-3.68v-1.2zm3.57 10.72q-1.14 0-2.04-.5a3.5 3.5 0 0 1-1.37-1.42q-.5-.94-.5-2.24t.5-2.22q.5-.95 1.36-1.44.86-.5 1.97-.5t1.9.48 1.21 1.31q.42.82.42 1.84 0 .27-.02.5-.01.22-.04.4H50.2v-1.14h5.9l-.65.13q0-1.15-.64-1.77-.62-.63-1.65-.63-.78 0-1.36.37-.56.35-.88 1.04-.3.67-.3 1.63 0 .94.32 1.63t.9 1.06q.59.35 1.4.35.88 0 1.43-.33.56-.34.9-.92l1 .6a3 3 0 0 1-.78.94q-.47.4-1.1.62a5 5 0 0 1-1.42.21m9.2-8.32q.84 0 1.46.26.64.25 1.1.73t.76 1.14l-1.22.58q-.25-.77-.78-1.17-.51-.42-1.34-.42-.8 0-1.38.37-.58.35-.88 1.04-.3.67-.3 1.63 0 .94.3 1.63t.88 1.06q.58.35 1.38.35.62 0 1.07-.2.46-.18.75-.55.3-.37.41-.9l1.19.42q-.27.74-.75 1.26-.47.53-1.14.82-.66.27-1.5.27-1.12 0-2-.5a3.5 3.5 0 0 1-1.38-1.42q-.5-.94-.5-2.24t.5-2.22q.5-.95 1.38-1.44.88-.5 2-.5m5.64 8.16v-11.68h1.28v4.88q.42-.72 1.1-1.04t1.5-.32q.87 0 1.58.34.7.32 1.12.99t.43 1.71v5.12h-1.28v-4.67q0-1.33-.58-1.84-.56-.53-1.4-.53-.57 0-1.14.27t-.96.9q-.37.6-.37 1.63v4.24zm18.99-10.72q1.4 0 2.4.58 1 .56 1.68 1.66l-1.07.83q-.6-1.02-1.35-1.44-.73-.43-1.79-.43-.85 0-1.4.24t-.8.64q-.26.39-.26.88 0 .56.35 1 .35.4 1.4.65l2.3.51q1.52.34 2.1 1.03.62.67.62 1.68 0 .89-.52 1.6-.5.68-1.4 1.07t-2.15.38q-1.15 0-2.03-.3a5 5 0 0 1-1.49-.85 5 5 0 0 1-1.02-1.19l1.12-.9q.3.6.78 1.06t1.15.72q.7.26 1.57.26.82 0 1.41-.2.6-.2.93-.58a1.5 1.5 0 0 0 .32-.96q0-.52-.34-.92-.33-.41-1.26-.62l-2.48-.56q-.98-.22-1.59-.6-.59-.4-.86-.94a3 3 0 0 1-.26-1.16q0-.85.47-1.56.48-.72 1.36-1.15.9-.43 2.11-.43m8.5.45v8.06q0 .6.34.88.34.3.87.3.46 0 .8-.17.33-.16.6-.43l.45 1.07q-.37.34-.88.53a3 3 0 0 1-1.15.2q-.6 0-1.14-.22a2 2 0 0 1-.84-.69q-.3-.48-.32-1.24v-7.94zm2.92 2.27v1.1h-5.8v-1.1zm4.8 8.16q-.77 0-1.46-.29a2.5 2.5 0 0 1-1.1-.93q-.42-.65-.42-1.7v-5.24h1.28v4.91q0 1.22.53 1.68t1.49.45q.45 0 .88-.14.43-.16.77-.48.35-.34.54-.85t.2-1.22v-4.35h1.29v8h-1.12l-.08-1.22q-.42.72-1.14 1.06-.7.32-1.66.32m10.1 0a3.5 3.5 0 0 1-1.83-.5q-.83-.5-1.33-1.42-.5-.94-.5-2.24 0-1.33.54-2.26.52-.92 1.39-1.4a4 4 0 0 1 1.85-.5q1 0 1.72.51.73.51.97 1.36l-.16.11v-5.5h1.28v11.68h-1.12l-.11-1.94.18-.1a2.4 2.4 0 0 1-.55 1.2q-.41.49-1.04.74-.6.26-1.3.26m.13-1.12q.77 0 1.33-.38.58-.39.88-1.1.32-.71.32-1.67 0-.91-.32-1.57a2.3 2.3 0 0 0-.86-1q-.55-.36-1.28-.36-1.22 0-1.89.83t-.67 2.21.65 2.2 1.84.84m7.43-8.58q-.43 0-.7-.25-.26-.27-.26-.7 0-.44.25-.7.28-.27.7-.27.44 0 .7.28.27.25.27.68t-.27.7-.7.26m.65 1.54v8h-1.28v-8zm6.28-.16q1.14 0 2 .5.88.5 1.38 1.44.5.92.5 2.22t-.5 2.24a3.5 3.5 0 0 1-1.38 1.42q-.86.5-2 .5-1.12 0-2-.5a3.5 3.5 0 0 1-1.38-1.42q-.5-.94-.5-2.24t.5-2.22a3.5 3.5 0 0 1 1.38-1.44q.88-.5 2-.5m0 1.1q-.82 0-1.4.37-.57.37-.89 1.06-.3.67-.3 1.63 0 .94.3 1.63.32.69.9 1.06.57.37 1.39.37t1.4-.37.87-1.06.32-1.63q0-.96-.32-1.63a2.3 2.3 0 0 0-.88-1.06q-.57-.37-1.4-.37m19.76 7.06h-1.36l-1.12-2.93h-4.78l-1.12 2.93h-1.35l4.11-10.56h1.52zm-6.8-4.13h3.86l-1.94-5.2zm11.88-4.03q.83 0 1.45.26.64.25 1.1.73t.76 1.14l-1.22.57q-.25-.76-.78-1.16-.51-.42-1.34-.42-.8 0-1.38.37-.58.35-.88 1.04-.3.67-.3 1.63 0 .94.3 1.63t.88 1.06q.58.35 1.38.35.62 0 1.07-.2a2 2 0 0 0 .75-.55q.3-.37.42-.9l1.18.42q-.27.73-.75 1.26-.47.53-1.14.82-.65.27-1.5.27-1.12 0-2-.5a3.5 3.5 0 0 1-1.38-1.42q-.5-.94-.5-2.24t.5-2.22q.5-.95 1.38-1.44.88-.5 2-.5m10.31 3q0-.9-.48-1.38-.48-.5-1.36-.5-.83 0-1.4.37-.58.35-.85 1.15l-1.04-.64q.32-.9 1.18-1.44.86-.56 2.14-.56.87 0 1.57.3t1.1.9q.42.6.42 1.54v3.87q0 .57.6.57.31 0 .6-.08l-.06 1.01q-.32.16-.83.16-.47 0-.84-.17a1.3 1.3 0 0 1-.57-.53q-.21-.37-.21-.91v-.16l.32.04a2 2 0 0 1-.66 1.03q-.46.38-1.04.57a4 4 0 0 1-1.13.18q-.7 0-1.31-.24t-.98-.72q-.35-.5-.35-1.22 0-.9.59-1.47.6-.59 1.68-.8l3.17-.62v1.05l-2.58.53q-.78.16-1.17.45t-.38.8q0 .5.38.82.4.3 1.12.3.47 0 .88-.11.44-.13.77-.37.34-.26.53-.62a2 2 0 0 0 .2-.9zm7.51 5.32a3.5 3.5 0 0 1-1.82-.5q-.84-.5-1.33-1.42-.5-.94-.5-2.24 0-1.33.53-2.26t1.4-1.4a4 4 0 0 1 1.85-.5q1 0 1.71.51.74.51.98 1.36l-.16.11v-5.5h1.28v11.68h-1.12l-.12-1.94.18-.1a2.4 2.4 0 0 1-.54 1.2q-.42.49-1.04.74-.61.26-1.3.26m.13-1.12q.77 0 1.33-.38.57-.39.88-1.1t.32-1.67q0-.91-.32-1.57a2.3 2.3 0 0 0-.87-1q-.54-.36-1.28-.36-1.21 0-1.89.83t-.67 2.21.66 2.2 1.84.84m10.13 1.12q-1.14 0-2.04-.5a3.5 3.5 0 0 1-1.37-1.42q-.5-.94-.5-2.24t.5-2.22q.5-.95 1.36-1.44.86-.5 1.97-.5 1.12 0 1.9.48.8.48 1.22 1.31.41.82.41 1.84l-.01.5-.05.4h-6.47v-1.14h5.9l-.65.13q0-1.15-.64-1.78-.62-.62-1.65-.62-.78 0-1.36.37-.56.35-.88 1.04-.3.67-.3 1.63 0 .94.32 1.63t.9 1.06q.59.35 1.4.35.88 0 1.43-.34.56-.33.9-.9l1 .58a3 3 0 0 1-.78.95 3 3 0 0 1-1.1.62 5 5 0 0 1-1.41.21m5.89-.16v-8h1.12l.08 1.25q.43-.74 1.12-1.07a3 3 0 0 1 1.44-.34q.84 0 1.6.38.75.39 1.15 1.19.25-.55.72-.88a3 3 0 0 1 1-.51 4 4 0 0 1 1.06-.18q.77 0 1.46.32a2.7 2.7 0 0 1 1.15 1q.45.66.45 1.72v5.12h-1.28v-5q0-1.08-.55-1.56-.54-.48-1.34-.48a2.4 2.4 0 0 0-1.17.3 2.3 2.3 0 0 0-.88.9q-.32.6-.32 1.46v4.38h-1.28v-5q0-1.08-.54-1.56-.55-.48-1.35-.48-.52 0-1.08.29-.55.27-.92.88-.36.6-.36 1.6v4.27zm21.6-8-3.76 9.34q-.3.79-.67 1.24-.35.46-.8.65a2 2 0 0 1-1 .21q-.55 0-1.01-.16a3 3 0 0 1-.8-.4l.35-1.12q.32.29.67.42.37.14.72.14.42 0 .78-.26.37-.25.68-1.04l.41-1.04-.8-1.9-2.54-6.08h1.45l2 5.22.5 1.42.58-1.58 1.87-5.06z"/><path fill="#232323" d="M27.84 176.33v10.56h-1.71v-10.56zm2.83 10.56v-8h1.52l.11 2.08-.22-.22q.22-.7.64-1.14.43-.46 1-.67.6-.2 1.26-.2.84 0 1.52.33.68.32 1.08.97.4.66.4 1.67v5.18h-1.7v-4.65q0-1.19-.5-1.64-.48-.46-1.22-.46-.53 0-1.02.26-.5.24-.84.78-.32.54-.32 1.45v4.26zm12.98.16a3.4 3.4 0 0 1-1.8-.5q-.8-.5-1.27-1.42-.47-.93-.47-2.22 0-1.35.5-2.28t1.33-1.4a3.5 3.5 0 0 1 1.82-.5q1.03 0 1.73.56a2.7 2.7 0 0 1 .94 1.46l-.19.17v-5.63h1.71v11.6h-1.52l-.12-2.18.22.02q-.11.72-.53 1.25a3 3 0 0 1-1.04.8 3 3 0 0 1-1.31.27m.37-1.38q.69 0 1.18-.35.5-.35.77-.99t.27-1.54q0-.83-.27-1.42-.27-.6-.77-.93a2 2 0 0 0-1.12-.32q-1.07 0-1.66.74-.6.73-.6 2.03t.58 2.05q.58.73 1.62.73m9.44 1.38a4 4 0 0 1-1.46-.29 2.3 2.3 0 0 1-1.05-.93q-.4-.64-.4-1.66v-5.28h1.7v4.85q0 1.09.47 1.5t1.3.4q.4 0 .77-.13.38-.14.68-.43.3-.3.47-.77.17-.46.17-1.08v-4.34h1.72v8h-1.5l-.09-1.3q-.41.76-1.12 1.1-.7.36-1.66.36m10.08 0q-1.2 0-2.2-.46a4 4 0 0 1-1.56-1.31l1.18-1.03q.36.66 1.01 1.06.67.38 1.6.38.74 0 1.17-.25.43-.26.43-.72a.8.8 0 0 0-.2-.53q-.2-.24-.76-.37l-1.68-.35q-1.28-.26-1.82-.82-.55-.58-.55-1.45 0-.66.39-1.22.38-.56 1.12-.9.75-.35 1.79-.35 1.2 0 2.05.43.84.42 1.3 1.2l-1.2 1a2 2 0 0 0-.89-.95 2.6 2.6 0 0 0-1.23-.32 3 3 0 0 0-.88.13q-.37.13-.56.35a.8.8 0 0 0-.2.53q0 .32.25.56t.86.37l1.83.38q1.15.22 1.61.77.48.53.48 1.3t-.4 1.35-1.15.9-1.8.32m7.77-10.51v7.95q0 .6.3.86.33.28.86.28.43 0 .75-.13.32-.15.59-.39l.38 1.25a3 3 0 0 1-.9.51 4 4 0 0 1-1.2.18q-.68 0-1.26-.22a2 2 0 0 1-.9-.72q-.31-.52-.33-1.33v-7.76zm2.76 2.35v1.34h-6v-1.34zm1.69 8v-8h1.46l.16 1.44q.32-.78.94-1.18.64-.42 1.57-.42.24 0 .48.05.24.03.4.11l-.24 1.5a2 2 0 0 0-.4-.1 3 3 0 0 0-.58-.04q-.5 0-.97.27a2 2 0 0 0-.8.79q-.3.52-.3 1.34v4.24zm13.65-8-3.5 8.94q-.36.93-.77 1.48-.4.54-.93.78t-1.23.24q-.58 0-1.08-.16a3 3 0 0 1-.84-.4l.41-1.33q.3.26.64.39.35.12.75.12.44 0 .77-.24.35-.22.63-.9l.35-.87-.85-1.99-2.5-6.06h1.92l1.78 5.02.46 1.5.53-1.64 1.68-4.88z"/><path fill="#ee312a" d="m94.44 178.81 1.3 1.31 1.18 1.64-1.05.76-1.19-1.63-.84-1.63.3-.22zm-.6 0 .3.23.3.22-.84 1.63-1.17 1.63-1.06-.77 1.18-1.63zm-3.14-1.57 1.92.63 1.65.81-.13.35-.11.37-1.81-.32-1.9-.6zm4.11-2.03-.02 2.02-.27 1.8h-.77l-.25-1.8-.02-2.02zm2.78 2.03.39 1.23-1.9.61-1.81.32-.13-.37-.11-.35 1.64-.81z"/><rect width="542" height="55" x="25.063" y="197.391" fill="#fff" rx="5.5"/><rect width="542" height="55" x="25.063" y="197.391" stroke="#2d80f5" rx="5.5"/><g clip-path="url(#clip0_8061_109)"><path fill="#98a2b3" d="M45.68 219.67q1.4 0 2.4.58 1.01.56 1.68 1.66l-1.07.83q-.6-1.02-1.34-1.44-.74-.43-1.8-.43-.84 0-1.4.24t-.8.64q-.26.38-.26.88 0 .56.35 1 .36.4 1.41.65l2.29.51q1.52.34 2.11 1.02.6.68.6 1.68 0 .9-.5 1.6t-1.41 1.08-2.15.38q-1.15 0-2.03-.3a5 5 0 0 1-1.49-.85 5 5 0 0 1-1.02-1.19l1.12-.9q.3.6.78 1.06t1.16.72q.69.26 1.56.26.82 0 1.41-.2.61-.2.93-.58a1.5 1.5 0 0 0 .32-.96q0-.52-.34-.92-.33-.41-1.26-.62l-2.48-.56q-.98-.22-1.58-.6-.6-.4-.87-.94a3 3 0 0 1-.25-1.16q0-.85.46-1.56.48-.72 1.36-1.15.9-.43 2.11-.43m9.96 10.88q-1.13 0-2.03-.5a3.5 3.5 0 0 1-1.38-1.42q-.49-.94-.49-2.24t.5-2.22q.5-.95 1.35-1.44.87-.5 1.97-.5 1.12 0 1.9.48.8.48 1.22 1.31.42.82.42 1.84 0 .27-.02.5-.01.22-.05.4h-6.46v-1.14h5.9l-.65.13q0-1.15-.64-1.78-.62-.62-1.65-.62-.78 0-1.36.37-.56.35-.88 1.04-.3.67-.3 1.63 0 .94.32 1.63t.9 1.06q.59.35 1.4.35.88 0 1.42-.34.56-.33.9-.9l1 .58a3 3 0 0 1-.77.95q-.47.4-1.1.62a5 5 0 0 1-1.42.21m7.11-11.84v9.65q0 .6.22.85.23.22.72.22.32 0 .53-.05t.56-.17l-.2 1.12q-.26.1-.57.16t-.62.06q-.98 0-1.46-.53-.46-.53-.46-1.61v-9.7zm7.02 11.84q-1.14 0-2.03-.5a3.5 3.5 0 0 1-1.38-1.42q-.5-.94-.5-2.24t.5-2.22q.5-.95 1.36-1.44.86-.5 1.97-.5 1.12 0 1.9.48.8.48 1.22 1.31.41.82.41 1.84l-.01.5-.05.4H66.7v-1.14h5.9l-.66.13q0-1.15-.64-1.78-.62-.62-1.64-.62-.79 0-1.36.37-.56.35-.88 1.04-.3.67-.3 1.63 0 .94.31 1.63t.9 1.06q.6.35 1.4.35.89 0 1.43-.34.56-.33.9-.9l1 .58a3 3 0 0 1-.78.95q-.46.4-1.1.62a5 5 0 0 1-1.41.21m9.2-8.32q.83 0 1.46.26.64.25 1.1.73t.75 1.14l-1.21.57q-.26-.76-.79-1.16-.51-.42-1.34-.42-.8 0-1.38.37-.57.35-.88 1.04-.3.67-.3 1.63 0 .94.3 1.63t.88 1.06q.58.35 1.38.35.62 0 1.07-.2.47-.18.75-.55.3-.37.42-.9l1.18.42q-.27.73-.75 1.26-.46.53-1.14.82-.65.27-1.5.27-1.12 0-2-.5a3.5 3.5 0 0 1-1.38-1.42q-.49-.94-.5-2.24 0-1.3.5-2.22.5-.95 1.38-1.44.88-.5 2-.5m7.53-2.11v8.06q0 .6.34.88.33.3.86.3.46 0 .8-.17.34-.16.6-.43l.46 1.07q-.37.34-.88.53a3 3 0 0 1-1.16.2q-.6 0-1.13-.22a2 2 0 0 1-.85-.69q-.3-.48-.32-1.24v-7.94zm2.91 2.27v1.1h-5.79v-1.1zm8-1.54q-.43 0-.7-.25-.26-.27-.26-.7t.25-.7q.28-.27.7-.27.44 0 .7.28.27.25.27.68t-.27.7-.7.26m.65 1.54v8h-1.28v-8zm2.97 8v-8h1.12l.11 1.8-.2-.18q.25-.64.68-1.03.43-.4 1-.57a4 4 0 0 1 1.18-.18q.86 0 1.56.34.7.32 1.12.99.44.67.44 1.71v5.12h-1.28v-4.67q0-1.33-.58-1.84-.56-.53-1.4-.53-.57 0-1.14.27-.58.27-.96.88-.37.61-.37 1.63v4.26zm13.02.16a3.5 3.5 0 0 1-1.82-.5q-.83-.5-1.33-1.42-.5-.94-.5-2.24 0-1.33.53-2.26t1.4-1.4a4 4 0 0 1 1.85-.5q1 0 1.71.51.74.51.98 1.36l-.16.11v-5.5h1.28v11.68h-1.12l-.11-1.94.17-.1a2.4 2.4 0 0 1-.54 1.2q-.41.49-1.04.74-.6.26-1.3.26m.13-1.12q.77 0 1.33-.38.58-.39.88-1.1.32-.71.32-1.67 0-.91-.32-1.57a2.3 2.3 0 0 0-.86-1q-.55-.36-1.28-.36-1.22 0-1.9.83-.66.83-.66 2.21t.65 2.2 1.84.84m9.68 1.12a4 4 0 0 1-1.45-.29 2.5 2.5 0 0 1-1.1-.93q-.42-.65-.42-1.7v-5.24h1.28v4.91q0 1.22.52 1.68.53.45 1.5.45.44 0 .87-.14.43-.16.77-.48.35-.34.54-.85.21-.51.21-1.22v-4.35h1.28v8h-1.12l-.08-1.22q-.42.72-1.13 1.06-.7.32-1.67.32m9.86 0a5 5 0 0 1-2.16-.5 3.6 3.6 0 0 1-1.5-1.4l1.08-.79q.36.74 1.03 1.15.69.42 1.65.42.84 0 1.32-.32.48-.34.48-.86a1 1 0 0 0-.22-.61q-.2-.29-.81-.42l-1.93-.4q-1.16-.24-1.68-.8-.5-.56-.5-1.39 0-.66.38-1.2t1.07-.86q.7-.34 1.65-.34 1.18 0 2 .46.81.47 1.21 1.32l-1.07.7q-.27-.7-.88-1.02a2.6 2.6 0 0 0-1.26-.34q-.58 0-1 .16a1.4 1.4 0 0 0-.62.45 1 1 0 0 0-.2.62q0 .35.23.66.24.29.9.41l2 .42q1.12.22 1.57.74.45.5.45 1.24 0 .76-.4 1.33-.4.56-1.12.87t-1.67.3m7.45-10.43v8.06q0 .6.33.88.34.3.87.3.46 0 .8-.17t.6-.43l.45 1.07q-.36.34-.88.53-.5.2-1.15.2-.6 0-1.14-.22a2 2 0 0 1-.84-.69q-.3-.48-.32-1.24v-7.94zm2.9 2.27v1.1h-5.78v-1.1zm1.91 8v-8h1.04l.18 1.31q.33-.73.97-1.1.66-.37 1.59-.37.2 0 .44.03.26.03.44.13l-.23 1.17-.38-.1a4 4 0 0 0-.6-.03q-.49 0-1 .29-.5.29-.83.88-.34.57-.34 1.47v4.32zm13.1-8-3.75 9.34q-.3.79-.67 1.24-.36.46-.8.65a2 2 0 0 1-1.01.21q-.55 0-1-.16a3 3 0 0 1-.8-.4l.34-1.12q.32.29.67.42.37.14.72.14.42 0 .79-.26.37-.25.67-1.04l.42-1.04-.8-1.9-2.55-6.08h1.46l2 5.22.5 1.42.57-1.58 1.87-5.06z"/></g><path fill="#6a717d" d="m531.9 222.17 6.52 6.12a1.67 1.67 0 0 0 2.28 0l6.52-6.13a.83.83 0 1 0-1.15-1.2l-6.5 6.12-6.52-6.13a.83.83 0 0 0-1.14 1.22"/><path fill="#232323" d="M34.88 283.1a4 4 0 0 1-.96 1.62 4 4 0 0 1-1.5 1 5 5 0 0 1-1.9.33q-1.53 0-2.64-.65a4.4 4.4 0 0 1-1.73-1.88q-.61-1.21-.61-2.9 0-1.7.6-2.92.62-1.22 1.74-1.87 1.11-.66 2.62-.66 1.04 0 1.87.29a4 4 0 0 1 1.44.86q.6.58.91 1.44l-1.61.72q-.32-.94-.93-1.37-.61-.45-1.58-.45t-1.72.46-1.15 1.35q-.4.88-.4 2.14 0 1.25.39 2.15.38.87 1.1 1.34.72.46 1.73.46.97 0 1.68-.5.72-.5 1.02-1.51zm5.42-5.37q1.17 0 2.06.5t1.4 1.44q.5.92.5 2.22t-.5 2.24a3.5 3.5 0 0 1-1.4 1.42q-.9.5-2.06.5t-2.06-.5a3.6 3.6 0 0 1-1.41-1.42q-.51-.94-.51-2.24t.5-2.22q.52-.95 1.42-1.44.9-.5 2.06-.5m0 1.34q-.72 0-1.23.34-.5.32-.77.94t-.27 1.54q0 .9.27 1.54.27.62.77.96.51.32 1.23.32t1.22-.32q.5-.34.76-.96.28-.64.28-1.54 0-.91-.28-1.53-.27-.63-.76-.95-.5-.34-1.22-.34m6.12 6.82v-8h1.52l.08 1.34q.42-.76 1.1-1.13a3 3 0 0 1 1.5-.37q.86 0 1.58.4.73.38 1.1 1.17.26-.53.7-.88.45-.35 1-.51a4 4 0 0 1 1.07-.18q.77 0 1.44.32t1.09.98.41 1.68v5.18h-1.7v-4.91q0-.98-.47-1.4-.47-.44-1.19-.44-.56 0-1.04.27-.46.27-.75.82-.29.52-.29 1.3v4.36h-1.7v-4.91q0-.98-.47-1.4-.47-.44-1.19-.44-.48 0-.96.25-.48.26-.8.8-.32.55-.32 1.44v4.26zm15.19 3.36V277.9h1.52l.13 2.24-.23-.27q.2-.63.6-1.1a3 3 0 0 1 .99-.76 3 3 0 0 1 1.33-.27 3.3 3.3 0 0 1 1.77.5q.8.5 1.27 1.42t.46 2.22q0 1.32-.48 2.26-.47.93-1.28 1.42-.8.5-1.8.5-1.02 0-1.74-.53a3 3 0 0 1-1.02-1.37l.2-.28v5.38zm3.92-4.6q1.04 0 1.61-.73.6-.73.6-2.03t-.58-2.03q-.57-.75-1.6-.75-.67 0-1.18.35t-.79.96-.27 1.47q0 .85.27 1.47.28.63.77.96t1.17.34m10.72-3.9q0-.8-.45-1.24-.43-.45-1.2-.45-.72 0-1.23.34t-.75 1.09l-1.44-.6a3 3 0 0 1 1.18-1.58q.9-.59 2.3-.59.97 0 1.7.32.74.3 1.15.93.44.62.44 1.6v3.57q0 .59.59.59.28 0 .56-.08l-.1 1.18q-.37.18-.93.18-.5 0-.93-.18a1.6 1.6 0 0 1-.64-.56q-.22-.38-.22-.94v-.11l.35-.02a2 2 0 0 1-.59 1.04 3 3 0 0 1-1.04.6 4 4 0 0 1-1.2.2q-.75 0-1.36-.24-.6-.24-.94-.72-.34-.5-.34-1.22 0-.9.58-1.47.59-.57 1.66-.78l3.1-.6-.01 1.2-2.26.45q-.67.13-1 .37t-.34.7q0 .45.33.73.36.25.93.25.4 0 .77-.1a2 2 0 0 0 .69-.3q.3-.22.46-.56.18-.35.18-.83zm4.5 5.13v-8h1.52l.11 2.08-.22-.22q.22-.7.64-1.14.43-.46 1-.67.6-.2 1.25-.2.85 0 1.52.33.7.32 1.1.97t.4 1.67v5.18h-1.72v-4.66q0-1.18-.5-1.63-.48-.46-1.21-.46-.53 0-1.03.25-.5.24-.83.79-.32.54-.32 1.45v4.26zm16.68-8-3.5 8.94q-.36.93-.77 1.48-.4.54-.93.78t-1.23.24q-.58 0-1.07-.16a3 3 0 0 1-.85-.4l.41-1.33q.3.26.64.39.36.13.76.13.43 0 .76-.24.36-.23.63-.92l.35-.86-.85-1.98-2.5-6.07h1.93l1.77 5.03.47 1.5.52-1.65 1.68-4.88zm10.11-2.72q1.43 0 2.47.54 1.04.53 1.76 1.57l-1.15 1.1q-.61-.92-1.38-1.32-.75-.42-1.8-.42-.76 0-1.26.21t-.73.56q-.23.34-.23.77 0 .5.34.86.35.37 1.3.58l2.14.48q1.54.33 2.18 1.02t.64 1.75q0 .97-.53 1.7-.53.71-1.47 1.1-.93.38-2.2.38-1.12 0-2.01-.29a5 5 0 0 1-1.57-.78 5 5 0 0 1-1.1-1.14l1.18-1.18q.34.56.85 1 .5.44 1.18.68.69.24 1.52.24.74 0 1.27-.18.54-.17.81-.5.29-.36.29-.84 0-.47-.32-.82-.3-.35-1.15-.54l-2.32-.53q-.96-.2-1.59-.6t-.92-.92a2.6 2.6 0 0 1-.3-1.25q0-.9.47-1.61.5-.74 1.43-1.17.92-.45 2.2-.45m7.23 1.38q-.56 0-.86-.27-.3-.3-.3-.8 0-.52.3-.79t.86-.27q.54 0 .83.27.3.27.3.79 0 .5-.3.8-.29.27-.83.27m.85 1.34v8h-1.71v-8zm2.17 8v-1.18l3.87-4.51.97-1-1.39.03h-3.42v-1.34h6.7v1.18l-3.87 4.52-.96.99 1.52-.03h3.46v1.34zm12.39.16q-1.2 0-2.12-.5a3.5 3.5 0 0 1-1.42-1.42q-.5-.94-.5-2.24t.5-2.22q.51-.95 1.4-1.44.9-.5 2.04-.5 1.17 0 1.98.48t1.25 1.31.43 1.9l-.01.54q-.01.26-.05.44h-6.43v-1.3h5.68l-.85.25q0-1.1-.54-1.67-.55-.59-1.5-.59-.68 0-1.2.32-.5.32-.78.96-.27.63-.27 1.54 0 .9.29 1.52t.82.94 1.24.32q.8 0 1.3-.3t.78-.85l1.36.64q-.28.58-.78 1-.48.42-1.15.65a5 5 0 0 1-1.47.22"/><path fill="#ee312a" d="m139.35 277.81 1.3 1.31 1.18 1.63-1.06.77-1.18-1.63-.85-1.63.3-.23zm-.6 0 .3.22.3.23-.85 1.63-1.17 1.63-1.05-.77 1.18-1.63zm-3.14-1.57 1.92.63 1.64.81-.12.35-.12.37-1.8-.32-1.9-.6zm4.1-2.03v2.02l-.28 1.8h-.77l-.25-1.8-.02-2.02zm2.8 2.03.37 1.23-1.9.61-1.8.32-.13-.36-.12-.36 1.65-.81z"/><rect width="542" height="55" x="25.063" y="296.391" fill="#fff" rx="5.5"/><rect width="542" height="55" x="25.063" y="296.391" stroke="#c3c9d3" rx="5.5"/><path fill="#98a2b3" d="M45.68 318.67q1.4 0 2.4.58 1.01.56 1.68 1.66l-1.07.83q-.6-1.02-1.34-1.44-.74-.43-1.8-.43-.84 0-1.4.24t-.8.64q-.26.38-.26.88 0 .56.35 1 .36.4 1.41.65l2.29.51q1.52.34 2.11 1.02.6.68.6 1.68 0 .9-.5 1.6t-1.41 1.08-2.15.38q-1.15 0-2.03-.3a5 5 0 0 1-1.49-.85 5 5 0 0 1-1.02-1.18l1.12-.92q.3.61.78 1.08.48.46 1.16.72.69.25 1.56.25.82 0 1.41-.2.61-.2.93-.58a1.5 1.5 0 0 0 .32-.96q0-.52-.34-.91-.33-.42-1.26-.63l-2.48-.56q-.98-.22-1.58-.6-.6-.4-.87-.93a3 3 0 0 1-.25-1.17q0-.85.46-1.55.48-.72 1.36-1.16.9-.43 2.11-.43m9.96 10.88q-1.13 0-2.03-.5a3.5 3.5 0 0 1-1.38-1.42q-.49-.94-.49-2.24t.5-2.22q.5-.95 1.35-1.44.87-.5 1.97-.5 1.12 0 1.9.48.8.48 1.22 1.31.42.82.42 1.84 0 .27-.02.5-.01.22-.05.4h-6.46v-1.14h5.9l-.65.13q0-1.15-.64-1.77-.62-.63-1.65-.63-.78 0-1.36.37-.56.35-.88 1.04-.3.67-.3 1.63t.32 1.63.9 1.06q.59.35 1.4.35.88 0 1.42-.34.56-.33.9-.9l1 .58a3 3 0 0 1-.77.95q-.47.4-1.1.62a5 5 0 0 1-1.42.21m7.11-11.84v9.65q0 .6.22.85.23.22.72.22.32 0 .53-.05t.56-.17l-.2 1.12q-.26.1-.57.16t-.62.06q-.98 0-1.46-.53-.46-.52-.46-1.61v-9.7zm7.02 11.84q-1.14 0-2.03-.5a3.5 3.5 0 0 1-1.38-1.42q-.5-.94-.5-2.24t.5-2.22q.5-.95 1.36-1.44.86-.5 1.97-.5 1.12 0 1.9.48.8.48 1.22 1.31.41.82.41 1.84l-.01.5-.05.4H66.7v-1.14h5.9l-.66.13q0-1.15-.64-1.77-.62-.63-1.64-.63-.79 0-1.36.37-.56.35-.88 1.04-.3.67-.3 1.63t.31 1.63.9 1.06q.6.35 1.4.35.89 0 1.43-.34.56-.33.9-.9l1 .58a3 3 0 0 1-.78.95q-.46.4-1.1.62a5 5 0 0 1-1.41.21m9.2-8.32q.83 0 1.46.26.64.25 1.1.73t.75 1.14l-1.21.58q-.26-.77-.79-1.17-.51-.42-1.34-.42-.8 0-1.38.37-.57.35-.88 1.04-.3.67-.3 1.63t.3 1.63.88 1.06q.58.35 1.38.35.62 0 1.07-.2.47-.18.75-.55.3-.37.42-.9l1.18.42q-.27.73-.75 1.26-.46.53-1.14.82-.65.27-1.5.27-1.12 0-2-.5a3.5 3.5 0 0 1-1.38-1.42q-.49-.94-.5-2.24 0-1.3.5-2.22.5-.95 1.38-1.44.88-.5 2-.5m7.53-2.11v8.06q0 .6.34.88.33.3.86.3.46 0 .8-.17.34-.16.6-.43l.46 1.07q-.37.34-.88.53a3 3 0 0 1-1.16.2q-.6 0-1.13-.22a2 2 0 0 1-.85-.68q-.3-.48-.32-1.25v-7.94zm2.91 2.27v1.1h-5.79v-1.1zm10.24 8.16a5 5 0 0 1-2.16-.5 3.6 3.6 0 0 1-1.5-1.4l1.08-.79q.35.74 1.03 1.16t1.64.41q.85 0 1.33-.32.48-.33.48-.86a1 1 0 0 0-.22-.61q-.2-.29-.82-.42l-1.92-.4q-1.17-.24-1.68-.8-.5-.56-.5-1.39 0-.66.37-1.2.39-.54 1.08-.86.7-.34 1.64-.34 1.19 0 2 .47t1.22 1.3l-1.07.71q-.27-.7-.88-1.02a2.6 2.6 0 0 0-1.27-.34q-.57 0-.99.16a1.5 1.5 0 0 0-.62.45 1 1 0 0 0-.21.62q0 .35.24.66.24.29.9.42l2 .41q1.12.22 1.56.74.45.5.45 1.25t-.4 1.32-1.12.87-1.66.3m6.2-9.7q-.44 0-.7-.25-.26-.27-.26-.7 0-.44.25-.7.27-.26.7-.26t.7.27q.27.25.27.69a1 1 0 0 1-.28.7q-.25.25-.68.26m.64 1.53v8h-1.28v-8zm2.39 8v-.97l4.2-4.92 1-1.04-1.42.04h-3.73v-1.1h6.57v.97l-4.19 4.9-.99 1.05 1.55-.03h3.76v1.1zm12.34.16q-1.14 0-2.03-.5a3.5 3.5 0 0 1-1.38-1.42q-.5-.94-.5-2.24t.5-2.22a3.5 3.5 0 0 1 1.36-1.44q.87-.5 1.97-.5 1.12 0 1.9.48.8.48 1.22 1.31.42.82.42 1.84 0 .27-.02.5l-.05.4h-6.46v-1.14h5.9l-.65.13q0-1.15-.64-1.77-.63-.63-1.65-.63-.78 0-1.36.37-.56.35-.88 1.04-.3.67-.3 1.63t.32 1.63.9 1.06q.58.35 1.4.35.88 0 1.42-.34.56-.33.9-.9l1 .58a3 3 0 0 1-.78.95q-.46.4-1.1.62a5 5 0 0 1-1.4.21"/><path fill="#6a717d" d="m531.9 321.17 6.52 6.12a1.67 1.67 0 0 0 2.28 0l6.52-6.12a.83.83 0 1 0-1.15-1.22l-6.5 6.13-6.52-6.13a.83.83 0 0 0-1.14 1.22"/><path fill="#232323" d="M34.88 382.1a4 4 0 0 1-.96 1.62 4 4 0 0 1-1.5 1 5 5 0 0 1-1.9.33q-1.53 0-2.64-.65a4.4 4.4 0 0 1-1.73-1.88q-.61-1.21-.61-2.9 0-1.7.6-2.92.62-1.22 1.74-1.87 1.11-.66 2.62-.66 1.04 0 1.87.29a4 4 0 0 1 1.44.86q.6.58.91 1.44l-1.61.72q-.32-.94-.93-1.37-.61-.45-1.58-.45t-1.72.46-1.15 1.35q-.4.88-.4 2.14 0 1.25.39 2.15.38.87 1.1 1.34.72.46 1.73.46.97 0 1.68-.5.72-.5 1.02-1.51zm5.42-5.37q1.17 0 2.06.5t1.4 1.44q.5.92.5 2.22t-.5 2.24a3.5 3.5 0 0 1-1.4 1.42q-.9.5-2.06.5t-2.06-.5a3.6 3.6 0 0 1-1.41-1.42q-.51-.94-.51-2.24t.5-2.22q.52-.95 1.42-1.44.9-.5 2.06-.5m0 1.34q-.72 0-1.23.34-.5.32-.77.94t-.27 1.54q0 .9.27 1.54.27.62.77.96.51.32 1.23.32t1.22-.32q.5-.34.76-.96.28-.64.28-1.54 0-.91-.28-1.53-.27-.63-.76-.95-.5-.34-1.22-.34m8.97 6.98a4 4 0 0 1-1.46-.29 2.3 2.3 0 0 1-1.05-.93q-.4-.64-.4-1.66v-5.28h1.71v4.85q0 1.09.46 1.5t1.3.4q.4 0 .77-.12.38-.15.69-.44t.46-.76q.18-.47.18-1.1v-4.33h1.7v8h-1.5l-.08-1.3q-.41.76-1.12 1.1-.7.36-1.66.36m7.04-.16v-8h1.52l.11 2.08-.22-.22q.23-.7.64-1.14.43-.46 1-.67.6-.2 1.26-.2.85 0 1.52.33.69.32 1.08.97t.4 1.67v5.18h-1.7v-4.66q0-1.18-.5-1.63-.48-.46-1.22-.46-.53 0-1.02.25-.5.24-.84.79-.32.54-.32 1.45v4.26zm12.15-10.35v7.95q0 .6.3.86.33.28.85.28.43 0 .76-.13a2 2 0 0 0 .59-.39l.38 1.25q-.37.32-.91.51a4 4 0 0 1-1.19.18q-.68 0-1.26-.22a2 2 0 0 1-.9-.72q-.31-.52-.33-1.33v-7.76zm2.75 2.35v1.34h-6v-1.34zm1.7 8v-8h1.45l.16 1.44q.32-.78.95-1.18.64-.42 1.56-.42.24 0 .48.05.24.03.4.11l-.24 1.5a2 2 0 0 0-.4-.1 3 3 0 0 0-.57-.04q-.5 0-.98.27a2 2 0 0 0-.8.79q-.3.52-.3 1.34v4.24zm13.65-8-3.5 8.94q-.36.93-.78 1.48-.4.54-.92.78-.53.24-1.24.24-.57 0-1.07-.16a3 3 0 0 1-.85-.4l.42-1.33q.3.26.64.39t.75.13q.43 0 .77-.24t.62-.92l.36-.86-.85-1.98-2.5-6.07h1.92l1.78 5.03.46 1.5.53-1.65 1.68-4.88z"/><path fill="#ee312a" d="m91.6 376.81 1.3 1.31 1.18 1.63-1.06.77-1.18-1.63-.85-1.63.3-.23zm-.6 0 .3.22.3.23-.85 1.63-1.17 1.63-1.05-.77 1.18-1.63zm-3.14-1.57 1.92.63 1.64.81-.13.35-.1.37-1.82-.32-1.9-.6zm4.1-2.03v2.02l-.28 1.8h-.77l-.26-1.8-.01-2.02zm2.8 2.03.37 1.23-1.9.61-1.8.32-.14-.36-.1-.36 1.64-.81z"/><rect width="542" height="55" x="25.063" y="395.391" fill="#fff" rx="5.5"/><rect width="542" height="55" x="25.063" y="395.391" stroke="#c3c9d3" rx="5.5"/><path fill="#98a2b3" d="M45.68 417.67q1.4 0 2.4.58 1.01.56 1.68 1.66l-1.07.83q-.6-1.02-1.34-1.44-.74-.43-1.8-.43-.84 0-1.4.24t-.8.64q-.26.38-.26.88 0 .56.35 1 .36.4 1.41.65l2.29.51q1.52.34 2.11 1.02.6.68.6 1.68 0 .9-.5 1.6t-1.41 1.08-2.15.38q-1.15 0-2.03-.3a5 5 0 0 1-1.49-.85 5 5 0 0 1-1.02-1.18l1.12-.92q.3.61.78 1.08.48.46 1.16.72.69.25 1.56.25.82 0 1.41-.2.61-.2.93-.58a1.5 1.5 0 0 0 .32-.96q0-.52-.34-.91-.33-.42-1.26-.63l-2.48-.56q-.98-.22-1.58-.6-.6-.4-.87-.93a3 3 0 0 1-.25-1.17q0-.85.46-1.55.48-.72 1.36-1.16.9-.43 2.11-.43m9.96 10.88q-1.13 0-2.03-.5a3.5 3.5 0 0 1-1.38-1.42q-.49-.94-.49-2.24t.5-2.22q.5-.95 1.35-1.44.87-.5 1.97-.5 1.12 0 1.9.48.8.48 1.22 1.31.42.82.42 1.84 0 .27-.02.5-.01.22-.05.4h-6.46v-1.14h5.9l-.65.13q0-1.15-.64-1.77-.62-.63-1.65-.63-.78 0-1.36.37-.56.35-.88 1.04-.3.67-.3 1.63t.32 1.63.9 1.06q.59.35 1.4.35.88 0 1.42-.34.56-.33.9-.9l1 .58a3 3 0 0 1-.77.95q-.47.4-1.1.62a5 5 0 0 1-1.42.21m7.11-11.84v9.65q0 .6.22.85.23.22.72.22.32 0 .53-.05t.56-.17l-.2 1.12q-.26.1-.57.16t-.62.06q-.98 0-1.46-.53-.46-.52-.46-1.61v-9.7zm7.02 11.84q-1.14 0-2.03-.5a3.5 3.5 0 0 1-1.38-1.42q-.5-.94-.5-2.24t.5-2.22q.5-.95 1.36-1.44.86-.5 1.97-.5 1.12 0 1.9.48.8.48 1.22 1.31.41.82.41 1.84l-.01.5-.05.4H66.7v-1.14h5.9l-.66.13q0-1.15-.64-1.77-.62-.63-1.64-.63-.79 0-1.36.37-.56.35-.88 1.04-.3.67-.3 1.63t.31 1.63.9 1.06q.6.35 1.4.35.89 0 1.43-.34.56-.33.9-.9l1 .58a3 3 0 0 1-.78.95q-.46.4-1.1.62a5 5 0 0 1-1.41.21m9.2-8.32q.83 0 1.46.26.64.25 1.1.73t.75 1.14l-1.21.58q-.26-.77-.79-1.17-.51-.42-1.34-.42-.8 0-1.38.37-.57.35-.88 1.04-.3.67-.3 1.63t.3 1.63.88 1.06q.58.35 1.38.35.62 0 1.07-.2.47-.18.75-.55.3-.37.42-.9l1.18.42q-.27.74-.75 1.26-.46.53-1.14.82-.65.27-1.5.27-1.12 0-2-.5a3.5 3.5 0 0 1-1.38-1.42q-.49-.94-.5-2.24 0-1.3.5-2.22.5-.95 1.38-1.44.88-.5 2-.5m7.53-2.11v8.06q0 .6.34.88.33.3.86.3.46 0 .8-.17.34-.16.6-.43l.46 1.07q-.37.34-.88.53a3 3 0 0 1-1.16.2q-.6 0-1.13-.22a2 2 0 0 1-.85-.68q-.3-.48-.32-1.25v-7.94zm2.91 2.27v1.1h-5.79v-1.1zm10.67-.16q.83 0 1.46.26.64.25 1.1.73t.75 1.14l-1.21.57q-.26-.76-.79-1.16-.5-.42-1.34-.42-.8 0-1.38.37-.57.35-.88 1.04-.3.67-.3 1.63t.3 1.63.88 1.06q.58.35 1.38.35.62 0 1.07-.2.46-.18.75-.55a2 2 0 0 0 .42-.9l1.18.42q-.27.73-.75 1.26a3 3 0 0 1-1.14.82q-.65.27-1.5.27-1.12 0-2-.5a3.5 3.5 0 0 1-1.38-1.42q-.5-.94-.5-2.24t.5-2.22q.5-.95 1.38-1.44.88-.5 2-.5m8.95 0q1.14 0 2 .5.88.5 1.38 1.44.5.92.5 2.22t-.5 2.24a3.5 3.5 0 0 1-1.38 1.42q-.86.5-2 .5-1.12 0-2-.5a3.5 3.5 0 0 1-1.37-1.42q-.5-.94-.5-2.24t.5-2.22a3.5 3.5 0 0 1 1.37-1.44q.88-.5 2-.5m0 1.1q-.81 0-1.39.37t-.9 1.06q-.3.67-.3 1.63 0 .94.3 1.63.32.69.9 1.06t1.4.37 1.38-.37.88-1.06.32-1.63q0-.96-.32-1.63a2.3 2.3 0 0 0-.88-1.06q-.57-.37-1.39-.37m9.18 7.22q-.77 0-1.46-.29a2.5 2.5 0 0 1-1.1-.93q-.42-.65-.42-1.7v-5.24h1.28v4.91q0 1.22.53 1.68t1.5.45q.44 0 .87-.14.43-.16.77-.48.35-.34.54-.85.21-.51.21-1.22v-4.35h1.28v8h-1.12l-.08-1.22q-.42.72-1.14 1.06-.7.32-1.66.32m6.98-.16v-8h1.12l.11 1.8-.2-.18q.25-.64.68-1.03.43-.4 1-.57a4 4 0 0 1 1.18-.18q.86 0 1.57.34.7.32 1.12.99t.43 1.71v5.12h-1.28v-4.67q0-1.33-.58-1.84-.56-.53-1.39-.53-.58 0-1.15.27-.58.27-.96.88-.37.61-.37 1.63v4.26zm11.68-10.27v8.06q0 .6.34.88.34.3.86.3.47 0 .8-.17t.61-.43l.45 1.07q-.37.34-.88.53a3 3 0 0 1-1.15.2q-.6 0-1.14-.22a2 2 0 0 1-.84-.69q-.3-.48-.32-1.24v-7.94zm2.92 2.27v1.1h-5.8v-1.1zm1.9 8v-8h1.04l.18 1.31q.33-.73.97-1.1.66-.37 1.59-.37.2 0 .44.03.26.03.44.13l-.23 1.17-.38-.1a4 4 0 0 0-.6-.03q-.5 0-1 .29t-.83.88q-.34.57-.34 1.47v4.32zm13.1-8-3.75 9.34q-.3.79-.68 1.24-.35.46-.8.65a2 2 0 0 1-1 .21q-.55 0-1.01-.16a3 3 0 0 1-.8-.4l.35-1.12q.32.29.67.42.37.14.72.14.42 0 .79-.26.37-.25.67-1.04l.41-1.04-.8-1.9-2.54-6.08h1.46l2 5.22.5 1.42.57-1.58 1.87-5.06z"/><path fill="#6a717d" d="m535.9 420.17 6.52 6.12a1.67 1.67 0 0 0 2.28 0l6.52-6.12a.83.83 0 1 0-1.15-1.22l-6.5 6.13-6.52-6.13a.83.83 0 0 0-1.14 1.22"/></g><defs><clipPath id="clip0_8061_109"><rect width="311" height="23" fill="#fff" transform="translate(40.563 213.391)"/></clipPath><filter id="filter0_d_8061_109" width="591.092" height="493.139" x=".001" y="0" color-interpolation-filters="sRGB" filterUnits="userSpaceOnUse"><feFlood flood-opacity="0" result="BackgroundImageFix"/><feColorMatrix in="SourceAlpha" result="hardAlpha" values="0 0 0 0 0 0 0 0 0 0 0 0 0 0 0 0 0 0 127 0"/><feMorphology in="SourceAlpha" radius="3.046" result="effect1_dropShadow_8061_109"/><feOffset dy="6.092"/><feGaussianBlur stdDeviation="3.046"/><feColorMatrix values="0 0 0 0 0.0627451 0 0 0 0 0.0941176 0 0 0 0 0.156863 0 0 0 0.03 0"/><feBlend in2="BackgroundImageFix" result="effect1_dropShadow_8061_109"/><feBlend in="SourceGraphic" in2="effect1_dropShadow_8061_109" result="shape"/></filter></defs></svg>