<svg xmlns="http://www.w3.org/2000/svg" fill="none" viewBox="0 0 618 633"><g filter="url(#filter0_dd_139_1038)"><g clip-path="url(#clip0_139_1038)"><rect width="578" height="593" x="20" fill="#fff" rx="12"/><path fill="#101828" d="M56.67 43H54.1l-1-2.9h-4.55l-.99 2.9h-2.53l4.33-11.88h2.97zm-7.56-4.73h3.44l-1.73-5.19zm12.24 4.91q-1.11 0-2-.56-.86-.56-1.36-1.6-.49-1.04-.49-2.5 0-1.5.53-2.54.52-1.06 1.4-1.6a4 4 0 0 1 2.02-.56q1.18 0 1.96.68t1 1.77l-.23.29v-6.5h2.47V43h-2.22l-.16-2.74.3.15a3.4 3.4 0 0 1-.57 1.47q-.45.62-1.13.96t-1.52.34m.72-1.89q.65 0 1.12-.32.47-.35.72-1 .27-.64.27-1.54 0-.87-.25-1.46-.25-.61-.72-.94a2 2 0 0 0-1.1-.32q-1 0-1.58.72-.56.7-.56 2.07t.56 2.09q.55.7 1.54.7m10.57 1.89q-1.12 0-2-.56-.86-.56-1.37-1.6-.48-1.04-.48-2.5 0-1.5.52-2.54.52-1.06 1.4-1.6a4 4 0 0 1 2.02-.56q1.19 0 1.96.68t1 1.77l-.22.29v-6.5h2.46V43h-2.21l-.17-2.74.31.15a3.4 3.4 0 0 1-.58 1.47q-.45.62-1.13.96t-1.51.34m.72-1.89q.65 0 1.11-.32.47-.35.72-1 .27-.64.27-1.54 0-.87-.25-1.46-.25-.61-.72-.94a2 2 0 0 0-1.1-.32q-1 0-1.58.72-.56.7-.56 2.07t.56 2.09q.56.7 1.55.7m23.12-10.17V43h-2.84l-4.16-6.98-1.03-1.95h-.01l.07 2.05V43h-2.23V31.12h2.82l4.16 6.97 1.03 1.96h.03L94.25 38v-6.88zm6.94 12.06q-1.42 0-2.49-.56a4 4 0 0 1-1.62-1.6q-.57-1.04-.57-2.52t.58-2.52a4 4 0 0 1 1.6-1.6q1.04-.56 2.37-.56 1.37 0 2.33.56.95.54 1.45 1.5.5.93.5 2.13l-.01.69-.05.57h-7.19v-1.7h6.1l-1.18.43q0-1.14-.52-1.75-.5-.61-1.44-.61-.69 0-1.2.32-.48.33-.73.97t-.25 1.6.27 1.59q.28.61.79.92.52.3 1.24.3.8 0 1.28-.3a2 2 0 0 0 .76-.85l1.96.76q-.3.7-.88 1.2a4 4 0 0 1-1.4.78 6 6 0 0 1-1.7.25M121.03 34h2.63l-2.88 9h-2.84l-1.97-6.12-1.89 6.12h-2.84l-2.88-9h2.63l1.8 6.9 2-6.9h2.44l2.02 6.9zm14.76-2.88q2.02 0 3.17.97t1.15 2.61q0 1.75-1.15 2.68-1.15.92-3.15.92l-.25.15H133V43h-2.44V31.12zm-.28 5.44q1.04 0 1.54-.42.53-.43.53-1.31t-.53-1.3q-.5-.43-1.54-.43H133v3.46zm1.45.52 3.86 5.92h-2.8l-3.18-5.2zm9.5-3.26q1.37 0 2.4.56a4 4 0 0 1 1.62 1.6q.6 1.04.6 2.52 0 1.46-.6 2.52a4 4 0 0 1-1.62 1.6q-1.03.56-2.4.56-1.34 0-2.39-.56a4 4 0 0 1-1.64-1.6q-.57-1.06-.57-2.52 0-1.48.57-2.52a4 4 0 0 1 1.64-1.6q1.05-.56 2.4-.56m0 1.84q-.69 0-1.17.32-.47.3-.72.94t-.26 1.58.26 1.58.72.96q.48.3 1.17.3.66 0 1.13-.3.49-.33.74-.96t.25-1.58-.25-1.58-.74-.94q-.47-.32-1.13-.32m9.1-5.6v10.17q0 .63.21.88t.72.25q.31 0 .5-.03l.51-.15-.21 1.62q-.31.18-.78.27-.45.11-.9.11-1.31 0-1.92-.63-.6-.65-.6-2.05V30.06zm7.5 13.12q-1.43 0-2.5-.56a4 4 0 0 1-1.61-1.6q-.58-1.04-.58-2.52t.58-2.52a4 4 0 0 1 1.6-1.6q1.04-.56 2.38-.56 1.36 0 2.32.56.95.54 1.46 1.5.5.93.5 2.13 0 .36-.02.69l-.05.57h-7.18v-1.7h6.1l-1.19.43q0-1.14-.52-1.75-.5-.61-1.44-.61-.69 0-1.19.32-.49.33-.74.97t-.25 1.6.27 1.59q.29.61.8.92.51.3 1.23.3.8 0 1.28-.3a2 2 0 0 0 .76-.85l1.96.76q-.29.7-.88 1.2a4 4 0 0 1-1.39.78 6 6 0 0 1-1.7.25"/><path stroke="#292d32" stroke-linecap="round" stroke-linejoin="round" stroke-width="1.802" d="m557.9 29.1 10.2 10.19"/><path stroke="#292d32" stroke-linecap="round" stroke-linejoin="round" stroke-width="1.802" d="m557.9 39.29 10.2-10.2"/><path fill="#232323" d="M50.68 76.44q1.7 0 2.69.85 1 .85 1 2.29 0 1.48-1 2.3-1 .8-2.69.8l-.16.1h-2.45V87h-1.7V76.44zm-.13 4.91q1.04 0 1.54-.41.51-.44.51-1.32 0-.86-.51-1.3-.5-.42-1.54-.42h-2.48v3.45zm1.01.35L55 87h-1.97l-2.94-4.62zm8.58-2.86q1.17 0 2.06.5t1.4 1.44q.5.92.5 2.22t-.5 2.24a3.4 3.4 0 0 1-1.4 1.42q-.9.5-2.06.5t-2.06-.5a3.6 3.6 0 0 1-1.41-1.42q-.51-.94-.51-2.24t.5-2.22q.52-.95 1.42-1.44.9-.5 2.06-.5m0 1.34q-.72 0-1.23.34-.5.32-.77.94-.27.63-.27 1.54 0 .9.27 1.54.27.62.77.96.51.32 1.23.32t1.22-.32q.5-.34.76-.96.28-.64.28-1.54 0-.91-.28-1.54-.27-.62-.76-.94-.5-.34-1.22-.34m7.78-4.78v9.36q0 .6.21.82t.69.22l.48-.03.51-.16-.19 1.28q-.27.13-.62.19a3 3 0 0 1-.7.08q-1.08 0-1.6-.54-.49-.56-.49-1.72v-9.5zm6.84 11.76q-1.2 0-2.1-.5a3.5 3.5 0 0 1-1.43-1.42q-.5-.94-.5-2.24t.5-2.22q.5-.95 1.4-1.44t2.04-.5q1.17 0 1.98.48t1.25 1.31.43 1.89l-.01.54-.05.45h-6.43V82.2h5.68l-.85.26q0-1.1-.55-1.67-.54-.59-1.48-.59-.7 0-1.2.32-.51.32-.79.96-.27.62-.27 1.54 0 .9.29 1.52t.81.94 1.25.32q.8 0 1.3-.3t.78-.85l1.36.64a3 3 0 0 1-.78 1q-.48.42-1.15.65-.68.22-1.48.22M94.6 76.44V87h-2.03l-4.08-6.66-1.02-1.87h-.02l.07 1.71V87h-1.57V76.44h2.02l4.06 6.64 1.04 1.9h.02L93 83.26v-6.82zm7.43 5.42q0-.8-.44-1.23-.44-.45-1.2-.45-.72 0-1.24.34-.5.34-.75 1.09L96.95 81a3 3 0 0 1 1.19-1.57q.9-.59 2.3-.59.96 0 1.7.32.73.3 1.15.93.43.62.43 1.6v3.57q0 .59.6.59.28 0 .56-.08l-.1 1.18q-.37.18-.93.18-.51 0-.93-.18a1.6 1.6 0 0 1-.64-.56q-.22-.38-.22-.94v-.11l.35-.02a2 2 0 0 1-.6 1.04q-.44.4-1.03.6a4 4 0 0 1-1.2.2q-.75 0-1.36-.24-.6-.24-.95-.72-.33-.5-.33-1.22 0-.9.57-1.47.6-.57 1.67-.78l3.1-.61-.01 1.2-2.26.46q-.67.13-1 .37t-.34.7a.9.9 0 0 0 .33.73q.35.25.93.25.4 0 .77-.1.38-.09.69-.3.3-.22.46-.56.18-.35.18-.83zm4.5 5.14v-8h1.53l.08 1.34q.41-.76 1.1-1.13a3 3 0 0 1 1.49-.37q.86 0 1.58.4.74.38 1.1 1.17.26-.53.71-.88a3 3 0 0 1 1-.51q.54-.18 1.07-.18.76 0 1.44.32t1.08.98.42 1.68V87h-1.71v-4.91q0-.98-.47-1.41t-1.18-.43q-.56 0-1.04.27-.46.27-.75.82-.29.52-.29 1.3V87h-1.71v-4.91q0-.98-.47-1.41t-1.18-.43q-.48 0-.96.25-.48.26-.8.8-.32.55-.32 1.44V87zm18.72.16q-1.2 0-2.12-.5a3.5 3.5 0 0 1-1.42-1.42q-.5-.94-.5-2.24t.5-2.22a3.5 3.5 0 0 1 1.4-1.44q.9-.5 2.04-.5 1.17 0 1.98.48t1.25 1.31.43 1.89l-.01.54-.05.45h-6.43V82.2H128l-.85.26q0-1.1-.55-1.67-.54-.59-1.48-.59-.69 0-1.2.32t-.79.96q-.27.62-.27 1.54 0 .9.29 1.52t.81.94 1.25.32q.8 0 1.3-.3a2 2 0 0 0 .78-.85l1.36.64q-.28.57-.78 1-.48.42-1.15.65t-1.47.22"/><rect width="527" height="55" x="45.309" y="97.5" fill="#fff" rx="5.5"/><rect width="527" height="55" x="45.309" y="97.5" stroke="#c3c9d3" rx="5.5"/><path fill="#232323" d="m64.36 130.5-3.1-10.56h1.8l2.37 9.07 2.3-9.07h1.77l2.32 9.09 2.35-9.09h1.74l-3.08 10.56H70.8l-1.68-6.34-.53-2.43h-.01l-.53 2.43-1.67 6.34zm16.2.16q-1.2 0-2.1-.5a3.5 3.5 0 0 1-1.43-1.42q-.5-.94-.5-2.24t.5-2.22a3.5 3.5 0 0 1 1.4-1.44q.9-.5 2.04-.5 1.16 0 1.98.48t1.25 1.31.43 1.89l-.01.54-.05.45h-6.43v-1.31h5.67l-.84.26q0-1.1-.55-1.67-.54-.59-1.48-.59-.7 0-1.2.32-.52.32-.79.96-.27.62-.27 1.54 0 .9.29 1.52t.81.94 1.25.32q.8 0 1.3-.3t.78-.85l1.36.64q-.29.57-.78 1-.48.42-1.15.65a5 5 0 0 1-1.48.22m7.4-11.76v9.36q0 .6.2.82t.7.22q.28 0 .47-.03l.52-.16-.2 1.28a3 3 0 0 1-.62.19q-.35.08-.7.08-1.08 0-1.59-.54-.5-.56-.5-1.72v-9.5zm6.71-.11q.5 0 .9.11t.62.27l-.32 1.23a1 1 0 0 0-.4-.16 2 2 0 0 0-.51-.06q-.66 0-1.04.3-.37.3-.37 1v1.16l.05.44v7.42h-1.71v-9.15q0-.61.17-1.09.2-.48.56-.8.37-.34.88-.5a4 4 0 0 1 1.17-.17m1.47 3.71v1.34h-5.76v-1.34zm5.78 2.86q0-.8-.45-1.23-.43-.45-1.2-.45-.72 0-1.23.34t-.76 1.09l-1.43-.61a3 3 0 0 1 1.18-1.57q.9-.59 2.3-.59.96 0 1.7.32.74.3 1.15.93.43.62.43 1.6v3.57q0 .59.6.59.28 0 .56-.08l-.1 1.18q-.37.18-.93.18-.51 0-.93-.18a1.6 1.6 0 0 1-.64-.56q-.22-.38-.22-.94v-.11l.35-.02a2 2 0 0 1-.6 1.04 3 3 0 0 1-1.03.6 4 4 0 0 1-1.2.2q-.75 0-1.36-.24-.6-.24-.94-.72-.34-.5-.34-1.22 0-.9.58-1.47.59-.57 1.66-.78l3.1-.61-.01 1.2-2.26.46q-.67.13-1 .37t-.34.7a.9.9 0 0 0 .33.73q.36.25.93.25.4 0 .77-.1.38-.09.69-.3.3-.22.46-.56.18-.35.18-.83zm4.5 5.14v-8h1.45l.16 1.44q.32-.78.95-1.18.64-.42 1.57-.42.24 0 .48.05.24.03.4.11l-.24 1.5a2 2 0 0 0-.4-.1 3 3 0 0 0-.58-.04q-.5 0-.98.27-.48.26-.8.79-.3.52-.3 1.34v4.24zm9.94.16q-1.2 0-2.11-.5a3.5 3.5 0 0 1-1.43-1.42q-.5-.94-.5-2.24t.5-2.22a3.5 3.5 0 0 1 1.41-1.44q.9-.5 2.03-.5 1.17 0 1.99.48t1.25 1.31.43 1.89q0 .29-.02.54-.01.26-.05.45h-6.43v-1.31h5.68l-.85.26q0-1.1-.54-1.67-.54-.59-1.49-.59-.69 0-1.2.32-.5.32-.78.96-.27.62-.27 1.54 0 .9.28 1.52t.82.94 1.25.32q.8 0 1.3-.3a2 2 0 0 0 .78-.85l1.36.64q-.29.57-.79 1-.48.42-1.15.65a5 5 0 0 1-1.47.22m15.56-10.88q1.53 0 2.65.66t1.73 1.87.6 2.91-.6 2.91-1.73 1.87-2.65.66-2.64-.66-1.73-1.87-.6-2.91.6-2.91 1.73-1.87 2.64-.66m0 1.49q-1 0-1.71.46-.7.46-1.1 1.35-.38.88-.38 2.14 0 1.25.39 2.14.38.88 1.09 1.35.72.46 1.7.46 1.02 0 1.72-.46.72-.47 1.1-1.35.39-.9.39-2.14 0-1.26-.39-2.14t-1.1-1.35q-.7-.46-1.71-.46m10.69-2.48q.5 0 .9.11t.62.27l-.32 1.23a1 1 0 0 0-.4-.16 2 2 0 0 0-.52-.06q-.65 0-1.04.3-.36.3-.36 1v1.16l.04.44v7.42h-1.7v-9.15q0-.61.17-1.09a2 2 0 0 1 .56-.8q.37-.34.88-.5a4 4 0 0 1 1.17-.17m1.47 3.71v1.34h-5.76v-1.34zm4.86-3.71q.5 0 .9.11.42.1.62.27l-.32 1.23a1 1 0 0 0-.4-.16 2 2 0 0 0-.5-.06q-.67 0-1.05.3-.37.3-.37 1v1.16l.05.44v7.42h-1.71v-9.15q0-.61.18-1.09a2 2 0 0 1 .56-.8q.36-.34.88-.5a4 4 0 0 1 1.16-.17m1.48 3.71v1.34h-5.76v-1.34zm2.38-1.34q-.56 0-.87-.28-.28-.28-.28-.8t.28-.78q.31-.27.87-.27.54 0 .83.27.3.27.3.78t-.3.8q-.29.28-.83.28m.85 1.34v8h-1.71v-8zm6.13-.16q.96 0 1.63.29.69.27 1.16.78t.7 1.17l-1.62.64q-.2-.74-.67-1.12-.45-.4-1.18-.4-.72 0-1.24.34-.5.32-.78.94-.25.62-.25 1.54 0 .9.27 1.52t.78.94 1.22.32q.54 0 .94-.18.4-.19.66-.52.27-.36.36-.85l1.56.53q-.23.72-.7 1.26-.47.53-1.18.83-.7.29-1.61.29-1.19 0-2.1-.5a3.5 3.5 0 0 1-1.42-1.42q-.5-.94-.5-2.24t.5-2.22a3.5 3.5 0 0 1 1.4-1.44q.92-.5 2.07-.5m9.05 8.32q-1.2 0-2.11-.5a3.5 3.5 0 0 1-1.43-1.42q-.5-.94-.5-2.24t.5-2.22a3.5 3.5 0 0 1 1.41-1.44q.9-.5 2.03-.5 1.17 0 1.99.48t1.24 1.31.44 1.89q0 .29-.02.54l-.05.45h-6.43v-1.31h5.68l-.85.26q0-1.1-.54-1.67-.55-.59-1.49-.59-.69 0-1.2.32t-.78.96q-.28.62-.28 1.54 0 .9.3 1.52t.8.94 1.26.32q.8 0 1.3-.3a2 2 0 0 0 .78-.85l1.36.64q-.3.57-.79 1-.48.42-1.15.65a5 5 0 0 1-1.47.22m5.73-.16v-8H176l.16 1.44q.32-.78.95-1.18.64-.42 1.57-.42.24 0 .48.05.24.03.4.11l-.24 1.5a2 2 0 0 0-.4-.1 3 3 0 0 0-.58-.04q-.5 0-.98.27-.48.26-.8.79-.3.52-.3 1.34v4.24z"/><path fill="#232323" d="M55.15 182h-1.81l-1.01-2.77H47.9L46.89 182h-1.76l3.98-10.56h2.05zm-6.77-4.16h3.47l-1.73-4.93zm11.38 4.32q-1.2 0-2.2-.46a4 4 0 0 1-1.56-1.32l1.18-1.02q.35.65 1 1.06.68.38 1.6.38.74 0 1.18-.26t.43-.72a.8.8 0 0 0-.21-.52q-.2-.24-.75-.37l-1.68-.35q-1.28-.26-1.83-.82-.54-.58-.54-1.46 0-.65.38-1.21.39-.56 1.12-.9.76-.35 1.8-.35 1.2 0 2.04.43.85.42 1.3 1.2l-1.18 1a2 2 0 0 0-.9-.95 2.6 2.6 0 0 0-1.23-.32q-.51 0-.88.13t-.56.35a.8.8 0 0 0-.2.53q0 .32.25.56t.86.37l1.82.38q1.16.22 1.62.77.48.53.48 1.3t-.4 1.35-1.15.9-1.8.32m8.47 0q-1.2 0-2.19-.46a4 4 0 0 1-1.57-1.32l1.19-1.02q.35.65 1 1.06.68.38 1.6.38.74 0 1.17-.26t.44-.72a.8.8 0 0 0-.21-.52q-.2-.24-.75-.37l-1.68-.35q-1.28-.26-1.83-.82-.54-.58-.54-1.46 0-.65.38-1.21.39-.56 1.12-.9.75-.35 1.8-.35 1.2 0 2.04.43.85.42 1.3 1.2l-1.19 1a2 2 0 0 0-.9-.95 2.6 2.6 0 0 0-1.22-.32q-.52 0-.88.13t-.56.35a.8.8 0 0 0-.2.53q0 .32.24.56t.87.37l1.82.38q1.15.22 1.62.77.48.53.48 1.3t-.4 1.35-1.15.9-1.8.32m6.3-9.5q-.56 0-.87-.28-.28-.28-.28-.8t.28-.78.87-.27q.54 0 .83.27.3.27.3.78 0 .52-.3.8-.29.28-.83.28m.85 1.34v8h-1.72v-8zm9.71-1.68.28 1.34h-.1l-.1-.01q-.76 0-1.16.33-.4.32-.4.95l-.84-.39q0-.64.28-1.13.27-.51.76-.8a2.3 2.3 0 0 1 1.16-.29zm-2.52 8.43q1.21 0 1.88.55.68.52.68 1.47 0 .83-.53 1.42-.53.61-1.44.93t-2.07.32q-1.96 0-2.9-.6t-.95-1.53q0-.64.45-1.12.46-.48 1.55-.54l-.1.25q-.67-.14-1.09-.5-.4-.4-.4-1.08t.53-1.17 1.49-.56l.9.43h-.2q-.73.07-1.04.34-.3.27-.3.6 0 .4.29.6.3.2.85.2zm-1.48 3.41q.88 0 1.44-.18.58-.16.85-.43.29-.25.29-.57a.7.7 0 0 0-.3-.6q-.3-.22-1.06-.22h-2.58q-.44 0-.75.22a.8.8 0 0 0-.3.64q0 .53.64.84t1.77.3m-.06-10.32q1.06 0 1.82.34.79.33 1.2.94.44.6.44 1.42t-.44 1.43q-.41.6-1.2.94-.76.34-1.82.34-1.66 0-2.56-.74-.88-.75-.88-1.97 0-.81.43-1.42t1.2-.94q.79-.34 1.8-.34m0 1.2q-.73 0-1.22.42-.48.4-.48 1.08t.48 1.1q.5.42 1.23.42.75 0 1.23-.41.5-.42.5-1.1 0-.7-.5-1.1-.48-.41-1.23-.41m5.66 6.96v-8h1.52l.12 2.08-.23-.22a3 3 0 0 1 .64-1.14 3 3 0 0 1 1.01-.67q.6-.21 1.25-.21.85 0 1.52.34a2.5 2.5 0 0 1 1.09.97q.4.66.4 1.67V182h-1.72v-4.66q0-1.18-.5-1.63-.47-.46-1.2-.46-.54 0-1.03.25-.5.24-.83.79-.32.54-.32 1.45V182zm26.15-10.56V182h-1.58v-6.11l.13-2.91h-.02l-3.22 9.02h-1.42l-3.22-9.02h-.01l.13 2.9V182h-1.59v-10.56h2.55l2.12 6.11.74 2.51h.03l.75-2.5 2.12-6.12zm6.26 2.4q1.17 0 2.07.5a3.4 3.4 0 0 1 1.39 1.44q.51.92.51 2.22t-.51 2.24a3.4 3.4 0 0 1-1.4 1.42q-.89.5-2.06.5-1.16 0-2.06-.5a3.6 3.6 0 0 1-1.4-1.42q-.52-.94-.52-2.24t.51-2.22a3.5 3.5 0 0 1 1.4-1.44q.9-.5 2.07-.5m0 1.34q-.72 0-1.23.34-.5.32-.77.94-.27.63-.27 1.54 0 .9.27 1.54.28.62.77.96.51.32 1.23.32t1.22-.32q.5-.34.77-.96.27-.64.27-1.54 0-.91-.27-1.54t-.77-.94q-.5-.34-1.22-.34m9.2 6.98a3.4 3.4 0 0 1-1.81-.5q-.8-.5-1.26-1.42t-.47-2.22q0-1.35.5-2.28t1.33-1.4a3.5 3.5 0 0 1 1.82-.5q1.02 0 1.73.56a2.7 2.7 0 0 1 .94 1.46l-.2.17v-5.63h1.72V182h-1.52l-.13-2.18.23.02q-.11.72-.53 1.25a3 3 0 0 1-1.04.8 3 3 0 0 1-1.31.27m.37-1.38q.68 0 1.18-.35t.77-.99.27-1.54q0-.83-.27-1.42-.27-.6-.77-.93a2 2 0 0 0-1.12-.32q-1.07 0-1.66.74-.6.73-.6 2.03t.58 2.05q.58.73 1.62.73m9.43 1.38a4 4 0 0 1-1.45-.29 2.3 2.3 0 0 1-1.06-.93q-.4-.64-.4-1.66V174h1.71v4.85q0 1.09.47 1.5t1.3.4q.4 0 .76-.13a2 2 0 0 0 .69-.43 2 2 0 0 0 .46-.77q.18-.46.18-1.08V174h1.71v8h-1.5l-.08-1.3q-.42.76-1.12 1.1-.7.36-1.67.36m8.71-11.76v9.36q0 .6.2.82.22.22.7.22.28 0 .48-.03.2-.05.5-.16l-.18 1.28a3 3 0 0 1-.63.19q-.35.08-.7.08-1.07 0-1.59-.54-.5-.56-.5-1.72v-9.5zm6.84 11.76q-1.2 0-2.11-.5a3.5 3.5 0 0 1-1.43-1.42q-.5-.94-.5-2.24t.5-2.22a3.5 3.5 0 0 1 1.41-1.44q.9-.5 2.03-.5 1.17 0 1.99.48t1.25 1.31.43 1.89q0 .29-.02.54-.01.26-.05.45h-6.43v-1.31h5.68l-.85.26q0-1.1-.54-1.67-.54-.59-1.49-.59-.68 0-1.2.32-.5.32-.78.96-.27.62-.27 1.54 0 .9.28 1.52t.82.94 1.25.32q.8 0 1.3-.3a2 2 0 0 0 .78-.85l1.36.64q-.29.57-.79 1-.48.42-1.15.65a5 5 0 0 1-1.47.22m15.24-10.72q1.13 0 1.95.4t1.3 1.14q.46.73.46 1.77 0 1.03-.46 1.78-.47.73-1.3 1.13-.82.4-1.95.4h-2.35V182h-1.72v-10.56zm-.27 5.15q1.13 0 1.66-.46.54-.48.54-1.38 0-.91-.54-1.37-.53-.48-1.66-.48h-2.08v3.7zm9.34 5.57q-1.2 0-2.1-.5a3.5 3.5 0 0 1-1.43-1.42q-.5-.94-.5-2.24t.5-2.22a3.5 3.5 0 0 1 1.4-1.44q.9-.5 2.04-.5 1.17 0 1.98.48t1.25 1.31.43 1.89l-.01.54-.05.45h-6.43v-1.31h5.68l-.85.26q0-1.1-.55-1.67-.54-.59-1.48-.59-.7 0-1.2.32-.52.32-.79.96-.27.62-.27 1.54 0 .9.29 1.52t.81.94 1.25.32q.8 0 1.3-.3a2 2 0 0 0 .78-.85l1.36.64q-.29.57-.78 1-.48.42-1.15.65a5 5 0 0 1-1.48.22m5.73-.16v-8h1.46l.16 1.44q.32-.78.94-1.18.64-.42 1.57-.42.24 0 .48.05.24.03.4.11l-.24 1.5a2 2 0 0 0-.4-.1 3 3 0 0 0-.57-.04q-.5 0-.98.27-.48.26-.8.79-.3.52-.3 1.34V182zm6.63 0v-8h1.52l.08 1.34q.42-.76 1.1-1.13a3 3 0 0 1 1.5-.37q.86 0 1.58.4.73.38 1.1 1.17.26-.53.7-.88a3 3 0 0 1 1-.51 4 4 0 0 1 1.07-.18q.77 0 1.44.32t1.09.98.41 1.68V182h-1.71v-4.91q0-.98-.46-1.41t-1.19-.43q-.56 0-1.04.27-.46.27-.75.82-.29.52-.29 1.3V182h-1.71v-4.91q0-.98-.46-1.41t-1.19-.43q-.48 0-.96.25t-.8.8-.32 1.44V182zm16.05-9.34q-.56 0-.86-.28t-.3-.8.3-.78q.3-.27.86-.27.54 0 .83.27.3.27.3.78t-.3.8q-.29.28-.83.28m.85 1.34v8h-1.71v-8zm5.72 8.16q-1.2 0-2.2-.46a4 4 0 0 1-1.56-1.32l1.18-1.02q.35.65 1 1.06.68.38 1.6.38.75 0 1.18-.26t.43-.72a.8.8 0 0 0-.2-.52q-.2-.24-.76-.37l-1.68-.35q-1.28-.26-1.83-.82-.54-.58-.54-1.46 0-.65.38-1.21t1.12-.9q.76-.35 1.8-.35 1.2 0 2.04.43.85.42 1.3 1.2l-1.18 1a2 2 0 0 0-.9-.95 2.6 2.6 0 0 0-1.23-.32q-.51 0-.88.13t-.56.35a.8.8 0 0 0-.2.53q0 .32.25.56t.86.37l1.82.38q1.16.22 1.62.77.48.53.48 1.3t-.4 1.35-1.15.9-1.8.32m8.48 0q-1.2 0-2.2-.46a4 4 0 0 1-1.56-1.32l1.18-1.02q.35.65 1 1.06.68.38 1.6.38.74 0 1.18-.26t.43-.72a.8.8 0 0 0-.21-.52q-.2-.24-.75-.37l-1.68-.35q-1.28-.26-1.83-.82-.54-.58-.54-1.46 0-.65.38-1.21t1.12-.9 1.8-.35q1.2 0 2.04.43.85.42 1.3 1.2l-1.18 1a2 2 0 0 0-.9-.95 2.6 2.6 0 0 0-1.23-.32q-.52 0-.88.13a1.3 1.3 0 0 0-.56.35.8.8 0 0 0-.2.53q0 .32.25.56t.86.37l1.82.38q1.15.22 1.62.77.48.53.48 1.3t-.4 1.35-1.15.9-1.8.32m6.3-9.5q-.56 0-.87-.28-.28-.28-.28-.8t.28-.78.87-.27q.54 0 .83.27.3.27.3.78t-.3.8q-.29.28-.83.28m.85 1.34v8h-1.72v-8zm6.15-.16q1.17 0 2.06.5a3.4 3.4 0 0 1 1.4 1.44q.5.92.5 2.22t-.5 2.24a3.4 3.4 0 0 1-1.4 1.42q-.9.5-2.06.5t-2.07-.5a3.6 3.6 0 0 1-1.4-1.42q-.52-.94-.52-2.24t.52-2.22a3.5 3.5 0 0 1 1.4-1.44q.9-.5 2.07-.5m0 1.34q-.72 0-1.24.34-.49.32-.76.94-.28.63-.28 1.54 0 .9.28 1.54.27.62.76.96.52.32 1.24.32t1.21-.32q.5-.34.77-.96.27-.64.27-1.54 0-.91-.27-1.54t-.77-.94q-.5-.34-1.21-.34m6.12 6.82v-8h1.52l.11 2.08-.22-.22q.22-.7.64-1.14a3 3 0 0 1 1-.67 4 4 0 0 1 1.25-.21q.85 0 1.52.34a2.5 2.5 0 0 1 1.1.97q.4.66.4 1.67V182h-1.72v-4.66q0-1.18-.5-1.63-.48-.46-1.21-.46-.53 0-1.03.25-.5.24-.83.79-.32.54-.32 1.45V182zm12.94.16q-1.2 0-2.19-.46a4 4 0 0 1-1.57-1.32l1.19-1.02q.35.65 1 1.06.68.38 1.6.38.74 0 1.17-.26t.44-.72a.8.8 0 0 0-.21-.52q-.2-.24-.75-.37l-1.68-.35q-1.28-.26-1.83-.82-.54-.58-.54-1.46 0-.65.38-1.21t1.12-.9q.76-.35 1.8-.35 1.2 0 2.04.43.85.42 1.3 1.2l-1.19 1a2 2 0 0 0-.9-.95 2.6 2.6 0 0 0-1.22-.32q-.51 0-.88.13t-.56.35a.8.8 0 0 0-.2.53q0 .32.24.56t.87.37l1.82.38q1.15.22 1.62.77.48.53.48 1.3t-.4 1.35-1.15.9-1.8.32m13.84-12.11.9.9q-1.02.9-1.62 1.93a8 8 0 0 0-.88 2.18 11 11 0 0 0-.27 2.5q0 1.32.27 2.49.27 1.15.88 2.16t1.61 1.93l-.9.9q-1.74-1.4-2.63-3.28-.88-1.89-.88-4.2 0-2.34.88-4.23.9-1.89 2.64-3.28m11.07 9.15a4 4 0 0 1-.96 1.63 4 4 0 0 1-1.5 1 5 5 0 0 1-1.9.33q-1.53 0-2.65-.66-1.12-.65-1.73-1.87-.6-1.21-.6-2.91t.6-2.91 1.73-1.87 2.63-.66q1.04 0 1.87.29a4 4 0 0 1 1.44.86q.6.58.91 1.44l-1.62.72q-.32-.94-.92-1.37-.61-.45-1.59-.45-.97 0-1.71.46-.73.47-1.15 1.35-.4.88-.4 2.14 0 1.25.38 2.14.39.88 1.1 1.35t1.73.46q.98 0 1.68-.5.72-.5 1.03-1.51zm3.61-8.8v9.36q0 .6.2.82t.7.22q.28 0 .48-.03.2-.05.5-.16l-.18 1.28q-.28.12-.63.19t-.7.08q-1.07 0-1.59-.54-.5-.56-.5-1.72v-9.5zm7.98 6.46q0-.8-.45-1.23-.43-.45-1.2-.45-.72 0-1.23.34t-.76 1.09l-1.44-.61a3 3 0 0 1 1.19-1.57q.9-.59 2.3-.59.96 0 1.7.32.73.3 1.15.93.43.62.43 1.6v3.57q0 .59.6.59.28 0 .55-.08l-.1 1.18q-.36.18-.92.18-.51 0-.93-.18a1.6 1.6 0 0 1-.64-.56q-.22-.38-.22-.94v-.11l.35-.02a2 2 0 0 1-.6 1.04 3 3 0 0 1-1.03.6 4 4 0 0 1-1.2.2 4 4 0 0 1-1.36-.24q-.6-.24-.95-.72-.33-.5-.33-1.22 0-.9.57-1.47.6-.57 1.67-.78l3.1-.61-.02 1.2-2.25.46q-.67.13-1 .37t-.35.7a.9.9 0 0 0 .34.73q.35.25.93.25.4 0 .77-.1.38-.09.68-.3.31-.22.47-.56.17-.35.17-.83zm5.36-4.2q-.56 0-.86-.28t-.3-.8.3-.78q.3-.27.86-.27.54 0 .83.27.3.27.3.78t-.3.8q-.29.28-.83.28m.85 1.34v8h-1.71v-8zm2.68 8v-8h1.52l.08 1.34q.41-.76 1.1-1.13a3 3 0 0 1 1.49-.37q.86 0 1.58.4.74.38 1.1 1.17.26-.53.71-.88a3 3 0 0 1 1-.51 4 4 0 0 1 1.06-.18q.77 0 1.44.32t1.1.98.4 1.68V182h-1.7v-4.91q0-.98-.47-1.41t-1.18-.43q-.56 0-1.04.27-.47.27-.75.82-.3.52-.3 1.3V182h-1.7v-4.91q0-.98-.47-1.41t-1.18-.43q-.48 0-.96.25t-.8.8-.32 1.44V182zm18.23.16q-1.2 0-2.2-.46a4 4 0 0 1-1.57-1.32l1.19-1.02q.35.65 1 1.06.68.38 1.6.38.74 0 1.18-.26t.43-.72a.8.8 0 0 0-.21-.52q-.2-.24-.75-.37l-1.68-.35q-1.28-.26-1.83-.82-.54-.58-.54-1.46 0-.65.38-1.21t1.12-.9 1.8-.35q1.2 0 2.04.43.85.42 1.3 1.2l-1.18 1a2 2 0 0 0-.9-.95 2.6 2.6 0 0 0-1.23-.32q-.52 0-.88.13a1.3 1.3 0 0 0-.56.35.8.8 0 0 0-.2.53q0 .32.24.56t.87.37l1.82.38q1.15.22 1.62.77.48.53.48 1.3t-.4 1.35-1.15.9-1.8.32m4.8 2.88-.89-.9q1.02-.92 1.62-1.93a8 8 0 0 0 .88-2.16q.27-1.17.27-2.5 0-1.36-.27-2.5a8 8 0 0 0-.88-2.17q-.6-1.02-1.62-1.94l.9-.9q1.74 1.4 2.62 3.29.9 1.89.9 4.22 0 2.32-.9 4.21-.88 1.87-2.62 3.28"/><path fill="#5d636d" d="M49.29 203.62q1.22 0 2.1.5t1.47 1.46l-.94.73q-.52-.9-1.18-1.26-.64-.38-1.56-.38-.75 0-1.24.21-.47.21-.7.56-.22.34-.22.77 0 .49.3.87.32.36 1.24.57l2 .45q1.33.3 1.85.9.53.58.53 1.47 0 .78-.44 1.4-.44.6-1.24.93t-1.87.34q-1.01 0-1.78-.27a4 4 0 0 1-1.3-.74 4 4 0 0 1-.9-1.03l.98-.8q.27.53.69.94t1 .63 1.38.22q.71 0 1.23-.17.53-.18.81-.52t.28-.84q0-.44-.3-.8-.29-.36-1.1-.54l-2.17-.49q-.85-.2-1.39-.53-.51-.35-.75-.81a2.4 2.4 0 0 1-.23-1.03q0-.74.41-1.35.42-.63 1.2-1.01t1.84-.38m8.71 9.52q-.99 0-1.77-.43a3 3 0 0 1-1.2-1.25q-.44-.83-.44-1.96t.43-1.95 1.2-1.26 1.71-.43 1.67.42 1.06 1.15q.37.71.37 1.6 0 .25-.02.44t-.04.35h-5.65v-1h5.16l-.57.12q0-1-.56-1.55-.55-.55-1.44-.55-.69 0-1.2.32-.48.31-.76.91-.27.59-.27 1.43 0 .83.28 1.43t.78.92q.52.31 1.24.31.77 0 1.24-.3.5-.29.79-.8l.88.53a3 3 0 0 1-.69.82q-.4.35-.96.55a4 4 0 0 1-1.24.18m6.22-10.36v8.44q0 .53.2.74t.63.2q.28 0 .46-.04t.5-.16l-.2.98q-.22.1-.48.14-.27.06-.55.06-.85 0-1.27-.46-.4-.46-.4-1.42v-8.48zm6.14 10.36q-.99 0-1.77-.43a3 3 0 0 1-1.2-1.25q-.44-.83-.44-1.96t.43-1.95 1.2-1.26q.75-.43 1.71-.43.98 0 1.67.42.7.42 1.06 1.15.37.71.37 1.6 0 .25-.02.44t-.04.35h-5.65v-1h5.16l-.57.12q0-1-.56-1.55-.55-.55-1.44-.55-.69 0-1.2.32-.48.31-.76.91-.27.59-.27 1.43 0 .83.28 1.43t.78.92q.52.31 1.24.31.77 0 1.24-.3.5-.29.79-.8l.88.53a3 3 0 0 1-.69.82 3 3 0 0 1-.96.55 4 4 0 0 1-1.24.18m8.06-7.28q.72 0 1.27.22.56.23.97.65t.65 1l-1.06.5q-.22-.68-.69-1.03-.44-.36-1.17-.36-.7 0-1.2.32a2 2 0 0 0-.78.91q-.26.59-.26 1.43 0 .83.26 1.43t.77.92 1.2.31q.55 0 .95-.17t.65-.49.37-.78l1.03.36a3 3 0 0 1-.65 1.1 3 3 0 0 1-1 .72 3 3 0 0 1-1.31.24q-.98 0-1.75-.43a3 3 0 0 1-1.2-1.25q-.44-.83-.44-1.96t.43-1.95 1.2-1.26q.78-.43 1.76-.43m6.58-1.85v7.06q0 .52.3.77t.75.25q.41 0 .7-.14t.54-.38l.39.94q-.32.3-.77.46-.44.17-1.01.17-.53 0-1-.18a1.7 1.7 0 0 1-.74-.6q-.26-.42-.28-1.1v-6.94zm2.55 1.99v.97H82.5V206zm7.82-1.99v7.06q0 .52.3.77t.75.25q.4 0 .7-.14t.53-.38l.4.94q-.33.3-.78.46-.43.17-1 .17-.54 0-1-.18a1.7 1.7 0 0 1-.74-.6q-.27-.42-.28-1.1v-6.94zm2.55 1.99v.97h-5.07V206zm1.66 7v-10.22h1.12v4.27q.37-.63.97-.91t1.31-.28q.76 0 1.38.3.61.27.98.86t.37 1.5V213h-1.12v-4.09q0-1.16-.5-1.6-.49-.47-1.22-.47-.5 0-1 .24t-.85.78q-.32.53-.32 1.43V213zm11.6.14q-1 0-1.78-.43a3 3 0 0 1-1.2-1.25q-.44-.83-.44-1.96t.43-1.95a3 3 0 0 1 1.2-1.26q.75-.43 1.72-.43.98 0 1.66.42.7.42 1.07 1.15.36.71.36 1.6l-.01.44q-.01.2-.05.35h-5.65v-1h5.16l-.57.12q0-1-.56-1.55-.55-.55-1.44-.55-.69 0-1.2.32-.48.31-.76.91-.27.59-.27 1.43 0 .83.28 1.43t.79.92 1.23.31q.77 0 1.24-.3.5-.29.79-.8l.88.53a3 3 0 0 1-.69.82 3 3 0 0 1-.96.55 4 4 0 0 1-1.23.18m14-4.66q0-.79-.41-1.2-.42-.44-1.2-.44-.72 0-1.22.32-.5.31-.74 1.01l-.91-.56q.28-.79 1.03-1.26.76-.49 1.88-.49.75 0 1.37.27.62.25.97.78.36.52.36 1.34v3.4q0 .5.53.5.27 0 .52-.07l-.06.88q-.28.14-.72.14-.41 0-.73-.16a1 1 0 0 1-.5-.46q-.19-.32-.19-.8v-.14l.28.05a2 2 0 0 1-.57.9 3 3 0 0 1-.91.5 3 3 0 0 1-1 .15q-.61 0-1.14-.21a2 2 0 0 1-.86-.63q-.3-.43-.3-1.06 0-.79.51-1.3.53-.51 1.47-.7l2.77-.54v.93l-2.25.46q-.69.14-1.02.39a.8.8 0 0 0-.34.7 1 1 0 0 0 .34.71q.35.27.98.27.4 0 .77-.1a2 2 0 0 0 .67-.32q.3-.22.46-.55t.17-.78zm3.85 4.52v-7h.91l.16 1.15a2 2 0 0 1 .85-.97q.57-.32 1.39-.32.18 0 .39.03t.38.11l-.2 1.02-.34-.08-.52-.03q-.43 0-.88.25-.43.25-.73.77-.29.5-.29 1.29V213zm8.42.14q-1 0-1.77-.43a3 3 0 0 1-1.2-1.25q-.44-.83-.44-1.96t.43-1.95a3 3 0 0 1 1.2-1.26q.75-.43 1.71-.43.98 0 1.67.42.7.42 1.06 1.15a3.5 3.5 0 0 1 .37 1.6q0 .25-.02.44l-.04.35h-5.65v-1h5.16l-.57.12q0-1-.56-1.55-.55-.55-1.45-.55-.68 0-1.19.32-.49.31-.77.91-.26.59-.26 1.43 0 .83.28 1.43t.78.92q.52.31 1.23.31.77 0 1.25-.3.5-.29.78-.8l.89.53a3 3 0 0 1-.69.82 3 3 0 0 1-.97.55 4 4 0 0 1-1.23.18m9.24-4.66q0-.79-.42-1.2-.42-.44-1.19-.44-.72 0-1.23.32-.5.31-.74 1.01l-.9-.56q.27-.79 1.03-1.26.75-.49 1.87-.49.76 0 1.37.27.62.25.97.78.37.52.37 1.34v3.4q0 .5.53.5.26 0 .52-.07l-.06.88q-.28.14-.73.14-.4 0-.73-.16a1 1 0 0 1-.5-.46q-.18-.32-.18-.8v-.14l.28.05a2 2 0 0 1-.58.9 3 3 0 0 1-.9.5 3 3 0 0 1-1 .15q-.62 0-1.15-.21a2 2 0 0 1-.85-.63q-.31-.43-.31-1.06 0-.79.52-1.3.53-.51 1.47-.7l2.77-.54v.93l-2.26.46q-.68.14-1.02.39a.8.8 0 0 0-.33.7 1 1 0 0 0 .33.71q.35.27.98.27.41 0 .77-.1a2 2 0 0 0 .68-.32q.29-.22.46-.55.16-.33.16-.78zm6.37 4.66a4 4 0 0 1-1.9-.43 3 3 0 0 1-1.3-1.24l.94-.68q.31.64.9 1 .6.37 1.44.37.74 0 1.16-.28.42-.3.42-.76a1 1 0 0 0-.2-.53q-.18-.25-.7-.36l-1.69-.35q-1.02-.21-1.47-.7-.43-.5-.43-1.22 0-.58.32-1.05.34-.48.94-.76.61-.29 1.44-.29 1.04 0 1.75.4t1.06 1.15l-.93.62q-.24-.62-.77-.9a2 2 0 0 0-1.1-.29q-.51 0-.88.14a1.3 1.3 0 0 0-.54.4 1 1 0 0 0-.19.54q0 .3.21.57.21.25.79.37l1.75.36q.98.2 1.37.64t.4 1.1-.36 1.16q-.35.49-.98.75t-1.45.27m11.01-9.13v7.06q0 .52.3.77t.75.25q.4 0 .7-.14t.53-.38l.4.94q-.33.3-.78.46-.43.17-1 .17-.54 0-1-.18a1.7 1.7 0 0 1-.74-.6q-.27-.42-.28-1.1v-6.94zm2.55 1.99v.97h-5.07V206zm1.66 7v-10.22h1.12v4.27q.37-.63.97-.91t1.31-.28q.76 0 1.38.3.61.27.98.86.38.59.38 1.5V213h-1.12v-4.09q0-1.16-.5-1.6-.5-.47-1.23-.47-.5 0-1 .24t-.84.78-.33 1.43V213zm9.23-8.34a1 1 0 0 1-.61-.23 1 1 0 0 1-.23-.61q0-.38.23-.6a.8.8 0 0 1 .61-.24q.38 0 .6.23.24.23.24.6a.8.8 0 0 1-.24.62q-.22.23-.6.23m.56 1.34v7h-1.12v-7zm5.12 7.14a4 4 0 0 1-1.89-.43 3 3 0 0 1-1.32-1.24l.96-.68q.3.64.9 1 .6.37 1.43.37.75 0 1.17-.28.42-.3.42-.76a1 1 0 0 0-.2-.53q-.18-.25-.71-.36l-1.68-.35q-1.03-.21-1.47-.7-.44-.5-.44-1.22 0-.58.32-1.05a2.3 2.3 0 0 1 .94-.76q.62-.29 1.44-.29 1.04 0 1.75.4t1.07 1.15l-.94.62q-.24-.62-.77-.9a2 2 0 0 0-1.1-.29q-.51 0-.87.14a1.3 1.3 0 0 0-.55.4 1 1 0 0 0-.18.54q0 .3.2.57.22.25.8.37l1.74.36q.98.2 1.37.64t.4 1.1-.35 1.16-.98.75-1.46.27m9.63-.14v-7h.91l.16 1.15a2 2 0 0 1 .85-.97q.58-.32 1.39-.32.18 0 .39.03t.38.11l-.2 1.02-.33-.08-.52-.03q-.43 0-.88.25-.44.25-.73.77-.3.5-.3 1.29V213zm8.4-7.14q1 0 1.75.43.77.44 1.2 1.26.44.82.44 1.95t-.44 1.96a3 3 0 0 1-1.2 1.25q-.76.43-1.75.43-.98 0-1.75-.43a3 3 0 0 1-1.2-1.25q-.44-.83-.44-1.96t.43-1.95a3 3 0 0 1 1.2-1.26q.78-.43 1.76-.43m0 .97q-.72 0-1.22.32a2 2 0 0 0-.78.92q-.27.59-.27 1.43 0 .83.27 1.43.28.6.78.92t1.22.32 1.22-.32.77-.92.28-1.43-.28-1.43a2 2 0 0 0-.77-.92q-.5-.32-1.22-.32m6.56-4.05v8.44q0 .53.2.74.19.2.63.2.27 0 .46-.04l.49-.16-.18.98a2 2 0 0 1-.5.14q-.26.06-.54.06-.86 0-1.27-.46t-.41-1.42v-8.48zm6.14 10.36q-1 0-1.78-.43a3 3 0 0 1-1.2-1.25q-.44-.83-.44-1.96t.44-1.95a3 3 0 0 1 1.19-1.26q.75-.43 1.72-.43.98 0 1.67.42.7.42 1.06 1.15a3.5 3.5 0 0 1 .36 1.6l-.01.44-.04.35h-5.66v-1h5.17l-.58.12q0-1-.56-1.55-.54-.55-1.44-.55-.68 0-1.19.32-.49.31-.77.91-.26.59-.26 1.43 0 .83.28 1.43t.78.92q.52.31 1.23.31.77 0 1.25-.3.49-.29.78-.8l.88.53a3 3 0 0 1-.68.82 3 3 0 0 1-.97.55 4 4 0 0 1-1.23.18m12.45 0a4 4 0 0 1-1.9-.43 3 3 0 0 1-1.31-1.24l.95-.68q.3.64.9 1 .6.37 1.44.37.74 0 1.16-.28.42-.3.42-.76a1 1 0 0 0-.2-.53q-.18-.25-.7-.36l-1.69-.35q-1.02-.21-1.47-.7-.43-.5-.43-1.22 0-.58.32-1.05.33-.48.94-.76t1.44-.29q1.03 0 1.75.4t1.06 1.15l-.94.62q-.23-.62-.77-.9a2 2 0 0 0-1.1-.29q-.5 0-.87.14a1.3 1.3 0 0 0-.54.4 1 1 0 0 0-.19.54q0 .3.21.57.21.25.79.37l1.75.36q.98.2 1.37.64t.4 1.1-.36 1.16q-.35.49-.98.75t-1.45.27m4.86-.14v-10.22h1.12v4.27q.36-.63.96-.91t1.32-.28q.76 0 1.37.3.62.27.98.86.38.59.38 1.5V213h-1.12v-4.09q0-1.16-.5-1.6-.5-.47-1.22-.47-.5 0-1.01.24t-.84.78q-.32.53-.32 1.43V213zm11.56-7.14q1 0 1.75.43a3 3 0 0 1 1.2 1.26q.44.82.44 1.95t-.43 1.96q-.43.81-1.2 1.25-.76.43-1.76.43-.98 0-1.75-.43a3 3 0 0 1-1.2-1.25q-.43-.83-.43-1.96t.43-1.95 1.2-1.26 1.75-.43m0 .97q-.71 0-1.21.32a2 2 0 0 0-.79.92q-.26.59-.26 1.43 0 .83.26 1.43.28.6.79.92t1.21.32 1.22-.32.77-.92q.28-.6.28-1.43 0-.84-.28-1.43a2 2 0 0 0-.77-.92q-.5-.32-1.22-.32m8.04 6.31q-.68 0-1.28-.25a2 2 0 0 1-.96-.81q-.37-.58-.37-1.49V206h1.12v4.3q0 1.06.46 1.47.47.39 1.3.39.4 0 .78-.13.37-.14.67-.42.3-.29.47-.74.19-.45.19-1.06V206h1.12v7h-.98l-.07-1.06a2.2 2.2 0 0 1-1 .92q-.61.28-1.45.28m7.17-10.36v8.44q0 .53.2.74.19.2.62.2.28 0 .46-.04l.5-.16-.19.98a2 2 0 0 1-.49.14 3 3 0 0 1-.54.06q-.86 0-1.28-.46-.4-.46-.4-1.42v-8.48zm5.94 10.36a3 3 0 0 1-1.6-.43 3 3 0 0 1-1.16-1.25q-.43-.83-.43-1.96 0-1.16.46-1.97a3 3 0 0 1 1.22-1.24 3 3 0 0 1 1.62-.43q.87 0 1.5.45.65.45.86 1.19l-.14.1v-4.82h1.12V213h-.98l-.1-1.7.15-.08a2 2 0 0 1-.47 1.05q-.37.42-.91.65a3 3 0 0 1-1.14.22m.11-.98q.68 0 1.17-.34.5-.33.77-.95.28-.63.28-1.47 0-.8-.28-1.37a2 2 0 0 0-.76-.88 2 2 0 0 0-1.12-.31q-1.07 0-1.65.73-.6.73-.6 1.93t.58 1.93 1.61.73m14.8-3.68q0-.79-.42-1.2-.42-.44-1.2-.44-.72 0-1.22.32-.5.31-.75 1.01l-.9-.56q.27-.78 1.03-1.26.76-.49 1.88-.49.75 0 1.37.27.61.25.96.78.37.52.37 1.34v3.4q0 .5.53.5.27 0 .52-.07l-.06.88q-.28.14-.73.14-.4 0-.72-.16a1 1 0 0 1-.5-.46q-.2-.32-.19-.8v-.14l.28.05a2 2 0 0 1-.57.9 3 3 0 0 1-.91.5 3 3 0 0 1-1 .15q-.62 0-1.15-.21t-.85-.63q-.3-.43-.3-1.06 0-.79.51-1.3.53-.51 1.47-.7l2.77-.54v.93l-2.25.46q-.69.14-1.02.39a.8.8 0 0 0-.34.7 1 1 0 0 0 .34.71q.35.27.98.27.4 0 .77-.1a2 2 0 0 0 .67-.32q.3-.22.46-.55t.17-.78zm6.74-2.62q.73 0 1.27.22.56.23.97.65t.66 1l-1.07.5q-.22-.68-.68-1.03-.45-.36-1.18-.36-.7 0-1.2.32-.5.31-.77.91-.27.59-.27 1.43 0 .83.27 1.43.26.6.77.92.5.31 1.2.31.55 0 .94-.17.4-.17.66-.49t.36-.78l1.04.36a3 3 0 0 1-.66 1.1q-.4.47-1 .72a3 3 0 0 1-1.31.24q-.98 0-1.75-.43a3 3 0 0 1-1.2-1.25q-.44-.83-.44-1.96t.43-1.95 1.2-1.26 1.76-.43m7.83 0q.73 0 1.28.22.56.23.96.65t.66 1l-1.06.5q-.23-.68-.7-1.03-.44-.36-1.17-.36-.7 0-1.2.32-.5.31-.77.91-.27.59-.27 1.43 0 .83.27 1.43t.77.92 1.2.31q.55 0 .94-.17.4-.17.66-.49.27-.32.36-.78l1.04.36a3 3 0 0 1-.66 1.1q-.4.47-1 .72a3 3 0 0 1-1.3.24q-.99 0-1.76-.43a3 3 0 0 1-1.2-1.25q-.44-.83-.44-1.96t.44-1.95 1.2-1.26 1.75-.43m7.86 7.28q-.99 0-1.77-.43a3 3 0 0 1-1.2-1.25q-.44-.83-.44-1.96t.43-1.95 1.2-1.26q.75-.43 1.71-.43.98 0 1.67.42.7.42 1.06 1.15a3.5 3.5 0 0 1 .37 1.6q0 .25-.02.44l-.04.35h-5.65v-1h5.16l-.57.12q0-1-.56-1.55-.55-.55-1.44-.55-.7 0-1.2.32-.49.31-.77.91-.26.59-.26 1.43 0 .83.28 1.43t.78.92q.52.31 1.23.31.77 0 1.25-.3.5-.29.78-.8l.89.53a3 3 0 0 1-.69.82q-.4.35-.97.55a4 4 0 0 1-1.23.18m7.68 0a4 4 0 0 1-1.9-.43 3 3 0 0 1-1.3-1.24l.94-.68q.31.64.9 1 .6.37 1.44.37.74 0 1.16-.28.42-.3.42-.76a1 1 0 0 0-.2-.53q-.17-.25-.7-.36l-1.69-.35q-1.02-.21-1.47-.7-.43-.5-.43-1.22 0-.58.32-1.05.34-.48.94-.76.62-.29 1.44-.29 1.04 0 1.75.4t1.06 1.15l-.93.62q-.24-.62-.77-.9a2 2 0 0 0-1.1-.29q-.51 0-.88.14a1.3 1.3 0 0 0-.54.4 1 1 0 0 0-.19.54q0 .3.21.57.21.25.79.37l1.75.36q.98.2 1.37.64t.4 1.1-.36 1.16q-.35.49-.98.75t-1.45.27m7.38 0a4 4 0 0 1-1.89-.43 3 3 0 0 1-1.32-1.24l.96-.68q.3.64.9 1 .6.37 1.43.37.75 0 1.17-.28.42-.3.42-.76a1 1 0 0 0-.2-.53q-.18-.25-.71-.36l-1.68-.35q-1.03-.21-1.47-.7-.44-.5-.44-1.22 0-.58.32-1.05.34-.48.94-.76.62-.29 1.44-.29 1.04 0 1.75.4t1.07 1.15l-.94.62q-.24-.62-.77-.9a2 2 0 0 0-1.1-.29q-.51 0-.87.14a1.3 1.3 0 0 0-.55.4 1 1 0 0 0-.18.54q0 .3.2.57.22.25.8.37l1.74.36q.98.2 1.37.64t.4 1.1-.35 1.16-.98.75-1.46.27m13.72-4.66q0-.79-.42-1.2-.42-.44-1.19-.44-.73 0-1.23.32-.5.31-.74 1.01l-.91-.56q.28-.79 1.03-1.26.76-.49 1.88-.49.76 0 1.37.27.62.25.97.78.36.52.36 1.34v3.4q0 .5.53.5.27 0 .52-.07l-.05.88q-.28.14-.73.14-.4 0-.73-.16a1 1 0 0 1-.5-.46q-.19-.32-.19-.8v-.14l.28.05a2 2 0 0 1-.57.9 3 3 0 0 1-.91.5 3 3 0 0 1-1 .15q-.6 0-1.14-.21a2 2 0 0 1-.86-.63q-.3-.43-.3-1.06 0-.79.51-1.3.54-.51 1.47-.7l2.78-.54v.93l-2.26.46q-.68.14-1.02.39a.8.8 0 0 0-.34.7 1 1 0 0 0 .34.71q.35.27.98.27.4 0 .77-.1a2 2 0 0 0 .67-.32q.3-.22.46-.55t.17-.78zm3.84 4.52v-7h.98l.1 1.57-.18-.16a2.3 2.3 0 0 1 1.47-1.4 4 4 0 0 1 1.04-.15q.75 0 1.37.3.61.27.98.86.38.59.38 1.5V213h-1.12v-4.09q0-1.16-.5-1.6-.5-.47-1.23-.47-.5 0-1 .24a2 2 0 0 0-.84.77q-.33.53-.33 1.43V213zm11.4.14a3 3 0 0 1-1.6-.43 3 3 0 0 1-1.16-1.25q-.43-.83-.43-1.96 0-1.16.46-1.97a3 3 0 0 1 1.22-1.24 3 3 0 0 1 1.62-.43q.87 0 1.5.45.65.45.86 1.19l-.14.1v-4.82h1.12V213h-.98l-.1-1.7.15-.08a2 2 0 0 1-.47 1.05q-.37.42-.91.65a3 3 0 0 1-1.14.22m.11-.98q.68 0 1.17-.34.5-.33.77-.95.28-.63.28-1.47 0-.8-.28-1.37a2 2 0 0 0-.76-.88 2 2 0 0 0-1.12-.31q-1.06 0-1.65.73t-.59 1.93.57 1.93 1.61.73m13.44.98a3 3 0 0 1-1.6-.43 3 3 0 0 1-1.16-1.25q-.43-.83-.43-1.96 0-1.16.46-1.97a3 3 0 0 1 1.22-1.24 3 3 0 0 1 1.62-.43q.87 0 1.5.45.64.45.85 1.19l-.14.1v-4.82h1.12V213h-.98l-.1-1.7.16-.08a2 2 0 0 1-.48 1.05q-.36.42-.9.65a3 3 0 0 1-1.14.22m.11-.98q.67 0 1.16-.34.5-.33.77-.95.28-.63.28-1.47 0-.8-.28-1.37a2 2 0 0 0-.75-.88 2 2 0 0 0-1.12-.31q-1.07 0-1.65.73t-.6 1.93.58 1.93 1.61.73m8.86.98q-.99 0-1.77-.43a3 3 0 0 1-1.2-1.25q-.44-.83-.44-1.96t.43-1.95 1.2-1.26 1.71-.43 1.67.42 1.06 1.15a3.5 3.5 0 0 1 .37 1.6q0 .25-.02.44l-.04.35h-5.65v-1h5.16l-.57.12q0-1-.56-1.55-.55-.55-1.44-.55-.69 0-1.2.32-.48.31-.76.91-.27.59-.27 1.43 0 .83.28 1.43t.78.92q.52.31 1.24.31.77 0 1.24-.3.5-.29.79-.8l.88.53a3 3 0 0 1-.69.82q-.4.35-.96.55a4 4 0 0 1-1.24.18m7.93-10.43q.37 0 .69.08t.5.24l-.3.91a1 1 0 0 0-.36-.15 2 2 0 0 0-.43-.06q-.6 0-.94.3-.33.28-.33.9V213h-1.12v-8.18q0-.46.14-.85t.42-.67a2 2 0 0 1 .72-.44 3 3 0 0 1 1.01-.15m1.16 3.29v.97h-4.85V206zm2.06-1.34a1 1 0 0 1-.61-.23 1 1 0 0 1-.23-.61q0-.38.23-.6a.8.8 0 0 1 .61-.24q.38 0 .6.23.24.23.24.6a.8.8 0 0 1-.24.62q-.22.23-.6.23m.56 1.34v7h-1.12v-7zm2.6 7v-7h.99l.1 1.57-.19-.16q.23-.56.6-.9.38-.34.87-.5a4 4 0 0 1 1.04-.15q.76 0 1.37.3.62.27.98.86.38.59.38 1.5V213h-1.12v-4.09q0-1.16-.5-1.6-.5-.47-1.22-.47-.5 0-1.01.24a2 2 0 0 0-.84.77q-.32.53-.32 1.43V213zm11.6.14q-1 0-1.78-.43a3 3 0 0 1-1.2-1.25q-.43-.83-.43-1.96t.43-1.95 1.19-1.26 1.72-.43q.98 0 1.67.42.7.42 1.06 1.15a3.5 3.5 0 0 1 .37 1.6q0 .25-.02.44l-.04.35h-5.66v-1h5.17l-.57.12q0-1-.56-1.55-.55-.55-1.45-.55-.68 0-1.19.32-.49.31-.77.91-.26.59-.26 1.43 0 .83.28 1.43t.78.92q.52.31 1.23.31.77 0 1.25-.3.49-.29.78-.8l.89.53a3 3 0 0 1-.69.82q-.4.35-.97.55a4 4 0 0 1-1.23.18m11.3-9.13v7.06q0 .52.3.77t.76.25q.4 0 .7-.14t.53-.38l.4.94q-.33.3-.78.46-.43.17-1 .17-.54 0-1-.18a1.7 1.7 0 0 1-.74-.6q-.27-.42-.28-1.1v-6.94zm2.55 1.99v.97h-5.06V206zm1.67 7v-10.22h1.12v4.27q.36-.63.97-.91.6-.28 1.31-.28.76 0 1.37.3.62.27.98.86.38.59.38 1.5V213h-1.12v-4.09q0-1.16-.5-1.6-.5-.47-1.22-.47-.5 0-1 .24t-.85.78q-.32.53-.32 1.43V213zm11.6.14q-1 0-1.78-.43a3 3 0 0 1-1.2-1.25q-.44-.83-.44-1.96t.43-1.95a3 3 0 0 1 1.2-1.26q.75-.43 1.71-.43.98 0 1.67.42.7.42 1.06 1.15.37.71.37 1.6 0 .25-.02.44t-.04.35h-5.65v-1h5.16l-.57.12q0-1-.56-1.55-.55-.55-1.44-.55-.7 0-1.2.32-.48.31-.76.91-.27.59-.27 1.43 0 .83.28 1.43t.78.92q.52.31 1.24.31.77 0 1.24-.3.5-.29.79-.8l.88.53a3 3 0 0 1-.69.82 3 3 0 0 1-.96.55 4 4 0 0 1-1.24.18m5.72-8.48a1 1 0 0 1-.62-.23q-.22-.24-.22-.61t.22-.6a.8.8 0 0 1 .62-.24q.38 0 .6.23.24.23.24.6t-.24.62q-.22.23-.6.23m.56 1.34v7H426v-7zm2.6 7v-7h.9l.16 1.15q.3-.65.85-.97.58-.32 1.4-.32.17 0 .38.03.23.03.38.11l-.2 1.02-.33-.08-.52-.03q-.43 0-.88.25-.44.25-.73.77-.3.5-.3 1.29V213zm11.22-10.22v8.44q0 .53.2.74.19.2.62.2.28 0 .47-.04l.49-.16-.19.98a2 2 0 0 1-.49.14q-.26.06-.54.06-.86 0-1.28-.46-.4-.46-.4-1.42v-8.48zm6.14 10.36q-1 0-1.78-.43a3 3 0 0 1-1.2-1.25q-.44-.83-.44-1.96t.44-1.95a3 3 0 0 1 1.19-1.26q.75-.43 1.72-.43.98 0 1.67.42.7.42 1.06 1.15a3.5 3.5 0 0 1 .36 1.6l-.01.44-.04.35h-5.66v-1h5.17l-.58.12q0-1-.56-1.55-.54-.55-1.44-.55-.68 0-1.19.32-.49.31-.77.91-.26.59-.26 1.43 0 .83.28 1.43t.78.92q.52.31 1.23.31.77 0 1.25-.3.49-.29.78-.8l.88.53a3 3 0 0 1-.68.82 3 3 0 0 1-.97.55 4 4 0 0 1-1.23.18m9.6-7.14h1.17l-2.9 7h-1.13l-2.91-7h1.27l2.21 5.87zm5.56 7.14q-1 0-1.78-.43a3 3 0 0 1-1.2-1.25q-.43-.83-.43-1.96t.43-1.95a3 3 0 0 1 1.19-1.26q.76-.43 1.72-.43.98 0 1.67.42.7.42 1.06 1.15a3.5 3.5 0 0 1 .37 1.6q0 .25-.02.44l-.04.35h-5.66v-1h5.17l-.57.12q0-1-.56-1.55-.55-.55-1.45-.55-.68 0-1.19.32-.49.31-.77.91-.26.59-.26 1.43 0 .83.28 1.43t.78.92q.52.31 1.23.31.77 0 1.25-.3.49-.29.78-.8l.89.53a3 3 0 0 1-.69.82 3 3 0 0 1-.97.55 4 4 0 0 1-1.23.18m6.22-10.36v8.44q0 .53.2.74t.63.2q.28 0 .46-.04l.49-.16-.18.98a2 2 0 0 1-.5.14 3 3 0 0 1-.54.06q-.85 0-1.27-.46-.4-.46-.41-1.42v-8.48zm10.4 3.08q.99 0 1.74.43.77.44 1.2 1.26.44.82.44 1.95t-.43 1.96q-.44.81-1.2 1.25t-1.76.43-1.75-.43a3 3 0 0 1-1.2-1.25q-.44-.83-.44-1.96t.44-1.95a3 3 0 0 1 1.2-1.26q.77-.43 1.75-.43m0 .97q-.71 0-1.22.32a2 2 0 0 0-.78.92q-.27.59-.27 1.43 0 .83.27 1.43.28.6.78.92t1.22.32 1.22-.32a2 2 0 0 0 .77-.92q.28-.6.28-1.43 0-.84-.28-1.43a2 2 0 0 0-.77-.92q-.5-.32-1.22-.32m8.22-4.12q.36 0 .68.08t.5.24l-.29.91a1 1 0 0 0-.36-.15 2 2 0 0 0-.43-.06q-.6 0-.94.3-.34.28-.34.9V213h-1.12v-8.18q0-.46.14-.85t.42-.67a2 2 0 0 1 .73-.44q.43-.15 1-.15m1.17 3.29v.97h-4.86V206zm8.6-.14q.73 0 1.27.22.57.23.97.65t.66 1l-1.07.5q-.22-.68-.68-1.03-.45-.36-1.18-.36-.7 0-1.2.32-.5.31-.77.91-.27.59-.27 1.43 0 .83.27 1.43t.77.92 1.2.31q.55 0 .94-.17.4-.17.66-.49.27-.32.36-.78l1.04.36a3 3 0 0 1-.66 1.1q-.4.47-1 .72a3 3 0 0 1-1.3.24q-.99 0-1.76-.43a3 3 0 0 1-1.2-1.25q-.44-.83-.44-1.96t.44-1.95 1.2-1.26 1.75-.43m7.83 0q1 0 1.75.43a3 3 0 0 1 1.2 1.26q.44.82.44 1.95t-.43 1.96q-.43.81-1.2 1.25-.76.43-1.76.43-.98 0-1.75-.43a3 3 0 0 1-1.2-1.25q-.43-.83-.43-1.96t.43-1.95 1.2-1.26 1.75-.43m0 .97q-.7 0-1.21.32a2 2 0 0 0-.79.92q-.26.59-.26 1.43 0 .83.26 1.43.28.6.79.92t1.21.32 1.22-.32.77-.92q.28-.6.28-1.43 0-.84-.28-1.43a2 2 0 0 0-.77-.92q-.5-.32-1.22-.32m5.5 6.17v-7h.98l.1 1.57-.18-.16a2.3 2.3 0 0 1 1.47-1.4 4 4 0 0 1 1.03-.15q.76 0 1.38.3.61.27.98.86t.37 1.5V213h-1.12v-4.09q0-1.16-.5-1.6-.49-.47-1.22-.47-.5 0-1 .24a2 2 0 0 0-.85.77q-.32.53-.32 1.43V213zm10.23-8.99v7.06q0 .52.29.77t.76.25q.4 0 .7-.14t.53-.38l.39.94q-.32.3-.77.46a3 3 0 0 1-1 .17q-.54 0-1-.18a1.7 1.7 0 0 1-.74-.6q-.27-.42-.28-1.1v-6.94zm2.54 1.99v.97h-5.06V206zm1.67 7v-7h.9l.16 1.15a2 2 0 0 1 .86-.97q.57-.32 1.38-.32.18 0 .4.03t.37.11l-.2 1.02-.33-.08-.52-.03q-.43 0-.88.25-.43.25-.73.77-.3.5-.3 1.29V213zm8.4-7.14q.99 0 1.74.43a3 3 0 0 1 1.2 1.26q.44.82.44 1.95t-.43 1.96q-.44.81-1.2 1.25t-1.76.43-1.75-.43a3 3 0 0 1-1.2-1.25q-.44-.83-.44-1.96t.44-1.95 1.2-1.26 1.75-.43m0 .97q-.71 0-1.22.32a2 2 0 0 0-.78.92q-.27.59-.27 1.43 0 .83.27 1.43.28.6.78.92t1.22.32 1.22-.32.77-.92.28-1.43-.28-1.43a2 2 0 0 0-.77-.92q-.5-.32-1.22-.32m6.56-4.05v8.44q0 .53.2.74t.63.2q.28 0 .46-.04t.5-.16l-.19.98a2 2 0 0 1-.49.14 3 3 0 0 1-.55.06q-.85 0-1.27-.46-.4-.46-.4-1.42v-8.48zm3.78 8.54q.4 0 .66.25t.25.66-.25.66-.66.25-.66-.25-.25-.66.25-.66.66-.25"/><g clip-path="url(#clip1_139_1038)"><rect width="528" height="335" x="44.809" y="229" fill="#fff" rx="7"/><rect width="528" height="43" fill="#f1f5f9" transform="translate(44.81 229)"/><path fill="#232323" d="M73.91 246.26v9.24h-1.38v-5.35l.1-2.55-2.82 7.9h-1.25l-2.81-7.9h-.01l.1 2.55v5.35h-1.38v-9.24h2.23l1.86 5.35.64 2.2h.03l.66-2.2 1.85-5.35zm5.48 2.1q1.02 0 1.8.43a3 3 0 0 1 1.22 1.26q.45.82.45 1.95t-.45 1.96q-.43.81-1.21 1.25-.79.43-1.81.43t-1.8-.43a3 3 0 0 1-1.24-1.25q-.44-.83-.45-1.96 0-1.13.45-1.95a3 3 0 0 1 1.23-1.26q.79-.43 1.81-.43m0 1.18q-.63 0-1.08.29-.43.28-.67.83T77.4 252t.24 1.34a2 2 0 0 0 .67.84q.45.28 1.08.28t1.06-.28a2 2 0 0 0 .68-.84q.24-.56.23-1.34 0-.8-.23-1.34-.24-.55-.68-.83-.43-.3-1.06-.3m8.05 6.11a3 3 0 0 1-1.59-.43q-.7-.44-1.1-1.25t-.4-1.95q0-1.17.43-1.98t1.16-1.24a3 3 0 0 1 1.6-.43q.89 0 1.5.49.62.49.83 1.27l-.17.16v-4.93h1.5v10.15h-1.33l-.11-1.9.2.01q-.1.63-.47 1.1a2.5 2.5 0 0 1-.9.7 3 3 0 0 1-1.15.23m.32-1.2q.6 0 1.03-.31t.68-.87.23-1.34q0-.73-.23-1.25a2 2 0 0 0-.68-.81 1.7 1.7 0 0 0-.98-.28q-.93 0-1.45.64t-.52 1.78.5 1.8q.5.64 1.42.64m8.26 1.2a3 3 0 0 1-1.28-.25 2 2 0 0 1-.92-.81q-.35-.56-.35-1.46v-4.62h1.5v4.24q0 .95.4 1.32.4.35 1.14.35.35 0 .67-.11.33-.13.6-.38.27-.27.4-.67a3 3 0 0 0 .16-.96v-3.79h1.5v7h-1.32l-.07-1.13a2.3 2.3 0 0 1-.98.96q-.61.31-1.45.31m7.61-10.29v8.19q0 .52.19.71t.6.2q.25 0 .42-.03l.45-.14-.17 1.12a2 2 0 0 1-.55.17q-.3.07-.61.07-.94 0-1.39-.48-.43-.49-.43-1.5v-8.31zm5.99 10.29q-1.05 0-1.85-.43a3 3 0 0 1-1.24-1.25q-.44-.83-.44-1.96t.44-1.95a3 3 0 0 1 1.23-1.26q.78-.43 1.78-.43 1.02 0 1.73.42t1.1 1.15.37 1.65l-.01.48-.04.39h-5.63v-1.15h4.97l-.74.22q0-.95-.48-1.45-.48-.52-1.3-.52-.6 0-1.05.28t-.69.84-.24 1.34.26 1.33.7.83 1.1.28q.7 0 1.14-.27t.68-.74l1.2.56q-.26.5-.7.88-.41.37-1 .56a4 4 0 0 1-1.3.2"/><path fill="#232323" d="M269.95 246.26q1.48 0 2.35.74t.88 2q0 1.3-.88 2.02-.87.7-2.35.7l-.14.08h-2.14v3.7h-1.49v-9.24zm-.11 4.3q.9 0 1.34-.37t.45-1.14-.45-1.14q-.44-.38-1.35-.38h-2.17v3.03zm.88.3 3 4.64H272l-2.57-4.05zm7.55 4.78q-1.05 0-1.85-.43a3 3 0 0 1-1.25-1.25q-.43-.83-.43-1.96t.43-1.95a3 3 0 0 1 1.23-1.26q.79-.43 1.78-.43 1.02 0 1.74.42t1.09 1.15.38 1.65q0 .25-.02.48t-.04.39h-5.63v-1.15h4.97l-.74.22q0-.95-.47-1.45-.48-.52-1.3-.52-.6 0-1.06.28-.44.28-.68.84t-.24 1.34.25 1.33.72.83 1.09.28q.7 0 1.13-.27t.69-.74l1.19.56q-.25.5-.69.88-.42.37-1 .56a4 4 0 0 1-1.3.2m9.07-4.63q0-.7-.4-1.08-.37-.4-1.05-.4-.63 0-1.07.3t-.66.95l-1.26-.53a2.5 2.5 0 0 1 1.03-1.37q.79-.52 2.02-.52.84 0 1.48.28.65.27 1.01.81.38.55.38 1.4v3.12q0 .52.52.52.25 0 .49-.07l-.09 1.04q-.32.15-.8.15-.46 0-.82-.15a1.4 1.4 0 0 1-.56-.5q-.2-.33-.2-.82v-.1l.31-.01a2 2 0 0 1-.52.91 3 3 0 0 1-.9.53 3 3 0 0 1-1.06.17q-.66 0-1.19-.21a2 2 0 0 1-.82-.63q-.3-.43-.3-1.06 0-.79.5-1.3.52-.5 1.46-.68l2.72-.53-.01 1.05-1.98.4q-.59.12-.88.33t-.3.61.3.63.81.23q.35 0 .67-.09.34-.08.6-.26a1.3 1.3 0 0 0 .41-.5q.16-.3.16-.72zm6.6 4.63a3 3 0 0 1-1.57-.43q-.7-.44-1.11-1.25t-.4-1.95q0-1.17.43-1.98t1.16-1.24a3 3 0 0 1 1.6-.43q.9 0 1.5.49.62.49.83 1.27l-.16.16v-4.93h1.5v10.15h-1.34l-.1-1.9.19.01q-.1.63-.46 1.1a2.5 2.5 0 0 1-.91.7 3 3 0 0 1-1.15.23m.32-1.2q.6 0 1.04-.31.43-.31.67-.87t.24-1.34q0-.73-.24-1.25a2 2 0 0 0-.67-.81 1.7 1.7 0 0 0-.98-.28q-.94 0-1.46.64t-.52 1.78.5 1.8q.51.64 1.42.64"/><path fill="#232323" d="M331.84 253.05a4 4 0 0 1-.84 1.43 4 4 0 0 1-1.32.87 5 5 0 0 1-1.66.29q-1.33 0-2.31-.57a4 4 0 0 1-1.51-1.64q-.54-1.07-.54-2.55t.54-2.55a4 4 0 0 1 1.5-1.64q.99-.57 2.3-.57.91 0 1.64.25.74.25 1.26.76t.8 1.26l-1.41.63q-.28-.83-.82-1.2-.53-.4-1.38-.4t-1.5.4-1 1.18-.36 1.88.34 1.88q.33.77.96 1.17t1.52.4q.85 0 1.47-.43.63-.44.9-1.33zm1.7 2.45v-7h1.27l.14 1.26q.28-.69.83-1.04.56-.36 1.37-.36.21 0 .42.04.21.03.35.1l-.2 1.32-.36-.09a2 2 0 0 0-.5-.04q-.43 0-.85.24-.42.22-.7.68t-.27 1.18v3.71zm8.7.14q-1.05 0-1.85-.43a3 3 0 0 1-1.24-1.25q-.44-.83-.44-1.96t.44-1.95a3 3 0 0 1 1.23-1.26q.78-.43 1.78-.43 1.02 0 1.73.42t1.1 1.15.37 1.65l-.01.48q-.01.23-.04.39h-5.63v-1.15h4.97l-.74.22q0-.95-.48-1.45-.48-.52-1.3-.52-.6 0-1.05.28t-.69.84-.23 1.34.25 1.33.71.83 1.1.28q.7 0 1.13-.27t.68-.74l1.2.56q-.26.5-.7.88-.41.37-1 .56a4 4 0 0 1-1.29.2m9.06-4.63q0-.7-.4-1.08-.37-.4-1.04-.4-.63 0-1.08.3t-.66.95l-1.26-.53a2.5 2.5 0 0 1 1.04-1.37q.78-.52 2.01-.52.84 0 1.49.28.64.27 1 .81.38.55.38 1.4v3.12q0 .52.52.52.25 0 .5-.07l-.1 1.04q-.31.15-.8.15-.45 0-.82-.15a1.4 1.4 0 0 1-.56-.5q-.2-.33-.2-.82v-.1l.32-.01a1.7 1.7 0 0 1-.52.91 3 3 0 0 1-.91.53 3 3 0 0 1-1.05.17 3 3 0 0 1-1.2-.21q-.5-.21-.82-.63-.3-.43-.3-1.06 0-.79.51-1.3.52-.5 1.46-.68l2.71-.53-.01 1.05-1.97.4q-.6.12-.89.33t-.29.61.3.63.8.23q.36 0 .68-.09t.6-.26q.27-.2.4-.5.16-.3.16-.72zm5.7-4.57v6.96q0 .52.28.76t.74.23q.38 0 .66-.1.28-.13.51-.34l.34 1.09q-.32.28-.8.45a3 3 0 0 1-1.03.15 3 3 0 0 1-1.11-.2 1.6 1.6 0 0 1-.78-.63q-.28-.44-.3-1.16v-6.79zm2.42 2.06v1.18h-5.25v-1.18zm4.56 7.14q-1.05 0-1.85-.43a3 3 0 0 1-1.24-1.25q-.44-.83-.44-1.96t.44-1.95a3 3 0 0 1 1.23-1.26q.78-.43 1.78-.43 1.02 0 1.73.42t1.1 1.15.37 1.65l-.01.48q-.01.23-.04.39h-5.63v-1.15h4.97l-.74.22q0-.95-.48-1.45-.48-.52-1.3-.52-.6 0-1.05.28t-.69.84-.24 1.34.26 1.33.7.83 1.1.28q.7 0 1.14-.27t.68-.74l1.2.56q-.26.5-.7.88-.41.37-1 .56a4 4 0 0 1-1.3.2"/><path fill="#232323" d="M393.18 255.5v-9.24h6.7v1.29h-5.2v2.66h4.06v1.26h-4.06v2.74h5.39v1.29zm11.17.14a3 3 0 0 1-1.58-.43q-.7-.44-1.1-1.25t-.41-1.95q0-1.17.43-1.98.44-.82 1.17-1.24a3 3 0 0 1 1.6-.43q.89 0 1.5.49.62.49.83 1.27l-.17.16v-4.93h1.5v10.15h-1.33l-.11-1.9.2.01q-.1.63-.47 1.1a2.5 2.5 0 0 1-.9.7 3 3 0 0 1-1.16.23m.33-1.2q.6 0 1.03-.31t.67-.87.24-1.34q0-.73-.24-1.25a2 2 0 0 0-.67-.81 1.7 1.7 0 0 0-.98-.28q-.94 0-1.45.64t-.52 1.78.5 1.8q.5.64 1.42.64m6.52-7.12q-.49 0-.76-.23-.25-.26-.25-.7t.25-.69q.27-.24.76-.24.48 0 .73.24.26.24.26.69t-.26.7q-.25.23-.73.23m.74 1.18v7h-1.5v-7zm4.39-2.06v6.96q0 .52.27.76.28.23.74.23.38 0 .66-.1.28-.13.51-.34l.34 1.09a2 2 0 0 1-.8.45 3 3 0 0 1-1.03.15q-.6 0-1.11-.2a1.6 1.6 0 0 1-.78-.63q-.28-.44-.3-1.16v-6.79zm2.4 2.06v1.18h-5.24v-1.18z"/><path fill="#232323" d="M447.44 246.26q2.17 0 3.38 1.2 1.22 1.2 1.22 3.42t-1.22 3.43q-1.2 1.19-3.38 1.19h-3.26v-9.24zm0 7.97q1.47 0 2.24-.87.79-.88.79-2.48t-.79-2.46q-.77-.89-2.24-.89h-1.76v6.7zm9.69 1.41q-1.05 0-1.85-.43a3 3 0 0 1-1.25-1.25q-.43-.83-.43-1.96t.43-1.95q.45-.82 1.24-1.26.78-.43 1.77-.43 1.03 0 1.74.42t1.1 1.15q.37.73.37 1.65l-.01.48q-.01.23-.05.39h-5.62v-1.15h4.97l-.75.22q0-.95-.47-1.45-.48-.52-1.3-.52-.6 0-1.05.28t-.7.84-.23 1.34.25 1.33.72.83 1.09.28q.7 0 1.13-.27.44-.26.69-.74l1.19.56q-.25.5-.69.88-.42.37-1 .56a4 4 0 0 1-1.3.2m6.48-10.29v8.19q0 .52.18.71t.6.2q.25 0 .42-.03.18-.04.45-.14l-.17 1.12a2 2 0 0 1-.54.17q-.31.07-.62.07-.94 0-1.39-.48-.43-.49-.43-1.5v-8.31zm5.98 10.29q-1.05 0-1.85-.43a3 3 0 0 1-1.24-1.25q-.44-.83-.44-1.96t.44-1.95 1.23-1.26 1.78-.43q1.02 0 1.73.42t1.1 1.15.37 1.65l-.01.48q-.01.23-.04.39h-5.63v-1.15h4.97l-.74.22q0-.95-.48-1.45-.47-.52-1.3-.52-.6 0-1.05.28t-.69.84-.23 1.34.25 1.33.71.83 1.1.28q.7 0 1.13-.27t.68-.74l1.2.56q-.26.5-.7.88-.41.37-1 .56a4 4 0 0 1-1.29.2m6.9-9.2v6.96q0 .52.26.76.28.23.74.23.38 0 .66-.1.28-.13.52-.34l.34 1.09a2 2 0 0 1-.8.45 3 3 0 0 1-1.04.15 3 3 0 0 1-1.1-.2 1.6 1.6 0 0 1-.79-.63q-.28-.44-.3-1.16v-6.79zm2.4 2.06v1.18h-5.25v-1.18zm4.57 7.14q-1.05 0-1.85-.43a3 3 0 0 1-1.25-1.25q-.43-.83-.43-1.96t.43-1.95a3 3 0 0 1 1.23-1.26q.79-.43 1.78-.43 1.02 0 1.74.42t1.09 1.15.38 1.65q0 .25-.02.48t-.04.39h-5.63v-1.15h4.97l-.74.22q0-.95-.47-1.45-.48-.52-1.3-.52-.6 0-1.06.28-.44.28-.68.84t-.24 1.34.25 1.33.72.83 1.09.28q.7 0 1.13-.27t.69-.74l1.19.56q-.25.5-.69.88-.42.37-1 .56a4 4 0 0 1-1.3.2"/><path fill="#232323" d="M517.63 246.26v9.24h-1.39v-5.35l.12-2.55h-.02l-2.81 7.9h-1.25l-2.81-7.9h-.02l.12 2.55v5.35h-1.39v-9.24h2.23l1.86 5.35.64 2.2h.03l.66-2.2 1.85-5.35zm6.51 4.75q0-.7-.39-1.08-.38-.4-1.05-.4-.63 0-1.08.3t-.65.95l-1.26-.53a2.5 2.5 0 0 1 1.03-1.37q.79-.52 2.02-.52.84 0 1.48.28.64.27 1.01.81.38.55.38 1.4v3.12q0 .52.52.52.25 0 .49-.07l-.09 1.04q-.32.15-.81.15-.45 0-.81-.15a1.4 1.4 0 0 1-.56-.5q-.2-.33-.2-.82v-.1l.31-.01a2 2 0 0 1-.52.91 3 3 0 0 1-.9.53 3 3 0 0 1-1.06.17q-.66 0-1.19-.21a2 2 0 0 1-.82-.63q-.3-.43-.3-1.06 0-.79.5-1.3.52-.5 1.46-.68l2.72-.53-.02 1.05-1.97.4q-.59.12-.88.33t-.3.61.3.63.81.23q.35 0 .67-.09.34-.08.6-.26.27-.2.41-.5.15-.3.15-.72zm3.94 4.49v-7h1.33l.1 1.82-.2-.2q.2-.6.56-.99.38-.4.89-.59t1.09-.18q.74 0 1.33.3.6.27.95.85.35.57.35 1.45v4.54h-1.5v-4.07q0-1.04-.43-1.43-.42-.4-1.07-.4-.46 0-.9.22-.43.2-.72.68t-.28 1.28v3.72zm12.72-4.5q0-.7-.4-1.07-.37-.4-1.05-.4-.63 0-1.07.3t-.66.95l-1.26-.53a2.5 2.5 0 0 1 1.03-1.37q.79-.52 2.02-.52.84 0 1.48.28.65.27 1.01.81.38.55.38 1.4v3.12q0 .52.52.52.25 0 .49-.07l-.09 1.04q-.32.15-.8.15-.45 0-.82-.15a1.4 1.4 0 0 1-.56-.5q-.2-.33-.2-.82v-.1l.31-.01a1.7 1.7 0 0 1-.52.91 3 3 0 0 1-.9.53 3 3 0 0 1-1.06.17 3 3 0 0 1-1.19-.21q-.51-.21-.82-.63t-.3-1.06q0-.79.5-1.3.53-.5 1.46-.68l2.72-.53-.01 1.05-1.98.4q-.59.12-.88.33t-.3.61.3.63.81.23q.35 0 .67-.09.34-.08.6-.26.27-.2.41-.5.16-.3.16-.72zm10.12-3.97.24 1.18h-.08l-.09-.02q-.67 0-1.02.3-.35.28-.35.82l-.73-.33q0-.56.24-1 .24-.45.67-.7a2 2 0 0 1 1.01-.25zm-2.21 7.38q1.06 0 1.65.47t.59 1.3q0 .72-.46 1.24-.46.53-1.26.81-.79.28-1.8.28-1.73 0-2.56-.53t-.82-1.33q0-.56.39-.98.4-.42 1.36-.48l-.09.23q-.58-.13-.95-.45-.35-.34-.35-.94t.46-1.02 1.3-.5l.79.39h-.17q-.64.05-.9.29t-.27.53q0 .35.25.52.26.17.74.17zm-1.29 2.98q.77 0 1.26-.15.5-.14.74-.38.26-.23.26-.5a.6.6 0 0 0-.27-.52q-.25-.2-.92-.2h-2.26q-.39 0-.66.2a.7.7 0 0 0-.26.56q0 .46.56.72t1.55.27m-.05-9.03q.92 0 1.6.3.68.29 1.04.82.38.53.38 1.25t-.38 1.24q-.36.53-1.05.83-.67.3-1.6.3-1.45 0-2.23-.65-.77-.66-.77-1.72 0-.72.37-1.25t1.05-.83q.69-.29 1.59-.29m0 1.05q-.65 0-1.08.36-.42.35-.42.96t.42.96 1.08.37 1.07-.37q.44-.36.44-.96t-.44-.96q-.42-.36-1.07-.36m8.03 6.23q-1.05 0-1.85-.43a3 3 0 0 1-1.24-1.25q-.43-.83-.43-1.96t.43-1.95a3 3 0 0 1 1.23-1.26q.78-.43 1.78-.43 1.02 0 1.73.42t1.1 1.15.37 1.65v.48q0 .23-.05.39h-5.63v-1.15h4.97l-.74.22q0-.95-.48-1.45-.47-.52-1.3-.52-.6 0-1.05.28t-.69.84-.23 1.34.25 1.33.71.83 1.1.28q.7 0 1.13-.27t.68-.74l1.2.56q-.26.5-.7.88-.41.37-1 .56a4 4 0 0 1-1.29.2"/><path fill="#232323" d="M68.74 280.76q1 0 1.7.35.73.35 1.14 1t.4 1.55-.4 1.55-1.14 1q-.7.35-1.7.35h-2.06V290h-1.5v-9.24zm-.24 4.5q1 0 1.45-.4.48-.42.48-1.2 0-.8-.48-1.2-.46-.43-1.45-.43h-1.82v3.24zm9.3.25q0-.7-.4-1.08-.38-.4-1.05-.4-.63 0-1.08.3t-.65.95l-1.26-.53a2.5 2.5 0 0 1 1.03-1.37q.79-.52 2.02-.52.84 0 1.48.28.65.27 1.01.81.38.55.38 1.4v3.12q0 .52.52.52.25 0 .49-.07l-.09 1.04q-.32.15-.81.15-.45 0-.81-.15a1.4 1.4 0 0 1-.56-.5q-.2-.33-.2-.82v-.1l.31-.01a2 2 0 0 1-.52.91 3 3 0 0 1-.9.53 3 3 0 0 1-1.06.17q-.66 0-1.19-.21a2 2 0 0 1-.82-.63q-.3-.43-.3-1.06 0-.79.5-1.3.53-.5 1.46-.68l2.72-.53-.02 1.05-1.97.4q-.59.12-.88.33t-.3.61q0 .4.3.63t.81.23q.35 0 .67-.09.34-.08.6-.26a1.3 1.3 0 0 0 .41-.5q.15-.3.15-.72zm9.66-2.51-3.07 7.83q-.3.8-.67 1.28a2 2 0 0 1-.82.69q-.46.21-1.07.21-.5 0-.94-.14a3 3 0 0 1-.74-.35l.36-1.16q.27.22.56.33t.66.12q.38 0 .67-.21t.55-.8l.3-.76-.74-1.73-2.18-5.31H82l1.55 4.4.4 1.31.47-1.44L85.9 283zm1.27 7v-7h1.28l.14 1.26q.28-.69.82-1.04.56-.36 1.38-.36.2 0 .42.04.2.03.35.1l-.22 1.32-.35-.09a2 2 0 0 0-.5-.04q-.43 0-.85.24-.42.22-.7.68t-.27 1.18V290zm8.66-7.14q1.02 0 1.8.43.79.44 1.22 1.26.45.82.45 1.95t-.45 1.96a3 3 0 0 1-1.21 1.25q-.79.43-1.81.43t-1.8-.43a3 3 0 0 1-1.24-1.25q-.45-.83-.45-1.96t.45-1.95a3 3 0 0 1 1.23-1.26q.79-.43 1.81-.43m0 1.18q-.63 0-1.08.29-.43.28-.67.83t-.24 1.34.24 1.34a2 2 0 0 0 .67.84q.45.28 1.08.28t1.06-.28a2 2 0 0 0 .68-.84q.23-.56.23-1.34 0-.8-.23-1.34-.24-.55-.68-.83-.43-.3-1.06-.3m6.81-4.18v8.19q0 .52.18.71.19.2.6.2.26 0 .43-.03.18-.04.44-.14l-.16 1.12q-.24.12-.55.17-.3.07-.62.07-.93 0-1.38-.48-.44-.49-.44-1.5v-8.31zm4.36 0v8.19q0 .52.19.71t.6.2q.25 0 .42-.03l.45-.14-.17 1.12a2 2 0 0 1-.55.17q-.3.07-.61.07-.94 0-1.39-.48-.43-.49-.43-1.5v-8.31z"/><line x1="63.809" x2="573.021" y1="302.5" y2="302.5" stroke="#e3e7ee"/><path fill="#232323" d="M66.68 324.71h5.1V326h-6.6v-9.24h1.5zm9.59 1.43q-1.05 0-1.85-.43a3 3 0 0 1-1.25-1.25q-.43-.83-.43-1.96t.43-1.95q.45-.82 1.24-1.26.78-.43 1.77-.43 1.03 0 1.74.42t1.1 1.15.37 1.65l-.01.48q-.01.23-.05.39h-5.62v-1.15h4.97l-.75.22q0-.95-.47-1.45-.48-.52-1.3-.52-.6 0-1.05.28t-.69.84-.24 1.34.25 1.33.72.83 1.09.28q.7 0 1.13-.27t.69-.74l1.19.56q-.25.5-.69.88-.42.37-1 .56a4 4 0 0 1-1.3.2m9.07-4.63q0-.7-.4-1.08-.37-.4-1.04-.4-.63 0-1.08.3t-.66.95l-1.26-.53a2.5 2.5 0 0 1 1.04-1.37q.78-.52 2.01-.52.84 0 1.49.28.64.27 1 .81.38.55.38 1.4v3.12q0 .52.52.52.25 0 .49-.07l-.08 1.04q-.33.15-.82.15-.45 0-.8-.15a1.4 1.4 0 0 1-.57-.5q-.2-.33-.2-.82v-.1l.31-.01a2 2 0 0 1-.51.91 3 3 0 0 1-.91.53 3 3 0 0 1-1.05.17q-.66 0-1.2-.21a2 2 0 0 1-.82-.63q-.3-.43-.3-1.06 0-.79.51-1.3.52-.5 1.46-.68l2.71-.53-.01 1.05-1.98.4q-.58.12-.88.33t-.3.61.3.63q.31.23.81.23.35 0 .68-.09t.6-.26a1.3 1.3 0 0 0 .4-.5q.16-.3.16-.72zm8.3-2.51h1.56l-2.78 7h-1.64l-2.8-7h1.64l1.99 5.7zm5.88 7.14q-1.05 0-1.85-.43a3 3 0 0 1-1.24-1.25q-.44-.83-.44-1.96t.44-1.95q.45-.82 1.23-1.26.78-.43 1.78-.43 1.02 0 1.73.42t1.1 1.15.37 1.65l-.01.48q-.01.22-.04.39h-5.63v-1.15h4.97l-.74.22q0-.95-.48-1.45-.47-.52-1.3-.52-.6 0-1.05.28t-.69.84-.24 1.34.26 1.33.71.83 1.1.28q.7 0 1.13-.27t.68-.74l1.2.56q-.26.5-.7.88-.41.37-1 .56a4 4 0 0 1-1.29.2m19.23-9.38V326h-1.39v-5.35l.11-2.55h-.01l-2.81 7.9h-1.25l-2.81-7.9h-.02l.11 2.55V326h-1.38v-9.24h2.22l1.87 5.35.64 2.2h.03l.66-2.2 1.84-5.35zm6.51 4.75q0-.7-.4-1.08-.37-.4-1.04-.4-.63 0-1.08.3t-.66.95l-1.26-.53a2.5 2.5 0 0 1 1.04-1.37q.78-.52 2.01-.52.84 0 1.49.28.64.27 1 .81.38.55.38 1.4v3.12q0 .52.52.52.25 0 .5-.07l-.1 1.04q-.32.15-.8.15-.45 0-.82-.15a1.4 1.4 0 0 1-.56-.5q-.2-.33-.2-.82v-.1l.32-.01a2 2 0 0 1-.52.91 3 3 0 0 1-.91.53 3 3 0 0 1-1.05.17q-.66 0-1.2-.21a2 2 0 0 1-.82-.63q-.3-.43-.3-1.06 0-.79.51-1.3.52-.5 1.46-.68l2.71-.53-.01 1.05-1.97.4q-.6.12-.89.33t-.29.61.3.63.8.23q.36 0 .68-.09t.6-.26a1.3 1.3 0 0 0 .4-.5q.16-.3.16-.72zm3.94 4.49v-7h1.33l.1 1.82-.2-.2q.2-.6.56-.99.38-.4.88-.59a3 3 0 0 1 1.1-.18q.74 0 1.32.3.6.27.96.85t.35 1.45V326h-1.5v-4.07q0-1.04-.44-1.43-.42-.4-1.06-.4-.46 0-.9.22-.43.2-.72.68t-.28 1.28V326zm12.71-4.5q0-.7-.39-1.07-.38-.4-1.05-.4-.63 0-1.08.3t-.66.95l-1.26-.53a2.5 2.5 0 0 1 1.04-1.37q.78-.52 2.02-.52.84 0 1.48.28.64.27 1 .81.39.55.39 1.4v3.12q0 .52.51.52.26 0 .5-.07l-.09 1.04q-.32.15-.81.15-.45 0-.81-.15a1.4 1.4 0 0 1-.56-.5q-.2-.33-.2-.82v-.1l.3-.01a2 2 0 0 1-.51.91 3 3 0 0 1-.91.53 3 3 0 0 1-1.05.17q-.66 0-1.19-.21a2 2 0 0 1-.83-.63q-.29-.43-.29-1.06 0-.79.5-1.3.52-.5 1.46-.68l2.72-.53-.02 1.05-1.97.4q-.59.12-.88.33t-.3.61q0 .4.3.63t.8.23q.36 0 .68-.09.34-.08.6-.26.27-.2.4-.5.16-.3.16-.72zm10.13-3.97.24 1.18h-.09l-.08-.02q-.67 0-1.02.3-.35.28-.35.82l-.73-.33q0-.56.24-1 .23-.45.67-.7a2 2 0 0 1 1-.25zm-2.21 7.38q1.06 0 1.65.47t.59 1.3q0 .72-.47 1.24-.46.53-1.26.81-.78.28-1.8.28-1.72 0-2.55-.53t-.83-1.33q0-.56.4-.98t1.35-.48l-.08.23q-.59-.13-.95-.45-.35-.34-.35-.94t.46-1.02 1.3-.5l.79.39h-.17q-.65.05-.91.29-.27.24-.27.53 0 .35.25.52.27.17.75.17zm-1.3 2.98q.78 0 1.27-.15.5-.14.74-.38.25-.23.25-.5a.6.6 0 0 0-.26-.52q-.26-.2-.93-.2h-2.25q-.4 0-.66.2a.7.7 0 0 0-.27.56q0 .46.56.72t1.56.27m-.06-9.03q.93 0 1.6.3.68.29 1.05.82.38.53.38 1.25t-.38 1.24-1.05.83-1.6.3q-1.45 0-2.24-.65-.77-.66-.77-1.72 0-.72.38-1.25t1.05-.83q.69-.29 1.58-.29m0 1.05q-.64 0-1.08.36-.42.35-.42.96 0 .6.42.96.44.37 1.08.37.66 0 1.08-.37.43-.36.43-.96t-.43-.96q-.42-.36-1.08-.36m8.04 6.23q-1.05 0-1.85-.43a3 3 0 0 1-1.25-1.25q-.43-.83-.43-1.96t.43-1.95a3 3 0 0 1 1.24-1.26q.78-.43 1.77-.43 1.03 0 1.74.42t1.1 1.15.37 1.65l-.01.48-.05.39h-5.62v-1.15h4.97l-.75.22q0-.95-.47-1.45-.48-.52-1.3-.52-.6 0-1.05.28t-.69.84-.24 1.34.25 1.33.72.83 1.09.28q.7 0 1.13-.27t.69-.74l1.19.56q-.25.5-.69.88-.42.37-1 .56a4 4 0 0 1-1.3.2m5.02-.14v-7h1.33l.07 1.18q.37-.68.97-1a3 3 0 0 1 1.3-.32q.76 0 1.39.35.64.34.96 1.02.23-.46.62-.77t.87-.45.93-.15q.68 0 1.26.28t.96.85.36 1.47V326h-1.5v-4.3q0-.85-.4-1.23t-1.04-.38q-.49 0-.91.24-.4.24-.66.71-.25.47-.25 1.15V326h-1.5v-4.3q0-.85-.4-1.23t-1.04-.38q-.42 0-.84.23t-.7.7-.28 1.26V326zm16.37.14q-1.05 0-1.85-.43a3 3 0 0 1-1.24-1.25q-.44-.83-.44-1.96t.44-1.95a3 3 0 0 1 1.23-1.26q.78-.43 1.78-.43 1.02 0 1.73.42t1.1 1.15.37 1.65l-.01.48q-.01.22-.04.39h-5.63v-1.15h4.97l-.74.22q0-.95-.48-1.45-.48-.52-1.3-.52-.6 0-1.05.28t-.69.84-.24 1.34.26 1.33.71.83 1.1.28q.7 0 1.13-.27t.68-.74l1.2.56q-.26.5-.7.88-.41.37-1 .56a4 4 0 0 1-1.29.2m5.01-.14v-7h1.33l.1 1.82-.2-.2q.2-.6.57-.99.37-.4.88-.59a3 3 0 0 1 1.1-.18q.73 0 1.32.3.6.27.95.85.35.57.35 1.45V326h-1.5v-4.07q0-1.04-.43-1.43-.42-.4-1.06-.4-.47 0-.9.22-.43.2-.73.68-.28.48-.28 1.28V326zm10.63-9.06v6.96q0 .52.27.76.28.23.74.23.38 0 .66-.1.28-.13.52-.34l.33 1.09a2 2 0 0 1-.8.45 3 3 0 0 1-1.03.15q-.6 0-1.1-.2a1.6 1.6 0 0 1-.79-.63q-.28-.44-.3-1.16v-6.79zm2.41 2.06v1.18h-5.25V319z"/><line x1="63.809" x2="573.021" y1="338.5" y2="338.5" stroke="#e3e7ee"/><path fill="#232323" d="M65.18 362v-9.24h6.7v1.29h-5.2v2.66h4.06v1.26h-4.06v2.74h5.39V362zm8.7 0v-7h1.32l.07 1.18q.36-.68.97-1t1.3-.32q.75 0 1.38.35.65.34.97 1.02.23-.46.62-.77.39-.3.86-.45.48-.15.94-.15.68 0 1.26.28t.95.85.37 1.47V362h-1.5v-4.3q0-.85-.4-1.23t-1.04-.38q-.49 0-.91.24-.4.24-.66.71-.25.47-.25 1.15V362h-1.5v-4.3q0-.85-.4-1.23t-1.04-.38q-.42 0-.84.23a2 2 0 0 0-.7.7q-.28.47-.28 1.26V362zm13.28 2.94V355h1.33l.11 1.96-.2-.24a3 3 0 0 1 .52-.96q.35-.42.87-.66a3 3 0 0 1 1.16-.24q.86 0 1.56.43t1.1 1.25q.41.8.41 1.95 0 1.14-.42 1.97-.4.81-1.12 1.25-.7.43-1.57.43-.9 0-1.52-.46a2.6 2.6 0 0 1-.9-1.2l.17-.24v4.7zm3.43-4.02q.91 0 1.41-.64.52-.65.52-1.78t-.5-1.78q-.5-.66-1.4-.66-.59 0-1.04.31-.43.3-.68.84-.24.53-.24 1.29 0 .74.24 1.29a2 2 0 0 0 .67.84q.43.3 1.02.3m6.8-9.08v8.19q0 .52.19.71t.6.2q.25 0 .42-.03.18-.04.45-.14l-.17 1.12a2 2 0 0 1-.55.17q-.3.07-.61.07-.94 0-1.39-.48-.43-.49-.43-1.5v-8.31zm5.95 3.01q1.02 0 1.8.43.79.44 1.22 1.26.45.82.45 1.95t-.45 1.96a3 3 0 0 1-1.22 1.25q-.78.43-1.8.43t-1.8-.43a3 3 0 0 1-1.24-1.25q-.45-.83-.45-1.96t.45-1.95 1.23-1.26q.79-.43 1.8-.43m0 1.18q-.62 0-1.07.29-.44.28-.67.83t-.24 1.34.24 1.34.67.84q.45.28 1.08.28t1.06-.28q.44-.29.67-.84.24-.56.24-1.34 0-.8-.24-1.34-.23-.55-.67-.83-.43-.3-1.06-.3m11.24-1.03-3.07 7.83q-.3.8-.67 1.28a2 2 0 0 1-.81.69q-.46.21-1.08.21-.5 0-.94-.14a3 3 0 0 1-.74-.35l.37-1.16q.26.22.56.33t.65.12q.38 0 .68-.21t.54-.8l.31-.76-.74-1.73-2.19-5.31h1.68l1.56 4.4.4 1.31.47-1.44 1.47-4.27zm4.32 7.14q-1.05 0-1.85-.43a3 3 0 0 1-1.25-1.25q-.43-.83-.43-1.96t.43-1.95a3 3 0 0 1 1.24-1.26q.78-.43 1.77-.43 1.03 0 1.74.42t1.1 1.15.37 1.65l-.01.48q-.01.23-.05.39h-5.62v-1.15h4.97l-.75.22q0-.95-.47-1.45-.48-.52-1.3-.52-.6 0-1.06.28-.44.28-.68.84t-.24 1.34.25 1.33.72.83 1.09.28q.7 0 1.13-.27t.69-.74l1.19.56q-.25.5-.69.88-.42.37-1 .56a4 4 0 0 1-1.3.2m8.1 0q-1.05 0-1.85-.43a3 3 0 0 1-1.24-1.25q-.44-.83-.44-1.96t.44-1.95a3 3 0 0 1 1.23-1.26q.78-.43 1.78-.43 1.02 0 1.73.42t1.1 1.15.37 1.65l-.01.48q-.01.23-.04.39h-5.63v-1.15h4.97l-.74.22q0-.95-.48-1.45-.48-.52-1.3-.52-.6 0-1.05.28t-.69.84-.23 1.34.25 1.33.71.83 1.1.28q.7 0 1.13-.27t.68-.74l1.2.56q-.26.5-.7.88-.41.37-1 .56a4 4 0 0 1-1.29.2m13.54-9.38q1.49 0 2.35.74.89.74.89 2 0 1.3-.89 2.02-.86.7-2.35.7l-.14.08h-2.14v3.7h-1.48v-9.24zm-.1 4.3q.9 0 1.33-.37.45-.37.45-1.14t-.45-1.14q-.43-.38-1.34-.38h-2.17v3.03zm.87.3 3.01 4.64h-1.72l-2.58-4.05zm7.55 4.78q-1.05 0-1.85-.43a3 3 0 0 1-1.24-1.25q-.44-.83-.44-1.96t.44-1.95a3 3 0 0 1 1.23-1.26q.78-.43 1.78-.43 1.02 0 1.73.42t1.1 1.15.37 1.65l-.01.48q-.01.22-.04.39h-5.63v-1.15h4.97l-.74.22q0-.95-.48-1.45-.47-.52-1.3-.52-.6 0-1.05.28t-.69.84-.23 1.34.25 1.33.71.83 1.1.28q.7 0 1.13-.27t.68-.74l1.2.56q-.26.5-.7.88-.41.37-1 .56a4 4 0 0 1-1.29.2m8.04-7.28q.84 0 1.43.25.6.24 1 .69t.62 1.02l-1.41.56q-.19-.64-.59-.98-.4-.35-1.04-.35-.63 0-1.07.3a2 2 0 0 0-.69.82q-.23.55-.22 1.34 0 .79.23 1.33.24.55.69.83t1.06.28q.48 0 .83-.15.35-.17.57-.47.24-.3.33-.74l1.35.46q-.2.63-.61 1.11a3 3 0 0 1-1.02.73q-.62.25-1.42.25-1.03 0-1.83-.43a3 3 0 0 1-1.25-1.25q-.43-.83-.43-1.96t.43-1.95a3 3 0 0 1 1.23-1.26q.8-.43 1.81-.43m7.87 0q1.03 0 1.81.43.79.44 1.22 1.26.45.82.45 1.95t-.45 1.96a3 3 0 0 1-1.22 1.25q-.78.43-1.8.43t-1.81-.43a3 3 0 0 1-1.23-1.25q-.45-.83-.45-1.96t.45-1.95a3 3 0 0 1 1.23-1.26q.78-.43 1.8-.43m0 1.18q-.63 0-1.07.29t-.68.83-.23 1.34q0 .78.23 1.34.24.55.68.84t1.07.28 1.07-.28q.43-.29.67-.84.24-.56.24-1.34 0-.8-.24-1.34t-.67-.83q-.44-.3-1.07-.3m5.36 5.97v-7h1.27l.14 1.26q.28-.69.83-1.04.56-.36 1.37-.36.21 0 .42.04.21.03.35.1l-.2 1.32-.36-.09a2 2 0 0 0-.5-.04q-.44 0-.86.24-.42.22-.7.68-.26.47-.26 1.18V362zm8.3.14a3 3 0 0 1-1.57-.43q-.7-.44-1.1-1.25t-.42-1.95q0-1.17.44-1.98.43-.82 1.16-1.24a3 3 0 0 1 1.6-.43q.9 0 1.5.49.62.49.83 1.27l-.16.16v-4.93h1.5V362h-1.34l-.1-1.9.19.01q-.1.63-.46 1.1a2.5 2.5 0 0 1-.91.7 3 3 0 0 1-1.15.23m.32-1.2q.6 0 1.04-.31a2 2 0 0 0 .67-.87q.24-.56.24-1.34 0-.73-.24-1.25a2 2 0 0 0-.67-.81 1.7 1.7 0 0 0-.98-.28q-.94 0-1.46.64-.52.65-.52 1.78t.5 1.8q.51.64 1.42.64m8.43 1.2q-1.05 0-1.92-.4a3.3 3.3 0 0 1-1.37-1.15l1.03-.9q.31.57.89.92.58.34 1.4.34.64 0 1.02-.22.38-.23.38-.63a.7.7 0 0 0-.19-.47q-.16-.2-.65-.32l-1.47-.3q-1.12-.23-1.6-.72-.48-.5-.48-1.27 0-.58.34-1.07t.98-.78q.66-.31 1.57-.31 1.05 0 1.79.38.74.36 1.13 1.05l-1.03.87a1.7 1.7 0 0 0-.79-.83 2 2 0 0 0-1.07-.28q-.45 0-.77.11a1 1 0 0 0-.5.31.7.7 0 0 0-.16.46q0 .28.2.5t.76.31l1.6.34q1 .2 1.41.67.42.46.42 1.14t-.35 1.19-1 .78-1.57.28"/><line x1="63.809" x2="573.021" y1="374.5" y2="374.5" stroke="#e3e7ee"/><path fill="#232323" d="M72.85 398h-1.58l-.88-2.42H66.5l-.88 2.42h-1.54l3.49-9.24h1.79zm-5.92-3.64h3.04l-1.51-4.31zm8.94-5.42v6.96q0 .52.27.76.28.23.74.23.38 0 .66-.1.28-.13.52-.34l.33 1.09q-.32.28-.8.45a3 3 0 0 1-1.03.15 3 3 0 0 1-1.1-.2 1.6 1.6 0 0 1-.79-.63q-.28-.44-.3-1.16v-6.79zm2.41 2.06v1.18h-5.25V391zm2.73-2.06v6.96q0 .52.27.76.28.23.74.23.38 0 .66-.1.28-.13.52-.34l.34 1.09q-.33.28-.8.45a3 3 0 0 1-1.04.15 3 3 0 0 1-1.1-.2 1.6 1.6 0 0 1-.79-.63q-.28-.44-.3-1.16v-6.79zm2.41 2.06v1.18h-5.25V391zm4.57 7.14q-1.05 0-1.85-.43a3 3 0 0 1-1.25-1.25q-.43-.83-.43-1.96t.43-1.95q.45-.82 1.23-1.26.79-.43 1.78-.43 1.02 0 1.74.42t1.09 1.15.38 1.65q0 .25-.02.48t-.04.39h-5.63v-1.15h4.97l-.74.22q0-.95-.47-1.45-.48-.52-1.3-.52-.61 0-1.06.28t-.68.84-.24 1.34.25 1.33.71.83 1.1.28q.7 0 1.13-.27t.69-.74l1.19.56q-.26.5-.69.88-.42.37-1 .56a4 4 0 0 1-1.3.2M93 398v-7h1.33l.1 1.82-.2-.2q.2-.6.56-.99.38-.4.88-.59a3 3 0 0 1 1.1-.18q.74 0 1.32.3.6.27.96.85.35.57.35 1.45V398h-1.5v-4.07q0-1.04-.44-1.43-.42-.4-1.06-.4-.46 0-.9.22-.43.2-.72.68t-.28 1.28V398zm11.35.14a3 3 0 0 1-1.58-.43q-.7-.44-1.1-1.25t-.41-1.95q0-1.17.43-1.98.44-.82 1.17-1.24a3 3 0 0 1 1.6-.43q.89 0 1.5.49.62.49.83 1.27l-.17.16v-4.93h1.5V398h-1.33l-.11-1.9.2.01q-.1.63-.47 1.1a2.5 2.5 0 0 1-.9.7 3 3 0 0 1-1.16.23m.33-1.2q.6 0 1.03-.31t.67-.87.24-1.34q0-.73-.24-1.25a2 2 0 0 0-.67-.81 1.7 1.7 0 0 0-.98-.28q-.93 0-1.45.64t-.52 1.78.5 1.8q.5.64 1.42.64m9.81-3.43q0-.7-.4-1.08-.37-.4-1.04-.4-.63 0-1.08.3t-.66.95l-1.26-.53a2.5 2.5 0 0 1 1.04-1.37q.78-.52 2.01-.52.84 0 1.49.28.64.27 1 .81.38.55.38 1.4v3.12q0 .52.52.52.25 0 .5-.07l-.1 1.04q-.32.15-.8.15-.45 0-.82-.15a1.4 1.4 0 0 1-.56-.5q-.2-.33-.2-.82v-.1l.32-.01a2 2 0 0 1-.52.91 3 3 0 0 1-.91.53 3 3 0 0 1-1.05.17q-.66 0-1.2-.21a2 2 0 0 1-.82-.63q-.3-.43-.3-1.06 0-.79.51-1.3.52-.5 1.46-.68l2.71-.53-.01 1.05-1.97.4q-.6.12-.89.33t-.29.61.3.63.8.23q.36 0 .68-.09t.6-.26a1.3 1.3 0 0 0 .4-.5q.16-.3.16-.72zm3.94 4.49v-7h1.33l.1 1.82-.2-.2q.2-.6.56-.99.38-.4.88-.59a3 3 0 0 1 1.1-.18q.74 0 1.32.3.6.27.96.85t.35 1.45V398h-1.5v-4.07q0-1.04-.44-1.43-.42-.4-1.06-.4-.46 0-.9.22-.43.2-.72.68t-.28 1.28V398zm11.69-7.14q.84 0 1.43.25.6.24 1 .69t.62 1.02l-1.41.56q-.18-.64-.59-.98-.4-.35-1.04-.35-.63 0-1.07.3a2 2 0 0 0-.69.82q-.22.55-.22 1.34t.23 1.33.69.83 1.06.28q.48 0 .83-.15.35-.17.57-.47.24-.3.33-.74l1.35.46q-.2.63-.61 1.11a3 3 0 0 1-1.02.73q-.62.25-1.42.25-1.03 0-1.83-.43a3 3 0 0 1-1.25-1.25q-.43-.83-.43-1.96t.43-1.95a3 3 0 0 1 1.23-1.26q.8-.43 1.81-.43m7.92 7.28q-1.05 0-1.85-.43a3 3 0 0 1-1.25-1.25q-.43-.83-.43-1.96t.43-1.95q.45-.82 1.24-1.26.78-.43 1.77-.43 1.03 0 1.74.42t1.1 1.15q.37.73.37 1.65l-.01.48-.05.39h-5.62v-1.15h4.97l-.75.22q0-.95-.47-1.45-.48-.52-1.3-.52-.6 0-1.05.28t-.7.84-.23 1.34.25 1.33.72.83 1.09.28q.7 0 1.13-.27t.69-.74l1.19.56q-.25.5-.69.88-.42.37-1 .56a4 4 0 0 1-1.3.2"/><line x1="63.809" x2="573.021" y1="410.5" y2="410.5" stroke="#e3e7ee"/><path fill="#232323" d="M68.95 424.76q1.48 0 2.35.74t.88 2q0 1.3-.88 2.02-.87.7-2.35.7l-.14.08h-2.14v3.7h-1.49v-9.24zm-.12 4.3q.92 0 1.35-.37.45-.37.45-1.14t-.45-1.14q-.44-.38-1.35-.38h-2.16v3.03zm.89.3 3 4.64h-1.71l-2.58-4.05zm7.5-2.5q1.03 0 1.81.43a3 3 0 0 1 1.22 1.26q.45.82.45 1.95t-.45 1.96q-.44.81-1.22 1.25t-1.8.43-1.81-.43a3 3 0 0 1-1.23-1.25q-.45-.83-.45-1.96t.45-1.95a3 3 0 0 1 1.23-1.26q.78-.43 1.8-.43m0 1.18q-.63 0-1.07.29t-.68.83-.23 1.34q0 .78.23 1.34a2 2 0 0 0 .68.84q.44.28 1.07.28t1.07-.28a2 2 0 0 0 .67-.84q.24-.56.24-1.34 0-.8-.24-1.34-.24-.55-.67-.83-.44-.3-1.07-.3m6.82-4.18v8.19q0 .52.18.71.18.2.6.2.25 0 .42-.03.18-.04.45-.14l-.17 1.12a2 2 0 0 1-.54.17q-.31.07-.62.07-.94 0-1.39-.48-.43-.49-.43-1.5v-8.31zm5.98 10.29q-1.05 0-1.85-.43a3 3 0 0 1-1.24-1.25q-.44-.83-.44-1.96t.44-1.95q.45-.82 1.23-1.26.78-.43 1.78-.43 1.02 0 1.73.42t1.1 1.15.37 1.65l-.01.48q-.01.23-.04.39h-5.63v-1.15h4.97l-.74.22q0-.95-.48-1.45-.48-.52-1.3-.52-.6 0-1.05.28t-.69.84-.23 1.34.25 1.33.71.83 1.1.28q.7 0 1.13-.27t.68-.74l1.2.56q-.26.5-.7.88-.41.37-1 .56a4 4 0 0 1-1.29.2m7.67 0q-1.05 0-1.91-.4a3.3 3.3 0 0 1-1.38-1.15l1.04-.9q.3.57.88.92.6.34 1.4.34.65 0 1.03-.22.37-.23.37-.63a.7.7 0 0 0-.18-.47q-.17-.2-.66-.32l-1.47-.3q-1.12-.23-1.6-.72-.47-.5-.47-1.27 0-.58.34-1.07.33-.49.98-.78.65-.31 1.56-.31 1.05 0 1.8.38.74.36 1.13 1.05l-1.04.87a1.7 1.7 0 0 0-.78-.83 2 2 0 0 0-1.08-.28q-.44 0-.77.11a1 1 0 0 0-.49.31.7.7 0 0 0-.17.46q0 .28.21.5t.76.31l1.6.34q1 .2 1.41.67.42.46.42 1.14t-.35 1.19-1 .78-1.58.28m11.76 0q-.94 0-1.63-.3a2.6 2.6 0 0 1-1.05-.89q-.36-.56-.36-1.32 0-.43.11-.82a3 3 0 0 1 .4-.77 3 3 0 0 1 .75-.69 5 5 0 0 1 1.19-.56l.55-.24q.56-.32.9-.58.34-.27.5-.56a1.4 1.4 0 0 0 .16-.69q0-.46-.28-.71t-.74-.26q-.54 0-.82.31a1 1 0 0 0-.27.72q0 .25.07.49t.3.58q.25.35.7.93.44.56 1.21 1.48l1.26 1.49q.52.56.88.85.37.28.68.38.32.08.71.07l-.25 1.09a4 4 0 0 1-.84-.1q-.38-.08-.83-.39-.43-.3-1.03-.92a40 40 0 0 1-1.46-1.64l-1.36-1.6a19 19 0 0 1-.84-1.1 4 4 0 0 1-.42-.83 3 3 0 0 1-.12-.8q0-.52.26-1 .27-.51.8-.82.55-.32 1.41-.32.7 0 1.2.25t.75.7q.27.43.27 1.01 0 .53-.2 1t-.7.88q-.49.42-1.4.82l-.46.2q-.65.32-1.01.61a2 2 0 0 0-.52.63 2 2 0 0 0-.15.79q0 .47.24.82.25.34.67.52t.94.18q.74 0 1.26-.25.52-.26.96-.73l.2-.2a4 4 0 0 0 .52-1.21q.2-.67.12-1.53l1.16.07a5 5 0 0 1-.23 1.74 5 5 0 0 1-.79 1.51l-.28.31a4 4 0 0 1-1.27 1.02q-.77.38-1.82.38m14.69-9.38q.99 0 1.7.35.73.35 1.14 1 .4.64.4 1.55 0 .9-.4 1.55a2.7 2.7 0 0 1-1.14 1q-.71.35-1.7.35h-2.06V434h-1.5v-9.24zm-.24 4.5q1 0 1.45-.4.48-.42.48-1.2 0-.8-.48-1.2-.46-.43-1.45-.43h-1.82v3.24zm8.18 4.88q-1.05 0-1.85-.43a3 3 0 0 1-1.25-1.25q-.43-.83-.43-1.96t.43-1.95q.45-.82 1.23-1.26.79-.43 1.78-.43 1.02 0 1.74.42t1.09 1.15.38 1.65q0 .25-.02.48 0 .22-.04.39h-5.63v-1.15h4.97l-.74.22q0-.95-.47-1.45-.48-.52-1.3-.52-.6 0-1.06.28-.44.28-.68.84t-.24 1.34.25 1.33.72.83 1.09.28q.7 0 1.13-.27t.69-.74l1.19.56q-.25.5-.69.88-.42.37-1 .56a4 4 0 0 1-1.3.2m5.02-.14v-7h1.27l.14 1.26q.28-.69.83-1.04.56-.36 1.37-.36.21 0 .42.04.21.03.35.1l-.2 1.32-.36-.09a2 2 0 0 0-.5-.04q-.44 0-.86.24-.42.22-.7.68-.26.47-.26 1.18V434zm5.8 0v-7h1.33l.07 1.18q.36-.68.96-1a3 3 0 0 1 1.3-.32q.76 0 1.4.35t.96 1.02q.22-.46.61-.77t.87-.45.94-.15q.67 0 1.26.28t.95.85.36 1.47V434h-1.5v-4.3q0-.85-.4-1.23t-1.04-.38q-.49 0-.9.24t-.66.71-.26 1.15V434h-1.5v-4.3q0-.85-.4-1.23t-1.04-.38q-.42 0-.84.23t-.7.7-.28 1.26V434zm14.04-8.18q-.49 0-.75-.23-.26-.26-.26-.7t.26-.69.75-.24q.48 0 .73.24.27.24.27.69t-.27.7q-.25.23-.73.23m.74 1.18v7h-1.5v-7zm5 7.14q-1.04 0-1.91-.4a3.3 3.3 0 0 1-1.37-1.15l1.03-.9q.31.57.89.92.58.34 1.4.34.64 0 1.02-.22.38-.23.38-.63a.7.7 0 0 0-.19-.47q-.16-.2-.65-.32l-1.47-.3q-1.12-.23-1.6-.72-.48-.5-.48-1.27 0-.58.34-1.07t.98-.78q.66-.31 1.57-.31 1.05 0 1.79.38.74.36 1.13 1.05l-1.03.87a1.7 1.7 0 0 0-.79-.83 2 2 0 0 0-1.07-.28q-.45 0-.77.11a1 1 0 0 0-.5.31.7.7 0 0 0-.16.46q0 .28.2.5t.76.31l1.6.34q1 .2 1.41.67.42.46.42 1.14t-.35 1.19-1 .78-1.57.28m7.4 0q-1.04 0-1.91-.4a3.3 3.3 0 0 1-1.37-1.15l1.03-.9q.31.57.89.92.58.34 1.4.34.64 0 1.02-.22.38-.23.38-.63a.7.7 0 0 0-.19-.47q-.16-.2-.65-.32l-1.47-.3q-1.12-.23-1.6-.72-.48-.5-.48-1.27 0-.58.34-1.07t.98-.78q.66-.31 1.57-.31 1.05 0 1.79.38.74.36 1.13 1.05l-1.03.87a1.7 1.7 0 0 0-.79-.83 2 2 0 0 0-1.07-.28q-.45 0-.77.11a1 1 0 0 0-.5.31.7.7 0 0 0-.16.46q0 .28.2.5t.76.31l1.6.34q1 .2 1.41.67.42.46.42 1.14t-.35 1.19-1 .78-1.57.28m5.5-8.32q-.49 0-.75-.23-.25-.26-.25-.7t.25-.69.75-.24q.48 0 .73.24.27.24.27.69t-.27.7q-.25.23-.73.23m.75 1.18v7h-1.5v-7zm5.38-.14q1.02 0 1.8.43.79.44 1.22 1.26.45.82.45 1.95t-.45 1.96a3 3 0 0 1-1.22 1.25q-.78.43-1.8.43t-1.8-.43a3 3 0 0 1-1.24-1.25q-.45-.83-.45-1.96t.45-1.95a3 3 0 0 1 1.23-1.26q.79-.43 1.8-.43m0 1.18q-.62 0-1.07.29-.43.28-.67.83t-.24 1.34.24 1.34.67.84q.45.28 1.08.28t1.06-.28q.43-.29.67-.84.24-.56.24-1.34 0-.8-.24-1.34-.24-.55-.67-.83-.43-.3-1.06-.3m5.35 5.97v-7h1.33l.1 1.82-.2-.2q.2-.6.57-.99.37-.4.88-.59a3 3 0 0 1 1.1-.18q.73 0 1.32.3.6.27.95.85.35.57.35 1.45V434h-1.5v-4.07q0-1.04-.43-1.43-.42-.4-1.06-.4-.47 0-.9.22-.43.2-.73.68-.28.48-.28 1.28V434zm11.33.14q-1.05 0-1.92-.4a3.3 3.3 0 0 1-1.37-1.15l1.04-.9q.3.57.88.92.59.34 1.4.34.64 0 1.02-.22.38-.23.38-.63a.7.7 0 0 0-.18-.47q-.17-.2-.66-.32l-1.47-.3q-1.12-.23-1.6-.72-.47-.5-.47-1.27 0-.58.33-1.07.34-.49.98-.78.66-.31 1.57-.31 1.05 0 1.8.38.74.36 1.13 1.05l-1.04.87a1.7 1.7 0 0 0-.78-.83 2 2 0 0 0-1.08-.28 2 2 0 0 0-.77.11 1 1 0 0 0-.49.31.7.7 0 0 0-.17.46q0 .28.21.5t.76.31l1.6.34q1 .2 1.4.67.43.46.43 1.14t-.35 1.19-1 .78q-.67.28-1.58.28"/><line x1="63.809" x2="573.021" y1="446.5" y2="446.5" stroke="#e3e7ee"/><path fill="#232323" d="M68.74 460.76q1 0 1.7.35.73.35 1.14 1t.4 1.55-.4 1.55-1.14 1q-.7.35-1.7.35h-2.06V470h-1.5v-9.24zm-.24 4.5q1 0 1.45-.4.48-.42.48-1.2 0-.8-.48-1.2-.46-.43-1.45-.43h-1.82v3.24zm8.18 4.88q-1.05 0-1.85-.43a3 3 0 0 1-1.25-1.25q-.43-.83-.43-1.96t.43-1.95a3 3 0 0 1 1.24-1.26q.78-.43 1.77-.43 1.03 0 1.74.42t1.1 1.15.37 1.65l-.01.48q-.01.23-.05.39h-5.62v-1.15h4.97l-.75.22q0-.95-.47-1.45-.48-.52-1.3-.52-.6 0-1.05.28t-.69.84-.24 1.34.25 1.33.72.83 1.09.28q.7 0 1.13-.27t.69-.74l1.19.56q-.25.5-.69.88-.42.37-1 .56a4 4 0 0 1-1.3.2m5.02-.14v-7h1.28l.14 1.26q.28-.69.82-1.04.56-.36 1.37-.36.21 0 .42.04.21.03.35.1l-.2 1.32-.36-.09a2 2 0 0 0-.5-.04q-.43 0-.85.24-.42.22-.7.68t-.27 1.18V470zm5.8 0v-7h1.33l.07 1.18q.36-.68.96-1 .62-.32 1.3-.32.76 0 1.4.35t.96 1.02q.22-.46.61-.77.4-.3.87-.45.48-.15.94-.15.67 0 1.26.28t.95.85.37 1.47V470H97v-4.3q0-.85-.4-1.23t-1.04-.38q-.5 0-.91.24-.4.24-.66.71-.25.47-.25 1.15V470h-1.5v-4.3q0-.85-.4-1.23t-1.04-.38q-.42 0-.84.23a2 2 0 0 0-.7.7q-.28.47-.28 1.26V470zm14.04-8.18q-.49 0-.75-.23-.25-.26-.25-.7t.25-.69.75-.24q.48 0 .73.24.27.24.27.69t-.27.7q-.25.23-.73.23m.75 1.18v7h-1.5v-7zm5 7.14q-1.05 0-1.92-.4a3.3 3.3 0 0 1-1.37-1.15l1.04-.9q.3.57.88.92.59.34 1.4.34.64 0 1.02-.22.38-.23.38-.63a.7.7 0 0 0-.18-.47q-.17-.2-.66-.32l-1.47-.3q-1.12-.23-1.6-.72-.47-.5-.47-1.27 0-.58.33-1.07.34-.49.98-.78.66-.31 1.57-.31 1.05 0 1.8.38.73.36 1.13 1.05l-1.04.87a1.7 1.7 0 0 0-.78-.83 2 2 0 0 0-1.08-.28 2 2 0 0 0-.77.11 1 1 0 0 0-.5.31.7.7 0 0 0-.16.46q0 .28.21.5t.76.31l1.6.34q1 .2 1.4.67.43.46.43 1.14t-.35 1.19-1.01.78-1.57.28m7.41 0q-1.05 0-1.92-.4a3.3 3.3 0 0 1-1.37-1.15l1.04-.9q.3.57.88.92.59.34 1.4.34.64 0 1.02-.22.38-.23.38-.63a.7.7 0 0 0-.18-.47q-.17-.2-.66-.32l-1.47-.3q-1.12-.23-1.6-.72-.47-.5-.47-1.27 0-.58.33-1.07.34-.49.98-.78.66-.31 1.57-.31 1.05 0 1.8.38.73.36 1.13 1.05l-1.04.87a1.7 1.7 0 0 0-.78-.83 2 2 0 0 0-1.08-.28 2 2 0 0 0-.77.11 1 1 0 0 0-.5.31.7.7 0 0 0-.16.46q0 .28.21.5t.76.31l1.6.34q1 .2 1.4.67.43.46.43 1.14t-.35 1.19-1.01.78-1.57.28m5.5-8.32q-.48 0-.75-.23-.25-.26-.25-.7t.25-.69q.27-.24.76-.24.47 0 .72.24.27.24.27.69t-.27.7q-.25.23-.72.23m.74 1.18v7h-1.5v-7zm5.38-.14q1.02 0 1.8.43a3 3 0 0 1 1.22 1.26q.45.82.45 1.95t-.45 1.96q-.43.81-1.21 1.25-.79.43-1.81.43t-1.8-.43a3 3 0 0 1-1.24-1.25q-.45-.83-.45-1.96t.45-1.95a3 3 0 0 1 1.23-1.26q.79-.43 1.81-.43m0 1.18q-.63 0-1.08.29-.43.28-.67.83t-.24 1.34.24 1.34.67.84q.45.28 1.08.28t1.06-.28q.44-.29.68-.84.23-.56.23-1.34 0-.8-.23-1.34t-.68-.83q-.43-.3-1.06-.3m5.36 5.97v-7H133l.1 1.82-.2-.2q.2-.6.56-.99.38-.4.88-.59a3 3 0 0 1 1.1-.18q.73 0 1.32.3.6.27.95.85t.35 1.45V470h-1.5v-4.07q0-1.04-.43-1.43-.42-.4-1.06-.4-.46 0-.9.22-.43.2-.73.68-.28.48-.28 1.28V470zm11.32.14q-1.05 0-1.91-.4a3.3 3.3 0 0 1-1.38-1.15l1.04-.9q.3.57.88.92.59.34 1.4.34.65 0 1.02-.22.38-.23.38-.63a.7.7 0 0 0-.18-.47q-.17-.2-.66-.32l-1.47-.3q-1.12-.23-1.6-.72-.47-.5-.47-1.27 0-.58.34-1.07t.98-.78q.65-.31 1.56-.31 1.05 0 1.8.38.74.36 1.13 1.05l-1.04.87a1.7 1.7 0 0 0-.78-.83 2 2 0 0 0-1.08-.28q-.45 0-.77.11a1 1 0 0 0-.49.31.7.7 0 0 0-.17.46q0 .28.21.5t.76.31l1.6.34q1 .2 1.41.67.42.46.42 1.14t-.35 1.19-1 .78-1.58.28"/><line x1="63.809" x2="573.021" y1="485.5" y2="485.5" stroke="#e3e7ee"/><path fill="#232323" d="M72.84 506.55a4 4 0 0 1-.84 1.43 4 4 0 0 1-1.32.87 5 5 0 0 1-1.66.29q-1.33 0-2.31-.57a4 4 0 0 1-1.51-1.64q-.54-1.07-.54-2.55t.54-2.55a4 4 0 0 1 1.5-1.64q.99-.57 2.3-.57.91 0 1.64.25a3 3 0 0 1 1.26.76q.52.5.8 1.26l-1.41.63q-.28-.83-.82-1.2-.53-.4-1.38-.4-.86 0-1.5.4t-1 1.18-.36 1.88.34 1.88q.33.77.96 1.17t1.52.4q.85 0 1.47-.43.63-.44.9-1.33zm4.74-4.69q1.02 0 1.8.43a3 3 0 0 1 1.22 1.26q.45.82.45 1.95t-.45 1.96q-.43.81-1.21 1.25-.79.43-1.81.43t-1.8-.43a3 3 0 0 1-1.24-1.25q-.45-.83-.45-1.96t.45-1.95 1.23-1.26q.79-.43 1.8-.43m0 1.18q-.62 0-1.07.29-.43.28-.67.83t-.24 1.34.24 1.34a2 2 0 0 0 .67.84q.45.28 1.08.28t1.06-.28a2 2 0 0 0 .67-.84q.24-.56.24-1.34 0-.8-.24-1.34-.23-.55-.67-.83-.43-.3-1.06-.3m5.36 5.97v-7h1.33l.07 1.18q.36-.68.96-1 .62-.32 1.3-.32.76 0 1.39.35.64.34.96 1.02.23-.46.62-.77t.87-.45q.47-.15.94-.15.67 0 1.26.28t.95.85.36 1.47V509h-1.5v-4.3q0-.85-.4-1.23t-1.04-.38q-.49 0-.9.24t-.67.71-.25 1.15V509h-1.5v-4.3q0-.85-.4-1.23t-1.04-.38q-.42 0-.84.23a2 2 0 0 0-.7.7q-.28.47-.28 1.26V509zm13.28 2.94V502h1.33l.12 1.96-.2-.24a3 3 0 0 1 .52-.96 2.4 2.4 0 0 1 .87-.66 3 3 0 0 1 1.16-.24q.85 0 1.55.43.7.44 1.1 1.25.41.8.41 1.95t-.42 1.97q-.4.81-1.12 1.25a3 3 0 0 1-1.56.43q-.9 0-1.53-.46a2.6 2.6 0 0 1-.9-1.2l.17-.24v4.7zm3.43-4.02q.91 0 1.42-.64.52-.65.52-1.78t-.5-1.78q-.51-.66-1.4-.66-.6 0-1.04.31-.44.3-.69.84-.24.53-.24 1.29 0 .74.24 1.29a2 2 0 0 0 .67.84q.44.3 1.02.3m9.38-3.42q0-.7-.39-1.08-.38-.4-1.05-.4-.63 0-1.08.3t-.65.95l-1.26-.53a2.5 2.5 0 0 1 1.03-1.37q.78-.52 2.02-.52.84 0 1.48.28.65.27 1.01.81.38.55.38 1.4v3.12q0 .52.52.52.25 0 .49-.07l-.09 1.04q-.32.15-.81.15-.45 0-.81-.15a1.4 1.4 0 0 1-.56-.5q-.2-.33-.2-.82v-.1l.31-.01a2 2 0 0 1-.52.91 3 3 0 0 1-.9.53 3 3 0 0 1-1.06.17q-.66 0-1.19-.21a2 2 0 0 1-.82-.63q-.3-.43-.3-1.06 0-.79.5-1.3.52-.5 1.46-.68l2.72-.53-.02 1.05-1.97.4q-.59.12-.88.33t-.3.61q0 .4.3.63t.81.23q.35 0 .67-.09.34-.08.6-.26a1.3 1.3 0 0 0 .41-.5q.15-.3.15-.72zm3.94 4.49v-7h1.33l.1 1.82-.2-.2q.2-.6.56-.99.38-.4.89-.59a3 3 0 0 1 1.09-.18q.74 0 1.33.3.6.27.95.85t.35 1.45V509h-1.5v-4.07q0-1.04-.43-1.43-.42-.4-1.07-.4-.46 0-.9.22-.43.2-.72.68t-.28 1.28V509zm14.6-7-3.07 7.83q-.3.8-.67 1.28a2 2 0 0 1-.81.69q-.47.21-1.08.21-.5 0-.94-.14a3 3 0 0 1-.74-.35l.36-1.16q.27.22.56.33.31.12.66.12.38 0 .67-.21.31-.2.55-.8l.3-.76-.73-1.73-2.19-5.31h1.68l1.56 4.4.4 1.31.46-1.44 1.47-4.27zm2.4-2.74q.4 0 .64.2.27.17.41.51.14.32.14.74 0 .52-.2 1.01-.2.47-.57.88a3 3 0 0 1-.88.65l-.7-.6q.38-.15.67-.37t.49-.5a2 2 0 0 0 .3-.58l-.06-.03-.17.07a1 1 0 0 1-.66-.07 1 1 0 0 1-.33-.32q-.14-.2-.14-.54 0-.31.14-.55a1 1 0 0 1 .39-.36q.24-.14.53-.14m5 9.88q-1.04 0-1.91-.4a3.3 3.3 0 0 1-1.37-1.15l1.03-.9q.31.57.89.92.58.34 1.4.34.64 0 1.02-.22.38-.23.38-.63a.7.7 0 0 0-.19-.47q-.16-.2-.65-.32l-1.47-.3q-1.12-.23-1.6-.72-.48-.5-.48-1.27 0-.58.34-1.07t.98-.78q.66-.31 1.57-.31 1.05 0 1.79.38.74.36 1.13 1.05l-1.03.87a1.7 1.7 0 0 0-.79-.83 2 2 0 0 0-1.07-.28 2 2 0 0 0-.77.11 1 1 0 0 0-.5.31.7.7 0 0 0-.16.46q0 .28.2.5t.76.31l1.6.34q1 .2 1.41.67.42.46.42 1.14t-.35 1.19-1 .78-1.57.28m13.07-9.38q1 0 1.7.35.73.35 1.14 1t.4 1.55-.4 1.55a2.7 2.7 0 0 1-1.14 1q-.7.35-1.7.35h-2.06V509h-1.5v-9.24zm-.24 4.5q1 0 1.45-.4.48-.42.48-1.2 0-.8-.48-1.2-.46-.43-1.45-.43h-1.82v3.24zm5.25 4.74v-7h1.27l.14 1.26q.28-.69.83-1.04.56-.36 1.37-.36.21 0 .42.04.21.03.35.1l-.21 1.32-.35-.09a2 2 0 0 0-.5-.04q-.44 0-.86.24-.42.22-.7.68-.26.47-.26 1.18V509zm8.65-7.14q1.03 0 1.81.43.78.44 1.22 1.26.45.82.45 1.95t-.45 1.96a3 3 0 0 1-1.22 1.25q-.78.43-1.8.43-1.03 0-1.81-.43a3 3 0 0 1-1.23-1.25q-.45-.83-.45-1.96t.45-1.95a3 3 0 0 1 1.23-1.26q.78-.43 1.8-.43m0 1.18q-.63 0-1.07.29t-.68.83-.23 1.34q0 .78.23 1.34.24.55.68.84t1.07.28 1.07-.28q.43-.29.67-.84.24-.56.24-1.34 0-.8-.24-1.34t-.67-.83q-.44-.3-1.07-.3m8.23-4.28q.44 0 .79.1.36.08.54.24l-.28 1.08a1 1 0 0 0-.35-.14 2 2 0 0 0-.44-.06q-.58 0-.91.27-.33.26-.33.86v1.03l.05.37v6.5h-1.5v-8q0-.54.15-.96.17-.42.5-.7.31-.3.76-.43a3 3 0 0 1 1.02-.16m1.3 3.25v1.18h-5.05V502zm2.1-1.18q-.5 0-.76-.23-.26-.26-.26-.7t.26-.69.75-.24q.48 0 .73.24.27.24.27.69t-.27.7q-.25.23-.73.23m.74 1.18v7h-1.5v-7zm3.78-3.15v8.19q0 .52.18.71t.6.2q.26 0 .43-.03.18-.04.44-.14l-.16 1.12a2 2 0 0 1-.55.17q-.3.07-.62.07-.93 0-1.38-.48-.44-.49-.44-1.5v-8.31zm5.99 10.29q-1.05 0-1.85-.43a3 3 0 0 1-1.25-1.25q-.43-.83-.43-1.96t.43-1.95q.45-.82 1.23-1.26.79-.43 1.78-.43 1.02 0 1.74.42t1.1 1.15.37 1.65q0 .25-.02.48 0 .22-.04.39h-5.63v-1.15h4.97l-.74.22q0-.95-.47-1.45-.48-.52-1.3-.52-.6 0-1.06.28-.44.28-.68.84t-.24 1.34.25 1.33.72.83 1.09.28q.7 0 1.13-.27.44-.26.69-.74l1.19.56q-.25.5-.69.88-.42.37-1 .56a4 4 0 0 1-1.3.2"/><line x1="63.809" x2="573.021" y1="524.5" y2="524.5" stroke="#e3e7ee"/><path fill="#232323" d="M72.06 538.76v1.29h-3.17V548h-1.5v-7.95h-3.16v-1.29zm3.2 9.38q-1.05 0-1.85-.43a3 3 0 0 1-1.25-1.25q-.43-.83-.43-1.96t.43-1.95q.45-.82 1.23-1.26.79-.43 1.78-.43 1.02 0 1.74.42t1.09 1.15.38 1.65q0 .25-.02.48t-.04.39H72.7v-1.15h4.97l-.74.22q0-.95-.47-1.45-.48-.52-1.3-.52-.6 0-1.06.28-.44.28-.68.84t-.24 1.34.25 1.33.72.83 1.09.28q.7 0 1.13-.27.44-.26.69-.74l1.19.56q-.25.5-.69.88-.42.37-1 .56a4 4 0 0 1-1.3.2m9.07-4.63q0-.7-.4-1.08-.37-.4-1.05-.4-.63 0-1.07.3t-.66.95l-1.26-.53a2.5 2.5 0 0 1 1.03-1.37q.79-.52 2.02-.52.84 0 1.48.28.65.27 1.01.81.38.55.38 1.4v3.12q0 .52.52.52.25 0 .49-.07l-.09 1.04q-.32.15-.8.15-.46 0-.82-.15a1.4 1.4 0 0 1-.56-.5q-.2-.33-.2-.82v-.1l.31-.01a2 2 0 0 1-.52.91 3 3 0 0 1-.9.53 3 3 0 0 1-1.06.17q-.65 0-1.19-.21a2 2 0 0 1-.82-.63q-.3-.43-.3-1.06 0-.79.5-1.3.53-.5 1.46-.68l2.72-.53-.01 1.05-1.98.4q-.59.12-.88.33t-.3.61q0 .4.3.63t.81.23q.35 0 .67-.09.34-.08.6-.26.27-.2.41-.5.16-.3.16-.72zm3.93 4.49v-7h1.33l.07 1.18q.37-.68.97-1 .62-.32 1.3-.32.76 0 1.39.35.64.34.96 1.02.23-.46.62-.77.4-.3.87-.45t.94-.15q.67 0 1.26.28t.95.85.36 1.47V548h-1.5v-4.3q0-.85-.4-1.23t-1.04-.38q-.49 0-.9.24t-.67.71-.25 1.15V548h-1.5v-4.3q0-.85-.4-1.23t-1.04-.38q-.42 0-.84.23a2 2 0 0 0-.7.7q-.28.47-.28 1.26V548zm15.95.14q-1.05 0-1.91-.4a3.3 3.3 0 0 1-1.38-1.15l1.04-.9q.3.57.88.92.59.34 1.4.34.65 0 1.02-.22.38-.23.38-.63a.7.7 0 0 0-.18-.47q-.17-.2-.66-.32l-1.47-.3q-1.12-.23-1.6-.72-.47-.5-.47-1.27 0-.58.34-1.07t.98-.78 1.56-.31q1.05 0 1.8.38.74.36 1.13 1.05l-1.04.87a1.7 1.7 0 0 0-.78-.83 2 2 0 0 0-1.08-.28q-.45 0-.77.11a1 1 0 0 0-.49.31.7.7 0 0 0-.17.46q0 .28.21.5t.76.31l1.6.34q1 .2 1.4.67.43.46.43 1.14t-.35 1.19q-.35.5-1 .78-.67.28-1.58.28"/><line x1="63.809" x2="573.021" y1="563.5" y2="563.5" stroke="#e3e7ee"/><line x1="254.27" x2="254.27" y1="228.535" y2="564" stroke="#e3e7ee"/><line x1="311.915" x2="311.915" y1="228.535" y2="564" stroke="#e3e7ee"/><line x1="378.326" x2="378.326" y1="228.535" y2="563.091" stroke="#e3e7ee"/><line x1="430.385" x2="430.385" y1="232.007" y2="564" stroke="#e3e7ee"/><line x1="493.43" x2="493.43" y1="229.073" y2="561.066" stroke="#e3e7ee"/><rect width="19" height="19" x="273.092" y="278.5" fill="#e6f0fe" rx="5.5"/><rect width="19" height="19" x="273.092" y="278.5" stroke="#0266f3" rx="5.5"/><path stroke="#0266f3" stroke-linecap="round" stroke-linejoin="round" stroke-width="2" d="m287.26 284.5-6.42 6.42-2.91-2.92"/><rect width="19" height="19" x="273.092" y="311.5" fill="#e6f0fe" rx="5.5"/><rect width="19" height="19" x="273.092" y="311.5" stroke="#0266f3" rx="5.5"/><path stroke="#0266f3" stroke-linecap="round" stroke-linejoin="round" stroke-width="2" d="m287.26 317.5-6.42 6.42-2.91-2.92"/><rect width="19" height="19" x="273.092" y="347.5" fill="#e6f0fe" rx="5.5"/><rect width="19" height="19" x="273.092" y="347.5" stroke="#0266f3" rx="5.5"/><path stroke="#0266f3" stroke-linecap="round" stroke-linejoin="round" stroke-width="2" d="m287.26 353.5-6.42 6.42-2.91-2.92"/><rect width="19" height="19" x="273.092" y="383.5" fill="#e6f0fe" rx="5.5"/><rect width="19" height="19" x="273.092" y="383.5" stroke="#0266f3" rx="5.5"/><path stroke="#0266f3" stroke-linecap="round" stroke-linejoin="round" stroke-width="2" d="m287.26 389.5-6.42 6.42-2.91-2.92"/><rect width="19" height="19" x="272.809" y="419.5" fill="#e6f0fe" rx="5.5"/><rect width="19" height="19" x="272.809" y="419.5" stroke="#0266f3" rx="5.5"/><path stroke="#0266f3" stroke-linecap="round" stroke-linejoin="round" stroke-width="2" d="m286.98 425.5-6.42 6.42-2.92-2.92"/><rect width="19" height="19" x="273.092" y="457" fill="#e6f0fe" rx="5.5"/><rect width="19" height="19" x="273.092" y="457" stroke="#0266f3" rx="5.5"/><path stroke="#0266f3" stroke-linecap="round" stroke-linejoin="round" stroke-width="2" d="m287.26 463-6.42 6.42-2.91-2.92"/><rect width="19" height="19" x="273.092" y="457" fill="#e6f0fe" rx="5.5"/><rect width="19" height="19" x="273.092" y="457" stroke="#0266f3" rx="5.5"/><path stroke="#0266f3" stroke-linecap="round" stroke-linejoin="round" stroke-width="2" d="m287.26 463-6.42 6.42-2.91-2.92"/><rect width="19" height="19" x="273.092" y="494.5" fill="#fff" rx="5.5"/><rect width="19" height="19" x="273.092" y="494.5" stroke="#d0d5dd" rx="5.5"/><rect width="19" height="19" x="273.092" y="533.5" fill="#e6f0fe" rx="5.5"/><rect width="19" height="19" x="273.092" y="533.5" stroke="#0266f3" rx="5.5"/><path stroke="#0266f3" stroke-linecap="round" stroke-linejoin="round" stroke-width="2" d="m287.26 539.5-6.42 6.42-2.91-2.92"/><rect width="19" height="19" x="336.451" y="278.5" fill="#e6f0fe" rx="5.5"/><rect width="19" height="19" x="336.451" y="278.5" stroke="#0266f3" rx="5.5"/><path stroke="#0266f3" stroke-linecap="round" stroke-linejoin="round" stroke-width="2" d="m350.62 284.5-6.42 6.42-2.92-2.92"/><rect width="19" height="19" x="336.451" y="311.5" fill="#e6f0fe" rx="5.5"/><rect width="19" height="19" x="336.451" y="311.5" stroke="#0266f3" rx="5.5"/><path stroke="#0266f3" stroke-linecap="round" stroke-linejoin="round" stroke-width="2" d="m350.62 317.5-6.42 6.42-2.92-2.92"/><rect width="19" height="19" x="336.451" y="347.5" fill="#e6f0fe" rx="5.5"/><rect width="19" height="19" x="336.451" y="347.5" stroke="#0266f3" rx="5.5"/><path stroke="#0266f3" stroke-linecap="round" stroke-linejoin="round" stroke-width="2" d="m350.62 353.5-6.42 6.42-2.92-2.92"/><rect width="19" height="19" x="336.451" y="383.5" fill="#fff" rx="5.5"/><rect width="19" height="19" x="336.451" y="383.5" stroke="#d0d5dd" rx="5.5"/><rect width="19" height="19" x="336.167" y="419.5" fill="#e6f0fe" rx="5.5"/><rect width="19" height="19" x="336.167" y="419.5" stroke="#0266f3" rx="5.5"/><path stroke="#0266f3" stroke-linecap="round" stroke-linejoin="round" stroke-width="2" d="m350.33 425.5-6.41 6.42L341 429"/><rect width="19" height="19" x="336.451" y="457" fill="#e6f0fe" rx="5.5"/><rect width="19" height="19" x="336.451" y="457" stroke="#0266f3" rx="5.5"/><path stroke="#0266f3" stroke-linecap="round" stroke-linejoin="round" stroke-width="2" d="m350.62 463-6.42 6.42-2.92-2.92"/><rect width="19" height="19" x="336.451" y="533.5" fill="#e6f0fe" rx="5.5"/><rect width="19" height="19" x="336.451" y="533.5" stroke="#0266f3" rx="5.5"/><path stroke="#0266f3" stroke-linecap="round" stroke-linejoin="round" stroke-width="2" d="m350.62 539.5-6.42 6.42-2.92-2.92"/><rect width="19" height="19" x="394.497" y="278.5" fill="#e6f0fe" rx="5.5"/><rect width="19" height="19" x="394.497" y="278.5" stroke="#0266f3" rx="5.5"/><path stroke="#0266f3" stroke-linecap="round" stroke-linejoin="round" stroke-width="2" d="m408.66 284.5-6.41 6.42-2.92-2.92"/><rect width="19" height="19" x="394.497" y="311.5" fill="#e6f0fe" rx="5.5"/><rect width="19" height="19" x="394.497" y="311.5" stroke="#0266f3" rx="5.5"/><path stroke="#0266f3" stroke-linecap="round" stroke-linejoin="round" stroke-width="2" d="m408.66 317.5-6.41 6.42-2.92-2.92"/><rect width="19" height="19" x="394.497" y="347.5" fill="#e6f0fe" rx="5.5"/><rect width="19" height="19" x="394.497" y="347.5" stroke="#0266f3" rx="5.5"/><path stroke="#0266f3" stroke-linecap="round" stroke-linejoin="round" stroke-width="2" d="m408.66 353.5-6.41 6.42-2.92-2.92"/><rect width="19" height="19" x="394.497" y="383.5" fill="#fff" rx="5.5"/><rect width="19" height="19" x="394.497" y="383.5" stroke="#d0d5dd" rx="5.5"/><rect width="19" height="19" x="394.214" y="419.5" fill="#e6f0fe" rx="5.5"/><rect width="19" height="19" x="394.214" y="419.5" stroke="#0266f3" rx="5.5"/><path stroke="#0266f3" stroke-linecap="round" stroke-linejoin="round" stroke-width="2" d="m408.38 425.5-6.42 6.42-2.91-2.92"/><rect width="19" height="19" x="394.497" y="457" fill="#fff" rx="5.5"/><rect width="19" height="19" x="394.497" y="457" stroke="#d0d5dd" rx="5.5"/><rect width="19" height="19" x="335.121" y="494.5" fill="#fff" rx="5.5"/><rect width="19" height="19" x="335.121" y="494.5" stroke="#d0d5dd" rx="5.5"/><rect width="19" height="19" x="394.497" y="494.5" fill="#fff" rx="5.5"/><rect width="19" height="19" x="394.497" y="494.5" stroke="#d0d5dd" rx="5.5"/><rect width="19" height="19" x="394.497" y="533.5" fill="#fff" rx="5.5"/><rect width="19" height="19" x="394.497" y="533.5" stroke="#d0d5dd" rx="5.5"/><rect width="19" height="19" x="452.592" y="494.5" fill="#fff" rx="5.5"/><rect width="19" height="19" x="452.592" y="494.5" stroke="#d0d5dd" rx="5.5"/><rect width="19" height="19" x="452.592" y="533.5" fill="#fff" rx="5.5"/><rect width="19" height="19" x="452.592" y="533.5" stroke="#d0d5dd" rx="5.5"/><rect width="19" height="19" x="452.592" y="278.5" fill="#e6f0fe" rx="5.5"/><rect width="19" height="19" x="452.592" y="278.5" stroke="#0266f3" rx="5.5"/><path stroke="#0266f3" stroke-linecap="round" stroke-linejoin="round" stroke-width="2" d="m466.76 284.5-6.42 6.42-2.91-2.92"/><rect width="19" height="19" x="452.592" y="311.5" fill="#fff" rx="5.5"/><rect width="19" height="19" x="452.592" y="311.5" stroke="#d0d5dd" rx="5.5"/><rect width="19" height="19" x="452.592" y="347.5" fill="#fff" rx="5.5"/><rect width="19" height="19" x="452.592" y="347.5" stroke="#d0d5dd" rx="5.5"/><rect width="19" height="19" x="452.592" y="383.5" fill="#fff" rx="5.5"/><rect width="19" height="19" x="452.592" y="383.5" stroke="#d0d5dd" rx="5.5"/><rect width="19" height="19" x="452.309" y="419.5" fill="#e6f0fe" rx="5.5"/><rect width="19" height="19" x="452.309" y="419.5" stroke="#0266f3" rx="5.5"/><path stroke="#0266f3" stroke-linecap="round" stroke-linejoin="round" stroke-width="2" d="m466.48 425.5-6.42 6.42-2.92-2.92"/><rect width="19" height="19" x="452.592" y="457" fill="#fff" rx="5.5"/><rect width="19" height="19" x="452.592" y="457" stroke="#d0d5dd" rx="5.5"/><rect width="19" height="19" x="518.588" y="278.5" fill="#e6f0fe" rx="5.5"/><rect width="19" height="19" x="518.588" y="278.5" stroke="#0266f3" rx="5.5"/><path stroke="#0266f3" stroke-linecap="round" stroke-linejoin="round" stroke-width="2" d="m532.76 284.5-6.42 6.42-2.92-2.92"/><rect width="19" height="19" x="518.588" y="311.5" fill="#fff" rx="5.5"/><rect width="19" height="19" x="518.588" y="311.5" stroke="#d0d5dd" rx="5.5"/><rect width="19" height="19" x="518.588" y="347.5" fill="#fff" rx="5.5"/><rect width="19" height="19" x="518.588" y="347.5" stroke="#d0d5dd" rx="5.5"/><rect width="19" height="19" x="518.588" y="383.5" fill="#fff" rx="5.5"/><rect width="19" height="19" x="518.588" y="383.5" stroke="#d0d5dd" rx="5.5"/><rect width="19" height="19" x="518.305" y="419.5" fill="#e6f0fe" rx="5.5"/><rect width="19" height="19" x="518.305" y="419.5" stroke="#0266f3" rx="5.5"/><path stroke="#0266f3" stroke-linecap="round" stroke-linejoin="round" stroke-width="2" d="m532.47 425.5-6.42 6.42-2.91-2.92"/><rect width="19" height="19" x="518.588" y="457" fill="#fff" rx="5.5"/><rect width="19" height="19" x="518.588" y="457" stroke="#d0d5dd" rx="5.5"/><rect width="19" height="19" x="518.588" y="494.5" fill="#fff" rx="5.5"/><rect width="19" height="19" x="518.588" y="494.5" stroke="#d0d5dd" rx="5.5"/><rect width="19" height="19" x="518.588" y="533.5" fill="#fff" rx="5.5"/><rect width="19" height="19" x="518.588" y="533.5" stroke="#d0d5dd" rx="5.5"/></g><rect width="527" height="334" x="45.309" y="229.5" stroke="#c3c9d3" rx="6.5"/><g filter="url(#filter1_d_139_1038)"><rect width="259" height="43" x="44" y="593" fill="#fff" rx="8"/><rect width="258" height="42" x="44.5" y="593.5" stroke="#d0d5dd" rx="7.5"/></g><g filter="url(#filter2_d_139_1038)"><rect width="259" height="43" x="315" y="593" fill="#0266f3" rx="8"/><rect width="258" height="42" x="315.5" y="593.5" stroke="#0266f3" rx="7.5"/></g></g></g><defs><filter id="filter0_dd_139_1038" width="618" height="633" x="0" y="0" color-interpolation-filters="sRGB" filterUnits="userSpaceOnUse"><feFlood flood-opacity="0" result="BackgroundImageFix"/><feColorMatrix in="SourceAlpha" result="hardAlpha" values="0 0 0 0 0 0 0 0 0 0 0 0 0 0 0 0 0 0 127 0"/><feMorphology in="SourceAlpha" radius="4" result="effect1_dropShadow_139_1038"/><feOffset dy="8"/><feGaussianBlur stdDeviation="4"/><feColorMatrix values="0 0 0 0 0.0627451 0 0 0 0 0.0941176 0 0 0 0 0.156863 0 0 0 0.03 0"/><feBlend in2="BackgroundImageFix" result="effect1_dropShadow_139_1038"/><feColorMatrix in="SourceAlpha" result="hardAlpha" values="0 0 0 0 0 0 0 0 0 0 0 0 0 0 0 0 0 0 127 0"/><feMorphology in="SourceAlpha" radius="4" result="effect2_dropShadow_139_1038"/><feOffset dy="20"/><feGaussianBlur stdDeviation="12"/><feColorMatrix values="0 0 0 0 0.0627451 0 0 0 0 0.0941176 0 0 0 0 0.156863 0 0 0 0.08 0"/><feBlend in2="effect1_dropShadow_139_1038" result="effect2_dropShadow_139_1038"/><feBlend in="SourceGraphic" in2="effect2_dropShadow_139_1038" result="shape"/></filter><filter id="filter1_d_139_1038" width="263" height="47" x="42" y="592" color-interpolation-filters="sRGB" filterUnits="userSpaceOnUse"><feFlood flood-opacity="0" result="BackgroundImageFix"/><feColorMatrix in="SourceAlpha" result="hardAlpha" values="0 0 0 0 0 0 0 0 0 0 0 0 0 0 0 0 0 0 127 0"/><feOffset dy="1"/><feGaussianBlur stdDeviation="1"/><feColorMatrix values="0 0 0 0 0.0627451 0 0 0 0 0.0941176 0 0 0 0 0.156863 0 0 0 0.05 0"/><feBlend in2="BackgroundImageFix" result="effect1_dropShadow_139_1038"/><feBlend in="SourceGraphic" in2="effect1_dropShadow_139_1038" result="shape"/></filter><filter id="filter2_d_139_1038" width="263" height="47" x="313" y="592" color-interpolation-filters="sRGB" filterUnits="userSpaceOnUse"><feFlood flood-opacity="0" result="BackgroundImageFix"/><feColorMatrix in="SourceAlpha" result="hardAlpha" values="0 0 0 0 0 0 0 0 0 0 0 0 0 0 0 0 0 0 127 0"/><feOffset dy="1"/><feGaussianBlur stdDeviation="1"/><feColorMatrix values="0 0 0 0 0.0627451 0 0 0 0 0.0941176 0 0 0 0 0.156863 0 0 0 0.05 0"/><feBlend in2="BackgroundImageFix" result="effect1_dropShadow_139_1038"/><feBlend in="SourceGraphic" in2="effect1_dropShadow_139_1038" result="shape"/></filter><clipPath id="clip0_139_1038"><rect width="578" height="593" x="20" fill="#fff" rx="12"/></clipPath><clipPath id="clip1_139_1038"><rect width="528" height="335" x="44.809" y="229" fill="#fff" rx="7"/></clipPath></defs></svg>