<svg xmlns="http://www.w3.org/2000/svg" fill="none" viewBox="0 0 1189 109"><path id="logo" fill="#0266f360" fill-opacity=".25" d="M29.99 159.73V40.88H0V13.1h94.2v27.77h-30v118.85zm109 3.1c-37.32 0-48.2-27.32-48.2-60.64 0-30.43 9.33-62.87 45.76-62.87 34.88 0 45.1 30.44 41.32 66.65l-53.1 1.55c.45 20 4 30.44 13.12 30.44 6.66 0 11.55-5.78 10.88-18.22l30.44 2.22c1.77 16.22-5.11 40.88-40.21 40.88m-2.67-97.3c-7.77 0-10.89 7.77-11.55 25.99l23.1-.67c.45-20-4.88-25.32-11.55-25.32m104 97.08c-36.87 0-49.53-26-49.53-59.98 0-33.33 12.44-63.54 48.43-63.54 28.65 0 44.43 19.1 43.54 41.76l-33.32 4.67c0-11.55-3.56-20.22-11.56-20.22-8.66 0-12.88 10-12.88 34.88 0 23.77 3.78 37.32 14 37.32s13.99-14 13.99-24.21l31.99 2.44c2.44 21.77-8.44 46.88-44.65 46.88m57.3-2.9V4.23h32.44v24.22c0 13.32-3.11 32.65-6.44 48.2h5.33c3.55-27.99 12-37.32 27.99-37.32 29.55 0 29.55 31.1 29.55 49.1v71.3h-34.44v-66.2c0-12.21 0-25.1-8.88-25.1-10.22 0-11.33 16.44-11.33 34.44v56.87zm153.57 3.12c-42.2 0-51.98-27.1-48.2-50.2l31.1-3.34c-1.34 14.66 2.88 28.21 17.32 28.21 6.45 0 13.78-2.88 13.78-14.44 0-13.77-10.44-20-27.33-29.54-18.44-10.44-35.54-21.77-35.54-44.88 0-22 15.33-37.99 46.87-37.99 36.21 0 48.88 20.66 48.2 45.54l-30.87 4c1.55-12.88-5.78-23.77-17.77-23.77-8 0-13.11 4.89-13.11 12 0 10.66 11.33 16.66 22.21 22.21 19.78 10.22 41.1 23.78 41.1 51.54 0 21.33-12.22 40.66-47.76 40.66m104.68-.67c-23.77 0-37.76-13.33-37.76-42.2V68.41h-9.78V42.43h5.55c10.45 0 14.44-2.44 16-10.66l2.22-12.67h19.33v23.33H569v26.88h-17.55v43.54c0 11.33 4.66 16.89 10.88 16.89 2.45 0 4.67-.45 8-1.11v31.1c-4.66 1.33-8.44 2.44-14.44 2.44m58.72.67c-29.32 0-29.32-31.77-29.32-49.99V42.43h34.21v63.98c0 10.44 0 26.88 9.56 26.88 9.33 0 10.21-15.33 10.21-31.32V42.43h34.44v117.3h-25.1l-.9-35.1h-5.55c-3.1 27.54-10.88 38.2-27.55 38.2m112.92 0c-19.55 0-36.88-22.87-36.88-62.64 0-39.54 17.1-60.42 35.54-60.42 13.33 0 23.77 11.32 26.44 31.54l5.33.22c-5.55-22.66-7.77-35.76-7.77-43.54V4.22h34.2v155.5h-23.32l-1.55-31.32h-5.56c-2.66 16.44-8.88 34.44-26.43 34.44m11.33-28.44c10.44 0 11.33-24.44 11.33-32.21V99.3c0-2.89-.67-32.21-11.78-32.21-6.22 0-12.88 10-12.88 33.54 0 23.77 6.66 33.77 13.33 33.77m84.42-104.19c-14.22 0-20.66-5.1-20.66-14.88 0-10 6.66-15.33 20.66-15.33 14.21 0 20.43 5.55 20.43 15.1 0 10-6.44 15.11-20.43 15.11m-17.11 129.52V42.43h33.99v117.3zm97.09 3.1c-31.55 0-46.21-22.65-46.21-62.64 0-42.21 16.88-60.87 47.1-60.87 30.43 0 45.76 18.88 45.76 59.32 0 44.43-17.33 64.2-46.65 64.2m.22-25.33c8 0 12.22-8.66 12.22-35.32 0-26.21-4.45-37.1-12.44-37.1-6.89 0-11.78 8-11.78 37.1 0 26.44 3.78 35.32 12 35.32m64.56 22.22V13.1h34.22v57.53h28.65V13.11h34.22v146.62h-34.22v-61.1h-28.65v61.1zm121.06 0V13.1h45.99c11.11 0 50.87 1.55 50.87 44.87 0 17.77-7.11 32-31.32 37.1v2c20.66 3.11 23.77 17.77 27.77 34.66l6.44 27.99h-35.77l-4.22-23.77c-2.66-14.89-5.33-26.88-18.66-26.88h-6.89v50.65zm34.21-73.31h7.33c14.44 0 20.89-7.56 20.89-24.66 0-14.89-5.78-21.55-20-21.55h-8.22z"/></svg>