<svg xmlns="http://www.w3.org/2000/svg" fill="none" viewBox="0 0 1189 109">
    <path id="logo" fill="#0266f320" fill-opacity=".25"
          d="M29.99 159.729V40.876H0v-27.77h94.194v27.77H64.203v118.853zm109.006 3.11c-37.322 0-48.208-27.325-48.208-60.649 0-30.435 9.331-62.87 45.764-62.87 34.879 0 45.098 30.436 41.321 66.647l-53.095 1.555c.444 19.994 3.999 30.435 13.107 30.435 6.665 0 11.552-5.776 10.886-18.216l30.435 2.221c1.777 16.217-5.11 40.877-40.21 40.877m-2.666-97.304c-7.775 0-10.886 7.775-11.552 25.992l23.104-.666c.444-19.994-4.887-25.326-11.552-25.326m104.007 97.082c-36.878 0-49.541-25.993-49.541-59.982 0-33.324 12.441-63.537 48.43-63.537 28.658 0 44.431 19.106 43.542 41.766l-33.323 4.665c0-11.552-3.554-20.216-11.552-20.216-8.664 0-12.885 9.997-12.885 34.878 0 23.771 3.777 37.322 13.996 37.322S253 123.517 253 113.298l31.99 2.444c2.444 21.771-8.442 46.875-44.653 46.875m57.307-2.888V4.22h32.435v24.215c0 13.33-3.111 32.657-6.443 48.208h5.332c3.554-27.992 11.996-37.322 27.991-37.322 29.547 0 29.547 31.101 29.547 49.096v71.312h-34.434V93.526c0-12.218 0-25.103-8.886-25.103-10.219 0-11.33 16.44-11.33 34.434v56.872zm153.566 3.11c-42.209 0-51.984-27.103-48.207-50.207l31.101-3.333c-1.333 14.663 2.888 28.214 17.328 28.214 6.443 0 13.774-2.888 13.774-14.44 0-13.774-10.441-19.994-27.325-29.547-18.439-10.44-35.545-21.77-35.545-44.875 0-21.993 15.329-37.988 46.875-37.988 36.211 0 48.874 20.66 48.207 45.541l-30.879 4c1.555-12.886-5.776-23.771-17.772-23.771-7.998 0-13.108 4.887-13.108 11.996 0 10.663 11.33 16.662 22.216 22.215 19.772 10.22 41.099 23.771 41.099 51.54 0 21.327-12.219 40.655-47.764 40.655m104.682-.667c-23.771 0-37.766-13.329-37.766-42.209v-51.54h-9.775V42.43h5.554c10.441 0 14.44-2.444 15.995-10.664l2.221-12.662h19.328V42.43h17.55v26.88h-17.55v43.543c0 11.33 4.665 16.884 10.885 16.884 2.444 0 4.666-.445 7.998-1.111v31.102c-4.665 1.332-8.442 2.443-14.44 2.443m58.723.667c-29.324 0-29.324-31.768-29.324-49.985V42.431h34.212v63.98c0 10.442 0 26.881 9.553 26.881 9.33 0 10.219-15.329 10.219-31.324V42.431h34.434v117.298h-25.104l-.888-35.101h-5.554c-3.11 27.547-10.886 38.211-27.548 38.211m112.912 0c-19.549 0-36.877-22.882-36.877-62.648 0-39.543 17.106-60.426 35.544-60.426 13.33 0 23.771 11.33 26.437 31.546l5.332.222c-5.554-22.66-7.776-35.767-7.776-43.542V4.22h34.212v155.508h-23.326l-1.555-31.324h-5.554c-2.666 16.439-8.886 34.434-26.437 34.434m11.33-28.436c10.442 0 11.33-24.437 11.33-32.213v-2.888c0-2.888-.666-32.212-11.774-32.212-6.22 0-12.885 9.997-12.885 33.545 0 23.771 6.665 33.768 13.329 33.768m84.419-104.19c-14.218 0-20.66-5.11-20.66-14.885 0-9.997 6.664-15.329 20.66-15.329 14.218 0 20.438 5.554 20.438 15.107 0 9.997-6.442 15.106-20.438 15.106M806.17 159.728V42.431h33.99v117.298zm97.087 3.11c-31.546 0-46.208-22.66-46.208-62.648 0-42.21 16.884-60.87 47.097-60.87 30.435 0 45.764 18.883 45.764 59.315 0 44.431-17.328 64.203-46.653 64.203m.222-25.326c7.998 0 12.219-8.664 12.219-35.323 0-26.214-4.443-37.1-12.441-37.1-6.887 0-11.774 7.998-11.774 37.1 0 26.437 3.777 35.323 11.996 35.323m64.566 22.216V13.106h34.215v57.538h28.65V13.106h34.22V159.73h-34.22V98.636h-28.65v61.093zm121.055 0V13.106h45.99c11.11 0 50.87 1.555 50.87 44.876 0 17.772-7.11 31.99-31.32 37.1v1.999c20.66 3.11 23.77 17.772 27.77 34.656l6.44 27.992h-35.77l-4.22-23.771c-2.66-14.884-5.33-26.881-18.66-26.881h-6.89v50.652zm34.21-73.312h7.33c14.44 0 20.89-7.553 20.89-24.659 0-14.884-5.78-21.549-20-21.549h-8.22z"/>
</svg>