<svg width="33" height="45" viewBox="0 0 33 45" fill="none" xmlns="http://www.w3.org/2000/svg">
<path d="M9.68817 34.669C10.0732 34.4435 10.4939 34.2235 10.9504 34.0145C10.5648 34.5894 10.1518 35.1456 9.71292 35.681C8.94292 36.6078 8.34342 37.1001 7.96667 37.2541C7.93539 37.2673 7.90323 37.2783 7.87042 37.2871C7.84297 37.249 7.81904 37.2085 7.79892 37.1661C7.64492 36.8635 7.65042 36.572 7.90892 36.176C8.20042 35.7223 8.78617 35.2025 9.68817 34.669ZM16.4394 30.1396C16.1122 30.2084 15.7877 30.2771 15.4604 30.3541C15.9451 29.4044 16.4036 28.4415 16.8354 27.4666C17.2701 28.2721 17.738 29.0593 18.2379 29.8261C17.6412 29.9141 17.0389 30.0186 16.4394 30.1396ZM23.3832 32.7219C22.956 32.3774 22.5561 32.0005 22.1869 31.5944C22.8139 31.6082 23.3804 31.6549 23.8699 31.7429C24.7417 31.8997 25.1514 32.1472 25.2944 32.3177C25.3395 32.3653 25.365 32.4281 25.3659 32.4937C25.3563 32.6877 25.2997 32.8764 25.2009 33.0437C25.1455 33.1777 25.0564 33.2951 24.9424 33.3847C24.8857 33.4195 24.8188 33.4341 24.7527 33.426C24.5052 33.4177 24.0432 33.2445 23.3832 32.7219ZM17.2644 19.6702C17.1544 20.3412 16.9674 21.1112 16.7144 21.95C16.6212 21.6359 16.5396 21.3185 16.4697 20.9984C16.2607 20.0277 16.2304 19.2659 16.3432 18.7379C16.4477 18.2511 16.6457 18.0559 16.8822 17.9596C17.009 17.9037 17.1433 17.8666 17.2809 17.8496C17.3167 17.9321 17.3579 18.1026 17.3689 18.3941C17.3827 18.7296 17.3497 19.1559 17.2644 19.6729V19.6702Z" fill="#E00017"/>
<path fill-rule="evenodd" clip-rule="evenodd" d="M5.5 0.5H20.0557C20.785 0.500156 21.4844 0.789996 22 1.30577L32.1942 11.5003C32.71 12.0159 32.9998 12.7152 33 13.4445V39.0009C33 40.4596 32.4205 41.8586 31.3891 42.8901C30.3576 43.9215 28.9587 44.501 27.5 44.501H5.5C4.04131 44.501 2.64236 43.9215 1.61091 42.8901C0.579462 41.8586 0 40.4596 0 39.0009V6.00013C0 4.5414 0.579462 3.14242 1.61091 2.11095C2.64236 1.07948 4.04131 0.5 5.5 0.5ZM20.625 4.62509V10.1252C20.625 10.8546 20.9147 11.5541 21.4305 12.0698C21.9462 12.5855 22.6457 12.8753 23.375 12.8753H28.875L20.625 4.62509ZM5.95375 38.0879C6.20125 38.5829 6.58625 39.0311 7.15825 39.2401C7.7275 39.4464 8.29125 39.3501 8.75325 39.1576C9.62775 38.8001 10.4995 37.9586 11.2998 36.9961C12.2155 35.8933 13.178 34.4468 14.1075 32.8435C15.902 32.3116 17.7396 31.938 19.5992 31.727C20.4242 32.7802 21.2767 33.6878 22.1017 34.3395C22.8717 34.9445 23.76 35.4478 24.6702 35.4863C25.1661 35.5109 25.657 35.378 26.0728 35.1068C26.499 34.829 26.8152 34.4275 27.0462 33.9628C27.2937 33.465 27.445 32.9452 27.4257 32.4145C27.4083 31.8912 27.2145 31.3892 26.8757 30.99C26.2542 30.2474 25.2367 29.8899 24.2357 29.7112C23.0215 29.5231 21.7894 29.4769 20.5645 29.5737C19.5301 28.1113 18.6282 26.5596 17.8695 24.9371C18.557 23.122 19.0712 21.406 19.2995 20.0034C19.3985 19.4039 19.4508 18.8319 19.4315 18.3149C19.4281 17.8017 19.3087 17.2959 19.0823 16.8354C18.9518 16.5812 18.7664 16.3593 18.5395 16.1856C18.3126 16.012 18.0499 15.8911 17.7705 15.8316C17.215 15.7133 16.643 15.8316 16.1178 16.0434C15.081 16.4559 14.5338 17.3359 14.3275 18.3067C14.1267 19.2417 14.2175 20.3307 14.454 21.4307C14.696 22.5473 15.1085 23.7628 15.6365 24.9921C14.7919 27.0926 13.8165 29.138 12.716 31.1165C11.2988 31.5624 9.93267 32.1569 8.6405 32.8902C7.623 33.4953 6.71825 34.2103 6.17375 35.0545C5.59625 35.9511 5.4175 37.0181 5.95375 38.0879Z" fill="#E00017"/>
</svg>
