<svg width="36" height="37" viewBox="0 0 36 37" fill="none" xmlns="http://www.w3.org/2000/svg">
<path d="M31.89 17.2442H26.1647V20.1744H31.89V17.2442ZM31.89 15.5698H26.1647V12.6395H31.89V15.5698ZM31.89 29.3837H26.1647V26.4535H31.89V29.3837ZM31.89 24.7791H26.1647V21.8489H31.89V24.7791ZM31.89 10.9651H26.1647V8.03486H31.89V10.9652V10.9651ZM35.8445 5.18835C35.681 4.31763 34.6586 4.29676 33.9756 4.26739H21.2573V0.5H18.7177L0 3.84887V33.147L18.8281 36.5H21.2573V33.1637H33.5381C34.2292 33.1344 34.9899 33.1847 35.591 32.7619C36.0122 32.1424 35.9714 31.3553 36 30.6438L35.9836 8.85117C35.9632 7.63304 36.094 6.38972 35.8445 5.18835ZM14.9962 11.7563C13.8675 14.1004 12.7184 16.4279 11.5938 18.7721C12.7061 21.0535 13.8021 23.3432 14.894 25.633C13.9657 25.587 13.0373 25.5284 12.1132 25.4614C11.422 23.741 10.6163 22.0665 10.0766 20.2874C9.57354 21.966 8.90697 23.5819 8.29765 25.2186C7.39793 25.1684 6.49821 25.114 5.59856 25.0596C6.54729 22.9162 7.55747 20.8024 8.47758 18.6465C7.39385 16.5535 6.37966 14.4311 5.32863 12.3256C6.2242 12.2879 7.11984 12.2502 8.01541 12.2377C8.65343 13.9037 9.44676 15.507 10.0029 17.2065C10.5019 15.3814 11.3484 13.6944 12.0436 11.9489C13.0292 11.8776 14.0106 11.8148 14.9962 11.7563ZM34.0495 31.1756H21.2573V29.3837H24.5289V26.4535H21.2573V24.7791H24.5289V21.8489H21.2573V20.1744H24.5289V17.2442H21.2573V15.5698H24.5289V12.6395H21.2573V10.9651H24.5289V8.03486H21.2573V6.09902H34.0495V31.1756Z" fill="#567900"/>
</svg>
