<svg width="64" height="47" viewBox="0 0 64 47" fill="none" xmlns="http://www.w3.org/2000/svg">
    <path d="M48.687 46.9868C56.8711 46.9868 63.5056 40.3504 63.5056 32.1634C63.5056 23.9792 56.8711 17.3429 48.687 17.3429C48.687 17.3429 48.7587 11.8368 53.2318 3.91197C53.7287 2.32408 52.843 0.633118 51.2541 0.139088C50.1268 -0.215527 48.9405 0.129166 48.1745 0.931545C37.8889 12.1815 33.8628 25.4219 33.8628 32.1634C33.8628 40.3504 40.4971 46.9868 48.687 46.9868Z"
          fill="#0266F3" fill-opacity="0.13"/>
    <path d="M14.8237 46.9868C23.0079 46.9868 29.6423 40.3503 29.6423 32.1634C29.6423 23.9792 23.0079 17.3429 14.8237 17.3429C14.8237 17.3429 14.8954 11.8368 19.3686 3.91197C19.8654 2.32408 18.9796 0.633118 17.3908 0.139088C16.2635 -0.215527 15.0772 0.129166 14.3113 0.931545C4.02563 12.1815 -0.000646591 25.4219 -0.000646591 32.1634C-0.000646591 40.3504 6.63383 46.9868 14.8237 46.9868Z"
          fill="#0266F3" fill-opacity="0.13"/>
</svg>
