<svg preserveAspectRatio="xMidYMid meet" class="footer-logo-svg" xmlns="http://www.w3.org/2000/svg" fill="none"
     viewBox="0 170 1189 190">

    <g fill="#0266f3" fill-opacity=".25" id="footer-logo-container">
        <path id="footer-logo"
              d="M29.99 159.729V40.876H0v-27.77h94.194v27.77H64.203v118.853zm109.006 3.11c-37.322 0-48.208-27.325-48.208-60.649 0-30.435 9.331-62.87 45.764-62.87 34.879 0 45.098 30.436 41.321 66.647l-53.095 1.555c.444 19.994 3.999 30.435 13.107 30.435 6.665 0 11.552-5.776 10.886-18.216l30.435 2.221c1.777 16.217-5.11 40.877-40.21 40.877m-2.666-97.304c-7.775 0-10.886 7.775-11.552 25.992l23.104-.666c.444-19.994-4.887-25.326-11.552-25.326m104.007 97.082c-36.878 0-49.541-25.993-49.541-59.982 0-33.324 12.441-63.537 48.43-63.537 28.658 0 44.431 19.106 43.542 41.766l-33.323 4.665c0-11.552-3.554-20.216-11.552-20.216-8.664 0-12.885 9.997-12.885 34.878 0 23.771 3.777 37.322 13.996 37.322S253 123.517 253 113.298l31.99 2.444c2.444 21.771-8.442 46.875-44.653 46.875m57.307-2.888V4.22h32.435v24.215c0 13.33-3.111 32.657-6.443 48.208h5.332c3.554-27.992 11.996-37.322 27.991-37.322 29.547 0 29.547 31.101 29.547 49.096v71.312h-34.434V93.526c0-12.218 0-25.103-8.886-25.103-10.219 0-11.33 16.44-11.33 34.434v56.872zm153.566 3.11c-42.209 0-51.984-27.103-48.207-50.207l31.101-3.333c-1.333 14.663 2.888 28.214 17.328 28.214 6.443 0 13.774-2.888 13.774-14.44 0-13.774-10.441-19.994-27.325-29.547-18.439-10.44-35.545-21.77-35.545-44.875 0-21.993 15.329-37.988 46.875-37.988 36.211 0 48.874 20.66 48.207 45.541l-30.879 4c1.555-12.886-5.776-23.771-17.772-23.771-7.998 0-13.108 4.887-13.108 11.996 0 10.663 11.33 16.662 22.216 22.215 19.772 10.22 41.099 23.771 41.099 51.54 0 21.327-12.219 40.655-47.764 40.655m104.682-.667c-23.771 0-37.766-13.329-37.766-42.209v-51.54h-9.775V42.43h5.554c10.441 0 14.44-2.444 15.995-10.664l2.221-12.662h19.328V42.43h17.55v26.88h-17.55v43.543c0 11.33 4.665 16.884 10.885 16.884 2.444 0 4.666-.445 7.998-1.111v31.102c-4.665 1.332-8.442 2.443-14.44 2.443m58.723.667c-29.324 0-29.324-31.768-29.324-49.985V42.431h34.212v63.98c0 10.442 0 26.881 9.553 26.881 9.33 0 10.219-15.329 10.219-31.324V42.431h34.434v117.298h-25.104l-.888-35.101h-5.554c-3.11 27.547-10.886 38.211-27.548 38.211m112.912 0c-19.549 0-36.877-22.882-36.877-62.648 0-39.543 17.106-60.426 35.544-60.426 13.33 0 23.771 11.33 26.437 31.546l5.332.222c-5.554-22.66-7.776-35.767-7.776-43.542V4.22h34.212v155.508h-23.326l-1.555-31.324h-5.554c-2.666 16.439-8.886 34.434-26.437 34.434m11.33-28.436c10.442 0 11.33-24.437 11.33-32.213v-2.888c0-2.888-.666-32.212-11.774-32.212-6.22 0-12.885 9.997-12.885 33.545 0 23.771 6.665 33.768 13.329 33.768m84.419-104.19c-14.218 0-20.66-5.11-20.66-14.885 0-9.997 6.664-15.329 20.66-15.329 14.218 0 20.438 5.554 20.438 15.107 0 9.997-6.442 15.106-20.438 15.106M806.17 159.728V42.431h33.99v117.298zm97.087 3.11c-31.546 0-46.208-22.66-46.208-62.648 0-42.21 16.884-60.87 47.097-60.87 30.435 0 45.764 18.883 45.764 59.315 0 44.431-17.328 64.203-46.653 64.203m.222-25.326c7.998 0 12.219-8.664 12.219-35.323 0-26.214-4.443-37.1-12.441-37.1-6.887 0-11.774 7.998-11.774 37.1 0 26.437 3.777 35.323 11.996 35.323m64.566 22.216V13.106h34.215v57.538h28.65V13.106h34.22V159.73h-34.22V98.636h-28.65v61.093zm121.055 0V13.106h45.99c11.11 0 50.87 1.555 50.87 44.876 0 17.772-7.11 31.99-31.32 37.1v1.999c20.66 3.11 23.77 17.772 27.77 34.656l6.44 27.992h-35.77l-4.22-23.771c-2.66-14.884-5.33-26.881-18.66-26.881h-6.89v50.652zm34.21-73.312h7.33c14.44 0 20.89-7.553 20.89-24.659 0-14.884-5.78-21.549-20-21.549h-8.22z"/>
    </g>
    <g fill="#0266f3" fill-opacity=".25" id="lagos-city">
        <path d="M463.6 173.6c-.9 2.5-.7 4.1.4 2.4.6-.9 1-1 1-.3 0 .6-.4 1.4-1 1.8-.5.3-.1 2 1 4 1.4 2.5 1.5 3.3.5 2.9-.8-.3-1.6-1.5-1.8-2.7-.3-1.2-.4-.8-.4 1 .1 1.8.6 3.3 1.1 3.3.6 0 .5.5-.2 1.2-1.5 1.5-1.6 4.2 0 3.2q1.05-.75.3.6c-.4.6-.9 2.6-1 4.4-.1 1.7 0 2.3.2 1.3.2-.9.9-1.7 1.4-1.7s.9-.8 1-1.8c0-.9.3-1.2.5-.6.3.7-.4 2.7-1.4 4.5-1.8 3.3-1.8 3.4.1 7 2 3.8 1.7 7.4-.5 6.7-1.5-.5-4.8 2.2-4.8 3.9 0 .6-1 1.4-2.2 1.6l-2.3.4 2.3.8c3 1 3.2 6.5.2 6.5-1.5 0-2 .7-2 2.6 0 1.7.6 2.8 2 3.1 1.1.3 2 1.2 2 2 0 1.9-20.4 1.5-20.6-.5-.1-.6-.2-1.7-.3-2.2 0-.6-.8-1-1.6-1-1.3 0-1.5 3.6-1.5 26.5V281h-13v-4.1c0-3.3-.3-4-1.7-3.7-1.3.2-1.9 1.4-2.1 4.1l-.3 3.7H399l-.2 18.7c-.3 18.6-.3 18.8-2.5 19.1l-2.3.3-.2-45.8c-.1-25.2-.3-43.1-.5-39.8-.3 4.4-1 6.6-2.5 8.2-2.2 2.4-4.8 3.1-4.8 1.3s-3.5-1-11 2.5c-10 4.8-16.7 10-20.1 15.4l-2.9 4.5v47.5l-3.2.5c-1.8.3-9.1.8-16.3 1.1-7.1.3-15 .8-17.5 1-21.6 2.1-28.3 2.5-29 1.8-.7-.8-7.2-27.3-9.1-37.3-.5-3-.9-10.2-.9-16 .1-5.8.1-12.5.1-14.9-.1-4.3-.1-4.4-2.1-2.6-1.2 1.1-2 3.1-2 5.2 0 1.8-.4 3.3-1 3.3-.5 0-1-2.4-1-5.3 0-4-.5-5.8-1.9-7.1-1.8-1.7-1.9-1.2-2.4 18.1-.3 10.9-1 21.6-1.6 23.8s-2.5 9.8-4.1 17c-5.3 22.3-4.4 20.3-9.8 21-8 1.2-32.8 5.4-35.7 6.1l-2.7.7.4-43.2.3-43.1h-4.2c-3.6 0-4.3-.3-4.3-1.9 0-2.2-3.8-2.9-11.7-2.2-3.4.2-4.3.7-4.3 2.1 0 1.5-.9 2-4.2 2.2l-4.3.3.2 6.1c.1 4.6-.2 6.1-1.3 6.1-.8 0-1.4-1-1.4-2.4 0-2.1-.4-2.3-5-2.3-2.7 0-5.3-.1-5.7-.3-.5-.1-.9 1-1.1 2.5l-.3 2.8H143v31.5c0 20.3-.4 31.5-1 31.5-.5 0-1-.5-1-1 0-.6-2.4-1-5.4-1h-5.5l-3.3-5.5c-1.8-3-3.5-5.5-3.8-5.5s-2 2.5-3.8 5.5l-3.3 5.5h-5.3c-3.6 0-5.6.5-5.9 1.3s-3.3 2-6.6 2.7c-5.9 1.2-7.2 2.2-5.1 3.5.6.3 1 4.2 1 8.5v7.8l-13.4.4c-13.3.3-13.5.3-16.4 3.2-1.7 1.5-3.2 3.7-3.5 4.7-.5 1.9 9.5 1.9 539.3 1.9s539.8 0 539.3-1.9c-.3-1-1.8-3.2-3.5-4.7-2.8-2.8-3.4-2.9-14.4-3.2l-11.4-.4v-19.1c-.1-15.3-.3-18.9-1.3-17.6-1.1 1.5-1.8 1.4-7.2-.6-5.9-2.2-6-2.3-6.3-6.4-.3-4.4-2.2-5.8-2.2-1.6 0 2.3-.2 2.4-2.6 1.3l-2.6-1.2.2-14.1c.3-16.1.3-16.5-.9-14.6-.6.9-3 1.6-6 1.7-4 .3-5.1 0-5.4-1.4-.3-.9-.5 5.1-.6 13.4-.1 15.1-.1 15.1-2.6 16.2-2.3 1.1-2.5 1-2.5-1.4 0-1.6-.4-2.3-1.1-1.8-.6.3-.9 2.1-.7 4 .4 3.3.3 3.4-6.2 5.8-5.2 1.9-6.6 2.1-6.8 1-.2-.8-.8-1.4-1.3-1.4s-.9 5.6-.9 12.8v12.8l-7.5-1.1c-4.2-.7-7.7-1.4-7.9-1.6-.3-.2.6-4.7 1.9-9.9 2-8.6 2.1-9.5.6-9.8-2.2-.5-7.1-5.3-7.1-6.9 0-.7-.9-1.3-1.9-1.3-2.7 0-8.1-3.2-8.1-4.9 0-.7-.6-1.1-1.5-.7-2.2.8-8.5-2.2-8.5-4 0-1.3-.3-1.4-1.4-.5-2 1.6-7.8.2-8.4-2.1-.4-1.6-.7-1.7-2.1-.5-1 .9-3 1.3-5.3 1-3-.4-3.8-.9-3.9-2.7v-2.1l-1.6 2.2c-1.3 1.9-2.5 2.3-6.9 2.3-4.3 0-5.6-.4-6.8-2.2-1.6-2.2-1.6-2.2-1.6-.2 0 1.7-.8 2.2-4.2 2.7-3.1.4-4.5.2-5.3-1-1.1-1.4-1.3-1.3-1.8.6-.3 1.1-1.1 2.1-1.7 2.1-.9 0-1.1-4.8-.8-20l.4-19.9-7.1-.3c-6.4-.3-7-.5-7.3-2.6-.3-1.9-.9-2.2-5.3-2.2-4.6 0-4.9.2-4.9 2.5 0 2.4-.2 2.5-7.2 2.5h-7.3l.3 39.4.3 39.3-2.3.7c-1.3.3-3.3.6-4.6.6h-2.3l.3-40 .3-40h-9.2c-9.3 0-9.3 0-9.3-2.5 0-2.4-.2-2.5-7-2.5s-7 .1-7 2.5c0 2.5 0 2.5-9.2 2.5h-9.3l.3 46.5.3 46.5h-9.2l.3-46.5.3-46.5h-7.2c-7.1 0-7.3-.1-7.3-2.5 0-2.3-.3-2.5-4.9-2.5-4.4 0-5 .3-5.3 2.2-.3 2.1-.9 2.3-7.6 2.6l-7.3.3.7 7.4c.6 6.6.5 7.5-1 7.5-1.2 0-1.6-1-1.6-4 0-2.3-.6-5.3-1.4-6.8s-1.9-7.4-2.5-13.2-1.4-12.5-1.9-15c-.7-4.2-.8-3.8-2 6.5-.7 6-1.7 13.5-2.3 16.5s-1.3 7.7-1.7 10.5c-.7 4.7-.9 5-3.9 5.3-2.1.2-3.3.9-3.3 1.8 0 1.1-1.5 1.4-6 1.4h-6.1l.1 31.2c.2 29.7.1 31.3-1.7 31.3-1.7 0-1.8-1.8-2.1-34.8L779 259h-2.5c-2.4 0-2.5-.3-2.5-6v-6h-7c-4 0-7-.4-7-1 0-1.3-5.7-1.3-6.5 0-.3.5-3.7 1-7.6 1H739v6c0 5.7-.1 6-2.5 6-2.1 0-2.5.5-2.5 3.1v3l-2.7-1.9c-6.2-4.3-13.2-3.6-19.5 2.1l-3.8 3.4V334h-3.5c-3.1 0-3.5-.3-3.5-2.5 0-1.6.6-2.5 1.5-2.5.8 0 1.5-.5 1.5-1 0-.6-.4-1-1-1-.7 0-1-17.1-1.1-49.3 0-46.2-.5-58.6-2.3-60.4-.4-.4-1.1-.1-1.5.6-.7 1.1-1 1.1-1.5 0s-.7-1.1-1.2-.1c-.9 1.9-2.4.4-2.4-2.4V213h-29.7l-.6 3c-.6 2.9-2.7 4.3-2.7 1.7 0-.8-.4-.7-1 .3-.8 1.2-1.2 1.3-1.9.2-1.1-1.7-2.1.6-2.1 4.8 0 1.6-.4 3.2-1 3.5-.6.4-1 17.8-1 49.1 0 42.4-.2 48.4-1.5 48.4s-1.5-3.7-1.5-27.3v-27.3l-6.9-6.8c-3.8-3.7-7.1-6.4-7.3-6-.3.5-1.3 3.2-2.2 6-1.2 3.5-2.4 5.5-4.2 6.2-1.3.7-2.7 1.9-3 2.7-.5 1.1-2.2 1.5-6.5 1.5-4.6 0-5.9.3-5.9 1.5 0 .8-.9 1.5-2 1.5-2 0-2 .7-2 28v28h-5V202h-38l-.2 24.2-.3 24.3H563c-3.4 0-3.5-.1-3.5-3.8 0-4.6-.8-4.9-12-4.5l-8 .3-.3 4.2-.3 4.3h-6c-5.7 0-6 .1-5.9 2.2.1 1.3.2 15.2.1 31-.1 24.9-.3 28.8-1.6 28.8s-1.5-2.7-1.5-18c0-11.3-.4-18-1-18s-1-2.9-1-6.7c0-6.1-.1-6.5-1.4-4.7-1.5 1.9-1.6 1.8-7-1.1-4.3-2.2-5.6-3.5-5.6-5.2 0-1.4-.6-2.3-1.5-2.3s-1.5.9-1.5 2.3c0 1.7-1.3 3-5.5 5.2-5.4 2.9-5.4 3-6.9 1-1.4-1.8-1.5-1.5-1.6 4.7 0 3.8-.4 6.8-1 6.8s-1.1 9.4-1.3 24.7c-.1 13.7-.3 2.4-.5-25-.2-43.9-.4-49.7-1.7-49.7-.9 0-1.8.7-2.1 1.5-.4 1-2 1.5-4.5 1.5-2.8 0-3.9-.4-3.9-1.5 0-.8-.4-1.5-1-1.5-.5 0-1-.6-1-1.4 0-.7-.9-1.6-2-1.9-1.4-.3-2-1.4-2-3.1 0-1.9.5-2.6 2-2.6 1.1 0 2-.4 2-.9s-.9-1.1-2-1.4-2-1.2-2-2.1-.4-1.6-1-1.6-1-6.7-1-18.1c0-16.9-.7-21.9-2.9-21.9-.5 0-1.2.7-1.5 1.6m3.1 15c-.3.3-1.2.4-1.9.1-.8-.3-.5-.6.6-.6 1.1-.1 1.7.2 1.3.5m16.1 46.1c-1 .2-2.8.2-4 0-1.3-.2-.5-.4 1.7-.4 2.2-.1 3.2.1 2.3.4m-38.5 4c-.7.2-2.1.2-3 0-1-.3-.4-.5 1.2-.5 1.7 0 2.4.2 1.8.5m5 0c-.7.2-1.9.2-2.5 0-.7-.3-.2-.5 1.2-.5s1.9.2 1.3.5m6 0c-.7.2-1.9.2-2.5 0-.7-.3-.2-.5 1.2-.5s1.9.2 1.3.5m5 0c-.7.2-1.9.2-2.5 0-.7-.3-.2-.5 1.2-.5s1.9.2 1.3.5m6 0c-.7.2-1.9.2-2.5 0-.7-.3-.2-.5 1.2-.5s1.9.2 1.3.5m16.5 0c-1 .2-2.8.2-4 0-1.3-.2-.5-.4 1.7-.4 2.2-.1 3.2.1 2.3.4m-38.5 4c-.7.2-2.1.2-3 0-1-.3-.4-.5 1.2-.5 1.7 0 2.4.2 1.8.5m5 0c-.7.2-1.9.2-2.5 0-.7-.3-.2-.5 1.2-.5s1.9.2 1.3.5m6 0c-.7.2-1.9.2-2.5 0-.7-.3-.2-.5 1.2-.5s1.9.2 1.3.5m6 0c-.7.2-2.1.2-3 0-1-.3-.4-.5 1.2-.5 1.7 0 2.4.2 1.8.5m5 0c-.7.2-1.9.2-2.5 0-.7-.3-.2-.5 1.2-.5s1.9.2 1.3.5m16.5 0c-1 .2-2.8.2-4 0-1.3-.2-.5-.4 1.7-.4 2.2-.1 3.2.1 2.3.4m-38.5 4c-.7.2-2.1.2-3 0-1-.3-.4-.5 1.2-.5 1.7 0 2.4.2 1.8.5m5 0c-.7.2-1.9.2-2.5 0-.7-.3-.2-.5 1.2-.5s1.9.2 1.3.5m6 0c-.7.2-1.9.2-2.5 0-.7-.3-.2-.5 1.2-.5s1.9.2 1.3.5m6 0c-.7.2-2.1.2-3 0-1-.3-.4-.5 1.2-.5 1.7 0 2.4.2 1.8.5m5 0c-.7.2-1.9.2-2.5 0-.7-.3-.2-.5 1.2-.5s1.9.2 1.3.5m16.5 0c-1 .2-2.8.2-4 0-1.3-.2-.5-.4 1.7-.4 2.2-.1 3.2.1 2.3.4m-38.5 4c-.7.2-2.1.2-3 0-1-.3-.4-.5 1.2-.5 1.7 0 2.4.2 1.8.5m5 0c-.7.2-1.9.2-2.5 0-.7-.3-.2-.5 1.2-.5s1.9.2 1.3.5m6 0c-.7.2-1.9.2-2.5 0-.7-.3-.2-.5 1.2-.5s1.9.2 1.3.5m6 0c-.7.2-2.1.2-3 0-1-.3-.4-.5 1.2-.5 1.7 0 2.4.2 1.8.5m5 0c-.7.2-1.9.2-2.5 0-.7-.3-.2-.5 1.2-.5s1.9.2 1.3.5m16.5 0c-1 .2-2.8.2-4 0-1.3-.2-.5-.4 1.7-.4 2.2-.1 3.2.1 2.3.4M185 253c0 1.1-.4 2-1 2-.5 0-1-.9-1-2s.5-2 1-2c.6 0 1 .9 1 2m3.8 36.7c-.1 21.4-.3 35.9-.5 32.3-.7-15.5-.7-71 0-71 .4 0 .6 17.4.5 38.7m4.2-.2c0 25-.4 38.5-1 38.5s-1-13.5-1-38.5.4-38.5 1-38.5 1 13.5 1 38.5m4 .6c0 25.7-.3 38.8-1 38.4-.6-.4-1-14.5-1-39.1 0-24.9.4-38.4 1-38.4s1 13.7 1 39.1m4 0c0 25.7-.3 38.8-1 38.4-.6-.4-1-14.5-1-39.1 0-24.9.4-38.4 1-38.4s1 13.7 1 39.1m4 0c0 25.7-.3 38.8-1 38.4-.6-.4-1-14.5-1-39.1 0-24.9.4-38.4 1-38.4s1 13.7 1 39.1m4-.6c0 25-.4 38.5-1 38.5s-1-13.5-1-38.5.4-38.5 1-38.5 1 13.5 1 38.5m235.3-34.8c-.7.2-2.1.2-3 0-1-.3-.4-.5 1.2-.5 1.7 0 2.4.2 1.8.5m5 0c-.7.2-1.9.2-2.5 0-.7-.3-.2-.5 1.2-.5s1.9.2 1.3.5m6 0c-.7.2-1.9.2-2.5 0-.7-.3-.2-.5 1.2-.5s1.9.2 1.3.5m6 0c-.7.2-2.1.2-3 0-1-.3-.4-.5 1.2-.5 1.7 0 2.4.2 1.8.5m5 0c-.7.2-1.9.2-2.5 0-.7-.3-.2-.5 1.2-.5s1.9.2 1.3.5m16.5 0c-1 .2-2.8.2-4 0-1.3-.2-.5-.4 1.7-.4 2.2-.1 3.2.1 2.3.4m361.9 2.9c-.3.3-1.2.4-1.9.1-.8-.3-.5-.6.6-.6 1.1-.1 1.7.2 1.3.5m35.6.1c-.7.2-1.9.2-2.5 0-.7-.3-.2-.5 1.2-.5s1.9.2 1.3.5m4.4-.1c-.3.3-1.2.4-1.9.1-.8-.3-.5-.6.6-.6 1.1-.1 1.7.2 1.3.5m5.6.1c-.7.2-1.9.2-2.5 0-.7-.3-.2-.5 1.2-.5s1.9.2 1.3.5m5.4-.1c-.3.3-1.2.4-1.9.1-.8-.3-.5-.6.6-.6 1.1-.1 1.7.2 1.3.5m4.6.1c-.7.2-1.9.2-2.5 0-.7-.3-.2-.5 1.2-.5s1.9.2 1.3.5M272 259.5c0 .8-.4 1.5-1 1.5-.5 0-1-.7-1-1.5s.5-1.5 1-1.5c.6 0 1 .7 1 1.5m172.3-.8c-.7.2-1.9.2-2.5 0-.7-.3-.2-.5 1.2-.5s1.9.2 1.3.5m5 0c-.7.2-1.9.2-2.5 0-.7-.3-.2-.5 1.2-.5s1.9.2 1.3.5m6 0c-.7.2-1.9.2-2.5 0-.7-.3-.2-.5 1.2-.5s1.9.2 1.3.5m5 0c-.7.2-1.9.2-2.5 0-.7-.3-.2-.5 1.2-.5s1.9.2 1.3.5m6 0c-.7.2-1.9.2-2.5 0-.7-.3-.2-.5 1.2-.5s1.9.2 1.3.5m16.5 0c-1 .2-2.8.2-4 0-1.3-.2-.5-.4 1.7-.4 2.2-.1 3.2.1 2.3.4m349 2c-1 .2-2.6.2-3.5 0-1-.3-.2-.5 1.7-.5s2.7.2 1.8.5m12.9-.1c-.3.3-1.2.4-1.9.1-.8-.3-.5-.6.6-.6 1.1-.1 1.7.2 1.3.5m35.6.1c-.7.2-1.9.2-2.5 0-.7-.3-.2-.5 1.2-.5s1.9.2 1.3.5m4.4-.1c-.3.3-1.2.4-1.9.1-.8-.3-.5-.6.6-.6 1.1-.1 1.7.2 1.3.5m6 0c-.3.3-1.2.4-1.9.1-.8-.3-.5-.6.6-.6 1.1-.1 1.7.2 1.3.5m5 0c-.3.3-1.2.4-1.9.1-.8-.3-.5-.6.6-.6 1.1-.1 1.7.2 1.3.5m4.6.1c-.7.2-1.9.2-2.5 0-.7-.3-.2-.5 1.2-.5s1.9.2 1.3.5m35.4-.1c-.3.3-1.2.4-1.9.1-.8-.3-.5-.6.6-.6 1.1-.1 1.7.2 1.3.5m14.1.1c-1 .2-2.6.2-3.5 0-1-.3-.2-.5 1.7-.5s2.7.2 1.8.5m-505.5 2c-.7.2-1.9.2-2.5 0-.7-.3-.2-.5 1.2-.5s1.9.2 1.3.5m5 0c-.7.2-1.9.2-2.5 0-.7-.3-.2-.5 1.2-.5s1.9.2 1.3.5m6 0c-.7.2-1.9.2-2.5 0-.7-.3-.2-.5 1.2-.5s1.9.2 1.3.5m5 0c-.7.2-1.9.2-2.5 0-.7-.3-.2-.5 1.2-.5s1.9.2 1.3.5m6 0c-.7.2-1.9.2-2.5 0-.7-.3-.2-.5 1.2-.5s1.9.2 1.3.5m16.5 0c-1 .2-2.8.2-4 0-1.3-.2-.5-.4 1.7-.4 2.2-.1 3.2.1 2.3.4m401.7 1.3c.3.5-.1 1-1 1s-1.3-.5-1-1c.3-.6.8-1 1-1s.7.4 1 1m15.5 0c0 .5-.2 1-.4 1-.3 0-.8-.5-1.1-1-.3-.6-.1-1 .4-1 .6 0 1.1.4 1.1 1m35.5 0c.3.5.1 1-.4 1-.6 0-1.1-.5-1.1-1 0-.6.2-1 .4-1 .3 0 .8.4 1.1 1m15.5 0c0 .5-.4 1-1 1-.5 0-1-.5-1-1 0-.6.5-1 1-1 .6 0 1 .4 1 1m-679 2.1c0 .5-.4.9-1 .9-.5 0-1-.7-1-1.6 0-.8.5-1.2 1-.9.6.3 1 1 1 1.6m623.7-1.5c-.3.3-1.2.4-1.9.1-.8-.3-.5-.6.6-.6 1.1-.1 1.7.2 1.3.5m-451.4 2.1c-.7.2-1.9.2-2.5 0-.7-.3-.2-.5 1.2-.5s1.9.2 1.3.5m5 0c-.7.2-1.9.2-2.5 0-.7-.3-.2-.5 1.2-.5s1.9.2 1.3.5m6 0c-.7.2-1.9.2-2.5 0-.7-.3-.2-.5 1.2-.5s1.9.2 1.3.5m5 0c-.7.2-1.9.2-2.5 0-.7-.3-.2-.5 1.2-.5s1.9.2 1.3.5m6 0c-.7.2-1.9.2-2.5 0-.7-.3-.2-.5 1.2-.5s1.9.2 1.3.5m16.5 0c-1 .2-2.8.2-4 0-1.3-.2-.5-.4 1.7-.4 2.2-.1 3.2.1 2.3.4m361.9.9c-.3.3-1.2.4-1.9.1-.8-.3-.5-.6.6-.6 1.1-.1 1.7.2 1.3.5m35.6.1c-.7.2-1.9.2-2.5 0-.7-.3-.2-.5 1.2-.5s1.9.2 1.3.5m4.4-.1c-.3.3-1.2.4-1.9.1-.8-.3-.5-.6.6-.6 1.1-.1 1.7.2 1.3.5m5.6.1c-.7.2-1.9.2-2.5 0-.7-.3-.2-.5 1.2-.5s1.9.2 1.3.5m5.4-.1c-.3.3-1.2.4-1.9.1-.8-.3-.5-.6.6-.6 1.1-.1 1.7.2 1.3.5m4.6.1c-.7.2-1.9.2-2.5 0-.7-.3-.2-.5 1.2-.5s1.9.2 1.3.5m35.4-.1c-.3.3-1.2.4-1.9.1-.8-.3-.5-.6.6-.6 1.1-.1 1.7.2 1.3.5m14.1.1c-1 .2-2.6.2-3.5 0-1-.3-.2-.5 1.7-.5s2.7.2 1.8.5m-505.5 3c-.7.2-1.9.2-2.5 0-.7-.3-.2-.5 1.2-.5s1.9.2 1.3.5m5 0c-.7.2-1.9.2-2.5 0-.7-.3-.2-.5 1.2-.5s1.9.2 1.3.5m6 0c-.7.2-1.9.2-2.5 0-.7-.3-.2-.5 1.2-.5s1.9.2 1.3.5m5 0c-.7.2-1.9.2-2.5 0-.7-.3-.2-.5 1.2-.5s1.9.2 1.3.5m6 0c-.7.2-1.9.2-2.5 0-.7-.3-.2-.5 1.2-.5s1.9.2 1.3.5m16.5 0c-1 .2-2.8.2-4 0-1.3-.2-.5-.4 1.7-.4 2.2-.1 3.2.1 2.3.4m361.9-.1c-.3.3-1.2.4-1.9.1-.8-.3-.5-.6.6-.6 1.1-.1 1.7.2 1.3.5m35.6.1c-.7.2-1.9.2-2.5 0-.7-.3-.2-.5 1.2-.5s1.9.2 1.3.5m4.4-.1c-.3.3-1.2.4-1.9.1-.8-.3-.5-.6.6-.6 1.1-.1 1.7.2 1.3.5m11 0c-.3.3-1.2.4-1.9.1-.8-.3-.5-.6.6-.6 1.1-.1 1.7.2 1.3.5m4.6.1c-.7.2-1.9.2-2.5 0-.7-.3-.2-.5 1.2-.5s1.9.2 1.3.5m35.4-.1c-.3.3-1.2.4-1.9.1-.8-.3-.5-.6.6-.6 1.1-.1 1.7.2 1.3.5m12 0c-.3.3-1.2.4-1.9.1-.8-.3-.5-.6.6-.6 1.1-.1 1.7.2 1.3.5M272 273.1c0 .6-.4.7-1 .4-.5-.3-1-1.1-1-1.6 0-.6.5-.7 1-.4.6.3 1 1.1 1 1.6m172.3 1.6c-.7.2-1.9.2-2.5 0-.7-.3-.2-.5 1.2-.5s1.9.2 1.3.5m5 0c-.7.2-1.9.2-2.5 0-.7-.3-.2-.5 1.2-.5s1.9.2 1.3.5m6 0c-.7.2-1.9.2-2.5 0-.7-.3-.2-.5 1.2-.5s1.9.2 1.3.5m5 0c-.7.2-1.9.2-2.5 0-.7-.3-.2-.5 1.2-.5s1.9.2 1.3.5m6 0c-.7.2-1.9.2-2.5 0-.7-.3-.2-.5 1.2-.5s1.9.2 1.3.5m13.4-.1c-.3.3-1.2.4-1.9.1-.8-.3-.5-.6.6-.6 1.1-.1 1.7.2 1.3.5m365 0c-.3.3-1.2.4-1.9.1-.8-.3-.5-.6.6-.6 1.1-.1 1.7.2 1.3.5m36 0c-.3.3-1.2.4-1.9.1-.8-.3-.5-.6.6-.6 1.1-.1 1.7.2 1.3.5m4 0c-.3.3-1.2.4-1.9.1-.8-.3-.5-.6.6-.6 1.1-.1 1.7.2 1.3.5m6 0c-.3.3-1.2.4-1.9.1-.8-.3-.5-.6.6-.6 1.1-.1 1.7.2 1.3.5m5 0c-.3.3-1.2.4-1.9.1-.8-.3-.5-.6.6-.6 1.1-.1 1.7.2 1.3.5m5 0c-.3.3-1.2.4-1.9.1-.8-.3-.5-.6.6-.6 1.1-.1 1.7.2 1.3.5M273 279.7c0 1.6 1.4 10.2 3 19.3 1.7 9.1 3 17.2 3 18.1 0 1.2-1.3 1.8-4.7 2.3-2.7.4-6.5.9-8.7 1.2-3.4.5-3.7.4-3.2-1.2.9-2.9 5.7-31.2 6.3-37.2.4-4.2.9-5.2 2.4-5.2 1.4 0 1.9.7 1.9 2.7m571.7-2.1c-.3.3-1.2.4-1.9.1-.8-.3-.5-.6.6-.6 1.1-.1 1.7.2 1.3.5m35.6.1c-.7.2-1.9.2-2.5 0-.7-.3-.2-.5 1.2-.5s1.9.2 1.3.5m4.4-.1c-.3.3-1.2.4-1.9.1-.8-.3-.5-.6.6-.6 1.1-.1 1.7.2 1.3.5m5.6.1c-.7.2-1.9.2-2.5 0-.7-.3-.2-.5 1.2-.5s1.9.2 1.3.5m5.4-.1c-.3.3-1.2.4-1.9.1-.8-.3-.5-.6.6-.6 1.1-.1 1.7.2 1.3.5m4.6.1c-.7.2-1.9.2-2.5 0-.7-.3-.2-.5 1.2-.5s1.9.2 1.3.5m35.4-.1c-.3.3-1.2.4-1.9.1-.8-.3-.5-.6.6-.6 1.1-.1 1.7.2 1.3.5m14.1.1c-1 .2-2.6.2-3.5 0-1-.3-.2-.5 1.7-.5s2.7.2 1.8.5m9.5 0c-.7.2-1.9.2-2.5 0-.7-.3-.2-.5 1.2-.5s1.9.2 1.3.5m-515 1c-.7.2-1.9.2-2.5 0-.7-.3-.2-.5 1.2-.5s1.9.2 1.3.5m5 0c-.7.2-1.9.2-2.5 0-.7-.3-.2-.5 1.2-.5s1.9.2 1.3.5m6 0c-.7.2-1.9.2-2.5 0-.7-.3-.2-.5 1.2-.5s1.9.2 1.3.5m5 0c-.7.2-1.9.2-2.5 0-.7-.3-.2-.5 1.2-.5s1.9.2 1.3.5m6 0c-.7.2-1.9.2-2.5 0-.7-.3-.2-.5 1.2-.5s1.9.2 1.3.5m13.4-.1c-.3.3-1.2.4-1.9.1-.8-.3-.5-.6.6-.6 1.1-.1 1.7.2 1.3.5m365 2c-.3.3-1.2.4-1.9.1-.8-.3-.5-.6.6-.6 1.1-.1 1.7.2 1.3.5m36 0c-.3.3-1.2.4-1.9.1-.8-.3-.5-.6.6-.6 1.1-.1 1.7.2 1.3.5m4 0c-.3.3-1.2.4-1.9.1-.8-.3-.5-.6.6-.6 1.1-.1 1.7.2 1.3.5m11 0c-.3.3-1.2.4-1.9.1-.8-.3-.5-.6.6-.6 1.1-.1 1.7.2 1.3.5m5 0c-.3.3-1.2.4-1.9.1-.8-.3-.5-.6.6-.6 1.1-.1 1.7.2 1.3.5m183.1 1.7c.4 2-2.5 3.4-4 1.9s-.1-4.4 1.9-4c1 .2 1.9 1.1 2.1 2.1m-634.5.4c-.7.2-1.9.2-2.5 0-.7-.3-.2-.5 1.2-.5s1.9.2 1.3.5m6 0c-.7.2-1.9.2-2.5 0-.7-.3-.2-.5 1.2-.5s1.9.2 1.3.5m5 0c-.7.2-1.9.2-2.5 0-.7-.3-.2-.5 1.2-.5s1.9.2 1.3.5m6 0c-.7.2-1.9.2-2.5 0-.7-.3-.2-.5 1.2-.5s1.9.2 1.3.5m13.4-.1c-.3.3-1.2.4-1.9.1-.8-.3-.5-.6.6-.6 1.1-.1 1.7.2 1.3.5m365 2c-.3.3-1.2.4-1.9.1-.8-.3-.5-.6.6-.6 1.1-.1 1.7.2 1.3.5m35.6.1c-.7.2-1.9.2-2.5 0-.7-.3-.2-.5 1.2-.5s1.9.2 1.3.5m4.4-.1c-.3.3-1.2.4-1.9.1-.8-.3-.5-.6.6-.6 1.1-.1 1.7.2 1.3.5m5.6.1c-.7.2-1.9.2-2.5 0-.7-.3-.2-.5 1.2-.5s1.9.2 1.3.5m5.4-.1c-.3.3-1.2.4-1.9.1-.8-.3-.5-.6.6-.6 1.1-.1 1.7.2 1.3.5m4.6.1c-.7.2-1.9.2-2.5 0-.7-.3-.2-.5 1.2-.5s1.9.2 1.3.5m-451 2c-.7.2-1.9.2-2.5 0-.7-.3-.2-.5 1.2-.5s1.9.2 1.3.5m6 0c-.7.2-1.9.2-2.5 0-.7-.3-.2-.5 1.2-.5s1.9.2 1.3.5m5 0c-.7.2-1.9.2-2.5 0-.7-.3-.2-.5 1.2-.5s1.9.2 1.3.5m6 0c-.7.2-1.9.2-2.5 0-.7-.3-.2-.5 1.2-.5s1.9.2 1.3.5m13.4-.1c-.3.3-1.2.4-1.9.1-.8-.3-.5-.6.6-.6 1.1-.1 1.7.2 1.3.5m365 1c-.3.3-1.2.4-1.9.1-.8-.3-.5-.6.6-.6 1.1-.1 1.7.2 1.3.5m35.6.1c-.7.2-1.9.2-2.5 0-.7-.3-.2-.5 1.2-.5s1.9.2 1.3.5m4.4-.1c-.3.3-1.2.4-1.9.1-.8-.3-.5-.6.6-.6 1.1-.1 1.7.2 1.3.5m6 0c-.3.3-1.2.4-1.9.1-.8-.3-.5-.6.6-.6 1.1-.1 1.7.2 1.3.5m5 0c-.3.3-1.2.4-1.9.1-.8-.3-.5-.6.6-.6 1.1-.1 1.7.2 1.3.5m4.6.1c-.7.2-1.9.2-2.5 0-.7-.3-.2-.5 1.2-.5s1.9.2 1.3.5m35.4-.1c-.3.3-1.2.4-1.9.1-.8-.3-.5-.6.6-.6 1.1-.1 1.7.2 1.3.5m14.1.1c-1 .2-2.6.2-3.5 0-1-.3-.2-.5 1.7-.5s2.7.2 1.8.5m-500.5 3c-.7.2-1.9.2-2.5 0-.7-.3-.2-.5 1.2-.5s1.9.2 1.3.5m6 0c-.7.2-1.9.2-2.5 0-.7-.3-.2-.5 1.2-.5s1.9.2 1.3.5m5 0c-.7.2-1.9.2-2.5 0-.7-.3-.2-.5 1.2-.5s1.9.2 1.3.5m6 0c-.7.2-1.9.2-2.5 0-.7-.3-.2-.5 1.2-.5s1.9.2 1.3.5m13.4-.1c-.3.3-1.2.4-1.9.1-.8-.3-.5-.6.6-.6 1.1-.1 1.7.2 1.3.5m405 0c-.3.3-1.2.4-1.9.1-.8-.3-.5-.6.6-.6 1.1-.1 1.7.2 1.3.5m11 0c-.3.3-1.2.4-1.9.1-.8-.3-.5-.6.6-.6 1.1-.1 1.7.2 1.3.5m5 0c-.3.3-1.2.4-1.9.1-.8-.3-.5-.6.6-.6 1.1-.1 1.7.2 1.3.5m184.3 1.9c0 1.4-.4 2.5-1 2.5-.8 0-.8-2.3-.1-4.8.4-1.2 1.1.3 1.1 2.3m-4 1.5c0 .5-.4 1-.9 1-.6 0-1.3-.5-1.6-1-.3-.6.1-1 .9-1 .9 0 1.6.4 1.6 1m-631.7.7c-.7.2-1.9.2-2.5 0-.7-.3-.2-.5 1.2-.5s1.9.2 1.3.5m6 0c-.7.2-1.9.2-2.5 0-.7-.3-.2-.5 1.2-.5s1.9.2 1.3.5m5 0c-.7.2-1.9.2-2.5 0-.7-.3-.2-.5 1.2-.5s1.9.2 1.3.5m6 0c-.7.2-1.9.2-2.5 0-.7-.3-.2-.5 1.2-.5s1.9.2 1.3.5m13.4-.1c-.3.3-1.2.4-1.9.1-.8-.3-.5-.6.6-.6 1.1-.1 1.7.2 1.3.5m365 0c-.3.3-1.2.4-1.9.1-.8-.3-.5-.6.6-.6 1.1-.1 1.7.2 1.3.5m35.6.1c-.7.2-1.9.2-2.5 0-.7-.3-.2-.5 1.2-.5s1.9.2 1.3.5m4.4-.1c-.3.3-1.2.4-1.9.1-.8-.3-.5-.6.6-.6 1.1-.1 1.7.2 1.3.5m5.6.1c-.7.2-1.9.2-2.5 0-.7-.3-.2-.5 1.2-.5s1.9.2 1.3.5m5.4-.1c-.3.3-1.2.4-1.9.1-.8-.3-.5-.6.6-.6 1.1-.1 1.7.2 1.3.5m4.6.1c-.7.2-1.9.2-2.5 0-.7-.3-.2-.5 1.2-.5s1.9.2 1.3.5m35.4-.1c-.3.3-1.2.4-1.9.1-.8-.3-.5-.6.6-.6 1.1-.1 1.7.2 1.3.5m-91 3c-.3.3-1.2.4-1.9.1-.8-.3-.5-.6.6-.6 1.1-.1 1.7.2 1.3.5m35.6.1c-.7.2-1.9.2-2.5 0-.7-.3-.2-.5 1.2-.5s1.9.2 1.3.5m4.4-.1c-.3.3-1.2.4-1.9.1-.8-.3-.5-.6.6-.6 1.1-.1 1.7.2 1.3.5m11 0c-.3.3-1.2.4-1.9.1-.8-.3-.5-.6.6-.6 1.1-.1 1.7.2 1.3.5m4.6.1c-.7.2-1.9.2-2.5 0-.7-.3-.2-.5 1.2-.5s1.9.2 1.3.5m35.4-.1c-.3.3-1.2.4-1.9.1-.8-.3-.5-.6.6-.6 1.1-.1 1.7.2 1.3.5m-486.4 1.1c-.7.2-1.9.2-2.5 0-.7-.3-.2-.5 1.2-.5s1.9.2 1.3.5m6 0c-.7.2-1.9.2-2.5 0-.7-.3-.2-.5 1.2-.5s1.9.2 1.3.5m5 0c-.7.2-1.9.2-2.5 0-.7-.3-.2-.5 1.2-.5s1.9.2 1.3.5m6 0c-.7.2-1.9.2-2.5 0-.7-.3-.2-.5 1.2-.5s1.9.2 1.3.5m13.4-.1c-.3.3-1.2.4-1.9.1-.8-.3-.5-.6.6-.6 1.1-.1 1.7.2 1.3.5M1085 302c0 1.6-.4 3-.9 3s-.8-1.4-.7-3c0-1.7.4-3 .8-3 .5 0 .8 1.3.8 3m-240.3-.4c-.3.3-1.2.4-1.9.1-.8-.3-.5-.6.6-.6 1.1-.1 1.7.2 1.3.5m40 0c-.3.3-1.2.4-1.9.1-.8-.3-.5-.6.6-.6 1.1-.1 1.7.2 1.3.5m6 0c-.3.3-1.2.4-1.9.1-.8-.3-.5-.6.6-.6 1.1-.1 1.7.2 1.3.5m5 0c-.3.3-1.2.4-1.9.1-.8-.3-.5-.6.6-.6 1.1-.1 1.7.2 1.3.5m185 0c-.3.3-1.2.4-1.9.1-.8-.3-.5-.6.6-.6 1.1-.1 1.7.2 1.3.5m-631.4 1.1c-.7.2-1.9.2-2.5 0-.7-.3-.2-.5 1.2-.5s1.9.2 1.3.5m6 0c-.7.2-1.9.2-2.5 0-.7-.3-.2-.5 1.2-.5s1.9.2 1.3.5m5 0c-.7.2-1.9.2-2.5 0-.7-.3-.2-.5 1.2-.5s1.9.2 1.3.5m6 0c-.7.2-1.9.2-2.5 0-.7-.3-.2-.5 1.2-.5s1.9.2 1.3.5m13.4-.1c-.3.3-1.2.4-1.9.1-.8-.3-.5-.6.6-.6 1.1-.1 1.7.2 1.3.5M1081 304c0 .5-.4 1-1 1-.5 0-1-.5-1-1 0-.6.5-1 1-1 .6 0 1 .4 1 1m-236.3.6c-.3.3-1.2.4-1.9.1-.8-.3-.5-.6.6-.6 1.1-.1 1.7.2 1.3.5m35.6.1c-.7.2-1.9.2-2.5 0-.7-.3-.2-.5 1.2-.5s1.9.2 1.3.5m4.4-.1c-.3.3-1.2.4-1.9.1-.8-.3-.5-.6.6-.6 1.1-.1 1.7.2 1.3.5m5.6.1c-.7.2-1.9.2-2.5 0-.7-.3-.2-.5 1.2-.5s1.9.2 1.3.5m5.4-.1c-.3.3-1.2.4-1.9.1-.8-.3-.5-.6.6-.6 1.1-.1 1.7.2 1.3.5m4.6.1c-.7.2-1.9.2-2.5 0-.7-.3-.2-.5 1.2-.5s1.9.2 1.3.5m196.4 1.5c-.3.8-.6.5-.6-.6-.1-1.1.2-1.7.5-1.3.3.3.4 1.2.1 1.9m-30.2-.3c.3.5.1 1.2-.5 1.6-.5.3-1-.1-1-.9 0-1.8.6-2.1 1.5-.7m33.5 1.2c0 .5-.4.9-1 .9-.5 0-1-.7-1-1.6 0-.8.5-1.2 1-.9.6.3 1 1 1 1.6m-650.7-.4c-.7.2-1.9.2-2.5 0-.7-.3-.2-.5 1.2-.5s1.9.2 1.3.5m6 0c-.7.2-1.9.2-2.5 0-.7-.3-.2-.5 1.2-.5s1.9.2 1.3.5m5 0c-.7.2-1.9.2-2.5 0-.7-.3-.2-.5 1.2-.5s1.9.2 1.3.5m6 0c-.7.2-1.9.2-2.5 0-.7-.3-.2-.5 1.2-.5s1.9.2 1.3.5m13.4-.1c-.3.3-1.2.4-1.9.1-.8-.3-.5-.6.6-.6 1.1-.1 1.7.2 1.3.5m581.4 2.7c-.8.8-1.1.7-1.1-.4 0-2 1.3-3.4 1.8-1.9.3.7-.1 1.7-.7 2.3m2.6-1.1c-.3.8-.6.5-.6-.6-.1-1.1.2-1.7.5-1.3.3.3.4 1.2.1 1.9m38 0c-.3.8-.6.5-.6-.6-.1-1.1.2-1.7.5-1.3.3.3.4 1.2.1 1.9m-257-.6c-.3.3-1.2.4-1.9.1-.8-.3-.5-.6.6-.6 1.1-.1 1.7.2 1.3.5m35.6.1c-.7.2-1.9.2-2.5 0-.7-.3-.2-.5 1.2-.5s1.9.2 1.3.5m4.4-.1c-.3.3-1.2.4-1.9.1-.8-.3-.5-.6.6-.6 1.1-.1 1.7.2 1.3.5m11 0c-.3.3-1.2.4-1.9.1-.8-.3-.5-.6.6-.6 1.1-.1 1.7.2 1.3.5m4.6.1c-.7.2-1.9.2-2.5 0-.7-.3-.2-.5 1.2-.5s1.9.2 1.3.5m205.6.9c.6-.4 1.1-.1 1.1.7 0 1-.7 1.3-2 1-1.1-.3-2-1.3-2-2.2 0-1.3.2-1.3.9-.2.5.7 1.4 1 2 .7m-49.2 1.6c-.3.8-.6.5-.6-.6-.1-1.1.2-1.7.5-1.3.3.3.4 1.2.1 1.9m28.3 1.9c0 1.6-.4 2.8-.9 2.5-.5-.4-.8-1.4-.6-2.4.2-.9.4-2 .4-2.5.1-.4.3-.7.6-.7s.5 1.4.5 3.1m-635.7-1.4c-.7.2-1.9.2-2.5 0-.7-.3-.2-.5 1.2-.5s1.9.2 1.3.5m6 0c-.7.2-1.9.2-2.5 0-.7-.3-.2-.5 1.2-.5s1.9.2 1.3.5m5 0c-.7.2-1.9.2-2.5 0-.7-.3-.2-.5 1.2-.5s1.9.2 1.3.5m6 0c-.7.2-1.9.2-2.5 0-.7-.3-.2-.5 1.2-.5s1.9.2 1.3.5m13.4-.1c-.3.3-1.2.4-1.9.1-.8-.3-.5-.6.6-.6 1.1-.1 1.7.2 1.3.5m401 1c-.3.3-1.2.4-1.9.1-.8-.3-.5-.6.6-.6 1.1-.1 1.7.2 1.3.5m4 0c-.3.3-1.2.4-1.9.1-.8-.3-.5-.6.6-.6 1.1-.1 1.7.2 1.3.5m6 0c-.3.3-1.2.4-1.9.1-.8-.3-.5-.6.6-.6 1.1-.1 1.7.2 1.3.5m5 0c-.3.3-1.2.4-1.9.1-.8-.3-.5-.6.6-.6 1.1-.1 1.7.2 1.3.5m5 0c-.3.3-1.2.4-1.9.1-.8-.3-.5-.6.6-.6 1.1-.1 1.7.2 1.3.5m180 0c-.3.3-1.2.4-1.9.1-.8-.3-.5-.6.6-.6 1.1-.1 1.7.2 1.3.5m-631.4 3.1c-.7.2-1.9.2-2.5 0-.7-.3-.2-.5 1.2-.5s1.9.2 1.3.5m6 0c-.7.2-1.9.2-2.5 0-.7-.3-.2-.5 1.2-.5s1.9.2 1.3.5m5 0c-.7.2-1.9.2-2.5 0-.7-.3-.2-.5 1.2-.5s1.9.2 1.3.5m6 0c-.7.2-1.9.2-2.5 0-.7-.3-.2-.5 1.2-.5s1.9.2 1.3.5m13.4-.1c-.3.3-1.2.4-1.9.1-.8-.3-.5-.6.6-.6 1.1-.1 1.7.2 1.3.5m365 0c-.3.3-1.2.4-1.9.1-.8-.3-.5-.6.6-.6 1.1-.1 1.7.2 1.3.5m35.6.1c-.7.2-1.9.2-2.5 0-.7-.3-.2-.5 1.2-.5s1.9.2 1.3.5m4.4-.1c-.3.3-1.2.4-1.9.1-.8-.3-.5-.6.6-.6 1.1-.1 1.7.2 1.3.5m5.6.1c-.7.2-1.9.2-2.5 0-.7-.3-.2-.5 1.2-.5s1.9.2 1.3.5m5.4-.1c-.3.3-1.2.4-1.9.1-.8-.3-.5-.6.6-.6 1.1-.1 1.7.2 1.3.5m4.6.1c-.7.2-1.9.2-2.5 0-.7-.3-.2-.5 1.2-.5s1.9.2 1.3.5m-19.6 2.9c-.3.3-1.2.4-1.9.1-.8-.3-.5-.6.6-.6 1.1-.1 1.7.2 1.3.5m4 0c-.3.3-1.2.4-1.9.1-.8-.3-.5-.6.6-.6 1.1-.1 1.7.2 1.3.5m11 0c-.3.3-1.2.4-1.9.1-.8-.3-.5-.6.6-.6 1.1-.1 1.7.2 1.3.5m-446.4 1.1c-.7.2-1.9.2-2.5 0-.7-.3-.2-.5 1.2-.5s1.9.2 1.3.5m6 0c-.7.2-1.9.2-2.5 0-.7-.3-.2-.5 1.2-.5s1.9.2 1.3.5m5 0c-.7.2-1.9.2-2.5 0-.7-.3-.2-.5 1.2-.5s1.9.2 1.3.5m6 0c-.7.2-1.9.2-2.5 0-.7-.3-.2-.5 1.2-.5s1.9.2 1.3.5m13.4-.1c-.3.3-1.2.4-1.9.1-.8-.3-.5-.6.6-.6 1.1-.1 1.7.2 1.3.5m-361.3 3.9c-.4.8-.8 1.5-1 1.5s-.4-.7-.4-1.5.4-1.5 1-1.5c.5 0 .7.7.4 1.5m2.3.7c-.3.8-.6.5-.6-.6-.1-1.1.2-1.7.5-1.3.3.3.4 1.2.1 1.9m3.3-.7c0 .8-.4 1.5-1 1.5-.5 0-1-.7-1-1.5s.5-1.5 1-1.5c.6 0 1 .7 1 1.5m5 .2c0 1.5-.2 1.6-1 .3-.9-1.3-1.1-1.3-2 0-.8 1.3-1 1.2-1-.3 0-1 .8-1.7 2-1.7s2 .7 2 1.7m223 8.3v10h-28.4c-24.3 0-28.5-.2-29-1.5-.3-.8-1.2-1.5-2-1.5-.9 0-2-2-3-5.3-2.6-9.2-2.6-9.2 1.9-9.5 14.6-1 35-1.9 46.8-2.1l13.7-.1zm492.7-9.4c-.3.3-1.2.4-1.9.1-.8-.3-.5-.6.6-.6 1.1-.1 1.7.2 1.3.5m35.6.1c-.7.2-1.9.2-2.5 0-.7-.3-.2-.5 1.2-.5s1.9.2 1.3.5m4.4-.1c-.3.3-1.2.4-1.9.1-.8-.3-.5-.6.6-.6 1.1-.1 1.7.2 1.3.5m5.6.1c-.7.2-1.9.2-2.5 0-.7-.3-.2-.5 1.2-.5s1.9.2 1.3.5m5.4-.1c-.3.3-1.2.4-1.9.1-.8-.3-.5-.6.6-.6 1.1-.1 1.7.2 1.3.5m4.6.1c-.7.2-1.9.2-2.5 0-.7-.3-.2-.5 1.2-.5s1.9.2 1.3.5m184.7 1.8c0 1.4-.4 2.5-1 2.5-1.1 0-1.4-3.3-.3-4.3 1.1-1.1 1.3-.8 1.3 1.8m-635.7-.8c-.7.2-1.9.2-2.5 0-.7-.3-.2-.5 1.2-.5s1.9.2 1.3.5m6 0c-.7.2-1.9.2-2.5 0-.7-.3-.2-.5 1.2-.5s1.9.2 1.3.5m5 0c-.7.2-1.9.2-2.5 0-.7-.3-.2-.5 1.2-.5s1.9.2 1.3.5m6 0c-.7.2-1.9.2-2.5 0-.7-.3-.2-.5 1.2-.5s1.9.2 1.3.5m13.4-.1c-.3.3-1.2.4-1.9.1-.8-.3-.5-.6.6-.6 1.1-.1 1.7.2 1.3.5m600.8.4c-.3.5-1 1-1.6 1-.5 0-.9-.5-.9-1 0-.6.7-1 1.6-1 .8 0 1.2.4.9 1m-22.1 1.5c-.4.9 0 1.5.7 1.5 1.2 0 1.2.2 0 .9-.7.5-1 1.4-.7 2 .4.6.2 1.1-.3 1.1-.6 0-1.1-1.6-1.1-3.5s.4-3.5 1-3.5c.5 0 .7.7.4 1.5m14.6.5c0 1.1-.4 2-1 2-.5 0-1-.9-1-2s.5-2 1-2c.6 0 1 .9 1 2m18.6 0c0 1.1-.4 2-.8 2-1 0-1.1-2.4-.1-3.3.9-.9.9-1 .9 1.3m14.4 0c0 1.1-.4 2-1 2-.5 0-1-.9-1-2s.5-2 1-2c.6 0 1 .9 1 2m-824.5 3.7c.3 2.7.9 5.8 1.2 7 .4 1.7.1 2.3-1.1 2.3-.9 0-1.9.7-2.2 1.5-.5 1.2-2.4 1.5-8.4 1.5s-7.9-.3-8.4-1.5c-.3-.8-1.3-1.5-2.1-1.5-1.3 0-1.5-.7-1.1-3 .3-1.7.9-4.3 1.2-6 .6-3.1 1.7-3.5 10.9-4.3 9.9-.9 9.2-1.2 10 4m563.2-4.1c-.3.3-1.2.4-1.9.1-.8-.3-.5-.6.6-.6 1.1-.1 1.7.2 1.3.5m35.6.1c-.7.2-1.9.2-2.5 0-.7-.3-.2-.5 1.2-.5s1.9.2 1.3.5m4.4-.1c-.3.3-1.2.4-1.9.1-.8-.3-.5-.6.6-.6 1.1-.1 1.7.2 1.3.5m6 0c-.3.3-1.2.4-1.9.1-.8-.3-.5-.6.6-.6 1.1-.1 1.7.2 1.3.5m5 0c-.3.3-1.2.4-1.9.1-.8-.3-.5-.6.6-.6 1.1-.1 1.7.2 1.3.5m4.6.1c-.7.2-1.9.2-2.5 0-.7-.3-.2-.5 1.2-.5s1.9.2 1.3.5m-417.3 4c0 1.9-.5 2.3-3 2.3s-3-.4-3-2.3c0-2 .5-2.4 3-2.4s3 .4 3 2.4m-230.5 3c-.8 2.7-1.5 5.1-1.5 5.5 0 .5-.9.8-2 .8s-2 .7-2 1.5c0 1.3-2.6 1.5-17.5 1.5H212v-8.8l6.8-1.1c11.2-1.9 26.5-3.9 30.9-4l4.2-.1zm632-3.7c-.3.5-1.1 1-1.6 1-.6 0-.7-.5-.4-1 .3-.6 1.1-1 1.6-1 .6 0 .7.4.4 1m10.5 0c0 .5-.4 1-1 1-.5 0-1-.5-1-1 0-.6.5-1 1-1 .6 0 1 .4 1 1m178 1c0 .5-.4 1-1 1-.5 0-1-.5-1-1 0-.6.5-1 1-1 .6 0 1 .4 1 1m18.5 0c.3.5.1 1-.4 1-.6 0-1.1-.5-1.1-1 0-.6.2-1 .4-1 .3 0 .8.4 1.1 1m14.5 0c0 .5-.4 1-1 1-.5 0-1-.5-1-1 0-.6.5-1 1-1 .6 0 1 .4 1 1m-38.6 1.6c.3.9.6 3.6.6 6 0 3.7-.3 4.4-2 4.4s-2-.7-2-5.3c0-3 .3-5.7.7-6q1.65-1.65 2.7.9m32.4 5.3c.4 5 .4 5.1-2.2 5.1-2.4 0-2.6-.3-2.6-4.1 0-4.9 1.7-8.6 3.2-7.1.6.6 1.3 3.4 1.6 6.1M100 334.5c0 3.8-.3 4.5-2 4.5s-2-.7-2-4.5.3-4.5 2-4.5 2 .7 2 4.5m12.8.6c-.5 3.5-2.8 3.6-2.8.1 0-1.6.3-3.2.7-3.6 1.1-1.1 2.5 1 2.1 3.5m8.2-.6c0 1.9-.4 3.5-1 3.5-.5 0-1-1.6-1-3.5s.5-3.5 1-3.5c.6 0 1 1.6 1 3.5m6 0c0 1.9-.4 3.5-1 3.5-.5 0-1-1.6-1-3.5s.5-3.5 1-3.5c.6 0 1 1.6 1 3.5m9 .6q0 3-1.2 2.7c-1.5-.5-2.2-3.3-1.4-5.4.9-2.4 2.6-.6 2.6 2.7m708.7-3.5c-.3.3-1.2.4-1.9.1-.8-.3-.5-.6.6-.6 1.1-.1 1.7.2 1.3.5m35.6.1c-.7.2-1.9.2-2.5 0-.7-.3-.2-.5 1.2-.5s1.9.2 1.3.5m4.4-.1c-.3.3-1.2.4-1.9.1-.8-.3-.5-.6.6-.6 1.1-.1 1.7.2 1.3.5m5.6.1c-.7.2-1.9.2-2.5 0-.7-.3-.2-.5 1.2-.5s1.9.2 1.3.5m5.4-.1c-.3.3-1.2.4-1.9.1-.8-.3-.5-.6.6-.6 1.1-.1 1.7.2 1.3.5m4.6.1c-.7.2-1.9.2-2.5 0-.7-.3-.2-.5 1.2-.5s1.9.2 1.3.5m158.2.3c.3.5.1 1-.4 1-.6 0-1.1-.5-1.1-1 0-.6.2-1 .4-1 .3 0 .8.4 1.1 1m14.5 0c0 .5-.4 1-1 1-.5 0-1-.5-1-1 0-.6.5-1 1-1 .6 0 1 .4 1 1m18.5 0c.3.5.1 1-.4 1-.6 0-1.1-.5-1.1-1 0-.6.2-1 .4-1 .3 0 .8.4 1.1 1m14.5 0c0 .5-.4 1-1 1-.5 0-1-.5-1-1 0-.6.5-1 1-1 .6 0 1 .4 1 1m-917.3 6.2c-.2 1.3-.4.3-.4-2.2s.2-3.5.4-2.3c.2 1.3.2 3.3 0 4.5m4.3-2.2c0 2.2-.4 4-1 4-.5 0-1-1.8-1-4s.5-4 1-4c.6 0 1 1.8 1 4m4 0c0 2.2-.4 4-1 4-.5 0-1-1.8-1-4s.5-4 1-4c.6 0 1 1.8 1 4m4 0c0 2.2-.4 4-1 4-.5 0-1-1.8-1-4s.5-4 1-4c.6 0 1 1.8 1 4m4 0c0 2.2-.4 4-1 4-.5 0-1-1.8-1-4s.5-4 1-4c.6 0 1 1.8 1 4m4 0c0 2.2-.4 4-1 4-.5 0-1-1.8-1-4s.5-4 1-4c.6 0 1 1.8 1 4m874.8-2.8c.7.7 1.2 2.7 1.2 4.5 0 3.1-.2 3.3-3.5 3.3-3.1 0-3.5-.3-3.5-2.6 0-5.2 3.1-7.9 5.8-5.2M483 336.5c0 2.1-.5 2.5-3 2.5s-3-.4-3-2.5.5-2.5 3-2.5 3 .4 3 2.5m361.7-1.9c-.3.3-1.2.4-1.9.1-.8-.3-.5-.6.6-.6 1.1-.1 1.7.2 1.3.5m35.6.1c-.7.2-1.9.2-2.5 0-.7-.3-.2-.5 1.2-.5s1.9.2 1.3.5m4.4-.1c-.3.3-1.2.4-1.9.1-.8-.3-.5-.6.6-.6 1.1-.1 1.7.2 1.3.5m11 0c-.3.3-1.2.4-1.9.1-.8-.3-.5-.6.6-.6 1.1-.1 1.7.2 1.3.5m4.6.1c-.7.2-1.9.2-2.5 0-.7-.3-.2-.5 1.2-.5s1.9.2 1.3.5m159.7.9c0 .2-.7.4-1.5.4s-1.5-.4-1.5-1c0-.5.7-.7 1.5-.4.8.4 1.5.8 1.5 1m13-.6c0 .5-.4 1-1 1-.5 0-1-.5-1-1 0-.6.5-1 1-1 .6 0 1 .4 1 1m18.5 0c.3.5.1 1-.4 1-.6 0-1.1-.5-1.1-1 0-.6.2-1 .4-1 .3 0 .8.4 1.1 1m14.5 0c0 .5-.4 1-1 1-.5 0-1-.5-1-1 0-.6.5-1 1-1 .6 0 1 .4 1 1m-46.5 3c.3.5-.1 1-.9 1-.9 0-1.6-.5-1.6-1 0-.6.4-1 .9-1 .6 0 1.3.4 1.6 1m13.5 0c0 .5-.4 1-1 1-.5 0-1-.5-1-1 0-.6.5-1 1-1 .6 0 1 .4 1 1m19 0c0 .5-.4 1-1 1-.5 0-1-.5-1-1 0-.6.5-1 1-1 .6 0 1 .4 1 1m14 0c0 .5-.4 1-1 1-.5 0-1-.5-1-1 0-.6.5-1 1-1 .6 0 1 .4 1 1m-225.3.6c-.3.3-1.2.4-1.9.1-.8-.3-.5-.6.6-.6 1.1-.1 1.7.2 1.3.5m4 0c-.3.3-1.2.4-1.9.1-.8-.3-.5-.6.6-.6 1.1-.1 1.7.2 1.3.5m6 0c-.3.3-1.2.4-1.9.1-.8-.3-.5-.6.6-.6 1.1-.1 1.7.2 1.3.5m5 0c-.3.3-1.2.4-1.9.1-.8-.3-.5-.6.6-.6 1.1-.1 1.7.2 1.3.5"/>
        <path d="M463.6 206c.2 1.9.3 3.6.4 3.7 0 .2.5.3 1 .3.6 0 1-.9 1-2s-.4-2-.9-2-1.2-.8-1.4-1.8c-.2-.9-.3-.1-.1 1.8"/>
        <path d="M196 232c0 1.3.7 2 2 2 1.1 0 2-.3 2-.8 0-.4-.9-1.3-2-2-1.8-1.1-2-1-2 .8"/>
        <path d="M443.3 378.7c86.3.2 227.1.2 313 0 85.9-.1 15.4-.2-156.8-.2-172.1 0-242.4.1-156.2.2"/>
    </g>

</svg>