<svg xmlns="http://www.w3.org/2000/svg" fill="none" class="footer-logo-svg" viewBox="0 170 1189 190"><g id="footer-logo-container" fill="#0266f3" fill-opacity=".25"><path id="footer-logo" d="M29.99 159.73V40.88H0V13.1h94.2v27.77h-30v118.85zm109 3.1c-37.32 0-48.2-27.32-48.2-60.64 0-30.43 9.33-62.87 45.76-62.87 34.88 0 45.1 30.44 41.32 66.65l-53.1 1.55c.45 20 4 30.44 13.12 30.44 6.66 0 11.55-5.78 10.88-18.22l30.44 2.22c1.77 16.22-5.11 40.88-40.21 40.88m-2.67-97.3c-7.77 0-10.89 7.77-11.55 25.99l23.1-.67c.45-20-4.88-25.32-11.55-25.32m104 97.08c-36.87 0-49.53-26-49.53-59.98 0-33.33 12.44-63.54 48.43-63.54 28.65 0 44.43 19.1 43.54 41.76l-33.32 4.67c0-11.55-3.56-20.22-11.56-20.22-8.66 0-12.88 10-12.88 34.88 0 23.77 3.78 37.32 14 37.32s13.99-14 13.99-24.21l31.99 2.44c2.44 21.77-8.44 46.88-44.65 46.88m57.3-2.9V4.23h32.44v24.22c0 13.32-3.11 32.65-6.44 48.2h5.33c3.55-27.99 12-37.32 27.99-37.32 29.55 0 29.55 31.1 29.55 49.1v71.3h-34.44v-66.2c0-12.21 0-25.1-8.88-25.1-10.22 0-11.33 16.44-11.33 34.44v56.87zm153.57 3.12c-42.2 0-51.98-27.1-48.2-50.2l31.1-3.34c-1.34 14.66 2.88 28.21 17.32 28.21 6.45 0 13.78-2.88 13.78-14.44 0-13.77-10.44-20-27.33-29.54-18.44-10.44-35.54-21.77-35.54-44.88 0-22 15.33-37.99 46.87-37.99 36.21 0 48.88 20.66 48.2 45.54l-30.87 4c1.55-12.88-5.78-23.77-17.77-23.77-8 0-13.11 4.89-13.11 12 0 10.66 11.33 16.66 22.21 22.21 19.78 10.22 41.1 23.78 41.1 51.54 0 21.33-12.22 40.66-47.76 40.66m104.68-.67c-23.77 0-37.76-13.33-37.76-42.2V68.41h-9.78V42.43h5.55c10.45 0 14.44-2.44 16-10.66l2.22-12.67h19.33v23.33H569v26.88h-17.55v43.54c0 11.33 4.66 16.89 10.88 16.89 2.45 0 4.67-.45 8-1.11v31.1c-4.66 1.33-8.44 2.44-14.44 2.44m58.72.67c-29.32 0-29.32-31.77-29.32-49.99V42.43h34.21v63.98c0 10.44 0 26.88 9.56 26.88 9.33 0 10.21-15.33 10.21-31.32V42.43h34.44v117.3h-25.1l-.9-35.1h-5.55c-3.1 27.54-10.88 38.2-27.55 38.2m112.92 0c-19.55 0-36.88-22.87-36.88-62.64 0-39.54 17.1-60.42 35.54-60.42 13.33 0 23.77 11.32 26.44 31.54l5.33.22c-5.55-22.66-7.77-35.76-7.77-43.54V4.22h34.2v155.5h-23.32l-1.55-31.32h-5.56c-2.66 16.44-8.88 34.44-26.43 34.44m11.33-28.44c10.44 0 11.33-24.44 11.33-32.21V99.3c0-2.89-.67-32.21-11.78-32.21-6.22 0-12.88 10-12.88 33.54 0 23.77 6.66 33.77 13.33 33.77m84.42-104.19c-14.22 0-20.66-5.1-20.66-14.88 0-10 6.66-15.33 20.66-15.33 14.21 0 20.43 5.55 20.43 15.1 0 10-6.44 15.11-20.43 15.11m-17.11 129.52V42.43h33.99v117.3zm97.09 3.1c-31.55 0-46.21-22.65-46.21-62.64 0-42.21 16.88-60.87 47.1-60.87 30.43 0 45.76 18.88 45.76 59.32 0 44.43-17.33 64.2-46.65 64.2m.22-25.33c8 0 12.22-8.66 12.22-35.32 0-26.21-4.45-37.1-12.44-37.1-6.89 0-11.78 8-11.78 37.1 0 26.44 3.78 35.32 12 35.32m64.56 22.22V13.1h34.22v57.53h28.65V13.11h34.22v146.62h-34.22v-61.1h-28.65v61.1zm121.06 0V13.1h45.99c11.11 0 50.87 1.55 50.87 44.87 0 17.77-7.11 32-31.32 37.1v2c20.66 3.11 23.77 17.77 27.77 34.66l6.44 27.99h-35.77l-4.22-23.77c-2.66-14.89-5.33-26.88-18.66-26.88h-6.89v50.65zm34.21-73.31h7.33c14.44 0 20.89-7.56 20.89-24.66 0-14.89-5.78-21.55-20-21.55h-8.22z"/></g><g id="lagos-city" fill="#0266f3" fill-opacity=".25"><path d="M463.6 173.6c-.9 2.5-.7 4.1.4 2.4.6-.9 1-1 1-.3 0 .6-.4 1.4-1 1.8-.5.3-.1 2 1 4 1.4 2.5 1.5 3.3.5 2.9-.8-.3-1.6-1.5-1.8-2.7-.3-1.2-.4-.8-.4 1 .1 1.8.6 3.3 1.1 3.3.6 0 .5.5-.2 1.2-1.5 1.5-1.6 4.2 0 3.2q1.05-.75.3.6c-.4.6-.9 2.6-1 4.4-.1 1.7 0 2.3.2 1.3.2-.9.9-1.7 1.4-1.7s.9-.8 1-1.8c0-.9.3-1.2.5-.6.3.7-.4 2.7-1.4 4.5-1.8 3.3-1.8 3.4.1 7 2 3.8 1.7 7.4-.5 6.7-1.5-.5-4.8 2.2-4.8 3.9 0 .6-1 1.4-2.2 1.6l-2.3.4 2.3.8c3 1 3.2 6.5.2 6.5-1.5 0-2 .7-2 2.6 0 1.7.6 2.8 2 3.1 1.1.3 2 1.2 2 2 0 1.9-20.4 1.5-20.6-.5-.1-.6-.2-1.7-.3-2.2 0-.6-.8-1-1.6-1-1.3 0-1.5 3.6-1.5 26.5V281h-13v-4.1c0-3.3-.3-4-1.7-3.7-1.3.2-1.9 1.4-2.1 4.1l-.3 3.7H399l-.2 18.7c-.3 18.6-.3 18.8-2.5 19.1l-2.3.3-.2-45.8c-.1-25.2-.3-43.1-.5-39.8-.3 4.4-1 6.6-2.5 8.2-2.2 2.4-4.8 3.1-4.8 1.3s-3.5-1-11 2.5c-10 4.8-16.7 10-20.1 15.4l-2.9 4.5v47.5l-3.2.5c-1.8.3-9.1.8-16.3 1.1-7.1.3-15 .8-17.5 1-21.6 2.1-28.3 2.5-29 1.8-.7-.8-7.2-27.3-9.1-37.3-.5-3-.9-10.2-.9-16 .1-5.8.1-12.5.1-14.9-.1-4.3-.1-4.4-2.1-2.6-1.2 1.1-2 3.1-2 5.2 0 1.8-.4 3.3-1 3.3-.5 0-1-2.4-1-5.3 0-4-.5-5.8-1.9-7.1-1.8-1.7-1.9-1.2-2.4 18.1-.3 10.9-1 21.6-1.6 23.8s-2.5 9.8-4.1 17c-5.3 22.3-4.4 20.3-9.8 21-8 1.2-32.8 5.4-35.7 6.1l-2.7.7.4-43.2.3-43.1h-4.2c-3.6 0-4.3-.3-4.3-1.9 0-2.2-3.8-2.9-11.7-2.2-3.4.2-4.3.7-4.3 2.1 0 1.5-.9 2-4.2 2.2l-4.3.3.2 6.1c.1 4.6-.2 6.1-1.3 6.1-.8 0-1.4-1-1.4-2.4 0-2.1-.4-2.3-5-2.3-2.7 0-5.3-.1-5.7-.3-.5-.1-.9 1-1.1 2.5l-.3 2.8H143v31.5c0 20.3-.4 31.5-1 31.5-.5 0-1-.5-1-1 0-.6-2.4-1-5.4-1h-5.5l-3.3-5.5c-1.8-3-3.5-5.5-3.8-5.5s-2 2.5-3.8 5.5l-3.3 5.5h-5.3c-3.6 0-5.6.5-5.9 1.3s-3.3 2-6.6 2.7c-5.9 1.2-7.2 2.2-5.1 3.5.6.3 1 4.2 1 8.5v7.8l-13.4.4c-13.3.3-13.5.3-16.4 3.2-1.7 1.5-3.2 3.7-3.5 4.7-.5 1.9 9.5 1.9 539.3 1.9s539.8 0 539.3-1.9c-.3-1-1.8-3.2-3.5-4.7-2.8-2.8-3.4-2.9-14.4-3.2l-11.4-.4v-19.1c-.1-15.3-.3-18.9-1.3-17.6-1.1 1.5-1.8 1.4-7.2-.6-5.9-2.2-6-2.3-6.3-6.4-.3-4.4-2.2-5.8-2.2-1.6 0 2.3-.2 2.4-2.6 1.3l-2.6-1.2.2-14.1c.3-16.1.3-16.5-.9-14.6-.6.9-3 1.6-6 1.7-4 .3-5.1 0-5.4-1.4-.3-.9-.5 5.1-.6 13.4-.1 15.1-.1 15.1-2.6 16.2-2.3 1.1-2.5 1-2.5-1.4 0-1.6-.4-2.3-1.1-1.8-.6.3-.9 2.1-.7 4 .4 3.3.3 3.4-6.2 5.8-5.2 1.9-6.6 2.1-6.8 1-.2-.8-.8-1.4-1.3-1.4s-.9 5.6-.9 12.8v12.8l-7.5-1.1c-4.2-.7-7.7-1.4-7.9-1.6-.3-.2.6-4.7 1.9-9.9 2-8.6 2.1-9.5.6-9.8-2.2-.5-7.1-5.3-7.1-6.9 0-.7-.9-1.3-1.9-1.3-2.7 0-8.1-3.2-8.1-4.9 0-.7-.6-1.1-1.5-.7-2.2.8-8.5-2.2-8.5-4 0-1.3-.3-1.4-1.4-.5-2 1.6-7.8.2-8.4-2.1-.4-1.6-.7-1.7-2.1-.5-1 .9-3 1.3-5.3 1-3-.4-3.8-.9-3.9-2.7v-2.1l-1.6 2.2c-1.3 1.9-2.5 2.3-6.9 2.3-4.3 0-5.6-.4-6.8-2.2-1.6-2.2-1.6-2.2-1.6-.2 0 1.7-.8 2.2-4.2 2.7-3.1.4-4.5.2-5.3-1-1.1-1.4-1.3-1.3-1.8.6-.3 1.1-1.1 2.1-1.7 2.1-.9 0-1.1-4.8-.8-20l.4-19.9-7.1-.3c-6.4-.3-7-.5-7.3-2.6-.3-1.9-.9-2.2-5.3-2.2-4.6 0-4.9.2-4.9 2.5 0 2.4-.2 2.5-7.2 2.5h-7.3l.3 39.4.3 39.3-2.3.7c-1.3.3-3.3.6-4.6.6h-2.3l.3-40 .3-40h-9.2c-9.3 0-9.3 0-9.3-2.5 0-2.4-.2-2.5-7-2.5s-7 .1-7 2.5c0 2.5 0 2.5-9.2 2.5h-9.3l.3 46.5.3 46.5h-9.2l.3-46.5.3-46.5h-7.2c-7.1 0-7.3-.1-7.3-2.5 0-2.3-.3-2.5-4.9-2.5-4.4 0-5 .3-5.3 2.2-.3 2.1-.9 2.3-7.6 2.6l-7.3.3.7 7.4c.6 6.6.5 7.5-1 7.5-1.2 0-1.6-1-1.6-4 0-2.3-.6-5.3-1.4-6.8s-1.9-7.4-2.5-13.2-1.4-12.5-1.9-15c-.7-4.2-.8-3.8-2 6.5-.7 6-1.7 13.5-2.3 16.5s-1.3 7.7-1.7 10.5c-.7 4.7-.9 5-3.9 5.3-2.1.2-3.3.9-3.3 1.8 0 1.1-1.5 1.4-6 1.4h-6.1l.1 31.2c.2 29.7.1 31.3-1.7 31.3-1.7 0-1.8-1.8-2.1-34.8L779 259h-2.5c-2.4 0-2.5-.3-2.5-6v-6h-7c-4 0-7-.4-7-1 0-1.3-5.7-1.3-6.5 0-.3.5-3.7 1-7.6 1H739v6c0 5.7-.1 6-2.5 6-2.1 0-2.5.5-2.5 3.1v3l-2.7-1.9c-6.2-4.3-13.2-3.6-19.5 2.1l-3.8 3.4V334h-3.5c-3.1 0-3.5-.3-3.5-2.5 0-1.6.6-2.5 1.5-2.5.8 0 1.5-.5 1.5-1 0-.6-.4-1-1-1-.7 0-1-17.1-1.1-49.3 0-46.2-.5-58.6-2.3-60.4-.4-.4-1.1-.1-1.5.6-.7 1.1-1 1.1-1.5 0s-.7-1.1-1.2-.1c-.9 1.9-2.4.4-2.4-2.4V213h-29.7l-.6 3c-.6 2.9-2.7 4.3-2.7 1.7 0-.8-.4-.7-1 .3-.8 1.2-1.2 1.3-1.9.2-1.1-1.7-2.1.6-2.1 4.8 0 1.6-.4 3.2-1 3.5-.6.4-1 17.8-1 49.1 0 42.4-.2 48.4-1.5 48.4s-1.5-3.7-1.5-27.3v-27.3l-6.9-6.8c-3.8-3.7-7.1-6.4-7.3-6-.3.5-1.3 3.2-2.2 6-1.2 3.5-2.4 5.5-4.2 6.2-1.3.7-2.7 1.9-3 2.7-.5 1.1-2.2 1.5-6.5 1.5-4.6 0-5.9.3-5.9 1.5 0 .8-.9 1.5-2 1.5-2 0-2 .7-2 28v28h-5V202h-38l-.2 24.2-.3 24.3H563c-3.4 0-3.5-.1-3.5-3.8 0-4.6-.8-4.9-12-4.5l-8 .3-.3 4.2-.3 4.3h-6c-5.7 0-6 .1-5.9 2.2.1 1.3.2 15.2.1 31-.1 24.9-.3 28.8-1.6 28.8s-1.5-2.7-1.5-18c0-11.3-.4-18-1-18s-1-2.9-1-6.7c0-6.1-.1-6.5-1.4-4.7-1.5 1.9-1.6 1.8-7-1.1-4.3-2.2-5.6-3.5-5.6-5.2 0-1.4-.6-2.3-1.5-2.3s-1.5.9-1.5 2.3c0 1.7-1.3 3-5.5 5.2-5.4 2.9-5.4 3-6.9 1-1.4-1.8-1.5-1.5-1.6 4.7 0 3.8-.4 6.8-1 6.8s-1.1 9.4-1.3 24.7c-.1 13.7-.3 2.4-.5-25-.2-43.9-.4-49.7-1.7-49.7-.9 0-1.8.7-2.1 1.5-.4 1-2 1.5-4.5 1.5-2.8 0-3.9-.4-3.9-1.5 0-.8-.4-1.5-1-1.5-.5 0-1-.6-1-1.4 0-.7-.9-1.6-2-1.9-1.4-.3-2-1.4-2-3.1 0-1.9.5-2.6 2-2.6 1.1 0 2-.4 2-.9s-.9-1.1-2-1.4-2-1.2-2-2.1-.4-1.6-1-1.6-1-6.7-1-18.1c0-16.9-.7-21.9-2.9-21.9-.5 0-1.2.7-1.5 1.6m3.1 15c-.3.3-1.2.4-1.9.1-.8-.3-.5-.6.6-.6 1.1-.1 1.7.2 1.3.5m16.1 46.1c-1 .2-2.8.2-4 0-1.3-.2-.5-.4 1.7-.4 2.2-.1 3.2.1 2.3.4m-38.5 4c-.7.2-2.1.2-3 0-1-.3-.4-.5 1.2-.5 1.7 0 2.4.2 1.8.5m5 0c-.7.2-1.9.2-2.5 0-.7-.3-.2-.5 1.2-.5s1.9.2 1.3.5m6 0c-.7.2-1.9.2-2.5 0-.7-.3-.2-.5 1.2-.5s1.9.2 1.3.5m5 0c-.7.2-1.9.2-2.5 0-.7-.3-.2-.5 1.2-.5s1.9.2 1.3.5m6 0c-.7.2-1.9.2-2.5 0-.7-.3-.2-.5 1.2-.5s1.9.2 1.3.5m16.5 0c-1 .2-2.8.2-4 0-1.3-.2-.5-.4 1.7-.4 2.2-.1 3.2.1 2.3.4m-38.5 4c-.7.2-2.1.2-3 0-1-.3-.4-.5 1.2-.5 1.7 0 2.4.2 1.8.5m5 0c-.7.2-1.9.2-2.5 0-.7-.3-.2-.5 1.2-.5s1.9.2 1.3.5m6 0c-.7.2-1.9.2-2.5 0-.7-.3-.2-.5 1.2-.5s1.9.2 1.3.5m6 0c-.7.2-2.1.2-3 0-1-.3-.4-.5 1.2-.5 1.7 0 2.4.2 1.8.5m5 0c-.7.2-1.9.2-2.5 0-.7-.3-.2-.5 1.2-.5s1.9.2 1.3.5m16.5 0c-1 .2-2.8.2-4 0-1.3-.2-.5-.4 1.7-.4 2.2-.1 3.2.1 2.3.4m-38.5 4c-.7.2-2.1.2-3 0-1-.3-.4-.5 1.2-.5 1.7 0 2.4.2 1.8.5m5 0c-.7.2-1.9.2-2.5 0-.7-.3-.2-.5 1.2-.5s1.9.2 1.3.5m6 0c-.7.2-1.9.2-2.5 0-.7-.3-.2-.5 1.2-.5s1.9.2 1.3.5m6 0c-.7.2-2.1.2-3 0-1-.3-.4-.5 1.2-.5 1.7 0 2.4.2 1.8.5m5 0c-.7.2-1.9.2-2.5 0-.7-.3-.2-.5 1.2-.5s1.9.2 1.3.5m16.5 0c-1 .2-2.8.2-4 0-1.3-.2-.5-.4 1.7-.4 2.2-.1 3.2.1 2.3.4m-38.5 4c-.7.2-2.1.2-3 0-1-.3-.4-.5 1.2-.5 1.7 0 2.4.2 1.8.5m5 0c-.7.2-1.9.2-2.5 0-.7-.3-.2-.5 1.2-.5s1.9.2 1.3.5m6 0c-.7.2-1.9.2-2.5 0-.7-.3-.2-.5 1.2-.5s1.9.2 1.3.5m6 0c-.7.2-2.1.2-3 0-1-.3-.4-.5 1.2-.5 1.7 0 2.4.2 1.8.5m5 0c-.7.2-1.9.2-2.5 0-.7-.3-.2-.5 1.2-.5s1.9.2 1.3.5m16.5 0c-1 .2-2.8.2-4 0-1.3-.2-.5-.4 1.7-.4 2.2-.1 3.2.1 2.3.4M185 253c0 1.1-.4 2-1 2-.5 0-1-.9-1-2s.5-2 1-2c.6 0 1 .9 1 2m3.8 36.7c-.1 21.4-.3 35.9-.5 32.3-.7-15.5-.7-71 0-71 .4 0 .6 17.4.5 38.7m4.2-.2c0 25-.4 38.5-1 38.5s-1-13.5-1-38.5.4-38.5 1-38.5 1 13.5 1 38.5m4 .6c0 25.7-.3 38.8-1 38.4-.6-.4-1-14.5-1-39.1 0-24.9.4-38.4 1-38.4s1 13.7 1 39.1m4 0c0 25.7-.3 38.8-1 38.4-.6-.4-1-14.5-1-39.1 0-24.9.4-38.4 1-38.4s1 13.7 1 39.1m4 0c0 25.7-.3 38.8-1 38.4-.6-.4-1-14.5-1-39.1 0-24.9.4-38.4 1-38.4s1 13.7 1 39.1m4-.6c0 25-.4 38.5-1 38.5s-1-13.5-1-38.5.4-38.5 1-38.5 1 13.5 1 38.5m235.3-34.8c-.7.2-2.1.2-3 0-1-.3-.4-.5 1.2-.5 1.7 0 2.4.2 1.8.5m5 0c-.7.2-1.9.2-2.5 0-.7-.3-.2-.5 1.2-.5s1.9.2 1.3.5m6 0c-.7.2-1.9.2-2.5 0-.7-.3-.2-.5 1.2-.5s1.9.2 1.3.5m6 0c-.7.2-2.1.2-3 0-1-.3-.4-.5 1.2-.5 1.7 0 2.4.2 1.8.5m5 0c-.7.2-1.9.2-2.5 0-.7-.3-.2-.5 1.2-.5s1.9.2 1.3.5m16.5 0c-1 .2-2.8.2-4 0-1.3-.2-.5-.4 1.7-.4 2.2-.1 3.2.1 2.3.4m361.9 2.9c-.3.3-1.2.4-1.9.1-.8-.3-.5-.6.6-.6 1.1-.1 1.7.2 1.3.5m35.6.1c-.7.2-1.9.2-2.5 0-.7-.3-.2-.5 1.2-.5s1.9.2 1.3.5m4.4-.1c-.3.3-1.2.4-1.9.1-.8-.3-.5-.6.6-.6 1.1-.1 1.7.2 1.3.5m5.6.1c-.7.2-1.9.2-2.5 0-.7-.3-.2-.5 1.2-.5s1.9.2 1.3.5m5.4-.1c-.3.3-1.2.4-1.9.1-.8-.3-.5-.6.6-.6 1.1-.1 1.7.2 1.3.5m4.6.1c-.7.2-1.9.2-2.5 0-.7-.3-.2-.5 1.2-.5s1.9.2 1.3.5M272 259.5c0 .8-.4 1.5-1 1.5-.5 0-1-.7-1-1.5s.5-1.5 1-1.5c.6 0 1 .7 1 1.5m172.3-.8c-.7.2-1.9.2-2.5 0-.7-.3-.2-.5 1.2-.5s1.9.2 1.3.5m5 0c-.7.2-1.9.2-2.5 0-.7-.3-.2-.5 1.2-.5s1.9.2 1.3.5m6 0c-.7.2-1.9.2-2.5 0-.7-.3-.2-.5 1.2-.5s1.9.2 1.3.5m5 0c-.7.2-1.9.2-2.5 0-.7-.3-.2-.5 1.2-.5s1.9.2 1.3.5m6 0c-.7.2-1.9.2-2.5 0-.7-.3-.2-.5 1.2-.5s1.9.2 1.3.5m16.5 0c-1 .2-2.8.2-4 0-1.3-.2-.5-.4 1.7-.4 2.2-.1 3.2.1 2.3.4m349 2c-1 .2-2.6.2-3.5 0-1-.3-.2-.5 1.7-.5s2.7.2 1.8.5m12.9-.1c-.3.3-1.2.4-1.9.1-.8-.3-.5-.6.6-.6 1.1-.1 1.7.2 1.3.5m35.6.1c-.7.2-1.9.2-2.5 0-.7-.3-.2-.5 1.2-.5s1.9.2 1.3.5m4.4-.1c-.3.3-1.2.4-1.9.1-.8-.3-.5-.6.6-.6 1.1-.1 1.7.2 1.3.5m6 0c-.3.3-1.2.4-1.9.1-.8-.3-.5-.6.6-.6 1.1-.1 1.7.2 1.3.5m5 0c-.3.3-1.2.4-1.9.1-.8-.3-.5-.6.6-.6 1.1-.1 1.7.2 1.3.5m4.6.1c-.7.2-1.9.2-2.5 0-.7-.3-.2-.5 1.2-.5s1.9.2 1.3.5m35.4-.1c-.3.3-1.2.4-1.9.1-.8-.3-.5-.6.6-.6 1.1-.1 1.7.2 1.3.5m14.1.1c-1 .2-2.6.2-3.5 0-1-.3-.2-.5 1.7-.5s2.7.2 1.8.5m-505.5 2c-.7.2-1.9.2-2.5 0-.7-.3-.2-.5 1.2-.5s1.9.2 1.3.5m5 0c-.7.2-1.9.2-2.5 0-.7-.3-.2-.5 1.2-.5s1.9.2 1.3.5m6 0c-.7.2-1.9.2-2.5 0-.7-.3-.2-.5 1.2-.5s1.9.2 1.3.5m5 0c-.7.2-1.9.2-2.5 0-.7-.3-.2-.5 1.2-.5s1.9.2 1.3.5m6 0c-.7.2-1.9.2-2.5 0-.7-.3-.2-.5 1.2-.5s1.9.2 1.3.5m16.5 0c-1 .2-2.8.2-4 0-1.3-.2-.5-.4 1.7-.4 2.2-.1 3.2.1 2.3.4m401.7 1.3c.3.5-.1 1-1 1s-1.3-.5-1-1c.3-.6.8-1 1-1s.7.4 1 1m15.5 0c0 .5-.2 1-.4 1-.3 0-.8-.5-1.1-1-.3-.6-.1-1 .4-1 .6 0 1.1.4 1.1 1m35.5 0c.3.5.1 1-.4 1-.6 0-1.1-.5-1.1-1 0-.6.2-1 .4-1 .3 0 .8.4 1.1 1m15.5 0c0 .5-.4 1-1 1-.5 0-1-.5-1-1 0-.6.5-1 1-1 .6 0 1 .4 1 1m-679 2.1c0 .5-.4.9-1 .9-.5 0-1-.7-1-1.6 0-.8.5-1.2 1-.9.6.3 1 1 1 1.6m623.7-1.5c-.3.3-1.2.4-1.9.1-.8-.3-.5-.6.6-.6 1.1-.1 1.7.2 1.3.5m-451.4 2.1c-.7.2-1.9.2-2.5 0-.7-.3-.2-.5 1.2-.5s1.9.2 1.3.5m5 0c-.7.2-1.9.2-2.5 0-.7-.3-.2-.5 1.2-.5s1.9.2 1.3.5m6 0c-.7.2-1.9.2-2.5 0-.7-.3-.2-.5 1.2-.5s1.9.2 1.3.5m5 0c-.7.2-1.9.2-2.5 0-.7-.3-.2-.5 1.2-.5s1.9.2 1.3.5m6 0c-.7.2-1.9.2-2.5 0-.7-.3-.2-.5 1.2-.5s1.9.2 1.3.5m16.5 0c-1 .2-2.8.2-4 0-1.3-.2-.5-.4 1.7-.4 2.2-.1 3.2.1 2.3.4m361.9.9c-.3.3-1.2.4-1.9.1-.8-.3-.5-.6.6-.6 1.1-.1 1.7.2 1.3.5m35.6.1c-.7.2-1.9.2-2.5 0-.7-.3-.2-.5 1.2-.5s1.9.2 1.3.5m4.4-.1c-.3.3-1.2.4-1.9.1-.8-.3-.5-.6.6-.6 1.1-.1 1.7.2 1.3.5m5.6.1c-.7.2-1.9.2-2.5 0-.7-.3-.2-.5 1.2-.5s1.9.2 1.3.5m5.4-.1c-.3.3-1.2.4-1.9.1-.8-.3-.5-.6.6-.6 1.1-.1 1.7.2 1.3.5m4.6.1c-.7.2-1.9.2-2.5 0-.7-.3-.2-.5 1.2-.5s1.9.2 1.3.5m35.4-.1c-.3.3-1.2.4-1.9.1-.8-.3-.5-.6.6-.6 1.1-.1 1.7.2 1.3.5m14.1.1c-1 .2-2.6.2-3.5 0-1-.3-.2-.5 1.7-.5s2.7.2 1.8.5m-505.5 3c-.7.2-1.9.2-2.5 0-.7-.3-.2-.5 1.2-.5s1.9.2 1.3.5m5 0c-.7.2-1.9.2-2.5 0-.7-.3-.2-.5 1.2-.5s1.9.2 1.3.5m6 0c-.7.2-1.9.2-2.5 0-.7-.3-.2-.5 1.2-.5s1.9.2 1.3.5m5 0c-.7.2-1.9.2-2.5 0-.7-.3-.2-.5 1.2-.5s1.9.2 1.3.5m6 0c-.7.2-1.9.2-2.5 0-.7-.3-.2-.5 1.2-.5s1.9.2 1.3.5m16.5 0c-1 .2-2.8.2-4 0-1.3-.2-.5-.4 1.7-.4 2.2-.1 3.2.1 2.3.4m361.9-.1c-.3.3-1.2.4-1.9.1-.8-.3-.5-.6.6-.6 1.1-.1 1.7.2 1.3.5m35.6.1c-.7.2-1.9.2-2.5 0-.7-.3-.2-.5 1.2-.5s1.9.2 1.3.5m4.4-.1c-.3.3-1.2.4-1.9.1-.8-.3-.5-.6.6-.6 1.1-.1 1.7.2 1.3.5m11 0c-.3.3-1.2.4-1.9.1-.8-.3-.5-.6.6-.6 1.1-.1 1.7.2 1.3.5m4.6.1c-.7.2-1.9.2-2.5 0-.7-.3-.2-.5 1.2-.5s1.9.2 1.3.5m35.4-.1c-.3.3-1.2.4-1.9.1-.8-.3-.5-.6.6-.6 1.1-.1 1.7.2 1.3.5m12 0c-.3.3-1.2.4-1.9.1-.8-.3-.5-.6.6-.6 1.1-.1 1.7.2 1.3.5M272 273.1c0 .6-.4.7-1 .4-.5-.3-1-1.1-1-1.6 0-.6.5-.7 1-.4.6.3 1 1.1 1 1.6m172.3 1.6c-.7.2-1.9.2-2.5 0-.7-.3-.2-.5 1.2-.5s1.9.2 1.3.5m5 0c-.7.2-1.9.2-2.5 0-.7-.3-.2-.5 1.2-.5s1.9.2 1.3.5m6 0c-.7.2-1.9.2-2.5 0-.7-.3-.2-.5 1.2-.5s1.9.2 1.3.5m5 0c-.7.2-1.9.2-2.5 0-.7-.3-.2-.5 1.2-.5s1.9.2 1.3.5m6 0c-.7.2-1.9.2-2.5 0-.7-.3-.2-.5 1.2-.5s1.9.2 1.3.5m13.4-.1c-.3.3-1.2.4-1.9.1-.8-.3-.5-.6.6-.6 1.1-.1 1.7.2 1.3.5m365 0c-.3.3-1.2.4-1.9.1-.8-.3-.5-.6.6-.6 1.1-.1 1.7.2 1.3.5m36 0c-.3.3-1.2.4-1.9.1-.8-.3-.5-.6.6-.6 1.1-.1 1.7.2 1.3.5m4 0c-.3.3-1.2.4-1.9.1-.8-.3-.5-.6.6-.6 1.1-.1 1.7.2 1.3.5m6 0c-.3.3-1.2.4-1.9.1-.8-.3-.5-.6.6-.6 1.1-.1 1.7.2 1.3.5m5 0c-.3.3-1.2.4-1.9.1-.8-.3-.5-.6.6-.6 1.1-.1 1.7.2 1.3.5m5 0c-.3.3-1.2.4-1.9.1-.8-.3-.5-.6.6-.6 1.1-.1 1.7.2 1.3.5M273 279.7c0 1.6 1.4 10.2 3 19.3 1.7 9.1 3 17.2 3 18.1 0 1.2-1.3 1.8-4.7 2.3-2.7.4-6.5.9-8.7 1.2-3.4.5-3.7.4-3.2-1.2.9-2.9 5.7-31.2 6.3-37.2.4-4.2.9-5.2 2.4-5.2 1.4 0 1.9.7 1.9 2.7m571.7-2.1c-.3.3-1.2.4-1.9.1-.8-.3-.5-.6.6-.6 1.1-.1 1.7.2 1.3.5m35.6.1c-.7.2-1.9.2-2.5 0-.7-.3-.2-.5 1.2-.5s1.9.2 1.3.5m4.4-.1c-.3.3-1.2.4-1.9.1-.8-.3-.5-.6.6-.6 1.1-.1 1.7.2 1.3.5m5.6.1c-.7.2-1.9.2-2.5 0-.7-.3-.2-.5 1.2-.5s1.9.2 1.3.5m5.4-.1c-.3.3-1.2.4-1.9.1-.8-.3-.5-.6.6-.6 1.1-.1 1.7.2 1.3.5m4.6.1c-.7.2-1.9.2-2.5 0-.7-.3-.2-.5 1.2-.5s1.9.2 1.3.5m35.4-.1c-.3.3-1.2.4-1.9.1-.8-.3-.5-.6.6-.6 1.1-.1 1.7.2 1.3.5m14.1.1c-1 .2-2.6.2-3.5 0-1-.3-.2-.5 1.7-.5s2.7.2 1.8.5m9.5 0c-.7.2-1.9.2-2.5 0-.7-.3-.2-.5 1.2-.5s1.9.2 1.3.5m-515 1c-.7.2-1.9.2-2.5 0-.7-.3-.2-.5 1.2-.5s1.9.2 1.3.5m5 0c-.7.2-1.9.2-2.5 0-.7-.3-.2-.5 1.2-.5s1.9.2 1.3.5m6 0c-.7.2-1.9.2-2.5 0-.7-.3-.2-.5 1.2-.5s1.9.2 1.3.5m5 0c-.7.2-1.9.2-2.5 0-.7-.3-.2-.5 1.2-.5s1.9.2 1.3.5m6 0c-.7.2-1.9.2-2.5 0-.7-.3-.2-.5 1.2-.5s1.9.2 1.3.5m13.4-.1c-.3.3-1.2.4-1.9.1-.8-.3-.5-.6.6-.6 1.1-.1 1.7.2 1.3.5m365 2c-.3.3-1.2.4-1.9.1-.8-.3-.5-.6.6-.6 1.1-.1 1.7.2 1.3.5m36 0c-.3.3-1.2.4-1.9.1-.8-.3-.5-.6.6-.6 1.1-.1 1.7.2 1.3.5m4 0c-.3.3-1.2.4-1.9.1-.8-.3-.5-.6.6-.6 1.1-.1 1.7.2 1.3.5m11 0c-.3.3-1.2.4-1.9.1-.8-.3-.5-.6.6-.6 1.1-.1 1.7.2 1.3.5m5 0c-.3.3-1.2.4-1.9.1-.8-.3-.5-.6.6-.6 1.1-.1 1.7.2 1.3.5m183.1 1.7c.4 2-2.5 3.4-4 1.9s-.1-4.4 1.9-4c1 .2 1.9 1.1 2.1 2.1m-634.5.4c-.7.2-1.9.2-2.5 0-.7-.3-.2-.5 1.2-.5s1.9.2 1.3.5m6 0c-.7.2-1.9.2-2.5 0-.7-.3-.2-.5 1.2-.5s1.9.2 1.3.5m5 0c-.7.2-1.9.2-2.5 0-.7-.3-.2-.5 1.2-.5s1.9.2 1.3.5m6 0c-.7.2-1.9.2-2.5 0-.7-.3-.2-.5 1.2-.5s1.9.2 1.3.5m13.4-.1c-.3.3-1.2.4-1.9.1-.8-.3-.5-.6.6-.6 1.1-.1 1.7.2 1.3.5m365 2c-.3.3-1.2.4-1.9.1-.8-.3-.5-.6.6-.6 1.1-.1 1.7.2 1.3.5m35.6.1c-.7.2-1.9.2-2.5 0-.7-.3-.2-.5 1.2-.5s1.9.2 1.3.5m4.4-.1c-.3.3-1.2.4-1.9.1-.8-.3-.5-.6.6-.6 1.1-.1 1.7.2 1.3.5m5.6.1c-.7.2-1.9.2-2.5 0-.7-.3-.2-.5 1.2-.5s1.9.2 1.3.5m5.4-.1c-.3.3-1.2.4-1.9.1-.8-.3-.5-.6.6-.6 1.1-.1 1.7.2 1.3.5m4.6.1c-.7.2-1.9.2-2.5 0-.7-.3-.2-.5 1.2-.5s1.9.2 1.3.5m-451 2c-.7.2-1.9.2-2.5 0-.7-.3-.2-.5 1.2-.5s1.9.2 1.3.5m6 0c-.7.2-1.9.2-2.5 0-.7-.3-.2-.5 1.2-.5s1.9.2 1.3.5m5 0c-.7.2-1.9.2-2.5 0-.7-.3-.2-.5 1.2-.5s1.9.2 1.3.5m6 0c-.7.2-1.9.2-2.5 0-.7-.3-.2-.5 1.2-.5s1.9.2 1.3.5m13.4-.1c-.3.3-1.2.4-1.9.1-.8-.3-.5-.6.6-.6 1.1-.1 1.7.2 1.3.5m365 1c-.3.3-1.2.4-1.9.1-.8-.3-.5-.6.6-.6 1.1-.1 1.7.2 1.3.5m35.6.1c-.7.2-1.9.2-2.5 0-.7-.3-.2-.5 1.2-.5s1.9.2 1.3.5m4.4-.1c-.3.3-1.2.4-1.9.1-.8-.3-.5-.6.6-.6 1.1-.1 1.7.2 1.3.5m6 0c-.3.3-1.2.4-1.9.1-.8-.3-.5-.6.6-.6 1.1-.1 1.7.2 1.3.5m5 0c-.3.3-1.2.4-1.9.1-.8-.3-.5-.6.6-.6 1.1-.1 1.7.2 1.3.5m4.6.1c-.7.2-1.9.2-2.5 0-.7-.3-.2-.5 1.2-.5s1.9.2 1.3.5m35.4-.1c-.3.3-1.2.4-1.9.1-.8-.3-.5-.6.6-.6 1.1-.1 1.7.2 1.3.5m14.1.1c-1 .2-2.6.2-3.5 0-1-.3-.2-.5 1.7-.5s2.7.2 1.8.5m-500.5 3c-.7.2-1.9.2-2.5 0-.7-.3-.2-.5 1.2-.5s1.9.2 1.3.5m6 0c-.7.2-1.9.2-2.5 0-.7-.3-.2-.5 1.2-.5s1.9.2 1.3.5m5 0c-.7.2-1.9.2-2.5 0-.7-.3-.2-.5 1.2-.5s1.9.2 1.3.5m6 0c-.7.2-1.9.2-2.5 0-.7-.3-.2-.5 1.2-.5s1.9.2 1.3.5m13.4-.1c-.3.3-1.2.4-1.9.1-.8-.3-.5-.6.6-.6 1.1-.1 1.7.2 1.3.5m405 0c-.3.3-1.2.4-1.9.1-.8-.3-.5-.6.6-.6 1.1-.1 1.7.2 1.3.5m11 0c-.3.3-1.2.4-1.9.1-.8-.3-.5-.6.6-.6 1.1-.1 1.7.2 1.3.5m5 0c-.3.3-1.2.4-1.9.1-.8-.3-.5-.6.6-.6 1.1-.1 1.7.2 1.3.5m184.3 1.9c0 1.4-.4 2.5-1 2.5-.8 0-.8-2.3-.1-4.8.4-1.2 1.1.3 1.1 2.3m-4 1.5c0 .5-.4 1-.9 1-.6 0-1.3-.5-1.6-1-.3-.6.1-1 .9-1 .9 0 1.6.4 1.6 1m-631.7.7c-.7.2-1.9.2-2.5 0-.7-.3-.2-.5 1.2-.5s1.9.2 1.3.5m6 0c-.7.2-1.9.2-2.5 0-.7-.3-.2-.5 1.2-.5s1.9.2 1.3.5m5 0c-.7.2-1.9.2-2.5 0-.7-.3-.2-.5 1.2-.5s1.9.2 1.3.5m6 0c-.7.2-1.9.2-2.5 0-.7-.3-.2-.5 1.2-.5s1.9.2 1.3.5m13.4-.1c-.3.3-1.2.4-1.9.1-.8-.3-.5-.6.6-.6 1.1-.1 1.7.2 1.3.5m365 0c-.3.3-1.2.4-1.9.1-.8-.3-.5-.6.6-.6 1.1-.1 1.7.2 1.3.5m35.6.1c-.7.2-1.9.2-2.5 0-.7-.3-.2-.5 1.2-.5s1.9.2 1.3.5m4.4-.1c-.3.3-1.2.4-1.9.1-.8-.3-.5-.6.6-.6 1.1-.1 1.7.2 1.3.5m5.6.1c-.7.2-1.9.2-2.5 0-.7-.3-.2-.5 1.2-.5s1.9.2 1.3.5m5.4-.1c-.3.3-1.2.4-1.9.1-.8-.3-.5-.6.6-.6 1.1-.1 1.7.2 1.3.5m4.6.1c-.7.2-1.9.2-2.5 0-.7-.3-.2-.5 1.2-.5s1.9.2 1.3.5m35.4-.1c-.3.3-1.2.4-1.9.1-.8-.3-.5-.6.6-.6 1.1-.1 1.7.2 1.3.5m-91 3c-.3.3-1.2.4-1.9.1-.8-.3-.5-.6.6-.6 1.1-.1 1.7.2 1.3.5m35.6.1c-.7.2-1.9.2-2.5 0-.7-.3-.2-.5 1.2-.5s1.9.2 1.3.5m4.4-.1c-.3.3-1.2.4-1.9.1-.8-.3-.5-.6.6-.6 1.1-.1 1.7.2 1.3.5m11 0c-.3.3-1.2.4-1.9.1-.8-.3-.5-.6.6-.6 1.1-.1 1.7.2 1.3.5m4.6.1c-.7.2-1.9.2-2.5 0-.7-.3-.2-.5 1.2-.5s1.9.2 1.3.5m35.4-.1c-.3.3-1.2.4-1.9.1-.8-.3-.5-.6.6-.6 1.1-.1 1.7.2 1.3.5m-486.4 1.1c-.7.2-1.9.2-2.5 0-.7-.3-.2-.5 1.2-.5s1.9.2 1.3.5m6 0c-.7.2-1.9.2-2.5 0-.7-.3-.2-.5 1.2-.5s1.9.2 1.3.5m5 0c-.7.2-1.9.2-2.5 0-.7-.3-.2-.5 1.2-.5s1.9.2 1.3.5m6 0c-.7.2-1.9.2-2.5 0-.7-.3-.2-.5 1.2-.5s1.9.2 1.3.5m13.4-.1c-.3.3-1.2.4-1.9.1-.8-.3-.5-.6.6-.6 1.1-.1 1.7.2 1.3.5M1085 302c0 1.6-.4 3-.9 3s-.8-1.4-.7-3c0-1.7.4-3 .8-3 .5 0 .8 1.3.8 3m-240.3-.4c-.3.3-1.2.4-1.9.1-.8-.3-.5-.6.6-.6 1.1-.1 1.7.2 1.3.5m40 0c-.3.3-1.2.4-1.9.1-.8-.3-.5-.6.6-.6 1.1-.1 1.7.2 1.3.5m6 0c-.3.3-1.2.4-1.9.1-.8-.3-.5-.6.6-.6 1.1-.1 1.7.2 1.3.5m5 0c-.3.3-1.2.4-1.9.1-.8-.3-.5-.6.6-.6 1.1-.1 1.7.2 1.3.5m185 0c-.3.3-1.2.4-1.9.1-.8-.3-.5-.6.6-.6 1.1-.1 1.7.2 1.3.5m-631.4 1.1c-.7.2-1.9.2-2.5 0-.7-.3-.2-.5 1.2-.5s1.9.2 1.3.5m6 0c-.7.2-1.9.2-2.5 0-.7-.3-.2-.5 1.2-.5s1.9.2 1.3.5m5 0c-.7.2-1.9.2-2.5 0-.7-.3-.2-.5 1.2-.5s1.9.2 1.3.5m6 0c-.7.2-1.9.2-2.5 0-.7-.3-.2-.5 1.2-.5s1.9.2 1.3.5m13.4-.1c-.3.3-1.2.4-1.9.1-.8-.3-.5-.6.6-.6 1.1-.1 1.7.2 1.3.5M1081 304c0 .5-.4 1-1 1-.5 0-1-.5-1-1 0-.6.5-1 1-1 .6 0 1 .4 1 1m-236.3.6c-.3.3-1.2.4-1.9.1-.8-.3-.5-.6.6-.6 1.1-.1 1.7.2 1.3.5m35.6.1c-.7.2-1.9.2-2.5 0-.7-.3-.2-.5 1.2-.5s1.9.2 1.3.5m4.4-.1c-.3.3-1.2.4-1.9.1-.8-.3-.5-.6.6-.6 1.1-.1 1.7.2 1.3.5m5.6.1c-.7.2-1.9.2-2.5 0-.7-.3-.2-.5 1.2-.5s1.9.2 1.3.5m5.4-.1c-.3.3-1.2.4-1.9.1-.8-.3-.5-.6.6-.6 1.1-.1 1.7.2 1.3.5m4.6.1c-.7.2-1.9.2-2.5 0-.7-.3-.2-.5 1.2-.5s1.9.2 1.3.5m196.4 1.5c-.3.8-.6.5-.6-.6-.1-1.1.2-1.7.5-1.3.3.3.4 1.2.1 1.9m-30.2-.3c.3.5.1 1.2-.5 1.6-.5.3-1-.1-1-.9 0-1.8.6-2.1 1.5-.7m33.5 1.2c0 .5-.4.9-1 .9-.5 0-1-.7-1-1.6 0-.8.5-1.2 1-.9.6.3 1 1 1 1.6m-650.7-.4c-.7.2-1.9.2-2.5 0-.7-.3-.2-.5 1.2-.5s1.9.2 1.3.5m6 0c-.7.2-1.9.2-2.5 0-.7-.3-.2-.5 1.2-.5s1.9.2 1.3.5m5 0c-.7.2-1.9.2-2.5 0-.7-.3-.2-.5 1.2-.5s1.9.2 1.3.5m6 0c-.7.2-1.9.2-2.5 0-.7-.3-.2-.5 1.2-.5s1.9.2 1.3.5m13.4-.1c-.3.3-1.2.4-1.9.1-.8-.3-.5-.6.6-.6 1.1-.1 1.7.2 1.3.5m581.4 2.7c-.8.8-1.1.7-1.1-.4 0-2 1.3-3.4 1.8-1.9.3.7-.1 1.7-.7 2.3m2.6-1.1c-.3.8-.6.5-.6-.6-.1-1.1.2-1.7.5-1.3.3.3.4 1.2.1 1.9m38 0c-.3.8-.6.5-.6-.6-.1-1.1.2-1.7.5-1.3.3.3.4 1.2.1 1.9m-257-.6c-.3.3-1.2.4-1.9.1-.8-.3-.5-.6.6-.6 1.1-.1 1.7.2 1.3.5m35.6.1c-.7.2-1.9.2-2.5 0-.7-.3-.2-.5 1.2-.5s1.9.2 1.3.5m4.4-.1c-.3.3-1.2.4-1.9.1-.8-.3-.5-.6.6-.6 1.1-.1 1.7.2 1.3.5m11 0c-.3.3-1.2.4-1.9.1-.8-.3-.5-.6.6-.6 1.1-.1 1.7.2 1.3.5m4.6.1c-.7.2-1.9.2-2.5 0-.7-.3-.2-.5 1.2-.5s1.9.2 1.3.5m205.6.9c.6-.4 1.1-.1 1.1.7 0 1-.7 1.3-2 1-1.1-.3-2-1.3-2-2.2 0-1.3.2-1.3.9-.2.5.7 1.4 1 2 .7m-49.2 1.6c-.3.8-.6.5-.6-.6-.1-1.1.2-1.7.5-1.3.3.3.4 1.2.1 1.9m28.3 1.9c0 1.6-.4 2.8-.9 2.5-.5-.4-.8-1.4-.6-2.4.2-.9.4-2 .4-2.5.1-.4.3-.7.6-.7s.5 1.4.5 3.1m-635.7-1.4c-.7.2-1.9.2-2.5 0-.7-.3-.2-.5 1.2-.5s1.9.2 1.3.5m6 0c-.7.2-1.9.2-2.5 0-.7-.3-.2-.5 1.2-.5s1.9.2 1.3.5m5 0c-.7.2-1.9.2-2.5 0-.7-.3-.2-.5 1.2-.5s1.9.2 1.3.5m6 0c-.7.2-1.9.2-2.5 0-.7-.3-.2-.5 1.2-.5s1.9.2 1.3.5m13.4-.1c-.3.3-1.2.4-1.9.1-.8-.3-.5-.6.6-.6 1.1-.1 1.7.2 1.3.5m401 1c-.3.3-1.2.4-1.9.1-.8-.3-.5-.6.6-.6 1.1-.1 1.7.2 1.3.5m4 0c-.3.3-1.2.4-1.9.1-.8-.3-.5-.6.6-.6 1.1-.1 1.7.2 1.3.5m6 0c-.3.3-1.2.4-1.9.1-.8-.3-.5-.6.6-.6 1.1-.1 1.7.2 1.3.5m5 0c-.3.3-1.2.4-1.9.1-.8-.3-.5-.6.6-.6 1.1-.1 1.7.2 1.3.5m5 0c-.3.3-1.2.4-1.9.1-.8-.3-.5-.6.6-.6 1.1-.1 1.7.2 1.3.5m180 0c-.3.3-1.2.4-1.9.1-.8-.3-.5-.6.6-.6 1.1-.1 1.7.2 1.3.5m-631.4 3.1c-.7.2-1.9.2-2.5 0-.7-.3-.2-.5 1.2-.5s1.9.2 1.3.5m6 0c-.7.2-1.9.2-2.5 0-.7-.3-.2-.5 1.2-.5s1.9.2 1.3.5m5 0c-.7.2-1.9.2-2.5 0-.7-.3-.2-.5 1.2-.5s1.9.2 1.3.5m6 0c-.7.2-1.9.2-2.5 0-.7-.3-.2-.5 1.2-.5s1.9.2 1.3.5m13.4-.1c-.3.3-1.2.4-1.9.1-.8-.3-.5-.6.6-.6 1.1-.1 1.7.2 1.3.5m365 0c-.3.3-1.2.4-1.9.1-.8-.3-.5-.6.6-.6 1.1-.1 1.7.2 1.3.5m35.6.1c-.7.2-1.9.2-2.5 0-.7-.3-.2-.5 1.2-.5s1.9.2 1.3.5m4.4-.1c-.3.3-1.2.4-1.9.1-.8-.3-.5-.6.6-.6 1.1-.1 1.7.2 1.3.5m5.6.1c-.7.2-1.9.2-2.5 0-.7-.3-.2-.5 1.2-.5s1.9.2 1.3.5m5.4-.1c-.3.3-1.2.4-1.9.1-.8-.3-.5-.6.6-.6 1.1-.1 1.7.2 1.3.5m4.6.1c-.7.2-1.9.2-2.5 0-.7-.3-.2-.5 1.2-.5s1.9.2 1.3.5m-19.6 2.9c-.3.3-1.2.4-1.9.1-.8-.3-.5-.6.6-.6 1.1-.1 1.7.2 1.3.5m4 0c-.3.3-1.2.4-1.9.1-.8-.3-.5-.6.6-.6 1.1-.1 1.7.2 1.3.5m11 0c-.3.3-1.2.4-1.9.1-.8-.3-.5-.6.6-.6 1.1-.1 1.7.2 1.3.5m-446.4 1.1c-.7.2-1.9.2-2.5 0-.7-.3-.2-.5 1.2-.5s1.9.2 1.3.5m6 0c-.7.2-1.9.2-2.5 0-.7-.3-.2-.5 1.2-.5s1.9.2 1.3.5m5 0c-.7.2-1.9.2-2.5 0-.7-.3-.2-.5 1.2-.5s1.9.2 1.3.5m6 0c-.7.2-1.9.2-2.5 0-.7-.3-.2-.5 1.2-.5s1.9.2 1.3.5m13.4-.1c-.3.3-1.2.4-1.9.1-.8-.3-.5-.6.6-.6 1.1-.1 1.7.2 1.3.5m-361.3 3.9c-.4.8-.8 1.5-1 1.5s-.4-.7-.4-1.5.4-1.5 1-1.5c.5 0 .7.7.4 1.5m2.3.7c-.3.8-.6.5-.6-.6-.1-1.1.2-1.7.5-1.3.3.3.4 1.2.1 1.9m3.3-.7c0 .8-.4 1.5-1 1.5-.5 0-1-.7-1-1.5s.5-1.5 1-1.5c.6 0 1 .7 1 1.5m5 .2c0 1.5-.2 1.6-1 .3-.9-1.3-1.1-1.3-2 0-.8 1.3-1 1.2-1-.3 0-1 .8-1.7 2-1.7s2 .7 2 1.7m223 8.3v10h-28.4c-24.3 0-28.5-.2-29-1.5-.3-.8-1.2-1.5-2-1.5-.9 0-2-2-3-5.3-2.6-9.2-2.6-9.2 1.9-9.5 14.6-1 35-1.9 46.8-2.1l13.7-.1zm492.7-9.4c-.3.3-1.2.4-1.9.1-.8-.3-.5-.6.6-.6 1.1-.1 1.7.2 1.3.5m35.6.1c-.7.2-1.9.2-2.5 0-.7-.3-.2-.5 1.2-.5s1.9.2 1.3.5m4.4-.1c-.3.3-1.2.4-1.9.1-.8-.3-.5-.6.6-.6 1.1-.1 1.7.2 1.3.5m5.6.1c-.7.2-1.9.2-2.5 0-.7-.3-.2-.5 1.2-.5s1.9.2 1.3.5m5.4-.1c-.3.3-1.2.4-1.9.1-.8-.3-.5-.6.6-.6 1.1-.1 1.7.2 1.3.5m4.6.1c-.7.2-1.9.2-2.5 0-.7-.3-.2-.5 1.2-.5s1.9.2 1.3.5m184.7 1.8c0 1.4-.4 2.5-1 2.5-1.1 0-1.4-3.3-.3-4.3 1.1-1.1 1.3-.8 1.3 1.8m-635.7-.8c-.7.2-1.9.2-2.5 0-.7-.3-.2-.5 1.2-.5s1.9.2 1.3.5m6 0c-.7.2-1.9.2-2.5 0-.7-.3-.2-.5 1.2-.5s1.9.2 1.3.5m5 0c-.7.2-1.9.2-2.5 0-.7-.3-.2-.5 1.2-.5s1.9.2 1.3.5m6 0c-.7.2-1.9.2-2.5 0-.7-.3-.2-.5 1.2-.5s1.9.2 1.3.5m13.4-.1c-.3.3-1.2.4-1.9.1-.8-.3-.5-.6.6-.6 1.1-.1 1.7.2 1.3.5m600.8.4c-.3.5-1 1-1.6 1-.5 0-.9-.5-.9-1 0-.6.7-1 1.6-1 .8 0 1.2.4.9 1m-22.1 1.5c-.4.9 0 1.5.7 1.5 1.2 0 1.2.2 0 .9-.7.5-1 1.4-.7 2 .4.6.2 1.1-.3 1.1-.6 0-1.1-1.6-1.1-3.5s.4-3.5 1-3.5c.5 0 .7.7.4 1.5m14.6.5c0 1.1-.4 2-1 2-.5 0-1-.9-1-2s.5-2 1-2c.6 0 1 .9 1 2m18.6 0c0 1.1-.4 2-.8 2-1 0-1.1-2.4-.1-3.3.9-.9.9-1 .9 1.3m14.4 0c0 1.1-.4 2-1 2-.5 0-1-.9-1-2s.5-2 1-2c.6 0 1 .9 1 2m-824.5 3.7c.3 2.7.9 5.8 1.2 7 .4 1.7.1 2.3-1.1 2.3-.9 0-1.9.7-2.2 1.5-.5 1.2-2.4 1.5-8.4 1.5s-7.9-.3-8.4-1.5c-.3-.8-1.3-1.5-2.1-1.5-1.3 0-1.5-.7-1.1-3 .3-1.7.9-4.3 1.2-6 .6-3.1 1.7-3.5 10.9-4.3 9.9-.9 9.2-1.2 10 4m563.2-4.1c-.3.3-1.2.4-1.9.1-.8-.3-.5-.6.6-.6 1.1-.1 1.7.2 1.3.5m35.6.1c-.7.2-1.9.2-2.5 0-.7-.3-.2-.5 1.2-.5s1.9.2 1.3.5m4.4-.1c-.3.3-1.2.4-1.9.1-.8-.3-.5-.6.6-.6 1.1-.1 1.7.2 1.3.5m6 0c-.3.3-1.2.4-1.9.1-.8-.3-.5-.6.6-.6 1.1-.1 1.7.2 1.3.5m5 0c-.3.3-1.2.4-1.9.1-.8-.3-.5-.6.6-.6 1.1-.1 1.7.2 1.3.5m4.6.1c-.7.2-1.9.2-2.5 0-.7-.3-.2-.5 1.2-.5s1.9.2 1.3.5m-417.3 4c0 1.9-.5 2.3-3 2.3s-3-.4-3-2.3c0-2 .5-2.4 3-2.4s3 .4 3 2.4m-230.5 3c-.8 2.7-1.5 5.1-1.5 5.5 0 .5-.9.8-2 .8s-2 .7-2 1.5c0 1.3-2.6 1.5-17.5 1.5H212v-8.8l6.8-1.1c11.2-1.9 26.5-3.9 30.9-4l4.2-.1zm632-3.7c-.3.5-1.1 1-1.6 1-.6 0-.7-.5-.4-1 .3-.6 1.1-1 1.6-1 .6 0 .7.4.4 1m10.5 0c0 .5-.4 1-1 1-.5 0-1-.5-1-1 0-.6.5-1 1-1 .6 0 1 .4 1 1m178 1c0 .5-.4 1-1 1-.5 0-1-.5-1-1 0-.6.5-1 1-1 .6 0 1 .4 1 1m18.5 0c.3.5.1 1-.4 1-.6 0-1.1-.5-1.1-1 0-.6.2-1 .4-1 .3 0 .8.4 1.1 1m14.5 0c0 .5-.4 1-1 1-.5 0-1-.5-1-1 0-.6.5-1 1-1 .6 0 1 .4 1 1m-38.6 1.6c.3.9.6 3.6.6 6 0 3.7-.3 4.4-2 4.4s-2-.7-2-5.3c0-3 .3-5.7.7-6q1.65-1.65 2.7.9m32.4 5.3c.4 5 .4 5.1-2.2 5.1-2.4 0-2.6-.3-2.6-4.1 0-4.9 1.7-8.6 3.2-7.1.6.6 1.3 3.4 1.6 6.1M100 334.5c0 3.8-.3 4.5-2 4.5s-2-.7-2-4.5.3-4.5 2-4.5 2 .7 2 4.5m12.8.6c-.5 3.5-2.8 3.6-2.8.1 0-1.6.3-3.2.7-3.6 1.1-1.1 2.5 1 2.1 3.5m8.2-.6c0 1.9-.4 3.5-1 3.5-.5 0-1-1.6-1-3.5s.5-3.5 1-3.5c.6 0 1 1.6 1 3.5m6 0c0 1.9-.4 3.5-1 3.5-.5 0-1-1.6-1-3.5s.5-3.5 1-3.5c.6 0 1 1.6 1 3.5m9 .6q0 3-1.2 2.7c-1.5-.5-2.2-3.3-1.4-5.4.9-2.4 2.6-.6 2.6 2.7m708.7-3.5c-.3.3-1.2.4-1.9.1-.8-.3-.5-.6.6-.6 1.1-.1 1.7.2 1.3.5m35.6.1c-.7.2-1.9.2-2.5 0-.7-.3-.2-.5 1.2-.5s1.9.2 1.3.5m4.4-.1c-.3.3-1.2.4-1.9.1-.8-.3-.5-.6.6-.6 1.1-.1 1.7.2 1.3.5m5.6.1c-.7.2-1.9.2-2.5 0-.7-.3-.2-.5 1.2-.5s1.9.2 1.3.5m5.4-.1c-.3.3-1.2.4-1.9.1-.8-.3-.5-.6.6-.6 1.1-.1 1.7.2 1.3.5m4.6.1c-.7.2-1.9.2-2.5 0-.7-.3-.2-.5 1.2-.5s1.9.2 1.3.5m158.2.3c.3.5.1 1-.4 1-.6 0-1.1-.5-1.1-1 0-.6.2-1 .4-1 .3 0 .8.4 1.1 1m14.5 0c0 .5-.4 1-1 1-.5 0-1-.5-1-1 0-.6.5-1 1-1 .6 0 1 .4 1 1m18.5 0c.3.5.1 1-.4 1-.6 0-1.1-.5-1.1-1 0-.6.2-1 .4-1 .3 0 .8.4 1.1 1m14.5 0c0 .5-.4 1-1 1-.5 0-1-.5-1-1 0-.6.5-1 1-1 .6 0 1 .4 1 1m-917.3 6.2c-.2 1.3-.4.3-.4-2.2s.2-3.5.4-2.3c.2 1.3.2 3.3 0 4.5m4.3-2.2c0 2.2-.4 4-1 4-.5 0-1-1.8-1-4s.5-4 1-4c.6 0 1 1.8 1 4m4 0c0 2.2-.4 4-1 4-.5 0-1-1.8-1-4s.5-4 1-4c.6 0 1 1.8 1 4m4 0c0 2.2-.4 4-1 4-.5 0-1-1.8-1-4s.5-4 1-4c.6 0 1 1.8 1 4m4 0c0 2.2-.4 4-1 4-.5 0-1-1.8-1-4s.5-4 1-4c.6 0 1 1.8 1 4m4 0c0 2.2-.4 4-1 4-.5 0-1-1.8-1-4s.5-4 1-4c.6 0 1 1.8 1 4m874.8-2.8c.7.7 1.2 2.7 1.2 4.5 0 3.1-.2 3.3-3.5 3.3-3.1 0-3.5-.3-3.5-2.6 0-5.2 3.1-7.9 5.8-5.2M483 336.5c0 2.1-.5 2.5-3 2.5s-3-.4-3-2.5.5-2.5 3-2.5 3 .4 3 2.5m361.7-1.9c-.3.3-1.2.4-1.9.1-.8-.3-.5-.6.6-.6 1.1-.1 1.7.2 1.3.5m35.6.1c-.7.2-1.9.2-2.5 0-.7-.3-.2-.5 1.2-.5s1.9.2 1.3.5m4.4-.1c-.3.3-1.2.4-1.9.1-.8-.3-.5-.6.6-.6 1.1-.1 1.7.2 1.3.5m11 0c-.3.3-1.2.4-1.9.1-.8-.3-.5-.6.6-.6 1.1-.1 1.7.2 1.3.5m4.6.1c-.7.2-1.9.2-2.5 0-.7-.3-.2-.5 1.2-.5s1.9.2 1.3.5m159.7.9c0 .2-.7.4-1.5.4s-1.5-.4-1.5-1c0-.5.7-.7 1.5-.4.8.4 1.5.8 1.5 1m13-.6c0 .5-.4 1-1 1-.5 0-1-.5-1-1 0-.6.5-1 1-1 .6 0 1 .4 1 1m18.5 0c.3.5.1 1-.4 1-.6 0-1.1-.5-1.1-1 0-.6.2-1 .4-1 .3 0 .8.4 1.1 1m14.5 0c0 .5-.4 1-1 1-.5 0-1-.5-1-1 0-.6.5-1 1-1 .6 0 1 .4 1 1m-46.5 3c.3.5-.1 1-.9 1-.9 0-1.6-.5-1.6-1 0-.6.4-1 .9-1 .6 0 1.3.4 1.6 1m13.5 0c0 .5-.4 1-1 1-.5 0-1-.5-1-1 0-.6.5-1 1-1 .6 0 1 .4 1 1m19 0c0 .5-.4 1-1 1-.5 0-1-.5-1-1 0-.6.5-1 1-1 .6 0 1 .4 1 1m14 0c0 .5-.4 1-1 1-.5 0-1-.5-1-1 0-.6.5-1 1-1 .6 0 1 .4 1 1m-225.3.6c-.3.3-1.2.4-1.9.1-.8-.3-.5-.6.6-.6 1.1-.1 1.7.2 1.3.5m4 0c-.3.3-1.2.4-1.9.1-.8-.3-.5-.6.6-.6 1.1-.1 1.7.2 1.3.5m6 0c-.3.3-1.2.4-1.9.1-.8-.3-.5-.6.6-.6 1.1-.1 1.7.2 1.3.5m5 0c-.3.3-1.2.4-1.9.1-.8-.3-.5-.6.6-.6 1.1-.1 1.7.2 1.3.5"/><path d="M463.6 206c.2 1.9.3 3.6.4 3.7 0 .2.5.3 1 .3.6 0 1-.9 1-2s-.4-2-.9-2-1.2-.8-1.4-1.8c-.2-.9-.3-.1-.1 1.8"/><path d="M196 232c0 1.3.7 2 2 2 1.1 0 2-.3 2-.8 0-.4-.9-1.3-2-2-1.8-1.1-2-1-2 .8"/><path d="M443.3 378.7c86.3.2 227.1.2 313 0 85.9-.1 15.4-.2-156.8-.2-172.1 0-242.4.1-156.2.2"/></g></svg>