<svg width="33" height="43" viewBox="0 0 33 43" fill="none" xmlns="http://www.w3.org/2000/svg">
<path d="M16.8823 26.7617C15.6097 26.7617 14.8672 27.9724 14.8672 29.5935C14.8672 31.225 15.6324 32.3779 16.8946 32.3779C18.1672 32.3779 18.8973 31.1652 18.8973 29.544C18.8973 28.0467 18.1796 26.7617 16.8823 26.7617Z" fill="#0385FF"/>
<path d="M20.625 0.875H4.125C3.03098 0.875 1.98177 1.3096 1.20818 2.08318C0.434597 2.85677 0 3.90598 0 5V38C0 39.094 0.434597 40.1432 1.20818 40.9168C1.98177 41.6904 3.03098 42.125 4.125 42.125H28.875C29.969 42.125 31.0182 41.6904 31.7918 40.9168C32.5654 40.1432 33 39.094 33 38V13.25L20.625 0.875ZM10.6322 32.7489C9.75356 33.479 8.41912 33.8234 6.78769 33.8234C5.808 33.8234 5.11706 33.7616 4.64681 33.6997V25.5095C5.49032 25.388 6.34183 25.3308 7.194 25.3383C8.778 25.3383 9.80512 25.6229 10.6074 26.2293C11.4737 26.8728 12.0182 27.8999 12.0182 29.3684C12.0182 30.9669 11.4366 32.0683 10.6322 32.7489ZM16.7991 33.875C14.3241 33.875 12.8783 32.0064 12.8783 29.6304C12.8783 27.1327 14.4726 25.2661 16.9352 25.2661C19.4948 25.2661 20.8931 27.1822 20.8931 29.4839C20.8911 32.2168 19.2328 33.875 16.7991 33.875ZM26.4 32.3034C26.9672 32.3034 27.5983 32.1776 27.9716 32.0311L28.2563 33.5017C27.9098 33.6749 27.1301 33.8606 26.1174 33.8606C23.2361 33.8606 21.7511 32.0683 21.7511 29.6922C21.7511 26.8481 23.7786 25.2661 26.3031 25.2661C27.2807 25.2661 28.0211 25.4641 28.3552 25.6374L27.9716 27.1348C27.4695 26.9272 26.931 26.822 26.3876 26.8254C24.8903 26.8254 23.727 27.7288 23.727 29.585C23.727 31.2536 24.717 32.3034 26.4 32.3034ZM20.625 15.3125H18.5625V5L28.875 15.3125H20.625Z" fill="#0385FF"/>
<path d="M7.39149 26.7832C6.9728 26.7832 6.70055 26.8203 6.53967 26.8575V32.3128C6.70055 32.3499 6.96042 32.3499 7.19349 32.3499C8.90124 32.3623 10.0129 31.4238 10.0129 29.4315C10.0253 27.699 9.01261 26.7832 7.39149 26.7832Z" fill="#0385FF"/>
</svg>
