<svg width="80" height="80" viewBox="0 0 80 80" fill="none" xmlns="http://www.w3.org/2000/svg">
<circle cx="40" cy="40.2194" r="39.7194" fill="#FBE9E9"/>
<path d="M55.3835 44.5069L45.296 26.3492C43.9405 23.9062 42.0648 22.5664 40 22.5664C37.9352 22.5664 36.0596 23.9062 34.704 26.3492L24.6165 44.5069C23.3398 46.8238 23.1979 49.0463 24.2224 50.7958C25.2469 52.5454 27.2645 53.5069 29.9124 53.5069H50.0876C52.7356 53.5069 54.7531 52.5454 55.7776 50.7958C56.8021 49.0463 56.6603 46.8081 55.3835 44.5069ZM38.8179 33.5997C38.8179 32.9534 39.3538 32.4175 40 32.4175C40.6462 32.4175 41.1821 32.9534 41.1821 33.5997V41.4806C41.1821 42.1268 40.6462 42.6627 40 42.6627C39.3538 42.6627 38.8179 42.1268 38.8179 41.4806V33.5997ZM41.1191 47.3282C41.0403 47.3913 40.9615 47.4543 40.8827 47.5174C40.7881 47.5804 40.6935 47.6277 40.599 47.6592C40.5044 47.7065 40.4098 47.738 40.2995 47.7538C40.2049 47.7696 40.0946 47.7853 40 47.7853C39.9054 47.7853 39.7951 47.7696 39.6848 47.7538C39.5902 47.738 39.4956 47.7065 39.4011 47.6592C39.3065 47.6277 39.2119 47.5804 39.1173 47.5174C39.0385 47.4543 38.9597 47.3913 38.8809 47.3282C38.5972 47.0287 38.4238 46.6189 38.4238 46.2091C38.4238 45.7993 38.5972 45.3895 38.8809 45.09C38.9597 45.027 39.0385 44.964 39.1173 44.9009C39.2119 44.8379 39.3065 44.7906 39.4011 44.759C39.4956 44.7118 39.5902 44.6802 39.6848 44.6645C39.8897 44.6172 40.1103 44.6172 40.2995 44.6645C40.4098 44.6802 40.5044 44.7118 40.599 44.759C40.6935 44.7906 40.7881 44.8379 40.8827 44.9009C40.9615 44.964 41.0403 45.027 41.1191 45.09C41.4028 45.3895 41.5762 45.7993 41.5762 46.2091C41.5762 46.6189 41.4028 47.0287 41.1191 47.3282Z" fill="#D42620"/>
</svg>
