<svg width="104" height="74" viewBox="0 0 104 74" fill="none" xmlns="http://www.w3.org/2000/svg">
<path d="M103.051 5.01654H5.65332V73.744H103.051V5.01654Z" fill="#0266F3"/>
<path d="M100.225 0H2.82617V68.7275H100.225V0Z" fill="#B9D6FF"/>
<path d="M100.225 0H2.82617V6.43817H100.225V0Z" fill="#E0EDFF"/>
<path d="M88.1877 3.02185C88.1877 4.01594 87.3827 4.82253 86.3878 4.82253C85.3937 4.82253 84.5879 4.01675 84.5879 3.02185C84.5879 2.02775 85.3929 1.22278 86.3878 1.22278C87.3827 1.22278 88.1877 2.02775 88.1877 3.02185Z" fill="white"/>
<path d="M93.2277 3.02197C93.2277 4.01606 92.4227 4.82265 91.4278 4.82265C90.4329 4.82265 89.6279 4.01687 89.6279 3.02197C89.6279 2.02788 90.4329 1.2229 91.4278 1.2229C92.4227 1.2229 93.2277 2.02788 93.2277 3.02197Z" fill="#8FBDFF"/>
<path d="M98.0467 3.02197C98.0467 4.01606 97.2401 4.82265 96.2452 4.82265C95.2519 4.82265 94.4453 4.01687 94.4453 3.02197C94.4453 2.02788 95.2519 1.2229 96.2452 1.2229C97.2401 1.2229 98.0467 2.02788 98.0467 3.02197Z" fill="#002D6E"/>
<path d="M92.1995 15.8255C92.1995 16.4486 91.6944 16.9538 91.0713 16.9538H39.1343C38.5112 16.9538 38.0068 16.4486 38.0068 15.8255C38.0068 15.2024 38.5103 14.6981 39.1343 14.6981H91.0713C91.6944 14.6989 92.1995 15.2032 92.1995 15.8255Z" fill="white"/>
<path d="M92.1995 22.0382C92.1995 22.6613 91.6944 23.1665 91.0713 23.1665H39.1343C38.5112 23.1665 38.0068 22.6613 38.0068 22.0382C38.0068 21.4167 38.5103 20.9108 39.1343 20.9108H91.0713C91.6944 20.9108 92.1995 21.4167 92.1995 22.0382Z" fill="white"/>
<path d="M92.1995 28.2509C92.1995 28.874 91.6944 29.3792 91.0713 29.3792H39.1343C38.5112 29.3792 38.0068 28.8749 38.0068 28.2509C38.0068 27.6286 38.5103 27.1235 39.1343 27.1235H91.0713C91.6944 27.1243 92.1995 27.6294 92.1995 28.2509Z" fill="white"/>
<path d="M62.8721 34.4644C62.8721 35.0875 62.367 35.5926 61.7447 35.5926H39.1343C38.5112 35.5926 38.0068 35.0875 38.0068 34.4644C38.0068 33.8412 38.5103 33.3369 39.1343 33.3369H61.7447C62.367 33.3369 62.8721 33.8412 62.8721 34.4644Z" fill="white"/>
<path d="M64.5593 40.5074C64.5593 41.1305 64.0541 41.6356 63.431 41.6356H10.7505C10.1282 41.6356 9.62305 41.1305 9.62305 40.5074C9.62305 39.8842 10.1282 39.3807 10.7505 39.3807H63.431C64.0541 39.3807 64.5593 39.8851 64.5593 40.5074Z" fill="white"/>
<path d="M64.5593 46.7209C64.5593 47.344 64.0541 47.8491 63.431 47.8491H10.7505C10.1282 47.8491 9.62305 47.344 9.62305 46.7209C9.62305 46.0978 10.1282 45.5942 10.7505 45.5942H63.431C64.0541 45.5934 64.5593 46.0978 64.5593 46.7209Z" fill="white"/>
<path d="M64.5593 52.9335C64.5593 53.5566 64.0541 54.0618 63.431 54.0618H10.7505C10.1282 54.0618 9.62305 53.5566 9.62305 52.9335C9.62305 52.3104 10.1282 51.8069 10.7505 51.8069H63.431C64.0541 51.8069 64.5593 52.3112 64.5593 52.9335Z" fill="white"/>
<path d="M55.9567 59.1463C55.9567 59.7694 55.45 60.2745 54.8285 60.2745H10.7505C10.1282 60.2745 9.62305 59.7694 9.62305 59.1463C9.62305 58.5239 10.1282 58.0188 10.7505 58.0188H54.8277C55.45 58.0188 55.9567 58.5239 55.9567 59.1463Z" fill="white"/>
<path d="M93.4275 37.1378H70.291V60.2743H93.4275V37.1378Z" fill="white"/>
<path d="M33.834 24.4449C33.834 30.9752 28.5411 36.2689 22.0108 36.2689C15.4805 36.2689 10.1875 30.9752 10.1875 24.4449C10.1875 17.9162 15.4805 12.6224 22.0108 12.6224C28.5411 12.6224 33.834 17.9162 33.834 24.4449Z" fill="white"/>
<path d="M22.0111 22.8291C23.7966 22.8291 25.244 21.3817 25.244 19.5962C25.244 17.8108 23.7966 16.3634 22.0111 16.3634C20.2257 16.3634 18.7783 17.8108 18.7783 19.5962C18.7783 21.3817 20.2257 22.8291 22.0111 22.8291Z" fill="#0266F3"/>
<path d="M28.4762 28.8906C28.4762 30.899 28.4762 32.5275 22.0106 32.5275C15.5449 32.5275 15.5449 30.899 15.5449 28.8906C15.5449 26.8822 18.4399 25.2537 22.0106 25.2537C25.5812 25.2537 28.4762 26.8822 28.4762 28.8906Z" fill="#0266F3"/>
<path d="M78.5152 47.8285H77.2383V49.1063H78.5152V47.8285Z" stroke="#0266F3" stroke-width="0.808207" stroke-miterlimit="10"/>
<path d="M81.1705 47.8285H79.8936V49.1063H81.1705V47.8285Z" stroke="#0266F3" stroke-width="0.808207" stroke-miterlimit="10"/>
<path d="M83.8248 47.8285H82.5479V49.1063H83.8248V47.8285Z" stroke="#0266F3" stroke-width="0.808207" stroke-miterlimit="10"/>
<path d="M86.482 47.8285H85.2051V49.1063H86.482V47.8285Z" stroke="#0266F3" stroke-width="0.808207" stroke-miterlimit="10"/>
<path d="M78.5152 50.1213H77.2383V51.3991H78.5152V50.1213Z" stroke="#0266F3" stroke-width="0.808207" stroke-miterlimit="10"/>
<path d="M81.1705 50.1215H79.8936V51.3992H81.1705V50.1215Z" stroke="#0266F3" stroke-width="0.808207" stroke-miterlimit="10"/>
<path d="M83.8248 50.1215H82.5479V51.3992H83.8248V50.1215Z" stroke="#0266F3" stroke-width="0.808207" stroke-miterlimit="10"/>
<path d="M86.482 50.1215H85.2051V51.3992H86.482V50.1215Z" stroke="#0266F3" stroke-width="0.808207" stroke-miterlimit="10"/>
<path d="M78.5152 52.4143H77.2383V53.6913H78.5152V52.4143Z" stroke="#0266F3" stroke-width="0.808207" stroke-miterlimit="10"/>
<path d="M81.1705 52.4142H79.8936V53.6912H81.1705V52.4142Z" stroke="#0266F3" stroke-width="0.808207" stroke-miterlimit="10"/>
<path d="M83.8248 52.4142H82.5479V53.6912H83.8248V52.4142Z" stroke="#0266F3" stroke-width="0.808207" stroke-miterlimit="10"/>
<path d="M86.482 52.4142H85.2051V53.6912H86.482V52.4142Z" stroke="#0266F3" stroke-width="0.808207" stroke-miterlimit="10"/>
<path d="M88.6459 44.1602H87.7334V44.8665C87.7334 45.1769 87.4821 45.4282 87.1733 45.4282C86.8622 45.4282 86.6116 45.1761 86.6116 44.8665V44.1602H84.1919V44.8665C84.1919 45.1769 83.9405 45.4282 83.6302 45.4282C83.3206 45.4282 83.0701 45.1761 83.0701 44.8665V44.1602H80.6519V44.8665C80.6519 45.1769 80.3989 45.4282 80.0902 45.4282C79.779 45.4282 79.5285 45.1761 79.5285 44.8665V44.1602H77.1104V44.8665C77.1104 45.1769 76.8574 45.4282 76.5486 45.4282C76.2375 45.4282 75.9869 45.1761 75.9869 44.8665V44.1602H75.0761C74.4732 44.1602 73.9834 44.6483 73.9834 45.2512V46.3431H89.7386V45.2512C89.737 44.6483 89.2472 44.1602 88.6459 44.1602Z" stroke="#0266F3" stroke-width="0.808207" stroke-miterlimit="10"/>
<path d="M88.335 54.2886V53.0933" stroke="#0266F3" stroke-width="0.808207" stroke-miterlimit="10"/>
<path d="M88.335 52.496V51.3022" stroke="#0266F3" stroke-width="0.808207" stroke-miterlimit="10"/>
<path d="M88.335 50.7025V49.5088" stroke="#0266F3" stroke-width="0.808207" stroke-miterlimit="10"/>
<path d="M88.335 48.9115V47.7162" stroke="#0266F3" stroke-width="0.808207" stroke-miterlimit="10"/>
<path d="M75.459 51.2513V54.4931H76.546" stroke="#0266F3" stroke-width="0.808207" stroke-miterlimit="10"/>
<path d="M88.6459 44.1602H87.7334V44.8665C87.7334 45.1769 87.4821 45.4282 87.1733 45.4282C86.8622 45.4282 86.6116 45.1761 86.6116 44.8665V44.1602H84.1919V44.8665C84.1919 45.1769 83.9405 45.4282 83.6302 45.4282C83.3206 45.4282 83.0701 45.1761 83.0701 44.8665V44.1602H80.6519V44.8665C80.6519 45.1769 80.3989 45.4282 80.0902 45.4282C79.779 45.4282 79.5285 45.1761 79.5285 44.8665V44.1602H77.1104V44.8665C77.1104 45.1769 76.8574 45.4282 76.5486 45.4282C76.2375 45.4282 75.9869 45.1761 75.9869 44.8665V44.1602H75.0761C74.4732 44.1602 73.9834 44.6483 73.9834 45.2512V54.3945C73.9834 54.9974 74.4724 55.4864 75.0761 55.4864H88.6483C89.2496 55.4864 89.7394 54.9982 89.7394 54.3945V45.2512C89.737 44.6483 89.2472 44.1602 88.6459 44.1602Z" stroke="#0266F3" stroke-width="0.808207" stroke-miterlimit="10"/>
<path d="M77.1088 44.8666C77.1088 45.1769 76.8558 45.4283 76.547 45.4283C76.2359 45.4283 75.9854 45.1761 75.9854 44.8666V43.0141C75.9854 42.7038 76.2367 42.4532 76.547 42.4532C76.8566 42.4532 77.1088 42.7046 77.1088 43.0141V44.8666Z" stroke="#0266F3" stroke-width="0.808207" stroke-miterlimit="10"/>
<path d="M80.6498 44.8666C80.6498 45.1769 80.3968 45.4283 80.0881 45.4283C79.7769 45.4283 79.5264 45.1761 79.5264 44.8666V43.0141C79.5264 42.7038 79.7777 42.4532 80.0881 42.4532C80.3976 42.4532 80.6498 42.7046 80.6498 43.0141V44.8666Z" stroke="#0266F3" stroke-width="0.808207" stroke-miterlimit="10"/>
<path d="M84.1911 44.8666C84.1911 45.1769 83.9398 45.4283 83.6294 45.4283C83.3199 45.4283 83.0693 45.1761 83.0693 44.8666V43.0141C83.0693 42.7038 83.3207 42.4532 83.6294 42.4532C83.9406 42.4532 84.1911 42.7046 84.1911 43.0141V44.8666Z" stroke="#0266F3" stroke-width="0.808207" stroke-miterlimit="10"/>
<path d="M87.7331 44.8666C87.7331 45.1769 87.4818 45.4283 87.173 45.4283C86.8619 45.4283 86.6113 45.1761 86.6113 44.8666V43.0141C86.6113 42.7038 86.8627 42.4532 87.173 42.4532C87.4826 42.4532 87.7331 42.7046 87.7331 43.0141V44.8666Z" stroke="#0266F3" stroke-width="0.808207" stroke-miterlimit="10"/>
</svg>
