<svg width="101" height="101" viewBox="0 0 101 101" fill="none" xmlns="http://www.w3.org/2000/svg">
<circle cx="50.4548" cy="50.4548" r="50.4548" fill="white" fill-opacity="0.33"/>
<path d="M63.5573 41.4617V40.1584C63.5573 34.2896 54.705 29.8623 42.9651 29.8623C31.2253 29.8623 22.373 34.2896 22.373 40.1584V49.5184C22.373 54.4067 28.5156 58.2911 37.3491 59.4541V60.7505C37.3491 66.6192 46.2014 71.0465 57.9412 71.0465C69.6811 71.0465 78.5333 66.6192 78.5333 60.7505V51.3904C78.5333 46.5466 72.585 42.6575 63.5573 41.4617ZM33.6051 54.87C29.021 53.59 26.1171 51.4817 26.1171 49.5184V46.226C28.0265 47.5785 30.5841 48.669 33.6051 49.4014V54.87ZM52.3252 49.4014C55.3461 48.669 57.9038 47.5785 59.8132 46.226V49.5184C59.8132 51.4817 56.9093 53.59 52.3252 54.87V49.4014ZM48.5812 66.1021C43.9971 64.8221 41.0931 62.7137 41.0931 60.7505V59.7747C41.7086 59.7981 42.331 59.8145 42.9651 59.8145C43.8731 59.8145 44.7599 59.784 45.6304 59.7326C46.5975 60.0787 47.5825 60.3724 48.5812 60.6124V66.1021ZM48.5812 55.6609C46.7218 55.9356 44.8447 56.0725 42.9651 56.0704C41.0856 56.0725 39.2085 55.9356 37.3491 55.6609V50.094C39.2113 50.3367 41.0873 50.4571 42.9651 50.4544C44.843 50.4571 46.719 50.3367 48.5812 50.094V55.6609ZM63.5573 66.893C59.8331 67.439 56.0493 67.439 52.3252 66.893V61.3121C54.1867 61.5623 56.0629 61.6874 57.9412 61.6865C59.8191 61.6891 61.6951 61.5687 63.5573 61.3261V66.893ZM74.7893 60.7505C74.7893 62.7137 71.8854 64.8221 67.3013 66.1021V60.6335C70.3222 59.901 72.8799 58.8106 74.7893 57.4581V60.7505Z" fill="white"/>
</svg>
