<svg width="122" height="102" viewBox="0 0 122 102" fill="none" xmlns="http://www.w3.org/2000/svg">
<path d="M92.4496 35.8211V24.275C92.4768 24.1645 92.491 24.0534 92.4917 23.9416C92.5178 19.7283 73.5368 16.1951 50.0964 16.05C26.656 15.9049 7.63279 19.2027 7.6067 23.416C7.60586 23.5557 7.62603 23.6946 7.66647 23.8327H7.64877V37.9474C7.64877 40.9179 16.5783 43.5026 29.7434 44.8334V56.3091C16.4107 57.5133 7.33543 59.986 7.31741 62.8952C7.31657 63.0349 7.33679 63.1739 7.37718 63.312H7.35948V77.4267C7.35948 81.7577 26.3428 85.2688 49.7599 85.2688C73.1771 85.2688 92.1604 81.7577 92.1604 77.4267V63.7542C92.1746 63.6966 92.1851 63.6388 92.1921 63.5808C105.498 62.2578 114.544 59.6588 114.544 56.669V42.9966C114.571 42.8861 114.586 42.775 114.586 42.6632C114.604 39.769 105.654 37.1958 92.4496 35.8211Z" fill="#B9D6FF"/>
<path d="M49.7126 70.7868C49.3199 70.7844 48.9286 70.781 48.5385 70.7767L48.2036 72.9809C48.1912 73.0626 48.0735 73.0626 48.0611 72.9809L47.7246 70.7663C25.9768 70.4513 8.52036 67.2207 7.37708 63.312H7.35938V77.4267C7.35938 81.7577 26.3427 85.2688 49.7598 85.2688C73.177 85.2688 92.1603 81.7577 92.1603 77.4267V63.7542C91.1634 67.8067 72.5309 70.9281 49.7126 70.7868Z" fill="#0266F3"/>
<path d="M88.491 69.0236C88.491 68.7861 88.2985 68.5935 88.0609 68.5935C87.8233 68.5935 87.6309 68.7861 87.6309 69.0236V77.4863C87.6309 77.7237 87.8233 77.9163 88.0609 77.9163C88.2985 77.9163 88.491 77.7237 88.491 77.4863V69.0236Z" fill="#085ACD"/>
<path d="M82.3005 70.9412C82.3005 70.7037 82.1081 70.5111 81.8705 70.5111C81.633 70.5111 81.4404 70.7037 81.4404 70.9412V79.4039C81.4404 79.6413 81.6329 79.834 81.8705 79.834C82.1081 79.834 82.3005 79.6413 82.3005 79.4039V70.9412Z" fill="#085ACD"/>
<path d="M75.2966 72.4003C75.2966 72.1628 75.1042 71.9702 74.8666 71.9702C74.629 71.9702 74.4365 72.1628 74.4365 72.4003V80.863C74.4365 81.1004 74.629 81.2931 74.8666 81.2931C75.1042 81.2931 75.2966 81.1004 75.2966 80.863V72.4003Z" fill="#085ACD"/>
<path d="M68.2937 73.1954C68.2937 72.958 68.1012 72.7654 67.8637 72.7654C67.6261 72.7654 67.4336 72.958 67.4336 73.1954V81.6582C67.4336 81.8956 67.6261 82.0882 67.8637 82.0882C68.1012 82.0882 68.2937 81.8956 68.2937 81.6582V73.1954Z" fill="#085ACD"/>
<path d="M61.2898 73.7343C61.2898 73.4968 61.0973 73.3042 60.8597 73.3042C60.6222 73.3042 60.4297 73.4968 60.4297 73.7343V82.197C60.4297 82.4344 60.6222 82.627 60.8597 82.627C61.0973 82.627 61.2898 82.4344 61.2898 82.197V73.7343Z" fill="#085ACD"/>
<path d="M54.2859 74.026C54.2859 73.7886 54.0934 73.5959 53.8558 73.5959C53.6183 73.5959 53.4258 73.7885 53.4258 74.026V82.4887C53.4258 82.7262 53.6183 82.9188 53.8558 82.9188C54.0934 82.9188 54.2859 82.7262 54.2859 82.4887V74.026Z" fill="#085ACD"/>
<path d="M11.8894 69.0236C11.8894 68.7861 11.6969 68.5935 11.4594 68.5935C11.2218 68.5935 11.0293 68.7861 11.0293 69.0236V77.4863C11.0293 77.7237 11.2218 77.9163 11.4594 77.9163C11.6969 77.9163 11.8894 77.7237 11.8894 77.4863V69.0236Z" fill="#085ACD"/>
<path d="M18.0798 70.9412C18.0798 70.7037 17.8874 70.5111 17.6498 70.5111C17.4122 70.5111 17.2197 70.7037 17.2197 70.9412V79.4039C17.2197 79.6413 17.4122 79.834 17.6498 79.834C17.8873 79.834 18.0798 79.6413 18.0798 79.4039V70.9412Z" fill="#085ACD"/>
<path d="M25.0838 72.4003C25.0838 72.1628 24.8913 71.9702 24.6537 71.9702C24.4161 71.9702 24.2236 72.1628 24.2236 72.4003V80.863C24.2236 81.1004 24.4161 81.2931 24.6537 81.2931C24.8913 81.2931 25.0838 81.1004 25.0838 80.863V72.4003Z" fill="#085ACD"/>
<path d="M31.2266 81.658C31.2266 81.8955 31.419 82.0881 31.6566 82.0881C31.8942 82.0881 32.0867 81.8955 32.0867 81.658V78.3129L31.2266 78.4436V81.658Z" fill="#085ACD"/>
<path d="M32.0867 73.1954C32.0867 72.958 31.8942 72.7654 31.6566 72.7654C31.419 72.7654 31.2266 72.958 31.2266 73.1954V78.0714L32.0867 78.2021V73.1954Z" fill="#085ACD"/>
<path d="M39.0906 73.7343C39.0906 73.4968 38.8981 73.3042 38.6605 73.3042C38.4229 73.3042 38.2305 73.4968 38.2305 73.7343V82.197C38.2305 82.4344 38.4229 82.627 38.6605 82.627C38.8981 82.627 39.0906 82.4344 39.0906 82.197V73.7343Z" fill="#085ACD"/>
<path d="M46.0945 74.026C46.0945 73.7886 45.902 73.5959 45.6644 73.5959C45.4269 73.5959 45.2344 73.7885 45.2344 74.026V82.4887C45.2344 82.7262 45.4269 82.9188 45.6644 82.9188C45.902 82.9188 46.0945 82.7262 46.0945 82.4887V74.026Z" fill="#085ACD"/>
<path d="M98.5877 48.5263L98.2997 50.4221C98.2873 50.5038 98.1695 50.5038 98.1572 50.4221L97.8835 48.6209C90.7312 49.56 81.7917 50.0891 72.0963 50.029C54.5254 49.9202 39.4603 47.9076 33.0283 45.1319C35.3203 45.318 37.7182 45.4675 40.2007 45.5768C41.7117 45.9526 43.5105 46.304 45.5954 46.63C48.0099 47.0076 50.6959 47.3313 53.5844 47.5965L53.5122 47.1214C53.4876 46.9595 53.3606 46.8325 53.1988 46.808L51.2484 46.5116L51.2199 46.4965C49.2693 46.2857 47.4306 46.0464 45.7282 45.7802C45.6532 45.7685 45.5788 45.7567 45.5047 45.7449C46.9977 45.7743 48.5137 45.7894 50.0489 45.7894C51.2173 45.7894 52.3745 45.7807 53.519 45.7635L53.8086 43.8576C53.8167 43.8038 53.8943 43.8038 53.9025 43.8576L54.1903 45.7524C55.9324 45.7211 57.6437 45.6704 59.3177 45.6014C60.4752 46.2205 63.5914 46.5663 66.1421 46.0845C67.306 45.8646 68.6897 45.5432 69.9957 44.8691C71.0713 44.7629 72.1192 44.6483 73.1369 44.5259C74.253 45.4578 75.7233 45.8831 76.9564 46.168C80.9666 47.0946 87.5203 45.6753 83.1779 44.3163C89.2428 44.8008 92.4332 42.7931 87.2567 42.1023C86.981 42.0655 86.6908 42.0286 86.3765 41.9936C89.9824 40.8885 92.1559 39.6056 92.4215 38.2328C94.6128 38.4596 96.6698 38.7219 98.5588 39.0173C106.37 40.239 109.135 41.7258 109.13 42.6278C109.124 43.488 106.592 44.8488 99.5698 45.9487C99.685 45.9971 99.8076 46.0321 99.9354 46.0515L102.113 46.3822C107.334 45.3791 109.98 44.1216 109.99 42.6331C110.001 40.8441 106.2 39.3418 98.6917 38.1675C96.7711 37.8671 94.6788 37.6009 92.4493 37.3711V24.2749C91.4525 28.3273 72.82 31.4488 50.0016 31.3075C43.6863 31.2684 37.6947 30.9833 32.3113 30.5053C32.3642 30.5676 32.4388 30.6109 32.5236 30.6237L34.335 30.8989C34.3849 30.9065 34.3849 30.9786 34.335 30.9862L32.5236 31.2614C32.3733 31.2842 32.2553 31.4022 32.2325 31.5525L31.969 33.2866C32.1958 33.2987 32.3758 33.4863 32.3758 33.716V42.1787C32.3758 42.4163 32.1834 42.6088 31.9458 42.6088C31.7082 42.6088 31.5157 42.4163 31.5157 42.1787V33.716C31.5157 33.508 31.6633 33.3346 31.8595 33.2946L31.5949 31.5524C31.572 31.4021 31.4541 31.2842 31.3038 31.2613L29.4925 30.9861C29.4425 30.9785 29.4425 30.9065 29.4925 30.8989L31.3038 30.6237C31.417 30.6065 31.5118 30.5354 31.5615 30.4371C18.0231 29.1766 8.50049 26.6852 7.66614 23.8326H7.64844V37.9473C7.64844 40.9178 16.578 43.5025 29.743 44.8333V56.6689C29.743 57.0592 29.8973 57.4429 30.195 57.8179C27.7086 58.032 25.3834 58.2925 23.2659 58.5967C15.744 59.678 11.9245 61.133 11.9135 62.9222C11.9025 64.7109 15.7036 66.2133 23.2115 67.3876C28.989 68.2911 36.3207 68.8861 44.2644 69.1083L44.1748 69.0947C44.0931 69.0823 44.0931 68.9646 44.1748 68.9522L46.4252 68.6103C46.6878 68.5704 46.9281 68.4651 47.1293 68.3116C38.135 68.1637 29.7693 67.5427 23.3443 66.5379C15.5332 65.3163 12.768 63.8293 12.7736 62.9272C12.7792 62.0254 15.5625 60.5728 23.3883 59.4482C25.7112 59.1143 28.2861 58.8335 31.0511 58.6092C33.1928 60.1655 37.8511 61.536 44.1775 62.5635C39.1895 62.1754 36.8422 62.351 35.0531 62.5347C29.639 63.0909 32.0509 65.1698 38.2707 64.8416C33.4327 66.0838 39.4152 67.6626 43.7582 66.8422C45.0409 66.5999 46.5903 66.2344 48.0088 65.4094L48.0609 65.0661C48.0733 64.9845 48.191 64.9845 48.2034 65.0661L48.2349 65.2731C48.7583 64.9467 49.2606 64.554 49.721 64.0773C50.7905 65.8947 52.8997 66.5393 54.5725 66.9258C58.5827 67.8524 65.1364 66.433 60.7939 65.0741C63.7387 65.3093 66.0058 64.957 66.9665 64.4532C68.6633 64.4914 70.391 64.5111 72.1435 64.5111C77.1077 64.5111 81.8726 64.3533 86.2998 64.0633C85.2431 64.9206 82.2069 65.9914 76.131 66.8646C69.078 67.8784 59.703 68.4037 49.7275 68.341C49.5412 68.3398 49.3551 68.3384 49.1692 68.3369C49.3633 68.4767 49.5913 68.5726 49.8392 68.6103L52.0896 68.9522C52.1712 68.9646 52.1712 69.0823 52.0896 69.0947L51.3566 69.206C60.7585 69.2041 69.5468 68.6799 76.2535 67.716C82.9259 66.7568 86.6848 65.5035 87.4564 63.984C89.0861 63.8672 90.6669 63.7323 92.1919 63.5807C105.498 62.2577 114.544 59.6587 114.544 56.6689V42.9965C113.985 45.2701 107.874 47.2506 98.5877 48.5263Z" fill="#0266F3"/>
<path d="M72.1113 47.5834C65.856 47.5447 59.8382 47.2783 54.4838 46.8134C54.3356 46.8477 54.2218 46.9691 54.1987 47.1214L54.1191 47.6447C59.5702 48.1274 65.716 48.4039 72.106 48.4435C72.6353 48.4467 73.1624 48.4484 73.6881 48.4484C82.4503 48.4484 90.682 47.9951 97.1961 47.1548C97.001 47.013 96.7711 46.9158 96.5212 46.8779L94.6334 46.5911C88.1825 47.2856 80.3511 47.6346 72.1113 47.5834Z" fill="#0266F3"/>
<path d="M110.876 48.2659C110.876 48.0283 110.683 47.8358 110.446 47.8358C110.208 47.8358 110.016 48.0283 110.016 48.2659V56.7284C110.016 56.9659 110.208 57.1585 110.446 57.1585C110.683 57.1585 110.876 56.9659 110.876 56.7284V48.2659Z" fill="#085ACD"/>
<path d="M103.824 56.8411V58.6463C103.824 58.8837 104.017 59.0763 104.254 59.0763C104.492 59.0763 104.684 58.8837 104.684 58.6463V56.7075L104.669 56.7128L103.824 56.8411Z" fill="#085ACD"/>
<path d="M104.684 56.6307V50.1836C104.684 49.946 104.492 49.7535 104.254 49.7535C104.017 49.7535 103.824 49.946 103.824 50.1836V56.4971L104.669 56.6255L104.684 56.6307Z" fill="#085ACD"/>
<path d="M97.6804 51.6426C97.6804 51.4052 97.488 51.2125 97.2504 51.2125C97.0128 51.2125 96.8203 51.4052 96.8203 51.6426V60.1053C96.8203 60.3427 97.0128 60.5354 97.2504 60.5354C97.488 60.5354 97.6804 60.3427 97.6804 60.1053V51.6426Z" fill="#085ACD"/>
<path d="M89.8174 60.9002C89.8174 61.1377 90.0099 61.3303 90.2474 61.3303C90.485 61.3303 90.6775 61.1377 90.6775 60.9002V53.4431L89.8174 53.5738V60.9002Z" fill="#085ACD"/>
<path d="M90.6775 52.4376C90.6775 52.2002 90.485 52.0076 90.2474 52.0076C90.0099 52.0076 89.8174 52.2002 89.8174 52.4376V52.9632L90.6775 53.0938V52.4376Z" fill="#085ACD"/>
<path d="M82.8135 61.4394C82.8135 61.6768 83.006 61.8695 83.2435 61.8695C83.4811 61.8695 83.6736 61.6768 83.6736 61.4394V52.9767C83.6736 52.7393 83.4811 52.5466 83.2435 52.5466C83.006 52.5466 82.8135 52.7393 82.8135 52.9767V61.4394Z" fill="#085ACD"/>
<path d="M75.8096 61.7312C75.8096 61.9686 76.002 62.1612 76.2396 62.1612C76.4772 62.1612 76.6697 61.9686 76.6697 61.7312V53.2684C76.6697 53.031 76.4772 52.8384 76.2396 52.8384C76.002 52.8384 75.8096 53.031 75.8096 53.2684V61.7312Z" fill="#085ACD"/>
<path d="M33.8431 57.1585C34.0807 57.1585 34.2732 56.9659 34.2732 56.7284V48.2659C34.2732 48.0283 34.0807 47.8358 33.8431 47.8358C33.6056 47.8358 33.4131 48.0283 33.4131 48.2659V56.7284C33.4131 56.9659 33.6056 57.1585 33.8431 57.1585Z" fill="#085ACD"/>
<path d="M40.4636 58.6462V50.1836C40.4636 49.946 40.2712 49.7535 40.0336 49.7535C39.796 49.7535 39.6035 49.946 39.6035 50.1836V58.6462C39.6035 58.8836 39.796 59.0762 40.0336 59.0762C40.2712 59.0762 40.4636 58.8836 40.4636 58.6462Z" fill="#085ACD"/>
<path d="M47.0375 60.5354C47.275 60.5354 47.4675 60.3427 47.4675 60.1053V51.6426C47.4675 51.4052 47.2751 51.2125 47.0375 51.2125C46.7999 51.2125 46.6074 51.4052 46.6074 51.6426V60.1053C46.6074 60.3427 46.7999 60.5354 47.0375 60.5354Z" fill="#085ACD"/>
<path d="M54.0414 52.0076C53.8038 52.0076 53.6113 52.2002 53.6113 52.4376V60.9003C53.6113 61.1377 53.8038 61.3304 54.0414 61.3304C54.279 61.3304 54.4714 61.1377 54.4714 60.9003V52.4376C54.4714 52.2001 54.279 52.0076 54.0414 52.0076Z" fill="#085ACD"/>
<path d="M60.6143 61.4394C60.6143 61.6768 60.8067 61.8695 61.0443 61.8695C61.2819 61.8695 61.4744 61.6768 61.4744 61.4394V52.9767C61.4744 52.7393 61.2819 52.5466 61.0443 52.5466C60.8067 52.5466 60.6143 52.7393 60.6143 52.9767V61.4394Z" fill="#085ACD"/>
<path d="M67.6182 61.7312C67.6182 61.9686 67.8106 62.1612 68.0482 62.1612C68.2858 62.1612 68.4783 61.9686 68.4783 61.7312V53.2684C68.4783 53.031 68.2858 52.8384 68.0482 52.8384C67.8106 52.8384 67.6182 53.031 67.6182 53.2684V61.7312Z" fill="#085ACD"/>
<path d="M31.9578 28.5214L32.0187 28.9227C37.4714 29.4057 43.6194 29.6824 50.0119 29.722C50.5412 29.7252 51.0682 29.7269 51.5941 29.7269C61.0157 29.7269 69.8241 29.2028 76.5431 28.237C84.0649 27.1558 87.8844 25.7006 87.8955 23.9117C87.9065 22.1228 84.1053 20.6204 76.5975 19.4461C69.5166 18.3387 60.1016 17.6947 50.0867 17.6327C40.0723 17.5726 30.6497 18.0982 23.5555 19.1177C16.0337 20.1988 12.2142 21.654 12.2031 23.443C12.1921 25.2319 15.9933 26.7343 23.5011 27.9085C26.0052 28.3001 28.8012 28.6339 31.8124 28.9043L31.8706 28.5214C31.8781 28.4714 31.9501 28.4714 31.9578 28.5214Z" fill="#0266F3"/>
<path d="M13.0635 23.4483C13.0691 22.5464 15.8524 21.094 23.6781 19.9692C24.1926 19.8952 24.7194 19.8239 25.2579 19.7552L25.3658 19.0451C25.3782 18.9634 25.4959 18.9634 25.5083 19.0451L25.6095 19.7109C32.006 18.9159 40.0006 18.4879 48.5037 18.4879C49.0272 18.4879 49.5544 18.4896 50.0816 18.4928C60.0552 18.5546 69.425 19.1949 76.465 20.296C84.2761 21.5177 87.0412 23.0045 87.0357 23.9064C87.03 24.8084 84.2467 26.2609 76.421 27.3858C69.3679 28.3995 59.988 28.922 50.0175 28.862C40.0439 28.8003 30.6742 28.1599 23.6342 27.0589C15.823 25.8371 13.0579 24.3503 13.0635 23.4483Z" fill="#B9D6FF"/>
<path d="M87.9209 38.007C87.9209 38.2446 88.1134 38.4371 88.351 38.4371C88.5885 38.4371 88.781 38.2446 88.781 38.007V29.5443C88.781 29.3068 88.5885 29.1143 88.351 29.1143C88.1134 29.1143 87.9209 29.3067 87.9209 29.5443V38.007Z" fill="#085ACD"/>
<path d="M81.7295 39.9246C81.7295 40.1622 81.922 40.3547 82.1596 40.3547C82.3971 40.3547 82.5896 40.1622 82.5896 39.9246V31.462C82.5896 31.2245 82.3971 31.032 82.1596 31.032C81.922 31.032 81.7295 31.2245 81.7295 31.462V39.9246Z" fill="#085ACD"/>
<path d="M75.1556 32.4911C74.9181 32.4911 74.7256 32.6836 74.7256 32.9211V41.3839C74.7256 41.6215 74.9181 41.8139 75.1556 41.8139C75.3932 41.8139 75.5857 41.6215 75.5857 41.3839V32.9211C75.5857 32.6836 75.3932 32.4911 75.1556 32.4911Z" fill="#085ACD"/>
<path d="M68.5828 42.1787V33.7161C68.5828 33.4785 68.3903 33.286 68.1527 33.286C67.9151 33.286 67.7227 33.4785 67.7227 33.7161V42.1787C67.7227 42.4163 67.9151 42.6088 68.1527 42.6088C68.3903 42.6088 68.5828 42.4163 68.5828 42.1787Z" fill="#085ACD"/>
<path d="M60.7188 42.7178C60.7188 42.9553 60.9112 43.1479 61.1488 43.1479C61.3864 43.1479 61.5789 42.9554 61.5789 42.7178V34.2551C61.5789 34.0175 61.3864 33.8251 61.1488 33.8251C60.9112 33.8251 60.7188 34.0175 60.7188 34.2551V42.7178Z" fill="#085ACD"/>
<path d="M53.7148 43.0096C53.7148 43.2472 53.9073 43.4397 54.1449 43.4397C54.3825 43.4397 54.575 43.2472 54.575 43.0096V34.5469C54.575 34.3093 54.3825 34.1168 54.1449 34.1168C53.9073 34.1168 53.7148 34.3093 53.7148 34.5469V43.0096Z" fill="#085ACD"/>
<path d="M12.1785 29.5443C12.1785 29.3068 11.986 29.1143 11.7484 29.1143C11.5108 29.1143 11.3184 29.3067 11.3184 29.5443V38.007C11.3184 38.2446 11.5108 38.4371 11.7484 38.4371C11.986 38.4371 12.1785 38.2446 12.1785 38.007V29.5443Z" fill="#085ACD"/>
<path d="M17.5088 39.9245C17.5088 40.1621 17.7013 40.3546 17.9388 40.3546C18.1764 40.3546 18.3689 40.1621 18.3689 39.9245V34.8372L17.5088 34.7065V39.9245Z" fill="#085ACD"/>
<path d="M18.3689 31.462C18.3689 31.2245 18.1764 31.032 17.9388 31.032C17.7013 31.032 17.5088 31.2245 17.5088 31.462V34.4587L18.3689 34.328V31.462Z" fill="#085ACD"/>
<path d="M25.3728 32.9211C25.3728 32.6836 25.1803 32.4911 24.9428 32.4911C24.7052 32.4911 24.5127 32.6836 24.5127 32.9211V41.3839C24.5127 41.6215 24.7052 41.8139 24.9428 41.8139C25.1803 41.8139 25.3728 41.6215 25.3728 41.3839V32.9211Z" fill="#085ACD"/>
<path d="M31.871 33.3638L31.8604 33.2946C31.6642 33.3346 31.5166 33.508 31.5166 33.7161V42.1787C31.5166 42.4163 31.7091 42.6088 31.9467 42.6088C32.1842 42.6088 32.3767 42.4163 32.3767 42.1787V33.7161C32.3767 33.4863 32.1967 33.2987 31.9699 33.2866L31.9582 33.3638C31.9505 33.4139 31.8786 33.4139 31.871 33.3638Z" fill="#085ACD"/>
<path d="M38.5205 42.7178C38.5205 42.9553 38.713 43.1479 38.9506 43.1479C39.1881 43.1479 39.3806 42.9554 39.3806 42.7178V34.2551C39.3806 34.0175 39.1881 33.8251 38.9506 33.8251C38.713 33.8251 38.5205 34.0175 38.5205 34.2551V42.7178Z" fill="#085ACD"/>
<path d="M45.5234 43.0096C45.5234 43.2472 45.7159 43.4397 45.9535 43.4397C46.191 43.4397 46.3836 43.2472 46.3836 43.0096V34.5469C46.3836 34.3093 46.1911 34.1168 45.9535 34.1168C45.7159 34.1168 45.5234 34.3093 45.5234 34.5469V43.0096Z" fill="#085ACD"/>
<path d="M54.8618 27.4468C58.872 28.3734 65.4257 26.954 61.0833 25.5951C67.1482 26.0795 70.3386 24.0718 65.1621 23.381C63.2316 23.1234 60.5899 22.8581 53.9543 23.3039C58.304 22.2211 59.1294 21.4863 59.4407 20.9545C60.2454 19.5801 52.0596 18.9408 50.0367 20.6237C48.284 19.0473 40.0348 19.4572 40.6327 20.9545C40.8395 21.4725 41.36 22.1265 45.4885 23.1688C39.7907 22.6733 37.2495 22.8599 35.3424 23.0558C29.9284 23.6119 32.3402 25.6908 38.5599 25.3626C33.7219 26.6048 39.7044 28.1836 44.0475 27.3632C45.8771 27.0176 48.2497 26.4215 50.0103 24.5983C51.0799 26.4156 53.189 27.0603 54.8618 27.4468Z" fill="#0266F3"/>
<path d="M23.7296 22.5891L21.4792 22.931C21.3976 22.9434 21.3976 23.0612 21.4792 23.0736L23.7296 23.4154C24.3976 23.5169 24.922 24.0413 25.0235 24.7093L25.3654 26.9597C25.3778 27.0414 25.4955 27.0414 25.5079 26.9597L25.8498 24.7093C25.9513 24.0413 26.4755 23.5169 27.1437 23.4154L29.394 23.0736C29.4757 23.0612 29.4757 22.9434 29.394 22.931L27.1436 22.5891C26.4755 22.4876 25.9513 21.9633 25.8498 21.2952L25.609 19.7107L25.5079 19.0449C25.4955 18.9632 25.3777 18.9632 25.3653 19.0449L25.2575 19.755L25.0234 21.2953C24.9219 21.9633 24.3976 22.4876 23.7296 22.5891Z" fill="white"/>
<path d="M20.9022 35.4307C20.9339 35.2217 21.0979 35.0577 21.3069 35.0259L23.8256 34.6433C23.895 34.6327 23.895 34.5325 23.8256 34.522L21.3069 34.1394C21.0979 34.1076 20.9339 33.9436 20.9022 33.7346L20.5195 31.216C20.5089 31.1464 20.4088 31.1464 20.3982 31.216L20.0156 33.7346C19.9838 33.9436 19.8198 34.1076 19.6108 34.1394L18.3691 34.328L17.5089 34.4587L17.0921 34.522C17.0227 34.5325 17.0227 34.6327 17.0921 34.6433L17.5089 34.7066L18.3691 34.8372L19.6108 35.0259C19.8198 35.0576 19.9838 35.2217 20.0156 35.4306L20.3982 37.9493C20.4088 38.0188 20.5089 38.0188 20.5195 37.9493L20.9022 35.4307Z" fill="white"/>
<path d="M32.0193 28.9228L31.9584 28.5215C31.9507 28.4715 31.8787 28.4715 31.8711 28.5215L31.8129 28.9044L31.596 30.3328C31.5903 30.37 31.5788 30.4051 31.5625 30.4374C31.5129 30.5356 31.418 30.6067 31.3049 30.6239L29.4935 30.8991C29.4436 30.9067 29.4436 30.9787 29.4935 30.9863L31.3049 31.2615C31.4552 31.2844 31.5732 31.4024 31.596 31.5527L31.8606 33.2948L31.8711 33.364C31.8787 33.414 31.9507 33.414 31.9584 33.364L31.9701 33.2868L32.2336 31.5527C32.2564 31.4024 32.3744 31.2844 32.5247 31.2615L34.336 30.9863C34.386 30.9787 34.386 30.9067 34.336 30.8991L32.5247 30.6239C32.4398 30.611 32.3653 30.5678 32.3124 30.5055C32.2716 30.4575 32.2435 30.3982 32.2336 30.3328L32.0193 28.9228Z" fill="white"/>
<path d="M99.9356 46.8778L102.186 46.5359C102.268 46.5235 102.268 46.4058 102.186 46.3933L102.113 46.3822L99.9356 46.0515C99.8078 46.0321 99.6853 45.9971 99.57 45.9487C99.0825 45.7441 98.7238 45.2979 98.6418 44.7576L98.2999 42.5073C98.2875 42.4256 98.1698 42.4256 98.1574 42.5073L97.8155 44.7577C97.7139 45.4257 97.1897 45.95 96.5216 46.0515L94.2712 46.3934C94.1895 46.4058 94.1895 46.5235 94.2712 46.5359L94.6337 46.591L96.5216 46.8778C96.7716 46.9158 97.0014 47.013 97.1965 47.1547C97.5228 47.3918 97.7519 47.7536 97.8154 48.1716L97.8836 48.6209L98.1573 50.422C98.1697 50.5037 98.2874 50.5037 98.2998 50.422L98.5878 48.5262L98.6417 48.1717C98.7432 47.5036 99.2675 46.9793 99.9356 46.8778Z" fill="white"/>
<path d="M84.6947 53.3291L87.2133 53.7118C87.4223 53.7435 87.5863 53.9076 87.6181 54.1166L88.0007 56.6352C88.0113 56.7048 88.1114 56.7048 88.122 56.6352L88.5047 54.1166C88.5364 53.9076 88.7005 53.7436 88.9094 53.7118L89.8173 53.5739L90.6774 53.4432L91.4281 53.3291C91.4976 53.3186 91.4976 53.2185 91.4281 53.2079L90.6774 53.0939L89.8173 52.9632L88.9094 52.8253C88.7005 52.7935 88.5364 52.6295 88.5047 52.4205L88.122 49.9019C88.1114 49.8324 88.0113 49.8324 88.0007 49.9019L87.6181 52.4205C87.5863 52.6295 87.4223 52.7935 87.2133 52.8253L84.6947 53.2079C84.6252 53.2185 84.6252 53.3186 84.6947 53.3291Z" fill="white"/>
<path d="M104.685 56.6308L104.669 56.6255L103.825 56.4972L102.858 56.3503C102.707 56.3274 102.589 56.2095 102.567 56.0592L102.291 54.2479C102.284 54.1978 102.212 54.1978 102.204 54.2479L101.929 56.0592C101.906 56.2095 101.788 56.3274 101.638 56.3503L99.8265 56.6255C99.7766 56.6331 99.7766 56.7051 99.8265 56.7127L101.638 56.9879C101.788 57.0107 101.906 57.1287 101.929 57.279L102.204 59.0904C102.212 59.1403 102.284 59.1403 102.291 59.0904L102.567 57.279C102.589 57.1287 102.707 57.0107 102.858 56.9879L103.825 56.841L104.669 56.7127L104.685 56.7075C104.714 56.6914 104.714 56.6468 104.685 56.6308Z" fill="white"/>
<path d="M47.7198 70.7306L47.7252 70.7663L48.0617 72.9809C48.0741 73.0626 48.1918 73.0626 48.2042 72.9809L48.5391 70.7767L48.5461 70.7306C48.6475 70.0626 49.1718 69.5383 49.8399 69.4367L51.3573 69.2062L52.0903 69.0949C52.1719 69.0824 52.1719 68.9647 52.0903 68.9523L49.8399 68.6104C49.592 68.5727 49.3639 68.4768 49.1699 68.337C48.841 68.1 48.6099 67.7367 48.5461 67.3165L48.2356 65.2732L48.2042 65.0663C48.1917 64.9846 48.074 64.9846 48.0616 65.0663L48.0095 65.4095L47.7197 67.3166C47.6581 67.722 47.4407 68.0745 47.13 68.3116C46.9288 68.4652 46.6885 68.5705 46.4259 68.6104L44.1755 68.9522C44.0938 68.9647 44.0938 69.0824 44.1755 69.0948L44.2652 69.1084L46.4259 69.4366C47.0939 69.5382 47.6182 70.0625 47.7198 70.7306Z" fill="white"/>
<path d="M24.9012 63.2053C24.9572 63.1968 24.9572 63.116 24.9012 63.1075L22.8688 62.7987C22.7002 62.7731 22.5678 62.6408 22.5422 62.4721L22.2334 60.4397C22.2249 60.3837 22.1441 60.3837 22.1356 60.4397L21.8268 62.4721C21.8012 62.6408 21.6688 62.7731 21.5002 62.7987L19.4678 63.1075C19.4118 63.116 19.4118 63.1968 19.4678 63.2053L21.5002 63.5141C21.6688 63.5397 21.8012 63.6721 21.8268 63.8407L22.1356 65.8731C22.1441 65.9291 22.2249 65.9291 22.2334 65.8731L22.5422 63.8407C22.5678 63.672 22.7002 63.5397 22.8688 63.5141L24.9012 63.2053Z" fill="white"/>
<path d="M53.9033 49.0719L54.12 47.6448L54.1996 47.1215C54.2227 46.9692 54.3365 46.8478 54.4847 46.8135L54.513 46.808L56.4634 46.5117C56.5172 46.5036 56.5172 46.426 56.4634 46.4179L54.513 46.1215C54.3512 46.097 54.2241 45.97 54.1996 45.8081L54.1911 45.7526L53.9033 43.8578C53.8951 43.8039 53.8175 43.8039 53.8094 43.8578L53.5198 45.7636L53.5131 45.8081C53.4884 45.9699 53.3615 46.097 53.1996 46.1215L51.2492 46.4179C51.2079 46.4241 51.1984 46.4713 51.2207 46.4965L51.2492 46.5117L53.1996 46.808C53.3615 46.8327 53.4884 46.9596 53.5131 47.1215L53.5853 47.5966L53.8094 49.0719C53.8175 49.1257 53.895 49.1257 53.9033 49.0719Z" fill="white"/>
<path d="M32.1652 78.2138L32.0874 78.202L31.2273 78.0713L30.3538 77.9386C30.2035 77.9158 30.0856 77.7978 30.0627 77.6475L29.7875 75.8362C29.7799 75.7862 29.7079 75.7862 29.7003 75.8362L29.4251 77.6475C29.4023 77.7978 29.2843 77.9158 29.134 77.9386L27.3226 78.2139C27.2727 78.2215 27.2727 78.2935 27.3226 78.301L29.134 78.5762C29.2843 78.5991 29.4023 78.717 29.4251 78.8674L29.7003 80.6787C29.7078 80.7287 29.7799 80.7287 29.7875 80.6787L30.0627 78.8674C30.0856 78.717 30.2035 78.5991 30.3538 78.5762L31.2273 78.4435L32.0874 78.3128L32.1652 78.301C32.2152 78.2934 32.2152 78.2214 32.1652 78.2138Z" fill="white"/>
</svg>
