<svg width="119" height="76" viewBox="0 0 119 76" fill="none" xmlns="http://www.w3.org/2000/svg">
<path d="M68.1591 58.1124L1.94531 58.7652L2.09746 74.1968L68.3113 73.544L68.1591 58.1124Z" fill="#B9D6FF"/>
<path d="M69.187 72.5478L1.1285 73.2188C0.896703 73.2211 0.706962 73.0351 0.704677 72.8033L0.650391 67.2972L69.409 66.6193L69.4647 72.2646C69.4662 72.4195 69.3419 72.5463 69.187 72.5478Z" fill="#0266F3"/>
<path d="M68.9859 65.8208L1.16255 66.4895C0.87583 66.4923 0.641093 66.2621 0.638265 65.9754L0.584961 60.5688L69.3435 59.8909L69.3979 65.4006C69.4001 65.6304 69.2156 65.8185 68.9859 65.8208Z" fill="#0266F3"/>
<path d="M69.343 59.8907L0.584409 60.5686L0.566727 58.7752C0.564393 58.5384 0.754458 58.3445 0.991246 58.3422L68.8869 57.6728C69.1267 57.6704 69.323 57.8629 69.3254 58.1027L69.343 59.8907Z" fill="#B9D6FF"/>
<path d="M123.287 63.3599C122.898 65.4647 121.984 67.3503 120.582 69.0327C119.825 69.9418 118.6 70.3575 117.375 70.1241C105.663 67.8924 81.0174 52.9937 57.0973 40.0018C55.5121 39.1408 54.4126 38.1571 55.1406 36.622L56.7479 33.2319C57.4713 31.7063 59.2467 32.5437 60.9116 33.2085C86.1778 43.2991 112.957 52.0478 122.201 60.2958C123.089 61.0875 123.492 62.2492 123.287 63.3599Z" fill="#B9D6FF"/>
<path d="M60.5283 29.7456L55.0712 41.2548C54.9942 41.4173 54.7999 41.4866 54.6374 41.4095L51.6851 40.0097C51.5226 39.9326 51.4534 39.7384 51.5304 39.5759L56.9875 28.0667C57.0645 27.9042 57.2588 27.835 57.4213 27.912L60.3736 29.3119C60.5361 29.3889 60.6053 29.5831 60.5283 29.7456Z" fill="#0053C7"/>
<path d="M35.6572 18.5556L30.2001 30.0647C30.1231 30.2272 29.9289 30.2965 29.7663 30.2195L26.814 28.8196C26.6515 28.7426 26.5823 28.5483 26.6593 28.3858L32.1164 16.8767C32.1934 16.7142 32.3877 16.6449 32.5502 16.722L35.5025 18.1218C35.665 18.1989 35.7342 18.3931 35.6572 18.5556Z" fill="#0266F3"/>
<path d="M62.862 18.536L45.6188 54.9026L20.9809 43.2206L38.224 6.85391L62.862 18.536Z" fill="#0266F3"/>
<path d="M46.5281 52.9848L44.3596 57.5583L19.7216 45.8763L21.8902 41.3027L46.5281 52.9848Z" fill="#B9D6FF"/>
<path d="M45.339 55.4923L44.2612 57.7653C43.9317 58.4602 43.1473 58.815 42.4079 58.6033C34.7419 56.4086 27.3093 52.9443 20.1425 48.0335C19.5149 47.6035 19.2929 46.7802 19.6188 46.0928L20.701 43.8103L45.339 55.4923Z" fill="#0266F3"/>
<path d="M47.7815 52.0566L46.883 53.9517C46.8027 54.1209 46.6004 54.1931 46.4311 54.1128L20.6358 41.882C20.4665 41.8018 20.3944 41.5995 20.4746 41.4302L21.3732 39.5352C21.4534 39.3659 21.6557 39.2937 21.825 39.374L47.6203 51.6048C47.7896 51.6851 47.8617 51.8874 47.7815 52.0566Z" fill="#B9D6FF"/>
<path d="M47.638 52.36L47.0269 53.6488C46.9542 53.8022 46.771 53.8675 46.6176 53.7948L20.7646 41.5366C20.6113 41.4639 20.5459 41.2807 20.6186 41.1273L21.2297 39.8385C21.3024 39.6851 21.4856 39.6198 21.639 39.6925L47.492 51.9506C47.6454 52.0234 47.7108 52.2066 47.638 52.36Z" fill="#0266F3"/>
<path d="M63.0021 18.2408L65.1706 13.6673L40.5327 1.98523L38.3642 6.55876L63.0021 18.2408Z" fill="#B9D6FF"/>
<path d="M64.1923 15.7327L65.2701 13.4597C65.5996 12.7648 65.3778 11.933 64.7459 11.4944C58.195 6.94815 50.8087 3.3861 42.4707 0.945356C41.7406 0.731647 40.9626 1.08078 40.6367 1.76815L39.5544 4.05063L64.1923 15.7327Z" fill="#0266F3"/>
<path d="M63.0772 19.798L63.9758 17.9029C64.0561 17.7337 63.9839 17.5314 63.8146 17.4511L38.0193 5.22032C37.8501 5.14003 37.6478 5.2122 37.5675 5.38147L36.669 7.27651C36.5887 7.44578 36.6608 7.64805 36.8301 7.72834L62.6254 19.9591C62.7947 20.0394 62.997 19.9673 63.0772 19.798Z" fill="#B9D6FF"/>
<path d="M63.2212 19.4948L63.8323 18.206C63.905 18.0526 63.8396 17.8694 63.6863 17.7967L37.8333 5.53853C37.68 5.46584 37.4967 5.53121 37.424 5.68456L36.8129 6.97342C36.7402 7.12676 36.8056 7.31 36.9589 7.38274L62.8119 19.6409C62.9653 19.7135 63.1485 19.6482 63.2212 19.4948Z" fill="#0266F3"/>
</svg>
