<svg width="691" height="152" viewBox="0 0 691 152" fill="none" xmlns="http://www.w3.org/2000/svg">
<g style="mix-blend-mode:multiply" opacity="0.04">
<path d="M669.441 39.3427C668.099 37.8189 666.089 35.3 663.277 34.5483C658.665 33.3149 653.753 35.3799 649.612 36.4602C641.947 38.4593 633.302 39.7407 626.026 36.5353C617.626 32.8355 615.121 25.8391 606.749 22.0334C596.287 17.2782 582.692 16.3979 571.065 13.1992C561.208 10.4876 553.067 5.99317 543.199 3.24683C525.64 -1.63918 498.154 -3.99391 478.902 -2.91166C461.862 -1.95348 444.648 0.688823 428.49 4.07681C418.63 6.14395 409.6 9.24213 399.227 10.3632C374.503 13.0348 345.268 4.26164 324.61 16.0031C306.916 26.0599 306.199 42.4367 315.09 55.2891C320.276 62.7834 332.681 69.9125 325.055 78.3306C318.823 85.2087 305.058 87.3808 294.134 90.4045C274.205 95.9211 256.965 105.467 258.796 120.101" stroke="#0E0A2D" stroke-width="11.1389" stroke-miterlimit="1.5" stroke-linecap="round" stroke-linejoin="round"/>
<path d="M364.905 95.8051C363.272 92.8326 360.745 89.4576 360.987 86.2955C361.612 78.1507 375.819 72.4528 388.015 70.3303C393.425 69.3883 410.891 66.7002 416.084 68.4957C420.749 70.1083 422.716 73.6283 424.244 76.4548C425.095 78.0279 426.845 80.2604 426.287 81.9318C425.515 84.2455 420.295 84.5535 417.09 85.0574C410.088 86.1584 403.737 88.2736 398.319 91.0492C391.595 94.4957 386.817 99.0547 384.629 104.083C383.057 107.697 383.644 113.13 376.898 115.146C371.625 116.723 363.379 113.286 359.051 111.882C348.548 108.475 336.513 105.299 324.199 106.255C312.698 107.148 304.3 109.813 297.114 115.018C293.744 117.459 291.602 121.405 294.929 124.229C298.52 127.276 305.474 126.965 310.937 126.188C318.228 125.15 327.024 123.978 334.527 124.884C353.619 127.186 370.527 141.97 391.513 137.954C403.221 135.713 406.06 124.903 412.503 119.537C424.759 109.33 447.142 106.544 467.374 107.991" stroke="#0E0A2D" stroke-width="11.1389" stroke-miterlimit="1.5" stroke-linecap="round" stroke-linejoin="round"/>
<path d="M699.319 86.9796C691.671 79.9021 688.634 68.9148 676.993 63.6954C656.681 54.5892 621.685 66.144 620.199 79.974C619.089 90.3056 625.656 99.2902 630.964 108.859C633.288 113.049 636.687 120.435 632.965 124.688C627.691 130.716 617.937 131.636 608.369 134.489C597.927 137.603 588.562 141.935 578.2 145.198C557.689 151.659 533.714 157.177 511.521 149.943C497.947 145.519 487.862 138.081 474.896 133.083C463.727 128.778 444.486 125.568 436.39 134.06C424.711 146.311 450.744 148.349 461.557 152.841C471.569 157 477.586 163.413 486.95 167.932C497.277 172.916 531.218 175.387 515.078 188.269C511.471 191.148 507.24 193.529 503.927 196.586C499.818 200.378 494.977 204.589 487.981 206.765C478.105 209.836 474.331 206.346 471.954 200.685C466.795 188.399 470.136 176.125 448.647 168.418C429.55 161.569 407.986 164.997 387.424 162.459C369.768 160.279 356.592 153.033 339.693 150.141" stroke="#0E0A2D" stroke-width="11.1389" stroke-miterlimit="1.5" stroke-linecap="round" stroke-linejoin="round"/>
<path d="M700.466 88.0717C701.934 89.2236 703.642 90.3539 705.577 91.251C718.142 97.078 727.896 86.9045 731.975 81.6342C732.884 80.4591 733.621 79.2216 734.373 78.0095C735.367 76.4065 736.562 74.8337 737.942 73.3303C739.869 71.2336 742.033 69.0478 744.752 67.2567C752.236 62.3278 764.118 61.1482 771.785 66.5426C775.597 69.2256 777.563 72.8105 778.453 76.2029C780.288 83.2143 777.75 92.8737 768.797 98.0918C763.574 101.138 756.494 102.769 750.244 104.96C742.083 107.823 734.603 111.26 728.257 115.401C723.715 118.364 719.779 121.788 717.067 125.43C713.733 129.907 711.586 134.613 705.961 138.37C696.11 144.947 676.933 149.803 680.83 160.199C683.69 167.829 705.216 165.388 713.598 163.307C716.006 162.709 718.347 161.998 720.485 161.117C738.286 153.783 735.937 138.463 747.708 128.54C752.555 124.455 763.563 119.158 771.258 124.255C788.081 135.402 766.414 149.028 759.878 159.437C755.616 166.231 758.219 175.044 746.225 179.392C743.823 180.263 741.225 180.926 738.524 181.416C729.451 183.063 719.857 183.353 710.828 181.459C703.078 179.834 695.876 176.299 687.154 176.717" stroke="#0E0A2D" stroke-width="11.1389" stroke-miterlimit="1.5" stroke-linecap="round" stroke-linejoin="round"/>
<path d="M151.223 88.0717C152.692 89.2236 154.4 90.3539 156.335 91.251C168.9 97.078 178.654 86.9045 182.732 81.6342C183.642 80.4591 184.378 79.2216 185.13 78.0095C186.125 76.4065 187.319 74.8337 188.7 73.3303C190.627 71.2336 192.791 69.0478 195.51 67.2567C202.994 62.3278 214.878 61.1482 222.542 66.5426C226.354 69.2256 228.324 72.8105 229.212 76.2029C231.046 83.2143 228.506 92.8737 219.558 98.0918C214.333 101.138 207.25 102.769 201.002 104.96C192.841 107.823 185.36 111.26 179.015 115.401C174.473 118.364 170.537 121.788 167.825 125.43C164.49 129.907 162.344 134.613 156.718 138.37C146.867 144.947 127.69 149.803 131.587 160.199C134.448 167.829 155.974 165.388 164.356 163.307C166.763 162.709 169.105 161.998 171.243 161.117C189.044 153.783 186.694 138.463 198.465 128.54C203.313 124.455 214.323 119.158 222.017 124.255C238.84 135.402 217.17 149.028 210.637 159.437C206.373 166.231 208.976 175.044 196.982 179.392C194.581 180.263 191.983 180.926 189.282 181.416C180.209 183.063 170.614 183.353 161.586 181.459C153.836 179.834 146.634 176.299 137.911 176.717" stroke="#0E0A2D" stroke-width="11.1389" stroke-miterlimit="1.5" stroke-linecap="round" stroke-linejoin="round"/>
<path d="M659.605 81.3495C654.992 94.931 673.678 103.085 673.997 115.957C674.383 131.537 645.414 150.776 630.391 162.884" stroke="#0E0A2D" stroke-width="11.1389" stroke-miterlimit="1.5" stroke-linecap="round" stroke-linejoin="round"/>
<path d="M609.434 152.876C596.795 162.377 585.15 159.543 570.108 167.271C562.792 171.029 549.854 178.121 552.011 184.29C554.011 190.014 566.008 196.108 574.173 195.281C590.97 193.581 618.275 177.239 633.805 182.654C644.535 186.395 650.705 193.083 661.514 196.674C672.794 200.421 684.781 198.644 696.678 200.748C706.578 202.499 713.628 207.013 723.178 209.028C738.146 212.188 758.856 207.955 769.676 215.91C781.051 224.274 777.898 233.576 779.606 243.382C780.809 250.279 784.956 256.639 788.185 263.253" stroke="#0E0A2D" stroke-width="11.1389" stroke-miterlimit="1.5" stroke-linecap="round" stroke-linejoin="round"/>
<path d="M65.8052 147.712C53.166 157.213 33.1884 160.41 18.1468 168.139C10.8309 171.897 3.80938 175.898 5.96626 182.067C7.9666 187.791 20.2004 188.874 28.3655 188.047C45.1624 186.347 69.0331 177.239 84.5635 182.654C95.2929 186.395 101.464 193.083 112.273 196.674C123.553 200.421 135.539 198.644 147.436 200.748C157.336 202.499 164.386 207.013 173.936 209.029C188.904 212.188 209.612 207.956 220.432 215.91C231.808 224.274 228.654 233.577 230.365 243.382C231.568 250.279 235.714 256.639 238.944 263.253" stroke="#0E0A2D" stroke-width="11.1389" stroke-miterlimit="1.5" stroke-linecap="round" stroke-linejoin="round"/>
<path d="M438.869 -17.7696C463.22 -20.8713 489.06 -24.8386 514.018 -21.9659C534.401 -19.6201 552.148 -12.7274 572.113 -9.6459C604.169 -4.69824 622.835 -8.61099 644.011 9.55292" stroke="#0E0A2D" stroke-width="11.1389" stroke-miterlimit="1.5" stroke-linecap="round" stroke-linejoin="round"/>
<path d="M690.752 -14.1836C678.599 -4.28814 663.614 7.50236 666.582 20.4279" stroke="#0E0A2D" stroke-width="11.1389" stroke-miterlimit="1.5" stroke-linecap="round" stroke-linejoin="round"/>
<path d="M725.632 -11.4736C715.691 -3.65423 698.816 4.51924 695.873 14.5442C694.185 20.2961 698.432 25.9265 697.963 31.7306C697.716 34.797 698.308 48.8646 704.296 50.4947C718.453 54.3487 738.067 37.557 753.969 37.077" stroke="#0E0A2D" stroke-width="11.1389" stroke-miterlimit="1.5" stroke-linecap="round" stroke-linejoin="round"/>
<path d="M213.686 -9.44141C269.53 -5.41758 265.787 -19.6557 342.006 -23.3602" stroke="#0E0A2D" stroke-width="11.1389" stroke-miterlimit="1.5" stroke-linecap="round" stroke-linejoin="round"/>
<path d="M168.586 20.179C186.944 18.8318 205.537 17.4085 222.741 13.3076" stroke="#0E0A2D" stroke-width="11.1389" stroke-miterlimit="1.5" stroke-linecap="round" stroke-linejoin="round"/>
<path d="M288.351 156.454C285.34 161.515 282.456 166.812 281.338 172.137" stroke="#0E0A2D" stroke-width="11.1389" stroke-miterlimit="1.5" stroke-linecap="round" stroke-linejoin="round"/>
<path d="M258.588 9.95706C255.084 10.2914 250.777 10.6051 247.777 11.8403C242.43 14.0411 241.709 18.205 242.205 21.7549C243.251 29.2434 248.369 36.3611 250.041 43.8057C251.747 51.3964 250.249 58.6597 250.572 66.2322C250.81 71.8223 253.254 78.846 265.143 78.1214C289.426 76.6408 285.048 59.553 281.217 50.1115C280.314 47.8878 279.584 45.6626 279.101 43.3918C278.463 40.3837 277.88 37.2887 278.097 34.2548C278.51 28.4745 280.4 22.6793 282.875 17.089C284.882 12.5545 287.32 7.91567 291.945 4.04192C305.073 -6.95452 333.115 -9.65854 354.213 -7.70954C363.924 -6.81264 373.083 -4.72771 382.406 -2.97836" stroke="#0E0A2D" stroke-width="11.1389" stroke-miterlimit="1.5" stroke-linecap="round" stroke-linejoin="round"/>
<path d="M589.486 104.908C596.982 128.048 538.351 144.268 511.361 127.803C494.205 117.337 491.656 101.785 500.892 88.7866C505.281 82.609 524.433 71.477 514.273 65.4419C510.106 62.9666 502.701 63.9178 497.665 64.6574C483.591 66.7252 445.938 81.4268 445.743 63.0042C445.724 61.1136 446.196 59.1902 447.305 57.4068C451.855 50.0834 466.285 47.2336 478.281 45.5731C504.517 41.9404 544.712 42.4937 560.086 58.2126C567.506 65.7992 558.498 70.779 550.333 76.503C542.826 81.7653 534.336 88.3472 530.042 94.7306C525.928 100.847 525.865 108.336 535.393 112.721C543.454 116.43 554.782 112.88 558.961 108.297C563.139 103.714 562.248 98.2739 566.343 93.7107C570.42 89.1677 577.43 85.745 581.757 81.2726C586.69 76.1721 588.499 70.2249 592.655 64.8893C596.155 60.3965 601.455 53.8954 598.152 48.8911C594.558 43.4493 579.151 45.0138 570.92 41.2794C560.805 36.6902 551.181 31.4151 539.499 28.1318C514.293 21.0488 480.434 21.4544 454.168 26.5056C440.424 29.1488 430.042 36.339 415.812 37.9375C397.633 39.9796 382.726 32.2785 366.28 33.954C354.617 35.1422 349.513 45.1191 357.474 49.9838C373.062 59.5074 395.66 46.0862 412.249 51.6107" stroke="#0E0A2D" stroke-width="11.1389" stroke-miterlimit="1.5" stroke-linecap="round" stroke-linejoin="round"/>
<path d="M424.259 182.905C401.863 186.737 383.163 191.758 376.447 205.833C374.841 209.2 374.027 212.575 374.355 216.07C375.241 225.506 382.434 239.258 356.764 239.044C328.191 238.806 335.849 213.413 338.66 203.099C339.636 199.516 340.187 195.179 343.759 192.081C349.834 186.812 362.226 185.308 367.813 179.992C371.503 176.481 367.069 172.57 362.3 170.382C336.542 158.57 301.703 175.748 299.935 191.697C298.938 200.704 307.967 210.46 301.16 219.167C295.128 226.881 279.929 226.062 271.89 219.932C264.684 214.438 253.353 207.3 252.758 200.687C252.11 193.483 254.384 187.146 252.758 179.992C250.941 172 249.792 158 260.801 152.843" stroke="#0E0A2D" stroke-width="11.1389" stroke-miterlimit="1.5" stroke-linecap="round" stroke-linejoin="round"/>
</g>
</svg>
