<svg width="89" height="89" viewBox="0 0 89 89" fill="none" xmlns="http://www.w3.org/2000/svg">
<path d="M7.41699 59.3333C7.41699 48.8447 7.41699 43.6003 10.6754 40.3418C13.9339 37.0833 19.1782 37.0833 29.667 37.0833H59.3337C69.8223 37.0833 75.0666 37.0833 78.3251 40.3418C81.5837 43.6003 81.5837 48.8447 81.5837 59.3333C81.5837 69.822 81.5837 75.0663 78.3251 78.3248C75.0666 81.5833 69.8223 81.5833 59.3337 81.5833H29.667C19.1782 81.5833 13.9339 81.5833 10.6754 78.3248C7.41699 75.0663 7.41699 69.822 7.41699 59.3333Z" fill="#B9D6FF"/>
<path d="M44.4997 66.75C48.5959 66.75 51.9163 63.4296 51.9163 59.3334C51.9163 55.2371 48.5959 51.9167 44.4997 51.9167C40.4034 51.9167 37.083 55.2371 37.083 59.3334C37.083 63.4296 40.4034 66.75 44.4997 66.75Z" fill="#0266F3"/>
<path d="M25.0312 29.6667C25.0312 18.9144 33.7477 10.1979 44.5 10.1979C55.2523 10.1979 63.9687 18.9144 63.9687 29.6667V37.0967C66.0729 37.1164 67.9126 37.1649 69.5312 37.2858V29.6667C69.5312 15.8423 58.3243 4.63544 44.5 4.63544C30.6756 4.63544 19.4688 15.8423 19.4688 29.6667V37.2858C21.0875 37.1649 22.9273 37.1164 25.0312 37.0967V29.6667Z" fill="#0266F3"/>
</svg>
