<svg width="173" height="123" viewBox="0 0 173 123" fill="none" xmlns="http://www.w3.org/2000/svg">
<path d="M125.509 89.8672H44.8447V127.458H125.509V89.8672Z" fill="#B9D6FF"/>
<path d="M110.331 167.366H139.066L147.279 123.035C149.333 111.947 141.725 101.474 131.112 100.782L115.414 99.7579L110.331 167.366Z" fill="#B9D6FF"/>
<path d="M23.8086 109.039L43.5316 129.274L60.2495 115.998L44.1446 92.3981L23.8086 109.039Z" fill="#C06C63"/>
<path d="M39.9287 126.254L49.9861 150.578L77.8837 131.187L58.3435 111.896L39.9287 126.254Z" fill="#F7F1EB"/>
<path d="M23.8086 113.583L48.3616 94.8747L33.6368 70.7512C27.7169 61.0525 15.1904 58.9547 6.75172 66.2485C-1.82928 73.6653 -2.30315 87.417 5.74449 95.4811L23.8086 113.583Z" fill="#B9D6FF"/>
<path d="M48.9617 127.964C48.84 127.964 48.7209 127.9 48.6509 127.783C48.5423 127.601 48.5931 127.36 48.7642 127.244L57.0483 121.657C57.2201 121.541 57.4469 121.595 57.5557 121.777C57.6643 121.959 57.6135 122.201 57.4423 122.316L49.1583 127.903C49.0968 127.945 49.029 127.964 48.9617 127.964Z" fill="#363E44"/>
<path d="M50.121 94.2171C50.121 94.2171 82.5896 94.4856 107.477 94.8751L102.049 40.3492C102.049 40.3492 77.3334 30.5094 49.9863 32.3834L50.121 94.2171Z" fill="white"/>
<path d="M95.0469 37.5972L100.409 96.3355L146.541 97.4481C146.541 97.4481 148.489 77.6764 131.727 57.744C127.842 53.1238 123.121 49.3827 117.877 46.677C112.058 43.6751 102.546 39.0688 95.0469 37.5972Z" fill="#0052C4"/>
<path d="M59.0429 31.8869L60.8404 94.5598C60.8404 94.5598 16.5652 107.149 16.5527 75.7582C16.5474 62.3013 20.014 52.3583 23.5037 45.7592C26.9523 39.2385 32.8933 34.6555 39.7959 33.1973C44.9249 32.114 51.7415 31.2447 59.0429 31.8869Z" fill="#0052C4"/>
<path d="M39.9301 63.9009C39.8986 63.9009 39.8669 63.8966 39.8351 63.8876C39.6392 63.8322 39.5227 63.618 39.575 63.4098L41.5776 55.4197C41.63 55.2111 41.8324 55.088 42.0272 55.1429C42.2231 55.1983 42.3396 55.4124 42.2873 55.6207L40.2847 63.6108C40.2407 63.7856 40.0922 63.9009 39.9301 63.9009Z" fill="#363E44"/>
<path d="M22.5515 73.511C22.5027 73.511 22.4532 73.5006 22.4055 73.4786C22.2194 73.3925 22.1343 73.163 22.2151 72.9651C22.2568 72.863 26.5259 62.769 38.7543 63.9721C38.9566 63.9921 39.1052 64.1822 39.0865 64.397C39.0675 64.6117 38.8946 64.7693 38.6868 64.75C27.0041 63.5988 23.0509 72.881 22.8888 73.2767C22.8284 73.4233 22.6931 73.511 22.5515 73.511Z" fill="#363E44"/>
<path d="M104.767 78.811C102.535 77.2593 94.2235 69.2248 89.3275 71.1927C84.3964 73.1747 81.51 78.5549 80.4971 84.0544C80.5086 84.0737 80.5212 84.0952 80.5324 84.1143C80.879 85.6213 81.6148 87.8192 83.3716 89.5813C85.3744 91.5897 86.7857 91.1078 89.2097 92.8776C93.3009 95.8647 93.2393 100.301 94.9533 99.8842C96.1298 99.598 96.271 97.0145 95.8231 94.6227C95.3632 92.1667 94.0934 90.7844 94.3886 90.5203C94.7126 90.2304 95.8317 91.8121 97.3932 93.6432C98.1186 94.4941 98.7573 98.1338 100.419 97.9948C101.744 97.8839 101.971 93.9231 100.427 90.8752C99.3348 88.7191 97.2492 87.8616 97.4758 87.4849C97.6457 87.2022 98.8769 87.7457 99.8063 88.5503C101.34 89.8776 102.031 93.594 103.558 93.4343C105.055 93.2777 105.196 89.8149 103.943 86.916C102.886 84.4719 100.518 83.6336 100.797 83.1638C100.993 82.8333 102.127 82.9741 104.312 84.0056C106.136 84.8665 109.161 87.7909 110.294 85.8965C111.246 84.3035 108.138 81.1527 104.767 78.811Z" fill="#C06C63"/>
<path d="M40.9446 67.6802C36.1578 68.3881 32.108 71.8571 30.5354 76.7148C29.0352 81.3494 29.18 87.1504 35.8802 91.6836C49.1561 100.666 85.1649 85.1784 85.1649 85.1784L91.9198 70.9526C75.3824 66.7181 57.1154 65.2887 40.9446 67.6802Z" fill="#C06C63"/>
<path d="M155.255 99.4153C154.13 101.971 151.715 103.604 149.06 103.604H106.435L125.525 60.2362H172.501L155.255 99.4153Z" fill="#363E44"/>
<path d="M78.4551 99.2506C78.4551 101.667 80.2979 103.626 82.5711 103.626H121.876L123.801 99.2506H78.4551Z" fill="#363E44"/>
<path d="M167.338 80.5655C167.188 82.1919 166.937 83.497 164.287 83.2205C161.636 82.944 157.59 81.1907 157.74 79.5643C157.891 77.9379 162.18 77.0541 164.83 77.3306C167.481 77.6071 167.488 78.9391 167.338 80.5655Z" fill="#C06C63"/>
<path d="M155.934 83.7451C156.084 82.1187 160.373 81.235 163.024 81.5114C165.674 81.7879 165.681 83.1199 165.531 84.7463L155.934 83.7451Z" fill="#C06C63"/>
<path d="M165.531 84.7464C165.381 86.373 165.13 87.6779 162.48 87.4015C159.83 87.125 155.784 85.3716 155.934 83.7452L165.531 84.7464Z" fill="#C06C63"/>
<path d="M154.127 87.9263C154.277 86.2999 158.567 85.4161 161.217 85.6926C163.867 85.9691 163.874 87.3011 163.724 88.9275L154.127 87.9263Z" fill="#C06C63"/>
<path d="M163.724 88.9273C163.574 90.5539 163.324 91.8588 160.673 91.5824C158.023 91.3059 153.977 89.5525 154.127 87.9261L163.724 88.9273Z" fill="#C06C63"/>
<path d="M154.345 91.709C154.464 90.4161 157.874 89.7137 159.981 89.9335C162.087 90.1533 162.093 91.212 161.974 92.5049L154.345 91.709Z" fill="#C06C63"/>
<path d="M161.973 92.5047C161.854 93.7976 161.654 94.8349 159.548 94.6151C157.441 94.3953 154.225 93.0016 154.344 91.7087L161.973 92.5047Z" fill="#C06C63"/>
<path d="M68.0478 14.138C69.1293 15.6893 68.999 17.7402 67.7568 18.7185C66.5147 19.6969 64.631 19.2323 63.5495 17.681C62.4679 16.1296 62.5982 14.0788 63.8404 13.1005C65.0826 12.1221 66.9664 12.5867 68.0478 14.138Z" fill="#C06C63"/>
<path d="M81.4016 13.4156C80.4738 15.0756 80.7992 17.1017 82.1284 17.941C83.4575 18.7803 85.2872 18.1149 86.2149 16.4549C87.1427 14.7949 86.8173 12.7688 85.4881 11.9295C84.159 11.09 82.3293 11.7554 81.4016 13.4156Z" fill="#C06C63"/>
<path d="M74.0712 40.4816C70.8274 40.3234 68.3184 37.4003 68.4672 33.9523L69.0121 16.2286L80.7587 16.8012L80.2137 34.5249C80.0651 37.9728 77.315 40.6397 74.0712 40.4816Z" fill="#C06C63"/>
<path d="M76.1762 30.5268C66.7534 31.1187 66.4033 14.3953 66.4033 14.3953L83.1004 13.7947C83.1004 13.7947 85.3127 29.953 76.1762 30.5268Z" fill="#363E44"/>
<path d="M71.0124 15.7331C74.2328 14.9248 76.2269 11.4946 75.4665 8.07159C74.7061 4.64855 71.4791 2.52887 68.2587 3.33715C65.0383 4.14542 63.0442 7.57557 63.8046 10.9986C64.565 14.4216 67.7921 16.5413 71.0124 15.7331Z" fill="#363E44"/>
<path d="M82.9255 15.0783C83.1919 20.6436 79.7957 17.7165 75.3398 17.9576C70.8838 18.1986 67.0555 21.5165 66.7891 15.9513C66.5226 10.386 69.9189 7.20745 74.3748 6.96641C78.8308 6.72554 82.6589 9.51305 82.9255 15.0783Z" fill="#C06C63"/>
<path d="M82.9248 18.1713C82.903 18.1713 82.881 18.1691 82.8588 18.1649C82.659 18.1263 82.5266 17.923 82.5632 17.7108C82.7089 16.8596 82.7612 15.9806 82.7188 15.0981C82.6812 14.3123 82.5685 13.5341 82.3841 12.7852C82.3328 12.5766 82.4504 12.3632 82.6467 12.3086C82.8421 12.2541 83.0434 12.3788 83.0951 12.5876C83.292 13.3883 83.4122 14.2195 83.4528 15.0584C83.4976 16.001 83.4416 16.9404 83.2857 17.8507C83.2539 18.0392 83.0989 18.1713 82.9248 18.1713Z" fill="#363E44"/>
<path d="M67.0362 18.9682C66.8765 18.9682 66.7294 18.8563 66.6831 18.6846C66.4488 17.8108 66.3075 16.8978 66.263 15.971C66.2222 15.114 66.2649 14.2576 66.39 13.4263C66.4223 13.2132 66.6118 13.0673 66.8109 13.1025C67.0112 13.1365 67.1478 13.3369 67.1155 13.5499C66.9985 14.3274 66.9583 15.1287 66.9972 15.9313C67.0388 16.7993 67.1708 17.6535 67.39 18.4705C67.4457 18.6779 67.3327 18.894 67.1375 18.9531C67.1036 18.9632 67.0695 18.9682 67.0362 18.9682Z" fill="#363E44"/>
<path d="M75.4187 18.5616C75.3085 18.5616 75.1994 18.5092 75.1271 18.4091C75.0036 18.2382 75.0334 17.9931 75.1946 17.8615C75.351 17.7336 75.4453 17.6072 75.4468 17.5234C75.4478 17.4761 75.4117 17.4178 75.3295 17.2962C75.2229 17.1391 75.0773 16.9239 75.0149 16.6037C74.9593 16.3182 74.9823 16.0176 75.0828 15.7103C75.1496 15.5065 75.36 15.399 75.5503 15.4696C75.7419 15.5405 75.8434 15.7631 75.7767 15.9668C75.7204 16.1389 75.7064 16.2997 75.7347 16.4452C75.7652 16.6026 75.8399 16.7126 75.926 16.8399C76.0426 17.0119 76.1873 17.226 76.1818 17.5384C76.1753 17.8764 75.9942 18.1932 75.6426 18.4805C75.5754 18.5352 75.497 18.5616 75.4187 18.5616Z" fill="#363E44"/>
<path d="M74.1627 21.0264C73.8087 21.0264 73.2788 20.9513 72.7608 20.5955C72.4322 20.3697 72.1519 20.0579 71.9503 19.6935C71.8474 19.5077 71.9055 19.2682 72.0801 19.1589C72.2552 19.0495 72.4799 19.1111 72.5832 19.2973C72.7273 19.5573 72.9269 19.7795 73.1597 19.9395C73.6067 20.2464 74.0694 20.2588 74.3059 20.2395C74.5081 20.222 74.6851 20.3833 74.7009 20.5983C74.7167 20.8133 74.5656 21.0012 74.3633 21.0181C74.3055 21.023 74.238 21.0264 74.1627 21.0264Z" fill="white"/>
<path d="M65.7246 13.0325C65.7246 13.0325 70.0386 13.7119 74.5122 8.10747C74.5122 8.10747 82.8205 19.656 89.2116 5.7298C89.2116 5.7298 85.4679 7.48599 83.4596 4.71089C80.2642 0.295231 72.5949 -3.27119 69.5591 4.88074L65.7246 13.0325Z" fill="#363E44"/>
<path d="M80.1558 13.6838V13.6843L80.1363 13.6832C80.1281 13.7266 80.1036 13.7829 80.0608 13.7838C80.0128 13.8509 79.9943 13.9563 79.9632 14.0268C79.9072 14.1536 79.7257 14.0534 79.7815 13.9268C79.8192 13.8414 79.5496 14.0153 79.4305 14.0714C79.0504 14.2507 78.6643 14.4115 78.2726 14.5596C78.09 14.6286 77.9072 14.6993 77.7224 14.7616C77.5743 14.8116 77.0863 15.0043 77.0458 14.9816C76.5637 15.5005 76.3066 15.9805 76.3066 15.9805C76.3066 15.9805 77.0479 16.2837 77.9874 16.2864C77.9894 16.2729 77.9917 16.2596 77.9932 16.2458C78.0087 16.111 80.1438 15.4534 80.2069 15.5521C81.092 14.8838 81.577 13.9818 81.577 13.9818C81.577 13.9818 80.9687 13.7326 80.1558 13.6838Z" fill="white"/>
<path d="M78.5795 13.9015C77.9405 14.1438 77.4246 14.574 77.0469 14.9806C77.1164 15.4083 77.3286 15.8112 77.6767 16.0985C77.7664 16.1724 77.8608 16.2349 77.9586 16.2869C78.3822 16.2908 78.8476 16.2345 79.3044 16.0613C79.6349 15.9361 79.9304 15.7593 80.1929 15.5629C80.5111 14.9684 80.4804 14.241 80.1364 13.6836C79.659 13.6567 79.1136 13.6989 78.5795 13.9015Z" fill="#363E44"/>
<path d="M69.5712 14.4075V14.408L69.5905 14.4048C69.6028 14.4474 69.6325 14.5005 69.6752 14.4969C69.7293 14.5586 69.7576 14.6615 69.7953 14.7282C69.8629 14.8485 70.0341 14.7291 69.9664 14.6092C69.9209 14.5285 70.2057 14.6726 70.3295 14.7157C70.7245 14.8533 71.1239 14.9719 71.5277 15.0775C71.7159 15.1267 71.9046 15.1776 72.0943 15.2197C72.2465 15.2535 72.7501 15.3931 72.7883 15.3662C73.3172 15.8309 73.6183 16.2809 73.6183 16.2809C73.6183 16.2809 72.9094 16.6619 71.975 16.765C71.9717 16.7519 71.9682 16.7388 71.9654 16.7253C71.9372 16.5928 69.7508 16.1667 69.6973 16.2719C68.7534 15.7018 68.1855 14.8561 68.1855 14.8561C68.1855 14.8561 68.7669 14.543 69.5712 14.4075Z" fill="white"/>
<path d="M71.1601 14.4553C71.8188 14.628 72.3728 15.001 72.7872 15.3651C72.7585 15.7982 72.5854 16.2216 72.2663 16.5447C72.1842 16.6279 72.096 16.7 72.0037 16.7623C71.5827 16.8116 71.1145 16.8052 70.6434 16.6818C70.3029 16.5925 69.9921 16.4483 69.7124 16.2808C69.3395 15.7233 69.301 14.9962 69.5907 14.4049C70.0628 14.3273 70.6094 14.311 71.1601 14.4553Z" fill="#363E44"/>
</svg>
