<svg width="33" height="44" viewBox="0 0 33 44" fill="none" xmlns="http://www.w3.org/2000/svg">
<path d="M9.68829 34.169C10.0733 33.9435 10.494 33.7235 10.9505 33.5145C10.5649 34.0894 10.1519 34.6456 9.71304 35.181C8.94304 36.1078 8.34354 36.6001 7.96679 36.7541C7.93551 36.7673 7.90335 36.7783 7.87054 36.7871C7.84309 36.749 7.81916 36.7085 7.79904 36.6661C7.64504 36.3635 7.65054 36.072 7.90904 35.676C8.20054 35.2223 8.78629 34.7025 9.68829 34.169ZM16.4395 29.6396C16.1123 29.7084 15.7878 29.7771 15.4605 29.8541C15.9453 28.9044 16.4038 27.9415 16.8355 26.9666C17.2702 27.7721 17.7381 28.5593 18.238 29.3261C17.6413 29.4141 17.039 29.5186 16.4395 29.6396ZM23.3833 32.2219C22.9561 31.8774 22.5562 31.5005 22.187 31.0944C22.814 31.1082 23.3805 31.1549 23.87 31.2429C24.7418 31.3997 25.1515 31.6472 25.2945 31.8177C25.3396 31.8653 25.3651 31.9281 25.366 31.9937C25.3564 32.1877 25.2998 32.3764 25.201 32.5437C25.1456 32.6777 25.0566 32.7951 24.9425 32.8847C24.8858 32.9195 24.8189 32.9341 24.7528 32.926C24.5053 32.9177 24.0433 32.7445 23.3833 32.2219ZM17.2645 19.1702C17.1545 19.8412 16.9675 20.6112 16.7145 21.45C16.6213 21.1359 16.5397 20.8185 16.4698 20.4984C16.2608 19.5277 16.2305 18.7659 16.3433 18.2379C16.4478 17.7511 16.6458 17.5559 16.8823 17.4596C17.0091 17.4037 17.1435 17.3666 17.281 17.3496C17.3168 17.4321 17.358 17.6026 17.369 17.8941C17.3828 18.2296 17.3498 18.6559 17.2645 19.1729V19.1702Z" fill="#E00017"/>
<path fill-rule="evenodd" clip-rule="evenodd" d="M5.5 0H20.0557C20.785 0.000155756 21.4844 0.289996 22 0.805769L32.1942 11.0003C32.71 11.5159 32.9998 12.2152 33 12.9445V38.5009C33 39.9596 32.4205 41.3586 31.3891 42.3901C30.3576 43.4215 28.9587 44.001 27.5 44.001H5.5C4.04131 44.001 2.64236 43.4215 1.61091 42.3901C0.579462 41.3586 0 39.9596 0 38.5009V5.50013C0 4.0414 0.579462 2.64242 1.61091 1.61095C2.64236 0.579476 4.04131 0 5.5 0ZM20.625 4.12509V9.62522C20.625 10.3546 20.9147 11.0541 21.4305 11.5698C21.9462 12.0855 22.6457 12.3753 23.375 12.3753H28.875L20.625 4.12509ZM5.95375 37.5879C6.20125 38.0829 6.58625 38.5311 7.15825 38.7401C7.7275 38.9464 8.29125 38.8501 8.75325 38.6576C9.62775 38.3001 10.4995 37.4586 11.2998 36.4961C12.2155 35.3933 13.178 33.9468 14.1075 32.3435C15.902 31.8116 17.7396 31.438 19.5992 31.227C20.4242 32.2802 21.2767 33.1878 22.1017 33.8395C22.8717 34.4445 23.76 34.9478 24.6702 34.9863C25.1661 35.0109 25.657 34.878 26.0728 34.6068C26.499 34.329 26.8152 33.9275 27.0462 33.4628C27.2937 32.965 27.445 32.4452 27.4257 31.9145C27.4083 31.3912 27.2145 30.8892 26.8757 30.49C26.2542 29.7474 25.2367 29.3899 24.2357 29.2112C23.0215 29.0231 21.7894 28.9769 20.5645 29.0737C19.5301 27.6113 18.6282 26.0596 17.8695 24.4371C18.557 22.622 19.0712 20.906 19.2995 19.5034C19.3985 18.9039 19.4508 18.3319 19.4315 17.8149C19.4281 17.3017 19.3087 16.7959 19.0823 16.3354C18.9518 16.0812 18.7664 15.8593 18.5395 15.6856C18.3126 15.512 18.0499 15.3911 17.7705 15.3316C17.215 15.2133 16.643 15.3316 16.1178 15.5434C15.081 15.9559 14.5338 16.8359 14.3275 17.8067C14.1267 18.7417 14.2175 19.8307 14.454 20.9307C14.696 22.0473 15.1085 23.2628 15.6365 24.4921C14.7919 26.5926 13.8165 28.638 12.716 30.6165C11.2988 31.0624 9.93267 31.6569 8.6405 32.3902C7.623 32.9953 6.71825 33.7103 6.17375 34.5545C5.59625 35.4511 5.4175 36.5181 5.95375 37.5879Z" fill="#E00017"/>
</svg>
