<svg width="80" height="80" viewBox="0 0 80 80" fill="none" xmlns="http://www.w3.org/2000/svg">
<circle cx="40.0001" cy="39.7194" r="39.7194" fill="#E5F4ED"/>
<path d="M39.2917 20.8047C28.8701 20.8047 20.3777 29.2971 20.3777 39.7187C20.3777 50.1403 28.8701 58.6326 39.2917 58.6326C49.7133 58.6326 58.2056 50.1403 58.2056 39.7187C58.2056 29.2971 49.7133 20.8047 39.2917 20.8047ZM48.3325 35.3685L37.6083 46.0927C37.3435 46.3575 36.9842 46.5088 36.6059 46.5088C36.2276 46.5088 35.8682 46.3575 35.6034 46.0927L30.2508 40.74C29.7023 40.1915 29.7023 39.2836 30.2508 38.7351C30.7993 38.1866 31.7072 38.1866 32.2557 38.7351L36.6059 43.0854L46.3277 33.3636C46.8762 32.8151 47.784 32.8151 48.3325 33.3636C48.8811 33.9121 48.8811 34.801 48.3325 35.3685Z" fill="#23A26D"/>
</svg>
